G04*
G04 #@! TF.GenerationSoftware,Altium Limited,Altium Designer,22.2.1 (43)*
G04*
G04 Layer_Color=128*
%FSLAX43Y43*%
%MOMM*%
G71*
G04*
G04 #@! TF.SameCoordinates,554F8E3F-4C3B-413C-AF13-BA86D744421E*
G04*
G04*
G04 #@! TF.FilePolarity,Positive*
G04*
G01*
G75*
%ADD21R,0.970X1.730*%
%ADD24R,0.980X0.920*%
%ADD26R,0.920X0.980*%
%ADD28R,1.730X0.970*%
G04:AMPARAMS|DCode=194|XSize=0.94mm|YSize=1.02mm|CornerRadius=0.094mm|HoleSize=0mm|Usage=FLASHONLY|Rotation=90.000|XOffset=0mm|YOffset=0mm|HoleType=Round|Shape=RoundedRectangle|*
%AMROUNDEDRECTD194*
21,1,0.940,0.832,0,0,90.0*
21,1,0.752,1.020,0,0,90.0*
1,1,0.188,0.416,0.376*
1,1,0.188,0.416,-0.376*
1,1,0.188,-0.416,-0.376*
1,1,0.188,-0.416,0.376*
%
%ADD194ROUNDEDRECTD194*%
G04:AMPARAMS|DCode=195|XSize=0.94mm|YSize=1.02mm|CornerRadius=0.094mm|HoleSize=0mm|Usage=FLASHONLY|Rotation=0.000|XOffset=0mm|YOffset=0mm|HoleType=Round|Shape=RoundedRectangle|*
%AMROUNDEDRECTD195*
21,1,0.940,0.832,0,0,0.0*
21,1,0.752,1.020,0,0,0.0*
1,1,0.188,0.376,-0.416*
1,1,0.188,-0.376,-0.416*
1,1,0.188,-0.376,0.416*
1,1,0.188,0.376,0.416*
%
%ADD195ROUNDEDRECTD195*%
G04:AMPARAMS|DCode=196|XSize=1.23mm|YSize=0.6mm|CornerRadius=0.075mm|HoleSize=0mm|Usage=FLASHONLY|Rotation=180.000|XOffset=0mm|YOffset=0mm|HoleType=Round|Shape=RoundedRectangle|*
%AMROUNDEDRECTD196*
21,1,1.230,0.450,0,0,180.0*
21,1,1.080,0.600,0,0,180.0*
1,1,0.150,-0.540,0.225*
1,1,0.150,0.540,0.225*
1,1,0.150,0.540,-0.225*
1,1,0.150,-0.540,-0.225*
%
%ADD196ROUNDEDRECTD196*%
%ADD197R,1.500X0.800*%
%ADD198R,1.900X1.400*%
%ADD199R,1.400X1.300*%
%ADD200R,1.000X0.950*%
D21*
X149015Y66040D02*
D03*
X151975D02*
D03*
X149015Y72771D02*
D03*
X151975D02*
D03*
X149015Y75692D02*
D03*
X151975D02*
D03*
Y82423D02*
D03*
X149015D02*
D03*
X151975Y85344D02*
D03*
X149015D02*
D03*
Y92075D02*
D03*
X151975D02*
D03*
X149015Y101727D02*
D03*
X151975D02*
D03*
X157055Y80264D02*
D03*
X154095Y80264D02*
D03*
X157055Y77724D02*
D03*
X154095D02*
D03*
X153968Y99568D02*
D03*
X153968Y97028D02*
D03*
X154095Y87376D02*
D03*
X154139Y89916D02*
D03*
X154095Y70612D02*
D03*
Y68072D02*
D03*
X156928Y99568D02*
D03*
X157055Y70612D02*
D03*
X157099Y89916D02*
D03*
X156928Y97028D02*
D03*
X157055Y68072D02*
D03*
X157055Y87376D02*
D03*
X151975Y94996D02*
D03*
X149015D02*
D03*
D24*
X134747Y63640D02*
D03*
Y62090D02*
D03*
X132207Y63640D02*
D03*
Y62090D02*
D03*
D26*
X104153Y81407D02*
D03*
X102603D02*
D03*
D28*
X104521Y83991D02*
D03*
Y86951D02*
D03*
X101981Y83991D02*
D03*
Y86951D02*
D03*
D194*
X130302Y63655D02*
D03*
Y62075D02*
D03*
D195*
X133195Y60325D02*
D03*
X134775D02*
D03*
D196*
X151301Y80018D02*
D03*
X149181Y79068D02*
D03*
X151301Y78118D02*
D03*
Y68466D02*
D03*
X149181Y69416D02*
D03*
X151301Y70366D02*
D03*
X151218Y87770D02*
D03*
X149098Y88720D02*
D03*
X151218Y89670D02*
D03*
X151265Y97422D02*
D03*
X149145Y98372D02*
D03*
X151265Y99322D02*
D03*
D197*
X145488Y59053D02*
D03*
X145888Y57953D02*
D03*
X145488Y56853D02*
D03*
X145288Y55753D02*
D03*
X145488Y54653D02*
D03*
X145288Y53553D02*
D03*
X145488Y52453D02*
D03*
Y51353D02*
D03*
D198*
X142198Y63713D02*
D03*
X143198Y50563D02*
D03*
D199*
X156348Y57863D02*
D03*
Y52163D02*
D03*
D200*
X156548Y53553D02*
D03*
M02*
