G04*
G04 #@! TF.GenerationSoftware,Altium Limited,Altium Designer,22.2.1 (43)*
G04*
G04 Layer_Color=32896*
%FSLAX43Y43*%
%MOMM*%
G71*
G04*
G04 #@! TF.SameCoordinates,D3EB6253-BFD4-4380-A103-C90408D97D60*
G04*
G04*
G04 #@! TF.FilePolarity,Positive*
G04*
G01*
G75*
%ADD11C,0.200*%
%ADD14C,0.127*%
%ADD178C,0.100*%
%ADD179C,0.050*%
D11*
X70067Y77152D02*
G03*
X70067Y77152I-100J0D01*
G01*
D02*
G03*
X70067Y77152I-100J0D01*
G01*
X70976Y94044D02*
G03*
X70976Y94044I-100J0D01*
G01*
D02*
G03*
X70976Y94044I-100J0D01*
G01*
D14*
X69722Y82297D02*
X72772D01*
X69722Y79247D02*
X72772D01*
Y82297D01*
X69722Y79247D02*
Y82297D01*
X72772D01*
X69722Y79247D02*
X72772D01*
Y82297D01*
X69722Y79247D02*
Y82297D01*
X68071Y88899D02*
X71121D01*
X68071Y91949D02*
X71121D01*
X68071Y88899D02*
Y91949D01*
X71121Y88899D02*
Y91949D01*
X68071Y88899D02*
X71121D01*
X68071Y91949D02*
X71121D01*
X68071Y88899D02*
Y91949D01*
X71121Y88899D02*
Y91949D01*
X85852Y99822D02*
Y100584D01*
X85344D01*
X84582D02*
X85090D01*
X84582Y100076D01*
Y99949D01*
X84709Y99822D01*
X84963D01*
X85090Y99949D01*
X124079Y99822D02*
Y100584D01*
X123571D01*
X123317D02*
X123063D01*
X123190D01*
Y99822D01*
X123317Y99949D01*
D178*
X28854Y76832D02*
X30122Y75564D01*
X28854D02*
X33554D01*
Y86234D01*
X28854D02*
X33554D01*
X28854Y75564D02*
Y86234D01*
Y76832D02*
X30122Y75564D01*
X28854D02*
X33554D01*
Y86234D01*
X28854D02*
X33554D01*
X28854Y75564D02*
Y86234D01*
X28727Y89657D02*
X29995Y88389D01*
X28727D02*
X33427D01*
Y99059D01*
X28727D02*
X33427D01*
X28727Y88389D02*
Y99059D01*
Y89657D02*
X29995Y88389D01*
X28727D02*
X33427D01*
Y99059D01*
X28727D02*
X33427D01*
X28727Y88389D02*
Y99059D01*
Y102483D02*
X29995Y101215D01*
X28727D02*
X33427D01*
Y111885D01*
X28727D02*
X33427D01*
X28727Y101215D02*
Y111885D01*
Y102483D02*
X29995Y101215D01*
X28727D02*
X33427D01*
Y111885D01*
X28727D02*
X33427D01*
X28727Y101215D02*
Y111885D01*
Y115308D02*
X29995Y114040D01*
X28727D02*
X33427D01*
Y124710D01*
X28727D02*
X33427D01*
X28727Y114040D02*
Y124710D01*
Y115308D02*
X29995Y114040D01*
X28727D02*
X33427D01*
Y124710D01*
X28727D02*
X33427D01*
X28727Y114040D02*
Y124710D01*
D179*
X28604Y75314D02*
X33804D01*
Y86484D01*
X28604D02*
X33804D01*
X28604Y75314D02*
Y86484D01*
Y75314D02*
X33804D01*
Y86484D01*
X28604D02*
X33804D01*
X28604Y75314D02*
Y86484D01*
X28477Y88139D02*
X33677D01*
Y99309D01*
X28477D02*
X33677D01*
X28477Y88139D02*
Y99309D01*
Y88139D02*
X33677D01*
Y99309D01*
X28477D02*
X33677D01*
X28477Y88139D02*
Y99309D01*
Y100965D02*
X33677D01*
Y112135D01*
X28477D02*
X33677D01*
X28477Y100965D02*
Y112135D01*
Y100965D02*
X33677D01*
Y112135D01*
X28477D02*
X33677D01*
X28477Y100965D02*
Y112135D01*
Y113790D02*
X33677D01*
Y124960D01*
X28477D02*
X33677D01*
X28477Y113790D02*
Y124960D01*
Y113790D02*
X33677D01*
Y124960D01*
X28477D02*
X33677D01*
X28477Y113790D02*
Y124960D01*
M02*
