G04*
G04 #@! TF.GenerationSoftware,Altium Limited,Altium Designer,22.2.1 (43)*
G04*
G04 Layer_Color=8388736*
%FSLAX43Y43*%
%MOMM*%
G71*
G04*
G04 #@! TF.SameCoordinates,554F8E3F-4C3B-413C-AF13-BA86D744421E*
G04*
G04*
G04 #@! TF.FilePolarity,Negative*
G04*
G01*
G75*
%ADD66R,2.203X3.803*%
%ADD67R,1.173X1.933*%
%ADD68R,1.303X1.653*%
%ADD69R,3.803X2.203*%
%ADD70R,1.183X1.123*%
G04:AMPARAMS|DCode=71|XSize=1.393mm|YSize=0.603mm|CornerRadius=0.152mm|HoleSize=0mm|Usage=FLASHONLY|Rotation=0.000|XOffset=0mm|YOffset=0mm|HoleType=Round|Shape=RoundedRectangle|*
%AMROUNDEDRECTD71*
21,1,1.393,0.300,0,0,0.0*
21,1,1.090,0.603,0,0,0.0*
1,1,0.303,0.545,-0.150*
1,1,0.303,-0.545,-0.150*
1,1,0.303,-0.545,0.150*
1,1,0.303,0.545,0.150*
%
%ADD71ROUNDEDRECTD71*%
%ADD72R,1.123X1.183*%
%ADD73R,1.293X1.283*%
%ADD74R,1.933X1.173*%
%ADD75R,1.673X0.483*%
%ADD76R,2.204X3.804*%
%ADD77R,1.174X1.934*%
%ADD78R,1.934X1.174*%
%ADD79R,3.524X2.644*%
%ADD80R,1.193X3.993*%
%ADD81R,11.043X8.083*%
%ADD82R,3.103X5.603*%
%ADD83R,0.953X1.603*%
%ADD84R,2.903X2.103*%
%ADD85R,10.203X9.003*%
%ADD86R,5.603X3.103*%
%ADD87R,1.703X1.453*%
%ADD88R,1.676X0.559*%
%ADD89R,2.184X0.762*%
G04:AMPARAMS|DCode=90|XSize=0.483mm|YSize=1.763mm|CornerRadius=0.137mm|HoleSize=0mm|Usage=FLASHONLY|Rotation=270.000|XOffset=0mm|YOffset=0mm|HoleType=Round|Shape=RoundedRectangle|*
%AMROUNDEDRECTD90*
21,1,0.483,1.490,0,0,270.0*
21,1,0.210,1.763,0,0,270.0*
1,1,0.273,-0.745,-0.105*
1,1,0.273,-0.745,0.105*
1,1,0.273,0.745,0.105*
1,1,0.273,0.745,-0.105*
%
%ADD90ROUNDEDRECTD90*%
G04:AMPARAMS|DCode=91|XSize=1.763mm|YSize=0.483mm|CornerRadius=0.137mm|HoleSize=0mm|Usage=FLASHONLY|Rotation=270.000|XOffset=0mm|YOffset=0mm|HoleType=Round|Shape=RoundedRectangle|*
%AMROUNDEDRECTD91*
21,1,1.763,0.210,0,0,270.0*
21,1,1.490,0.483,0,0,270.0*
1,1,0.273,-0.105,-0.745*
1,1,0.273,-0.105,0.745*
1,1,0.273,0.105,0.745*
1,1,0.273,0.105,-0.745*
%
%ADD91ROUNDEDRECTD91*%
%ADD92R,1.473X3.383*%
%ADD93R,1.203X1.173*%
%ADD94R,0.803X1.703*%
%ADD95O,0.803X2.003*%
%ADD96R,0.803X2.003*%
%ADD97R,0.803X1.403*%
%ADD98R,1.903X1.203*%
G04:AMPARAMS|DCode=99|XSize=1.393mm|YSize=0.603mm|CornerRadius=0.152mm|HoleSize=0mm|Usage=FLASHONLY|Rotation=90.000|XOffset=0mm|YOffset=0mm|HoleType=Round|Shape=RoundedRectangle|*
%AMROUNDEDRECTD99*
21,1,1.393,0.300,0,0,90.0*
21,1,1.090,0.603,0,0,90.0*
1,1,0.303,0.150,0.545*
1,1,0.303,0.150,-0.545*
1,1,0.303,-0.150,-0.545*
1,1,0.303,-0.150,0.545*
%
%ADD99ROUNDEDRECTD99*%
%ADD100R,1.727X1.727*%
%ADD101R,1.753X2.453*%
%ADD102R,1.140X3.540*%
%ADD103R,10.840X8.740*%
%ADD104R,1.727X1.727*%
%ADD105R,2.003X1.543*%
%ADD106R,1.603X1.403*%
%ADD107R,3.883X1.473*%
%ADD108R,1.653X1.303*%
%ADD109R,1.473X3.378*%
%ADD110R,1.763X0.823*%
%ADD111R,1.353X1.353*%
%ADD112R,1.003X1.403*%
%ADD113R,1.173X1.203*%
%ADD114R,1.283X1.293*%
%ADD115R,0.773X2.223*%
%ADD116C,4.115*%
%ADD117O,4.395X2.300*%
%ADD118O,4.394X2.299*%
%ADD119C,4.318*%
%ADD120R,1.808X1.808*%
%ADD121C,1.808*%
%ADD122R,2.153X2.153*%
%ADD123C,2.153*%
%ADD124C,1.343*%
%ADD125R,1.343X1.343*%
%ADD126O,3.251X1.727*%
%ADD127R,2.258X2.258*%
%ADD128C,2.258*%
%ADD129C,2.007*%
%ADD130C,2.515*%
%ADD131C,4.293*%
%ADD132R,1.702X1.702*%
%ADD133C,1.702*%
%ADD134R,2.258X2.258*%
%ADD135C,3.703*%
%ADD136C,1.973*%
%ADD137C,1.763*%
%ADD138R,1.303X1.303*%
%ADD139R,1.763X1.763*%
%ADD140C,3.549*%
%ADD141C,1.631*%
%ADD142R,1.631X1.631*%
%ADD143C,1.303*%
%ADD144R,1.973X1.973*%
%ADD145C,2.403*%
%ADD146C,1.003*%
%ADD147C,0.703*%
%ADD148C,8.203*%
%ADD149C,2.203*%
%ADD150C,1.203*%
G36*
X97456Y99604D02*
Y100604D01*
X100156D01*
Y99604D01*
X101256D01*
Y98104D01*
X100156D01*
Y96404D01*
X97456D01*
Y98104D01*
X96356D01*
Y99604D01*
X97456D01*
D02*
G37*
G36*
Y105604D02*
Y107304D01*
X100156D01*
Y105604D01*
X101256D01*
Y104104D01*
X100156D01*
Y103104D01*
X97456D01*
Y104104D01*
X96356D01*
Y105604D01*
X97456D01*
D02*
G37*
G36*
X109140Y98677D02*
Y99877D01*
X111840D01*
Y98677D01*
X112940D01*
Y97177D01*
X111840D01*
Y95277D01*
X109140D01*
Y97177D01*
X108040D01*
Y98677D01*
X109140D01*
D02*
G37*
G36*
Y106277D02*
Y108177D01*
X111840D01*
Y106277D01*
X112940D01*
Y104777D01*
X111840D01*
Y103577D01*
X109140D01*
Y104777D01*
X108040D01*
Y106277D01*
X109140D01*
D02*
G37*
G36*
X97456Y113292D02*
Y114492D01*
X100156D01*
Y113292D01*
X101256D01*
Y111792D01*
X100156D01*
Y109892D01*
X97456D01*
Y111792D01*
X96356D01*
Y113292D01*
X97456D01*
D02*
G37*
G36*
Y120892D02*
Y122792D01*
X100156D01*
Y120892D01*
X101256D01*
Y119392D01*
X100156D01*
Y118192D01*
X97456D01*
Y119392D01*
X96356D01*
Y120892D01*
X97456D01*
D02*
G37*
G36*
X109140Y113955D02*
Y114955D01*
X111840D01*
Y113955D01*
X112940D01*
Y112455D01*
X111840D01*
Y110755D01*
X109140D01*
Y112455D01*
X108040D01*
Y113955D01*
X109140D01*
D02*
G37*
G36*
Y119955D02*
Y121655D01*
X111840D01*
Y119955D01*
X112940D01*
Y118455D01*
X111840D01*
Y117455D01*
X109140D01*
Y118455D01*
X108040D01*
Y119955D01*
X109140D01*
D02*
G37*
D66*
X35023Y32385D02*
D03*
X28223D02*
D03*
X38637D02*
D03*
X45437D02*
D03*
X65376D02*
D03*
X58576D02*
D03*
X75790D02*
D03*
X68990D02*
D03*
X38637Y71755D02*
D03*
X45437D02*
D03*
X28223D02*
D03*
X35023D02*
D03*
X68887D02*
D03*
X75687D02*
D03*
X58449D02*
D03*
X65249D02*
D03*
D67*
X34373Y27686D02*
D03*
X31413D02*
D03*
X34373Y76454D02*
D03*
X31413D02*
D03*
X64853Y27686D02*
D03*
X61893D02*
D03*
X64594Y76454D02*
D03*
X61634Y76454D02*
D03*
X60408Y101981D02*
D03*
X57448D02*
D03*
X69767Y92583D02*
D03*
X72727D02*
D03*
X69767Y90043D02*
D03*
X72727D02*
D03*
Y80137D02*
D03*
X69767D02*
D03*
X60242Y87376D02*
D03*
X63202D02*
D03*
X69767Y82677D02*
D03*
X72727D02*
D03*
X60242Y84836D02*
D03*
X63202D02*
D03*
X142196Y41921D02*
D03*
X139236D02*
D03*
X153104Y75819D02*
D03*
X156064D02*
D03*
X153104Y79883D02*
D03*
X156064D02*
D03*
X153104Y83947D02*
D03*
X156064D02*
D03*
X155766Y100457D02*
D03*
X152806D02*
D03*
X155810Y96393D02*
D03*
X152850D02*
D03*
X155937Y92329D02*
D03*
X152977D02*
D03*
X139686Y97663D02*
D03*
X142646D02*
D03*
X139686Y84074D02*
D03*
X142646D02*
D03*
X139686Y80010D02*
D03*
X142646D02*
D03*
X139642Y75946D02*
D03*
X142602D02*
D03*
X116161Y81153D02*
D03*
X113201D02*
D03*
X116161Y78740D02*
D03*
X113201D02*
D03*
X148507Y110490D02*
D03*
X151467D02*
D03*
Y107950D02*
D03*
X148507D02*
D03*
X130981Y109728D02*
D03*
X133941D02*
D03*
X127125Y41921D02*
D03*
X130085D02*
D03*
X64306Y114808D02*
D03*
X67266D02*
D03*
X58972D02*
D03*
X61932D02*
D03*
X77299Y95123D02*
D03*
X74339D02*
D03*
X104311Y74549D02*
D03*
X107271D02*
D03*
D68*
X57925Y76327D02*
D03*
X59725D02*
D03*
X58155Y27813D02*
D03*
X59955D02*
D03*
X29602D02*
D03*
X27802D02*
D03*
X29602Y76327D02*
D03*
X27802D02*
D03*
X77227Y97663D02*
D03*
X133869Y112141D02*
D03*
X75427Y97663D02*
D03*
X132069Y112141D02*
D03*
D69*
X73279Y100359D02*
D03*
Y107159D02*
D03*
X133858Y124304D02*
D03*
Y117504D02*
D03*
D70*
X54229Y81648D02*
D03*
Y83198D02*
D03*
Y86728D02*
D03*
Y88278D02*
D03*
Y95872D02*
D03*
Y97422D02*
D03*
X74676Y90538D02*
D03*
Y92088D02*
D03*
X54229Y92215D02*
D03*
Y90665D02*
D03*
X74676Y80632D02*
D03*
Y82182D02*
D03*
X98044Y69355D02*
D03*
Y67805D02*
D03*
Y32017D02*
D03*
Y30467D02*
D03*
X85471Y29832D02*
D03*
Y31382D02*
D03*
X98044Y42913D02*
D03*
Y44463D02*
D03*
Y57036D02*
D03*
Y55486D02*
D03*
X85471Y68987D02*
D03*
Y67437D02*
D03*
Y54724D02*
D03*
Y56274D02*
D03*
Y43955D02*
D03*
Y42405D02*
D03*
X49022Y105169D02*
D03*
Y103619D02*
D03*
Y92850D02*
D03*
Y91300D02*
D03*
X122809Y73139D02*
D03*
Y74689D02*
D03*
X121412Y69228D02*
D03*
Y67678D02*
D03*
X125095Y69202D02*
D03*
Y70752D02*
D03*
X123444Y69202D02*
D03*
Y70752D02*
D03*
X105410Y92697D02*
D03*
Y94247D02*
D03*
X138938Y71006D02*
D03*
Y69456D02*
D03*
X102616Y74943D02*
D03*
Y73393D02*
D03*
X90424Y90056D02*
D03*
Y88506D02*
D03*
X133477Y69202D02*
D03*
Y70752D02*
D03*
X126873D02*
D03*
Y69202D02*
D03*
X152146Y61201D02*
D03*
Y62751D02*
D03*
X141097Y30594D02*
D03*
Y32144D02*
D03*
X105918Y32118D02*
D03*
Y33668D02*
D03*
X154051Y112242D02*
D03*
Y113792D02*
D03*
X146685Y110884D02*
D03*
Y109334D02*
D03*
X144780Y110884D02*
D03*
Y109334D02*
D03*
X157480Y49543D02*
D03*
Y47993D02*
D03*
X120777Y65545D02*
D03*
Y63995D02*
D03*
D71*
X58110Y98059D02*
D03*
Y96759D02*
D03*
X56190D02*
D03*
Y97409D02*
D03*
Y98059D02*
D03*
Y92329D02*
D03*
Y91679D02*
D03*
X58110Y92979D02*
D03*
Y91679D02*
D03*
X56190Y92979D02*
D03*
X56261Y88930D02*
D03*
Y88280D02*
D03*
Y87630D02*
D03*
X58181D02*
D03*
Y88930D02*
D03*
X56190Y83835D02*
D03*
Y83185D02*
D03*
Y82535D02*
D03*
X58110D02*
D03*
Y83835D02*
D03*
D72*
X56629Y94869D02*
D03*
X58179D02*
D03*
X56629Y99822D02*
D03*
X58179D02*
D03*
X56629Y85725D02*
D03*
X58179D02*
D03*
X62852Y78867D02*
D03*
X64402D02*
D03*
X94094Y36830D02*
D03*
X95644D02*
D03*
Y74168D02*
D03*
X94094D02*
D03*
X94094Y61722D02*
D03*
X95644D02*
D03*
X93980Y49276D02*
D03*
X95530D02*
D03*
X150101Y35306D02*
D03*
X151651D02*
D03*
X154343Y86995D02*
D03*
X152793D02*
D03*
X154724Y77851D02*
D03*
X153174D02*
D03*
X154724Y90297D02*
D03*
X153174D02*
D03*
X153174Y81915D02*
D03*
X154724D02*
D03*
X140969Y95631D02*
D03*
X142519D02*
D03*
X140969Y82042D02*
D03*
X142519D02*
D03*
X154470Y98425D02*
D03*
X152920D02*
D03*
X154724Y73787D02*
D03*
X153174D02*
D03*
X140969Y73914D02*
D03*
X142519D02*
D03*
X154597Y94361D02*
D03*
X153047D02*
D03*
X152793Y70612D02*
D03*
X154343Y70612D02*
D03*
X140969Y77978D02*
D03*
X142519D02*
D03*
X145021Y75438D02*
D03*
X146571Y75438D02*
D03*
X145174Y91821D02*
D03*
X143624D02*
D03*
X91554Y92583D02*
D03*
X93104D02*
D03*
X95644Y75819D02*
D03*
X94094D02*
D03*
X118478Y50673D02*
D03*
X120028D02*
D03*
X137782Y48514D02*
D03*
X139332D02*
D03*
X108852Y92710D02*
D03*
X107302D02*
D03*
X97777Y92329D02*
D03*
X99327D02*
D03*
X119139Y89916D02*
D03*
X117589D02*
D03*
X137046Y71628D02*
D03*
X135496D02*
D03*
X143142Y38735D02*
D03*
X141592D02*
D03*
X157620Y70612D02*
D03*
X156070D02*
D03*
X118224Y67564D02*
D03*
X119774D02*
D03*
X120028Y52324D02*
D03*
X136144Y48514D02*
D03*
X143142Y35306D02*
D03*
X141592D02*
D03*
X134594Y48514D02*
D03*
X118478Y52324D02*
D03*
X133083Y106807D02*
D03*
X134633D02*
D03*
X141465Y64389D02*
D03*
X143015D02*
D03*
D73*
X65532Y87935D02*
D03*
Y84785D02*
D03*
X62992Y99746D02*
D03*
Y96596D02*
D03*
D74*
X60452Y99778D02*
D03*
Y96818D02*
D03*
Y82125D02*
D03*
Y79165D02*
D03*
Y92539D02*
D03*
Y89579D02*
D03*
X97917Y34588D02*
D03*
Y37548D02*
D03*
Y49994D02*
D03*
Y47034D02*
D03*
Y62313D02*
D03*
Y59353D02*
D03*
X138589Y86531D02*
D03*
Y89491D02*
D03*
Y94317D02*
D03*
X138589Y91357D02*
D03*
X130334Y76244D02*
D03*
Y79204D02*
D03*
X100584Y71926D02*
D03*
Y74886D02*
D03*
X136606Y44544D02*
D03*
Y41584D02*
D03*
X132669Y44544D02*
D03*
Y41584D02*
D03*
X102743Y92627D02*
D03*
Y95587D02*
D03*
X36576Y99612D02*
D03*
Y102572D02*
D03*
Y92373D02*
D03*
Y95333D02*
D03*
Y104692D02*
D03*
Y107652D02*
D03*
X110490Y90634D02*
D03*
Y87674D02*
D03*
X95250Y92627D02*
D03*
Y95587D02*
D03*
X130334Y81070D02*
D03*
Y84030D02*
D03*
D75*
X62874Y91075D02*
D03*
Y91575D02*
D03*
X62874Y92075D02*
D03*
X62874Y92575D02*
D03*
Y93075D02*
D03*
X67174D02*
D03*
Y92575D02*
D03*
X67174Y92075D02*
D03*
X67174Y91575D02*
D03*
Y91075D02*
D03*
X67165Y81661D02*
D03*
Y82161D02*
D03*
Y82661D02*
D03*
X62865D02*
D03*
Y82161D02*
D03*
Y81661D02*
D03*
Y81161D02*
D03*
Y80661D02*
D03*
X67165D02*
D03*
Y81161D02*
D03*
D76*
X66392Y108077D02*
D03*
X59592D02*
D03*
D77*
X119165Y87630D02*
D03*
X116205Y87630D02*
D03*
X157563Y60325D02*
D03*
X154603D02*
D03*
D78*
X109220Y81324D02*
D03*
Y84284D02*
D03*
X97917Y74842D02*
D03*
Y71882D02*
D03*
X36576Y87293D02*
D03*
Y90253D02*
D03*
D79*
X81788Y69873D02*
D03*
Y74653D02*
D03*
X101854Y58016D02*
D03*
Y53236D02*
D03*
Y45443D02*
D03*
Y40663D02*
D03*
X81534Y34140D02*
D03*
Y29360D02*
D03*
X122682Y84097D02*
D03*
Y88877D02*
D03*
D80*
X123571Y110821D02*
D03*
X125271D02*
D03*
X126971D02*
D03*
X120171D02*
D03*
X121871D02*
D03*
D81*
X123571Y121571D02*
D03*
D82*
X90167Y100203D02*
D03*
X80267D02*
D03*
D83*
X136869Y69469D02*
D03*
X135419D02*
D03*
D84*
X74041Y111818D02*
D03*
D85*
Y120968D02*
D03*
D86*
X123571Y105153D02*
D03*
Y95253D02*
D03*
D87*
X32639Y106246D02*
D03*
Y102796D02*
D03*
Y115009D02*
D03*
Y111559D02*
D03*
X35306Y115009D02*
D03*
Y111559D02*
D03*
X32639Y93546D02*
D03*
Y90096D02*
D03*
D88*
X150901Y90170D02*
D03*
X145263D02*
D03*
X150901Y84328D02*
D03*
Y84963D02*
D03*
Y85623D02*
D03*
Y86284D02*
D03*
Y86919D02*
D03*
Y87579D02*
D03*
Y88214D02*
D03*
Y88875D02*
D03*
Y89535D02*
D03*
X145263D02*
D03*
Y88875D02*
D03*
Y88214D02*
D03*
Y87579D02*
D03*
Y86919D02*
D03*
Y86284D02*
D03*
Y85623D02*
D03*
Y84963D02*
D03*
Y84328D02*
D03*
X150901Y73812D02*
D03*
X145263D02*
D03*
Y67970D02*
D03*
Y68605D02*
D03*
X145263Y69266D02*
D03*
X145263Y69926D02*
D03*
Y70561D02*
D03*
Y71222D02*
D03*
Y71857D02*
D03*
Y72517D02*
D03*
Y73177D02*
D03*
X150901D02*
D03*
Y72517D02*
D03*
Y71857D02*
D03*
Y71222D02*
D03*
Y70561D02*
D03*
Y69926D02*
D03*
X150901Y69266D02*
D03*
X150901Y68605D02*
D03*
Y67970D02*
D03*
D89*
X145390Y77216D02*
D03*
X145390Y78486D02*
D03*
X145390Y79756D02*
D03*
Y81026D02*
D03*
X150317Y81026D02*
D03*
Y79756D02*
D03*
Y78486D02*
D03*
Y77216D02*
D03*
X145390Y93472D02*
D03*
Y94742D02*
D03*
X145390Y96012D02*
D03*
X145390Y97282D02*
D03*
X150317D02*
D03*
X150317Y96012D02*
D03*
Y94742D02*
D03*
Y93472D02*
D03*
D90*
X123511Y64420D02*
D03*
Y63920D02*
D03*
Y63420D02*
D03*
Y62920D02*
D03*
Y61920D02*
D03*
Y61420D02*
D03*
Y60920D02*
D03*
Y60420D02*
D03*
Y59920D02*
D03*
Y59420D02*
D03*
Y58920D02*
D03*
Y58420D02*
D03*
Y57920D02*
D03*
Y57420D02*
D03*
Y56920D02*
D03*
Y56420D02*
D03*
Y55920D02*
D03*
Y55420D02*
D03*
Y54920D02*
D03*
Y54420D02*
D03*
Y53920D02*
D03*
Y52920D02*
D03*
Y52420D02*
D03*
X138871D02*
D03*
Y52920D02*
D03*
Y53420D02*
D03*
Y53920D02*
D03*
Y54420D02*
D03*
Y54920D02*
D03*
Y55420D02*
D03*
Y55920D02*
D03*
Y56420D02*
D03*
Y56920D02*
D03*
Y57420D02*
D03*
Y57920D02*
D03*
Y58420D02*
D03*
Y58920D02*
D03*
Y59420D02*
D03*
Y59920D02*
D03*
Y60420D02*
D03*
Y60920D02*
D03*
Y61920D02*
D03*
Y62420D02*
D03*
Y62920D02*
D03*
Y63420D02*
D03*
Y63920D02*
D03*
Y64420D02*
D03*
X123511Y62420D02*
D03*
X138871Y61420D02*
D03*
X123511Y53420D02*
D03*
D91*
X137191Y66100D02*
D03*
X136691D02*
D03*
X136191D02*
D03*
X135691D02*
D03*
X135191D02*
D03*
X134691D02*
D03*
X134191D02*
D03*
X133691D02*
D03*
X133191D02*
D03*
X132691D02*
D03*
X132191D02*
D03*
X131691D02*
D03*
X131191D02*
D03*
X130691D02*
D03*
X130191D02*
D03*
X129691D02*
D03*
X129191D02*
D03*
X128691D02*
D03*
X128191D02*
D03*
X126691D02*
D03*
X126191D02*
D03*
X125691D02*
D03*
X125191D02*
D03*
Y50740D02*
D03*
X125691D02*
D03*
X127191D02*
D03*
X127691D02*
D03*
X128191D02*
D03*
X128691D02*
D03*
X129191D02*
D03*
X129691D02*
D03*
X130191D02*
D03*
X130691D02*
D03*
X131191D02*
D03*
X131691D02*
D03*
X132191D02*
D03*
X132691D02*
D03*
X133191D02*
D03*
X133691D02*
D03*
X134191D02*
D03*
X134691D02*
D03*
X135191D02*
D03*
X135691D02*
D03*
X136691D02*
D03*
X137191D02*
D03*
X127191Y66100D02*
D03*
X127691D02*
D03*
X126191Y50740D02*
D03*
X126691D02*
D03*
X136191D02*
D03*
D92*
X118618Y30045D02*
D03*
X121158D02*
D03*
X123698D02*
D03*
D93*
X143102Y36957D02*
D03*
X141632D02*
D03*
X118264Y69215D02*
D03*
X119734D02*
D03*
D94*
X157988Y68055D02*
D03*
X156718D02*
D03*
X155448D02*
D03*
X154178D02*
D03*
Y62755D02*
D03*
X155448D02*
D03*
X156718D02*
D03*
X157988D02*
D03*
D95*
X106680Y78359D02*
D03*
X105410Y90059D02*
D03*
X104140D02*
D03*
X102870Y90059D02*
D03*
X100330D02*
D03*
X97790Y90059D02*
D03*
X96520Y90059D02*
D03*
X92710Y90059D02*
D03*
X102870Y78359D02*
D03*
X101600Y78359D02*
D03*
X100330Y78359D02*
D03*
X99060Y78359D02*
D03*
X97790D02*
D03*
X96520Y78359D02*
D03*
X95250D02*
D03*
X93980D02*
D03*
X92710Y78359D02*
D03*
X93980Y90059D02*
D03*
X95250Y90059D02*
D03*
X99060D02*
D03*
X101600D02*
D03*
X105410Y78359D02*
D03*
X104140Y78359D02*
D03*
D96*
X106680Y90059D02*
D03*
D97*
X147127Y37739D02*
D03*
X146177Y37739D02*
D03*
X145227Y37739D02*
D03*
Y40239D02*
D03*
X146177Y40239D02*
D03*
X147127Y40239D02*
D03*
D98*
X114071Y75814D02*
D03*
X120371D02*
D03*
Y72014D02*
D03*
X114071D02*
D03*
D99*
X80899Y77709D02*
D03*
X81549D02*
D03*
X82199D02*
D03*
Y79629D02*
D03*
X80899D02*
D03*
X86980Y76835D02*
D03*
X88280D02*
D03*
Y74915D02*
D03*
X87630Y74915D02*
D03*
X86980Y74915D02*
D03*
X90028Y76835D02*
D03*
X91328Y76835D02*
D03*
X91328Y74915D02*
D03*
X90678Y74915D02*
D03*
X90028Y74915D02*
D03*
X83947Y79629D02*
D03*
X85247Y79629D02*
D03*
Y77709D02*
D03*
X84597Y77709D02*
D03*
X83947D02*
D03*
D100*
X97790Y84455D02*
D03*
Y86614D02*
D03*
D101*
X157734Y105188D02*
D03*
Y109188D02*
D03*
X154305Y105188D02*
D03*
Y109188D02*
D03*
X113411Y91662D02*
D03*
Y87662D02*
D03*
D102*
X85979Y110685D02*
D03*
X87679D02*
D03*
X89379D02*
D03*
X82579D02*
D03*
X84279D02*
D03*
D103*
X85979Y121285D02*
D03*
D104*
X173355Y87884D02*
D03*
X175514Y87884D02*
D03*
X173355Y85598D02*
D03*
X175514Y85598D02*
D03*
X173355Y83312D02*
D03*
X175514D02*
D03*
D105*
X141224Y86708D02*
D03*
X141224Y89568D02*
D03*
X127667Y76421D02*
D03*
X127667Y79281D02*
D03*
D106*
X131275Y70954D02*
D03*
X129075D02*
D03*
Y69254D02*
D03*
X131275D02*
D03*
D107*
X153416Y46990D02*
D03*
X148466Y46990D02*
D03*
X153416Y49530D02*
D03*
X148466D02*
D03*
X153416Y52070D02*
D03*
X148466D02*
D03*
X153416Y54610D02*
D03*
X148466D02*
D03*
X153416Y57150D02*
D03*
X148466Y57150D02*
D03*
D108*
X130129Y39254D02*
D03*
X132669Y39265D02*
D03*
X136652Y39265D02*
D03*
X139319Y39265D02*
D03*
X132669Y37465D02*
D03*
X130129Y37454D02*
D03*
X136652Y37465D02*
D03*
X139319Y37465D02*
D03*
D109*
X130683Y33070D02*
D03*
X133223D02*
D03*
X135763D02*
D03*
X138303D02*
D03*
D110*
X100571Y30226D02*
D03*
Y28956D02*
D03*
Y27686D02*
D03*
Y26416D02*
D03*
X105931D02*
D03*
Y27686D02*
D03*
Y28956D02*
D03*
Y30226D02*
D03*
D111*
X119920Y54229D02*
D03*
X117570D02*
D03*
Y56261D02*
D03*
X119920D02*
D03*
X143891Y59563D02*
D03*
X141541D02*
D03*
X141541Y61722D02*
D03*
X143891Y61722D02*
D03*
D112*
X134499Y97663D02*
D03*
X131699D02*
D03*
D113*
X134493Y101700D02*
D03*
Y100230D02*
D03*
D114*
X134544Y104140D02*
D03*
X131394Y104140D02*
D03*
D115*
X146685Y113811D02*
D03*
X147955D02*
D03*
X149225D02*
D03*
X150495D02*
D03*
Y123171D02*
D03*
X149225D02*
D03*
X147955D02*
D03*
X146685D02*
D03*
D116*
X48514Y43815D02*
D03*
D117*
X28194Y38354D02*
D03*
X28194Y43815D02*
D03*
X28194Y49276D02*
D03*
D118*
X58547Y65811D02*
D03*
Y54889D02*
D03*
Y60350D02*
D03*
X28194Y65659D02*
D03*
Y54737D02*
D03*
Y60198D02*
D03*
X58547Y49276D02*
D03*
Y38354D02*
D03*
Y43815D02*
D03*
D119*
X78867Y60350D02*
D03*
X48514Y60198D02*
D03*
X78867Y43815D02*
D03*
D120*
X51562Y92964D02*
D03*
Y83820D02*
D03*
D121*
Y95504D02*
D03*
Y98044D02*
D03*
Y86360D02*
D03*
Y88900D02*
D03*
D122*
X60965Y123571D02*
D03*
D123*
X51435D02*
D03*
D124*
X95631Y56896D02*
D03*
Y54356D02*
D03*
Y51816D02*
D03*
X87691Y54356D02*
D03*
Y51816D02*
D03*
Y56896D02*
D03*
X95631Y59436D02*
D03*
X95664Y32004D02*
D03*
Y29464D02*
D03*
Y26924D02*
D03*
X87724D02*
D03*
Y32004D02*
D03*
Y29464D02*
D03*
X95664Y34544D02*
D03*
Y64262D02*
D03*
Y66802D02*
D03*
Y69342D02*
D03*
X87724Y64262D02*
D03*
Y69342D02*
D03*
Y66802D02*
D03*
X95664Y71882D02*
D03*
X95537Y39370D02*
D03*
Y41910D02*
D03*
Y44450D02*
D03*
X87597Y39370D02*
D03*
X95537Y46990D02*
D03*
X87597Y44450D02*
D03*
Y41910D02*
D03*
D125*
X87691Y59436D02*
D03*
X87724Y34544D02*
D03*
Y71882D02*
D03*
X87597Y46990D02*
D03*
D126*
X134525Y76073D02*
D03*
Y78613D02*
D03*
X134525Y81153D02*
D03*
X134525Y92583D02*
D03*
Y90043D02*
D03*
X134525Y87503D02*
D03*
D127*
X35052Y122428D02*
D03*
D128*
X37587D02*
D03*
X40122D02*
D03*
X28702Y95118D02*
D03*
Y92583D02*
D03*
X28575Y117599D02*
D03*
Y105408D02*
D03*
Y107943D02*
D03*
Y120134D02*
D03*
D129*
X170104Y87859D02*
D03*
Y61849D02*
D03*
X167615Y87859D02*
D03*
X165100D02*
D03*
X162611D02*
D03*
X170104Y84353D02*
D03*
Y79350D02*
D03*
X167615D02*
D03*
X165100D02*
D03*
Y61849D02*
D03*
X167615D02*
D03*
X170104Y64338D02*
D03*
Y66853D02*
D03*
Y69342D02*
D03*
Y71857D02*
D03*
Y74346D02*
D03*
X162611Y76860D02*
D03*
X167615D02*
D03*
X170104D02*
D03*
X162611Y79350D02*
D03*
X165100Y81839D02*
D03*
X162611Y84353D02*
D03*
X165100D02*
D03*
X162611Y61849D02*
D03*
Y81839D02*
D03*
Y64338D02*
D03*
X165100D02*
D03*
X167615D02*
D03*
X162611Y66853D02*
D03*
X165100D02*
D03*
X167615D02*
D03*
X162611Y69342D02*
D03*
X165100D02*
D03*
X167615D02*
D03*
X162611Y71857D02*
D03*
X165100D02*
D03*
X167615D02*
D03*
X162611Y74346D02*
D03*
X165100D02*
D03*
X167615D02*
D03*
X165100Y76860D02*
D03*
X167615Y81839D02*
D03*
X170104D02*
D03*
X167615Y84353D02*
D03*
X162611Y91542D02*
D03*
X165100D02*
D03*
X167615D02*
D03*
X170104D02*
D03*
D130*
X161620Y55397D02*
D03*
Y97993D02*
D03*
D131*
X165456Y51308D02*
D03*
Y102108D02*
D03*
D132*
X39497Y110236D02*
D03*
Y97917D02*
D03*
D133*
Y107696D02*
D03*
Y105156D02*
D03*
Y102616D02*
D03*
X47117D02*
D03*
Y105156D02*
D03*
Y107696D02*
D03*
Y110236D02*
D03*
Y97917D02*
D03*
Y95377D02*
D03*
Y92837D02*
D03*
Y90297D02*
D03*
X39497D02*
D03*
Y92837D02*
D03*
Y95377D02*
D03*
D134*
X28702Y90048D02*
D03*
X28575Y115064D02*
D03*
Y102873D02*
D03*
D135*
X45468Y114819D02*
D03*
X49528D02*
D03*
X40388D02*
D03*
X54608D02*
D03*
D136*
X115443Y84074D02*
D03*
X117723D02*
D03*
D137*
X135763Y27559D02*
D03*
X133223D02*
D03*
X138303D02*
D03*
D138*
X53340Y109942D02*
D03*
D139*
X130683Y27559D02*
D03*
D140*
X156337Y27607D02*
D03*
X144297D02*
D03*
D141*
X151567Y30317D02*
D03*
X149067D02*
D03*
Y32317D02*
D03*
D142*
X151567D02*
D03*
D143*
X53340Y104942D02*
D03*
D144*
X113163Y84074D02*
D03*
D145*
X106925Y45973D02*
D03*
X85299Y71855D02*
D03*
Y59536D02*
D03*
Y46963D02*
D03*
Y34517D02*
D03*
X36361Y83975D02*
D03*
X33567D02*
D03*
X30773D02*
D03*
X27979D02*
D03*
X154021Y41970D02*
D03*
X164173Y35072D02*
D03*
Y32278D02*
D03*
Y29484D02*
D03*
Y26690D02*
D03*
X105299Y124794D02*
D03*
X102505D02*
D03*
X99711D02*
D03*
X96917D02*
D03*
X51405Y102676D02*
D03*
X51532Y79308D02*
D03*
X163546Y118170D02*
D03*
X140813Y121853D02*
D03*
X137257Y109788D02*
D03*
X167513Y115062D02*
D03*
X68106Y76445D02*
D03*
X70646D02*
D03*
X73186D02*
D03*
X72390Y96774D02*
D03*
X69850D02*
D03*
X67310D02*
D03*
X61849Y112522D02*
D03*
D146*
X153924Y38481D02*
D03*
Y35560D02*
D03*
X155410Y34292D02*
D03*
X105537Y120269D02*
D03*
X105410Y122809D02*
D03*
X103378Y118999D02*
D03*
X103251Y121539D02*
D03*
X119253Y80137D02*
D03*
X119126Y77216D02*
D03*
X90043Y73279D02*
D03*
X90551Y69215D02*
D03*
X133731Y35814D02*
D03*
X131445Y35941D02*
D03*
X136271Y35581D02*
D03*
X176102Y70628D02*
D03*
X105410Y91567D02*
D03*
X172720Y100711D02*
D03*
Y102235D02*
D03*
X99060Y80010D02*
D03*
X146812Y84836D02*
D03*
X143637Y86106D02*
D03*
X158750Y69342D02*
D03*
X33095Y27704D02*
D03*
X66294Y76454D02*
D03*
X35433Y79756D02*
D03*
X176149Y108966D02*
D03*
X58547Y78994D02*
D03*
X155448Y37084D02*
D03*
X170561Y41148D02*
D03*
X168402Y42926D02*
D03*
X117221Y50673D02*
D03*
X146177Y41656D02*
D03*
X97790Y80772D02*
D03*
X153416Y59817D02*
D03*
X156210Y60325D02*
D03*
X128397Y35806D02*
D03*
X126873Y45466D02*
D03*
X124841Y48514D02*
D03*
X125349Y47371D02*
D03*
X126111Y46355D02*
D03*
X146812Y68580D02*
D03*
X143637Y69215D02*
D03*
X84582Y75184D02*
D03*
X82423Y82042D02*
D03*
X86995Y78232D02*
D03*
X90043D02*
D03*
X97917Y73533D02*
D03*
X60706Y98171D02*
D03*
X58960Y84515D02*
D03*
X60071Y90805D02*
D03*
X60706Y94107D02*
D03*
X100965Y92710D02*
D03*
X114173Y113792D02*
D03*
X137922Y29591D02*
D03*
X93599Y101092D02*
D03*
X100584Y73533D02*
D03*
X101600Y80518D02*
D03*
X104521Y85598D02*
D03*
X104140Y88265D02*
D03*
D147*
X148209Y78486D02*
D03*
X108839Y52197D02*
D03*
X111252Y50165D02*
D03*
X109982D02*
D03*
X139007Y95528D02*
D03*
X141039Y96671D02*
D03*
X82931Y77089D02*
D03*
X86048Y77494D02*
D03*
X136017Y101600D02*
D03*
X137033Y96266D02*
D03*
X156464Y94742D02*
D03*
X149987Y110490D02*
D03*
X146558Y101600D02*
D03*
X125349Y82042D02*
D03*
X141478Y72517D02*
D03*
X145923Y76327D02*
D03*
X171958Y89154D02*
D03*
X175006Y72390D02*
D03*
X147955Y96647D02*
D03*
X163703Y78105D02*
D03*
X159893Y88646D02*
D03*
X160655Y87122D02*
D03*
X159639Y86995D02*
D03*
X151892Y93472D02*
D03*
X146558Y88900D02*
D03*
X147955Y87122D02*
D03*
X147320Y90297D02*
D03*
X146812Y96901D02*
D03*
X76327Y85344D02*
D03*
X75819Y80645D02*
D03*
X77597Y86614D02*
D03*
X75946Y87122D02*
D03*
X75311Y87757D02*
D03*
X74676Y83439D02*
D03*
X111887Y50800D02*
D03*
X110617D02*
D03*
X109347D02*
D03*
X100203Y82677D02*
D03*
X150495Y65913D02*
D03*
X149987Y75692D02*
D03*
X139954Y35814D02*
D03*
X149479Y63627D02*
D03*
X155321Y65913D02*
D03*
X159893Y68072D02*
D03*
X140462Y67056D02*
D03*
X139954Y67564D02*
D03*
X147828Y84836D02*
D03*
X148082Y80645D02*
D03*
X159004Y65786D02*
D03*
X147828Y65278D02*
D03*
X157861Y64135D02*
D03*
X156718Y65913D02*
D03*
X148844Y56007D02*
D03*
X140335Y63754D02*
D03*
X149352Y68580D02*
D03*
X120444Y62956D02*
D03*
X98552Y76708D02*
D03*
X99441Y76200D02*
D03*
X80137Y77724D02*
D03*
X83312D02*
D03*
X86233Y74930D02*
D03*
X89281D02*
D03*
X160020Y71120D02*
D03*
X128524Y64643D02*
D03*
X127762D02*
D03*
X132969Y64770D02*
D03*
X154178Y65786D02*
D03*
X152273Y67818D02*
D03*
X122301Y32766D02*
D03*
X123952Y67691D02*
D03*
X123190Y66802D02*
D03*
X136906Y60452D02*
D03*
X128397Y59944D02*
D03*
X129413Y60325D02*
D03*
X119878Y61006D02*
D03*
X125095Y63881D02*
D03*
X126492Y64516D02*
D03*
X125730D02*
D03*
X129286Y64643D02*
D03*
X133604Y64389D02*
D03*
X129159Y53594D02*
D03*
X129667Y53086D02*
D03*
X124447Y73139D02*
D03*
X126720Y67857D02*
D03*
X133477Y69850D02*
D03*
X126619Y54356D02*
D03*
X125204Y68217D02*
D03*
X145542Y61722D02*
D03*
X157988Y65913D02*
D03*
X135509Y56261D02*
D03*
X136525D02*
D03*
X141732Y56896D02*
D03*
X142621Y57531D02*
D03*
X140970Y54864D02*
D03*
X140716Y56261D02*
D03*
X140462Y60198D02*
D03*
Y61341D02*
D03*
X122047Y55118D02*
D03*
X121892Y55920D02*
D03*
X121956Y56920D02*
D03*
X125571Y60420D02*
D03*
X123190Y65405D02*
D03*
X145923Y46990D02*
D03*
X136144Y52451D02*
D03*
X132691Y52681D02*
D03*
X132191Y53070D02*
D03*
X130683Y52070D02*
D03*
X130175Y52578D02*
D03*
X121031Y33020D02*
D03*
Y55118D02*
D03*
X121158Y54229D02*
D03*
X133477Y49403D02*
D03*
X144653Y43434D02*
D03*
X144272Y43053D02*
D03*
X135509Y52324D02*
D03*
X54969Y97415D02*
D03*
Y83185D02*
D03*
Y88280D02*
D03*
X54969Y92275D02*
D03*
X143637Y82004D02*
D03*
Y73406D02*
D03*
X143281Y71857D02*
D03*
X143637Y72517D02*
D03*
X142621Y78740D02*
D03*
X135763Y60325D02*
D03*
X132191Y64786D02*
D03*
X134691Y64841D02*
D03*
X130429Y64643D02*
D03*
X138198Y71716D02*
D03*
X126873Y71755D02*
D03*
X104140Y80010D02*
D03*
X133477Y48514D02*
D03*
X140335D02*
D03*
X85217Y81026D02*
D03*
X82169D02*
D03*
X93980Y79883D02*
D03*
X92710Y79883D02*
D03*
X108204Y106934D02*
D03*
X101473Y117602D02*
D03*
X108204D02*
D03*
X101473Y106934D02*
D03*
X102489Y88265D02*
D03*
D148*
X84582Y87376D02*
D03*
X52070Y32512D02*
D03*
X172720Y31115D02*
D03*
Y121285D02*
D03*
D149*
X79248Y92583D02*
D03*
X92202Y56134D02*
D03*
X92075Y45466D02*
D03*
X104140Y109474D02*
D03*
X164719Y109220D02*
D03*
X116304Y109474D02*
D03*
D150*
X135636Y113665D02*
D03*
X101727Y32004D02*
D03*
X125730Y113792D02*
D03*
M02*
