M48
;Layer_Color=9474304
;FILE_FORMAT=4:3
METRIC,LZ
;TYPE=PLATED
T1F00S00C0.300
T2F00S00C0.400
T3F00S00C0.740
T4F00S00C0.750
T5F00S00C0.800
T6F00S00C0.920
T7F00S00C0.991
T8F00S00C1.040
T9F00S00C1.070
T10F00S00C1.180
T11F00S00C1.295
T12F00S00C1.300
T13F00S00C1.370
T14F00S00C1.397
T15F00S00C2.330
T16F00S00C4.000
;TYPE=NON_PLATED
T17F00S00C2.311
T18F00S00C4.089
T19F00S00C4.115
%
T01
X0028194Y003556
X0060198Y0039243
X0058293Y0026924
X0122047Y0035941
X0123698Y0036068
X0135128Y0028067
X0140589Y0039624
X0144653Y0038735
X0163957Y0043688
X0166497Y0042037
X0171196Y0044577
X017526Y0046101
X0172085Y0049784
X0164465Y0047498
X0167386Y0059436
X017571Y0061272
X017399Y0075565
X0174117Y0078105
X0158846Y0066706
X0160909Y0064262
X0155956Y0063119
X0156845Y0066929
X0157861Y0067437
X0157734Y0072009
X0155321Y0078105
X0152654Y0079248
X0142875Y0079121
X0140843Y0078486
X014097Y0077597
X0136271Y0078613
X0134818Y0078049
X013208Y0079121
X0129413Y0078232
X0128143Y0075184
X0125349
X012573Y0073914
X0125349Y0072136
X0125095Y0070739
X0126746Y0069977
X0127254Y0067564
X0128143Y0066421
X0127508Y0065659
X0126746Y0065024
X0125603Y0064897
X012573Y0063627
X0126873
X0127762
X0128651
X0129921Y0066294
X0129667Y0067183
X0128778Y0068199
X0130556Y0069723
X0131445
X0133096Y0069342
X0134239
X0135255Y0069215
X0137033Y0068707
X0135636Y0066802
X0136017Y0065913
X0136398Y0065151
X0136652Y0064262
X0136017Y0063627
X0134493Y0064389
X0133604Y0063754
X0133985Y0062865
X0134112Y0066167
X0132461Y0065278
X0133223Y0067945
Y0074041
X0133985Y0074422
X0134874Y0074168
X0132461Y0074549
X0124206Y0075819
Y0077089
X0122936Y0075946
X0122809Y0078359
X0119126Y0077597
X0119253Y0073533
X0120396Y0071882
X0119126Y0070866
X0121793Y0070358
Y0068961
Y0067564
Y006604
X0121539Y006477
X0119634Y006604
X0126492Y0066167
X0125349Y0062865
X012319Y0059563
X0121666Y0058547
X0124936Y005407
X0128524Y0052832
X0129159Y0051943
X0129921Y00508
X0128397Y0050165
X0131445Y005207
X0133223Y0053467
X0134493Y0053975
X0133604Y0055245
X0132207Y005969
X0137033Y0059817
X0137287Y0062611
X0141224Y0059563
X0142494Y005842
X0144907Y0057531
X0147066Y0058293
X0150622Y0058674
X0146939Y0052197
X0141859
X0141224Y0052959
X0137414Y0047879
X0135763Y0048387
X0132969Y0045212
X0129032Y0045593
X0126873Y0043688
X0132842Y0040259
X0139954Y0040894
X0145161Y0040132
X0145794Y0041077
X0145796Y0042037
X0145415Y0045212
X0145923Y0046355
X015494Y0048514
X0154813Y0049784
X0158496Y0043307
X0157594Y0042177
X0150876Y0069723
X0144526Y0068834
X0143764Y0069215
X0142748
X0141605Y0068961
X0141478Y0067056
X0141224Y0065786
X0142367Y0065151
Y0066421
X0140589Y0067691
X0143383Y007366
X0119761Y0046101
X0115189Y0045974
Y005207
X0113792Y0052959
X0112903Y0051816
Y0056261
X0110998Y0055626
X010795Y0057912
X0105791Y005842
X0106553Y0054483
X0106934Y0051308
X0109982Y0047625
X0110871Y0048387
X0105156Y0042926
X0098044Y0047625
X0097663Y0052902
X009652Y005334
X0099441Y0052113
X0100584Y0052705
X0098552Y0062865
X0105029Y00722
X0107569Y0073787
X0109601Y0078994
X01016
X0093472
X0085598
X0081407Y0075692
X0116078Y0072517
X0117983Y0072644
X0118872Y0075057
X0117602Y0078994
X011684Y0070104
X0115443Y0069469
X0115189Y0068453
X011684Y0067818
X0118491
X0118618Y006604
X0117221Y0066167
X0077724Y0078994
X0069215Y0077216
X0069342Y0075692
X0064516Y0077216
X0065913Y0079121
X0059182Y0075692
X005588Y0075311
X0051308Y0074168
X0053975Y0082042
X005842Y0081788
Y0084709
Y0088011
X0058435Y0091074
X0062484Y0089535
X0062992Y0093472
X0063881Y0092583
X00635Y0085471
X0063473Y0081026
X0065405Y008255
X0066675Y0082169
X0070358Y0081026
X0073279Y0083566
X0075057Y0089281
X0077724Y0086741
X0078359Y0094869
X0066802Y0101219
X006477Y0100838
X0066294Y0104394
X0053975Y0104521
X0059309Y0097282
X0054229Y0087376
X0043942Y0084074
Y008128
X0039878Y0113157
X0085598Y0086741
X0093599
X01016
X010287Y0093345
X0104013Y0093218
X0102616Y0094488
X010287Y0096012
X0095205Y0095253
X0109601Y0086741
X0113284Y0083693
X0117602Y0086868
X0115279Y0089662
X0120904Y0090424
X0126746Y0085344
X0127635Y0082296
X0126759Y0081166
X012954Y0083058
X0134366Y0082931
X0136144Y0083312
X0136017Y0081915
X0139827Y0082296
X0142367Y0082042
X0142621Y0081153
X0142875Y0080137
X0146177Y0080899
X0147066Y0080391
X0145923Y0087757
X0145034Y0087122
X0144145Y0086868
X0138176Y0088646
X0135128Y0085344
X0133604Y0086741
X0139319Y0094615
Y0097663
X0137668Y01016
X0139319Y0104775
X014605Y0101473
X0145669Y011176
X0146431Y011303
X0144907Y011557
X0155956Y0117729
X0156972Y0117602
X0158369Y0106807
X0156591Y0083947
X0155575Y0082296
X0153162Y0083312
X015367Y0086106
X0158496Y0080645
X0174117
X0176022Y008636
X0174625Y0113792
X0167767Y0116078
X016002Y0112776
X0159512Y0106045
X0161544Y0119761
Y0122936
X0166243Y0119634
X0156972Y0120269
Y0122809
X0152019Y012319
Y012192
Y012065
Y011938
X0145415Y012065
Y012192
T02
X0050546Y0030353
X0083161Y0028853
X0058801Y0114046
X0039751Y0115824
X0098806Y0108204
X011049Y0109093
X0136779Y0114046
X0145288Y011049
X01524
Y0111887
X011049Y012319
X0098806Y0124079
T03
X0094201Y0030226
Y0032766
Y0035306
Y0037846
X0102141
Y0035306
Y0032766
Y0030226
X0102014Y0041148
Y0043688
Y0046228
Y0048768
Y005207
Y005461
Y005715
Y005969
X0102141Y0062992
Y0065532
Y0068072
Y0070612
X0094201
Y0068072
Y0065532
Y0062992
X0094074Y005969
Y005715
Y005461
Y005207
Y0048768
Y0046228
Y0043688
Y0041148
T04
X0071414Y0109601
X0076414
T05
X0118745Y0116078
X0139573Y010922
T06
X0149067Y0032047
Y0034047
X0151567
Y0032047
T07
X0041275Y0090297
Y0092837
Y0095377
Y0097917
X0041148Y0102362
Y0104902
Y0107442
Y0109982
X0048768
Y0107442
Y0104902
Y0102362
X0048895Y0097917
Y0095377
Y0092837
Y0090297
T08
X0129159Y0029845
X0131699
X0134239
X0136779
T09
X0056007Y0078232
Y0080772
Y0083312
X0056134Y0089662
Y0092202
Y0094742
T10
X0133477Y0106813
Y0109093
Y0111373
T11
X0162611Y0061849
X01651
Y0064338
X0162611
Y0066853
X01651
Y0069342
X0162611
Y0071857
X01651
Y0074346
X0162611
Y007686
X01651
Y007935
X0162611
X0167615
Y007686
X0170104
Y007935
Y0074346
Y0071857
X0167615
Y0074346
Y0069342
Y0066853
X0170104
Y0069342
Y0064338
Y0061849
X0167615
Y0064338
Y0081839
X0170104
Y0084353
X0167615
X01651
X0162611
Y0081839
X01651
Y0087859
X0162611
Y0091542
X01651
X0167615
X0170104
Y0087859
X0167615
T12
X0053528Y0122047
X0063058
T13
X0032004Y0078364
Y0080899
Y0083434
X0031877Y0091189
Y0093724
Y0096259
Y0104015
Y010655
Y0109085
Y011684
Y0119375
Y012191
T14
X0031877Y0036957
X0064516
Y0042418
Y0047879
Y005334
Y0058801
Y0064262
X0031877
Y0058801
Y005334
Y0047879
Y0042418
T15
X0144297Y0029337
X0156337
T16
X0173609Y0030607
X0058166Y0050673
X0173482Y0121158
X0042291
T17
X016162Y0055397
Y0097993
T18
X0165456Y0051308
Y0102108
T19
X0084836Y0042418
Y0058801
X0052197
Y0042418
M30
