G04*
G04 #@! TF.GenerationSoftware,Altium Limited,Altium Designer,22.2.1 (43)*
G04*
G04 Layer_Color=16711935*
%FSLAX43Y43*%
%MOMM*%
G71*
G04*
G04 #@! TF.SameCoordinates,D3EB6253-BFD4-4380-A103-C90408D97D60*
G04*
G04*
G04 #@! TF.FilePolarity,Negative*
G04*
G01*
G75*
%ADD54R,1.123X1.183*%
%ADD57R,1.353X1.353*%
%ADD58R,1.933X1.173*%
%ADD60R,1.183X1.123*%
%ADD61R,1.173X1.933*%
G04:AMPARAMS|DCode=62|XSize=1.393mm|YSize=0.603mm|CornerRadius=0.152mm|HoleSize=0mm|Usage=FLASHONLY|Rotation=0.000|XOffset=0mm|YOffset=0mm|HoleType=Round|Shape=RoundedRectangle|*
%AMROUNDEDRECTD62*
21,1,1.393,0.300,0,0,0.0*
21,1,1.090,0.603,0,0,0.0*
1,1,0.303,0.545,-0.150*
1,1,0.303,-0.545,-0.150*
1,1,0.303,-0.545,0.150*
1,1,0.303,0.545,0.150*
%
%ADD62ROUNDEDRECTD62*%
%ADD91C,4.318*%
%ADD92O,4.394X2.299*%
%ADD93C,1.973*%
%ADD94R,1.973X1.973*%
%ADD95C,1.343*%
%ADD96R,1.343X1.343*%
%ADD97C,1.808*%
%ADD98R,1.808X1.808*%
%ADD99C,1.702*%
%ADD100R,1.702X1.702*%
%ADD101R,1.303X1.303*%
%ADD102C,1.303*%
%ADD103R,2.153X2.153*%
%ADD104C,2.153*%
%ADD105C,2.258*%
%ADD106R,2.258X2.258*%
%ADD107C,1.763*%
%ADD108R,1.763X1.763*%
%ADD109C,2.007*%
%ADD110C,2.515*%
%ADD111C,4.293*%
%ADD112R,1.631X1.631*%
%ADD113C,1.631*%
%ADD114C,3.549*%
%ADD115C,0.703*%
%ADD116C,6.203*%
%ADD117C,1.003*%
%ADD118C,0.803*%
%ADD119C,1.703*%
%ADD167R,2.184X0.762*%
G04:AMPARAMS|DCode=168|XSize=1.433mm|YSize=0.803mm|CornerRadius=0.177mm|HoleSize=0mm|Usage=FLASHONLY|Rotation=180.000|XOffset=0mm|YOffset=0mm|HoleType=Round|Shape=RoundedRectangle|*
%AMROUNDEDRECTD168*
21,1,1.433,0.450,0,0,180.0*
21,1,1.080,0.803,0,0,180.0*
1,1,0.353,-0.540,0.225*
1,1,0.353,0.540,0.225*
1,1,0.353,0.540,-0.225*
1,1,0.353,-0.540,-0.225*
%
%ADD168ROUNDEDRECTD168*%
%ADD169R,0.762X2.184*%
%ADD170R,1.263X2.023*%
%ADD171R,2.293X1.593*%
%ADD172O,2.003X0.803*%
%ADD173R,2.003X0.803*%
%ADD174R,1.003X1.703*%
%ADD175R,1.603X2.103*%
%ADD176R,1.503X1.603*%
%ADD177R,1.153X1.203*%
D54*
X107810Y56388D02*
D03*
X109360D02*
D03*
X148857Y125222D02*
D03*
X147307D02*
D03*
X162928Y118110D02*
D03*
X164478D02*
D03*
X117602Y90424D02*
D03*
X119152D02*
D03*
X109588Y90297D02*
D03*
X111138D02*
D03*
X101473D02*
D03*
X103023D02*
D03*
X93459D02*
D03*
X95009D02*
D03*
X85585D02*
D03*
X87135D02*
D03*
X77584D02*
D03*
X79134D02*
D03*
X77584Y82550D02*
D03*
X79134D02*
D03*
X85585D02*
D03*
X87135D02*
D03*
X101473D02*
D03*
X103023D02*
D03*
X109588D02*
D03*
X111138D02*
D03*
X117602D02*
D03*
X119152D02*
D03*
X95009D02*
D03*
X93459D02*
D03*
D57*
X137732Y99441D02*
D03*
X135382D02*
D03*
X137700Y97282D02*
D03*
X135350D02*
D03*
X137700Y95123D02*
D03*
X135350D02*
D03*
X137700Y92964D02*
D03*
X135350D02*
D03*
D58*
X143510Y63075D02*
D03*
Y60115D02*
D03*
X150622Y63075D02*
D03*
Y60115D02*
D03*
X143510Y56979D02*
D03*
Y54019D02*
D03*
X150622Y57062D02*
D03*
Y54102D02*
D03*
X150495Y50839D02*
D03*
Y47879D02*
D03*
X143510Y51010D02*
D03*
Y48050D02*
D03*
Y44787D02*
D03*
Y41827D02*
D03*
X150622Y44660D02*
D03*
Y41700D02*
D03*
X136779Y103803D02*
D03*
Y106763D02*
D03*
X139573Y111169D02*
D03*
Y114129D02*
D03*
X122809Y85134D02*
D03*
Y88094D02*
D03*
X115062Y85007D02*
D03*
Y87967D02*
D03*
X107061Y85007D02*
D03*
Y87967D02*
D03*
X98933Y85007D02*
D03*
Y87967D02*
D03*
X90932Y85007D02*
D03*
Y87967D02*
D03*
X82931Y85051D02*
D03*
Y88011D02*
D03*
Y77260D02*
D03*
Y80220D02*
D03*
X90932Y77133D02*
D03*
Y80093D02*
D03*
X98933Y77133D02*
D03*
Y80093D02*
D03*
X115062Y77260D02*
D03*
Y80220D02*
D03*
X122809Y77133D02*
D03*
Y80093D02*
D03*
X107061Y77260D02*
D03*
Y80220D02*
D03*
D60*
X165735Y47511D02*
D03*
Y45961D02*
D03*
X165227Y42151D02*
D03*
Y43701D02*
D03*
X175260Y43294D02*
D03*
Y44844D02*
D03*
X107569Y70980D02*
D03*
Y72530D02*
D03*
X51562Y94501D02*
D03*
Y92951D02*
D03*
Y106439D02*
D03*
Y104889D02*
D03*
X162687Y124727D02*
D03*
Y123177D02*
D03*
Y121425D02*
D03*
Y119875D02*
D03*
Y113271D02*
D03*
Y114821D02*
D03*
X91948Y65265D02*
D03*
Y66815D02*
D03*
D61*
X172041Y48133D02*
D03*
X169081D02*
D03*
X139236Y106934D02*
D03*
X142196D02*
D03*
X80601Y88011D02*
D03*
X77641D02*
D03*
X93516Y85471D02*
D03*
X96476D02*
D03*
X101517D02*
D03*
X104477D02*
D03*
X120606Y88138D02*
D03*
X117646D02*
D03*
X112605Y88011D02*
D03*
X109645D02*
D03*
X104477D02*
D03*
X101517D02*
D03*
X96476D02*
D03*
X93516D02*
D03*
X88558D02*
D03*
X85598D02*
D03*
Y85471D02*
D03*
X88558D02*
D03*
X77641D02*
D03*
X80601D02*
D03*
X96476Y80264D02*
D03*
X93516D02*
D03*
X88558D02*
D03*
X85598D02*
D03*
X80601D02*
D03*
X77641D02*
D03*
Y77724D02*
D03*
X80601D02*
D03*
X85598Y77597D02*
D03*
X88558D02*
D03*
X93516D02*
D03*
X96476D02*
D03*
X104477Y80264D02*
D03*
X101517D02*
D03*
X112605D02*
D03*
X109645D02*
D03*
X120606D02*
D03*
X117646D02*
D03*
Y77597D02*
D03*
X120606D02*
D03*
X109645Y77724D02*
D03*
X112605D02*
D03*
X104477D02*
D03*
X101517D02*
D03*
X112605Y85471D02*
D03*
X109645D02*
D03*
X120606Y85598D02*
D03*
X117646D02*
D03*
D62*
X160188Y124490D02*
D03*
Y123840D02*
D03*
Y123190D02*
D03*
X158268D02*
D03*
Y124490D02*
D03*
X158212Y115712D02*
D03*
Y114412D02*
D03*
X160132D02*
D03*
Y115062D02*
D03*
Y115712D02*
D03*
X158212Y118633D02*
D03*
Y117333D02*
D03*
X160132D02*
D03*
Y117983D02*
D03*
Y118633D02*
D03*
X158212Y121554D02*
D03*
Y120254D02*
D03*
X160132D02*
D03*
Y120904D02*
D03*
Y121554D02*
D03*
D91*
X84836Y58801D02*
D03*
Y42418D02*
D03*
X52197Y58801D02*
D03*
Y42418D02*
D03*
D92*
X64516Y53340D02*
D03*
Y58801D02*
D03*
Y64262D02*
D03*
Y36957D02*
D03*
Y42418D02*
D03*
Y47879D02*
D03*
X31877Y53340D02*
D03*
Y58801D02*
D03*
Y64262D02*
D03*
Y47879D02*
D03*
Y42418D02*
D03*
Y36957D02*
D03*
D93*
X133477Y111373D02*
D03*
Y109093D02*
D03*
D94*
Y106813D02*
D03*
D95*
X94201Y68072D02*
D03*
Y65532D02*
D03*
Y62992D02*
D03*
X102141D02*
D03*
Y65532D02*
D03*
Y68072D02*
D03*
Y70612D02*
D03*
X102014Y59690D02*
D03*
Y57150D02*
D03*
Y54610D02*
D03*
Y52070D02*
D03*
X94074D02*
D03*
Y54610D02*
D03*
Y57150D02*
D03*
Y46228D02*
D03*
Y43688D02*
D03*
Y41148D02*
D03*
X102014D02*
D03*
Y43688D02*
D03*
Y46228D02*
D03*
Y48768D02*
D03*
X94201Y35306D02*
D03*
Y32766D02*
D03*
Y30226D02*
D03*
X102141D02*
D03*
Y32766D02*
D03*
Y35306D02*
D03*
Y37846D02*
D03*
D96*
X94201Y70612D02*
D03*
X94074Y59690D02*
D03*
Y48768D02*
D03*
X94201Y37846D02*
D03*
D97*
X56007Y83312D02*
D03*
Y80772D02*
D03*
X56134Y94742D02*
D03*
Y92202D02*
D03*
D98*
X56007Y78232D02*
D03*
X56134Y89662D02*
D03*
D99*
X48895Y97917D02*
D03*
Y95377D02*
D03*
Y92837D02*
D03*
Y90297D02*
D03*
X41275D02*
D03*
Y92837D02*
D03*
Y95377D02*
D03*
X48768Y109982D02*
D03*
Y107442D02*
D03*
Y104902D02*
D03*
Y102362D02*
D03*
X41148D02*
D03*
Y104902D02*
D03*
Y107442D02*
D03*
D100*
X41275Y97917D02*
D03*
X41148Y109982D02*
D03*
D101*
X76414Y109601D02*
D03*
D102*
X71414D02*
D03*
D103*
X63058Y122047D02*
D03*
D104*
X53528D02*
D03*
D105*
X32004Y83434D02*
D03*
Y80899D02*
D03*
X31877Y96259D02*
D03*
Y93724D02*
D03*
Y109085D02*
D03*
Y106550D02*
D03*
Y121910D02*
D03*
Y119375D02*
D03*
D106*
X32004Y78364D02*
D03*
X31877Y91189D02*
D03*
Y104015D02*
D03*
Y116840D02*
D03*
D107*
X136779Y29845D02*
D03*
X134239D02*
D03*
X131699D02*
D03*
D108*
X129159D02*
D03*
D109*
X162611Y61849D02*
D03*
X165100D02*
D03*
X167615D02*
D03*
X170104D02*
D03*
X162611Y64338D02*
D03*
X165100D02*
D03*
X167615D02*
D03*
X170104D02*
D03*
X162611Y66853D02*
D03*
X165100D02*
D03*
X167615D02*
D03*
X170104D02*
D03*
X162611Y69342D02*
D03*
X165100D02*
D03*
X167615D02*
D03*
X170104D02*
D03*
X162611Y71857D02*
D03*
X165100D02*
D03*
X167615D02*
D03*
X170104D02*
D03*
X162611Y74346D02*
D03*
X165100D02*
D03*
X167615D02*
D03*
X170104D02*
D03*
X162611Y76860D02*
D03*
X165100D02*
D03*
X167615D02*
D03*
X170104D02*
D03*
X162611Y79350D02*
D03*
X165100D02*
D03*
X167615D02*
D03*
X170104D02*
D03*
X162611Y81839D02*
D03*
X165100D02*
D03*
X167615D02*
D03*
X170104D02*
D03*
X162611Y84353D02*
D03*
X165100D02*
D03*
X167615D02*
D03*
X170104D02*
D03*
X162611Y87859D02*
D03*
X165100D02*
D03*
X167615D02*
D03*
X170104D02*
D03*
X162611Y91542D02*
D03*
X165100D02*
D03*
X167615D02*
D03*
X170104D02*
D03*
D110*
X161620Y55397D02*
D03*
Y97993D02*
D03*
D111*
X165456Y51308D02*
D03*
Y102108D02*
D03*
D112*
X151567Y34047D02*
D03*
D113*
X149067D02*
D03*
Y32047D02*
D03*
X151567D02*
D03*
D114*
X144297Y29337D02*
D03*
X156337D02*
D03*
D115*
X109982Y47625D02*
D03*
X110871Y48387D02*
D03*
X135763D02*
D03*
X137414Y47879D02*
D03*
X129032Y45593D02*
D03*
X128397Y50165D02*
D03*
X133223Y53467D02*
D03*
X134493Y53975D02*
D03*
X133604Y55245D02*
D03*
X100584Y52705D02*
D03*
X96520Y53340D02*
D03*
X97663Y52902D02*
D03*
X99441Y52113D02*
D03*
X104013Y93218D02*
D03*
X102870Y93345D02*
D03*
X102616Y94488D02*
D03*
X102870Y96012D02*
D03*
X95205Y95253D02*
D03*
X113284Y83693D02*
D03*
X128143Y75184D02*
D03*
X122809Y78359D02*
D03*
X122936Y75946D02*
D03*
X124206Y77089D02*
D03*
Y75819D02*
D03*
X120396Y71882D02*
D03*
X119634Y66040D02*
D03*
X118491Y67818D02*
D03*
X116840Y70104D02*
D03*
Y67818D02*
D03*
X128778Y68199D02*
D03*
X125095Y70739D02*
D03*
X119126Y70866D02*
D03*
X160909Y64262D02*
D03*
X142494Y58420D02*
D03*
X141224Y59563D02*
D03*
X141859Y52197D02*
D03*
X141224Y52959D02*
D03*
X144907Y57531D02*
D03*
X129921Y66294D02*
D03*
X129667Y67183D02*
D03*
X127508Y65659D02*
D03*
X126746Y65024D02*
D03*
X128143Y66421D02*
D03*
X127762Y63627D02*
D03*
X128651D02*
D03*
X126873D02*
D03*
X121793Y70358D02*
D03*
Y67564D02*
D03*
X125730Y63627D02*
D03*
X143764Y69215D02*
D03*
X141478Y67056D02*
D03*
X141605Y68961D02*
D03*
X137033Y68707D02*
D03*
X142748Y69215D02*
D03*
X144526Y68834D02*
D03*
X135636Y66802D02*
D03*
X132461Y65278D02*
D03*
X135255Y69215D02*
D03*
X133223Y67945D02*
D03*
X119253Y73533D02*
D03*
X125349Y72136D02*
D03*
X130556Y69723D02*
D03*
X131445D02*
D03*
Y52070D02*
D03*
X141224Y65786D02*
D03*
X142367Y65151D02*
D03*
X125349Y75184D02*
D03*
X125730Y73914D02*
D03*
X134818Y78049D02*
D03*
X129413Y78232D02*
D03*
X133096Y69342D02*
D03*
X134239D02*
D03*
X126492Y66167D02*
D03*
X121793Y66040D02*
D03*
X132207Y59690D02*
D03*
X134112Y66167D02*
D03*
X127254Y67564D02*
D03*
X134493Y64389D02*
D03*
X54229Y87376D02*
D03*
X53975Y82042D02*
D03*
X117221Y66167D02*
D03*
X107569Y73787D02*
D03*
X132461Y74549D02*
D03*
X129540Y83058D02*
D03*
X132080Y79121D02*
D03*
X134874Y74168D02*
D03*
X136144Y83312D02*
D03*
X134366Y82931D02*
D03*
X142875Y79121D02*
D03*
X63500Y85471D02*
D03*
X64516Y77216D02*
D03*
X69215D02*
D03*
X98552Y62865D02*
D03*
X132842Y40259D02*
D03*
X123698Y36068D02*
D03*
X122047Y35941D02*
D03*
X139954Y40894D02*
D03*
X145796Y42037D02*
D03*
X156845Y66929D02*
D03*
X155956Y63119D02*
D03*
X81407Y75692D02*
D03*
X140589Y39624D02*
D03*
X145794Y41077D02*
D03*
X55880Y75311D02*
D03*
X146050Y101473D02*
D03*
X115279Y89662D02*
D03*
X119126Y77597D02*
D03*
X126746Y85344D02*
D03*
X126759Y81166D02*
D03*
X119761Y46101D02*
D03*
X126873Y43688D02*
D03*
X121666Y58547D02*
D03*
X110998Y55626D02*
D03*
X175260Y46101D02*
D03*
X171196Y44577D02*
D03*
X172085Y49784D02*
D03*
X164465Y47498D02*
D03*
X163957Y43688D02*
D03*
X145415Y45212D02*
D03*
X59309Y97282D02*
D03*
X133604Y86741D02*
D03*
X152654Y79248D02*
D03*
X62992Y93472D02*
D03*
X75057Y89281D02*
D03*
X143383Y73660D02*
D03*
X140970Y77597D02*
D03*
X156591Y83947D02*
D03*
X140843Y78486D02*
D03*
X144145Y86868D02*
D03*
X145034Y87122D02*
D03*
X145923Y87757D02*
D03*
X142367Y82042D02*
D03*
X142621Y81153D02*
D03*
X142875Y80137D02*
D03*
X136271Y78613D02*
D03*
X53975Y104521D02*
D03*
X138176Y88646D02*
D03*
X139319Y104775D02*
D03*
X146431Y113030D02*
D03*
X158369Y106807D02*
D03*
X159512Y106045D02*
D03*
X174117Y80645D02*
D03*
Y78105D02*
D03*
X173990Y75565D02*
D03*
X155575Y82296D02*
D03*
X153162Y83312D02*
D03*
X157734Y72009D02*
D03*
X157861Y67437D02*
D03*
X158846Y66706D02*
D03*
X161544Y122936D02*
D03*
Y119761D02*
D03*
X155956Y117729D02*
D03*
X166243Y119634D02*
D03*
X135128Y85344D02*
D03*
X136017Y81915D02*
D03*
X113792Y52959D02*
D03*
X112903Y56261D02*
D03*
Y51816D02*
D03*
X98044Y47625D02*
D03*
X106553Y54483D02*
D03*
X106934Y51308D02*
D03*
X105156Y42926D02*
D03*
X105029Y72200D02*
D03*
X158496Y43307D02*
D03*
X166497Y42037D02*
D03*
X154813Y49784D02*
D03*
X154940Y48514D02*
D03*
X137033Y59817D02*
D03*
X175710Y61272D02*
D03*
X167386Y59436D02*
D03*
X155321Y78105D02*
D03*
X158496Y80645D02*
D03*
X176022Y86360D02*
D03*
X116078Y72517D02*
D03*
X115189Y68453D02*
D03*
X126746Y69977D02*
D03*
X145669Y111760D02*
D03*
X153670Y86106D02*
D03*
X139319Y94615D02*
D03*
Y97663D02*
D03*
X137668Y101600D02*
D03*
X140589Y67691D02*
D03*
X150622Y58674D02*
D03*
X145923Y46355D02*
D03*
X146939Y52197D02*
D03*
X145161Y40132D02*
D03*
X144653Y38735D02*
D03*
X135128Y28067D02*
D03*
X129921Y50800D02*
D03*
X51308Y74168D02*
D03*
X28194Y35560D02*
D03*
X58293Y26924D02*
D03*
X150876Y69723D02*
D03*
X39878Y113157D02*
D03*
X66294Y104394D02*
D03*
X64770Y100838D02*
D03*
X66802Y101219D02*
D03*
X120904Y90424D02*
D03*
X127635Y82296D02*
D03*
X147066Y80391D02*
D03*
X146177Y80899D02*
D03*
X142367Y66421D02*
D03*
X133223Y74041D02*
D03*
X133985Y74422D02*
D03*
X139827Y82296D02*
D03*
X132969Y45212D02*
D03*
X128524Y52832D02*
D03*
X129159Y51943D02*
D03*
X136398Y65151D02*
D03*
X136017Y65913D02*
D03*
Y63627D02*
D03*
X123190Y59563D02*
D03*
X124936Y54070D02*
D03*
X109601Y78994D02*
D03*
X77724Y86741D02*
D03*
Y78994D02*
D03*
X85598D02*
D03*
X101600D02*
D03*
X93472D02*
D03*
X85598Y86741D02*
D03*
X93599D02*
D03*
X101600D02*
D03*
X109601D02*
D03*
X117602Y86868D02*
D03*
Y78994D02*
D03*
X118872Y75057D02*
D03*
X115443Y69469D02*
D03*
X121793Y68961D02*
D03*
X118618Y66040D02*
D03*
X121539Y64770D02*
D03*
X117983Y72644D02*
D03*
X107950Y57912D02*
D03*
X105791Y58420D02*
D03*
X115189Y52070D02*
D03*
Y45974D02*
D03*
X147066Y58293D02*
D03*
X125603Y64897D02*
D03*
X125349Y62865D02*
D03*
X133604Y63754D02*
D03*
X133985Y62865D02*
D03*
X137287Y62611D02*
D03*
X136652Y64262D02*
D03*
X157594Y42177D02*
D03*
X78359Y94869D02*
D03*
X70358Y81026D02*
D03*
X73279Y83566D02*
D03*
X65913Y79121D02*
D03*
X66675Y82169D02*
D03*
X65405Y82550D02*
D03*
X62484Y89535D02*
D03*
X63881Y92583D02*
D03*
X63473Y81026D02*
D03*
X58420Y81788D02*
D03*
Y84709D02*
D03*
X58435Y91074D02*
D03*
X58420Y88011D02*
D03*
X69342Y75692D02*
D03*
X59182D02*
D03*
X60198Y39243D02*
D03*
X43942Y81280D02*
D03*
Y84074D02*
D03*
X144907Y115570D02*
D03*
X145415Y120650D02*
D03*
Y121920D02*
D03*
X174625Y113792D02*
D03*
X167767Y116078D02*
D03*
X152019Y119380D02*
D03*
Y120650D02*
D03*
Y121920D02*
D03*
Y123190D02*
D03*
X160020Y112776D02*
D03*
X156972Y117602D02*
D03*
Y120269D02*
D03*
Y122809D02*
D03*
D116*
X58166Y50673D02*
D03*
X42291Y121158D02*
D03*
X173482D02*
D03*
X173609Y30607D02*
D03*
D117*
X39751Y115824D02*
D03*
X83161Y28853D02*
D03*
X50546Y30353D02*
D03*
D118*
X152400Y111887D02*
D03*
Y110490D02*
D03*
X145288D02*
D03*
X136779Y114046D02*
D03*
X58801D02*
D03*
X98806Y108204D02*
D03*
X110490Y109093D02*
D03*
X98806Y124079D02*
D03*
X110490Y123190D02*
D03*
D119*
X118745Y116078D02*
D03*
X139573Y109220D02*
D03*
D167*
X168061Y45847D02*
D03*
Y44577D02*
D03*
Y43307D02*
D03*
Y42037D02*
D03*
X172786D02*
D03*
Y43307D02*
D03*
Y44577D02*
D03*
Y45847D02*
D03*
D168*
X148126Y60645D02*
D03*
X146006Y61595D02*
D03*
X148126Y62545D02*
D03*
Y54422D02*
D03*
X146006Y55372D02*
D03*
X148126Y56322D02*
D03*
X148043Y48453D02*
D03*
X145923Y49403D02*
D03*
X148043Y50353D02*
D03*
X148090Y42304D02*
D03*
X145970Y43254D02*
D03*
X148090Y44204D02*
D03*
D169*
X113284Y67894D02*
D03*
X112014D02*
D03*
X110744D02*
D03*
X109474D02*
D03*
Y72822D02*
D03*
X110744D02*
D03*
X112014D02*
D03*
X113284D02*
D03*
X109474Y63932D02*
D03*
X110744D02*
D03*
X112014D02*
D03*
X113284D02*
D03*
Y59004D02*
D03*
X112014D02*
D03*
X110744D02*
D03*
X109474D02*
D03*
D170*
X157103Y88519D02*
D03*
X154047D02*
D03*
X157230Y93726D02*
D03*
X154174D02*
D03*
X157099Y103886D02*
D03*
X154043D02*
D03*
X157230Y98806D02*
D03*
X154174D02*
D03*
D171*
X150666Y103886D02*
D03*
Y101346D02*
D03*
Y98806D02*
D03*
Y96266D02*
D03*
Y93726D02*
D03*
Y91186D02*
D03*
Y88646D02*
D03*
Y86106D02*
D03*
X141586D02*
D03*
Y88646D02*
D03*
Y91186D02*
D03*
Y93726D02*
D03*
Y96266D02*
D03*
Y98806D02*
D03*
Y101346D02*
D03*
Y103886D02*
D03*
D172*
X154051Y123190D02*
D03*
Y121920D02*
D03*
Y120650D02*
D03*
Y119380D02*
D03*
Y118110D02*
D03*
Y116840D02*
D03*
Y115570D02*
D03*
Y114300D02*
D03*
Y113030D02*
D03*
Y111760D02*
D03*
Y110490D02*
D03*
X142351Y123190D02*
D03*
Y121920D02*
D03*
Y120650D02*
D03*
Y119380D02*
D03*
Y118110D02*
D03*
Y116840D02*
D03*
Y115570D02*
D03*
Y114300D02*
D03*
Y113030D02*
D03*
Y111760D02*
D03*
Y110490D02*
D03*
X154051Y109220D02*
D03*
D173*
X142351D02*
D03*
D174*
X109683Y50142D02*
D03*
X110783D02*
D03*
X111883Y50342D02*
D03*
X112983Y50142D02*
D03*
X114083Y50342D02*
D03*
X115183Y50142D02*
D03*
X116283Y49742D02*
D03*
X117383Y50142D02*
D03*
D175*
X108893Y52432D02*
D03*
X122043Y53432D02*
D03*
D176*
X110493Y39282D02*
D03*
X116193D02*
D03*
D177*
X111883Y39082D02*
D03*
M02*
