G04*
G04 #@! TF.GenerationSoftware,Altium Limited,Altium Designer,22.2.1 (43)*
G04*
G04 Layer_Color=32896*
%FSLAX43Y43*%
%MOMM*%
G71*
G04*
G04 #@! TF.SameCoordinates,D3EB6253-BFD4-4380-A103-C90408D97D60*
G04*
G04*
G04 #@! TF.FilePolarity,Positive*
G04*
G01*
G75*
%ADD10C,0.152*%
%ADD11C,0.200*%
%ADD13C,0.300*%
%ADD14C,0.127*%
%ADD15C,0.508*%
D10*
X113868Y70663D02*
G03*
X113868Y70053I0J-305D01*
G01*
X108890Y61163D02*
G03*
X108890Y61773I0J305D01*
G01*
Y68986D02*
Y71730D01*
X113868Y70663D02*
Y71730D01*
Y70053D02*
Y70663D01*
Y68986D02*
Y70053D01*
Y60096D02*
Y62840D01*
X108890Y60096D02*
Y61163D01*
Y61773D01*
Y62840D01*
D11*
X149416Y62895D02*
G03*
X149416Y62895I-100J0D01*
G01*
Y56672D02*
G03*
X149416Y56672I-100J0D01*
G01*
X149333Y50703D02*
G03*
X149333Y50703I-100J0D01*
G01*
X149380Y44554D02*
G03*
X149380Y44554I-100J0D01*
G01*
X152826Y104096D02*
G03*
X152826Y104096I-100J0D01*
G01*
X148518Y108585D02*
G03*
X147883Y108585I-317J0D01*
G01*
X161428Y124490D02*
G03*
X161428Y124490I-100J0D01*
G01*
X161372Y115712D02*
G03*
X161372Y115712I-100J0D01*
G01*
Y118633D02*
G03*
X161372Y118633I-100J0D01*
G01*
Y121554D02*
G03*
X161372Y121554I-100J0D01*
G01*
X143886Y108585D02*
Y123825D01*
X152516D01*
Y108585D02*
Y123825D01*
X148519Y108585D02*
X152516D01*
X143886D02*
X147884D01*
D13*
X117543Y53782D02*
G03*
X117543Y53782I-100J0D01*
G01*
D14*
X169891Y48983D02*
X171231D01*
X169891Y47283D02*
X171231D01*
X146416Y60025D02*
Y60975D01*
Y62215D02*
Y63165D01*
Y60025D02*
X147716D01*
X146416Y63165D02*
X147716D01*
X142660Y60925D02*
Y62265D01*
X144360Y60925D02*
Y62265D01*
X149772Y60925D02*
Y62265D01*
X151472Y60925D02*
Y62265D01*
X146416Y53802D02*
Y54752D01*
Y55992D02*
Y56942D01*
Y53802D02*
X147716D01*
X146416Y56942D02*
X147716D01*
X142660Y54829D02*
Y56169D01*
X144360Y54829D02*
Y56169D01*
X149772Y54912D02*
Y56252D01*
X151472Y54912D02*
Y56252D01*
X146333Y47833D02*
Y48783D01*
Y50023D02*
Y50973D01*
Y47833D02*
X147633D01*
X146333Y50973D02*
X147633D01*
X149645Y48689D02*
Y50029D01*
X151345Y48689D02*
Y50029D01*
X142660Y48860D02*
Y50200D01*
X144360Y48860D02*
Y50200D01*
X146380Y41684D02*
Y42634D01*
Y43874D02*
Y44824D01*
Y41684D02*
X147680D01*
X146380Y44824D02*
X147680D01*
X142660Y42637D02*
Y43977D01*
X144360Y42637D02*
Y43977D01*
X149772Y42510D02*
Y43850D01*
X151472Y42510D02*
Y43850D01*
X154895Y89419D02*
X156255D01*
X154895Y87619D02*
X156255D01*
X155022Y94626D02*
X156382D01*
X155022Y92826D02*
X156382D01*
X154891Y104786D02*
X156251D01*
X154891Y102986D02*
X156251D01*
X155022Y99706D02*
X156382D01*
X155022Y97906D02*
X156382D01*
X137629Y104613D02*
Y105953D01*
X135929Y104613D02*
Y105953D01*
X142876Y104916D02*
X149376D01*
X142876Y85076D02*
X149376D01*
X136277Y100066D02*
X136837D01*
X136277Y98816D02*
X136837D01*
X136245Y97907D02*
X136805D01*
X136245Y96657D02*
X136805D01*
X136245Y95748D02*
X136805D01*
X136245Y94498D02*
X136805D01*
X136245Y93589D02*
X136805D01*
X136245Y92339D02*
X136805D01*
X140046Y106084D02*
X141386D01*
X140046Y107784D02*
X141386D01*
X140423Y111979D02*
Y113319D01*
X138723Y111979D02*
Y113319D01*
X158603Y125010D02*
X159853D01*
X158603Y122670D02*
X159853D01*
X78451Y88861D02*
X79791D01*
X78451Y87161D02*
X79791D01*
X94326Y84621D02*
X95666D01*
X94326Y86321D02*
X95666D01*
X102327Y84621D02*
X103667D01*
X102327Y86321D02*
X103667D01*
X118456Y88988D02*
X119796D01*
X118456Y87288D02*
X119796D01*
X110455Y88861D02*
X111795D01*
X110455Y87161D02*
X111795D01*
X102327Y88861D02*
X103667D01*
X102327Y87161D02*
X103667D01*
X94326Y88861D02*
X95666D01*
X94326Y87161D02*
X95666D01*
X86408Y88861D02*
X87748D01*
X86408Y87161D02*
X87748D01*
X123659Y85944D02*
Y87284D01*
X121959Y85944D02*
Y87284D01*
X115912Y85817D02*
Y87157D01*
X114212Y85817D02*
Y87157D01*
X107911Y85817D02*
Y87157D01*
X106211Y85817D02*
Y87157D01*
X99783Y85817D02*
Y87157D01*
X98083Y85817D02*
Y87157D01*
X91782Y85817D02*
Y87157D01*
X90082Y85817D02*
Y87157D01*
X86408Y84621D02*
X87748D01*
X86408Y86321D02*
X87748D01*
X83781Y85861D02*
Y87201D01*
X82081Y85861D02*
Y87201D01*
X78451Y84621D02*
X79791D01*
X78451Y86321D02*
X79791D01*
X94326Y81114D02*
X95666D01*
X94326Y79414D02*
X95666D01*
X86408Y81114D02*
X87748D01*
X86408Y79414D02*
X87748D01*
X78451Y81114D02*
X79791D01*
X78451Y79414D02*
X79791D01*
X78451Y76874D02*
X79791D01*
X78451Y78574D02*
X79791D01*
X83781Y78070D02*
Y79410D01*
X82081Y78070D02*
Y79410D01*
X86408Y76747D02*
X87748D01*
X86408Y78447D02*
X87748D01*
X91782Y77943D02*
Y79283D01*
X90082Y77943D02*
Y79283D01*
X94326Y76747D02*
X95666D01*
X94326Y78447D02*
X95666D01*
X99783Y77943D02*
Y79283D01*
X98083Y77943D02*
Y79283D01*
X102327Y81114D02*
X103667D01*
X102327Y79414D02*
X103667D01*
X110455Y81114D02*
X111795D01*
X110455Y79414D02*
X111795D01*
X115912Y78070D02*
Y79410D01*
X114212Y78070D02*
Y79410D01*
X118456Y81114D02*
X119796D01*
X118456Y79414D02*
X119796D01*
X123659Y77943D02*
Y79283D01*
X121959Y77943D02*
Y79283D01*
X118456Y76747D02*
X119796D01*
X118456Y78447D02*
X119796D01*
X110455Y76874D02*
X111795D01*
X110455Y78574D02*
X111795D01*
X107911Y78070D02*
Y79410D01*
X106211Y78070D02*
Y79410D01*
X102327Y78574D02*
X103667D01*
X102327Y76874D02*
X103667D01*
X110455Y86321D02*
X111795D01*
X110455Y84621D02*
X111795D01*
X118456Y86448D02*
X119796D01*
X118456Y84748D02*
X119796D01*
X158547Y113892D02*
X159797D01*
X158547Y116232D02*
X159797D01*
X158547Y116813D02*
X159797D01*
X158547Y119153D02*
X159797D01*
X158547Y119734D02*
X159797D01*
X158547Y122074D02*
X159797D01*
X108443Y38882D02*
X109443D01*
X108443D02*
Y51082D01*
X110043Y53082D02*
X119943D01*
Y54082D01*
X120943D01*
X122443Y38882D02*
Y51982D01*
X117243Y38882D02*
X122443D01*
X112843D02*
X115043D01*
X144129Y109601D02*
X144637Y110109D01*
X144129D02*
X144637Y109601D01*
X144129Y109855D02*
X144637D01*
X144383Y110109D02*
Y109601D01*
X165481Y118491D02*
X165354Y118618D01*
Y118872D01*
X165481Y118999D01*
X165989D01*
X166116Y118872D01*
Y118618D01*
X165989Y118491D01*
X165354Y118237D02*
Y117729D01*
X165481D01*
X165989Y118237D01*
X166116D01*
Y116967D02*
Y117475D01*
X165608Y116967D01*
X165481D01*
X165354Y117094D01*
Y117348D01*
X165481Y117475D01*
X163492Y119134D02*
X163407Y119049D01*
Y118880D01*
X163492Y118796D01*
X163830D01*
X163915Y118880D01*
Y119049D01*
X163830Y119134D01*
X163492D01*
X163915Y118626D02*
X163830D01*
Y118542D01*
X163915D01*
Y118626D01*
Y118203D02*
Y118034D01*
Y118118D01*
X163407D01*
X163492Y118203D01*
X163661Y117780D02*
Y117611D01*
X163746Y117780D02*
Y117611D01*
X163407D02*
X164000D01*
X163407Y117103D02*
Y117441D01*
X163661D01*
Y117272D01*
Y117441D01*
X163915D01*
X173736Y49466D02*
X172974D01*
Y49085D01*
X173101Y48958D01*
X173355D01*
X173482Y49085D01*
Y49466D01*
Y49212D02*
X173736Y48958D01*
Y48704D02*
Y48450D01*
Y48577D01*
X172974D01*
X173101Y48704D01*
Y48070D02*
X172974Y47943D01*
Y47689D01*
X173101Y47562D01*
X173609D01*
X173736Y47689D01*
Y47943D01*
X173609Y48070D01*
X173101D01*
X172974Y47308D02*
Y46800D01*
X173101D01*
X173609Y47308D01*
X173736D01*
X170993Y47879D02*
Y48387D01*
X171247Y48133D01*
X170908D01*
X170739Y48387D02*
X170400D01*
Y48302D01*
X170739Y47964D01*
Y47879D01*
X170231Y48387D02*
Y47879D01*
Y48048D01*
X169893Y48387D01*
X170146Y48133D01*
X169893Y47879D01*
X172783Y41148D02*
X173037D01*
X172910D01*
Y40513D01*
X173037Y40386D01*
X173164D01*
X173291Y40513D01*
X172529Y40386D02*
X172276D01*
X172403D01*
Y41148D01*
X172529Y41021D01*
X171895Y40386D02*
X171641D01*
X171768D01*
Y41148D01*
X171895Y41021D01*
X170680Y47277D02*
X170173D01*
X170342Y47107D01*
X170173Y46938D01*
X170680D01*
X170257Y46430D02*
X170173Y46515D01*
Y46684D01*
X170257Y46769D01*
X170596D01*
X170680Y46684D01*
Y46515D01*
X170596Y46430D01*
X170680Y46261D02*
X170173D01*
Y46007D01*
X170257Y45923D01*
X170427D01*
X170511Y46007D01*
Y46261D01*
X170680Y45415D02*
Y45753D01*
X170342Y45415D01*
X170257D01*
X170173Y45499D01*
Y45669D01*
X170257Y45753D01*
X170173Y44907D02*
Y45245D01*
X170427D01*
X170342Y45076D01*
Y44992D01*
X170427Y44907D01*
X170596D01*
X170680Y44992D01*
Y45161D01*
X170596Y45245D01*
X170173Y44399D02*
Y44738D01*
X170427D01*
X170342Y44568D01*
Y44484D01*
X170427Y44399D01*
X170596D01*
X170680Y44484D01*
Y44653D01*
X170596Y44738D01*
X170680Y44230D02*
Y44060D01*
Y44145D01*
X170173D01*
X170257Y44230D01*
X170173Y43807D02*
Y43468D01*
Y43637D01*
X170680D01*
X170427Y43299D02*
Y42960D01*
X170173Y42791D02*
Y42622D01*
Y42706D01*
X170680D01*
Y42791D01*
Y42622D01*
Y42368D02*
X170342Y42029D01*
X170257Y41521D02*
X170173Y41606D01*
Y41775D01*
X170257Y41860D01*
X170342D01*
X170427Y41775D01*
Y41606D01*
X170511Y41521D01*
X170596D01*
X170680Y41606D01*
Y41775D01*
X170596Y41860D01*
X170680Y41352D02*
X170173D01*
X170680Y41013D01*
X170173D01*
X175768Y42164D02*
X175895Y42291D01*
X176149D01*
X176276Y42164D01*
Y41656D01*
X176149Y41529D01*
X175895D01*
X175768Y41656D01*
X175514Y42291D02*
X175006D01*
Y42164D01*
X175514Y41656D01*
Y41529D01*
X174752Y42164D02*
X174625Y42291D01*
X174371D01*
X174244Y42164D01*
Y41656D01*
X174371Y41529D01*
X174625D01*
X174752Y41656D01*
Y42164D01*
X176276Y44289D02*
X176191Y44374D01*
X176022D01*
X175937Y44289D01*
Y43950D01*
X176022Y43866D01*
X176191D01*
X176276Y43950D01*
Y44289D01*
X175768Y43866D02*
Y43950D01*
X175684D01*
Y43866D01*
X175768D01*
X175345D02*
X175176D01*
X175260D01*
Y44374D01*
X175345Y44289D01*
X174922Y44120D02*
X174752D01*
X174922Y44035D02*
X174752D01*
Y44374D02*
Y43781D01*
X174245Y44374D02*
X174583D01*
Y44120D01*
X174414D01*
X174583D01*
Y43866D01*
X165735Y41021D02*
X165862Y41148D01*
X166116D01*
X166243Y41021D01*
Y40513D01*
X166116Y40386D01*
X165862D01*
X165735Y40513D01*
X164973Y41148D02*
X165227Y41021D01*
X165481Y40767D01*
Y40513D01*
X165354Y40386D01*
X165100D01*
X164973Y40513D01*
Y40640D01*
X165100Y40767D01*
X165481D01*
X164719Y40513D02*
X164592Y40386D01*
X164338D01*
X164211Y40513D01*
Y41021D01*
X164338Y41148D01*
X164592D01*
X164719Y41021D01*
Y40894D01*
X164592Y40767D01*
X164211D01*
X166243Y43146D02*
X166158Y43231D01*
X165989D01*
X165904Y43146D01*
Y42807D01*
X165989Y42723D01*
X166158D01*
X166243Y42807D01*
Y43146D01*
X165735Y42723D02*
Y42807D01*
X165651D01*
Y42723D01*
X165735D01*
X165312D02*
X165143D01*
X165227D01*
Y43231D01*
X165312Y43146D01*
X164889Y42977D02*
X164719D01*
X164889Y42892D02*
X164719D01*
Y43231D02*
Y42638D01*
X164212Y43231D02*
X164550D01*
Y42977D01*
X164381D01*
X164550D01*
Y42723D01*
X166243Y44958D02*
X166370Y45085D01*
X166624D01*
X166751Y44958D01*
Y44450D01*
X166624Y44323D01*
X166370D01*
X166243Y44450D01*
X165481Y45085D02*
X165735Y44958D01*
X165989Y44704D01*
Y44450D01*
X165862Y44323D01*
X165608D01*
X165481Y44450D01*
Y44577D01*
X165608Y44704D01*
X165989D01*
X165227Y44958D02*
X165100Y45085D01*
X164846D01*
X164719Y44958D01*
Y44831D01*
X164846Y44704D01*
X164719Y44577D01*
Y44450D01*
X164846Y44323D01*
X165100D01*
X165227Y44450D01*
Y44577D01*
X165100Y44704D01*
X165227Y44831D01*
Y44958D01*
X165100Y44704D02*
X164846D01*
X166751Y46956D02*
X166666Y47041D01*
X166497D01*
X166412Y46956D01*
Y46617D01*
X166497Y46533D01*
X166666D01*
X166751Y46617D01*
Y46956D01*
X166243Y46533D02*
Y46617D01*
X166159D01*
Y46533D01*
X166243D01*
X165820D02*
X165651D01*
X165735D01*
Y47041D01*
X165820Y46956D01*
X165397Y46787D02*
X165227D01*
X165397Y46702D02*
X165227D01*
Y47041D02*
Y46448D01*
X164720Y47041D02*
X165058D01*
Y46787D01*
X164889D01*
X165058D01*
Y46533D01*
X140208Y115062D02*
Y115824D01*
X139827D01*
X139700Y115697D01*
Y115443D01*
X139827Y115316D01*
X140208D01*
X139954D02*
X139700Y115062D01*
X139446Y115824D02*
X138938D01*
Y115697D01*
X139446Y115189D01*
Y115062D01*
X140208Y112395D02*
X140039D01*
X140123D01*
Y112903D01*
X140208Y112818D01*
X139785D02*
X139700Y112903D01*
X139531D01*
X139446Y112818D01*
Y112480D01*
X139531Y112395D01*
X139700D01*
X139785Y112480D01*
Y112818D01*
X139277Y112903D02*
Y112395D01*
Y112564D01*
X138938Y112903D01*
X139192Y112649D01*
X138938Y112395D01*
X143891Y107886D02*
X143129D01*
Y107505D01*
X143256Y107378D01*
X143510D01*
X143637Y107505D01*
Y107886D01*
Y107632D02*
X143891Y107378D01*
Y107124D02*
Y106871D01*
Y106997D01*
X143129D01*
X143256Y107124D01*
X143129Y105982D02*
X143256Y106236D01*
X143510Y106490D01*
X143764D01*
X143891Y106363D01*
Y106109D01*
X143764Y105982D01*
X143637D01*
X143510Y106109D01*
Y106490D01*
X141605Y106680D02*
X141436D01*
X141520D01*
Y107188D01*
X141605Y107103D01*
X141182D02*
X141097Y107188D01*
X140928D01*
X140843Y107103D01*
Y106765D01*
X140928Y106680D01*
X141097D01*
X141182Y106765D01*
Y107103D01*
X140674D02*
X140589Y107188D01*
X140420D01*
X140335Y107103D01*
Y106765D01*
X140420Y106680D01*
X140589D01*
X140674Y106765D01*
Y107103D01*
X140166Y107188D02*
Y106680D01*
Y106849D01*
X139828Y107188D01*
X140081Y106934D01*
X139828Y106680D01*
X137795Y102108D02*
Y102870D01*
X137414D01*
X137287Y102743D01*
Y102489D01*
X137414Y102362D01*
X137795D01*
X137541D02*
X137287Y102108D01*
X136525D02*
X137033D01*
X136525Y102616D01*
Y102743D01*
X136652Y102870D01*
X136906D01*
X137033Y102743D01*
X136271Y102870D02*
X135763D01*
Y102743D01*
X136271Y102235D01*
Y102108D01*
X137414Y105029D02*
X137245D01*
X137329D01*
Y105537D01*
X137414Y105452D01*
X136652Y105537D02*
X136991D01*
Y105283D01*
X136822Y105368D01*
X136737D01*
X136652Y105283D01*
Y105114D01*
X136737Y105029D01*
X136906D01*
X136991Y105114D01*
X136483Y105452D02*
X136398Y105537D01*
X136229D01*
X136144Y105452D01*
Y105114D01*
X136229Y105029D01*
X136398D01*
X136483Y105114D01*
Y105452D01*
X115951Y83312D02*
Y84074D01*
X115570D01*
X115443Y83947D01*
Y83693D01*
X115570Y83566D01*
X115951D01*
X115697D02*
X115443Y83312D01*
X115189Y83947D02*
X115062Y84074D01*
X114808D01*
X114681Y83947D01*
Y83820D01*
X114808Y83693D01*
X114681Y83566D01*
Y83439D01*
X114808Y83312D01*
X115062D01*
X115189Y83439D01*
Y83566D01*
X115062Y83693D01*
X115189Y83820D01*
Y83947D01*
X115062Y83693D02*
X114808D01*
X114427Y83312D02*
X114173D01*
X114300D01*
Y84074D01*
X114427Y83947D01*
X115697Y86233D02*
X115528D01*
X115612D01*
Y86741D01*
X115697Y86656D01*
X115274D02*
X115189Y86741D01*
X115020D01*
X114935Y86656D01*
Y86318D01*
X115020Y86233D01*
X115189D01*
X115274Y86318D01*
Y86656D01*
X114766Y86741D02*
Y86233D01*
Y86402D01*
X114427Y86741D01*
X114681Y86487D01*
X114427Y86233D01*
X99949Y75565D02*
Y76327D01*
X99568D01*
X99441Y76200D01*
Y75946D01*
X99568Y75819D01*
X99949D01*
X99695D02*
X99441Y75565D01*
X99187Y76200D02*
X99060Y76327D01*
X98806D01*
X98679Y76200D01*
Y76073D01*
X98806Y75946D01*
X98679Y75819D01*
Y75692D01*
X98806Y75565D01*
X99060D01*
X99187Y75692D01*
Y75819D01*
X99060Y75946D01*
X99187Y76073D01*
Y76200D01*
X99060Y75946D02*
X98806D01*
X97917Y76327D02*
X98425D01*
Y75946D01*
X98171Y76073D01*
X98044D01*
X97917Y75946D01*
Y75692D01*
X98044Y75565D01*
X98298D01*
X98425Y75692D01*
X99568Y78359D02*
X99399D01*
X99483D01*
Y78867D01*
X99568Y78782D01*
X99145D02*
X99060Y78867D01*
X98891D01*
X98806Y78782D01*
Y78444D01*
X98891Y78359D01*
X99060D01*
X99145Y78444D01*
Y78782D01*
X98637Y78867D02*
Y78359D01*
Y78528D01*
X98298Y78867D01*
X98552Y78613D01*
X98298Y78359D01*
X99949Y83312D02*
Y84074D01*
X99568D01*
X99441Y83947D01*
Y83693D01*
X99568Y83566D01*
X99949D01*
X99695D02*
X99441Y83312D01*
X99187Y84074D02*
X98679D01*
Y83947D01*
X99187Y83439D01*
Y83312D01*
X98425Y83439D02*
X98298Y83312D01*
X98044D01*
X97917Y83439D01*
Y83947D01*
X98044Y84074D01*
X98298D01*
X98425Y83947D01*
Y83820D01*
X98298Y83693D01*
X97917D01*
X99568Y86233D02*
X99399D01*
X99483D01*
Y86741D01*
X99568Y86656D01*
X99145D02*
X99060Y86741D01*
X98891D01*
X98806Y86656D01*
Y86318D01*
X98891Y86233D01*
X99060D01*
X99145Y86318D01*
Y86656D01*
X98637Y86741D02*
Y86233D01*
Y86402D01*
X98298Y86741D01*
X98552Y86487D01*
X98298Y86233D01*
X83947Y83312D02*
Y84074D01*
X83566D01*
X83439Y83947D01*
Y83693D01*
X83566Y83566D01*
X83947D01*
X83693D02*
X83439Y83312D01*
X83185Y84074D02*
X82677D01*
Y83947D01*
X83185Y83439D01*
Y83312D01*
X82423Y84074D02*
X81915D01*
Y83947D01*
X82423Y83439D01*
Y83312D01*
X83566Y86284D02*
X83397D01*
X83481D01*
Y86792D01*
X83566Y86707D01*
X83143D02*
X83058Y86792D01*
X82889D01*
X82804Y86707D01*
Y86368D01*
X82889Y86284D01*
X83058D01*
X83143Y86368D01*
Y86707D01*
X82635Y86792D02*
Y86284D01*
Y86453D01*
X82296Y86792D01*
X82550Y86538D01*
X82296Y86284D01*
X108077Y75438D02*
Y76200D01*
X107696D01*
X107569Y76073D01*
Y75819D01*
X107696Y75692D01*
X108077D01*
X107823D02*
X107569Y75438D01*
X107315Y76073D02*
X107188Y76200D01*
X106934D01*
X106807Y76073D01*
Y75946D01*
X106934Y75819D01*
X106807Y75692D01*
Y75565D01*
X106934Y75438D01*
X107188D01*
X107315Y75565D01*
Y75692D01*
X107188Y75819D01*
X107315Y75946D01*
Y76073D01*
X107188Y75819D02*
X106934D01*
X106045Y76200D02*
X106299Y76073D01*
X106553Y75819D01*
Y75565D01*
X106426Y75438D01*
X106172D01*
X106045Y75565D01*
Y75692D01*
X106172Y75819D01*
X106553D01*
X107696Y78486D02*
X107527D01*
X107611D01*
Y78994D01*
X107696Y78909D01*
X107273D02*
X107188Y78994D01*
X107019D01*
X106934Y78909D01*
Y78571D01*
X107019Y78486D01*
X107188D01*
X107273Y78571D01*
Y78909D01*
X106765Y78994D02*
Y78486D01*
Y78655D01*
X106426Y78994D01*
X106680Y78740D01*
X106426Y78486D01*
X108077Y83312D02*
Y84074D01*
X107696D01*
X107569Y83947D01*
Y83693D01*
X107696Y83566D01*
X108077D01*
X107823D02*
X107569Y83312D01*
X107315Y83947D02*
X107188Y84074D01*
X106934D01*
X106807Y83947D01*
Y83820D01*
X106934Y83693D01*
X106807Y83566D01*
Y83439D01*
X106934Y83312D01*
X107188D01*
X107315Y83439D01*
Y83566D01*
X107188Y83693D01*
X107315Y83820D01*
Y83947D01*
X107188Y83693D02*
X106934D01*
X106553Y83947D02*
X106426Y84074D01*
X106172D01*
X106045Y83947D01*
Y83439D01*
X106172Y83312D01*
X106426D01*
X106553Y83439D01*
Y83947D01*
X107696Y86233D02*
X107527D01*
X107611D01*
Y86741D01*
X107696Y86656D01*
X107273D02*
X107188Y86741D01*
X107019D01*
X106934Y86656D01*
Y86318D01*
X107019Y86233D01*
X107188D01*
X107273Y86318D01*
Y86656D01*
X106765Y86741D02*
Y86233D01*
Y86402D01*
X106426Y86741D01*
X106680Y86487D01*
X106426Y86233D01*
X98044Y81280D02*
X97282D01*
Y80899D01*
X97409Y80772D01*
X97663D01*
X97790Y80899D01*
Y81280D01*
Y81026D02*
X98044Y80772D01*
X97282Y80518D02*
Y80010D01*
X97409D01*
X97917Y80518D01*
X98044D01*
X97409Y79756D02*
X97282Y79629D01*
Y79375D01*
X97409Y79248D01*
X97536D01*
X97663Y79375D01*
Y79502D01*
Y79375D01*
X97790Y79248D01*
X97917D01*
X98044Y79375D01*
Y79629D01*
X97917Y79756D01*
X95546Y80518D02*
X95885D01*
Y80264D01*
X95716Y80349D01*
X95631D01*
X95546Y80264D01*
Y80095D01*
X95631Y80010D01*
X95800D01*
X95885Y80095D01*
X95377Y80010D02*
Y80095D01*
X95293D01*
Y80010D01*
X95377D01*
X94615Y80518D02*
X94785Y80433D01*
X94954Y80264D01*
Y80095D01*
X94869Y80010D01*
X94700D01*
X94615Y80095D01*
Y80179D01*
X94700Y80264D01*
X94954D01*
X94446Y80518D02*
Y80010D01*
Y80179D01*
X94108Y80518D01*
X94361Y80264D01*
X94108Y80010D01*
X121920Y89154D02*
X121158D01*
Y88773D01*
X121285Y88646D01*
X121539D01*
X121666Y88773D01*
Y89154D01*
Y88900D02*
X121920Y88646D01*
X121158Y88392D02*
Y87884D01*
X121285D01*
X121793Y88392D01*
X121920D01*
X121285Y87630D02*
X121158Y87503D01*
Y87249D01*
X121285Y87122D01*
X121793D01*
X121920Y87249D01*
Y87503D01*
X121793Y87630D01*
X121285D01*
X119676Y88392D02*
X120015D01*
Y88138D01*
X119846Y88223D01*
X119761D01*
X119676Y88138D01*
Y87969D01*
X119761Y87884D01*
X119930D01*
X120015Y87969D01*
X119507Y87884D02*
Y87969D01*
X119423D01*
Y87884D01*
X119507D01*
X118745Y88392D02*
X118915Y88307D01*
X119084Y88138D01*
Y87969D01*
X118999Y87884D01*
X118830D01*
X118745Y87969D01*
Y88053D01*
X118830Y88138D01*
X119084D01*
X118576Y88392D02*
Y87884D01*
Y88053D01*
X118238Y88392D01*
X118491Y88138D01*
X118238Y87884D01*
X116840Y81280D02*
X116078D01*
Y80899D01*
X116205Y80772D01*
X116459D01*
X116586Y80899D01*
Y81280D01*
Y81026D02*
X116840Y80772D01*
X116078Y80518D02*
Y80010D01*
X116205D01*
X116713Y80518D01*
X116840D01*
X116078Y79248D02*
X116205Y79502D01*
X116459Y79756D01*
X116713D01*
X116840Y79629D01*
Y79375D01*
X116713Y79248D01*
X116586D01*
X116459Y79375D01*
Y79756D01*
X119676Y80518D02*
X120015D01*
Y80264D01*
X119846Y80349D01*
X119761D01*
X119676Y80264D01*
Y80095D01*
X119761Y80010D01*
X119930D01*
X120015Y80095D01*
X119507Y80010D02*
Y80095D01*
X119423D01*
Y80010D01*
X119507D01*
X118745Y80518D02*
X118915Y80433D01*
X119084Y80264D01*
Y80095D01*
X118999Y80010D01*
X118830D01*
X118745Y80095D01*
Y80179D01*
X118830Y80264D01*
X119084D01*
X118576Y80518D02*
Y80010D01*
Y80179D01*
X118238Y80518D01*
X118491Y80264D01*
X118238Y80010D01*
X105918Y89027D02*
X105156D01*
Y88646D01*
X105283Y88519D01*
X105537D01*
X105664Y88646D01*
Y89027D01*
Y88773D02*
X105918Y88519D01*
X105156Y87757D02*
X105283Y88011D01*
X105537Y88265D01*
X105791D01*
X105918Y88138D01*
Y87884D01*
X105791Y87757D01*
X105664D01*
X105537Y87884D01*
Y88265D01*
X105283Y87503D02*
X105156Y87376D01*
Y87122D01*
X105283Y86995D01*
X105410D01*
X105537Y87122D01*
X105664Y86995D01*
X105791D01*
X105918Y87122D01*
Y87376D01*
X105791Y87503D01*
X105664D01*
X105537Y87376D01*
X105410Y87503D01*
X105283D01*
X105537Y87376D02*
Y87122D01*
X103547Y88265D02*
X103886D01*
Y88011D01*
X103717Y88096D01*
X103632D01*
X103547Y88011D01*
Y87842D01*
X103632Y87757D01*
X103801D01*
X103886Y87842D01*
X103378Y87757D02*
Y87842D01*
X103294D01*
Y87757D01*
X103378D01*
X102616Y88265D02*
X102786Y88180D01*
X102955Y88011D01*
Y87842D01*
X102870Y87757D01*
X102701D01*
X102616Y87842D01*
Y87926D01*
X102701Y88011D01*
X102955D01*
X102447Y88265D02*
Y87757D01*
Y87926D01*
X102109Y88265D01*
X102362Y88011D01*
X102109Y87757D01*
X76708Y89027D02*
X75946D01*
Y88646D01*
X76073Y88519D01*
X76327D01*
X76454Y88646D01*
Y89027D01*
Y88773D02*
X76708Y88519D01*
Y87884D02*
X75946D01*
X76327Y88265D01*
Y87757D01*
X75946Y86995D02*
X76073Y87249D01*
X76327Y87503D01*
X76581D01*
X76708Y87376D01*
Y87122D01*
X76581Y86995D01*
X76454D01*
X76327Y87122D01*
Y87503D01*
X79671Y88265D02*
X80010D01*
Y88011D01*
X79841Y88096D01*
X79756D01*
X79671Y88011D01*
Y87842D01*
X79756Y87757D01*
X79925D01*
X80010Y87842D01*
X79502Y87757D02*
Y87842D01*
X79418D01*
Y87757D01*
X79502D01*
X78740Y88265D02*
X78910Y88180D01*
X79079Y88011D01*
Y87842D01*
X78994Y87757D01*
X78825D01*
X78740Y87842D01*
Y87926D01*
X78825Y88011D01*
X79079D01*
X78571Y88265D02*
Y87757D01*
Y87926D01*
X78233Y88265D01*
X78486Y88011D01*
X78233Y87757D01*
X116078Y75565D02*
Y76327D01*
X115697D01*
X115570Y76200D01*
Y75946D01*
X115697Y75819D01*
X116078D01*
X115824D02*
X115570Y75565D01*
X115316Y76200D02*
X115189Y76327D01*
X114935D01*
X114808Y76200D01*
Y76073D01*
X114935Y75946D01*
X114808Y75819D01*
Y75692D01*
X114935Y75565D01*
X115189D01*
X115316Y75692D01*
Y75819D01*
X115189Y75946D01*
X115316Y76073D01*
Y76200D01*
X115189Y75946D02*
X114935D01*
X114554Y76327D02*
X114046D01*
Y76200D01*
X114554Y75692D01*
Y75565D01*
X115697Y78486D02*
X115528D01*
X115612D01*
Y78994D01*
X115697Y78909D01*
X115274D02*
X115189Y78994D01*
X115020D01*
X114935Y78909D01*
Y78571D01*
X115020Y78486D01*
X115189D01*
X115274Y78571D01*
Y78909D01*
X114766Y78994D02*
Y78486D01*
Y78655D01*
X114427Y78994D01*
X114681Y78740D01*
X114427Y78486D01*
X83947Y75565D02*
Y76327D01*
X83566D01*
X83439Y76200D01*
Y75946D01*
X83566Y75819D01*
X83947D01*
X83693D02*
X83439Y75565D01*
X83185Y76200D02*
X83058Y76327D01*
X82804D01*
X82677Y76200D01*
Y76073D01*
X82804Y75946D01*
X82677Y75819D01*
Y75692D01*
X82804Y75565D01*
X83058D01*
X83185Y75692D01*
Y75819D01*
X83058Y75946D01*
X83185Y76073D01*
Y76200D01*
X83058Y75946D02*
X82804D01*
X82423Y76200D02*
X82296Y76327D01*
X82042D01*
X81915Y76200D01*
Y76073D01*
X82042Y75946D01*
X82169D01*
X82042D01*
X81915Y75819D01*
Y75692D01*
X82042Y75565D01*
X82296D01*
X82423Y75692D01*
X83566Y78486D02*
X83397D01*
X83481D01*
Y78994D01*
X83566Y78909D01*
X83143D02*
X83058Y78994D01*
X82889D01*
X82804Y78909D01*
Y78571D01*
X82889Y78486D01*
X83058D01*
X83143Y78571D01*
Y78909D01*
X82635Y78994D02*
Y78486D01*
Y78655D01*
X82296Y78994D01*
X82550Y78740D01*
X82296Y78486D01*
X123825Y83439D02*
Y84201D01*
X123444D01*
X123317Y84074D01*
Y83820D01*
X123444Y83693D01*
X123825D01*
X123571D02*
X123317Y83439D01*
X123063Y84074D02*
X122936Y84201D01*
X122682D01*
X122555Y84074D01*
Y83947D01*
X122682Y83820D01*
X122555Y83693D01*
Y83566D01*
X122682Y83439D01*
X122936D01*
X123063Y83566D01*
Y83693D01*
X122936Y83820D01*
X123063Y83947D01*
Y84074D01*
X122936Y83820D02*
X122682D01*
X121793Y83439D02*
X122301D01*
X121793Y83947D01*
Y84074D01*
X121920Y84201D01*
X122174D01*
X122301Y84074D01*
X123444Y86360D02*
X123275D01*
X123359D01*
Y86868D01*
X123444Y86783D01*
X123021D02*
X122936Y86868D01*
X122767D01*
X122682Y86783D01*
Y86445D01*
X122767Y86360D01*
X122936D01*
X123021Y86445D01*
Y86783D01*
X122513Y86868D02*
Y86360D01*
Y86529D01*
X122174Y86868D01*
X122428Y86614D01*
X122174Y86360D01*
X97917Y89027D02*
X97155D01*
Y88646D01*
X97282Y88519D01*
X97536D01*
X97663Y88646D01*
Y89027D01*
Y88773D02*
X97917Y88519D01*
Y87884D02*
X97155D01*
X97536Y88265D01*
Y87757D01*
X97282Y87503D02*
X97155Y87376D01*
Y87122D01*
X97282Y86995D01*
X97409D01*
X97536Y87122D01*
X97663Y86995D01*
X97790D01*
X97917Y87122D01*
Y87376D01*
X97790Y87503D01*
X97663D01*
X97536Y87376D01*
X97409Y87503D01*
X97282D01*
X97536Y87376D02*
Y87122D01*
X95546Y88265D02*
X95885D01*
Y88011D01*
X95716Y88096D01*
X95631D01*
X95546Y88011D01*
Y87842D01*
X95631Y87757D01*
X95800D01*
X95885Y87842D01*
X95377Y87757D02*
Y87842D01*
X95293D01*
Y87757D01*
X95377D01*
X94615Y88265D02*
X94785Y88180D01*
X94954Y88011D01*
Y87842D01*
X94869Y87757D01*
X94700D01*
X94615Y87842D01*
Y87926D01*
X94700Y88011D01*
X94954D01*
X94446Y88265D02*
Y87757D01*
Y87926D01*
X94108Y88265D01*
X94361Y88011D01*
X94108Y87757D01*
X114173Y81280D02*
X113411D01*
Y80899D01*
X113538Y80772D01*
X113792D01*
X113919Y80899D01*
Y81280D01*
Y81026D02*
X114173Y80772D01*
X113411Y80518D02*
Y80010D01*
X113538D01*
X114046Y80518D01*
X114173D01*
X113411Y79248D02*
Y79756D01*
X113792D01*
X113665Y79502D01*
Y79375D01*
X113792Y79248D01*
X114046D01*
X114173Y79375D01*
Y79629D01*
X114046Y79756D01*
X111675Y80518D02*
X112014D01*
Y80264D01*
X111845Y80349D01*
X111760D01*
X111675Y80264D01*
Y80095D01*
X111760Y80010D01*
X111929D01*
X112014Y80095D01*
X111506Y80010D02*
Y80095D01*
X111422D01*
Y80010D01*
X111506D01*
X110744Y80518D02*
X110914Y80433D01*
X111083Y80264D01*
Y80095D01*
X110998Y80010D01*
X110829D01*
X110744Y80095D01*
Y80179D01*
X110829Y80264D01*
X111083D01*
X110575Y80518D02*
Y80010D01*
Y80179D01*
X110237Y80518D01*
X110490Y80264D01*
X110237Y80010D01*
X91948Y75438D02*
Y76200D01*
X91567D01*
X91440Y76073D01*
Y75819D01*
X91567Y75692D01*
X91948D01*
X91694D02*
X91440Y75438D01*
X91186Y76073D02*
X91059Y76200D01*
X90805D01*
X90678Y76073D01*
Y75946D01*
X90805Y75819D01*
X90678Y75692D01*
Y75565D01*
X90805Y75438D01*
X91059D01*
X91186Y75565D01*
Y75692D01*
X91059Y75819D01*
X91186Y75946D01*
Y76073D01*
X91059Y75819D02*
X90805D01*
X90043Y75438D02*
Y76200D01*
X90424Y75819D01*
X89916D01*
X91567Y78359D02*
X91398D01*
X91482D01*
Y78867D01*
X91567Y78782D01*
X91144D02*
X91059Y78867D01*
X90890D01*
X90805Y78782D01*
Y78444D01*
X90890Y78359D01*
X91059D01*
X91144Y78444D01*
Y78782D01*
X90636Y78867D02*
Y78359D01*
Y78528D01*
X90297Y78867D01*
X90551Y78613D01*
X90297Y78359D01*
X90043Y89027D02*
X89281D01*
Y88646D01*
X89408Y88519D01*
X89662D01*
X89789Y88646D01*
Y89027D01*
Y88773D02*
X90043Y88519D01*
Y87884D02*
X89281D01*
X89662Y88265D01*
Y87757D01*
X89281Y87503D02*
Y86995D01*
X89408D01*
X89916Y87503D01*
X90043D01*
X87622Y88265D02*
X87960D01*
Y88011D01*
X87791Y88096D01*
X87706D01*
X87622Y88011D01*
Y87842D01*
X87706Y87757D01*
X87876D01*
X87960Y87842D01*
X87452Y87757D02*
Y87842D01*
X87368D01*
Y87757D01*
X87452D01*
X86691Y88265D02*
X86860Y88180D01*
X87029Y88011D01*
Y87842D01*
X86945Y87757D01*
X86775D01*
X86691Y87842D01*
Y87926D01*
X86775Y88011D01*
X87029D01*
X86521Y88265D02*
Y87757D01*
Y87926D01*
X86183Y88265D01*
X86437Y88011D01*
X86183Y87757D01*
X114046Y89027D02*
X113284D01*
Y88646D01*
X113411Y88519D01*
X113665D01*
X113792Y88646D01*
Y89027D01*
Y88773D02*
X114046Y88519D01*
X113284Y87757D02*
X113411Y88011D01*
X113665Y88265D01*
X113919D01*
X114046Y88138D01*
Y87884D01*
X113919Y87757D01*
X113792D01*
X113665Y87884D01*
Y88265D01*
X113919Y87503D02*
X114046Y87376D01*
Y87122D01*
X113919Y86995D01*
X113411D01*
X113284Y87122D01*
Y87376D01*
X113411Y87503D01*
X113538D01*
X113665Y87376D01*
Y86995D01*
X111675Y88265D02*
X112014D01*
Y88011D01*
X111845Y88096D01*
X111760D01*
X111675Y88011D01*
Y87842D01*
X111760Y87757D01*
X111929D01*
X112014Y87842D01*
X111506Y87757D02*
Y87842D01*
X111422D01*
Y87757D01*
X111506D01*
X110744Y88265D02*
X110914Y88180D01*
X111083Y88011D01*
Y87842D01*
X110998Y87757D01*
X110829D01*
X110744Y87842D01*
Y87926D01*
X110829Y88011D01*
X111083D01*
X110575Y88265D02*
Y87757D01*
Y87926D01*
X110237Y88265D01*
X110490Y88011D01*
X110237Y87757D01*
X123825Y81026D02*
Y81788D01*
X123444D01*
X123317Y81661D01*
Y81407D01*
X123444Y81280D01*
X123825D01*
X123571D02*
X123317Y81026D01*
X123063Y81661D02*
X122936Y81788D01*
X122682D01*
X122555Y81661D01*
Y81534D01*
X122682Y81407D01*
X122555Y81280D01*
Y81153D01*
X122682Y81026D01*
X122936D01*
X123063Y81153D01*
Y81280D01*
X122936Y81407D01*
X123063Y81534D01*
Y81661D01*
X122936Y81407D02*
X122682D01*
X122301Y81661D02*
X122174Y81788D01*
X121920D01*
X121793Y81661D01*
Y81534D01*
X121920Y81407D01*
X121793Y81280D01*
Y81153D01*
X121920Y81026D01*
X122174D01*
X122301Y81153D01*
Y81280D01*
X122174Y81407D01*
X122301Y81534D01*
Y81661D01*
X122174Y81407D02*
X121920D01*
X123444Y78359D02*
X123275D01*
X123359D01*
Y78867D01*
X123444Y78782D01*
X123021D02*
X122936Y78867D01*
X122767D01*
X122682Y78782D01*
Y78444D01*
X122767Y78359D01*
X122936D01*
X123021Y78444D01*
Y78782D01*
X122513Y78867D02*
Y78359D01*
Y78528D01*
X122174Y78867D01*
X122428Y78613D01*
X122174Y78359D01*
X91948Y83312D02*
Y84074D01*
X91567D01*
X91440Y83947D01*
Y83693D01*
X91567Y83566D01*
X91948D01*
X91694D02*
X91440Y83312D01*
X91186Y84074D02*
X90678D01*
Y83947D01*
X91186Y83439D01*
Y83312D01*
X90424Y83947D02*
X90297Y84074D01*
X90043D01*
X89916Y83947D01*
Y83820D01*
X90043Y83693D01*
X89916Y83566D01*
Y83439D01*
X90043Y83312D01*
X90297D01*
X90424Y83439D01*
Y83566D01*
X90297Y83693D01*
X90424Y83820D01*
Y83947D01*
X90297Y83693D02*
X90043D01*
X91567Y86233D02*
X91398D01*
X91482D01*
Y86741D01*
X91567Y86656D01*
X91144D02*
X91059Y86741D01*
X90890D01*
X90805Y86656D01*
Y86318D01*
X90890Y86233D01*
X91059D01*
X91144Y86318D01*
Y86656D01*
X90636Y86741D02*
Y86233D01*
Y86402D01*
X90297Y86741D01*
X90551Y86487D01*
X90297Y86233D01*
X82042Y81026D02*
X81280D01*
Y80645D01*
X81407Y80518D01*
X81661D01*
X81788Y80645D01*
Y81026D01*
Y80772D02*
X82042Y80518D01*
X81280Y80264D02*
Y79756D01*
X81407D01*
X81915Y80264D01*
X82042D01*
Y79502D02*
Y79248D01*
Y79375D01*
X81280D01*
X81407Y79502D01*
X79671Y80518D02*
X80010D01*
Y80264D01*
X79841Y80349D01*
X79756D01*
X79671Y80264D01*
Y80095D01*
X79756Y80010D01*
X79925D01*
X80010Y80095D01*
X79502Y80010D02*
Y80095D01*
X79418D01*
Y80010D01*
X79502D01*
X78740Y80518D02*
X78910Y80433D01*
X79079Y80264D01*
Y80095D01*
X78994Y80010D01*
X78825D01*
X78740Y80095D01*
Y80179D01*
X78825Y80264D01*
X79079D01*
X78571Y80518D02*
Y80010D01*
Y80179D01*
X78233Y80518D01*
X78486Y80264D01*
X78233Y80010D01*
X90043Y81280D02*
X89281D01*
Y80899D01*
X89408Y80772D01*
X89662D01*
X89789Y80899D01*
Y81280D01*
Y81026D02*
X90043Y80772D01*
X89281Y80518D02*
Y80010D01*
X89408D01*
X89916Y80518D01*
X90043D01*
Y79248D02*
Y79756D01*
X89535Y79248D01*
X89408D01*
X89281Y79375D01*
Y79629D01*
X89408Y79756D01*
X87622Y80518D02*
X87960D01*
Y80264D01*
X87791Y80349D01*
X87706D01*
X87622Y80264D01*
Y80095D01*
X87706Y80010D01*
X87876D01*
X87960Y80095D01*
X87452Y80010D02*
Y80095D01*
X87368D01*
Y80010D01*
X87452D01*
X86691Y80518D02*
X86860Y80433D01*
X87029Y80264D01*
Y80095D01*
X86945Y80010D01*
X86775D01*
X86691Y80095D01*
Y80179D01*
X86775Y80264D01*
X87029D01*
X86521Y80518D02*
Y80010D01*
Y80179D01*
X86183Y80518D01*
X86437Y80264D01*
X86183Y80010D01*
X106045Y81280D02*
X105283D01*
Y80899D01*
X105410Y80772D01*
X105664D01*
X105791Y80899D01*
Y81280D01*
Y81026D02*
X106045Y80772D01*
X105283Y80518D02*
Y80010D01*
X105410D01*
X105918Y80518D01*
X106045D01*
Y79375D02*
X105283D01*
X105664Y79756D01*
Y79248D01*
X103547Y80518D02*
X103886D01*
Y80264D01*
X103717Y80349D01*
X103632D01*
X103547Y80264D01*
Y80095D01*
X103632Y80010D01*
X103801D01*
X103886Y80095D01*
X103378Y80010D02*
Y80095D01*
X103294D01*
Y80010D01*
X103378D01*
X102616Y80518D02*
X102786Y80433D01*
X102955Y80264D01*
Y80095D01*
X102870Y80010D01*
X102701D01*
X102616Y80095D01*
Y80179D01*
X102701Y80264D01*
X102955D01*
X102447Y80518D02*
Y80010D01*
Y80179D01*
X102109Y80518D01*
X102362Y80264D01*
X102109Y80010D01*
X151638Y64008D02*
Y64770D01*
X151257D01*
X151130Y64643D01*
Y64389D01*
X151257Y64262D01*
X151638D01*
X151384D02*
X151130Y64008D01*
X150368Y64770D02*
X150622Y64643D01*
X150876Y64389D01*
Y64135D01*
X150749Y64008D01*
X150495D01*
X150368Y64135D01*
Y64262D01*
X150495Y64389D01*
X150876D01*
X150114Y64770D02*
X149606D01*
Y64643D01*
X150114Y64135D01*
Y64008D01*
X151258Y61341D02*
Y61849D01*
X151512Y61595D01*
X151173D01*
X151004Y61341D02*
Y61426D01*
X150919D01*
Y61341D01*
X151004D01*
X150581Y61849D02*
X150242D01*
Y61764D01*
X150581Y61426D01*
Y61341D01*
X150073Y61849D02*
Y61341D01*
Y61510D01*
X149734Y61849D01*
X149988Y61595D01*
X149734Y61341D01*
X144526Y64008D02*
Y64770D01*
X144145D01*
X144018Y64643D01*
Y64389D01*
X144145Y64262D01*
X144526D01*
X144272D02*
X144018Y64008D01*
X143256Y64770D02*
X143510Y64643D01*
X143764Y64389D01*
Y64135D01*
X143637Y64008D01*
X143383D01*
X143256Y64135D01*
Y64262D01*
X143383Y64389D01*
X143764D01*
X142494Y64770D02*
X142748Y64643D01*
X143002Y64389D01*
Y64135D01*
X142875Y64008D01*
X142621D01*
X142494Y64135D01*
Y64262D01*
X142621Y64389D01*
X143002D01*
X144146Y61341D02*
Y61849D01*
X144400Y61595D01*
X144061D01*
X143892Y61341D02*
Y61426D01*
X143807D01*
Y61341D01*
X143892D01*
X143469Y61849D02*
X143130D01*
Y61764D01*
X143469Y61426D01*
Y61341D01*
X142961Y61849D02*
Y61341D01*
Y61510D01*
X142622Y61849D01*
X142876Y61595D01*
X142622Y61341D01*
X151638Y58039D02*
Y58801D01*
X151257D01*
X151130Y58674D01*
Y58420D01*
X151257Y58293D01*
X151638D01*
X151384D02*
X151130Y58039D01*
X150368Y58801D02*
X150622Y58674D01*
X150876Y58420D01*
Y58166D01*
X150749Y58039D01*
X150495D01*
X150368Y58166D01*
Y58293D01*
X150495Y58420D01*
X150876D01*
X149606Y58801D02*
X150114D01*
Y58420D01*
X149860Y58547D01*
X149733D01*
X149606Y58420D01*
Y58166D01*
X149733Y58039D01*
X149987D01*
X150114Y58166D01*
X151258Y55321D02*
Y55829D01*
X151512Y55575D01*
X151173D01*
X151004Y55321D02*
Y55406D01*
X150919D01*
Y55321D01*
X151004D01*
X150581Y55829D02*
X150242D01*
Y55744D01*
X150581Y55406D01*
Y55321D01*
X150073Y55829D02*
Y55321D01*
Y55490D01*
X149734Y55829D01*
X149988Y55575D01*
X149734Y55321D01*
X144526Y57912D02*
Y58674D01*
X144145D01*
X144018Y58547D01*
Y58293D01*
X144145Y58166D01*
X144526D01*
X144272D02*
X144018Y57912D01*
X143256Y58674D02*
X143510Y58547D01*
X143764Y58293D01*
Y58039D01*
X143637Y57912D01*
X143383D01*
X143256Y58039D01*
Y58166D01*
X143383Y58293D01*
X143764D01*
X142621Y57912D02*
Y58674D01*
X143002Y58293D01*
X142494D01*
X144146Y55245D02*
Y55753D01*
X144400Y55499D01*
X144061D01*
X143892Y55245D02*
Y55330D01*
X143807D01*
Y55245D01*
X143892D01*
X143469Y55753D02*
X143130D01*
Y55668D01*
X143469Y55330D01*
Y55245D01*
X142961Y55753D02*
Y55245D01*
Y55414D01*
X142622Y55753D01*
X142876Y55499D01*
X142622Y55245D01*
X151511Y51689D02*
Y52451D01*
X151130D01*
X151003Y52324D01*
Y52070D01*
X151130Y51943D01*
X151511D01*
X151257D02*
X151003Y51689D01*
X150241Y52451D02*
X150495Y52324D01*
X150749Y52070D01*
Y51816D01*
X150622Y51689D01*
X150368D01*
X150241Y51816D01*
Y51943D01*
X150368Y52070D01*
X150749D01*
X149987Y52324D02*
X149860Y52451D01*
X149606D01*
X149479Y52324D01*
Y52197D01*
X149606Y52070D01*
X149733D01*
X149606D01*
X149479Y51943D01*
Y51816D01*
X149606Y51689D01*
X149860D01*
X149987Y51816D01*
X151131Y49098D02*
Y49606D01*
X151385Y49352D01*
X151046D01*
X150877Y49098D02*
Y49183D01*
X150792D01*
Y49098D01*
X150877D01*
X150454Y49606D02*
X150115D01*
Y49521D01*
X150454Y49183D01*
Y49098D01*
X149946Y49606D02*
Y49098D01*
Y49267D01*
X149607Y49606D01*
X149861Y49352D01*
X149607Y49098D01*
X144526Y51943D02*
Y52705D01*
X144145D01*
X144018Y52578D01*
Y52324D01*
X144145Y52197D01*
X144526D01*
X144272D02*
X144018Y51943D01*
X143256Y52705D02*
X143510Y52578D01*
X143764Y52324D01*
Y52070D01*
X143637Y51943D01*
X143383D01*
X143256Y52070D01*
Y52197D01*
X143383Y52324D01*
X143764D01*
X142494Y51943D02*
X143002D01*
X142494Y52451D01*
Y52578D01*
X142621Y52705D01*
X142875D01*
X143002Y52578D01*
X144146Y49276D02*
Y49784D01*
X144400Y49530D01*
X144061D01*
X143892Y49276D02*
Y49361D01*
X143807D01*
Y49276D01*
X143892D01*
X143469Y49784D02*
X143130D01*
Y49699D01*
X143469Y49361D01*
Y49276D01*
X142961Y49784D02*
Y49276D01*
Y49445D01*
X142622Y49784D01*
X142876Y49530D01*
X142622Y49276D01*
X151511Y45593D02*
Y46355D01*
X151130D01*
X151003Y46228D01*
Y45974D01*
X151130Y45847D01*
X151511D01*
X151257D02*
X151003Y45593D01*
X150241Y46355D02*
X150495Y46228D01*
X150749Y45974D01*
Y45720D01*
X150622Y45593D01*
X150368D01*
X150241Y45720D01*
Y45847D01*
X150368Y45974D01*
X150749D01*
X149987Y45593D02*
X149733D01*
X149860D01*
Y46355D01*
X149987Y46228D01*
X151258Y42926D02*
Y43434D01*
X151512Y43180D01*
X151173D01*
X151004Y42926D02*
Y43011D01*
X150919D01*
Y42926D01*
X151004D01*
X150581Y43434D02*
X150242D01*
Y43349D01*
X150581Y43011D01*
Y42926D01*
X150073Y43434D02*
Y42926D01*
Y43095D01*
X149734Y43434D01*
X149988Y43180D01*
X149734Y42926D01*
X144526Y45720D02*
Y46482D01*
X144145D01*
X144018Y46355D01*
Y46101D01*
X144145Y45974D01*
X144526D01*
X144272D02*
X144018Y45720D01*
X143256Y46482D02*
X143510Y46355D01*
X143764Y46101D01*
Y45847D01*
X143637Y45720D01*
X143383D01*
X143256Y45847D01*
Y45974D01*
X143383Y46101D01*
X143764D01*
X143002Y46355D02*
X142875Y46482D01*
X142621D01*
X142494Y46355D01*
Y45847D01*
X142621Y45720D01*
X142875D01*
X143002Y45847D01*
Y46355D01*
X144146Y43053D02*
Y43561D01*
X144400Y43307D01*
X144061D01*
X143892Y43053D02*
Y43138D01*
X143807D01*
Y43053D01*
X143892D01*
X143469Y43561D02*
X143130D01*
Y43476D01*
X143469Y43138D01*
Y43053D01*
X142961Y43561D02*
Y43053D01*
Y43222D01*
X142622Y43561D01*
X142876Y43307D01*
X142622Y43053D01*
X147637Y58928D02*
Y59436D01*
X147764Y59563D01*
X148018D01*
X148145Y59436D01*
Y58928D01*
X148018Y58801D01*
X147764D01*
X147891Y59055D02*
X147637Y58801D01*
X147764D02*
X147637Y58928D01*
X147383Y58801D02*
X147130D01*
X147256D01*
Y59563D01*
X147383Y59436D01*
X146241Y58801D02*
X146749D01*
X146241Y59309D01*
Y59436D01*
X146368Y59563D01*
X146622D01*
X146749Y59436D01*
X148717Y64135D02*
Y63627D01*
X148463D01*
X148378Y63712D01*
Y63796D01*
X148463Y63881D01*
X148717D01*
X148463D01*
X148378Y63966D01*
Y64050D01*
X148463Y64135D01*
X148717D01*
X147870Y64050D02*
X147955Y64135D01*
X148124D01*
X148209Y64050D01*
Y63966D01*
X148124Y63881D01*
X147955D01*
X147870Y63796D01*
Y63712D01*
X147955Y63627D01*
X148124D01*
X148209Y63712D01*
X147362Y64050D02*
X147447Y64135D01*
X147616D01*
X147701Y64050D01*
Y63966D01*
X147616Y63881D01*
X147447D01*
X147362Y63796D01*
Y63712D01*
X147447Y63627D01*
X147616D01*
X147701Y63712D01*
X147193Y63627D02*
X147024D01*
X147108D01*
Y64135D01*
X147193Y64050D01*
X146770D02*
X146685Y64135D01*
X146516D01*
X146431Y64050D01*
Y63966D01*
X146516Y63881D01*
X146601D01*
X146516D01*
X146431Y63796D01*
Y63712D01*
X146516Y63627D01*
X146685D01*
X146770Y63712D01*
X146262Y64050D02*
X146177Y64135D01*
X146008D01*
X145923Y64050D01*
Y63966D01*
X146008Y63881D01*
X145923Y63796D01*
Y63712D01*
X146008Y63627D01*
X146177D01*
X146262Y63712D01*
Y63796D01*
X146177Y63881D01*
X146262Y63966D01*
Y64050D01*
X146177Y63881D02*
X146008D01*
X147510Y52832D02*
Y53340D01*
X147637Y53467D01*
X147891D01*
X148018Y53340D01*
Y52832D01*
X147891Y52705D01*
X147637D01*
X147764Y52959D02*
X147510Y52705D01*
X147637D02*
X147510Y52832D01*
X147256Y52705D02*
X147003D01*
X147130D01*
Y53467D01*
X147256Y53340D01*
X146622Y52705D02*
X146368D01*
X146495D01*
Y53467D01*
X146622Y53340D01*
X148717Y57912D02*
Y57404D01*
X148463D01*
X148378Y57489D01*
Y57573D01*
X148463Y57658D01*
X148717D01*
X148463D01*
X148378Y57743D01*
Y57827D01*
X148463Y57912D01*
X148717D01*
X147870Y57827D02*
X147955Y57912D01*
X148124D01*
X148209Y57827D01*
Y57743D01*
X148124Y57658D01*
X147955D01*
X147870Y57573D01*
Y57489D01*
X147955Y57404D01*
X148124D01*
X148209Y57489D01*
X147362Y57827D02*
X147447Y57912D01*
X147616D01*
X147701Y57827D01*
Y57743D01*
X147616Y57658D01*
X147447D01*
X147362Y57573D01*
Y57489D01*
X147447Y57404D01*
X147616D01*
X147701Y57489D01*
X147193Y57404D02*
X147024D01*
X147108D01*
Y57912D01*
X147193Y57827D01*
X146770D02*
X146685Y57912D01*
X146516D01*
X146431Y57827D01*
Y57743D01*
X146516Y57658D01*
X146601D01*
X146516D01*
X146431Y57573D01*
Y57489D01*
X146516Y57404D01*
X146685D01*
X146770Y57489D01*
X146262Y57827D02*
X146177Y57912D01*
X146008D01*
X145923Y57827D01*
Y57743D01*
X146008Y57658D01*
X145923Y57573D01*
Y57489D01*
X146008Y57404D01*
X146177D01*
X146262Y57489D01*
Y57573D01*
X146177Y57658D01*
X146262Y57743D01*
Y57827D01*
X146177Y57658D02*
X146008D01*
X147764Y46736D02*
Y47244D01*
X147891Y47371D01*
X148145D01*
X148272Y47244D01*
Y46736D01*
X148145Y46609D01*
X147891D01*
X148018Y46863D02*
X147764Y46609D01*
X147891D02*
X147764Y46736D01*
X147510Y46609D02*
X147257D01*
X147383D01*
Y47371D01*
X147510Y47244D01*
X146876D02*
X146749Y47371D01*
X146495D01*
X146368Y47244D01*
Y46736D01*
X146495Y46609D01*
X146749D01*
X146876Y46736D01*
Y47244D01*
X148717Y51816D02*
Y51308D01*
X148463D01*
X148378Y51393D01*
Y51477D01*
X148463Y51562D01*
X148717D01*
X148463D01*
X148378Y51647D01*
Y51731D01*
X148463Y51816D01*
X148717D01*
X147870Y51731D02*
X147955Y51816D01*
X148124D01*
X148209Y51731D01*
Y51647D01*
X148124Y51562D01*
X147955D01*
X147870Y51477D01*
Y51393D01*
X147955Y51308D01*
X148124D01*
X148209Y51393D01*
X147362Y51731D02*
X147447Y51816D01*
X147616D01*
X147701Y51731D01*
Y51647D01*
X147616Y51562D01*
X147447D01*
X147362Y51477D01*
Y51393D01*
X147447Y51308D01*
X147616D01*
X147701Y51393D01*
X147193Y51308D02*
X147024D01*
X147108D01*
Y51816D01*
X147193Y51731D01*
X146770D02*
X146685Y51816D01*
X146516D01*
X146431Y51731D01*
Y51647D01*
X146516Y51562D01*
X146601D01*
X146516D01*
X146431Y51477D01*
Y51393D01*
X146516Y51308D01*
X146685D01*
X146770Y51393D01*
X146262Y51731D02*
X146177Y51816D01*
X146008D01*
X145923Y51731D01*
Y51647D01*
X146008Y51562D01*
X145923Y51477D01*
Y51393D01*
X146008Y51308D01*
X146177D01*
X146262Y51393D01*
Y51477D01*
X146177Y51562D01*
X146262Y51647D01*
Y51731D01*
X146177Y51562D02*
X146008D01*
X147828Y40640D02*
Y41148D01*
X147955Y41275D01*
X148209D01*
X148336Y41148D01*
Y40640D01*
X148209Y40513D01*
X147955D01*
X148082Y40767D02*
X147828Y40513D01*
X147955D02*
X147828Y40640D01*
X147574Y41148D02*
X147447Y41275D01*
X147193D01*
X147066Y41148D01*
Y41021D01*
X147193Y40894D01*
X147320D01*
X147193D01*
X147066Y40767D01*
Y40640D01*
X147193Y40513D01*
X147447D01*
X147574Y40640D01*
X148717Y45720D02*
Y45212D01*
X148463D01*
X148378Y45297D01*
Y45381D01*
X148463Y45466D01*
X148717D01*
X148463D01*
X148378Y45551D01*
Y45635D01*
X148463Y45720D01*
X148717D01*
X147870Y45635D02*
X147955Y45720D01*
X148124D01*
X148209Y45635D01*
Y45551D01*
X148124Y45466D01*
X147955D01*
X147870Y45381D01*
Y45297D01*
X147955Y45212D01*
X148124D01*
X148209Y45297D01*
X147362Y45635D02*
X147447Y45720D01*
X147616D01*
X147701Y45635D01*
Y45551D01*
X147616Y45466D01*
X147447D01*
X147362Y45381D01*
Y45297D01*
X147447Y45212D01*
X147616D01*
X147701Y45297D01*
X147193Y45212D02*
X147024D01*
X147108D01*
Y45720D01*
X147193Y45635D01*
X146770D02*
X146685Y45720D01*
X146516D01*
X146431Y45635D01*
Y45551D01*
X146516Y45466D01*
X146601D01*
X146516D01*
X146431Y45381D01*
Y45297D01*
X146516Y45212D01*
X146685D01*
X146770Y45297D01*
X146262Y45635D02*
X146177Y45720D01*
X146008D01*
X145923Y45635D01*
Y45551D01*
X146008Y45466D01*
X145923Y45381D01*
Y45297D01*
X146008Y45212D01*
X146177D01*
X146262Y45297D01*
Y45381D01*
X146177Y45466D01*
X146262Y45551D01*
Y45635D01*
X146177Y45466D02*
X146008D01*
X156591Y90043D02*
Y90805D01*
X156210D01*
X156083Y90678D01*
Y90424D01*
X156210Y90297D01*
X156591D01*
X156337D02*
X156083Y90043D01*
X155321Y90805D02*
X155829D01*
Y90424D01*
X155575Y90551D01*
X155448D01*
X155321Y90424D01*
Y90170D01*
X155448Y90043D01*
X155702D01*
X155829Y90170D01*
X155067D02*
X154940Y90043D01*
X154686D01*
X154559Y90170D01*
Y90678D01*
X154686Y90805D01*
X154940D01*
X155067Y90678D01*
Y90551D01*
X154940Y90424D01*
X154559D01*
X155922Y88265D02*
X156261D01*
X155922Y88604D01*
Y88688D01*
X156007Y88773D01*
X156176D01*
X156261Y88688D01*
X155415Y88265D02*
X155753D01*
X155415Y88604D01*
Y88688D01*
X155499Y88773D01*
X155669D01*
X155753Y88688D01*
X155245D02*
X155161Y88773D01*
X154991D01*
X154907Y88688D01*
Y88350D01*
X154991Y88265D01*
X155161D01*
X155245Y88350D01*
Y88688D01*
X156718Y95123D02*
Y95885D01*
X156337D01*
X156210Y95758D01*
Y95504D01*
X156337Y95377D01*
X156718D01*
X156464D02*
X156210Y95123D01*
X155448Y95885D02*
X155956D01*
Y95504D01*
X155702Y95631D01*
X155575D01*
X155448Y95504D01*
Y95250D01*
X155575Y95123D01*
X155829D01*
X155956Y95250D01*
X155194Y95885D02*
X154686D01*
Y95758D01*
X155194Y95250D01*
Y95123D01*
X156049Y93472D02*
X156388D01*
X156049Y93811D01*
Y93895D01*
X156134Y93980D01*
X156303D01*
X156388Y93895D01*
X155542Y93472D02*
X155880D01*
X155542Y93811D01*
Y93895D01*
X155626Y93980D01*
X155796D01*
X155880Y93895D01*
X155372D02*
X155288Y93980D01*
X155118D01*
X155034Y93895D01*
Y93557D01*
X155118Y93472D01*
X155288D01*
X155372Y93557D01*
Y93895D01*
X156718Y100203D02*
Y100965D01*
X156337D01*
X156210Y100838D01*
Y100584D01*
X156337Y100457D01*
X156718D01*
X156464D02*
X156210Y100203D01*
X155448Y100965D02*
X155956D01*
Y100584D01*
X155702Y100711D01*
X155575D01*
X155448Y100584D01*
Y100330D01*
X155575Y100203D01*
X155829D01*
X155956Y100330D01*
X154686Y100965D02*
X155194D01*
Y100584D01*
X154940Y100711D01*
X154813D01*
X154686Y100584D01*
Y100330D01*
X154813Y100203D01*
X155067D01*
X155194Y100330D01*
X156049Y98552D02*
X156388D01*
X156049Y98891D01*
Y98975D01*
X156134Y99060D01*
X156303D01*
X156388Y98975D01*
X155542Y98552D02*
X155880D01*
X155542Y98891D01*
Y98975D01*
X155626Y99060D01*
X155796D01*
X155880Y98975D01*
X155372D02*
X155288Y99060D01*
X155118D01*
X155034Y98975D01*
Y98637D01*
X155118Y98552D01*
X155288D01*
X155372Y98637D01*
Y98975D01*
X156591Y105283D02*
Y106045D01*
X156210D01*
X156083Y105918D01*
Y105664D01*
X156210Y105537D01*
X156591D01*
X156337D02*
X156083Y105283D01*
X155321Y106045D02*
X155829D01*
Y105664D01*
X155575Y105791D01*
X155448D01*
X155321Y105664D01*
Y105410D01*
X155448Y105283D01*
X155702D01*
X155829Y105410D01*
X155067Y105918D02*
X154940Y106045D01*
X154686D01*
X154559Y105918D01*
Y105791D01*
X154686Y105664D01*
X154813D01*
X154686D01*
X154559Y105537D01*
Y105410D01*
X154686Y105283D01*
X154940D01*
X155067Y105410D01*
X155897Y103632D02*
X156236D01*
X155897Y103971D01*
Y104055D01*
X155982Y104140D01*
X156151D01*
X156236Y104055D01*
X155389Y103632D02*
X155728D01*
X155389Y103971D01*
Y104055D01*
X155474Y104140D01*
X155643D01*
X155728Y104055D01*
X155220D02*
X155135Y104140D01*
X154966D01*
X154881Y104055D01*
Y103717D01*
X154966Y103632D01*
X155135D01*
X155220Y103717D01*
Y104055D01*
X147320Y104394D02*
Y103759D01*
X147193Y103632D01*
X146939D01*
X146812Y103759D01*
Y104394D01*
X146050Y103632D02*
X146558D01*
X146050Y104140D01*
Y104267D01*
X146177Y104394D01*
X146431D01*
X146558Y104267D01*
X145796D02*
X145669Y104394D01*
X145415D01*
X145288Y104267D01*
Y103759D01*
X145415Y103632D01*
X145669D01*
X145796Y103759D01*
Y104267D01*
X148539Y95250D02*
Y94742D01*
X148201D01*
X148031Y95250D02*
X147693D01*
X147862D01*
Y94742D01*
X147524Y95250D02*
Y94911D01*
X147354Y94742D01*
X147185Y94911D01*
Y95250D01*
X147016Y94996D02*
X146677D01*
X146508Y95165D02*
X146423Y95250D01*
X146254D01*
X146169Y95165D01*
Y95081D01*
X146254Y94996D01*
X146169Y94911D01*
Y94827D01*
X146254Y94742D01*
X146423D01*
X146508Y94827D01*
Y94911D01*
X146423Y94996D01*
X146508Y95081D01*
Y95165D01*
X146423Y94996D02*
X146254D01*
X145746Y94742D02*
Y95250D01*
X146000Y94996D01*
X145661D01*
X145154Y95250D02*
X145323Y95165D01*
X145492Y94996D01*
Y94827D01*
X145408Y94742D01*
X145238D01*
X145154Y94827D01*
Y94911D01*
X145238Y94996D01*
X145492D01*
X144646Y95165D02*
X144730Y95250D01*
X144900D01*
X144984Y95165D01*
Y95081D01*
X144900Y94996D01*
X144730D01*
X144646Y94911D01*
Y94827D01*
X144730Y94742D01*
X144900D01*
X144984Y94827D01*
X133858Y92583D02*
Y93345D01*
X133477D01*
X133350Y93218D01*
Y92964D01*
X133477Y92837D01*
X133858D01*
X133604D02*
X133350Y92583D01*
X132588Y93345D02*
X133096D01*
Y92964D01*
X132842Y93091D01*
X132715D01*
X132588Y92964D01*
Y92710D01*
X132715Y92583D01*
X132969D01*
X133096Y92710D01*
X132334Y93218D02*
X132208Y93345D01*
X131954D01*
X131827Y93218D01*
Y93091D01*
X131954Y92964D01*
X131827Y92837D01*
Y92710D01*
X131954Y92583D01*
X132208D01*
X132334Y92710D01*
Y92837D01*
X132208Y92964D01*
X132334Y93091D01*
Y93218D01*
X132208Y92964D02*
X131954D01*
X136779Y93599D02*
X136271D01*
X136525Y93853D01*
Y93514D01*
X136779Y93345D02*
X136695D01*
Y93260D01*
X136779D01*
Y93345D01*
X136271Y92922D02*
Y92583D01*
X136356D01*
X136695Y92922D01*
X136779D01*
X136271Y92414D02*
X136779D01*
X136610D01*
X136271Y92075D01*
X136525Y92329D01*
X136779Y92075D01*
X133858Y94742D02*
Y95504D01*
X133477D01*
X133350Y95377D01*
Y95123D01*
X133477Y94996D01*
X133858D01*
X133604D02*
X133350Y94742D01*
X132588Y95504D02*
X133096D01*
Y95123D01*
X132842Y95250D01*
X132715D01*
X132588Y95123D01*
Y94869D01*
X132715Y94742D01*
X132969D01*
X133096Y94869D01*
X131827Y95504D02*
X132081Y95377D01*
X132334Y95123D01*
Y94869D01*
X132208Y94742D01*
X131954D01*
X131827Y94869D01*
Y94996D01*
X131954Y95123D01*
X132334D01*
X136779Y95758D02*
X136271D01*
X136525Y96012D01*
Y95673D01*
X136779Y95504D02*
X136695D01*
Y95419D01*
X136779D01*
Y95504D01*
X136271Y95081D02*
Y94742D01*
X136356D01*
X136695Y95081D01*
X136779D01*
X136271Y94573D02*
X136779D01*
X136610D01*
X136271Y94234D01*
X136525Y94488D01*
X136779Y94234D01*
X133858Y96901D02*
Y97663D01*
X133477D01*
X133350Y97536D01*
Y97282D01*
X133477Y97155D01*
X133858D01*
X133604D02*
X133350Y96901D01*
X132588Y97663D02*
X133096D01*
Y97282D01*
X132842Y97409D01*
X132715D01*
X132588Y97282D01*
Y97028D01*
X132715Y96901D01*
X132969D01*
X133096Y97028D01*
X131954Y96901D02*
Y97663D01*
X132334Y97282D01*
X131827D01*
X136779Y97917D02*
X136271D01*
X136525Y98171D01*
Y97832D01*
X136779Y97663D02*
X136695D01*
Y97578D01*
X136779D01*
Y97663D01*
X136271Y97240D02*
Y96901D01*
X136356D01*
X136695Y97240D01*
X136779D01*
X136271Y96732D02*
X136779D01*
X136610D01*
X136271Y96393D01*
X136525Y96647D01*
X136779Y96393D01*
X133909Y99060D02*
Y99822D01*
X133528D01*
X133401Y99695D01*
Y99441D01*
X133528Y99314D01*
X133909D01*
X133655D02*
X133401Y99060D01*
X132639Y99822D02*
X133147D01*
Y99441D01*
X132893Y99568D01*
X132766D01*
X132639Y99441D01*
Y99187D01*
X132766Y99060D01*
X133020D01*
X133147Y99187D01*
X131877Y99060D02*
X132385D01*
X131877Y99568D01*
Y99695D01*
X132004Y99822D01*
X132258D01*
X132385Y99695D01*
X136779Y100076D02*
X136271D01*
X136525Y100330D01*
Y99991D01*
X136779Y99822D02*
X136694D01*
Y99737D01*
X136779D01*
Y99822D01*
X136271Y99399D02*
Y99060D01*
X136356D01*
X136694Y99399D01*
X136779D01*
X136271Y98891D02*
X136779D01*
X136610D01*
X136271Y98552D01*
X136525Y98806D01*
X136779Y98552D01*
X110109Y75311D02*
Y74676D01*
X109982Y74549D01*
X109728D01*
X109601Y74676D01*
Y75311D01*
X109347Y75184D02*
X109220Y75311D01*
X108966D01*
X108839Y75184D01*
Y75057D01*
X108966Y74930D01*
X109093D01*
X108966D01*
X108839Y74803D01*
Y74676D01*
X108966Y74549D01*
X109220D01*
X109347Y74676D01*
X113199Y70527D02*
X113284Y70612D01*
X113453D01*
X113538Y70527D01*
Y70443D01*
X113453Y70358D01*
X113284D01*
X113199Y70273D01*
Y70189D01*
X113284Y70104D01*
X113453D01*
X113538Y70189D01*
X113030Y70104D02*
Y70612D01*
X112776D01*
X112692Y70527D01*
Y70358D01*
X112776Y70273D01*
X113030D01*
X112522Y70612D02*
X112184D01*
Y70527D01*
X112522Y70189D01*
Y70104D01*
X111676D02*
X112015D01*
X111676Y70443D01*
Y70527D01*
X111761Y70612D01*
X111930D01*
X112015Y70527D01*
X111507Y70104D02*
X111337D01*
X111422D01*
Y70612D01*
X111507Y70527D01*
X111083Y70104D02*
Y70443D01*
X110914Y70612D01*
X110745Y70443D01*
Y70104D01*
Y70358D01*
X111083D01*
X110576Y70612D02*
Y70104D01*
X110322D01*
X110237Y70189D01*
Y70273D01*
X110322Y70358D01*
X110576D01*
X110322D01*
X110237Y70443D01*
Y70527D01*
X110322Y70612D01*
X110576D01*
X110068D02*
X109729D01*
X109899D01*
Y70104D01*
X109221Y70527D02*
X109306Y70612D01*
X109475D01*
X109560Y70527D01*
Y70189D01*
X109475Y70104D01*
X109306D01*
X109221Y70189D01*
Y70358D01*
X109391D01*
X110299Y66167D02*
Y65532D01*
X110172Y65405D01*
X109918D01*
X109791Y65532D01*
Y66167D01*
X109537Y65405D02*
X109284D01*
X109410D01*
Y66167D01*
X109537Y66040D01*
X108903Y65532D02*
X108776Y65405D01*
X108522D01*
X108395Y65532D01*
Y66040D01*
X108522Y66167D01*
X108776D01*
X108903Y66040D01*
Y65913D01*
X108776Y65786D01*
X108395D01*
X113199Y61637D02*
X113284Y61722D01*
X113453D01*
X113538Y61637D01*
Y61553D01*
X113453Y61468D01*
X113284D01*
X113199Y61383D01*
Y61299D01*
X113284Y61214D01*
X113453D01*
X113538Y61299D01*
X113030Y61214D02*
Y61722D01*
X112776D01*
X112692Y61637D01*
Y61468D01*
X112776Y61383D01*
X113030D01*
X112522Y61722D02*
X112184D01*
Y61637D01*
X112522Y61299D01*
Y61214D01*
X111676D02*
X112015D01*
X111676Y61553D01*
Y61637D01*
X111761Y61722D01*
X111930D01*
X112015Y61637D01*
X111507Y61214D02*
X111337D01*
X111422D01*
Y61722D01*
X111507Y61637D01*
X111083Y61214D02*
Y61553D01*
X110914Y61722D01*
X110745Y61553D01*
Y61214D01*
Y61468D01*
X111083D01*
X110576Y61722D02*
Y61214D01*
X110322D01*
X110237Y61299D01*
Y61383D01*
X110322Y61468D01*
X110576D01*
X110322D01*
X110237Y61553D01*
Y61637D01*
X110322Y61722D01*
X110576D01*
X110068D02*
X109729D01*
X109899D01*
Y61214D01*
X109221Y61637D02*
X109306Y61722D01*
X109475D01*
X109560Y61637D01*
Y61299D01*
X109475Y61214D01*
X109306D01*
X109221Y61299D01*
Y61468D01*
X109391D01*
X92710Y86614D02*
X91948D01*
Y86233D01*
X92075Y86106D01*
X92329D01*
X92456Y86233D01*
Y86614D01*
Y86360D02*
X92710Y86106D01*
Y85471D02*
X91948D01*
X92329Y85852D01*
Y85344D01*
X92075Y85090D02*
X91948Y84963D01*
Y84709D01*
X92075Y84582D01*
X92202D01*
X92329Y84709D01*
Y84836D01*
Y84709D01*
X92456Y84582D01*
X92583D01*
X92710Y84709D01*
Y84963D01*
X92583Y85090D01*
X95632Y85217D02*
Y85725D01*
X95886Y85471D01*
X95547D01*
X95378Y85217D02*
Y85302D01*
X95293D01*
Y85217D01*
X95378D01*
X94955Y85725D02*
X94616D01*
Y85640D01*
X94955Y85302D01*
Y85217D01*
X94447Y85725D02*
Y85217D01*
Y85386D01*
X94108Y85725D01*
X94362Y85471D01*
X94108Y85217D01*
X95631Y75565D02*
Y76327D01*
X95250D01*
X95123Y76200D01*
Y75946D01*
X95250Y75819D01*
X95631D01*
X95377D02*
X95123Y75565D01*
X94869Y75692D02*
X94742Y75565D01*
X94488D01*
X94361Y75692D01*
Y76200D01*
X94488Y76327D01*
X94742D01*
X94869Y76200D01*
Y76073D01*
X94742Y75946D01*
X94361D01*
X95632Y77343D02*
Y77851D01*
X95886Y77597D01*
X95547D01*
X95378Y77343D02*
Y77428D01*
X95293D01*
Y77343D01*
X95378D01*
X94955Y77851D02*
X94616D01*
Y77766D01*
X94955Y77428D01*
Y77343D01*
X94447Y77851D02*
Y77343D01*
Y77512D01*
X94108Y77851D01*
X94362Y77597D01*
X94108Y77343D01*
X76708Y86487D02*
X75946D01*
Y86106D01*
X76073Y85979D01*
X76327D01*
X76454Y86106D01*
Y86487D01*
Y86233D02*
X76708Y85979D01*
Y85344D02*
X75946D01*
X76327Y85725D01*
Y85217D01*
X76708Y84582D02*
X75946D01*
X76327Y84963D01*
Y84455D01*
X79757Y85217D02*
Y85725D01*
X80011Y85471D01*
X79672D01*
X79503Y85217D02*
Y85302D01*
X79418D01*
Y85217D01*
X79503D01*
X79080Y85725D02*
X78741D01*
Y85640D01*
X79080Y85302D01*
Y85217D01*
X78572Y85725D02*
Y85217D01*
Y85386D01*
X78233Y85725D01*
X78487Y85471D01*
X78233Y85217D01*
X87947Y75565D02*
Y76327D01*
X87566D01*
X87439Y76200D01*
Y75946D01*
X87566Y75819D01*
X87947D01*
X87693D02*
X87439Y75565D01*
X87185D02*
X86932D01*
X87059D01*
Y76327D01*
X87185Y76200D01*
X86551Y75565D02*
X86297D01*
X86424D01*
Y76327D01*
X86551Y76200D01*
X87707Y77343D02*
Y77851D01*
X87961Y77597D01*
X87623D01*
X87453Y77343D02*
Y77428D01*
X87369D01*
Y77343D01*
X87453D01*
X87030Y77851D02*
X86692D01*
Y77766D01*
X87030Y77428D01*
Y77343D01*
X86522Y77851D02*
Y77343D01*
Y77512D01*
X86184Y77851D01*
X86438Y77597D01*
X86184Y77343D01*
X108255Y85090D02*
Y85852D01*
X107874D01*
X107747Y85725D01*
Y85471D01*
X107874Y85344D01*
X108255D01*
X108001D02*
X107747Y85090D01*
X106985Y85852D02*
X107493D01*
Y85471D01*
X107239Y85598D01*
X107112D01*
X106985Y85471D01*
Y85217D01*
X107112Y85090D01*
X107366D01*
X107493Y85217D01*
X106731Y85090D02*
X106477D01*
X106604D01*
Y85852D01*
X106731Y85725D01*
X111761Y85217D02*
Y85725D01*
X112015Y85471D01*
X111676D01*
X111507Y85217D02*
Y85302D01*
X111422D01*
Y85217D01*
X111507D01*
X111084Y85725D02*
X110745D01*
Y85640D01*
X111084Y85302D01*
Y85217D01*
X110576Y85725D02*
Y85217D01*
Y85386D01*
X110237Y85725D01*
X110491Y85471D01*
X110237Y85217D01*
X103949Y75692D02*
Y76454D01*
X103568D01*
X103441Y76327D01*
Y76073D01*
X103568Y75946D01*
X103949D01*
X103695D02*
X103441Y75692D01*
X103187D02*
X102934D01*
X103060D01*
Y76454D01*
X103187Y76327D01*
X102553D02*
X102426Y76454D01*
X102172D01*
X102045Y76327D01*
Y76200D01*
X102172Y76073D01*
X102045Y75946D01*
Y75819D01*
X102172Y75692D01*
X102426D01*
X102553Y75819D01*
Y75946D01*
X102426Y76073D01*
X102553Y76200D01*
Y76327D01*
X102426Y76073D02*
X102172D01*
X103633Y77470D02*
Y77978D01*
X103887Y77724D01*
X103548D01*
X103379Y77470D02*
Y77555D01*
X103294D01*
Y77470D01*
X103379D01*
X102956Y77978D02*
X102617D01*
Y77893D01*
X102956Y77555D01*
Y77470D01*
X102448Y77978D02*
Y77470D01*
Y77639D01*
X102109Y77978D01*
X102363Y77724D01*
X102109Y77470D01*
X100711Y86487D02*
X99949D01*
Y86106D01*
X100076Y85979D01*
X100330D01*
X100457Y86106D01*
Y86487D01*
Y86233D02*
X100711Y85979D01*
X99949Y85217D02*
Y85725D01*
X100330D01*
X100203Y85471D01*
Y85344D01*
X100330Y85217D01*
X100584D01*
X100711Y85344D01*
Y85598D01*
X100584Y85725D01*
X100076Y84963D02*
X99949Y84836D01*
Y84582D01*
X100076Y84455D01*
X100584D01*
X100711Y84582D01*
Y84836D01*
X100584Y84963D01*
X100076D01*
X103633Y85217D02*
Y85725D01*
X103887Y85471D01*
X103548D01*
X103379Y85217D02*
Y85302D01*
X103294D01*
Y85217D01*
X103379D01*
X102956Y85725D02*
X102617D01*
Y85640D01*
X102956Y85302D01*
Y85217D01*
X102448Y85725D02*
Y85217D01*
Y85386D01*
X102109Y85725D01*
X102363Y85471D01*
X102109Y85217D01*
X84836Y86487D02*
X84074D01*
Y86106D01*
X84201Y85979D01*
X84455D01*
X84582Y86106D01*
Y86487D01*
Y86233D02*
X84836Y85979D01*
Y85344D02*
X84074D01*
X84455Y85725D01*
Y85217D01*
X84074Y84455D02*
Y84963D01*
X84455D01*
X84328Y84709D01*
Y84582D01*
X84455Y84455D01*
X84709D01*
X84836Y84582D01*
Y84836D01*
X84709Y84963D01*
X87707Y85217D02*
Y85725D01*
X87961Y85471D01*
X87623D01*
X87453Y85217D02*
Y85302D01*
X87369D01*
Y85217D01*
X87453D01*
X87030Y85725D02*
X86692D01*
Y85640D01*
X87030Y85302D01*
Y85217D01*
X86522Y85725D02*
Y85217D01*
Y85386D01*
X86184Y85725D01*
X86438Y85471D01*
X86184Y85217D01*
X116256D02*
Y85979D01*
X115875D01*
X115748Y85852D01*
Y85598D01*
X115875Y85471D01*
X116256D01*
X116002D02*
X115748Y85217D01*
X115113D02*
Y85979D01*
X115494Y85598D01*
X114986D01*
X114732Y85344D02*
X114605Y85217D01*
X114351D01*
X114224Y85344D01*
Y85852D01*
X114351Y85979D01*
X114605D01*
X114732Y85852D01*
Y85725D01*
X114605Y85598D01*
X114224D01*
X119762Y85344D02*
Y85852D01*
X120016Y85598D01*
X119677D01*
X119508Y85344D02*
Y85429D01*
X119423D01*
Y85344D01*
X119508D01*
X119085Y85852D02*
X118746D01*
Y85767D01*
X119085Y85429D01*
Y85344D01*
X118577Y85852D02*
Y85344D01*
Y85513D01*
X118238Y85852D01*
X118492Y85598D01*
X118238Y85344D01*
X112077Y75692D02*
Y76454D01*
X111696D01*
X111569Y76327D01*
Y76073D01*
X111696Y75946D01*
X112077D01*
X111823D02*
X111569Y75692D01*
X111315D02*
X111062D01*
X111188D01*
Y76454D01*
X111315Y76327D01*
X110681Y75819D02*
X110554Y75692D01*
X110300D01*
X110173Y75819D01*
Y76327D01*
X110300Y76454D01*
X110554D01*
X110681Y76327D01*
Y76200D01*
X110554Y76073D01*
X110173D01*
X111761Y77470D02*
Y77978D01*
X112015Y77724D01*
X111676D01*
X111507Y77470D02*
Y77555D01*
X111422D01*
Y77470D01*
X111507D01*
X111084Y77978D02*
X110745D01*
Y77893D01*
X111084Y77555D01*
Y77470D01*
X110576Y77978D02*
Y77470D01*
Y77639D01*
X110237Y77978D01*
X110491Y77724D01*
X110237Y77470D01*
X120078Y75565D02*
Y76327D01*
X119697D01*
X119570Y76200D01*
Y75946D01*
X119697Y75819D01*
X120078D01*
X119824D02*
X119570Y75565D01*
X119316D02*
X119063D01*
X119189D01*
Y76327D01*
X119316Y76200D01*
X118682Y76327D02*
X118174D01*
Y76200D01*
X118682Y75692D01*
Y75565D01*
X119762Y77343D02*
Y77851D01*
X120016Y77597D01*
X119677D01*
X119508Y77343D02*
Y77428D01*
X119423D01*
Y77343D01*
X119508D01*
X119085Y77851D02*
X118746D01*
Y77766D01*
X119085Y77428D01*
Y77343D01*
X118577Y77851D02*
Y77343D01*
Y77512D01*
X118238Y77851D01*
X118492Y77597D01*
X118238Y77343D01*
X80073Y75692D02*
Y76454D01*
X79692D01*
X79565Y76327D01*
Y76073D01*
X79692Y75946D01*
X80073D01*
X79819D02*
X79565Y75692D01*
X79311D02*
X79058D01*
X79184D01*
Y76454D01*
X79311Y76327D01*
X78677D02*
X78550Y76454D01*
X78296D01*
X78169Y76327D01*
Y75819D01*
X78296Y75692D01*
X78550D01*
X78677Y75819D01*
Y76327D01*
X79757Y77470D02*
Y77978D01*
X80011Y77724D01*
X79672D01*
X79503Y77470D02*
Y77555D01*
X79418D01*
Y77470D01*
X79503D01*
X79080Y77978D02*
X78741D01*
Y77893D01*
X79080Y77555D01*
Y77470D01*
X78572Y77978D02*
Y77470D01*
Y77639D01*
X78233Y77978D01*
X78487Y77724D01*
X78233Y77470D01*
X116078Y82677D02*
X115951Y82804D01*
Y83058D01*
X116078Y83185D01*
X116586D01*
X116713Y83058D01*
Y82804D01*
X116586Y82677D01*
Y82423D02*
X116713Y82296D01*
Y82042D01*
X116586Y81915D01*
X116078D01*
X115951Y82042D01*
Y82296D01*
X116078Y82423D01*
X116205D01*
X116332Y82296D01*
Y81915D01*
X118153Y83574D02*
X118068Y83489D01*
Y83320D01*
X118153Y83236D01*
X118491D01*
X118576Y83320D01*
Y83489D01*
X118491Y83574D01*
X118153D01*
X118576Y83066D02*
X118491D01*
Y82982D01*
X118576D01*
Y83066D01*
Y82643D02*
Y82474D01*
Y82558D01*
X118068D01*
X118153Y82643D01*
X118322Y82220D02*
Y82051D01*
X118407Y82220D02*
Y82051D01*
X118068D02*
X118661D01*
X118068Y81543D02*
Y81881D01*
X118322D01*
Y81712D01*
Y81881D01*
X118576D01*
X88138Y82677D02*
X88011Y82804D01*
Y83058D01*
X88138Y83185D01*
X88646D01*
X88773Y83058D01*
Y82804D01*
X88646Y82677D01*
X88138Y82423D02*
X88011Y82296D01*
Y82042D01*
X88138Y81915D01*
X88265D01*
X88392Y82042D01*
X88519Y81915D01*
X88646D01*
X88773Y82042D01*
Y82296D01*
X88646Y82423D01*
X88519D01*
X88392Y82296D01*
X88265Y82423D01*
X88138D01*
X88392Y82296D02*
Y82042D01*
X86149Y83574D02*
X86064Y83489D01*
Y83320D01*
X86149Y83236D01*
X86487D01*
X86572Y83320D01*
Y83489D01*
X86487Y83574D01*
X86149D01*
X86572Y83066D02*
X86487D01*
Y82982D01*
X86572D01*
Y83066D01*
Y82643D02*
Y82474D01*
Y82558D01*
X86064D01*
X86149Y82643D01*
X86318Y82220D02*
Y82051D01*
X86403Y82220D02*
Y82051D01*
X86064D02*
X86657D01*
X86064Y81543D02*
Y81881D01*
X86318D01*
Y81712D01*
Y81881D01*
X86572D01*
X120142Y90932D02*
X120015Y91059D01*
Y91313D01*
X120142Y91440D01*
X120650D01*
X120777Y91313D01*
Y91059D01*
X120650Y90932D01*
X120777Y90297D02*
X120015D01*
X120396Y90678D01*
Y90170D01*
X120015Y89916D02*
Y89408D01*
X120142D01*
X120650Y89916D01*
X120777D01*
X118153Y91448D02*
X118068Y91363D01*
Y91194D01*
X118153Y91110D01*
X118491D01*
X118576Y91194D01*
Y91363D01*
X118491Y91448D01*
X118153D01*
X118576Y90940D02*
X118491D01*
Y90856D01*
X118576D01*
Y90940D01*
Y90517D02*
Y90348D01*
Y90432D01*
X118068D01*
X118153Y90517D01*
X118322Y90094D02*
Y89925D01*
X118407Y90094D02*
Y89925D01*
X118068D02*
X118661D01*
X118068Y89417D02*
Y89755D01*
X118322D01*
Y89586D01*
Y89755D01*
X118576D01*
X149987Y125349D02*
X149860Y125476D01*
Y125730D01*
X149987Y125857D01*
X150495D01*
X150622Y125730D01*
Y125476D01*
X150495Y125349D01*
X149860Y124587D02*
Y125095D01*
X150241D01*
X150114Y124841D01*
Y124714D01*
X150241Y124587D01*
X150495D01*
X150622Y124714D01*
Y124968D01*
X150495Y125095D01*
X147871Y126246D02*
X147786Y126161D01*
Y125992D01*
X147871Y125908D01*
X148209D01*
X148294Y125992D01*
Y126161D01*
X148209Y126246D01*
X147871D01*
X148294Y125738D02*
X148209D01*
Y125654D01*
X148294D01*
Y125738D01*
Y125315D02*
Y125146D01*
Y125230D01*
X147786D01*
X147871Y125315D01*
X148040Y124892D02*
Y124723D01*
X148125Y124892D02*
Y124723D01*
X147786D02*
X148379D01*
X147786Y124215D02*
Y124553D01*
X148040D01*
Y124384D01*
Y124553D01*
X148294D01*
X91593Y82804D02*
X91720Y82931D01*
X91973D01*
X92100Y82804D01*
Y82296D01*
X91973Y82169D01*
X91720D01*
X91593Y82296D01*
X90831Y82931D02*
X91085Y82804D01*
X91339Y82550D01*
Y82296D01*
X91212Y82169D01*
X90958D01*
X90831Y82296D01*
Y82423D01*
X90958Y82550D01*
X91339D01*
X95250Y82770D02*
X95165Y82855D01*
X94996D01*
X94911Y82770D01*
Y82431D01*
X94996Y82347D01*
X95165D01*
X95250Y82431D01*
Y82770D01*
X94742Y82347D02*
Y82431D01*
X94658D01*
Y82347D01*
X94742D01*
X94319D02*
X94150D01*
X94234D01*
Y82855D01*
X94319Y82770D01*
X93896Y82601D02*
X93726D01*
X93896Y82516D02*
X93726D01*
Y82855D02*
Y82262D01*
X93219Y82855D02*
X93557D01*
Y82601D01*
X93388D01*
X93557D01*
Y82347D01*
X104013Y82994D02*
X103886Y83121D01*
Y83375D01*
X104013Y83502D01*
X104521D01*
X104648Y83375D01*
Y83121D01*
X104521Y82994D01*
X104648Y82740D02*
Y82487D01*
Y82613D01*
X103886D01*
X104013Y82740D01*
Y82106D02*
X103886Y81979D01*
Y81725D01*
X104013Y81598D01*
X104521D01*
X104648Y81725D01*
Y81979D01*
X104521Y82106D01*
X104013D01*
X102024Y83574D02*
X101939Y83489D01*
Y83320D01*
X102024Y83236D01*
X102362D01*
X102447Y83320D01*
Y83489D01*
X102362Y83574D01*
X102024D01*
X102447Y83066D02*
X102362D01*
Y82982D01*
X102447D01*
Y83066D01*
Y82643D02*
Y82474D01*
Y82558D01*
X101939D01*
X102024Y82643D01*
X102193Y82220D02*
Y82051D01*
X102278Y82220D02*
Y82051D01*
X101939D02*
X102532D01*
X101939Y81543D02*
Y81881D01*
X102193D01*
Y81712D01*
Y81881D01*
X102447D01*
X96012Y90805D02*
X95885Y90932D01*
Y91186D01*
X96012Y91313D01*
X96520D01*
X96647Y91186D01*
Y90932D01*
X96520Y90805D01*
X96647Y90170D02*
X95885D01*
X96266Y90551D01*
Y90043D01*
X96647Y89408D02*
X95885D01*
X96266Y89789D01*
Y89281D01*
X94023Y91321D02*
X93938Y91236D01*
Y91067D01*
X94023Y90983D01*
X94361D01*
X94446Y91067D01*
Y91236D01*
X94361Y91321D01*
X94023D01*
X94446Y90813D02*
X94361D01*
Y90729D01*
X94446D01*
Y90813D01*
Y90390D02*
Y90221D01*
Y90305D01*
X93938D01*
X94023Y90390D01*
X94192Y89967D02*
Y89798D01*
X94277Y89967D02*
Y89798D01*
X93938D02*
X94531D01*
X93938Y89290D02*
Y89628D01*
X94192D01*
Y89459D01*
Y89628D01*
X94446D01*
X104013Y90805D02*
X103886Y90932D01*
Y91186D01*
X104013Y91313D01*
X104521D01*
X104648Y91186D01*
Y90932D01*
X104521Y90805D01*
X104648Y90170D02*
X103886D01*
X104267Y90551D01*
Y90043D01*
X104013Y89789D02*
X103886Y89662D01*
Y89408D01*
X104013Y89281D01*
X104140D01*
X104267Y89408D01*
X104394Y89281D01*
X104521D01*
X104648Y89408D01*
Y89662D01*
X104521Y89789D01*
X104394D01*
X104267Y89662D01*
X104140Y89789D01*
X104013D01*
X104267Y89662D02*
Y89408D01*
X102024Y91321D02*
X101939Y91236D01*
Y91067D01*
X102024Y90983D01*
X102362D01*
X102447Y91067D01*
Y91236D01*
X102362Y91321D01*
X102024D01*
X102447Y90813D02*
X102362D01*
Y90729D01*
X102447D01*
Y90813D01*
Y90390D02*
Y90221D01*
Y90305D01*
X101939D01*
X102024Y90390D01*
X102193Y89967D02*
Y89798D01*
X102278Y89967D02*
Y89798D01*
X101939D02*
X102532D01*
X101939Y89290D02*
Y89628D01*
X102193D01*
Y89459D01*
Y89628D01*
X102447D01*
X80137Y82677D02*
X80010Y82804D01*
Y83058D01*
X80137Y83185D01*
X80645D01*
X80772Y83058D01*
Y82804D01*
X80645Y82677D01*
X80010Y82423D02*
Y81915D01*
X80137D01*
X80645Y82423D01*
X80772D01*
X78148Y83574D02*
X78063Y83489D01*
Y83320D01*
X78148Y83236D01*
X78486D01*
X78571Y83320D01*
Y83489D01*
X78486Y83574D01*
X78148D01*
X78571Y83066D02*
X78486D01*
Y82982D01*
X78571D01*
Y83066D01*
Y82643D02*
Y82474D01*
Y82558D01*
X78063D01*
X78148Y82643D01*
X78317Y82220D02*
Y82051D01*
X78402Y82220D02*
Y82051D01*
X78063D02*
X78656D01*
X78063Y81543D02*
Y81881D01*
X78317D01*
Y81712D01*
Y81881D01*
X78571D01*
X80137Y90805D02*
X80010Y90932D01*
Y91186D01*
X80137Y91313D01*
X80645D01*
X80772Y91186D01*
Y90932D01*
X80645Y90805D01*
X80772Y90170D02*
X80010D01*
X80391Y90551D01*
Y90043D01*
X80010Y89281D02*
Y89789D01*
X80391D01*
X80264Y89535D01*
Y89408D01*
X80391Y89281D01*
X80645D01*
X80772Y89408D01*
Y89662D01*
X80645Y89789D01*
X78148Y91321D02*
X78063Y91236D01*
Y91067D01*
X78148Y90983D01*
X78486D01*
X78571Y91067D01*
Y91236D01*
X78486Y91321D01*
X78148D01*
X78571Y90813D02*
X78486D01*
Y90729D01*
X78571D01*
Y90813D01*
Y90390D02*
Y90221D01*
Y90305D01*
X78063D01*
X78148Y90390D01*
X78317Y89967D02*
Y89798D01*
X78402Y89967D02*
Y89798D01*
X78063D02*
X78656D01*
X78063Y89290D02*
Y89628D01*
X78317D01*
Y89459D01*
Y89628D01*
X78571D01*
X112268Y82994D02*
X112141Y83121D01*
Y83375D01*
X112268Y83502D01*
X112776D01*
X112903Y83375D01*
Y83121D01*
X112776Y82994D01*
X112903Y82740D02*
Y82487D01*
Y82613D01*
X112141D01*
X112268Y82740D01*
X112776Y82106D02*
X112903Y81979D01*
Y81725D01*
X112776Y81598D01*
X112268D01*
X112141Y81725D01*
Y81979D01*
X112268Y82106D01*
X112395D01*
X112522Y81979D01*
Y81598D01*
X110152Y83574D02*
X110067Y83489D01*
Y83320D01*
X110152Y83236D01*
X110490D01*
X110575Y83320D01*
Y83489D01*
X110490Y83574D01*
X110152D01*
X110575Y83066D02*
X110490D01*
Y82982D01*
X110575D01*
Y83066D01*
Y82643D02*
Y82474D01*
Y82558D01*
X110067D01*
X110152Y82643D01*
X110321Y82220D02*
Y82051D01*
X110406Y82220D02*
Y82051D01*
X110067D02*
X110660D01*
X110067Y81543D02*
Y81881D01*
X110321D01*
Y81712D01*
Y81881D01*
X110575D01*
X112141Y90805D02*
X112014Y90932D01*
Y91186D01*
X112141Y91313D01*
X112649D01*
X112776Y91186D01*
Y90932D01*
X112649Y90805D01*
X112776Y90170D02*
X112014D01*
X112395Y90551D01*
Y90043D01*
X112649Y89789D02*
X112776Y89662D01*
Y89408D01*
X112649Y89281D01*
X112141D01*
X112014Y89408D01*
Y89662D01*
X112141Y89789D01*
X112268D01*
X112395Y89662D01*
Y89281D01*
X110152Y91321D02*
X110067Y91236D01*
Y91067D01*
X110152Y90983D01*
X110490D01*
X110575Y91067D01*
Y91236D01*
X110490Y91321D01*
X110152D01*
X110575Y90813D02*
X110490D01*
Y90729D01*
X110575D01*
Y90813D01*
Y90390D02*
Y90221D01*
Y90305D01*
X110067D01*
X110152Y90390D01*
X110321Y89967D02*
Y89798D01*
X110406Y89967D02*
Y89798D01*
X110067D02*
X110660D01*
X110067Y89290D02*
Y89628D01*
X110321D01*
Y89459D01*
Y89628D01*
X110575D01*
X106172Y56896D02*
X106045Y57023D01*
Y57277D01*
X106172Y57404D01*
X106680D01*
X106807Y57277D01*
Y57023D01*
X106680Y56896D01*
X106807Y56261D02*
X106045D01*
X106426Y56642D01*
Y56134D01*
X106172Y55880D02*
X106045Y55753D01*
Y55499D01*
X106172Y55372D01*
X106299D01*
X106426Y55499D01*
Y55626D01*
Y55499D01*
X106553Y55372D01*
X106680D01*
X106807Y55499D01*
Y55753D01*
X106680Y55880D01*
X108374Y57412D02*
X108289Y57327D01*
Y57158D01*
X108374Y57074D01*
X108712D01*
X108797Y57158D01*
Y57327D01*
X108712Y57412D01*
X108374D01*
X108797Y56904D02*
X108712D01*
Y56820D01*
X108797D01*
Y56904D01*
Y56481D02*
Y56312D01*
Y56396D01*
X108289D01*
X108374Y56481D01*
X108543Y56058D02*
Y55889D01*
X108628Y56058D02*
Y55889D01*
X108289D02*
X108882D01*
X108289Y55381D02*
Y55719D01*
X108543D01*
Y55550D01*
Y55719D01*
X108797D01*
X88138Y90805D02*
X88011Y90932D01*
Y91186D01*
X88138Y91313D01*
X88646D01*
X88773Y91186D01*
Y90932D01*
X88646Y90805D01*
X88773Y90170D02*
X88011D01*
X88392Y90551D01*
Y90043D01*
X88011Y89281D02*
X88138Y89535D01*
X88392Y89789D01*
X88646D01*
X88773Y89662D01*
Y89408D01*
X88646Y89281D01*
X88519D01*
X88392Y89408D01*
Y89789D01*
X86149Y91321D02*
X86064Y91236D01*
Y91067D01*
X86149Y90983D01*
X86487D01*
X86572Y91067D01*
Y91236D01*
X86487Y91321D01*
X86149D01*
X86572Y90813D02*
X86487D01*
Y90729D01*
X86572D01*
Y90813D01*
Y90390D02*
Y90221D01*
Y90305D01*
X86064D01*
X86149Y90390D01*
X86318Y89967D02*
Y89798D01*
X86403Y89967D02*
Y89798D01*
X86064D02*
X86657D01*
X86064Y89290D02*
Y89628D01*
X86318D01*
Y89459D01*
Y89628D01*
X86572D01*
X156693Y121285D02*
Y120650D01*
X156566Y120523D01*
X156312D01*
X156185Y120650D01*
Y121285D01*
X155931Y120523D02*
X155677D01*
X155804D01*
Y121285D01*
X155931Y121158D01*
X155296D02*
X155169Y121285D01*
X154915D01*
X154788Y121158D01*
Y120650D01*
X154915Y120523D01*
X155169D01*
X155296Y120650D01*
Y121158D01*
X156693Y118364D02*
Y117729D01*
X156566Y117602D01*
X156312D01*
X156185Y117729D01*
Y118364D01*
X155931Y117602D02*
X155677D01*
X155804D01*
Y118364D01*
X155931Y118237D01*
X155296Y117602D02*
X155042D01*
X155169D01*
Y118364D01*
X155296Y118237D01*
X156769Y124231D02*
Y123596D01*
X156642Y123469D01*
X156388D01*
X156261Y123596D01*
Y124231D01*
X156007Y123469D02*
X155753D01*
X155880D01*
Y124231D01*
X156007Y124104D01*
X155372D02*
X155245Y124231D01*
X154991D01*
X154864Y124104D01*
Y123977D01*
X154991Y123850D01*
X155118D01*
X154991D01*
X154864Y123723D01*
Y123596D01*
X154991Y123469D01*
X155245D01*
X155372Y123596D01*
X156693Y115443D02*
Y114808D01*
X156566Y114681D01*
X156312D01*
X156185Y114808D01*
Y115443D01*
X155931Y114808D02*
X155804Y114681D01*
X155550D01*
X155423Y114808D01*
Y115316D01*
X155550Y115443D01*
X155804D01*
X155931Y115316D01*
Y115189D01*
X155804Y115062D01*
X155423D01*
X52070Y96139D02*
X52197Y96266D01*
X52451D01*
X52578Y96139D01*
Y95631D01*
X52451Y95504D01*
X52197D01*
X52070Y95631D01*
X51816Y96139D02*
X51689Y96266D01*
X51435D01*
X51308Y96139D01*
Y96012D01*
X51435Y95885D01*
X51562D01*
X51435D01*
X51308Y95758D01*
Y95631D01*
X51435Y95504D01*
X51689D01*
X51816Y95631D01*
X51054Y96139D02*
X50927Y96266D01*
X50673D01*
X50546Y96139D01*
Y96012D01*
X50673Y95885D01*
X50546Y95758D01*
Y95631D01*
X50673Y95504D01*
X50927D01*
X51054Y95631D01*
Y95758D01*
X50927Y95885D01*
X51054Y96012D01*
Y96139D01*
X50927Y95885D02*
X50673D01*
X52578Y93946D02*
X52493Y94031D01*
X52324D01*
X52239Y93946D01*
Y93607D01*
X52324Y93523D01*
X52493D01*
X52578Y93607D01*
Y93946D01*
X52070Y93523D02*
Y93607D01*
X51986D01*
Y93523D01*
X52070D01*
X51647D02*
X51478D01*
X51562D01*
Y94031D01*
X51647Y93946D01*
X51224Y93777D02*
X51054D01*
X51224Y93692D02*
X51054D01*
Y94031D02*
Y93438D01*
X50547Y94031D02*
X50885D01*
Y93777D01*
X50716D01*
X50885D01*
Y93523D01*
X52070Y108077D02*
X52197Y108204D01*
X52451D01*
X52578Y108077D01*
Y107569D01*
X52451Y107442D01*
X52197D01*
X52070Y107569D01*
X51816Y108077D02*
X51689Y108204D01*
X51435D01*
X51308Y108077D01*
Y107950D01*
X51435Y107823D01*
X51562D01*
X51435D01*
X51308Y107696D01*
Y107569D01*
X51435Y107442D01*
X51689D01*
X51816Y107569D01*
X51054Y108204D02*
X50546D01*
Y108077D01*
X51054Y107569D01*
Y107442D01*
X52578Y105884D02*
X52493Y105969D01*
X52324D01*
X52239Y105884D01*
Y105545D01*
X52324Y105461D01*
X52493D01*
X52578Y105545D01*
Y105884D01*
X52070Y105461D02*
Y105545D01*
X51986D01*
Y105461D01*
X52070D01*
X51647D02*
X51478D01*
X51562D01*
Y105969D01*
X51647Y105884D01*
X51224Y105715D02*
X51054D01*
X51224Y105630D02*
X51054D01*
Y105969D02*
Y105376D01*
X50547Y105969D02*
X50885D01*
Y105715D01*
X50716D01*
X50885D01*
Y105461D01*
X108077Y69850D02*
X108204Y69977D01*
X108458D01*
X108585Y69850D01*
Y69342D01*
X108458Y69215D01*
X108204D01*
X108077Y69342D01*
X107315Y69215D02*
X107823D01*
X107315Y69723D01*
Y69850D01*
X107442Y69977D01*
X107696D01*
X107823Y69850D01*
X107061D02*
X106934Y69977D01*
X106680D01*
X106553Y69850D01*
Y69723D01*
X106680Y69596D01*
X106807D01*
X106680D01*
X106553Y69469D01*
Y69342D01*
X106680Y69215D01*
X106934D01*
X107061Y69342D01*
X108585Y71975D02*
X108500Y72060D01*
X108331D01*
X108246Y71975D01*
Y71636D01*
X108331Y71552D01*
X108500D01*
X108585Y71636D01*
Y71975D01*
X108077Y71552D02*
Y71636D01*
X107993D01*
Y71552D01*
X108077D01*
X107654D02*
X107485D01*
X107569D01*
Y72060D01*
X107654Y71975D01*
X107231Y71806D02*
X107061D01*
X107231Y71721D02*
X107061D01*
Y72060D02*
Y71467D01*
X106554Y72060D02*
X106892D01*
Y71806D01*
X106723D01*
X106892D01*
Y71552D01*
X145859Y125095D02*
Y124460D01*
X145732Y124333D01*
X145478D01*
X145351Y124460D01*
Y125095D01*
X145097Y124333D02*
X144844D01*
X144970D01*
Y125095D01*
X145097Y124968D01*
X143955Y124333D02*
X144463D01*
X143955Y124841D01*
Y124968D01*
X144082Y125095D01*
X144336D01*
X144463Y124968D01*
X149013Y116374D02*
X149098Y116459D01*
X149267D01*
X149352Y116374D01*
Y116036D01*
X149267Y115951D01*
X149098D01*
X149013Y116036D01*
X148506Y116459D02*
X148675D01*
X148590D01*
Y116036D01*
X148675Y115951D01*
X148760D01*
X148844Y116036D01*
X148336Y115951D02*
X148167D01*
X148252D01*
Y116459D01*
X148336Y116374D01*
X147575Y115951D02*
X147913D01*
X147575Y116290D01*
Y116374D01*
X147659Y116459D01*
X147828D01*
X147913Y116374D01*
X147067Y116459D02*
X147405D01*
Y116205D01*
X147236Y116290D01*
X147151D01*
X147067Y116205D01*
Y116036D01*
X147151Y115951D01*
X147321D01*
X147405Y116036D01*
X90043Y66294D02*
X90170Y66421D01*
X90424D01*
X90551Y66294D01*
Y65786D01*
X90424Y65659D01*
X90170D01*
X90043Y65786D01*
X89789Y65659D02*
X89535D01*
X89662D01*
Y66421D01*
X89789Y66294D01*
X89154Y66421D02*
X88647D01*
Y66294D01*
X89154Y65786D01*
Y65659D01*
X92964Y66260D02*
X92879Y66345D01*
X92710D01*
X92625Y66260D01*
Y65921D01*
X92710Y65837D01*
X92879D01*
X92964Y65921D01*
Y66260D01*
X92456Y65837D02*
Y65921D01*
X92372D01*
Y65837D01*
X92456D01*
X92033D02*
X91864D01*
X91948D01*
Y66345D01*
X92033Y66260D01*
X91610Y66091D02*
X91440D01*
X91610Y66006D02*
X91440D01*
Y66345D02*
Y65752D01*
X90933Y66345D02*
X91271D01*
Y66091D01*
X91102D01*
X91271D01*
Y65837D01*
X164211Y121094D02*
X164084Y121221D01*
Y121475D01*
X164211Y121602D01*
X164719D01*
X164846Y121475D01*
Y121221D01*
X164719Y121094D01*
X164846Y120840D02*
Y120587D01*
Y120713D01*
X164084D01*
X164211Y120840D01*
Y120206D02*
X164084Y120079D01*
Y119825D01*
X164211Y119698D01*
X164338D01*
X164465Y119825D01*
X164592Y119698D01*
X164719D01*
X164846Y119825D01*
Y120079D01*
X164719Y120206D01*
X164592D01*
X164465Y120079D01*
X164338Y120206D01*
X164211D01*
X164465Y120079D02*
Y119825D01*
X163703Y120870D02*
X163618Y120955D01*
X163449D01*
X163364Y120870D01*
Y120531D01*
X163449Y120447D01*
X163618D01*
X163703Y120531D01*
Y120870D01*
X163195Y120447D02*
Y120531D01*
X163111D01*
Y120447D01*
X163195D01*
X162772D02*
X162603D01*
X162687D01*
Y120955D01*
X162772Y120870D01*
X162349Y120701D02*
X162179D01*
X162349Y120616D02*
X162179D01*
Y120955D02*
Y120362D01*
X161672Y120955D02*
X162010D01*
Y120701D01*
X161841D01*
X162010D01*
Y120447D01*
X163195Y116459D02*
X163322Y116586D01*
X163576D01*
X163703Y116459D01*
Y115951D01*
X163576Y115824D01*
X163322D01*
X163195Y115951D01*
X162941Y116459D02*
X162814Y116586D01*
X162560D01*
X162433Y116459D01*
Y116332D01*
X162560Y116205D01*
X162687D01*
X162560D01*
X162433Y116078D01*
Y115951D01*
X162560Y115824D01*
X162814D01*
X162941Y115951D01*
X162179Y116459D02*
X162052Y116586D01*
X161798D01*
X161671Y116459D01*
Y116332D01*
X161798Y116205D01*
X161925D01*
X161798D01*
X161671Y116078D01*
Y115951D01*
X161798Y115824D01*
X162052D01*
X162179Y115951D01*
X163703Y114266D02*
X163618Y114351D01*
X163449D01*
X163364Y114266D01*
Y113927D01*
X163449Y113843D01*
X163618D01*
X163703Y113927D01*
Y114266D01*
X163195Y113843D02*
Y113927D01*
X163111D01*
Y113843D01*
X163195D01*
X162772D02*
X162603D01*
X162687D01*
Y114351D01*
X162772Y114266D01*
X162349Y114097D02*
X162179D01*
X162349Y114012D02*
X162179D01*
Y114351D02*
Y113758D01*
X161672Y114351D02*
X162010D01*
Y114097D01*
X161841D01*
X162010D01*
Y113843D01*
X164211Y124460D02*
X164084Y124587D01*
Y124841D01*
X164211Y124968D01*
X164719D01*
X164846Y124841D01*
Y124587D01*
X164719Y124460D01*
X164846Y123698D02*
Y124206D01*
X164338Y123698D01*
X164211D01*
X164084Y123825D01*
Y124079D01*
X164211Y124206D01*
X164084Y123444D02*
Y122936D01*
X164211D01*
X164719Y123444D01*
X164846D01*
X163703Y124172D02*
X163618Y124257D01*
X163449D01*
X163364Y124172D01*
Y123833D01*
X163449Y123749D01*
X163618D01*
X163703Y123833D01*
Y124172D01*
X163195Y123749D02*
Y123833D01*
X163111D01*
Y123749D01*
X163195D01*
X162772D02*
X162603D01*
X162687D01*
Y124257D01*
X162772Y124172D01*
X162349Y124003D02*
X162179D01*
X162349Y123918D02*
X162179D01*
Y124257D02*
Y123664D01*
X161672Y124257D02*
X162010D01*
Y124003D01*
X161841D01*
X162010D01*
Y123749D01*
X106528Y46609D02*
Y46863D01*
Y46736D01*
X107163D01*
X107290Y46863D01*
Y46990D01*
X107163Y47117D01*
X107290Y45974D02*
X106528D01*
X106909Y46355D01*
Y45847D01*
X115722Y48565D02*
X115215D01*
X115468Y48819D01*
Y48480D01*
X115215Y48311D02*
Y47972D01*
X115299D01*
X115638Y48311D01*
X115722D01*
X115299Y47803D02*
X115215Y47718D01*
Y47549D01*
X115299Y47465D01*
X115384D01*
X115468Y47549D01*
Y47634D01*
Y47549D01*
X115553Y47465D01*
X115638D01*
X115722Y47549D01*
Y47718D01*
X115638Y47803D01*
X115215Y46957D02*
Y47295D01*
X115468D01*
X115384Y47126D01*
Y47041D01*
X115468Y46957D01*
X115638D01*
X115722Y47041D01*
Y47211D01*
X115638Y47295D01*
X115722Y46449D02*
Y46787D01*
X115384Y46449D01*
X115299D01*
X115215Y46534D01*
Y46703D01*
X115299Y46787D01*
X115468Y46280D02*
Y45941D01*
X115722Y45772D02*
Y45603D01*
Y45687D01*
X115215D01*
X115299Y45772D01*
Y45349D02*
X115215Y45264D01*
Y45095D01*
X115299Y45010D01*
X115638D01*
X115722Y45095D01*
Y45264D01*
X115638Y45349D01*
X115299D01*
Y44841D02*
X115215Y44756D01*
Y44587D01*
X115299Y44502D01*
X115638D01*
X115722Y44587D01*
Y44756D01*
X115638Y44841D01*
X115299D01*
X115722Y44333D02*
Y44164D01*
Y44248D01*
X115215D01*
X115299Y44333D01*
D15*
X162611Y40615D02*
G03*
X162611Y41377I0J381D01*
G01*
D02*
G03*
X162611Y40615I0J-381D01*
G01*
M02*
