G04*
G04 #@! TF.GenerationSoftware,Altium Limited,Altium Designer,22.2.1 (43)*
G04*
G04 Layer_Physical_Order=3*
G04 Layer_Color=16440176*
%FSLAX43Y43*%
%MOMM*%
G71*
G04*
G04 #@! TF.SameCoordinates,D3EB6253-BFD4-4380-A103-C90408D97D60*
G04*
G04*
G04 #@! TF.FilePolarity,Positive*
G04*
G01*
G75*
%ADD15C,0.508*%
%ADD17C,0.254*%
%ADD128O,4.191X2.096*%
%ADD129C,1.770*%
%ADD131C,1.140*%
%ADD135C,1.499*%
%ADD138C,1.100*%
%ADD140C,1.950*%
%ADD141C,2.055*%
%ADD143C,1.560*%
%ADD145C,1.803*%
%ADD149C,1.428*%
%ADD151C,0.500*%
%ADD152C,6.000*%
%ADD153C,0.800*%
%ADD154C,0.600*%
G36*
X179257Y25019D02*
X24257D01*
Y127019D01*
X179257D01*
Y25019D01*
D02*
G37*
%LPC*%
G36*
X98933Y124619D02*
Y124206D01*
X99346D01*
X99328Y124295D01*
X99205Y124478D01*
X99022Y124601D01*
X98933Y124619D01*
D02*
G37*
G36*
X98679D02*
X98590Y124601D01*
X98407Y124478D01*
X98284Y124295D01*
X98266Y124206D01*
X98679D01*
Y124619D01*
D02*
G37*
G36*
X99346Y123952D02*
X98933D01*
Y123539D01*
X99022Y123557D01*
X99205Y123680D01*
X99328Y123863D01*
X99346Y123952D01*
D02*
G37*
G36*
X98679D02*
X98266D01*
X98284Y123863D01*
X98407Y123680D01*
X98590Y123557D01*
X98679Y123539D01*
Y123952D01*
D02*
G37*
G36*
X110617Y123730D02*
Y123317D01*
X111030D01*
X111012Y123406D01*
X110889Y123589D01*
X110706Y123712D01*
X110617Y123730D01*
D02*
G37*
G36*
X110363D02*
X110274Y123712D01*
X110091Y123589D01*
X109968Y123406D01*
X109950Y123317D01*
X110363D01*
Y123730D01*
D02*
G37*
G36*
X161671Y123425D02*
Y123063D01*
X162033D01*
X162019Y123133D01*
X161907Y123299D01*
X161741Y123411D01*
X161671Y123425D01*
D02*
G37*
G36*
X161417D02*
X161347Y123411D01*
X161181Y123299D01*
X161069Y123133D01*
X161055Y123063D01*
X161417D01*
Y123425D01*
D02*
G37*
G36*
X111030Y123063D02*
X110617D01*
Y122650D01*
X110706Y122668D01*
X110889Y122791D01*
X111012Y122974D01*
X111030Y123063D01*
D02*
G37*
G36*
X110363D02*
X109950D01*
X109968Y122974D01*
X110091Y122791D01*
X110274Y122668D01*
X110363Y122650D01*
Y123063D01*
D02*
G37*
G36*
X162033Y122809D02*
X161671D01*
Y122447D01*
X161741Y122461D01*
X161907Y122573D01*
X162019Y122739D01*
X162033Y122809D01*
D02*
G37*
G36*
X161417D02*
X161055D01*
X161069Y122739D01*
X161181Y122573D01*
X161347Y122461D01*
X161417Y122447D01*
Y122809D01*
D02*
G37*
G36*
X152019Y123704D02*
X151822Y123665D01*
X151656Y123553D01*
X151544Y123387D01*
X151505Y123190D01*
X151544Y122993D01*
X151656Y122827D01*
X151822Y122715D01*
X152019Y122676D01*
X152216Y122715D01*
X152345Y122802D01*
X153001D01*
X153367Y122435D01*
X153315Y122308D01*
X152345D01*
X152216Y122395D01*
X152019Y122434D01*
X151822Y122395D01*
X151656Y122283D01*
X151544Y122117D01*
X151505Y121920D01*
X151544Y121723D01*
X151656Y121557D01*
X151822Y121445D01*
X152019Y121406D01*
X152216Y121445D01*
X152345Y121532D01*
X153255D01*
X153621Y121165D01*
X153569Y121038D01*
X152345D01*
X152216Y121125D01*
X152019Y121164D01*
X151822Y121125D01*
X151656Y121013D01*
X151544Y120847D01*
X151505Y120650D01*
X151544Y120453D01*
X151656Y120287D01*
X151822Y120175D01*
X152019Y120136D01*
X152216Y120175D01*
X152345Y120262D01*
X153509D01*
X154538Y119232D01*
X154664Y119148D01*
X154813Y119119D01*
X156049D01*
X156584Y118584D01*
Y118026D01*
X156538Y117987D01*
X156374Y118011D01*
X156319Y118092D01*
X156153Y118204D01*
X155956Y118243D01*
X155759Y118204D01*
X155593Y118092D01*
X155481Y117926D01*
X155442Y117729D01*
X155481Y117532D01*
X155593Y117366D01*
X155759Y117254D01*
X155956Y117215D01*
X156153Y117254D01*
X156319Y117366D01*
X156363Y117431D01*
X156497Y117405D01*
X156609Y117239D01*
X156775Y117127D01*
X156972Y117088D01*
X157169Y117127D01*
X157335Y117239D01*
X157447Y117405D01*
X157486Y117602D01*
X157447Y117799D01*
X157360Y117928D01*
Y118745D01*
X157331Y118894D01*
X157247Y119020D01*
X156555Y119712D01*
X156593Y119848D01*
X156665Y119868D01*
X156775Y119794D01*
X156972Y119755D01*
X157169Y119794D01*
X157335Y119906D01*
X157447Y120072D01*
X157486Y120269D01*
X157447Y120466D01*
X157335Y120632D01*
X157169Y120744D01*
X156972Y120783D01*
X156775Y120744D01*
X156677Y120678D01*
X156654Y120685D01*
X156649Y120699D01*
X156645Y120821D01*
X156739Y120883D01*
X157247Y121391D01*
X157331Y121517D01*
X157360Y121666D01*
Y122483D01*
X157447Y122612D01*
X157486Y122809D01*
X157447Y123006D01*
X157335Y123172D01*
X157169Y123284D01*
X156972Y123323D01*
X156775Y123284D01*
X156609Y123172D01*
X156497Y123006D01*
X156458Y122809D01*
X156497Y122612D01*
X156584Y122483D01*
Y121827D01*
X156303Y121546D01*
X155355D01*
X153437Y123465D01*
X153311Y123549D01*
X153162Y123578D01*
X152345D01*
X152216Y123665D01*
X152019Y123704D01*
D02*
G37*
G36*
X53655Y123270D02*
Y122174D01*
X54751D01*
X54725Y122368D01*
X54602Y122667D01*
X54405Y122924D01*
X54148Y123121D01*
X53849Y123244D01*
X53655Y123270D01*
D02*
G37*
G36*
X53401D02*
X53207Y123244D01*
X52908Y123121D01*
X52651Y122924D01*
X52454Y122667D01*
X52331Y122368D01*
X52305Y122174D01*
X53401D01*
Y123270D01*
D02*
G37*
G36*
X145415Y122434D02*
X145218Y122395D01*
X145052Y122283D01*
X144940Y122117D01*
X144901Y121920D01*
X144940Y121723D01*
X145052Y121557D01*
X145218Y121445D01*
X145415Y121406D01*
X145612Y121445D01*
X145778Y121557D01*
X145890Y121723D01*
X145929Y121920D01*
X145890Y122117D01*
X145778Y122283D01*
X145612Y122395D01*
X145415Y122434D01*
D02*
G37*
G36*
X173609Y124412D02*
Y121285D01*
X176736D01*
X176706Y121669D01*
X176586Y122167D01*
X176390Y122640D01*
X176123Y123077D01*
X175790Y123466D01*
X175401Y123799D01*
X174964Y124066D01*
X174491Y124262D01*
X173993Y124382D01*
X173609Y124412D01*
D02*
G37*
G36*
X173355D02*
X172971Y124382D01*
X172473Y124262D01*
X172000Y124066D01*
X171563Y123799D01*
X171174Y123466D01*
X170841Y123077D01*
X170574Y122640D01*
X170378Y122167D01*
X170258Y121669D01*
X170228Y121285D01*
X173355D01*
Y124412D01*
D02*
G37*
G36*
X42418D02*
Y121285D01*
X45545D01*
X45515Y121669D01*
X45395Y122167D01*
X45199Y122640D01*
X44932Y123077D01*
X44599Y123466D01*
X44210Y123799D01*
X43773Y124066D01*
X43300Y124262D01*
X42802Y124382D01*
X42418Y124412D01*
D02*
G37*
G36*
X42164D02*
X41780Y124382D01*
X41282Y124262D01*
X40809Y124066D01*
X40372Y123799D01*
X39983Y123466D01*
X39650Y123077D01*
X39383Y122640D01*
X39187Y122167D01*
X39067Y121669D01*
X39037Y121285D01*
X42164D01*
Y124412D01*
D02*
G37*
G36*
X54751Y121920D02*
X53655D01*
Y120824D01*
X53849Y120850D01*
X54148Y120973D01*
X54405Y121170D01*
X54602Y121427D01*
X54725Y121726D01*
X54751Y121920D01*
D02*
G37*
G36*
X53401D02*
X52305D01*
X52331Y121726D01*
X52454Y121427D01*
X52651Y121170D01*
X52908Y120973D01*
X53207Y120850D01*
X53401Y120824D01*
Y121920D01*
D02*
G37*
G36*
X64287Y123276D02*
X61829D01*
Y120818D01*
X64287D01*
Y123276D01*
D02*
G37*
G36*
X145415Y121164D02*
X145218Y121125D01*
X145052Y121013D01*
X144940Y120847D01*
X144901Y120650D01*
X144940Y120453D01*
X145052Y120287D01*
X145218Y120175D01*
X145415Y120136D01*
X145612Y120175D01*
X145778Y120287D01*
X145890Y120453D01*
X145929Y120650D01*
X145890Y120847D01*
X145778Y121013D01*
X145612Y121125D01*
X145415Y121164D01*
D02*
G37*
G36*
X161671Y120250D02*
Y119888D01*
X162033D01*
X162019Y119958D01*
X161907Y120124D01*
X161741Y120236D01*
X161671Y120250D01*
D02*
G37*
G36*
X161417D02*
X161347Y120236D01*
X161181Y120124D01*
X161069Y119958D01*
X161055Y119888D01*
X161417D01*
Y120250D01*
D02*
G37*
G36*
X166370Y120123D02*
Y119761D01*
X166732D01*
X166718Y119831D01*
X166606Y119997D01*
X166440Y120109D01*
X166370Y120123D01*
D02*
G37*
G36*
X166116D02*
X166046Y120109D01*
X165880Y119997D01*
X165768Y119831D01*
X165754Y119761D01*
X166116D01*
Y120123D01*
D02*
G37*
G36*
X162033Y119634D02*
X161671D01*
Y119272D01*
X161741Y119286D01*
X161907Y119398D01*
X162019Y119564D01*
X162033Y119634D01*
D02*
G37*
G36*
X161417D02*
X161055D01*
X161069Y119564D01*
X161181Y119398D01*
X161347Y119286D01*
X161417Y119272D01*
Y119634D01*
D02*
G37*
G36*
X166732Y119507D02*
X166370D01*
Y119145D01*
X166440Y119159D01*
X166606Y119271D01*
X166718Y119437D01*
X166732Y119507D01*
D02*
G37*
G36*
X166116D02*
X165754D01*
X165768Y119437D01*
X165880Y119271D01*
X166046Y119159D01*
X166116Y119145D01*
Y119507D01*
D02*
G37*
G36*
X176736Y121031D02*
X173609D01*
Y117904D01*
X173993Y117934D01*
X174491Y118054D01*
X174964Y118250D01*
X175401Y118517D01*
X175790Y118850D01*
X176123Y119239D01*
X176390Y119676D01*
X176586Y120149D01*
X176706Y120647D01*
X176736Y121031D01*
D02*
G37*
G36*
X173355D02*
X170228D01*
X170258Y120647D01*
X170378Y120149D01*
X170574Y119676D01*
X170841Y119239D01*
X171174Y118850D01*
X171563Y118517D01*
X172000Y118250D01*
X172473Y118054D01*
X172971Y117934D01*
X173355Y117904D01*
Y121031D01*
D02*
G37*
G36*
X45545D02*
X42418D01*
Y117904D01*
X42802Y117934D01*
X43300Y118054D01*
X43773Y118250D01*
X44210Y118517D01*
X44599Y118850D01*
X44932Y119239D01*
X45199Y119676D01*
X45395Y120149D01*
X45515Y120647D01*
X45545Y121031D01*
D02*
G37*
G36*
X42164D02*
X39037D01*
X39067Y120647D01*
X39187Y120149D01*
X39383Y119676D01*
X39650Y119239D01*
X39983Y118850D01*
X40372Y118517D01*
X40809Y118250D01*
X41282Y118054D01*
X41780Y117934D01*
X42164Y117904D01*
Y121031D01*
D02*
G37*
G36*
X167894Y116567D02*
Y116205D01*
X168256D01*
X168242Y116275D01*
X168130Y116441D01*
X167964Y116553D01*
X167894Y116567D01*
D02*
G37*
G36*
X167640D02*
X167570Y116553D01*
X167404Y116441D01*
X167292Y116275D01*
X167278Y116205D01*
X167640D01*
Y116567D01*
D02*
G37*
G36*
X168256Y115951D02*
X167894D01*
Y115589D01*
X167964Y115603D01*
X168130Y115715D01*
X168242Y115881D01*
X168256Y115951D01*
D02*
G37*
G36*
X167640D02*
X167278D01*
X167292Y115881D01*
X167404Y115715D01*
X167570Y115603D01*
X167640Y115589D01*
Y115951D01*
D02*
G37*
G36*
X31877Y123203D02*
X31542Y123159D01*
X31231Y123029D01*
X30963Y122824D01*
X30758Y122556D01*
X30628Y122245D01*
X30584Y121910D01*
X30628Y121575D01*
X30758Y121264D01*
X30963Y120996D01*
X31231Y120791D01*
X31422Y120711D01*
Y120574D01*
X31231Y120494D01*
X30963Y120289D01*
X30758Y120021D01*
X30628Y119710D01*
X30584Y119375D01*
X30628Y119040D01*
X30758Y118729D01*
X30963Y118461D01*
X31231Y118256D01*
X31248Y118248D01*
X31223Y118121D01*
X30596D01*
Y115559D01*
X33159D01*
Y118121D01*
X32531D01*
X32506Y118248D01*
X32523Y118256D01*
X32791Y118461D01*
X32996Y118729D01*
X33126Y119040D01*
X33170Y119375D01*
X33126Y119710D01*
X32996Y120021D01*
X32791Y120289D01*
X32523Y120494D01*
X32332Y120574D01*
Y120711D01*
X32523Y120791D01*
X32791Y120996D01*
X32996Y121264D01*
X33126Y121575D01*
X33170Y121910D01*
X33126Y122245D01*
X32996Y122556D01*
X32791Y122824D01*
X32523Y123029D01*
X32212Y123159D01*
X31877Y123203D01*
D02*
G37*
G36*
X118745Y117091D02*
X118483Y117056D01*
X118239Y116955D01*
X118029Y116794D01*
X117868Y116584D01*
X117767Y116340D01*
X117732Y116078D01*
X117767Y115816D01*
X117868Y115572D01*
X118029Y115362D01*
X118239Y115201D01*
X118483Y115100D01*
X118745Y115065D01*
X119007Y115100D01*
X119251Y115201D01*
X119461Y115362D01*
X119622Y115572D01*
X119723Y115816D01*
X119758Y116078D01*
X119723Y116340D01*
X119622Y116584D01*
X119461Y116794D01*
X119251Y116955D01*
X119007Y117056D01*
X118745Y117091D01*
D02*
G37*
G36*
X58928Y114586D02*
Y114173D01*
X59341D01*
X59323Y114262D01*
X59200Y114445D01*
X59017Y114568D01*
X58928Y114586D01*
D02*
G37*
G36*
X58674D02*
X58585Y114568D01*
X58402Y114445D01*
X58279Y114262D01*
X58261Y114173D01*
X58674D01*
Y114586D01*
D02*
G37*
G36*
X174752Y114281D02*
Y113919D01*
X175114D01*
X175100Y113989D01*
X174988Y114155D01*
X174822Y114267D01*
X174752Y114281D01*
D02*
G37*
G36*
X174498D02*
X174428Y114267D01*
X174262Y114155D01*
X174150Y113989D01*
X174136Y113919D01*
X174498D01*
Y114281D01*
D02*
G37*
G36*
X59341Y113919D02*
X58928D01*
Y113506D01*
X59017Y113524D01*
X59200Y113647D01*
X59323Y113830D01*
X59341Y113919D01*
D02*
G37*
G36*
X58674D02*
X58261D01*
X58279Y113830D01*
X58402Y113647D01*
X58585Y113524D01*
X58674Y113506D01*
Y113919D01*
D02*
G37*
G36*
X136779Y114611D02*
X136563Y114568D01*
X136380Y114445D01*
X136257Y114262D01*
X136214Y114046D01*
X136257Y113830D01*
X136380Y113647D01*
X136563Y113524D01*
X136779Y113481D01*
X136995Y113524D01*
X137178Y113647D01*
X137301Y113830D01*
X137344Y114046D01*
X137301Y114262D01*
X137178Y114445D01*
X136995Y114568D01*
X136779Y114611D01*
D02*
G37*
G36*
X175114Y113665D02*
X174752D01*
Y113303D01*
X174822Y113317D01*
X174988Y113429D01*
X175100Y113595D01*
X175114Y113665D01*
D02*
G37*
G36*
X174498D02*
X174136D01*
X174150Y113595D01*
X174262Y113429D01*
X174428Y113317D01*
X174498Y113303D01*
Y113665D01*
D02*
G37*
G36*
X39878Y113671D02*
X39681Y113632D01*
X39515Y113520D01*
X39403Y113354D01*
X39364Y113157D01*
X39403Y112960D01*
X39515Y112794D01*
X39681Y112682D01*
X39878Y112643D01*
X40075Y112682D01*
X40241Y112794D01*
X40353Y112960D01*
X40392Y113157D01*
X40353Y113354D01*
X40241Y113520D01*
X40075Y113632D01*
X39878Y113671D01*
D02*
G37*
G36*
X152019Y119894D02*
X151822Y119855D01*
X151656Y119743D01*
X151544Y119577D01*
X151505Y119380D01*
X151544Y119183D01*
X151631Y119054D01*
Y115062D01*
X151660Y114913D01*
X151744Y114787D01*
X154030Y112501D01*
X154156Y112417D01*
X154305Y112388D01*
X159694D01*
X159823Y112301D01*
X160020Y112262D01*
X160217Y112301D01*
X160383Y112413D01*
X160495Y112579D01*
X160534Y112776D01*
X160495Y112973D01*
X160383Y113139D01*
X160217Y113251D01*
X160020Y113290D01*
X159823Y113251D01*
X159694Y113164D01*
X154466D01*
X152407Y115223D01*
Y119054D01*
X152494Y119183D01*
X152533Y119380D01*
X152494Y119577D01*
X152382Y119743D01*
X152216Y119855D01*
X152019Y119894D01*
D02*
G37*
G36*
X133604Y112505D02*
Y111500D01*
X134609D01*
X134587Y111670D01*
X134472Y111947D01*
X134289Y112185D01*
X134051Y112368D01*
X133774Y112483D01*
X133604Y112505D01*
D02*
G37*
G36*
X133350D02*
X133180Y112483D01*
X132903Y112368D01*
X132665Y112185D01*
X132482Y111947D01*
X132367Y111670D01*
X132345Y111500D01*
X133350D01*
Y112505D01*
D02*
G37*
G36*
X152400Y112452D02*
X152184Y112409D01*
X152001Y112286D01*
X151878Y112103D01*
X151835Y111887D01*
X151878Y111671D01*
X152001Y111488D01*
X152184Y111365D01*
X152400Y111322D01*
X152616Y111365D01*
X152799Y111488D01*
X152922Y111671D01*
X152965Y111887D01*
X152922Y112103D01*
X152799Y112286D01*
X152616Y112409D01*
X152400Y112452D01*
D02*
G37*
G36*
Y111055D02*
X152184Y111012D01*
X152001Y110889D01*
X151878Y110706D01*
X151835Y110490D01*
X151878Y110274D01*
X152001Y110091D01*
X152184Y109968D01*
X152400Y109925D01*
X152616Y109968D01*
X152799Y110091D01*
X152922Y110274D01*
X152965Y110490D01*
X152922Y110706D01*
X152799Y110889D01*
X152616Y111012D01*
X152400Y111055D01*
D02*
G37*
G36*
X145288D02*
X145072Y111012D01*
X144889Y110889D01*
X144766Y110706D01*
X144723Y110490D01*
X144766Y110274D01*
X144889Y110091D01*
X145072Y109968D01*
X145288Y109925D01*
X145504Y109968D01*
X145687Y110091D01*
X145810Y110274D01*
X145853Y110490D01*
X145810Y110706D01*
X145687Y110889D01*
X145504Y111012D01*
X145288Y111055D01*
D02*
G37*
G36*
X71541Y110395D02*
Y109728D01*
X72208D01*
X72197Y109811D01*
X72116Y110006D01*
X71987Y110174D01*
X71819Y110303D01*
X71624Y110384D01*
X71541Y110395D01*
D02*
G37*
G36*
X71287D02*
X71204Y110384D01*
X71009Y110303D01*
X70841Y110174D01*
X70712Y110006D01*
X70631Y109811D01*
X70620Y109728D01*
X71287D01*
Y110395D01*
D02*
G37*
G36*
X110617Y109633D02*
Y109220D01*
X111030D01*
X111012Y109309D01*
X110889Y109492D01*
X110706Y109615D01*
X110617Y109633D01*
D02*
G37*
G36*
X110363D02*
X110274Y109615D01*
X110091Y109492D01*
X109968Y109309D01*
X109950Y109220D01*
X110363D01*
Y109633D01*
D02*
G37*
G36*
X48768Y110994D02*
X48506Y110959D01*
X48262Y110858D01*
X48052Y110698D01*
X47892Y110488D01*
X47791Y110244D01*
X47756Y109982D01*
X47791Y109720D01*
X47892Y109476D01*
X48052Y109266D01*
X48262Y109106D01*
X48506Y109005D01*
X48768Y108970D01*
X49030Y109005D01*
X49274Y109106D01*
X49484Y109266D01*
X49644Y109476D01*
X49745Y109720D01*
X49780Y109982D01*
X49745Y110244D01*
X49644Y110488D01*
X49484Y110698D01*
X49274Y110858D01*
X49030Y110959D01*
X48768Y110994D01*
D02*
G37*
G36*
X41148D02*
X40886Y110959D01*
X40642Y110858D01*
X40432Y110698D01*
X40272Y110488D01*
X40171Y110244D01*
X40136Y109982D01*
X40171Y109720D01*
X40272Y109476D01*
X40432Y109266D01*
X40642Y109106D01*
X40886Y109005D01*
X41148Y108970D01*
X41410Y109005D01*
X41654Y109106D01*
X41864Y109266D01*
X42024Y109476D01*
X42125Y109720D01*
X42160Y109982D01*
X42125Y110244D01*
X42024Y110488D01*
X41864Y110698D01*
X41654Y110858D01*
X41410Y110959D01*
X41148Y110994D01*
D02*
G37*
G36*
X72208Y109474D02*
X71541D01*
Y108807D01*
X71624Y108818D01*
X71819Y108899D01*
X71987Y109028D01*
X72116Y109196D01*
X72197Y109391D01*
X72208Y109474D01*
D02*
G37*
G36*
X71287D02*
X70620D01*
X70631Y109391D01*
X70712Y109196D01*
X70841Y109028D01*
X71009Y108899D01*
X71204Y108818D01*
X71287Y108807D01*
Y109474D01*
D02*
G37*
G36*
X77218Y110405D02*
X75610D01*
Y108797D01*
X77218D01*
Y110405D01*
D02*
G37*
G36*
X111030Y108966D02*
X110617D01*
Y108553D01*
X110706Y108571D01*
X110889Y108694D01*
X111012Y108877D01*
X111030Y108966D01*
D02*
G37*
G36*
X110363D02*
X109950D01*
X109968Y108877D01*
X110091Y108694D01*
X110274Y108571D01*
X110363Y108553D01*
Y108966D01*
D02*
G37*
G36*
X98933Y108744D02*
Y108331D01*
X99346D01*
X99328Y108420D01*
X99205Y108603D01*
X99022Y108726D01*
X98933Y108744D01*
D02*
G37*
G36*
X98679D02*
X98590Y108726D01*
X98407Y108603D01*
X98284Y108420D01*
X98266Y108331D01*
X98679D01*
Y108744D01*
D02*
G37*
G36*
X139573Y110233D02*
X139311Y110198D01*
X139067Y110097D01*
X138857Y109936D01*
X138696Y109726D01*
X138595Y109482D01*
X138560Y109220D01*
X138595Y108958D01*
X138696Y108714D01*
X138857Y108504D01*
X139067Y108343D01*
X139311Y108242D01*
X139573Y108207D01*
X139835Y108242D01*
X140079Y108343D01*
X140289Y108504D01*
X140450Y108714D01*
X140551Y108958D01*
X140586Y109220D01*
X140551Y109482D01*
X140450Y109726D01*
X140289Y109936D01*
X140079Y110097D01*
X139835Y110198D01*
X139573Y110233D01*
D02*
G37*
G36*
X99346Y108077D02*
X98933D01*
Y107664D01*
X99022Y107682D01*
X99205Y107805D01*
X99328Y107988D01*
X99346Y108077D01*
D02*
G37*
G36*
X98679D02*
X98266D01*
X98284Y107988D01*
X98407Y107805D01*
X98590Y107682D01*
X98679Y107664D01*
Y108077D01*
D02*
G37*
G36*
X144907Y116084D02*
X144710Y116045D01*
X144544Y115933D01*
X144432Y115767D01*
X144393Y115570D01*
X144398Y115544D01*
X143616Y114762D01*
X143532Y114636D01*
X143503Y114487D01*
Y108111D01*
X142593Y107201D01*
X134549D01*
X134472Y107387D01*
X134289Y107625D01*
X134051Y107808D01*
X133867Y107884D01*
Y108022D01*
X134051Y108098D01*
X134289Y108281D01*
X134472Y108519D01*
X134587Y108796D01*
X134626Y109093D01*
X134587Y109390D01*
X134472Y109667D01*
X134289Y109905D01*
X134051Y110088D01*
X133867Y110164D01*
Y110302D01*
X134051Y110378D01*
X134289Y110561D01*
X134472Y110799D01*
X134587Y111076D01*
X134609Y111246D01*
X133477D01*
X132345D01*
X132367Y111076D01*
X132482Y110799D01*
X132665Y110561D01*
X132903Y110378D01*
X133087Y110302D01*
Y110164D01*
X132903Y110088D01*
X132665Y109905D01*
X132482Y109667D01*
X132367Y109390D01*
X132328Y109093D01*
X132367Y108796D01*
X132482Y108519D01*
X132665Y108281D01*
X132903Y108098D01*
X133087Y108022D01*
Y107884D01*
X132903Y107808D01*
X132665Y107625D01*
X132482Y107387D01*
X132367Y107110D01*
X132328Y106813D01*
X132367Y106516D01*
X132482Y106239D01*
X132665Y106001D01*
X132903Y105818D01*
X133180Y105703D01*
X133477Y105664D01*
X133774Y105703D01*
X134051Y105818D01*
X134289Y106001D01*
X134472Y106239D01*
X134549Y106425D01*
X142754D01*
X142903Y106454D01*
X143029Y106538D01*
X144166Y107675D01*
X144250Y107801D01*
X144279Y107950D01*
Y114327D01*
X145034Y115081D01*
X145104Y115095D01*
X145270Y115207D01*
X145382Y115373D01*
X145421Y115570D01*
X145382Y115767D01*
X145270Y115933D01*
X145104Y116045D01*
X144907Y116084D01*
D02*
G37*
G36*
X48768Y108454D02*
X48506Y108419D01*
X48262Y108318D01*
X48052Y108158D01*
X47892Y107948D01*
X47791Y107704D01*
X47756Y107442D01*
X47791Y107180D01*
X47892Y106936D01*
X48052Y106726D01*
X48103Y106687D01*
X48060Y106560D01*
X47913D01*
X46757Y107717D01*
X46631Y107801D01*
X46482Y107830D01*
X42073D01*
X42024Y107948D01*
X41864Y108158D01*
X41654Y108318D01*
X41410Y108419D01*
X41148Y108454D01*
X40886Y108419D01*
X40642Y108318D01*
X40432Y108158D01*
X40272Y107948D01*
X40171Y107704D01*
X40136Y107442D01*
X40171Y107180D01*
X40272Y106936D01*
X40432Y106726D01*
X40642Y106566D01*
X40886Y106465D01*
X41148Y106430D01*
X41410Y106465D01*
X41654Y106566D01*
X41864Y106726D01*
X42024Y106936D01*
X42073Y107054D01*
X46321D01*
X47477Y105897D01*
X47603Y105813D01*
X47752Y105784D01*
X48060D01*
X48103Y105657D01*
X48052Y105618D01*
X47892Y105408D01*
X47791Y105164D01*
X47756Y104902D01*
X47791Y104640D01*
X47892Y104396D01*
X48052Y104186D01*
X48262Y104026D01*
X48506Y103925D01*
X48768Y103890D01*
X49030Y103925D01*
X49274Y104026D01*
X49484Y104186D01*
X49644Y104396D01*
X49745Y104640D01*
X49780Y104902D01*
X49745Y105164D01*
X49644Y105408D01*
X49484Y105618D01*
X49433Y105657D01*
X49476Y105784D01*
X61688D01*
X66297Y101175D01*
X66327Y101022D01*
X66439Y100856D01*
X66605Y100744D01*
X66802Y100705D01*
X66999Y100744D01*
X67165Y100856D01*
X67277Y101022D01*
X67316Y101219D01*
X67277Y101416D01*
X67165Y101582D01*
X66999Y101694D01*
X66846Y101724D01*
X62124Y106447D01*
X61998Y106531D01*
X61849Y106560D01*
X49476D01*
X49433Y106687D01*
X49484Y106726D01*
X49644Y106936D01*
X49745Y107180D01*
X49780Y107442D01*
X49745Y107704D01*
X49644Y107948D01*
X49484Y108158D01*
X49274Y108318D01*
X49030Y108419D01*
X48768Y108454D01*
D02*
G37*
G36*
X146431Y113544D02*
X146234Y113505D01*
X146068Y113393D01*
X145956Y113227D01*
X145917Y113030D01*
X145956Y112833D01*
X146068Y112667D01*
X146234Y112555D01*
X146387Y112525D01*
X151236Y107675D01*
X151362Y107591D01*
X151511Y107562D01*
X165701D01*
X166705Y106557D01*
X166650Y106433D01*
X159838D01*
X159709Y106520D01*
X159512Y106559D01*
X159315Y106520D01*
X159149Y106408D01*
X159037Y106242D01*
X158998Y106045D01*
X159037Y105848D01*
X159149Y105682D01*
X159315Y105570D01*
X159512Y105531D01*
X159709Y105570D01*
X159838Y105657D01*
X166537D01*
X172967Y99227D01*
Y94449D01*
X172849Y94400D01*
X170201Y97049D01*
X170075Y97133D01*
X169926Y97162D01*
X166277D01*
X158757Y104682D01*
Y106481D01*
X158844Y106610D01*
X158883Y106807D01*
X158844Y107004D01*
X158732Y107170D01*
X158566Y107282D01*
X158369Y107321D01*
X158172Y107282D01*
X158006Y107170D01*
X157894Y107004D01*
X157855Y106807D01*
X157894Y106610D01*
X157981Y106481D01*
Y104521D01*
X158010Y104372D01*
X158094Y104246D01*
X165737Y96604D01*
X165684Y96477D01*
X161874D01*
X161866Y96604D01*
X161988Y96620D01*
X162331Y96762D01*
X162626Y96988D01*
X162852Y97282D01*
X162994Y97625D01*
X163042Y97993D01*
X162994Y98361D01*
X162852Y98704D01*
X162626Y98999D01*
X162331Y99225D01*
X161988Y99367D01*
X161620Y99415D01*
X161252Y99367D01*
X160909Y99225D01*
X160615Y98999D01*
X160389Y98704D01*
X160247Y98361D01*
X160198Y97993D01*
X160247Y97625D01*
X160389Y97282D01*
X160615Y96988D01*
X160909Y96762D01*
X161252Y96620D01*
X161375Y96604D01*
X161366Y96477D01*
X158809D01*
X149055Y106231D01*
Y108763D01*
X149025Y108911D01*
X148941Y109037D01*
X146174Y111804D01*
X146144Y111957D01*
X146032Y112123D01*
X145866Y112235D01*
X145669Y112274D01*
X145472Y112235D01*
X145306Y112123D01*
X145194Y111957D01*
X145155Y111760D01*
X145194Y111563D01*
X145306Y111397D01*
X145472Y111285D01*
X145625Y111255D01*
X148278Y108602D01*
Y106070D01*
X148307Y105922D01*
X148392Y105796D01*
X149922Y104265D01*
X149874Y104147D01*
X140496D01*
X139824Y104819D01*
X139794Y104972D01*
X139682Y105138D01*
X139516Y105250D01*
X139319Y105289D01*
X139122Y105250D01*
X138956Y105138D01*
X138844Y104972D01*
X138805Y104775D01*
X138844Y104578D01*
X138956Y104412D01*
X139122Y104300D01*
X139275Y104270D01*
X140060Y103484D01*
X140186Y103400D01*
X140260Y103385D01*
X140247Y103258D01*
X120015D01*
X119866Y103229D01*
X119740Y103145D01*
X115004Y98408D01*
X114920Y98282D01*
X114890Y98134D01*
Y89988D01*
X114804Y89859D01*
X114765Y89662D01*
X114804Y89465D01*
X114915Y89299D01*
X115082Y89187D01*
X115279Y89148D01*
X115475Y89187D01*
X115604Y89274D01*
X117060D01*
X118738Y87596D01*
Y77923D01*
X118651Y77794D01*
X118612Y77597D01*
X118651Y77400D01*
X118763Y77234D01*
X118929Y77122D01*
X119126Y77083D01*
X119323Y77122D01*
X119489Y77234D01*
X119601Y77400D01*
X119640Y77597D01*
X119601Y77794D01*
X119514Y77923D01*
Y87757D01*
X119485Y87906D01*
X119401Y88032D01*
X117496Y89937D01*
X117370Y90021D01*
X117221Y90050D01*
X115667D01*
Y97973D01*
X120176Y102482D01*
X144492D01*
X145545Y101429D01*
X145575Y101276D01*
X145687Y101110D01*
X145853Y100998D01*
X146050Y100959D01*
X146247Y100998D01*
X146413Y101110D01*
X146525Y101276D01*
X146564Y101473D01*
X146525Y101670D01*
X146413Y101836D01*
X146247Y101948D01*
X146094Y101978D01*
X144928Y103145D01*
X144802Y103229D01*
X144728Y103244D01*
X144741Y103371D01*
X150207D01*
X158221Y95356D01*
X158347Y95272D01*
X158496Y95243D01*
X169257D01*
X171316Y93184D01*
Y91968D01*
X171189Y91943D01*
X171113Y92124D01*
X170928Y92366D01*
X170687Y92551D01*
X170406Y92668D01*
X170104Y92707D01*
X169802Y92668D01*
X169521Y92551D01*
X169280Y92366D01*
X169094Y92124D01*
X168978Y91843D01*
X168938Y91542D01*
X168978Y91240D01*
X169094Y90959D01*
X169280Y90717D01*
X169521Y90532D01*
X169802Y90416D01*
X170104Y90376D01*
X170406Y90416D01*
X170687Y90532D01*
X170928Y90717D01*
X171113Y90959D01*
X171189Y91140D01*
X171316Y91115D01*
Y89620D01*
X170600Y88904D01*
X170406Y88985D01*
X170104Y89024D01*
X169802Y88985D01*
X169521Y88868D01*
X169280Y88683D01*
X169094Y88441D01*
X168978Y88160D01*
X168938Y87859D01*
X168978Y87557D01*
X169094Y87276D01*
X169280Y87034D01*
X169521Y86849D01*
X169802Y86733D01*
X170104Y86693D01*
X170406Y86733D01*
X170687Y86849D01*
X170928Y87034D01*
X171113Y87276D01*
X171230Y87557D01*
X171269Y87859D01*
X171230Y88160D01*
X171149Y88355D01*
X171833Y89039D01*
X171951Y88990D01*
Y81746D01*
X170600Y80395D01*
X170406Y80476D01*
X170104Y80515D01*
X169802Y80476D01*
X169521Y80359D01*
X169280Y80174D01*
X169094Y79932D01*
X168978Y79651D01*
X168938Y79350D01*
X168978Y79048D01*
X169094Y78767D01*
X169280Y78525D01*
X169521Y78340D01*
X169802Y78224D01*
X170104Y78184D01*
X170406Y78224D01*
X170687Y78340D01*
X170928Y78525D01*
X171113Y78767D01*
X171230Y79048D01*
X171269Y79350D01*
X171230Y79651D01*
X171149Y79846D01*
X172341Y81038D01*
X172459Y80989D01*
Y79375D01*
X172488Y79226D01*
X172572Y79100D01*
X173612Y78061D01*
X173642Y77908D01*
X173754Y77742D01*
X173920Y77630D01*
X174117Y77591D01*
X174314Y77630D01*
X174480Y77742D01*
X174592Y77908D01*
X174631Y78105D01*
X174592Y78302D01*
X174480Y78468D01*
X174314Y78580D01*
X174161Y78610D01*
X173235Y79536D01*
Y80811D01*
X173353Y80860D01*
X173612Y80601D01*
X173642Y80448D01*
X173754Y80282D01*
X173920Y80170D01*
X174117Y80131D01*
X174314Y80170D01*
X174480Y80282D01*
X174592Y80448D01*
X174631Y80645D01*
X174592Y80842D01*
X174480Y81008D01*
X174314Y81120D01*
X174161Y81150D01*
X173743Y81568D01*
Y82081D01*
X173861Y82130D01*
X175126Y80865D01*
Y78012D01*
X173715Y76602D01*
X173631Y76476D01*
X173602Y76327D01*
Y75891D01*
X173515Y75762D01*
X173476Y75565D01*
X173515Y75368D01*
X173627Y75202D01*
X173793Y75090D01*
X173990Y75051D01*
X174187Y75090D01*
X174353Y75202D01*
X174465Y75368D01*
X174504Y75565D01*
X174465Y75762D01*
X174378Y75891D01*
Y76166D01*
X175789Y77576D01*
X175873Y77702D01*
X175902Y77851D01*
Y81026D01*
X175873Y81175D01*
X175789Y81301D01*
X174251Y82838D01*
Y99949D01*
X174222Y100098D01*
X174138Y100224D01*
X166137Y108225D01*
X166011Y108309D01*
X165862Y108338D01*
X151672D01*
X146936Y113074D01*
X146906Y113227D01*
X146794Y113393D01*
X146628Y113505D01*
X146431Y113544D01*
D02*
G37*
G36*
X41275Y105897D02*
Y105029D01*
X42143D01*
X42125Y105164D01*
X42024Y105408D01*
X41864Y105618D01*
X41654Y105778D01*
X41410Y105879D01*
X41275Y105897D01*
D02*
G37*
G36*
X41021D02*
X40886Y105879D01*
X40642Y105778D01*
X40432Y105618D01*
X40272Y105408D01*
X40171Y105164D01*
X40153Y105029D01*
X41021D01*
Y105897D01*
D02*
G37*
G36*
X42143Y104775D02*
X41275D01*
Y103907D01*
X41410Y103925D01*
X41654Y104026D01*
X41864Y104186D01*
X42024Y104396D01*
X42125Y104640D01*
X42143Y104775D01*
D02*
G37*
G36*
X41021D02*
X40153D01*
X40171Y104640D01*
X40272Y104396D01*
X40432Y104186D01*
X40642Y104026D01*
X40886Y103925D01*
X41021Y103907D01*
Y104775D01*
D02*
G37*
G36*
X66294Y104908D02*
X66097Y104869D01*
X65931Y104757D01*
X65819Y104591D01*
X65780Y104394D01*
X65819Y104197D01*
X65931Y104031D01*
X66097Y103919D01*
X66294Y103880D01*
X66491Y103919D01*
X66657Y104031D01*
X66769Y104197D01*
X66808Y104394D01*
X66769Y104591D01*
X66657Y104757D01*
X66491Y104869D01*
X66294Y104908D01*
D02*
G37*
G36*
X31877Y110377D02*
X31542Y110333D01*
X31231Y110204D01*
X30963Y109999D01*
X30758Y109731D01*
X30628Y109419D01*
X30584Y109085D01*
X30628Y108750D01*
X30758Y108438D01*
X30963Y108171D01*
X31231Y107965D01*
X31422Y107886D01*
Y107748D01*
X31231Y107669D01*
X30963Y107464D01*
X30758Y107196D01*
X30628Y106884D01*
X30584Y106550D01*
X30628Y106215D01*
X30758Y105903D01*
X30963Y105636D01*
X31231Y105430D01*
X31248Y105423D01*
X31223Y105296D01*
X30596D01*
Y102733D01*
X33159D01*
Y105296D01*
X32531D01*
X32506Y105423D01*
X32523Y105430D01*
X32791Y105636D01*
X32996Y105903D01*
X33126Y106215D01*
X33170Y106550D01*
X33126Y106884D01*
X32996Y107196D01*
X32791Y107464D01*
X32523Y107669D01*
X32332Y107748D01*
Y107886D01*
X32523Y107965D01*
X32791Y108171D01*
X32996Y108438D01*
X33126Y108750D01*
X33170Y109085D01*
X33126Y109419D01*
X32996Y109731D01*
X32791Y109999D01*
X32523Y110204D01*
X32212Y110333D01*
X31877Y110377D01*
D02*
G37*
G36*
X48768Y103374D02*
X48506Y103339D01*
X48262Y103238D01*
X48052Y103078D01*
X47892Y102868D01*
X47791Y102624D01*
X47756Y102362D01*
X47791Y102100D01*
X47892Y101856D01*
X48052Y101646D01*
X48262Y101486D01*
X48506Y101385D01*
X48768Y101350D01*
X49030Y101385D01*
X49274Y101486D01*
X49484Y101646D01*
X49644Y101856D01*
X49745Y102100D01*
X49780Y102362D01*
X49745Y102624D01*
X49644Y102868D01*
X49484Y103078D01*
X49274Y103238D01*
X49030Y103339D01*
X48768Y103374D01*
D02*
G37*
G36*
X41148D02*
X40886Y103339D01*
X40642Y103238D01*
X40432Y103078D01*
X40272Y102868D01*
X40171Y102624D01*
X40136Y102362D01*
X40171Y102100D01*
X40272Y101856D01*
X40432Y101646D01*
X40642Y101486D01*
X40886Y101385D01*
X41148Y101350D01*
X41410Y101385D01*
X41654Y101486D01*
X41864Y101646D01*
X42024Y101856D01*
X42125Y102100D01*
X42160Y102362D01*
X42125Y102624D01*
X42024Y102868D01*
X41864Y103078D01*
X41654Y103238D01*
X41410Y103339D01*
X41148Y103374D01*
D02*
G37*
G36*
X64770Y101352D02*
X64573Y101313D01*
X64407Y101201D01*
X64295Y101035D01*
X64256Y100838D01*
X64295Y100641D01*
X64407Y100475D01*
X64573Y100363D01*
X64770Y100324D01*
X64967Y100363D01*
X65133Y100475D01*
X65245Y100641D01*
X65284Y100838D01*
X65245Y101035D01*
X65133Y101201D01*
X64967Y101313D01*
X64770Y101352D01*
D02*
G37*
G36*
X165456Y104418D02*
X165005Y104373D01*
X164572Y104242D01*
X164172Y104029D01*
X163822Y103741D01*
X163535Y103391D01*
X163322Y102992D01*
X163190Y102559D01*
X163146Y102108D01*
X163190Y101657D01*
X163322Y101224D01*
X163535Y100825D01*
X163822Y100475D01*
X164172Y100187D01*
X164572Y99974D01*
X165005Y99843D01*
X165456Y99798D01*
X165906Y99843D01*
X166340Y99974D01*
X166739Y100187D01*
X167089Y100475D01*
X167376Y100825D01*
X167590Y101224D01*
X167721Y101657D01*
X167765Y102108D01*
X167721Y102559D01*
X167590Y102992D01*
X167376Y103391D01*
X167089Y103741D01*
X166739Y104029D01*
X166340Y104242D01*
X165906Y104373D01*
X165456Y104418D01*
D02*
G37*
G36*
X137668Y102114D02*
X137471Y102075D01*
X137305Y101963D01*
X137193Y101797D01*
X137154Y101600D01*
X137193Y101403D01*
X137305Y101237D01*
X137471Y101125D01*
X137624Y101095D01*
X140328Y98391D01*
Y97370D01*
X140210Y97321D01*
X139824Y97707D01*
X139794Y97860D01*
X139682Y98026D01*
X139516Y98138D01*
X139319Y98177D01*
X139122Y98138D01*
X138956Y98026D01*
X138844Y97860D01*
X138805Y97663D01*
X138844Y97466D01*
X138956Y97300D01*
X139122Y97188D01*
X139275Y97158D01*
X139693Y96740D01*
Y95124D01*
X139566Y95056D01*
X139516Y95090D01*
X139319Y95129D01*
X139122Y95090D01*
X138956Y94978D01*
X138844Y94812D01*
X138805Y94615D01*
X138844Y94418D01*
X138931Y94289D01*
Y92710D01*
X138960Y92561D01*
X139044Y92435D01*
X140931Y90549D01*
X140882Y90431D01*
X139573D01*
X139424Y90402D01*
X139298Y90318D01*
X138132Y89151D01*
X137979Y89121D01*
X137813Y89009D01*
X137701Y88843D01*
X137662Y88646D01*
X137701Y88449D01*
X137813Y88283D01*
X137979Y88171D01*
X138176Y88132D01*
X138373Y88171D01*
X138539Y88283D01*
X138651Y88449D01*
X138681Y88602D01*
X139734Y89655D01*
X156938D01*
X160888Y85704D01*
X161014Y85620D01*
X161163Y85591D01*
X162246D01*
X162271Y85464D01*
X162028Y85363D01*
X161787Y85178D01*
X161601Y84936D01*
X161485Y84655D01*
X161445Y84353D01*
X161485Y84052D01*
X161565Y83857D01*
X159745Y82037D01*
X159661Y81911D01*
X159632Y81763D01*
Y80044D01*
X158856Y79269D01*
X158772Y79143D01*
X158743Y78994D01*
Y76996D01*
X158589Y76842D01*
X151003D01*
X150854Y76813D01*
X150728Y76729D01*
X147286Y73286D01*
X143892D01*
X143824Y73413D01*
X143858Y73463D01*
X143872Y73533D01*
X143383D01*
Y73660D01*
X143256D01*
Y74241D01*
X143234Y74273D01*
X143263Y74422D01*
Y78795D01*
X143350Y78924D01*
X143389Y79121D01*
X143350Y79318D01*
X143238Y79484D01*
X143133Y79555D01*
Y79703D01*
X143238Y79774D01*
X143350Y79940D01*
X143389Y80137D01*
X143350Y80334D01*
X143238Y80500D01*
X143072Y80612D01*
X142975Y80631D01*
X142949Y80766D01*
X142984Y80790D01*
X143096Y80956D01*
X143135Y81153D01*
X143096Y81350D01*
X142984Y81516D01*
X142818Y81628D01*
X142787Y81763D01*
X142842Y81845D01*
X142881Y82042D01*
X142842Y82239D01*
X142730Y82405D01*
X142564Y82517D01*
X142367Y82556D01*
X142170Y82517D01*
X142004Y82405D01*
X141892Y82239D01*
X141853Y82042D01*
X141892Y81845D01*
X142004Y81679D01*
X142170Y81567D01*
X142201Y81432D01*
X142146Y81350D01*
X142107Y81153D01*
X142146Y80956D01*
X142258Y80790D01*
X142424Y80678D01*
X142521Y80659D01*
X142547Y80524D01*
X142512Y80500D01*
X142400Y80334D01*
X142361Y80137D01*
X142400Y79940D01*
X142512Y79774D01*
X142617Y79703D01*
Y79555D01*
X142512Y79484D01*
X142400Y79318D01*
X142361Y79121D01*
X142400Y78924D01*
X142487Y78795D01*
Y74583D01*
X141698Y73794D01*
X135383D01*
X135315Y73921D01*
X135349Y73971D01*
X135388Y74168D01*
X135349Y74365D01*
X135237Y74531D01*
X135071Y74643D01*
X134874Y74682D01*
X134677Y74643D01*
X134595Y74588D01*
X134460Y74619D01*
X134348Y74785D01*
X134182Y74897D01*
X133985Y74936D01*
X133788Y74897D01*
X133622Y74785D01*
X133510Y74619D01*
X133496Y74547D01*
X133420Y74516D01*
X133223Y74555D01*
X133098Y74530D01*
X133009Y74544D01*
X132960Y74622D01*
X132936Y74746D01*
X132824Y74912D01*
X132658Y75024D01*
X132588Y75038D01*
Y74549D01*
Y74060D01*
X132675Y74046D01*
X132724Y73968D01*
X132733Y73921D01*
X132640Y73794D01*
X126455D01*
X126221Y74028D01*
X126205Y74111D01*
X126093Y74277D01*
X125927Y74389D01*
X125730Y74428D01*
X125533Y74389D01*
X125367Y74277D01*
X125255Y74111D01*
X125216Y73914D01*
X125255Y73717D01*
X125367Y73551D01*
X125533Y73439D01*
X125663Y73413D01*
X125650Y73286D01*
X119836D01*
X119743Y73413D01*
X119767Y73533D01*
X119728Y73730D01*
X119616Y73896D01*
X119450Y74008D01*
X119297Y74038D01*
X118913Y74422D01*
X118955Y74560D01*
X119069Y74582D01*
X119235Y74694D01*
X119347Y74860D01*
X119352Y74885D01*
X119473Y74922D01*
X119486Y74909D01*
X119612Y74825D01*
X119761Y74796D01*
X123571D01*
X123720Y74825D01*
X123846Y74909D01*
X124250Y75314D01*
X124403Y75344D01*
X124569Y75456D01*
X124681Y75622D01*
X124720Y75819D01*
X124681Y76016D01*
X124569Y76182D01*
X124403Y76294D01*
X124206Y76333D01*
X124009Y76294D01*
X123843Y76182D01*
X123731Y76016D01*
X123701Y75863D01*
X123516Y75679D01*
X123411Y75749D01*
X123450Y75946D01*
X123411Y76143D01*
X123299Y76309D01*
X123133Y76421D01*
X122936Y76460D01*
X122739Y76421D01*
X122573Y76309D01*
X122461Y76143D01*
X122422Y75946D01*
X122461Y75749D01*
X122495Y75699D01*
X122427Y75572D01*
X119922D01*
X117990Y77504D01*
Y78668D01*
X118077Y78797D01*
X118116Y78994D01*
X118077Y79191D01*
X117965Y79357D01*
X117799Y79469D01*
X117602Y79508D01*
X117405Y79469D01*
X117239Y79357D01*
X117127Y79191D01*
X117088Y78994D01*
X117127Y78797D01*
X117214Y78668D01*
Y78201D01*
X117198Y78189D01*
X117087Y78154D01*
X116353Y78888D01*
X116227Y78972D01*
X116078Y79001D01*
X110143D01*
X110106Y79038D01*
X110076Y79191D01*
X109964Y79357D01*
X109798Y79469D01*
X109601Y79508D01*
X109404Y79469D01*
X109238Y79357D01*
X109126Y79191D01*
X109104Y79077D01*
X108966Y79035D01*
X108733Y79269D01*
X108607Y79353D01*
X108458Y79382D01*
X101926D01*
X101797Y79469D01*
X101600Y79508D01*
X101403Y79469D01*
X101237Y79357D01*
X101125Y79191D01*
X101086Y78994D01*
X101093Y78960D01*
X100976Y78898D01*
X100605Y79269D01*
X100479Y79353D01*
X100330Y79382D01*
X93798D01*
X93669Y79469D01*
X93472Y79508D01*
X93275Y79469D01*
X93109Y79357D01*
X92997Y79191D01*
X92975Y79077D01*
X92837Y79035D01*
X92604Y79269D01*
X92478Y79353D01*
X92329Y79382D01*
X85924D01*
X85795Y79469D01*
X85598Y79508D01*
X85401Y79469D01*
X85235Y79357D01*
X85123Y79191D01*
X85101Y79077D01*
X84963Y79035D01*
X84730Y79269D01*
X84604Y79353D01*
X84455Y79382D01*
X78050D01*
X77921Y79469D01*
X77724Y79508D01*
X77527Y79469D01*
X77361Y79357D01*
X77249Y79191D01*
X77210Y78994D01*
X77249Y78797D01*
X77361Y78631D01*
X77527Y78519D01*
X77724Y78480D01*
X77921Y78519D01*
X78050Y78606D01*
X84294D01*
X85196Y77703D01*
X85322Y77619D01*
X85471Y77590D01*
X92168D01*
X93677Y76080D01*
X93642Y75969D01*
X93630Y75953D01*
X82816D01*
X82168Y76602D01*
X82042Y76686D01*
X81893Y76715D01*
X80899D01*
X80750Y76686D01*
X80624Y76602D01*
X79976Y75953D01*
X71027D01*
X69720Y77260D01*
X69690Y77413D01*
X69578Y77579D01*
X69412Y77691D01*
X69215Y77730D01*
X69018Y77691D01*
X68852Y77579D01*
X68740Y77413D01*
X68701Y77216D01*
X68740Y77019D01*
X68852Y76853D01*
X69018Y76741D01*
X69171Y76711D01*
X69609Y76272D01*
X69539Y76167D01*
X69342Y76206D01*
X69145Y76167D01*
X68979Y76055D01*
X68867Y75889D01*
X68828Y75692D01*
X68852Y75572D01*
X68759Y75445D01*
X67471D01*
X66301Y76615D01*
Y78795D01*
X66388Y78924D01*
X66427Y79121D01*
X66388Y79318D01*
X66276Y79484D01*
X66110Y79596D01*
X65913Y79635D01*
X65716Y79596D01*
X65550Y79484D01*
X65438Y79318D01*
X65399Y79121D01*
X65438Y78924D01*
X65525Y78795D01*
Y76454D01*
X65554Y76305D01*
X65638Y76179D01*
X66763Y75055D01*
X66714Y74937D01*
X61976D01*
X61827Y74908D01*
X61701Y74824D01*
X60291Y73413D01*
X58327D01*
X56385Y75355D01*
X56355Y75508D01*
X56243Y75674D01*
X56077Y75786D01*
X55880Y75825D01*
X55683Y75786D01*
X55517Y75674D01*
X55405Y75508D01*
X55366Y75311D01*
X55405Y75114D01*
X55517Y74948D01*
X55683Y74836D01*
X55836Y74806D01*
X57891Y72750D01*
X58017Y72666D01*
X58166Y72637D01*
X60452D01*
X60601Y72666D01*
X60727Y72750D01*
X62137Y74161D01*
X94454D01*
X95878Y72737D01*
Y62484D01*
X95907Y62335D01*
X95991Y62209D01*
X100055Y58145D01*
X100181Y58061D01*
X100330Y58032D01*
X101657D01*
X101682Y57905D01*
X101598Y57870D01*
X101426Y57738D01*
X101294Y57566D01*
X101211Y57365D01*
X101183Y57150D01*
X101211Y56935D01*
X101294Y56734D01*
X101426Y56562D01*
X101598Y56430D01*
X101799Y56347D01*
X102014Y56319D01*
X102229Y56347D01*
X102430Y56430D01*
X102602Y56562D01*
X102734Y56734D01*
X102817Y56935D01*
X102845Y57150D01*
X102817Y57365D01*
X102734Y57566D01*
X102602Y57738D01*
X102430Y57870D01*
X102346Y57905D01*
X102371Y58032D01*
X102836D01*
X104373Y56494D01*
X104499Y56410D01*
X104648Y56381D01*
X110964D01*
X111094Y56250D01*
X111032Y56133D01*
X110998Y56140D01*
X110801Y56101D01*
X110635Y55989D01*
X110523Y55823D01*
X110484Y55626D01*
X110523Y55429D01*
X110635Y55263D01*
X110801Y55151D01*
X110954Y55121D01*
X111499Y54576D01*
Y48467D01*
X111372Y48454D01*
X111346Y48584D01*
X111234Y48750D01*
X111068Y48862D01*
X110871Y48901D01*
X110674Y48862D01*
X110508Y48750D01*
X110396Y48584D01*
X110357Y48387D01*
X110396Y48190D01*
X110508Y48024D01*
X110674Y47912D01*
X110871Y47873D01*
X111068Y47912D01*
X111234Y48024D01*
X111346Y48190D01*
X111372Y48320D01*
X111499Y48307D01*
Y41529D01*
X111528Y41380D01*
X111612Y41254D01*
X119613Y33253D01*
X119739Y33169D01*
X119888Y33140D01*
X125603D01*
X125752Y33169D01*
X125878Y33253D01*
X130209Y37585D01*
X145384D01*
X145437Y37458D01*
X142533Y34554D01*
X128016D01*
X127818Y34515D01*
X127650Y34402D01*
X122721Y29474D01*
X102723D01*
X102680Y29601D01*
X102729Y29638D01*
X102861Y29810D01*
X102944Y30011D01*
X102955Y30099D01*
X101327D01*
X101338Y30011D01*
X101421Y29810D01*
X101553Y29638D01*
X101602Y29601D01*
X101559Y29474D01*
X94783D01*
X94740Y29601D01*
X94789Y29638D01*
X94921Y29810D01*
X95004Y30011D01*
X95032Y30226D01*
X95004Y30441D01*
X94921Y30642D01*
X94789Y30814D01*
X94617Y30946D01*
X94416Y31029D01*
X94201Y31057D01*
X93986Y31029D01*
X93785Y30946D01*
X93613Y30814D01*
X93481Y30642D01*
X93398Y30441D01*
X93370Y30226D01*
X93398Y30011D01*
X93481Y29810D01*
X93613Y29638D01*
X93662Y29601D01*
X93619Y29474D01*
X87337D01*
X75829Y40982D01*
Y55499D01*
X75829Y55499D01*
X75790Y55697D01*
X75677Y55865D01*
X75677Y55865D01*
X69962Y61580D01*
X69794Y61693D01*
X69596Y61732D01*
X60667D01*
X57897Y64501D01*
X57729Y64614D01*
X57531Y64653D01*
X45085D01*
X44887Y64614D01*
X44719Y64501D01*
X44719Y64501D01*
X39536Y59319D01*
X34119D01*
X34062Y59457D01*
X33853Y59729D01*
X33581Y59938D01*
X33265Y60069D01*
X32925Y60114D01*
X30829D01*
X30489Y60069D01*
X30173Y59938D01*
X29901Y59729D01*
X29692Y59457D01*
X29561Y59141D01*
X29516Y58801D01*
X29561Y58461D01*
X29692Y58145D01*
X29901Y57873D01*
X30173Y57664D01*
X30489Y57533D01*
X30829Y57488D01*
X32925D01*
X33265Y57533D01*
X33581Y57664D01*
X33853Y57873D01*
X34062Y58145D01*
X34119Y58283D01*
X39751D01*
X39949Y58322D01*
X40117Y58435D01*
X45300Y63617D01*
X57316D01*
X60086Y60848D01*
X60254Y60735D01*
X60452Y60696D01*
X60452Y60696D01*
X69381D01*
X74793Y55284D01*
Y55135D01*
X74666Y55096D01*
X74661Y55103D01*
X70597Y59167D01*
X70429Y59280D01*
X70231Y59319D01*
X66758D01*
X66701Y59457D01*
X66492Y59729D01*
X66220Y59938D01*
X65904Y60069D01*
X65564Y60114D01*
X63468D01*
X63128Y60069D01*
X62812Y59938D01*
X62540Y59729D01*
X62331Y59457D01*
X62200Y59141D01*
X62155Y58801D01*
X62200Y58461D01*
X62331Y58145D01*
X62540Y57873D01*
X62812Y57664D01*
X63128Y57533D01*
X63468Y57488D01*
X65564D01*
X65904Y57533D01*
X66220Y57664D01*
X66492Y57873D01*
X66701Y58145D01*
X66758Y58283D01*
X70016D01*
X73777Y54522D01*
Y40005D01*
X73816Y39807D01*
X73929Y39639D01*
X85872Y27696D01*
X85819Y27569D01*
X85178D01*
X83810Y28937D01*
X83798Y29024D01*
X83732Y29183D01*
X83628Y29319D01*
X83491Y29424D01*
X83332Y29490D01*
X83161Y29513D01*
X82990Y29490D01*
X82831Y29424D01*
X82695Y29319D01*
X82590Y29183D01*
X82524Y29024D01*
X82501Y28853D01*
X82524Y28682D01*
X82590Y28523D01*
X82695Y28386D01*
X82831Y28282D01*
X82990Y28216D01*
X83077Y28204D01*
X84597Y26685D01*
X84604Y26680D01*
X84565Y26553D01*
X58804D01*
X58736Y26680D01*
X58768Y26727D01*
X58807Y26924D01*
X58768Y27121D01*
X58656Y27287D01*
X58490Y27399D01*
X58293Y27438D01*
X58096Y27399D01*
X57930Y27287D01*
X57818Y27121D01*
X57779Y26924D01*
X57818Y26727D01*
X57850Y26680D01*
X57782Y26553D01*
X54063D01*
X51064Y29552D01*
Y29954D01*
X51117Y30023D01*
X51183Y30182D01*
X51206Y30353D01*
X51183Y30524D01*
X51117Y30683D01*
X51012Y30819D01*
X50876Y30924D01*
X50717Y30990D01*
X50546Y31013D01*
X50375Y30990D01*
X50216Y30924D01*
X50080Y30819D01*
X49975Y30683D01*
X49909Y30524D01*
X49886Y30353D01*
X49909Y30182D01*
X49975Y30023D01*
X50028Y29954D01*
Y29337D01*
X50067Y29139D01*
X50180Y28971D01*
X53482Y25669D01*
X53650Y25556D01*
X53848Y25517D01*
X53848Y25517D01*
X161290D01*
X161488Y25556D01*
X161656Y25669D01*
X170470Y34483D01*
X170582Y34651D01*
X170622Y34849D01*
Y44301D01*
X170749Y44339D01*
X170833Y44214D01*
X170999Y44102D01*
X171069Y44088D01*
Y44577D01*
Y45066D01*
X170999Y45052D01*
X170833Y44940D01*
X170749Y44815D01*
X170622Y44853D01*
Y60813D01*
X170687Y60840D01*
X170928Y61025D01*
X171113Y61266D01*
X171230Y61547D01*
X171269Y61849D01*
X171230Y62151D01*
X171113Y62432D01*
X170928Y62673D01*
X170687Y62859D01*
X170406Y62975D01*
X170104Y63015D01*
X169802Y62975D01*
X169521Y62859D01*
X169280Y62673D01*
X169094Y62432D01*
X168978Y62151D01*
X168938Y61849D01*
X168978Y61547D01*
X169084Y61292D01*
X168976Y61220D01*
X168714Y61482D01*
X168741Y61547D01*
X168780Y61849D01*
X168741Y62151D01*
X168624Y62432D01*
X168439Y62673D01*
X168197Y62859D01*
X167916Y62975D01*
X167615Y63015D01*
X167313Y62975D01*
X167032Y62859D01*
X166790Y62673D01*
X166605Y62432D01*
X166489Y62151D01*
X166449Y61849D01*
X166489Y61547D01*
X166605Y61266D01*
X166790Y61025D01*
X167032Y60840D01*
X167313Y60723D01*
X167615Y60683D01*
X167916Y60723D01*
X167981Y60750D01*
X168519Y60212D01*
Y35902D01*
X160186Y27569D01*
X157378D01*
X157348Y27692D01*
X157413Y27727D01*
X157706Y27968D01*
X157947Y28261D01*
X158126Y28596D01*
X158236Y28959D01*
X158273Y29337D01*
X158236Y29715D01*
X158126Y30078D01*
X157947Y30413D01*
X157706Y30706D01*
X157413Y30947D01*
X157078Y31126D01*
X156715Y31236D01*
X156337Y31273D01*
X155959Y31236D01*
X155596Y31126D01*
X155261Y30947D01*
X154968Y30706D01*
X154727Y30413D01*
X154548Y30078D01*
X154438Y29715D01*
X154401Y29337D01*
X154438Y28959D01*
X154548Y28596D01*
X154727Y28261D01*
X154968Y27968D01*
X155261Y27727D01*
X155326Y27692D01*
X155296Y27569D01*
X145338D01*
X145308Y27692D01*
X145373Y27727D01*
X145666Y27968D01*
X145907Y28261D01*
X146086Y28596D01*
X146196Y28959D01*
X146233Y29337D01*
X146196Y29715D01*
X146086Y30078D01*
X145907Y30413D01*
X145666Y30706D01*
X145373Y30947D01*
X145038Y31126D01*
X144675Y31236D01*
X144297Y31273D01*
X143919Y31236D01*
X143556Y31126D01*
X143221Y30947D01*
X142928Y30706D01*
X142687Y30413D01*
X142508Y30078D01*
X142398Y29715D01*
X142361Y29337D01*
X142398Y28959D01*
X142508Y28596D01*
X142687Y28261D01*
X142928Y27968D01*
X143221Y27727D01*
X143286Y27692D01*
X143256Y27569D01*
X135518D01*
X135480Y27696D01*
X135491Y27704D01*
X135603Y27870D01*
X135642Y28067D01*
X135603Y28264D01*
X135491Y28430D01*
X135325Y28542D01*
X135128Y28581D01*
X134931Y28542D01*
X134765Y28430D01*
X134653Y28264D01*
X134614Y28067D01*
X134653Y27870D01*
X134765Y27704D01*
X134776Y27696D01*
X134738Y27569D01*
X124239D01*
X124186Y27696D01*
X129120Y32629D01*
X143129D01*
X143327Y32668D01*
X143495Y32781D01*
X163668Y52954D01*
X163762Y52868D01*
X163535Y52591D01*
X163322Y52192D01*
X163190Y51759D01*
X163146Y51308D01*
X163190Y50857D01*
X163322Y50424D01*
X163535Y50025D01*
X163822Y49675D01*
X164172Y49387D01*
X164572Y49174D01*
X165005Y49043D01*
X165456Y48998D01*
X165906Y49043D01*
X166340Y49174D01*
X166739Y49387D01*
X167089Y49675D01*
X167376Y50025D01*
X167590Y50424D01*
X167721Y50857D01*
X167765Y51308D01*
X167721Y51759D01*
X167590Y52192D01*
X167376Y52591D01*
X167089Y52941D01*
X166739Y53229D01*
X166340Y53442D01*
X165906Y53573D01*
X165456Y53618D01*
X165005Y53573D01*
X164572Y53442D01*
X164172Y53229D01*
X163895Y53001D01*
X163810Y53095D01*
X165466Y54752D01*
X165579Y54920D01*
X165618Y55118D01*
Y60813D01*
X165683Y60840D01*
X165924Y61025D01*
X166109Y61266D01*
X166226Y61547D01*
X166266Y61849D01*
X166226Y62151D01*
X166109Y62432D01*
X165924Y62673D01*
X165683Y62859D01*
X165402Y62975D01*
X165100Y63015D01*
X164798Y62975D01*
X164517Y62859D01*
X164276Y62673D01*
X164090Y62432D01*
X163974Y62151D01*
X163934Y61849D01*
X163974Y61547D01*
X164090Y61266D01*
X164276Y61025D01*
X164517Y60840D01*
X164582Y60813D01*
Y55333D01*
X158506Y49256D01*
X158379Y49309D01*
Y55284D01*
X162977Y59883D01*
X163089Y60051D01*
X163129Y60249D01*
Y60813D01*
X163194Y60840D01*
X163435Y61025D01*
X163620Y61266D01*
X163737Y61547D01*
X163776Y61849D01*
X163737Y62151D01*
X163620Y62432D01*
X163435Y62673D01*
X163194Y62859D01*
X162913Y62975D01*
X162611Y63015D01*
X162309Y62975D01*
X162028Y62859D01*
X161787Y62673D01*
X161601Y62432D01*
X161485Y62151D01*
X161445Y61849D01*
X161485Y61547D01*
X161601Y61266D01*
X161787Y61025D01*
X162028Y60840D01*
X162093Y60813D01*
Y60463D01*
X161422Y59792D01*
X161371Y59802D01*
X161297Y59848D01*
Y63936D01*
X161358Y64027D01*
X161416Y64031D01*
X161493Y64016D01*
X161601Y63755D01*
X161787Y63514D01*
X162028Y63329D01*
X162309Y63212D01*
X162611Y63173D01*
X162913Y63212D01*
X163194Y63329D01*
X163435Y63514D01*
X163620Y63755D01*
X163737Y64036D01*
X163776Y64338D01*
X163737Y64640D01*
X163620Y64921D01*
X163435Y65162D01*
X163194Y65348D01*
X162913Y65464D01*
X162611Y65504D01*
X162309Y65464D01*
X162028Y65348D01*
X161787Y65162D01*
X161601Y64921D01*
X161485Y64640D01*
X161473Y64553D01*
X161341Y64522D01*
X161272Y64625D01*
X161106Y64737D01*
X160909Y64776D01*
X160712Y64737D01*
X160662Y64703D01*
X160535Y64771D01*
Y65405D01*
X160506Y65554D01*
X160422Y65680D01*
X159351Y66750D01*
X159321Y66903D01*
X159209Y67069D01*
X159043Y67181D01*
X158846Y67220D01*
X158649Y67181D01*
X158483Y67069D01*
X158376Y66911D01*
X158367Y66909D01*
X158249Y66978D01*
Y67111D01*
X158336Y67240D01*
X158375Y67437D01*
X158336Y67634D01*
X158302Y67684D01*
X158370Y67811D01*
X161468D01*
X161616Y67840D01*
X161742Y67924D01*
X162115Y68297D01*
X162309Y68216D01*
X162611Y68176D01*
X162913Y68216D01*
X163194Y68332D01*
X163435Y68518D01*
X163620Y68759D01*
X163737Y69040D01*
X163776Y69342D01*
X163737Y69644D01*
X163620Y69925D01*
X163435Y70166D01*
X163194Y70352D01*
X162913Y70468D01*
X162611Y70508D01*
X162309Y70468D01*
X162028Y70352D01*
X161787Y70166D01*
X161601Y69925D01*
X161485Y69644D01*
X161445Y69342D01*
X161485Y69040D01*
X161565Y68846D01*
X161307Y68587D01*
X160057D01*
X160008Y68705D01*
X162115Y70811D01*
X162309Y70731D01*
X162611Y70691D01*
X162913Y70731D01*
X163194Y70847D01*
X163435Y71032D01*
X163620Y71274D01*
X163737Y71555D01*
X163776Y71857D01*
X163737Y72158D01*
X163620Y72439D01*
X163435Y72681D01*
X163194Y72866D01*
X162913Y72983D01*
X162611Y73022D01*
X162309Y72983D01*
X162028Y72866D01*
X161787Y72681D01*
X161601Y72439D01*
X161485Y72158D01*
X161445Y71857D01*
X161485Y71555D01*
X161565Y71361D01*
X159427Y69222D01*
X151263D01*
X151224Y69349D01*
X151239Y69360D01*
X151351Y69526D01*
X151390Y69723D01*
X151351Y69920D01*
X151239Y70086D01*
X151073Y70198D01*
X150876Y70237D01*
X150679Y70198D01*
X150513Y70086D01*
X150401Y69920D01*
X150362Y69723D01*
X150369Y69689D01*
X150252Y69627D01*
X149246Y70633D01*
X149150Y70697D01*
X149112Y70838D01*
X152231Y73957D01*
X161521D01*
X161601Y73763D01*
X161787Y73522D01*
X162028Y73336D01*
X162309Y73220D01*
X162611Y73180D01*
X162913Y73220D01*
X163194Y73336D01*
X163435Y73522D01*
X163620Y73763D01*
X163737Y74044D01*
X163776Y74346D01*
X163737Y74647D01*
X163620Y74929D01*
X163435Y75170D01*
X163194Y75355D01*
X162913Y75472D01*
X162611Y75511D01*
X162309Y75472D01*
X162028Y75355D01*
X161787Y75170D01*
X161601Y74929D01*
X161521Y74734D01*
X160540D01*
X160491Y74852D01*
X161682Y76043D01*
X161787Y76036D01*
X162028Y75851D01*
X162309Y75734D01*
X162611Y75695D01*
X162913Y75734D01*
X163194Y75851D01*
X163435Y76036D01*
X163620Y76278D01*
X163737Y76559D01*
X163776Y76860D01*
X163737Y77162D01*
X163620Y77443D01*
X163435Y77685D01*
X163194Y77870D01*
X162913Y77986D01*
X162611Y78026D01*
X162309Y77986D01*
X162028Y77870D01*
X161787Y77685D01*
X161601Y77443D01*
X161485Y77162D01*
X161448Y76885D01*
X161379Y76839D01*
X160780Y76239D01*
X160662Y76288D01*
Y76852D01*
X162115Y78304D01*
X162309Y78224D01*
X162611Y78184D01*
X162913Y78224D01*
X163194Y78340D01*
X163435Y78525D01*
X163620Y78767D01*
X163737Y79048D01*
X163776Y79350D01*
X163737Y79651D01*
X163620Y79932D01*
X163435Y80174D01*
X163194Y80359D01*
X162913Y80476D01*
X162611Y80515D01*
X162309Y80476D01*
X162028Y80359D01*
X161852Y80224D01*
X161768Y80320D01*
X162205Y80756D01*
X162309Y80713D01*
X162611Y80673D01*
X162913Y80713D01*
X163194Y80829D01*
X163435Y81015D01*
X163620Y81256D01*
X163737Y81537D01*
X163776Y81839D01*
X163737Y82141D01*
X163620Y82422D01*
X163435Y82663D01*
X163194Y82848D01*
X162913Y82965D01*
X162611Y83004D01*
X162309Y82965D01*
X162028Y82848D01*
X161787Y82663D01*
X161601Y82422D01*
X161485Y82141D01*
X161445Y81839D01*
X161485Y81537D01*
X161601Y81256D01*
X161603Y81254D01*
X160526Y80176D01*
X160408Y80225D01*
Y81602D01*
X162115Y83308D01*
X162309Y83227D01*
X162611Y83188D01*
X162913Y83227D01*
X163194Y83344D01*
X163435Y83529D01*
X163620Y83771D01*
X163737Y84052D01*
X163776Y84353D01*
X163737Y84655D01*
X163620Y84936D01*
X163435Y85178D01*
X163194Y85363D01*
X162951Y85464D01*
X162976Y85591D01*
X164735D01*
X164760Y85464D01*
X164517Y85363D01*
X164276Y85178D01*
X164090Y84936D01*
X163974Y84655D01*
X163934Y84353D01*
X163974Y84052D01*
X164090Y83771D01*
X164276Y83529D01*
X164517Y83344D01*
X164798Y83227D01*
X165100Y83188D01*
X165402Y83227D01*
X165683Y83344D01*
X165924Y83529D01*
X166109Y83771D01*
X166226Y84052D01*
X166266Y84353D01*
X166226Y84655D01*
X166109Y84936D01*
X165924Y85178D01*
X165683Y85363D01*
X165440Y85464D01*
X165465Y85591D01*
X167249D01*
X167275Y85464D01*
X167032Y85363D01*
X166790Y85178D01*
X166605Y84936D01*
X166489Y84655D01*
X166449Y84353D01*
X166489Y84052D01*
X166605Y83771D01*
X166790Y83529D01*
X167032Y83344D01*
X167313Y83227D01*
X167615Y83188D01*
X167916Y83227D01*
X168197Y83344D01*
X168439Y83529D01*
X168624Y83771D01*
X168741Y84052D01*
X168780Y84353D01*
X168741Y84655D01*
X168624Y84936D01*
X168439Y85178D01*
X168197Y85363D01*
X167954Y85464D01*
X167980Y85591D01*
X168317D01*
X169058Y84849D01*
X168978Y84655D01*
X168938Y84353D01*
X168978Y84052D01*
X169094Y83771D01*
X169280Y83529D01*
X169521Y83344D01*
X169802Y83227D01*
X170104Y83188D01*
X170406Y83227D01*
X170687Y83344D01*
X170928Y83529D01*
X171113Y83771D01*
X171230Y84052D01*
X171269Y84353D01*
X171230Y84655D01*
X171113Y84936D01*
X170928Y85178D01*
X170687Y85363D01*
X170406Y85479D01*
X170104Y85519D01*
X169802Y85479D01*
X169608Y85399D01*
X168753Y86254D01*
X168627Y86338D01*
X168478Y86367D01*
X161324D01*
X160332Y87359D01*
X160395Y87476D01*
X160426Y87470D01*
X161521D01*
X161601Y87276D01*
X161787Y87034D01*
X162028Y86849D01*
X162309Y86733D01*
X162611Y86693D01*
X162913Y86733D01*
X163194Y86849D01*
X163435Y87034D01*
X163620Y87276D01*
X163737Y87557D01*
X163776Y87859D01*
X163737Y88160D01*
X163620Y88441D01*
X163435Y88683D01*
X163327Y88766D01*
X163370Y88893D01*
X163517D01*
X164055Y88355D01*
X163974Y88160D01*
X163934Y87859D01*
X163974Y87557D01*
X164090Y87276D01*
X164276Y87034D01*
X164517Y86849D01*
X164798Y86733D01*
X165100Y86693D01*
X165402Y86733D01*
X165683Y86849D01*
X165924Y87034D01*
X166109Y87276D01*
X166226Y87557D01*
X166266Y87859D01*
X166226Y88160D01*
X166109Y88441D01*
X165924Y88683D01*
X165683Y88868D01*
X165402Y88985D01*
X165100Y89024D01*
X164798Y88985D01*
X164604Y88904D01*
X164098Y89410D01*
X164146Y89528D01*
X165396D01*
X166569Y88355D01*
X166489Y88160D01*
X166449Y87859D01*
X166489Y87557D01*
X166605Y87276D01*
X166790Y87034D01*
X167032Y86849D01*
X167313Y86733D01*
X167615Y86693D01*
X167916Y86733D01*
X168197Y86849D01*
X168439Y87034D01*
X168624Y87276D01*
X168741Y87557D01*
X168780Y87859D01*
X168741Y88160D01*
X168624Y88441D01*
X168439Y88683D01*
X168197Y88868D01*
X167916Y88985D01*
X167615Y89024D01*
X167313Y88985D01*
X167119Y88904D01*
X165832Y90191D01*
X165706Y90275D01*
X165557Y90304D01*
X165465D01*
X165440Y90431D01*
X165683Y90532D01*
X165924Y90717D01*
X166109Y90959D01*
X166226Y91240D01*
X166266Y91542D01*
X166226Y91843D01*
X166109Y92124D01*
X165924Y92366D01*
X165683Y92551D01*
X165402Y92668D01*
X165100Y92707D01*
X164798Y92668D01*
X164517Y92551D01*
X164276Y92366D01*
X164090Y92124D01*
X163974Y91843D01*
X163934Y91542D01*
X163974Y91240D01*
X164090Y90959D01*
X164276Y90717D01*
X164517Y90532D01*
X164760Y90431D01*
X164735Y90304D01*
X162976D01*
X162951Y90431D01*
X163194Y90532D01*
X163435Y90717D01*
X163620Y90959D01*
X163737Y91240D01*
X163776Y91542D01*
X163737Y91843D01*
X163620Y92124D01*
X163435Y92366D01*
X163194Y92551D01*
X162913Y92668D01*
X162611Y92707D01*
X162309Y92668D01*
X162028Y92551D01*
X161787Y92366D01*
X161601Y92124D01*
X161485Y91843D01*
X161445Y91542D01*
X161485Y91240D01*
X161601Y90959D01*
X161787Y90717D01*
X162028Y90532D01*
X162271Y90431D01*
X162246Y90304D01*
X160562D01*
X158644Y92223D01*
X158518Y92307D01*
X158369Y92336D01*
X142274D01*
X141104Y93506D01*
Y98552D01*
X141075Y98701D01*
X140991Y98827D01*
X138173Y101644D01*
X138143Y101797D01*
X138031Y101963D01*
X137865Y102075D01*
X137668Y102114D01*
D02*
G37*
G36*
X48895Y98929D02*
X48633Y98894D01*
X48389Y98793D01*
X48179Y98633D01*
X48019Y98423D01*
X47918Y98179D01*
X47883Y97917D01*
X47918Y97655D01*
X48019Y97411D01*
X48179Y97201D01*
X48389Y97041D01*
X48633Y96940D01*
X48895Y96905D01*
X49157Y96940D01*
X49401Y97041D01*
X49611Y97201D01*
X49771Y97411D01*
X49872Y97655D01*
X49907Y97917D01*
X49872Y98179D01*
X49771Y98423D01*
X49611Y98633D01*
X49401Y98793D01*
X49157Y98894D01*
X48895Y98929D01*
D02*
G37*
G36*
X41275D02*
X41013Y98894D01*
X40769Y98793D01*
X40559Y98633D01*
X40399Y98423D01*
X40298Y98179D01*
X40263Y97917D01*
X40298Y97655D01*
X40399Y97411D01*
X40559Y97201D01*
X40769Y97041D01*
X41013Y96940D01*
X41275Y96905D01*
X41537Y96940D01*
X41781Y97041D01*
X41991Y97201D01*
X42151Y97411D01*
X42252Y97655D01*
X42287Y97917D01*
X42252Y98179D01*
X42151Y98423D01*
X41991Y98633D01*
X41781Y98793D01*
X41537Y98894D01*
X41275Y98929D01*
D02*
G37*
G36*
X59309Y97796D02*
X59112Y97757D01*
X58946Y97645D01*
X58834Y97479D01*
X58795Y97282D01*
X58834Y97085D01*
X58946Y96919D01*
X59112Y96807D01*
X59309Y96768D01*
X59506Y96807D01*
X59672Y96919D01*
X59784Y97085D01*
X59823Y97282D01*
X59784Y97479D01*
X59672Y97645D01*
X59506Y97757D01*
X59309Y97796D01*
D02*
G37*
G36*
X102870Y96526D02*
X102673Y96487D01*
X102507Y96375D01*
X102395Y96209D01*
X102356Y96012D01*
X102395Y95815D01*
X102427Y95768D01*
X102359Y95641D01*
X95531D01*
X95402Y95728D01*
X95205Y95767D01*
X95008Y95728D01*
X94842Y95616D01*
X94730Y95450D01*
X94691Y95253D01*
X94730Y95056D01*
X94842Y94890D01*
X95008Y94778D01*
X95205Y94739D01*
X95402Y94778D01*
X95531Y94865D01*
X102109D01*
X102177Y94738D01*
X102141Y94685D01*
X102102Y94488D01*
X102141Y94291D01*
X102253Y94125D01*
X102419Y94013D01*
X102616Y93974D01*
X102813Y94013D01*
X102979Y94125D01*
X103091Y94291D01*
X103130Y94488D01*
X103091Y94685D01*
X103055Y94738D01*
X103123Y94865D01*
X108675D01*
X112896Y90644D01*
Y84019D01*
X112809Y83890D01*
X112770Y83693D01*
X112809Y83496D01*
X112921Y83330D01*
X113087Y83218D01*
X113284Y83179D01*
X113481Y83218D01*
X113647Y83330D01*
X113759Y83496D01*
X113798Y83693D01*
X113759Y83890D01*
X113672Y84019D01*
Y90805D01*
X113643Y90954D01*
X113559Y91080D01*
X109111Y95528D01*
X108985Y95612D01*
X108836Y95641D01*
X103381D01*
X103313Y95768D01*
X103345Y95815D01*
X103384Y96012D01*
X103345Y96209D01*
X103233Y96375D01*
X103067Y96487D01*
X102870Y96526D01*
D02*
G37*
G36*
X48895Y96389D02*
X48633Y96354D01*
X48389Y96253D01*
X48179Y96093D01*
X48019Y95883D01*
X47918Y95639D01*
X47883Y95377D01*
X47918Y95115D01*
X48019Y94871D01*
X48179Y94661D01*
X48389Y94501D01*
X48633Y94400D01*
X48895Y94365D01*
X49157Y94400D01*
X49401Y94501D01*
X49611Y94661D01*
X49771Y94871D01*
X49872Y95115D01*
X49907Y95377D01*
X49872Y95639D01*
X49771Y95883D01*
X49611Y96093D01*
X49401Y96253D01*
X49157Y96354D01*
X48895Y96389D01*
D02*
G37*
G36*
X41275D02*
X41013Y96354D01*
X40769Y96253D01*
X40559Y96093D01*
X40399Y95883D01*
X40298Y95639D01*
X40263Y95377D01*
X40298Y95115D01*
X40399Y94871D01*
X40559Y94661D01*
X40769Y94501D01*
X41013Y94400D01*
X41275Y94365D01*
X41537Y94400D01*
X41781Y94501D01*
X41991Y94661D01*
X42151Y94871D01*
X42252Y95115D01*
X42287Y95377D01*
X42252Y95639D01*
X42151Y95883D01*
X41991Y96093D01*
X41781Y96253D01*
X41537Y96354D01*
X41275Y96389D01*
D02*
G37*
G36*
X78359Y95383D02*
X78162Y95344D01*
X77996Y95232D01*
X77884Y95066D01*
X77845Y94869D01*
X77884Y94672D01*
X77996Y94506D01*
X78162Y94394D01*
X78359Y94355D01*
X78556Y94394D01*
X78722Y94506D01*
X78834Y94672D01*
X78873Y94869D01*
X78834Y95066D01*
X78722Y95232D01*
X78556Y95344D01*
X78359Y95383D01*
D02*
G37*
G36*
X53975Y105035D02*
X53778Y104996D01*
X53612Y104884D01*
X53500Y104718D01*
X53461Y104521D01*
X53500Y104324D01*
X53587Y104195D01*
Y98078D01*
X49274Y93766D01*
X49157Y93814D01*
X48895Y93849D01*
X48633Y93814D01*
X48389Y93713D01*
X48179Y93553D01*
X48019Y93343D01*
X47918Y93099D01*
X47883Y92837D01*
X47918Y92575D01*
X48019Y92331D01*
X48179Y92121D01*
X48389Y91961D01*
X48633Y91860D01*
X48895Y91825D01*
X49157Y91860D01*
X49401Y91961D01*
X49611Y92121D01*
X49771Y92331D01*
X49872Y92575D01*
X49907Y92837D01*
X49872Y93099D01*
X49824Y93216D01*
X54250Y97642D01*
X54334Y97768D01*
X54363Y97917D01*
Y104195D01*
X54450Y104324D01*
X54489Y104521D01*
X54450Y104718D01*
X54338Y104884D01*
X54172Y104996D01*
X53975Y105035D01*
D02*
G37*
G36*
X56134Y95808D02*
X55858Y95771D01*
X55601Y95665D01*
X55381Y95495D01*
X55211Y95275D01*
X55105Y95018D01*
X55068Y94742D01*
X55105Y94466D01*
X55211Y94209D01*
X55381Y93989D01*
X55601Y93819D01*
X55858Y93713D01*
X56134Y93676D01*
X56410Y93713D01*
X56667Y93819D01*
X56888Y93989D01*
X57057Y94209D01*
X57163Y94466D01*
X57200Y94742D01*
X57163Y95018D01*
X57057Y95275D01*
X56888Y95495D01*
X56667Y95665D01*
X56410Y95771D01*
X56134Y95808D01*
D02*
G37*
G36*
X41402Y93832D02*
Y92964D01*
X42270D01*
X42252Y93099D01*
X42151Y93343D01*
X41991Y93553D01*
X41781Y93713D01*
X41537Y93814D01*
X41402Y93832D01*
D02*
G37*
G36*
X41148D02*
X41013Y93814D01*
X40769Y93713D01*
X40559Y93553D01*
X40399Y93343D01*
X40298Y93099D01*
X40280Y92964D01*
X41148D01*
Y93832D01*
D02*
G37*
G36*
X62992Y93986D02*
X62795Y93947D01*
X62629Y93835D01*
X62517Y93669D01*
X62478Y93472D01*
X62517Y93275D01*
X62629Y93109D01*
X62795Y92997D01*
X62992Y92958D01*
X63189Y92997D01*
X63355Y93109D01*
X63467Y93275D01*
X63506Y93472D01*
X63467Y93669D01*
X63355Y93835D01*
X63189Y93947D01*
X62992Y93986D01*
D02*
G37*
G36*
X102870Y93859D02*
X102673Y93820D01*
X102507Y93708D01*
X102395Y93542D01*
X102356Y93345D01*
X102395Y93148D01*
X102507Y92982D01*
X102673Y92870D01*
X102870Y92831D01*
X103067Y92870D01*
X103233Y92982D01*
X103345Y93148D01*
X103384Y93345D01*
X103345Y93542D01*
X103233Y93708D01*
X103067Y93820D01*
X102870Y93859D01*
D02*
G37*
G36*
X104013Y93732D02*
X103816Y93693D01*
X103650Y93581D01*
X103538Y93415D01*
X103499Y93218D01*
X103538Y93021D01*
X103650Y92855D01*
X103816Y92743D01*
X104013Y92704D01*
X104210Y92743D01*
X104376Y92855D01*
X104488Y93021D01*
X104527Y93218D01*
X104488Y93415D01*
X104376Y93581D01*
X104210Y93693D01*
X104013Y93732D01*
D02*
G37*
G36*
X63881Y93097D02*
X63684Y93058D01*
X63518Y92946D01*
X63406Y92780D01*
X63367Y92583D01*
X63406Y92386D01*
X63518Y92220D01*
X63684Y92108D01*
X63881Y92069D01*
X64078Y92108D01*
X64244Y92220D01*
X64356Y92386D01*
X64395Y92583D01*
X64356Y92780D01*
X64244Y92946D01*
X64078Y93058D01*
X63881Y93097D01*
D02*
G37*
G36*
X42270Y92710D02*
X41402D01*
Y91842D01*
X41537Y91860D01*
X41781Y91961D01*
X41991Y92121D01*
X42151Y92331D01*
X42252Y92575D01*
X42270Y92710D01*
D02*
G37*
G36*
X41148D02*
X40280D01*
X40298Y92575D01*
X40399Y92331D01*
X40559Y92121D01*
X40769Y91961D01*
X41013Y91860D01*
X41148Y91842D01*
Y92710D01*
D02*
G37*
G36*
X56134Y93268D02*
X55858Y93231D01*
X55601Y93125D01*
X55381Y92955D01*
X55211Y92735D01*
X55105Y92478D01*
X55068Y92202D01*
X55105Y91926D01*
X55211Y91669D01*
X55381Y91449D01*
X55601Y91279D01*
X55858Y91173D01*
X56134Y91136D01*
X56410Y91173D01*
X56667Y91279D01*
X56888Y91449D01*
X57057Y91669D01*
X57163Y91926D01*
X57200Y92202D01*
X57163Y92478D01*
X57057Y92735D01*
X56888Y92955D01*
X56667Y93125D01*
X56410Y93231D01*
X56134Y93268D01*
D02*
G37*
G36*
X58435Y91588D02*
X58238Y91549D01*
X58072Y91437D01*
X57960Y91271D01*
X57921Y91074D01*
X57960Y90877D01*
X58072Y90711D01*
X58238Y90599D01*
X58435Y90560D01*
X58632Y90599D01*
X58798Y90711D01*
X58910Y90877D01*
X58949Y91074D01*
X58910Y91271D01*
X58798Y91437D01*
X58632Y91549D01*
X58435Y91588D01*
D02*
G37*
G36*
X167615Y92707D02*
X167313Y92668D01*
X167032Y92551D01*
X166790Y92366D01*
X166605Y92124D01*
X166489Y91843D01*
X166449Y91542D01*
X166489Y91240D01*
X166605Y90959D01*
X166790Y90717D01*
X167032Y90532D01*
X167313Y90416D01*
X167615Y90376D01*
X167916Y90416D01*
X168197Y90532D01*
X168439Y90717D01*
X168624Y90959D01*
X168741Y91240D01*
X168780Y91542D01*
X168741Y91843D01*
X168624Y92124D01*
X168439Y92366D01*
X168197Y92551D01*
X167916Y92668D01*
X167615Y92707D01*
D02*
G37*
G36*
X31877Y97552D02*
X31542Y97508D01*
X31231Y97379D01*
X30963Y97173D01*
X30758Y96906D01*
X30628Y96594D01*
X30584Y96259D01*
X30628Y95925D01*
X30758Y95613D01*
X30963Y95345D01*
X31231Y95140D01*
X31422Y95061D01*
Y94923D01*
X31231Y94844D01*
X30963Y94638D01*
X30758Y94371D01*
X30628Y94059D01*
X30584Y93724D01*
X30628Y93390D01*
X30758Y93078D01*
X30963Y92810D01*
X31231Y92605D01*
X31248Y92598D01*
X31223Y92471D01*
X30596D01*
Y89908D01*
X33159D01*
Y92471D01*
X32531D01*
X32506Y92598D01*
X32523Y92605D01*
X32791Y92810D01*
X32996Y93078D01*
X33126Y93390D01*
X33170Y93724D01*
X33126Y94059D01*
X32996Y94371D01*
X32791Y94638D01*
X32523Y94844D01*
X32332Y94923D01*
Y95061D01*
X32523Y95140D01*
X32791Y95345D01*
X32996Y95613D01*
X33126Y95925D01*
X33170Y96259D01*
X33126Y96594D01*
X32996Y96906D01*
X32791Y97173D01*
X32523Y97379D01*
X32212Y97508D01*
X31877Y97552D01*
D02*
G37*
G36*
X48895Y91309D02*
X48633Y91274D01*
X48389Y91173D01*
X48179Y91013D01*
X48019Y90803D01*
X47918Y90559D01*
X47883Y90297D01*
X47918Y90035D01*
X48019Y89791D01*
X48179Y89581D01*
X48389Y89421D01*
X48633Y89320D01*
X48895Y89285D01*
X49157Y89320D01*
X49401Y89421D01*
X49611Y89581D01*
X49771Y89791D01*
X49872Y90035D01*
X49907Y90297D01*
X49872Y90559D01*
X49771Y90803D01*
X49611Y91013D01*
X49401Y91173D01*
X49157Y91274D01*
X48895Y91309D01*
D02*
G37*
G36*
X41275D02*
X41013Y91274D01*
X40769Y91173D01*
X40559Y91013D01*
X40399Y90803D01*
X40298Y90559D01*
X40263Y90297D01*
X40298Y90035D01*
X40399Y89791D01*
X40559Y89581D01*
X40769Y89421D01*
X41013Y89320D01*
X41275Y89285D01*
X41537Y89320D01*
X41781Y89421D01*
X41991Y89581D01*
X42151Y89791D01*
X42252Y90035D01*
X42287Y90297D01*
X42252Y90559D01*
X42151Y90803D01*
X41991Y91013D01*
X41781Y91173D01*
X41537Y91274D01*
X41275Y91309D01*
D02*
G37*
G36*
X62484Y90049D02*
X62287Y90010D01*
X62121Y89898D01*
X62009Y89732D01*
X61970Y89535D01*
X62009Y89338D01*
X62121Y89172D01*
X62287Y89060D01*
X62484Y89021D01*
X62681Y89060D01*
X62847Y89172D01*
X62959Y89338D01*
X62998Y89535D01*
X62959Y89732D01*
X62847Y89898D01*
X62681Y90010D01*
X62484Y90049D01*
D02*
G37*
G36*
X75057Y89795D02*
X74860Y89756D01*
X74694Y89644D01*
X74582Y89478D01*
X74543Y89281D01*
X74582Y89084D01*
X74694Y88918D01*
X74860Y88806D01*
X75057Y88767D01*
X75254Y88806D01*
X75420Y88918D01*
X75532Y89084D01*
X75571Y89281D01*
X75532Y89478D01*
X75420Y89644D01*
X75254Y89756D01*
X75057Y89795D01*
D02*
G37*
G36*
X56134Y90728D02*
X55858Y90691D01*
X55601Y90585D01*
X55381Y90415D01*
X55211Y90195D01*
X55105Y89938D01*
X55068Y89662D01*
X55105Y89386D01*
X55211Y89129D01*
X55381Y88909D01*
X55601Y88739D01*
X55858Y88633D01*
X56134Y88596D01*
X56410Y88633D01*
X56667Y88739D01*
X56888Y88909D01*
X57057Y89129D01*
X57163Y89386D01*
X57200Y89662D01*
X57163Y89938D01*
X57057Y90195D01*
X56888Y90415D01*
X56667Y90585D01*
X56410Y90691D01*
X56134Y90728D01*
D02*
G37*
G36*
X145923Y88271D02*
X145726Y88232D01*
X145560Y88120D01*
X145448Y87954D01*
X145409Y87757D01*
X145438Y87611D01*
X145325Y87534D01*
X145231Y87597D01*
X145034Y87636D01*
X144837Y87597D01*
X144671Y87485D01*
X144559Y87319D01*
X144424Y87288D01*
X144342Y87343D01*
X144145Y87382D01*
X143948Y87343D01*
X143782Y87231D01*
X143670Y87065D01*
X143631Y86868D01*
X143670Y86671D01*
X143782Y86505D01*
X143948Y86393D01*
X144145Y86354D01*
X144342Y86393D01*
X144508Y86505D01*
X144620Y86671D01*
X144755Y86702D01*
X144837Y86647D01*
X145034Y86608D01*
X145231Y86647D01*
X145397Y86759D01*
X145509Y86925D01*
X145548Y87122D01*
X145519Y87268D01*
X145632Y87345D01*
X145726Y87282D01*
X145923Y87243D01*
X146120Y87282D01*
X146286Y87394D01*
X146398Y87560D01*
X146437Y87757D01*
X146398Y87954D01*
X146286Y88120D01*
X146120Y88232D01*
X145923Y88271D01*
D02*
G37*
G36*
X54356Y87865D02*
Y87503D01*
X54718D01*
X54704Y87573D01*
X54592Y87739D01*
X54426Y87851D01*
X54356Y87865D01*
D02*
G37*
G36*
X54102D02*
X54032Y87851D01*
X53866Y87739D01*
X53754Y87573D01*
X53740Y87503D01*
X54102D01*
Y87865D01*
D02*
G37*
G36*
X58420Y88525D02*
X58223Y88486D01*
X58057Y88374D01*
X57945Y88208D01*
X57906Y88011D01*
X57945Y87814D01*
X58057Y87648D01*
X58223Y87536D01*
X58420Y87497D01*
X58617Y87536D01*
X58783Y87648D01*
X58895Y87814D01*
X58934Y88011D01*
X58895Y88208D01*
X58783Y88374D01*
X58617Y88486D01*
X58420Y88525D01*
D02*
G37*
G36*
X54718Y87249D02*
X54356D01*
Y86887D01*
X54426Y86901D01*
X54592Y87013D01*
X54704Y87179D01*
X54718Y87249D01*
D02*
G37*
G36*
X54102D02*
X53740D01*
X53754Y87179D01*
X53866Y87013D01*
X54032Y86901D01*
X54102Y86887D01*
Y87249D01*
D02*
G37*
G36*
X117602Y87382D02*
X117405Y87343D01*
X117239Y87231D01*
X117127Y87065D01*
X117088Y86868D01*
X117127Y86671D01*
X117239Y86505D01*
X117405Y86393D01*
X117602Y86354D01*
X117799Y86393D01*
X117965Y86505D01*
X118077Y86671D01*
X118116Y86868D01*
X118077Y87065D01*
X117965Y87231D01*
X117799Y87343D01*
X117602Y87382D01*
D02*
G37*
G36*
X133604Y87255D02*
X133407Y87216D01*
X133241Y87104D01*
X133129Y86938D01*
X133090Y86741D01*
X133129Y86544D01*
X133241Y86378D01*
X133407Y86266D01*
X133604Y86227D01*
X133801Y86266D01*
X133967Y86378D01*
X134079Y86544D01*
X134118Y86741D01*
X134079Y86938D01*
X133967Y87104D01*
X133801Y87216D01*
X133604Y87255D01*
D02*
G37*
G36*
X109601D02*
X109404Y87216D01*
X109238Y87104D01*
X109126Y86938D01*
X109087Y86741D01*
X109126Y86544D01*
X109238Y86378D01*
X109404Y86266D01*
X109601Y86227D01*
X109798Y86266D01*
X109964Y86378D01*
X110076Y86544D01*
X110115Y86741D01*
X110076Y86938D01*
X109964Y87104D01*
X109798Y87216D01*
X109601Y87255D01*
D02*
G37*
G36*
X101600D02*
X101403Y87216D01*
X101237Y87104D01*
X101125Y86938D01*
X101086Y86741D01*
X101125Y86544D01*
X101237Y86378D01*
X101403Y86266D01*
X101600Y86227D01*
X101797Y86266D01*
X101963Y86378D01*
X102075Y86544D01*
X102114Y86741D01*
X102075Y86938D01*
X101963Y87104D01*
X101797Y87216D01*
X101600Y87255D01*
D02*
G37*
G36*
X93599D02*
X93402Y87216D01*
X93236Y87104D01*
X93124Y86938D01*
X93085Y86741D01*
X93124Y86544D01*
X93236Y86378D01*
X93402Y86266D01*
X93599Y86227D01*
X93796Y86266D01*
X93962Y86378D01*
X94074Y86544D01*
X94113Y86741D01*
X94074Y86938D01*
X93962Y87104D01*
X93796Y87216D01*
X93599Y87255D01*
D02*
G37*
G36*
X85598D02*
X85401Y87216D01*
X85235Y87104D01*
X85123Y86938D01*
X85084Y86741D01*
X85123Y86544D01*
X85235Y86378D01*
X85401Y86266D01*
X85598Y86227D01*
X85795Y86266D01*
X85961Y86378D01*
X86073Y86544D01*
X86112Y86741D01*
X86073Y86938D01*
X85961Y87104D01*
X85795Y87216D01*
X85598Y87255D01*
D02*
G37*
G36*
X77724D02*
X77527Y87216D01*
X77361Y87104D01*
X77249Y86938D01*
X77210Y86741D01*
X77249Y86544D01*
X77361Y86378D01*
X77527Y86266D01*
X77724Y86227D01*
X77921Y86266D01*
X78087Y86378D01*
X78199Y86544D01*
X78238Y86741D01*
X78199Y86938D01*
X78087Y87104D01*
X77921Y87216D01*
X77724Y87255D01*
D02*
G37*
G36*
X176022Y86874D02*
X175825Y86835D01*
X175659Y86723D01*
X175547Y86557D01*
X175508Y86360D01*
X175547Y86163D01*
X175659Y85997D01*
X175825Y85885D01*
X176022Y85846D01*
X176219Y85885D01*
X176385Y85997D01*
X176497Y86163D01*
X176536Y86360D01*
X176497Y86557D01*
X176385Y86723D01*
X176219Y86835D01*
X176022Y86874D01*
D02*
G37*
G36*
X153670Y86620D02*
X153473Y86581D01*
X153307Y86469D01*
X153195Y86303D01*
X153156Y86106D01*
X153195Y85909D01*
X153307Y85743D01*
X153473Y85631D01*
X153670Y85592D01*
X153867Y85631D01*
X154033Y85743D01*
X154145Y85909D01*
X154184Y86106D01*
X154145Y86303D01*
X154033Y86469D01*
X153867Y86581D01*
X153670Y86620D01*
D02*
G37*
G36*
X63500Y85985D02*
X63303Y85946D01*
X63137Y85834D01*
X63025Y85668D01*
X62986Y85471D01*
X63025Y85274D01*
X63137Y85108D01*
X63303Y84996D01*
X63500Y84957D01*
X63697Y84996D01*
X63863Y85108D01*
X63975Y85274D01*
X64014Y85471D01*
X63975Y85668D01*
X63863Y85834D01*
X63697Y85946D01*
X63500Y85985D01*
D02*
G37*
G36*
X135128Y85858D02*
X134931Y85819D01*
X134765Y85707D01*
X134653Y85541D01*
X134614Y85344D01*
X134653Y85147D01*
X134765Y84981D01*
X134931Y84869D01*
X135128Y84830D01*
X135325Y84869D01*
X135491Y84981D01*
X135603Y85147D01*
X135642Y85344D01*
X135603Y85541D01*
X135491Y85707D01*
X135325Y85819D01*
X135128Y85858D01*
D02*
G37*
G36*
X126746D02*
X126549Y85819D01*
X126383Y85707D01*
X126271Y85541D01*
X126232Y85344D01*
X126271Y85147D01*
X126383Y84981D01*
X126549Y84869D01*
X126746Y84830D01*
X126943Y84869D01*
X127109Y84981D01*
X127221Y85147D01*
X127260Y85344D01*
X127221Y85541D01*
X127109Y85707D01*
X126943Y85819D01*
X126746Y85858D01*
D02*
G37*
G36*
X58420Y85223D02*
X58223Y85184D01*
X58057Y85072D01*
X57945Y84906D01*
X57906Y84709D01*
X57945Y84512D01*
X58057Y84346D01*
X58223Y84234D01*
X58420Y84195D01*
X58617Y84234D01*
X58783Y84346D01*
X58895Y84512D01*
X58934Y84709D01*
X58895Y84906D01*
X58783Y85072D01*
X58617Y85184D01*
X58420Y85223D01*
D02*
G37*
G36*
X73406Y84055D02*
Y83693D01*
X73768D01*
X73754Y83763D01*
X73642Y83929D01*
X73476Y84041D01*
X73406Y84055D01*
D02*
G37*
G36*
X73152D02*
X73082Y84041D01*
X72916Y83929D01*
X72804Y83763D01*
X72790Y83693D01*
X73152D01*
Y84055D01*
D02*
G37*
G36*
X43942Y84588D02*
X43745Y84549D01*
X43579Y84437D01*
X43467Y84271D01*
X43428Y84074D01*
X43467Y83877D01*
X43579Y83711D01*
X43745Y83599D01*
X43942Y83560D01*
X44139Y83599D01*
X44305Y83711D01*
X44417Y83877D01*
X44456Y84074D01*
X44417Y84271D01*
X44305Y84437D01*
X44139Y84549D01*
X43942Y84588D01*
D02*
G37*
G36*
X136271Y83801D02*
Y83439D01*
X136633D01*
X136619Y83509D01*
X136507Y83675D01*
X136341Y83787D01*
X136271Y83801D01*
D02*
G37*
G36*
X136017D02*
X135947Y83787D01*
X135781Y83675D01*
X135669Y83509D01*
X135655Y83439D01*
X136017D01*
Y83801D01*
D02*
G37*
G36*
X156591Y84461D02*
X156394Y84422D01*
X156228Y84310D01*
X156116Y84144D01*
X156077Y83947D01*
X156116Y83750D01*
X156228Y83584D01*
X156394Y83472D01*
X156591Y83433D01*
X156788Y83472D01*
X156954Y83584D01*
X157066Y83750D01*
X157105Y83947D01*
X157066Y84144D01*
X156954Y84310D01*
X156788Y84422D01*
X156591Y84461D01*
D02*
G37*
G36*
X129667Y83547D02*
Y83185D01*
X130029D01*
X130015Y83255D01*
X129903Y83421D01*
X129737Y83533D01*
X129667Y83547D01*
D02*
G37*
G36*
X129413D02*
X129343Y83533D01*
X129177Y83421D01*
X129065Y83255D01*
X129051Y83185D01*
X129413D01*
Y83547D01*
D02*
G37*
G36*
X73768Y83439D02*
X73406D01*
Y83077D01*
X73476Y83091D01*
X73642Y83203D01*
X73754Y83369D01*
X73768Y83439D01*
D02*
G37*
G36*
X73152D02*
X72790D01*
X72804Y83369D01*
X72916Y83203D01*
X73082Y83091D01*
X73152Y83077D01*
Y83439D01*
D02*
G37*
G36*
X134493Y83420D02*
Y83058D01*
X134855D01*
X134841Y83128D01*
X134729Y83294D01*
X134563Y83406D01*
X134493Y83420D01*
D02*
G37*
G36*
X134239D02*
X134169Y83406D01*
X134003Y83294D01*
X133891Y83128D01*
X133877Y83058D01*
X134239D01*
Y83420D01*
D02*
G37*
G36*
X136633Y83185D02*
X136271D01*
Y82823D01*
X136341Y82837D01*
X136507Y82949D01*
X136619Y83115D01*
X136633Y83185D01*
D02*
G37*
G36*
X136017D02*
X135655D01*
X135669Y83115D01*
X135781Y82949D01*
X135947Y82837D01*
X136017Y82823D01*
Y83185D01*
D02*
G37*
G36*
X153162Y83826D02*
X152965Y83787D01*
X152799Y83675D01*
X152687Y83509D01*
X152648Y83312D01*
X152687Y83115D01*
X152799Y82949D01*
X152965Y82837D01*
X153162Y82798D01*
X153359Y82837D01*
X153525Y82949D01*
X153637Y83115D01*
X153676Y83312D01*
X153637Y83509D01*
X153525Y83675D01*
X153359Y83787D01*
X153162Y83826D01*
D02*
G37*
G36*
X130029Y82931D02*
X129667D01*
Y82569D01*
X129737Y82583D01*
X129903Y82695D01*
X130015Y82861D01*
X130029Y82931D01*
D02*
G37*
G36*
X129413D02*
X129051D01*
X129065Y82861D01*
X129177Y82695D01*
X129343Y82583D01*
X129413Y82569D01*
Y82931D01*
D02*
G37*
G36*
X134855Y82804D02*
X134493D01*
Y82442D01*
X134563Y82456D01*
X134729Y82568D01*
X134841Y82734D01*
X134855Y82804D01*
D02*
G37*
G36*
X134239D02*
X133877D01*
X133891Y82734D01*
X134003Y82568D01*
X134169Y82456D01*
X134239Y82442D01*
Y82804D01*
D02*
G37*
G36*
X56007Y84378D02*
X55731Y84341D01*
X55474Y84235D01*
X55254Y84065D01*
X55084Y83845D01*
X54978Y83588D01*
X54941Y83312D01*
X54978Y83036D01*
X55084Y82779D01*
X55254Y82559D01*
X55474Y82389D01*
X55731Y82283D01*
X56007Y82246D01*
X56283Y82283D01*
X56540Y82389D01*
X56761Y82559D01*
X56930Y82779D01*
X57036Y83036D01*
X57073Y83312D01*
X57036Y83588D01*
X56930Y83845D01*
X56761Y84065D01*
X56540Y84235D01*
X56283Y84341D01*
X56007Y84378D01*
D02*
G37*
G36*
X54102Y82531D02*
Y82169D01*
X54464D01*
X54450Y82239D01*
X54338Y82405D01*
X54172Y82517D01*
X54102Y82531D01*
D02*
G37*
G36*
X53848D02*
X53778Y82517D01*
X53612Y82405D01*
X53500Y82239D01*
X53486Y82169D01*
X53848D01*
Y82531D01*
D02*
G37*
G36*
X65405Y83064D02*
X65208Y83025D01*
X65042Y82913D01*
X64930Y82747D01*
X64891Y82550D01*
X64930Y82353D01*
X65042Y82187D01*
X65208Y82075D01*
X65405Y82036D01*
X65602Y82075D01*
X65768Y82187D01*
X65880Y82353D01*
X65919Y82550D01*
X65880Y82747D01*
X65768Y82913D01*
X65602Y83025D01*
X65405Y83064D01*
D02*
G37*
G36*
X155575Y82810D02*
X155378Y82771D01*
X155212Y82659D01*
X155100Y82493D01*
X155061Y82296D01*
X155100Y82099D01*
X155212Y81933D01*
X155378Y81821D01*
X155575Y81782D01*
X155772Y81821D01*
X155938Y81933D01*
X156050Y82099D01*
X156089Y82296D01*
X156050Y82493D01*
X155938Y82659D01*
X155772Y82771D01*
X155575Y82810D01*
D02*
G37*
G36*
X139827D02*
X139630Y82771D01*
X139464Y82659D01*
X139352Y82493D01*
X139313Y82296D01*
X139352Y82099D01*
X139464Y81933D01*
X139630Y81821D01*
X139827Y81782D01*
X140024Y81821D01*
X140190Y81933D01*
X140302Y82099D01*
X140341Y82296D01*
X140302Y82493D01*
X140190Y82659D01*
X140024Y82771D01*
X139827Y82810D01*
D02*
G37*
G36*
X127635D02*
X127438Y82771D01*
X127272Y82659D01*
X127160Y82493D01*
X127121Y82296D01*
X127160Y82099D01*
X127272Y81933D01*
X127438Y81821D01*
X127635Y81782D01*
X127832Y81821D01*
X127998Y81933D01*
X128110Y82099D01*
X128149Y82296D01*
X128110Y82493D01*
X127998Y82659D01*
X127832Y82771D01*
X127635Y82810D01*
D02*
G37*
G36*
X66675Y82683D02*
X66478Y82644D01*
X66312Y82532D01*
X66200Y82366D01*
X66161Y82169D01*
X66200Y81972D01*
X66312Y81806D01*
X66478Y81694D01*
X66675Y81655D01*
X66872Y81694D01*
X67038Y81806D01*
X67150Y81972D01*
X67189Y82169D01*
X67150Y82366D01*
X67038Y82532D01*
X66872Y82644D01*
X66675Y82683D01*
D02*
G37*
G36*
X54464Y81915D02*
X54102D01*
Y81553D01*
X54172Y81567D01*
X54338Y81679D01*
X54450Y81845D01*
X54464Y81915D01*
D02*
G37*
G36*
X53848D02*
X53486D01*
X53500Y81845D01*
X53612Y81679D01*
X53778Y81567D01*
X53848Y81553D01*
Y81915D01*
D02*
G37*
G36*
X39751Y116484D02*
X39580Y116461D01*
X39421Y116395D01*
X39285Y116290D01*
X39180Y116154D01*
X39114Y115995D01*
X39102Y115908D01*
X37734Y114539D01*
X37621Y114371D01*
X37582Y114173D01*
Y84543D01*
X34456Y81417D01*
X33177D01*
X33123Y81545D01*
X32918Y81813D01*
X32650Y82018D01*
X32459Y82098D01*
Y82235D01*
X32650Y82315D01*
X32918Y82520D01*
X33123Y82788D01*
X33253Y83099D01*
X33297Y83434D01*
X33253Y83769D01*
X33123Y84080D01*
X32918Y84348D01*
X32650Y84553D01*
X32339Y84683D01*
X32004Y84727D01*
X31669Y84683D01*
X31358Y84553D01*
X31090Y84348D01*
X30885Y84080D01*
X30755Y83769D01*
X30711Y83434D01*
X30755Y83099D01*
X30885Y82788D01*
X31090Y82520D01*
X31358Y82315D01*
X31549Y82235D01*
Y82098D01*
X31358Y82018D01*
X31090Y81813D01*
X30885Y81545D01*
X30755Y81234D01*
X30711Y80899D01*
X30755Y80564D01*
X30885Y80253D01*
X31090Y79985D01*
X31358Y79780D01*
X31375Y79772D01*
X31350Y79645D01*
X30722D01*
Y77082D01*
X33285D01*
Y79645D01*
X32658D01*
X32633Y79772D01*
X32650Y79780D01*
X32918Y79985D01*
X33123Y80253D01*
X33177Y80381D01*
X34671D01*
X34869Y80420D01*
X35037Y80533D01*
X38466Y83962D01*
X38579Y84130D01*
X38618Y84328D01*
Y113958D01*
X39835Y115175D01*
X39922Y115187D01*
X40081Y115253D01*
X40217Y115358D01*
X40322Y115494D01*
X40388Y115653D01*
X40411Y115824D01*
X40388Y115995D01*
X40322Y116154D01*
X40217Y116290D01*
X40081Y116395D01*
X39922Y116461D01*
X39751Y116484D01*
D02*
G37*
G36*
X136017Y82429D02*
X135820Y82390D01*
X135654Y82278D01*
X135542Y82112D01*
X135503Y81915D01*
X135542Y81718D01*
X135654Y81552D01*
X135820Y81440D01*
X136017Y81401D01*
X136214Y81440D01*
X136380Y81552D01*
X136492Y81718D01*
X136531Y81915D01*
X136492Y82112D01*
X136380Y82278D01*
X136214Y82390D01*
X136017Y82429D01*
D02*
G37*
G36*
X58420Y82302D02*
X58223Y82263D01*
X58057Y82151D01*
X57945Y81985D01*
X57906Y81788D01*
X57945Y81591D01*
X58057Y81425D01*
X58223Y81313D01*
X58420Y81274D01*
X58617Y81313D01*
X58783Y81425D01*
X58895Y81591D01*
X58934Y81788D01*
X58895Y81985D01*
X58783Y82151D01*
X58617Y82263D01*
X58420Y82302D01*
D02*
G37*
G36*
X70485Y81515D02*
Y81153D01*
X70847D01*
X70833Y81223D01*
X70721Y81389D01*
X70555Y81501D01*
X70485Y81515D01*
D02*
G37*
G36*
X70231D02*
X70161Y81501D01*
X69995Y81389D01*
X69883Y81223D01*
X69869Y81153D01*
X70231D01*
Y81515D01*
D02*
G37*
G36*
X43942Y81794D02*
X43745Y81755D01*
X43579Y81643D01*
X43467Y81477D01*
X43428Y81280D01*
X43467Y81083D01*
X43579Y80917D01*
X43745Y80805D01*
X43942Y80766D01*
X44139Y80805D01*
X44305Y80917D01*
X44417Y81083D01*
X44456Y81280D01*
X44417Y81477D01*
X44305Y81643D01*
X44139Y81755D01*
X43942Y81794D01*
D02*
G37*
G36*
X170104Y83004D02*
X169802Y82965D01*
X169521Y82848D01*
X169280Y82663D01*
X169094Y82422D01*
X168978Y82141D01*
X168938Y81839D01*
X168978Y81537D01*
X169094Y81256D01*
X169280Y81015D01*
X169521Y80829D01*
X169802Y80713D01*
X170104Y80673D01*
X170406Y80713D01*
X170687Y80829D01*
X170928Y81015D01*
X171113Y81256D01*
X171230Y81537D01*
X171269Y81839D01*
X171230Y82141D01*
X171113Y82422D01*
X170928Y82663D01*
X170687Y82848D01*
X170406Y82965D01*
X170104Y83004D01*
D02*
G37*
G36*
X167615D02*
X167313Y82965D01*
X167032Y82848D01*
X166790Y82663D01*
X166605Y82422D01*
X166489Y82141D01*
X166449Y81839D01*
X166489Y81537D01*
X166605Y81256D01*
X166790Y81015D01*
X167032Y80829D01*
X167313Y80713D01*
X167615Y80673D01*
X167916Y80713D01*
X168197Y80829D01*
X168439Y81015D01*
X168624Y81256D01*
X168741Y81537D01*
X168780Y81839D01*
X168741Y82141D01*
X168624Y82422D01*
X168439Y82663D01*
X168197Y82848D01*
X167916Y82965D01*
X167615Y83004D01*
D02*
G37*
G36*
X165100D02*
X164798Y82965D01*
X164517Y82848D01*
X164276Y82663D01*
X164090Y82422D01*
X163974Y82141D01*
X163934Y81839D01*
X163974Y81537D01*
X164090Y81256D01*
X164276Y81015D01*
X164517Y80829D01*
X164798Y80713D01*
X165100Y80673D01*
X165402Y80713D01*
X165683Y80829D01*
X165924Y81015D01*
X166109Y81256D01*
X166226Y81537D01*
X166266Y81839D01*
X166226Y82141D01*
X166109Y82422D01*
X165924Y82663D01*
X165683Y82848D01*
X165402Y82965D01*
X165100Y83004D01*
D02*
G37*
G36*
X126759Y81680D02*
X126562Y81641D01*
X126396Y81529D01*
X126284Y81363D01*
X126245Y81166D01*
X126284Y80969D01*
X126396Y80803D01*
X126562Y80691D01*
X126759Y80652D01*
X126956Y80691D01*
X127122Y80803D01*
X127234Y80969D01*
X127273Y81166D01*
X127234Y81363D01*
X127122Y81529D01*
X126956Y81641D01*
X126759Y81680D01*
D02*
G37*
G36*
X70847Y80899D02*
X70485D01*
Y80537D01*
X70555Y80551D01*
X70721Y80663D01*
X70833Y80829D01*
X70847Y80899D01*
D02*
G37*
G36*
X70231D02*
X69869D01*
X69883Y80829D01*
X69995Y80663D01*
X70161Y80551D01*
X70231Y80537D01*
Y80899D01*
D02*
G37*
G36*
X63473Y81540D02*
X63276Y81501D01*
X63110Y81389D01*
X62998Y81223D01*
X62959Y81026D01*
X62998Y80829D01*
X63110Y80663D01*
X63276Y80551D01*
X63473Y80512D01*
X63670Y80551D01*
X63836Y80663D01*
X63948Y80829D01*
X63987Y81026D01*
X63948Y81223D01*
X63836Y81389D01*
X63670Y81501D01*
X63473Y81540D01*
D02*
G37*
G36*
X158496Y81159D02*
X158299Y81120D01*
X158133Y81008D01*
X158021Y80842D01*
X157982Y80645D01*
X158021Y80448D01*
X158133Y80282D01*
X158299Y80170D01*
X158496Y80131D01*
X158693Y80170D01*
X158859Y80282D01*
X158971Y80448D01*
X159010Y80645D01*
X158971Y80842D01*
X158859Y81008D01*
X158693Y81120D01*
X158496Y81159D01*
D02*
G37*
G36*
X146177Y81413D02*
X145980Y81374D01*
X145814Y81262D01*
X145702Y81096D01*
X145663Y80899D01*
X145702Y80702D01*
X145814Y80536D01*
X145980Y80424D01*
X146177Y80385D01*
X146374Y80424D01*
X146438Y80467D01*
X146552Y80391D01*
X146591Y80194D01*
X146703Y80028D01*
X146869Y79916D01*
X147066Y79877D01*
X147263Y79916D01*
X147429Y80028D01*
X147541Y80194D01*
X147580Y80391D01*
X147541Y80588D01*
X147429Y80754D01*
X147263Y80866D01*
X147066Y80905D01*
X146869Y80866D01*
X146805Y80823D01*
X146691Y80899D01*
X146652Y81096D01*
X146540Y81262D01*
X146374Y81374D01*
X146177Y81413D01*
D02*
G37*
G36*
X56007Y81838D02*
X55731Y81801D01*
X55474Y81695D01*
X55254Y81525D01*
X55084Y81305D01*
X54978Y81048D01*
X54941Y80772D01*
X54978Y80496D01*
X55084Y80239D01*
X55254Y80019D01*
X55474Y79849D01*
X55731Y79743D01*
X56007Y79706D01*
X56283Y79743D01*
X56540Y79849D01*
X56761Y80019D01*
X56930Y80239D01*
X57036Y80496D01*
X57073Y80772D01*
X57036Y81048D01*
X56930Y81305D01*
X56761Y81525D01*
X56540Y81695D01*
X56283Y81801D01*
X56007Y81838D01*
D02*
G37*
G36*
X132207Y79610D02*
Y79248D01*
X132569D01*
X132555Y79318D01*
X132443Y79484D01*
X132277Y79596D01*
X132207Y79610D01*
D02*
G37*
G36*
X131953D02*
X131883Y79596D01*
X131717Y79484D01*
X131605Y79318D01*
X131591Y79248D01*
X131953D01*
Y79610D01*
D02*
G37*
G36*
X152654Y79762D02*
X152457Y79723D01*
X152291Y79611D01*
X152179Y79445D01*
X152140Y79248D01*
X152179Y79051D01*
X152291Y78885D01*
X152457Y78773D01*
X152654Y78734D01*
X152851Y78773D01*
X153017Y78885D01*
X153129Y79051D01*
X153168Y79248D01*
X153129Y79445D01*
X153017Y79611D01*
X152851Y79723D01*
X152654Y79762D01*
D02*
G37*
G36*
X132569Y78994D02*
X132207D01*
Y78632D01*
X132277Y78646D01*
X132443Y78758D01*
X132555Y78924D01*
X132569Y78994D01*
D02*
G37*
G36*
X131953D02*
X131591D01*
X131605Y78924D01*
X131717Y78758D01*
X131883Y78646D01*
X131953Y78632D01*
Y78994D01*
D02*
G37*
G36*
X167615Y80515D02*
X167313Y80476D01*
X167032Y80359D01*
X166790Y80174D01*
X166605Y79932D01*
X166489Y79651D01*
X166449Y79350D01*
X166489Y79048D01*
X166605Y78767D01*
X166790Y78525D01*
X167032Y78340D01*
X167313Y78224D01*
X167615Y78184D01*
X167916Y78224D01*
X168197Y78340D01*
X168439Y78525D01*
X168624Y78767D01*
X168741Y79048D01*
X168780Y79350D01*
X168741Y79651D01*
X168624Y79932D01*
X168439Y80174D01*
X168197Y80359D01*
X167916Y80476D01*
X167615Y80515D01*
D02*
G37*
G36*
X165100D02*
X164798Y80476D01*
X164517Y80359D01*
X164276Y80174D01*
X164090Y79932D01*
X163974Y79651D01*
X163934Y79350D01*
X163974Y79048D01*
X164090Y78767D01*
X164276Y78525D01*
X164517Y78340D01*
X164798Y78224D01*
X165100Y78184D01*
X165402Y78224D01*
X165683Y78340D01*
X165924Y78525D01*
X166109Y78767D01*
X166226Y79048D01*
X166266Y79350D01*
X166226Y79651D01*
X166109Y79932D01*
X165924Y80174D01*
X165683Y80359D01*
X165402Y80476D01*
X165100Y80515D01*
D02*
G37*
G36*
X136271Y79127D02*
X136074Y79088D01*
X135908Y78976D01*
X135796Y78810D01*
X135757Y78613D01*
X135796Y78416D01*
X135908Y78250D01*
X136074Y78138D01*
X136271Y78099D01*
X136468Y78138D01*
X136634Y78250D01*
X136746Y78416D01*
X136785Y78613D01*
X136746Y78810D01*
X136634Y78976D01*
X136468Y79088D01*
X136271Y79127D01*
D02*
G37*
G36*
X120904Y90938D02*
X120707Y90899D01*
X120541Y90787D01*
X120429Y90621D01*
X120390Y90424D01*
X120429Y90227D01*
X120516Y90098D01*
Y79502D01*
X120545Y79353D01*
X120629Y79227D01*
X121772Y78084D01*
X121898Y78000D01*
X122047Y77971D01*
X122483D01*
X122612Y77884D01*
X122809Y77845D01*
X123006Y77884D01*
X123172Y77996D01*
X123284Y78162D01*
X123323Y78359D01*
X123284Y78556D01*
X123172Y78722D01*
X123006Y78834D01*
X122809Y78873D01*
X122612Y78834D01*
X122483Y78747D01*
X122208D01*
X121292Y79663D01*
Y90098D01*
X121379Y90227D01*
X121418Y90424D01*
X121379Y90621D01*
X121267Y90787D01*
X121101Y90899D01*
X120904Y90938D01*
D02*
G37*
G36*
X140843Y79000D02*
X140646Y78961D01*
X140480Y78849D01*
X140368Y78683D01*
X140329Y78486D01*
X140368Y78289D01*
X140480Y78123D01*
X140550Y78075D01*
X140607Y77960D01*
X140495Y77794D01*
X140481Y77724D01*
X141459D01*
X141445Y77794D01*
X141333Y77960D01*
X141263Y78008D01*
X141206Y78123D01*
X141318Y78289D01*
X141357Y78486D01*
X141318Y78683D01*
X141206Y78849D01*
X141040Y78961D01*
X140843Y79000D01*
D02*
G37*
G36*
X129413Y78746D02*
X129216Y78707D01*
X129050Y78595D01*
X128938Y78429D01*
X128899Y78232D01*
X128938Y78035D01*
X129050Y77869D01*
X129216Y77757D01*
X129413Y77718D01*
X129610Y77757D01*
X129776Y77869D01*
X129888Y78035D01*
X129927Y78232D01*
X129888Y78429D01*
X129776Y78595D01*
X129610Y78707D01*
X129413Y78746D01*
D02*
G37*
G36*
X155321Y78619D02*
X155124Y78580D01*
X154958Y78468D01*
X154846Y78302D01*
X154807Y78105D01*
X154846Y77908D01*
X154958Y77742D01*
X155124Y77630D01*
X155321Y77591D01*
X155518Y77630D01*
X155684Y77742D01*
X155796Y77908D01*
X155835Y78105D01*
X155796Y78302D01*
X155684Y78468D01*
X155518Y78580D01*
X155321Y78619D01*
D02*
G37*
G36*
X134818Y78563D02*
X134621Y78524D01*
X134455Y78412D01*
X134343Y78246D01*
X134304Y78049D01*
X134343Y77852D01*
X134455Y77686D01*
X134621Y77574D01*
X134818Y77535D01*
X135015Y77574D01*
X135181Y77686D01*
X135293Y77852D01*
X135332Y78049D01*
X135293Y78246D01*
X135181Y78412D01*
X135015Y78524D01*
X134818Y78563D01*
D02*
G37*
G36*
X124333Y77578D02*
Y77216D01*
X124695D01*
X124681Y77286D01*
X124569Y77452D01*
X124403Y77564D01*
X124333Y77578D01*
D02*
G37*
G36*
X124079D02*
X124009Y77564D01*
X123843Y77452D01*
X123731Y77286D01*
X123717Y77216D01*
X124079D01*
Y77578D01*
D02*
G37*
G36*
X56007Y79298D02*
X55731Y79261D01*
X55474Y79155D01*
X55254Y78985D01*
X55084Y78765D01*
X54978Y78508D01*
X54941Y78232D01*
X54978Y77956D01*
X55084Y77699D01*
X55254Y77479D01*
X55474Y77309D01*
X55731Y77203D01*
X56007Y77166D01*
X56283Y77203D01*
X56540Y77309D01*
X56761Y77479D01*
X56930Y77699D01*
X57036Y77956D01*
X57073Y78232D01*
X57036Y78508D01*
X56930Y78765D01*
X56761Y78985D01*
X56540Y79155D01*
X56283Y79261D01*
X56007Y79298D01*
D02*
G37*
G36*
X141459Y77470D02*
X141097D01*
Y77108D01*
X141167Y77122D01*
X141333Y77234D01*
X141445Y77400D01*
X141459Y77470D01*
D02*
G37*
G36*
X140843D02*
X140481D01*
X140495Y77400D01*
X140607Y77234D01*
X140773Y77122D01*
X140843Y77108D01*
Y77470D01*
D02*
G37*
G36*
X64516Y77730D02*
X64319Y77691D01*
X64153Y77579D01*
X64041Y77413D01*
X64002Y77216D01*
X64041Y77019D01*
X64153Y76853D01*
X64319Y76741D01*
X64516Y76702D01*
X64713Y76741D01*
X64879Y76853D01*
X64991Y77019D01*
X65030Y77216D01*
X64991Y77413D01*
X64879Y77579D01*
X64713Y77691D01*
X64516Y77730D01*
D02*
G37*
G36*
X124695Y76962D02*
X124333D01*
Y76600D01*
X124403Y76614D01*
X124569Y76726D01*
X124681Y76892D01*
X124695Y76962D01*
D02*
G37*
G36*
X124079D02*
X123717D01*
X123731Y76892D01*
X123843Y76726D01*
X124009Y76614D01*
X124079Y76600D01*
Y76962D01*
D02*
G37*
G36*
X170104Y78026D02*
X169802Y77986D01*
X169521Y77870D01*
X169280Y77685D01*
X169094Y77443D01*
X168978Y77162D01*
X168938Y76860D01*
X168978Y76559D01*
X169094Y76278D01*
X169280Y76036D01*
X169521Y75851D01*
X169802Y75734D01*
X170104Y75695D01*
X170406Y75734D01*
X170687Y75851D01*
X170928Y76036D01*
X171113Y76278D01*
X171230Y76559D01*
X171269Y76860D01*
X171230Y77162D01*
X171113Y77443D01*
X170928Y77685D01*
X170687Y77870D01*
X170406Y77986D01*
X170104Y78026D01*
D02*
G37*
G36*
X167615D02*
X167313Y77986D01*
X167032Y77870D01*
X166790Y77685D01*
X166605Y77443D01*
X166489Y77162D01*
X166449Y76860D01*
X166489Y76559D01*
X166605Y76278D01*
X166790Y76036D01*
X167032Y75851D01*
X167313Y75734D01*
X167615Y75695D01*
X167916Y75734D01*
X168197Y75851D01*
X168439Y76036D01*
X168624Y76278D01*
X168741Y76559D01*
X168780Y76860D01*
X168741Y77162D01*
X168624Y77443D01*
X168439Y77685D01*
X168197Y77870D01*
X167916Y77986D01*
X167615Y78026D01*
D02*
G37*
G36*
X165100D02*
X164798Y77986D01*
X164517Y77870D01*
X164276Y77685D01*
X164090Y77443D01*
X163974Y77162D01*
X163934Y76860D01*
X163974Y76559D01*
X164090Y76278D01*
X164276Y76036D01*
X164517Y75851D01*
X164798Y75734D01*
X165100Y75695D01*
X165402Y75734D01*
X165683Y75851D01*
X165924Y76036D01*
X166109Y76278D01*
X166226Y76559D01*
X166266Y76860D01*
X166226Y77162D01*
X166109Y77443D01*
X165924Y77685D01*
X165683Y77870D01*
X165402Y77986D01*
X165100Y78026D01*
D02*
G37*
G36*
X128270Y75673D02*
Y75311D01*
X128632D01*
X128618Y75381D01*
X128506Y75547D01*
X128340Y75659D01*
X128270Y75673D01*
D02*
G37*
G36*
X128016D02*
X127946Y75659D01*
X127780Y75547D01*
X127668Y75381D01*
X127654Y75311D01*
X128016D01*
Y75673D01*
D02*
G37*
G36*
X59182Y76206D02*
X58985Y76167D01*
X58819Y76055D01*
X58707Y75889D01*
X58668Y75692D01*
X58707Y75495D01*
X58819Y75329D01*
X58985Y75217D01*
X59182Y75178D01*
X59379Y75217D01*
X59545Y75329D01*
X59657Y75495D01*
X59696Y75692D01*
X59657Y75889D01*
X59545Y76055D01*
X59379Y76167D01*
X59182Y76206D01*
D02*
G37*
G36*
X128632Y75057D02*
X128270D01*
Y74695D01*
X128340Y74709D01*
X128506Y74821D01*
X128618Y74987D01*
X128632Y75057D01*
D02*
G37*
G36*
X128016D02*
X127654D01*
X127668Y74987D01*
X127780Y74821D01*
X127946Y74709D01*
X128016Y74695D01*
Y75057D01*
D02*
G37*
G36*
X132334Y75038D02*
X132264Y75024D01*
X132098Y74912D01*
X131986Y74746D01*
X131972Y74676D01*
X132334D01*
Y75038D01*
D02*
G37*
G36*
X125349Y75698D02*
X125152Y75659D01*
X124986Y75547D01*
X124874Y75381D01*
X124835Y75184D01*
X124874Y74987D01*
X124986Y74821D01*
X125152Y74709D01*
X125349Y74670D01*
X125546Y74709D01*
X125712Y74821D01*
X125824Y74987D01*
X125863Y75184D01*
X125824Y75381D01*
X125712Y75547D01*
X125546Y75659D01*
X125349Y75698D01*
D02*
G37*
G36*
X132334Y74422D02*
X131972D01*
X131986Y74352D01*
X132098Y74186D01*
X132264Y74074D01*
X132334Y74060D01*
Y74422D01*
D02*
G37*
G36*
X143510Y74149D02*
Y73787D01*
X143872D01*
X143858Y73857D01*
X143746Y74023D01*
X143580Y74135D01*
X143510Y74149D01*
D02*
G37*
G36*
X51308Y74682D02*
X51111Y74643D01*
X50945Y74531D01*
X50833Y74365D01*
X50794Y74168D01*
X50833Y73971D01*
X50945Y73805D01*
X51111Y73693D01*
X51308Y73654D01*
X51505Y73693D01*
X51671Y73805D01*
X51783Y73971D01*
X51822Y74168D01*
X51783Y74365D01*
X51671Y74531D01*
X51505Y74643D01*
X51308Y74682D01*
D02*
G37*
G36*
X170104Y75511D02*
X169802Y75472D01*
X169521Y75355D01*
X169280Y75170D01*
X169094Y74929D01*
X168978Y74647D01*
X168938Y74346D01*
X168978Y74044D01*
X169094Y73763D01*
X169280Y73522D01*
X169521Y73336D01*
X169802Y73220D01*
X170104Y73180D01*
X170406Y73220D01*
X170687Y73336D01*
X170928Y73522D01*
X171113Y73763D01*
X171230Y74044D01*
X171269Y74346D01*
X171230Y74647D01*
X171113Y74929D01*
X170928Y75170D01*
X170687Y75355D01*
X170406Y75472D01*
X170104Y75511D01*
D02*
G37*
G36*
X167615D02*
X167313Y75472D01*
X167032Y75355D01*
X166790Y75170D01*
X166605Y74929D01*
X166489Y74647D01*
X166449Y74346D01*
X166489Y74044D01*
X166605Y73763D01*
X166790Y73522D01*
X167032Y73336D01*
X167313Y73220D01*
X167615Y73180D01*
X167916Y73220D01*
X168197Y73336D01*
X168439Y73522D01*
X168624Y73763D01*
X168741Y74044D01*
X168780Y74346D01*
X168741Y74647D01*
X168624Y74929D01*
X168439Y75170D01*
X168197Y75355D01*
X167916Y75472D01*
X167615Y75511D01*
D02*
G37*
G36*
X165100D02*
X164798Y75472D01*
X164517Y75355D01*
X164276Y75170D01*
X164090Y74929D01*
X163974Y74647D01*
X163934Y74346D01*
X163974Y74044D01*
X164090Y73763D01*
X164276Y73522D01*
X164517Y73336D01*
X164798Y73220D01*
X165100Y73180D01*
X165402Y73220D01*
X165683Y73336D01*
X165924Y73522D01*
X166109Y73763D01*
X166226Y74044D01*
X166266Y74346D01*
X166226Y74647D01*
X166109Y74929D01*
X165924Y75170D01*
X165683Y75355D01*
X165402Y75472D01*
X165100Y75511D01*
D02*
G37*
G36*
X167742Y73006D02*
Y71984D01*
X168764D01*
X168741Y72158D01*
X168624Y72439D01*
X168439Y72681D01*
X168197Y72866D01*
X167916Y72983D01*
X167742Y73006D01*
D02*
G37*
G36*
X167488D02*
X167313Y72983D01*
X167032Y72866D01*
X166790Y72681D01*
X166605Y72439D01*
X166489Y72158D01*
X166466Y71984D01*
X167488D01*
Y73006D01*
D02*
G37*
G36*
X157734Y72523D02*
X157537Y72484D01*
X157371Y72372D01*
X157259Y72206D01*
X157220Y72009D01*
X157259Y71812D01*
X157371Y71646D01*
X157537Y71534D01*
X157734Y71495D01*
X157931Y71534D01*
X158097Y71646D01*
X158209Y71812D01*
X158248Y72009D01*
X158209Y72206D01*
X158097Y72372D01*
X157931Y72484D01*
X157734Y72523D01*
D02*
G37*
G36*
X168764Y71730D02*
X167742D01*
Y70708D01*
X167916Y70731D01*
X168197Y70847D01*
X168439Y71032D01*
X168624Y71274D01*
X168741Y71555D01*
X168764Y71730D01*
D02*
G37*
G36*
X167488D02*
X166466D01*
X166489Y71555D01*
X166605Y71274D01*
X166790Y71032D01*
X167032Y70847D01*
X167313Y70731D01*
X167488Y70708D01*
Y71730D01*
D02*
G37*
G36*
X170104Y73022D02*
X169802Y72983D01*
X169521Y72866D01*
X169280Y72681D01*
X169094Y72439D01*
X168978Y72158D01*
X168938Y71857D01*
X168978Y71555D01*
X169094Y71274D01*
X169280Y71032D01*
X169521Y70847D01*
X169802Y70731D01*
X170104Y70691D01*
X170406Y70731D01*
X170687Y70847D01*
X170928Y71032D01*
X171113Y71274D01*
X171230Y71555D01*
X171269Y71857D01*
X171230Y72158D01*
X171113Y72439D01*
X170928Y72681D01*
X170687Y72866D01*
X170406Y72983D01*
X170104Y73022D01*
D02*
G37*
G36*
X165100D02*
X164798Y72983D01*
X164517Y72866D01*
X164276Y72681D01*
X164090Y72439D01*
X163974Y72158D01*
X163934Y71857D01*
X163974Y71555D01*
X164090Y71274D01*
X164276Y71032D01*
X164517Y70847D01*
X164798Y70731D01*
X165100Y70691D01*
X165402Y70731D01*
X165683Y70847D01*
X165924Y71032D01*
X166109Y71274D01*
X166226Y71555D01*
X166266Y71857D01*
X166226Y72158D01*
X166109Y72439D01*
X165924Y72681D01*
X165683Y72866D01*
X165402Y72983D01*
X165100Y73022D01*
D02*
G37*
G36*
X94201Y71443D02*
X93986Y71415D01*
X93785Y71332D01*
X93613Y71200D01*
X93481Y71028D01*
X93398Y70827D01*
X93370Y70612D01*
X93398Y70397D01*
X93481Y70196D01*
X93613Y70024D01*
X93785Y69892D01*
X93986Y69809D01*
X94201Y69781D01*
X94416Y69809D01*
X94617Y69892D01*
X94789Y70024D01*
X94921Y70196D01*
X95004Y70397D01*
X95032Y70612D01*
X95004Y70827D01*
X94921Y71028D01*
X94789Y71200D01*
X94617Y71332D01*
X94416Y71415D01*
X94201Y71443D01*
D02*
G37*
G36*
X170104Y70508D02*
X169802Y70468D01*
X169521Y70352D01*
X169280Y70166D01*
X169094Y69925D01*
X168978Y69644D01*
X168938Y69342D01*
X168978Y69040D01*
X169094Y68759D01*
X169280Y68518D01*
X169521Y68332D01*
X169802Y68216D01*
X170104Y68176D01*
X170406Y68216D01*
X170687Y68332D01*
X170928Y68518D01*
X171113Y68759D01*
X171230Y69040D01*
X171269Y69342D01*
X171230Y69644D01*
X171113Y69925D01*
X170928Y70166D01*
X170687Y70352D01*
X170406Y70468D01*
X170104Y70508D01*
D02*
G37*
G36*
X167615D02*
X167313Y70468D01*
X167032Y70352D01*
X166790Y70166D01*
X166605Y69925D01*
X166489Y69644D01*
X166449Y69342D01*
X166489Y69040D01*
X166605Y68759D01*
X166790Y68518D01*
X167032Y68332D01*
X167313Y68216D01*
X167615Y68176D01*
X167916Y68216D01*
X168197Y68332D01*
X168439Y68518D01*
X168624Y68759D01*
X168741Y69040D01*
X168780Y69342D01*
X168741Y69644D01*
X168624Y69925D01*
X168439Y70166D01*
X168197Y70352D01*
X167916Y70468D01*
X167615Y70508D01*
D02*
G37*
G36*
X165100D02*
X164798Y70468D01*
X164517Y70352D01*
X164276Y70166D01*
X164090Y69925D01*
X163974Y69644D01*
X163934Y69342D01*
X163974Y69040D01*
X164090Y68759D01*
X164276Y68518D01*
X164517Y68332D01*
X164798Y68216D01*
X165100Y68176D01*
X165402Y68216D01*
X165683Y68332D01*
X165924Y68518D01*
X166109Y68759D01*
X166226Y69040D01*
X166266Y69342D01*
X166226Y69644D01*
X166109Y69925D01*
X165924Y70166D01*
X165683Y70352D01*
X165402Y70468D01*
X165100Y70508D01*
D02*
G37*
G36*
X94201Y68903D02*
X93986Y68875D01*
X93785Y68792D01*
X93613Y68660D01*
X93481Y68488D01*
X93398Y68287D01*
X93370Y68072D01*
X93398Y67857D01*
X93481Y67656D01*
X93613Y67484D01*
X93785Y67352D01*
X93986Y67269D01*
X94201Y67241D01*
X94416Y67269D01*
X94617Y67352D01*
X94789Y67484D01*
X94921Y67656D01*
X95004Y67857D01*
X95032Y68072D01*
X95004Y68287D01*
X94921Y68488D01*
X94789Y68660D01*
X94617Y68792D01*
X94416Y68875D01*
X94201Y68903D01*
D02*
G37*
G36*
X170104Y68018D02*
X169802Y67979D01*
X169521Y67862D01*
X169280Y67677D01*
X169094Y67436D01*
X168978Y67155D01*
X168938Y66853D01*
X168978Y66551D01*
X169094Y66270D01*
X169280Y66029D01*
X169521Y65843D01*
X169802Y65727D01*
X170104Y65687D01*
X170406Y65727D01*
X170687Y65843D01*
X170928Y66029D01*
X171113Y66270D01*
X171230Y66551D01*
X171269Y66853D01*
X171230Y67155D01*
X171113Y67436D01*
X170928Y67677D01*
X170687Y67862D01*
X170406Y67979D01*
X170104Y68018D01*
D02*
G37*
G36*
X167615D02*
X167313Y67979D01*
X167032Y67862D01*
X166790Y67677D01*
X166605Y67436D01*
X166489Y67155D01*
X166449Y66853D01*
X166489Y66551D01*
X166605Y66270D01*
X166790Y66029D01*
X167032Y65843D01*
X167313Y65727D01*
X167615Y65687D01*
X167916Y65727D01*
X168197Y65843D01*
X168439Y66029D01*
X168624Y66270D01*
X168741Y66551D01*
X168780Y66853D01*
X168741Y67155D01*
X168624Y67436D01*
X168439Y67677D01*
X168197Y67862D01*
X167916Y67979D01*
X167615Y68018D01*
D02*
G37*
G36*
X165100D02*
X164798Y67979D01*
X164517Y67862D01*
X164276Y67677D01*
X164090Y67436D01*
X163974Y67155D01*
X163934Y66853D01*
X163974Y66551D01*
X164090Y66270D01*
X164276Y66029D01*
X164517Y65843D01*
X164798Y65727D01*
X165100Y65687D01*
X165402Y65727D01*
X165683Y65843D01*
X165924Y66029D01*
X166109Y66270D01*
X166226Y66551D01*
X166266Y66853D01*
X166226Y67155D01*
X166109Y67436D01*
X165924Y67677D01*
X165683Y67862D01*
X165402Y67979D01*
X165100Y68018D01*
D02*
G37*
G36*
X162611D02*
X162309Y67979D01*
X162028Y67862D01*
X161787Y67677D01*
X161601Y67436D01*
X161485Y67155D01*
X161445Y66853D01*
X161485Y66551D01*
X161601Y66270D01*
X161787Y66029D01*
X162028Y65843D01*
X162309Y65727D01*
X162611Y65687D01*
X162913Y65727D01*
X163194Y65843D01*
X163435Y66029D01*
X163620Y66270D01*
X163737Y66551D01*
X163776Y66853D01*
X163737Y67155D01*
X163620Y67436D01*
X163435Y67677D01*
X163194Y67862D01*
X162913Y67979D01*
X162611Y68018D01*
D02*
G37*
G36*
X94201Y66363D02*
X93986Y66335D01*
X93785Y66252D01*
X93613Y66120D01*
X93481Y65948D01*
X93398Y65747D01*
X93370Y65532D01*
X93398Y65317D01*
X93481Y65116D01*
X93613Y64944D01*
X93785Y64812D01*
X93986Y64729D01*
X94201Y64701D01*
X94416Y64729D01*
X94617Y64812D01*
X94789Y64944D01*
X94921Y65116D01*
X95004Y65317D01*
X95032Y65532D01*
X95004Y65747D01*
X94921Y65948D01*
X94789Y66120D01*
X94617Y66252D01*
X94416Y66335D01*
X94201Y66363D01*
D02*
G37*
G36*
X170104Y65504D02*
X169802Y65464D01*
X169521Y65348D01*
X169280Y65162D01*
X169094Y64921D01*
X168978Y64640D01*
X168938Y64338D01*
X168978Y64036D01*
X169094Y63755D01*
X169280Y63514D01*
X169521Y63329D01*
X169802Y63212D01*
X170104Y63173D01*
X170406Y63212D01*
X170687Y63329D01*
X170928Y63514D01*
X171113Y63755D01*
X171230Y64036D01*
X171269Y64338D01*
X171230Y64640D01*
X171113Y64921D01*
X170928Y65162D01*
X170687Y65348D01*
X170406Y65464D01*
X170104Y65504D01*
D02*
G37*
G36*
X167615D02*
X167313Y65464D01*
X167032Y65348D01*
X166790Y65162D01*
X166605Y64921D01*
X166489Y64640D01*
X166449Y64338D01*
X166489Y64036D01*
X166605Y63755D01*
X166790Y63514D01*
X167032Y63329D01*
X167313Y63212D01*
X167615Y63173D01*
X167916Y63212D01*
X168197Y63329D01*
X168439Y63514D01*
X168624Y63755D01*
X168741Y64036D01*
X168780Y64338D01*
X168741Y64640D01*
X168624Y64921D01*
X168439Y65162D01*
X168197Y65348D01*
X167916Y65464D01*
X167615Y65504D01*
D02*
G37*
G36*
X165100D02*
X164798Y65464D01*
X164517Y65348D01*
X164276Y65162D01*
X164090Y64921D01*
X163974Y64640D01*
X163934Y64338D01*
X163974Y64036D01*
X164090Y63755D01*
X164276Y63514D01*
X164517Y63329D01*
X164798Y63212D01*
X165100Y63173D01*
X165402Y63212D01*
X165683Y63329D01*
X165924Y63514D01*
X166109Y63755D01*
X166226Y64036D01*
X166266Y64338D01*
X166226Y64640D01*
X166109Y64921D01*
X165924Y65162D01*
X165683Y65348D01*
X165402Y65464D01*
X165100Y65504D01*
D02*
G37*
G36*
X65564Y65575D02*
X63468D01*
X63128Y65530D01*
X62812Y65399D01*
X62540Y65190D01*
X62331Y64918D01*
X62200Y64602D01*
X62155Y64262D01*
X62200Y63922D01*
X62331Y63606D01*
X62540Y63334D01*
X62812Y63125D01*
X63128Y62994D01*
X63468Y62949D01*
X65564D01*
X65904Y62994D01*
X66220Y63125D01*
X66492Y63334D01*
X66701Y63606D01*
X66832Y63922D01*
X66877Y64262D01*
X66832Y64602D01*
X66701Y64918D01*
X66492Y65190D01*
X66220Y65399D01*
X65904Y65530D01*
X65564Y65575D01*
D02*
G37*
G36*
X32925D02*
X30829D01*
X30489Y65530D01*
X30173Y65399D01*
X29901Y65190D01*
X29692Y64918D01*
X29561Y64602D01*
X29516Y64262D01*
X29561Y63922D01*
X29692Y63606D01*
X29901Y63334D01*
X30173Y63125D01*
X30489Y62994D01*
X30829Y62949D01*
X32925D01*
X33265Y62994D01*
X33581Y63125D01*
X33853Y63334D01*
X34062Y63606D01*
X34193Y63922D01*
X34238Y64262D01*
X34193Y64602D01*
X34062Y64918D01*
X33853Y65190D01*
X33581Y65399D01*
X33265Y65530D01*
X32925Y65575D01*
D02*
G37*
G36*
X94201Y63823D02*
X93986Y63795D01*
X93785Y63712D01*
X93613Y63580D01*
X93481Y63408D01*
X93398Y63207D01*
X93370Y62992D01*
X93398Y62777D01*
X93481Y62576D01*
X93613Y62404D01*
X93785Y62272D01*
X93986Y62189D01*
X94201Y62161D01*
X94416Y62189D01*
X94617Y62272D01*
X94789Y62404D01*
X94921Y62576D01*
X95004Y62777D01*
X95032Y62992D01*
X95004Y63207D01*
X94921Y63408D01*
X94789Y63580D01*
X94617Y63712D01*
X94416Y63795D01*
X94201Y63823D01*
D02*
G37*
G36*
X175710Y61786D02*
X175514Y61746D01*
X175347Y61635D01*
X175236Y61468D01*
X175196Y61272D01*
X175236Y61075D01*
X175347Y60908D01*
X175514Y60797D01*
X175710Y60758D01*
X175907Y60797D01*
X176074Y60908D01*
X176185Y61075D01*
X176224Y61272D01*
X176185Y61468D01*
X176074Y61635D01*
X175907Y61746D01*
X175710Y61786D01*
D02*
G37*
G36*
X167386Y59950D02*
X167189Y59911D01*
X167023Y59799D01*
X166911Y59633D01*
X166872Y59436D01*
X166911Y59239D01*
X167023Y59073D01*
X167189Y58961D01*
X167386Y58922D01*
X167583Y58961D01*
X167749Y59073D01*
X167861Y59239D01*
X167900Y59436D01*
X167861Y59633D01*
X167749Y59799D01*
X167583Y59911D01*
X167386Y59950D01*
D02*
G37*
G36*
X94074Y60521D02*
X93859Y60493D01*
X93658Y60410D01*
X93486Y60278D01*
X93354Y60106D01*
X93271Y59905D01*
X93243Y59690D01*
X93271Y59475D01*
X93354Y59274D01*
X93486Y59102D01*
X93658Y58970D01*
X93859Y58887D01*
X94074Y58859D01*
X94289Y58887D01*
X94490Y58970D01*
X94662Y59102D01*
X94794Y59274D01*
X94877Y59475D01*
X94905Y59690D01*
X94877Y59905D01*
X94794Y60106D01*
X94662Y60278D01*
X94490Y60410D01*
X94289Y60493D01*
X94074Y60521D01*
D02*
G37*
G36*
X84836Y61124D02*
X84383Y61079D01*
X83947Y60947D01*
X83546Y60732D01*
X83194Y60443D01*
X82905Y60091D01*
X82690Y59690D01*
X82558Y59254D01*
X82513Y58801D01*
X82558Y58348D01*
X82690Y57912D01*
X82905Y57511D01*
X83194Y57159D01*
X83546Y56870D01*
X83947Y56655D01*
X84383Y56523D01*
X84836Y56478D01*
X85289Y56523D01*
X85725Y56655D01*
X86126Y56870D01*
X86478Y57159D01*
X86767Y57511D01*
X86982Y57912D01*
X87114Y58348D01*
X87159Y58801D01*
X87114Y59254D01*
X86982Y59690D01*
X86767Y60091D01*
X86478Y60443D01*
X86126Y60732D01*
X85725Y60947D01*
X85289Y61079D01*
X84836Y61124D01*
D02*
G37*
G36*
X52197D02*
X51744Y61079D01*
X51308Y60947D01*
X50907Y60732D01*
X50555Y60443D01*
X50266Y60091D01*
X50051Y59690D01*
X49919Y59254D01*
X49874Y58801D01*
X49919Y58348D01*
X50051Y57912D01*
X50266Y57511D01*
X50555Y57159D01*
X50907Y56870D01*
X51308Y56655D01*
X51744Y56523D01*
X52197Y56478D01*
X52650Y56523D01*
X53086Y56655D01*
X53487Y56870D01*
X53839Y57159D01*
X54128Y57511D01*
X54343Y57912D01*
X54475Y58348D01*
X54520Y58801D01*
X54475Y59254D01*
X54343Y59690D01*
X54128Y60091D01*
X53839Y60443D01*
X53487Y60732D01*
X53086Y60947D01*
X52650Y61079D01*
X52197Y61124D01*
D02*
G37*
G36*
X94074Y57981D02*
X93859Y57953D01*
X93658Y57870D01*
X93486Y57738D01*
X93354Y57566D01*
X93271Y57365D01*
X93243Y57150D01*
X93271Y56935D01*
X93354Y56734D01*
X93486Y56562D01*
X93658Y56430D01*
X93859Y56347D01*
X94074Y56319D01*
X94289Y56347D01*
X94490Y56430D01*
X94662Y56562D01*
X94794Y56734D01*
X94877Y56935D01*
X94905Y57150D01*
X94877Y57365D01*
X94794Y57566D01*
X94662Y57738D01*
X94490Y57870D01*
X94289Y57953D01*
X94074Y57981D01*
D02*
G37*
G36*
X102141Y55424D02*
Y54737D01*
X102828D01*
X102817Y54825D01*
X102734Y55026D01*
X102602Y55198D01*
X102430Y55330D01*
X102229Y55413D01*
X102141Y55424D01*
D02*
G37*
G36*
X101887D02*
X101799Y55413D01*
X101598Y55330D01*
X101426Y55198D01*
X101294Y55026D01*
X101211Y54825D01*
X101200Y54737D01*
X101887D01*
Y55424D01*
D02*
G37*
G36*
X161620Y56819D02*
X161252Y56771D01*
X160909Y56629D01*
X160615Y56403D01*
X160389Y56108D01*
X160247Y55765D01*
X160198Y55397D01*
X160247Y55029D01*
X160389Y54686D01*
X160615Y54392D01*
X160909Y54166D01*
X161252Y54024D01*
X161620Y53976D01*
X161988Y54024D01*
X162331Y54166D01*
X162626Y54392D01*
X162852Y54686D01*
X162994Y55029D01*
X163042Y55397D01*
X162994Y55765D01*
X162852Y56108D01*
X162626Y56403D01*
X162331Y56629D01*
X161988Y56771D01*
X161620Y56819D01*
D02*
G37*
G36*
X106553Y54997D02*
X106356Y54958D01*
X106190Y54846D01*
X106078Y54680D01*
X106039Y54483D01*
X106078Y54286D01*
X106190Y54120D01*
X106356Y54008D01*
X106553Y53969D01*
X106750Y54008D01*
X106916Y54120D01*
X107028Y54286D01*
X107067Y54483D01*
X107028Y54680D01*
X106916Y54846D01*
X106750Y54958D01*
X106553Y54997D01*
D02*
G37*
G36*
X102828Y54483D02*
X102141D01*
Y53796D01*
X102229Y53807D01*
X102430Y53890D01*
X102602Y54022D01*
X102734Y54194D01*
X102817Y54395D01*
X102828Y54483D01*
D02*
G37*
G36*
X101887D02*
X101200D01*
X101211Y54395D01*
X101294Y54194D01*
X101426Y54022D01*
X101598Y53890D01*
X101799Y53807D01*
X101887Y53796D01*
Y54483D01*
D02*
G37*
G36*
X94074Y55441D02*
X93859Y55413D01*
X93658Y55330D01*
X93486Y55198D01*
X93354Y55026D01*
X93271Y54825D01*
X93243Y54610D01*
X93271Y54395D01*
X93354Y54194D01*
X93486Y54022D01*
X93658Y53890D01*
X93859Y53807D01*
X94074Y53779D01*
X94289Y53807D01*
X94490Y53890D01*
X94662Y54022D01*
X94794Y54194D01*
X94877Y54395D01*
X94905Y54610D01*
X94877Y54825D01*
X94794Y55026D01*
X94662Y55198D01*
X94490Y55330D01*
X94289Y55413D01*
X94074Y55441D01*
D02*
G37*
G36*
X96520Y53854D02*
X96323Y53815D01*
X96157Y53703D01*
X96045Y53537D01*
X96006Y53340D01*
X96045Y53143D01*
X96157Y52977D01*
X96323Y52865D01*
X96520Y52826D01*
X96717Y52865D01*
X96883Y52977D01*
X96995Y53143D01*
X97034Y53340D01*
X96995Y53537D01*
X96883Y53703D01*
X96717Y53815D01*
X96520Y53854D01*
D02*
G37*
G36*
X97663Y53416D02*
X97466Y53377D01*
X97300Y53266D01*
X97188Y53099D01*
X97149Y52902D01*
X97188Y52706D01*
X97300Y52539D01*
X97466Y52427D01*
X97663Y52388D01*
X97860Y52427D01*
X98026Y52539D01*
X98138Y52706D01*
X98177Y52902D01*
X98138Y53099D01*
X98026Y53266D01*
X97860Y53377D01*
X97663Y53416D01*
D02*
G37*
G36*
X102141Y52884D02*
Y52197D01*
X102828D01*
X102817Y52285D01*
X102734Y52486D01*
X102602Y52658D01*
X102430Y52790D01*
X102229Y52873D01*
X102141Y52884D01*
D02*
G37*
G36*
X101887D02*
X101799Y52873D01*
X101598Y52790D01*
X101426Y52658D01*
X101294Y52486D01*
X101211Y52285D01*
X101200Y52197D01*
X101887D01*
Y52884D01*
D02*
G37*
G36*
X100584Y53219D02*
X100387Y53180D01*
X100221Y53068D01*
X100109Y52902D01*
X100070Y52705D01*
X100109Y52508D01*
X100221Y52342D01*
X100387Y52230D01*
X100584Y52191D01*
X100781Y52230D01*
X100947Y52342D01*
X101059Y52508D01*
X101098Y52705D01*
X101059Y52902D01*
X100947Y53068D01*
X100781Y53180D01*
X100584Y53219D01*
D02*
G37*
G36*
X65564Y54653D02*
X63468D01*
X63128Y54608D01*
X62812Y54477D01*
X62540Y54268D01*
X62331Y53996D01*
X62200Y53680D01*
X62155Y53340D01*
X62200Y53000D01*
X62331Y52684D01*
X62540Y52412D01*
X62812Y52203D01*
X63128Y52072D01*
X63468Y52027D01*
X65564D01*
X65904Y52072D01*
X66220Y52203D01*
X66492Y52412D01*
X66701Y52684D01*
X66832Y53000D01*
X66877Y53340D01*
X66832Y53680D01*
X66701Y53996D01*
X66492Y54268D01*
X66220Y54477D01*
X65904Y54608D01*
X65564Y54653D01*
D02*
G37*
G36*
X32925D02*
X30829D01*
X30489Y54608D01*
X30173Y54477D01*
X29901Y54268D01*
X29692Y53996D01*
X29561Y53680D01*
X29516Y53340D01*
X29561Y53000D01*
X29692Y52684D01*
X29901Y52412D01*
X30173Y52203D01*
X30489Y52072D01*
X30829Y52027D01*
X32925D01*
X33265Y52072D01*
X33581Y52203D01*
X33853Y52412D01*
X34062Y52684D01*
X34193Y53000D01*
X34238Y53340D01*
X34193Y53680D01*
X34062Y53996D01*
X33853Y54268D01*
X33581Y54477D01*
X33265Y54608D01*
X32925Y54653D01*
D02*
G37*
G36*
X99441Y52627D02*
X99244Y52588D01*
X99078Y52476D01*
X98966Y52310D01*
X98927Y52113D01*
X98966Y51916D01*
X99078Y51750D01*
X99244Y51638D01*
X99441Y51599D01*
X99638Y51638D01*
X99804Y51750D01*
X99916Y51916D01*
X99955Y52113D01*
X99916Y52310D01*
X99804Y52476D01*
X99638Y52588D01*
X99441Y52627D01*
D02*
G37*
G36*
X102828Y51943D02*
X102141D01*
Y51256D01*
X102229Y51267D01*
X102430Y51350D01*
X102602Y51482D01*
X102734Y51654D01*
X102817Y51855D01*
X102828Y51943D01*
D02*
G37*
G36*
X101887D02*
X101200D01*
X101211Y51855D01*
X101294Y51654D01*
X101426Y51482D01*
X101598Y51350D01*
X101799Y51267D01*
X101887Y51256D01*
Y51943D01*
D02*
G37*
G36*
X94074Y52901D02*
X93859Y52873D01*
X93658Y52790D01*
X93486Y52658D01*
X93354Y52486D01*
X93271Y52285D01*
X93243Y52070D01*
X93271Y51855D01*
X93354Y51654D01*
X93486Y51482D01*
X93658Y51350D01*
X93859Y51267D01*
X94074Y51239D01*
X94289Y51267D01*
X94490Y51350D01*
X94662Y51482D01*
X94794Y51654D01*
X94877Y51855D01*
X94905Y52070D01*
X94877Y52285D01*
X94794Y52486D01*
X94662Y52658D01*
X94490Y52790D01*
X94289Y52873D01*
X94074Y52901D01*
D02*
G37*
G36*
X58293Y53927D02*
Y50800D01*
X61420D01*
X61390Y51184D01*
X61270Y51682D01*
X61074Y52155D01*
X60807Y52592D01*
X60474Y52981D01*
X60085Y53314D01*
X59648Y53581D01*
X59175Y53777D01*
X58677Y53897D01*
X58293Y53927D01*
D02*
G37*
G36*
X58039D02*
X57655Y53897D01*
X57157Y53777D01*
X56684Y53581D01*
X56247Y53314D01*
X55858Y52981D01*
X55525Y52592D01*
X55258Y52155D01*
X55062Y51682D01*
X54942Y51184D01*
X54912Y50800D01*
X58039D01*
Y53927D01*
D02*
G37*
G36*
X172212Y50273D02*
Y49911D01*
X172574D01*
X172560Y49981D01*
X172448Y50147D01*
X172282Y50259D01*
X172212Y50273D01*
D02*
G37*
G36*
X171958D02*
X171888Y50259D01*
X171722Y50147D01*
X171610Y49981D01*
X171596Y49911D01*
X171958D01*
Y50273D01*
D02*
G37*
G36*
X172574Y49657D02*
X172212D01*
Y49295D01*
X172282Y49309D01*
X172448Y49421D01*
X172560Y49587D01*
X172574Y49657D01*
D02*
G37*
G36*
X171958D02*
X171596D01*
X171610Y49587D01*
X171722Y49421D01*
X171888Y49309D01*
X171958Y49295D01*
Y49657D01*
D02*
G37*
G36*
X106934Y51822D02*
X106737Y51783D01*
X106571Y51671D01*
X106459Y51505D01*
X106429Y51352D01*
X106138Y51061D01*
X99441D01*
X99292Y51032D01*
X99166Y50948D01*
X97375Y49156D01*
X94805D01*
X94794Y49184D01*
X94662Y49356D01*
X94490Y49488D01*
X94289Y49571D01*
X94074Y49599D01*
X93859Y49571D01*
X93658Y49488D01*
X93486Y49356D01*
X93354Y49184D01*
X93271Y48983D01*
X93243Y48768D01*
X93271Y48553D01*
X93354Y48352D01*
X93486Y48180D01*
X93658Y48048D01*
X93859Y47965D01*
X94074Y47937D01*
X94289Y47965D01*
X94490Y48048D01*
X94662Y48180D01*
X94794Y48352D01*
X94805Y48380D01*
X97536D01*
X97685Y48409D01*
X97811Y48493D01*
X99602Y50285D01*
X106299D01*
X106448Y50314D01*
X106574Y50398D01*
X106978Y50803D01*
X107131Y50833D01*
X107297Y50945D01*
X107409Y51111D01*
X107448Y51308D01*
X107409Y51505D01*
X107297Y51671D01*
X107131Y51783D01*
X106934Y51822D01*
D02*
G37*
G36*
X102014Y49599D02*
X101799Y49571D01*
X101598Y49488D01*
X101426Y49356D01*
X101294Y49184D01*
X101211Y48983D01*
X101183Y48768D01*
X101211Y48553D01*
X101294Y48352D01*
X101426Y48180D01*
X101478Y48140D01*
X101435Y48013D01*
X98370D01*
X98241Y48100D01*
X98044Y48139D01*
X97847Y48100D01*
X97681Y47988D01*
X97569Y47822D01*
X97530Y47625D01*
X97569Y47428D01*
X97681Y47262D01*
X97847Y47150D01*
X98044Y47111D01*
X98241Y47150D01*
X98370Y47237D01*
X109656D01*
X109785Y47150D01*
X109982Y47111D01*
X110179Y47150D01*
X110345Y47262D01*
X110457Y47428D01*
X110496Y47625D01*
X110457Y47822D01*
X110345Y47988D01*
X110179Y48100D01*
X109982Y48139D01*
X109785Y48100D01*
X109656Y48013D01*
X102593D01*
X102550Y48140D01*
X102602Y48180D01*
X102734Y48352D01*
X102817Y48553D01*
X102845Y48768D01*
X102817Y48983D01*
X102734Y49184D01*
X102602Y49356D01*
X102430Y49488D01*
X102229Y49571D01*
X102014Y49599D01*
D02*
G37*
G36*
X164592Y47987D02*
Y47625D01*
X164954D01*
X164940Y47695D01*
X164828Y47861D01*
X164662Y47973D01*
X164592Y47987D01*
D02*
G37*
G36*
X164338D02*
X164268Y47973D01*
X164102Y47861D01*
X163990Y47695D01*
X163976Y47625D01*
X164338D01*
Y47987D01*
D02*
G37*
G36*
X61420Y50546D02*
X58293D01*
Y47419D01*
X58677Y47449D01*
X59175Y47569D01*
X59648Y47765D01*
X60085Y48032D01*
X60474Y48365D01*
X60807Y48754D01*
X61074Y49191D01*
X61270Y49664D01*
X61390Y50162D01*
X61420Y50546D01*
D02*
G37*
G36*
X58039D02*
X54912D01*
X54942Y50162D01*
X55062Y49664D01*
X55258Y49191D01*
X55525Y48754D01*
X55858Y48365D01*
X56247Y48032D01*
X56684Y47765D01*
X57157Y47569D01*
X57655Y47449D01*
X58039Y47419D01*
Y50546D01*
D02*
G37*
G36*
X164954Y47371D02*
X164592D01*
Y47009D01*
X164662Y47023D01*
X164828Y47135D01*
X164940Y47301D01*
X164954Y47371D01*
D02*
G37*
G36*
X164338D02*
X163976D01*
X163990Y47301D01*
X164102Y47135D01*
X164268Y47023D01*
X164338Y47009D01*
Y47371D01*
D02*
G37*
G36*
X65564Y49192D02*
X63468D01*
X63128Y49147D01*
X62812Y49016D01*
X62540Y48807D01*
X62331Y48535D01*
X62200Y48219D01*
X62155Y47879D01*
X62200Y47539D01*
X62331Y47223D01*
X62540Y46951D01*
X62812Y46742D01*
X63128Y46611D01*
X63468Y46566D01*
X65564D01*
X65904Y46611D01*
X66220Y46742D01*
X66492Y46951D01*
X66701Y47223D01*
X66832Y47539D01*
X66877Y47879D01*
X66832Y48219D01*
X66701Y48535D01*
X66492Y48807D01*
X66220Y49016D01*
X65904Y49147D01*
X65564Y49192D01*
D02*
G37*
G36*
X32925D02*
X30829D01*
X30489Y49147D01*
X30173Y49016D01*
X29901Y48807D01*
X29692Y48535D01*
X29561Y48219D01*
X29516Y47879D01*
X29561Y47539D01*
X29692Y47223D01*
X29901Y46951D01*
X30173Y46742D01*
X30489Y46611D01*
X30829Y46566D01*
X32925D01*
X33265Y46611D01*
X33581Y46742D01*
X33853Y46951D01*
X34062Y47223D01*
X34193Y47539D01*
X34238Y47879D01*
X34193Y48219D01*
X34062Y48535D01*
X33853Y48807D01*
X33581Y49016D01*
X33265Y49147D01*
X32925Y49192D01*
D02*
G37*
G36*
X175387Y46590D02*
Y46228D01*
X175749D01*
X175735Y46298D01*
X175623Y46464D01*
X175457Y46576D01*
X175387Y46590D01*
D02*
G37*
G36*
X175133D02*
X175063Y46576D01*
X174897Y46464D01*
X174785Y46298D01*
X174771Y46228D01*
X175133D01*
Y46590D01*
D02*
G37*
G36*
X175749Y45974D02*
X175387D01*
Y45612D01*
X175457Y45626D01*
X175623Y45738D01*
X175735Y45904D01*
X175749Y45974D01*
D02*
G37*
G36*
X175133D02*
X174771D01*
X174785Y45904D01*
X174897Y45738D01*
X175063Y45626D01*
X175133Y45612D01*
Y45974D01*
D02*
G37*
G36*
X102014Y47059D02*
X101799Y47031D01*
X101598Y46948D01*
X101426Y46816D01*
X101294Y46644D01*
X101211Y46443D01*
X101183Y46228D01*
X101211Y46013D01*
X101294Y45812D01*
X101426Y45640D01*
X101598Y45508D01*
X101799Y45425D01*
X102014Y45397D01*
X102229Y45425D01*
X102430Y45508D01*
X102602Y45640D01*
X102734Y45812D01*
X102817Y46013D01*
X102845Y46228D01*
X102817Y46443D01*
X102734Y46644D01*
X102602Y46816D01*
X102430Y46948D01*
X102229Y47031D01*
X102014Y47059D01*
D02*
G37*
G36*
X94074D02*
X93859Y47031D01*
X93658Y46948D01*
X93486Y46816D01*
X93354Y46644D01*
X93271Y46443D01*
X93243Y46228D01*
X93271Y46013D01*
X93354Y45812D01*
X93486Y45640D01*
X93658Y45508D01*
X93859Y45425D01*
X94074Y45397D01*
X94289Y45425D01*
X94490Y45508D01*
X94662Y45640D01*
X94794Y45812D01*
X94877Y46013D01*
X94905Y46228D01*
X94877Y46443D01*
X94794Y46644D01*
X94662Y46816D01*
X94490Y46948D01*
X94289Y47031D01*
X94074Y47059D01*
D02*
G37*
G36*
X171323Y45066D02*
Y44704D01*
X171685D01*
X171671Y44774D01*
X171559Y44940D01*
X171393Y45052D01*
X171323Y45066D01*
D02*
G37*
G36*
X171685Y44450D02*
X171323D01*
Y44088D01*
X171393Y44102D01*
X171559Y44214D01*
X171671Y44380D01*
X171685Y44450D01*
D02*
G37*
G36*
X164084Y44177D02*
Y43815D01*
X164446D01*
X164432Y43885D01*
X164320Y44051D01*
X164154Y44163D01*
X164084Y44177D01*
D02*
G37*
G36*
X163830D02*
X163760Y44163D01*
X163594Y44051D01*
X163482Y43885D01*
X163468Y43815D01*
X163830D01*
Y44177D01*
D02*
G37*
G36*
X102141Y44502D02*
Y43815D01*
X102828D01*
X102817Y43903D01*
X102734Y44104D01*
X102602Y44276D01*
X102430Y44408D01*
X102229Y44491D01*
X102141Y44502D01*
D02*
G37*
G36*
X101887D02*
X101799Y44491D01*
X101598Y44408D01*
X101426Y44276D01*
X101294Y44104D01*
X101211Y43903D01*
X101200Y43815D01*
X101887D01*
Y44502D01*
D02*
G37*
G36*
X164446Y43561D02*
X164084D01*
Y43199D01*
X164154Y43213D01*
X164320Y43325D01*
X164432Y43491D01*
X164446Y43561D01*
D02*
G37*
G36*
X163830D02*
X163468D01*
X163482Y43491D01*
X163594Y43325D01*
X163760Y43213D01*
X163830Y43199D01*
Y43561D01*
D02*
G37*
G36*
X94074Y44519D02*
X93859Y44491D01*
X93658Y44408D01*
X93486Y44276D01*
X93354Y44104D01*
X93271Y43903D01*
X93243Y43688D01*
X93271Y43473D01*
X93354Y43272D01*
X93486Y43100D01*
X93658Y42968D01*
X93859Y42885D01*
X94074Y42857D01*
X94289Y42885D01*
X94490Y42968D01*
X94662Y43100D01*
X94794Y43272D01*
X94877Y43473D01*
X94905Y43688D01*
X94877Y43903D01*
X94794Y44104D01*
X94662Y44276D01*
X94490Y44408D01*
X94289Y44491D01*
X94074Y44519D01*
D02*
G37*
G36*
X158496Y43821D02*
X158299Y43782D01*
X158133Y43670D01*
X158021Y43504D01*
X157982Y43307D01*
X158021Y43110D01*
X158133Y42944D01*
X158299Y42832D01*
X158496Y42793D01*
X158693Y42832D01*
X158859Y42944D01*
X158971Y43110D01*
X159010Y43307D01*
X158971Y43504D01*
X158859Y43670D01*
X158693Y43782D01*
X158496Y43821D01*
D02*
G37*
G36*
X157594Y42691D02*
X157397Y42652D01*
X157231Y42540D01*
X157119Y42374D01*
X157080Y42177D01*
X157119Y41980D01*
X157231Y41814D01*
X157397Y41702D01*
X157594Y41663D01*
X157791Y41702D01*
X157957Y41814D01*
X158069Y41980D01*
X158108Y42177D01*
X158069Y42374D01*
X157957Y42540D01*
X157791Y42652D01*
X157594Y42691D01*
D02*
G37*
G36*
X166497Y42551D02*
X166300Y42512D01*
X166134Y42400D01*
X166022Y42234D01*
X165983Y42037D01*
X166022Y41840D01*
X166134Y41674D01*
X166300Y41562D01*
X166497Y41523D01*
X166694Y41562D01*
X166860Y41674D01*
X166972Y41840D01*
X167011Y42037D01*
X166972Y42234D01*
X166860Y42400D01*
X166694Y42512D01*
X166497Y42551D01*
D02*
G37*
G36*
X102828Y43561D02*
X101200D01*
X101211Y43473D01*
X101294Y43272D01*
X101426Y43100D01*
X101598Y42968D01*
X101682Y42933D01*
X101657Y42806D01*
X100457D01*
X100308Y42777D01*
X100182Y42693D01*
X95724Y38234D01*
X94932D01*
X94921Y38262D01*
X94789Y38434D01*
X94617Y38566D01*
X94416Y38649D01*
X94201Y38677D01*
X93986Y38649D01*
X93785Y38566D01*
X93613Y38434D01*
X93481Y38262D01*
X93398Y38061D01*
X93370Y37846D01*
X93398Y37631D01*
X93481Y37430D01*
X93613Y37258D01*
X93785Y37126D01*
X93986Y37043D01*
X94201Y37015D01*
X94416Y37043D01*
X94617Y37126D01*
X94789Y37258D01*
X94921Y37430D01*
X94932Y37458D01*
X95885D01*
X96034Y37487D01*
X96160Y37571D01*
X100618Y42030D01*
X101657D01*
X101682Y41903D01*
X101598Y41868D01*
X101426Y41736D01*
X101294Y41564D01*
X101211Y41363D01*
X101200Y41275D01*
X102828D01*
X102817Y41363D01*
X102734Y41564D01*
X102602Y41736D01*
X102430Y41868D01*
X102346Y41903D01*
X102371Y42030D01*
X104648D01*
X104797Y42059D01*
X104923Y42143D01*
X105200Y42421D01*
X105353Y42451D01*
X105519Y42563D01*
X105631Y42729D01*
X105670Y42926D01*
X105631Y43123D01*
X105519Y43289D01*
X105353Y43401D01*
X105156Y43440D01*
X104959Y43401D01*
X104793Y43289D01*
X104681Y43123D01*
X104651Y42970D01*
X104487Y42806D01*
X102371D01*
X102346Y42933D01*
X102430Y42968D01*
X102602Y43100D01*
X102734Y43272D01*
X102817Y43473D01*
X102828Y43561D01*
D02*
G37*
G36*
X65564Y43731D02*
X63468D01*
X63128Y43686D01*
X62812Y43555D01*
X62540Y43346D01*
X62331Y43074D01*
X62200Y42758D01*
X62155Y42418D01*
X62200Y42078D01*
X62331Y41762D01*
X62540Y41490D01*
X62812Y41281D01*
X63128Y41150D01*
X63468Y41105D01*
X65564D01*
X65904Y41150D01*
X66220Y41281D01*
X66492Y41490D01*
X66701Y41762D01*
X66832Y42078D01*
X66877Y42418D01*
X66832Y42758D01*
X66701Y43074D01*
X66492Y43346D01*
X66220Y43555D01*
X65904Y43686D01*
X65564Y43731D01*
D02*
G37*
G36*
X32925D02*
X30829D01*
X30489Y43686D01*
X30173Y43555D01*
X29901Y43346D01*
X29692Y43074D01*
X29561Y42758D01*
X29516Y42418D01*
X29561Y42078D01*
X29692Y41762D01*
X29901Y41490D01*
X30173Y41281D01*
X30489Y41150D01*
X30829Y41105D01*
X32925D01*
X33265Y41150D01*
X33581Y41281D01*
X33853Y41490D01*
X34062Y41762D01*
X34193Y42078D01*
X34238Y42418D01*
X34193Y42758D01*
X34062Y43074D01*
X33853Y43346D01*
X33581Y43555D01*
X33265Y43686D01*
X32925Y43731D01*
D02*
G37*
G36*
X102828Y41021D02*
X102141D01*
Y40334D01*
X102229Y40345D01*
X102430Y40428D01*
X102602Y40560D01*
X102734Y40732D01*
X102817Y40933D01*
X102828Y41021D01*
D02*
G37*
G36*
X101887D02*
X101200D01*
X101211Y40933D01*
X101294Y40732D01*
X101426Y40560D01*
X101598Y40428D01*
X101799Y40345D01*
X101887Y40334D01*
Y41021D01*
D02*
G37*
G36*
X94074Y41979D02*
X93859Y41951D01*
X93658Y41868D01*
X93486Y41736D01*
X93354Y41564D01*
X93271Y41363D01*
X93243Y41148D01*
X93271Y40933D01*
X93354Y40732D01*
X93486Y40560D01*
X93658Y40428D01*
X93859Y40345D01*
X94074Y40317D01*
X94289Y40345D01*
X94490Y40428D01*
X94662Y40560D01*
X94794Y40732D01*
X94877Y40933D01*
X94905Y41148D01*
X94877Y41363D01*
X94794Y41564D01*
X94662Y41736D01*
X94490Y41868D01*
X94289Y41951D01*
X94074Y41979D01*
D02*
G37*
G36*
X84836Y44741D02*
X84383Y44696D01*
X83947Y44564D01*
X83546Y44349D01*
X83194Y44060D01*
X82905Y43708D01*
X82690Y43307D01*
X82558Y42871D01*
X82513Y42418D01*
X82558Y41965D01*
X82690Y41529D01*
X82905Y41128D01*
X83194Y40776D01*
X83546Y40487D01*
X83947Y40272D01*
X84383Y40140D01*
X84836Y40095D01*
X85289Y40140D01*
X85725Y40272D01*
X86126Y40487D01*
X86478Y40776D01*
X86767Y41128D01*
X86982Y41529D01*
X87114Y41965D01*
X87159Y42418D01*
X87114Y42871D01*
X86982Y43307D01*
X86767Y43708D01*
X86478Y44060D01*
X86126Y44349D01*
X85725Y44564D01*
X85289Y44696D01*
X84836Y44741D01*
D02*
G37*
G36*
X52197D02*
X51744Y44696D01*
X51308Y44564D01*
X50907Y44349D01*
X50555Y44060D01*
X50266Y43708D01*
X50051Y43307D01*
X49919Y42871D01*
X49874Y42418D01*
X49919Y41965D01*
X50051Y41529D01*
X50266Y41128D01*
X50555Y40776D01*
X50907Y40487D01*
X51308Y40272D01*
X51744Y40140D01*
X52197Y40095D01*
X52650Y40140D01*
X53086Y40272D01*
X53487Y40487D01*
X53839Y40776D01*
X54128Y41128D01*
X54343Y41529D01*
X54475Y41965D01*
X54520Y42418D01*
X54475Y42871D01*
X54343Y43307D01*
X54128Y43708D01*
X53839Y44060D01*
X53487Y44349D01*
X53086Y44564D01*
X52650Y44696D01*
X52197Y44741D01*
D02*
G37*
G36*
X60198Y39757D02*
X60001Y39718D01*
X59835Y39606D01*
X59723Y39440D01*
X59684Y39243D01*
X59723Y39046D01*
X59835Y38880D01*
X60001Y38768D01*
X60198Y38729D01*
X60395Y38768D01*
X60561Y38880D01*
X60673Y39046D01*
X60712Y39243D01*
X60673Y39440D01*
X60561Y39606D01*
X60395Y39718D01*
X60198Y39757D01*
D02*
G37*
G36*
X102141Y38677D02*
X101926Y38649D01*
X101725Y38566D01*
X101553Y38434D01*
X101421Y38262D01*
X101338Y38061D01*
X101310Y37846D01*
X101338Y37631D01*
X101421Y37430D01*
X101553Y37258D01*
X101725Y37126D01*
X101926Y37043D01*
X102141Y37015D01*
X102356Y37043D01*
X102557Y37126D01*
X102729Y37258D01*
X102861Y37430D01*
X102944Y37631D01*
X102972Y37846D01*
X102944Y38061D01*
X102861Y38262D01*
X102729Y38434D01*
X102557Y38566D01*
X102356Y38649D01*
X102141Y38677D01*
D02*
G37*
G36*
X65564Y38270D02*
X63468D01*
X63128Y38225D01*
X62812Y38094D01*
X62540Y37885D01*
X62331Y37613D01*
X62200Y37297D01*
X62155Y36957D01*
X62200Y36617D01*
X62331Y36301D01*
X62540Y36029D01*
X62812Y35820D01*
X63128Y35689D01*
X63468Y35644D01*
X65564D01*
X65904Y35689D01*
X66220Y35820D01*
X66492Y36029D01*
X66701Y36301D01*
X66832Y36617D01*
X66877Y36957D01*
X66832Y37297D01*
X66701Y37613D01*
X66492Y37885D01*
X66220Y38094D01*
X65904Y38225D01*
X65564Y38270D01*
D02*
G37*
G36*
X32925D02*
X30829D01*
X30489Y38225D01*
X30173Y38094D01*
X29901Y37885D01*
X29692Y37613D01*
X29561Y37297D01*
X29516Y36957D01*
X29561Y36617D01*
X29692Y36301D01*
X29901Y36029D01*
X30173Y35820D01*
X30489Y35689D01*
X30829Y35644D01*
X32925D01*
X33265Y35689D01*
X33581Y35820D01*
X33853Y36029D01*
X34062Y36301D01*
X34193Y36617D01*
X34238Y36957D01*
X34193Y37297D01*
X34062Y37613D01*
X33853Y37885D01*
X33581Y38094D01*
X33265Y38225D01*
X32925Y38270D01*
D02*
G37*
G36*
X28194Y36074D02*
X27997Y36035D01*
X27831Y35923D01*
X27719Y35757D01*
X27680Y35560D01*
X27719Y35363D01*
X27831Y35197D01*
X27997Y35085D01*
X28194Y35046D01*
X28391Y35085D01*
X28557Y35197D01*
X28669Y35363D01*
X28708Y35560D01*
X28669Y35757D01*
X28557Y35923D01*
X28391Y36035D01*
X28194Y36074D01*
D02*
G37*
G36*
X102141Y36137D02*
X101926Y36109D01*
X101725Y36026D01*
X101553Y35894D01*
X101421Y35722D01*
X101338Y35521D01*
X101310Y35306D01*
X101338Y35091D01*
X101421Y34890D01*
X101553Y34718D01*
X101725Y34586D01*
X101926Y34503D01*
X102141Y34475D01*
X102356Y34503D01*
X102557Y34586D01*
X102729Y34718D01*
X102861Y34890D01*
X102944Y35091D01*
X102972Y35306D01*
X102944Y35521D01*
X102861Y35722D01*
X102729Y35894D01*
X102557Y36026D01*
X102356Y36109D01*
X102141Y36137D01*
D02*
G37*
G36*
X94201D02*
X93986Y36109D01*
X93785Y36026D01*
X93613Y35894D01*
X93481Y35722D01*
X93398Y35521D01*
X93370Y35306D01*
X93398Y35091D01*
X93481Y34890D01*
X93613Y34718D01*
X93785Y34586D01*
X93986Y34503D01*
X94201Y34475D01*
X94416Y34503D01*
X94617Y34586D01*
X94789Y34718D01*
X94921Y34890D01*
X95004Y35091D01*
X95032Y35306D01*
X95004Y35521D01*
X94921Y35722D01*
X94789Y35894D01*
X94617Y36026D01*
X94416Y36109D01*
X94201Y36137D01*
D02*
G37*
G36*
X102268Y33580D02*
Y32893D01*
X102955D01*
X102944Y32981D01*
X102861Y33182D01*
X102729Y33354D01*
X102557Y33486D01*
X102356Y33569D01*
X102268Y33580D01*
D02*
G37*
G36*
X102014D02*
X101926Y33569D01*
X101725Y33486D01*
X101553Y33354D01*
X101421Y33182D01*
X101338Y32981D01*
X101327Y32893D01*
X102014D01*
Y33580D01*
D02*
G37*
G36*
X151567Y35023D02*
X151314Y34990D01*
X151079Y34893D01*
X150877Y34737D01*
X150721Y34535D01*
X150624Y34300D01*
X150591Y34047D01*
X150624Y33794D01*
X150721Y33559D01*
X150877Y33357D01*
X151079Y33201D01*
X151292Y33113D01*
X151304Y33047D01*
X151292Y32981D01*
X151079Y32893D01*
X150877Y32737D01*
X150721Y32535D01*
X150624Y32300D01*
X150607Y32174D01*
X152527D01*
X152510Y32300D01*
X152413Y32535D01*
X152257Y32737D01*
X152055Y32893D01*
X151841Y32981D01*
X151830Y33047D01*
X151841Y33113D01*
X152055Y33201D01*
X152257Y33357D01*
X152413Y33559D01*
X152510Y33794D01*
X152543Y34047D01*
X152510Y34300D01*
X152413Y34535D01*
X152257Y34737D01*
X152055Y34893D01*
X151820Y34990D01*
X151567Y35023D01*
D02*
G37*
G36*
X102955Y32639D02*
X102268D01*
Y31952D01*
X102356Y31963D01*
X102557Y32046D01*
X102729Y32178D01*
X102861Y32350D01*
X102944Y32551D01*
X102955Y32639D01*
D02*
G37*
G36*
X102014D02*
X101327D01*
X101338Y32551D01*
X101421Y32350D01*
X101553Y32178D01*
X101725Y32046D01*
X101926Y31963D01*
X102014Y31952D01*
Y32639D01*
D02*
G37*
G36*
X94201Y33597D02*
X93986Y33569D01*
X93785Y33486D01*
X93613Y33354D01*
X93481Y33182D01*
X93398Y32981D01*
X93370Y32766D01*
X93398Y32551D01*
X93481Y32350D01*
X93613Y32178D01*
X93785Y32046D01*
X93986Y31963D01*
X94201Y31935D01*
X94416Y31963D01*
X94617Y32046D01*
X94789Y32178D01*
X94921Y32350D01*
X95004Y32551D01*
X95032Y32766D01*
X95004Y32981D01*
X94921Y33182D01*
X94789Y33354D01*
X94617Y33486D01*
X94416Y33569D01*
X94201Y33597D01*
D02*
G37*
G36*
X152527Y31920D02*
X151694D01*
Y31087D01*
X151820Y31104D01*
X152055Y31201D01*
X152257Y31357D01*
X152413Y31559D01*
X152510Y31794D01*
X152527Y31920D01*
D02*
G37*
G36*
X151440D02*
X150607D01*
X150624Y31794D01*
X150721Y31559D01*
X150877Y31357D01*
X151079Y31201D01*
X151314Y31104D01*
X151440Y31087D01*
Y31920D01*
D02*
G37*
G36*
X149067Y35023D02*
X148814Y34990D01*
X148579Y34893D01*
X148377Y34737D01*
X148221Y34535D01*
X148124Y34300D01*
X148091Y34047D01*
X148124Y33794D01*
X148221Y33559D01*
X148377Y33357D01*
X148579Y33201D01*
X148793Y33113D01*
X148804Y33047D01*
X148793Y32981D01*
X148579Y32893D01*
X148377Y32737D01*
X148221Y32535D01*
X148124Y32300D01*
X148091Y32047D01*
X148124Y31794D01*
X148221Y31559D01*
X148377Y31357D01*
X148579Y31201D01*
X148814Y31104D01*
X149067Y31071D01*
X149320Y31104D01*
X149555Y31201D01*
X149757Y31357D01*
X149913Y31559D01*
X150010Y31794D01*
X150043Y32047D01*
X150010Y32300D01*
X149913Y32535D01*
X149757Y32737D01*
X149555Y32893D01*
X149342Y32981D01*
X149330Y33047D01*
X149342Y33113D01*
X149555Y33201D01*
X149757Y33357D01*
X149913Y33559D01*
X150010Y33794D01*
X150043Y34047D01*
X150010Y34300D01*
X149913Y34535D01*
X149757Y34737D01*
X149555Y34893D01*
X149320Y34990D01*
X149067Y35023D01*
D02*
G37*
G36*
X173736Y33861D02*
Y30734D01*
X176863D01*
X176833Y31118D01*
X176713Y31616D01*
X176517Y32089D01*
X176250Y32526D01*
X175917Y32915D01*
X175528Y33248D01*
X175091Y33515D01*
X174618Y33711D01*
X174120Y33831D01*
X173736Y33861D01*
D02*
G37*
G36*
X173482D02*
X173098Y33831D01*
X172600Y33711D01*
X172127Y33515D01*
X171690Y33248D01*
X171301Y32915D01*
X170968Y32526D01*
X170701Y32089D01*
X170505Y31616D01*
X170385Y31118D01*
X170355Y30734D01*
X173482D01*
Y33861D01*
D02*
G37*
G36*
X102268Y31040D02*
Y30353D01*
X102955D01*
X102944Y30441D01*
X102861Y30642D01*
X102729Y30814D01*
X102557Y30946D01*
X102356Y31029D01*
X102268Y31040D01*
D02*
G37*
G36*
X102014D02*
X101926Y31029D01*
X101725Y30946D01*
X101553Y30814D01*
X101421Y30642D01*
X101338Y30441D01*
X101327Y30353D01*
X102014D01*
Y31040D01*
D02*
G37*
G36*
X136906Y30871D02*
Y29972D01*
X137805D01*
X137786Y30115D01*
X137682Y30366D01*
X137516Y30582D01*
X137300Y30748D01*
X137049Y30852D01*
X136906Y30871D01*
D02*
G37*
G36*
X136652D02*
X136509Y30852D01*
X136258Y30748D01*
X136042Y30582D01*
X135876Y30366D01*
X135772Y30115D01*
X135753Y29972D01*
X136652D01*
Y30871D01*
D02*
G37*
G36*
X137805Y29718D02*
X136906D01*
Y28819D01*
X137049Y28838D01*
X137300Y28942D01*
X137516Y29108D01*
X137682Y29324D01*
X137786Y29575D01*
X137805Y29718D01*
D02*
G37*
G36*
X136652D02*
X135753D01*
X135772Y29575D01*
X135876Y29324D01*
X136042Y29108D01*
X136258Y28942D01*
X136509Y28838D01*
X136652Y28819D01*
Y29718D01*
D02*
G37*
G36*
X134239Y30888D02*
X133969Y30852D01*
X133718Y30748D01*
X133502Y30582D01*
X133336Y30366D01*
X133232Y30115D01*
X133196Y29845D01*
X133232Y29575D01*
X133336Y29324D01*
X133502Y29108D01*
X133718Y28942D01*
X133969Y28838D01*
X134239Y28802D01*
X134509Y28838D01*
X134760Y28942D01*
X134976Y29108D01*
X135142Y29324D01*
X135246Y29575D01*
X135282Y29845D01*
X135246Y30115D01*
X135142Y30366D01*
X134976Y30582D01*
X134760Y30748D01*
X134509Y30852D01*
X134239Y30888D01*
D02*
G37*
G36*
X131699D02*
X131429Y30852D01*
X131178Y30748D01*
X130962Y30582D01*
X130796Y30366D01*
X130692Y30115D01*
X130656Y29845D01*
X130692Y29575D01*
X130796Y29324D01*
X130962Y29108D01*
X131178Y28942D01*
X131429Y28838D01*
X131699Y28802D01*
X131969Y28838D01*
X132220Y28942D01*
X132436Y29108D01*
X132602Y29324D01*
X132706Y29575D01*
X132742Y29845D01*
X132706Y30115D01*
X132602Y30366D01*
X132436Y30582D01*
X132220Y30748D01*
X131969Y30852D01*
X131699Y30888D01*
D02*
G37*
G36*
X129159D02*
X128889Y30852D01*
X128638Y30748D01*
X128422Y30582D01*
X128256Y30366D01*
X128152Y30115D01*
X128116Y29845D01*
X128152Y29575D01*
X128256Y29324D01*
X128422Y29108D01*
X128638Y28942D01*
X128889Y28838D01*
X129159Y28802D01*
X129429Y28838D01*
X129680Y28942D01*
X129896Y29108D01*
X130062Y29324D01*
X130166Y29575D01*
X130202Y29845D01*
X130166Y30115D01*
X130062Y30366D01*
X129896Y30582D01*
X129680Y30748D01*
X129429Y30852D01*
X129159Y30888D01*
D02*
G37*
G36*
X176863Y30480D02*
X173736D01*
Y27353D01*
X174120Y27383D01*
X174618Y27503D01*
X175091Y27699D01*
X175528Y27966D01*
X175917Y28299D01*
X176250Y28688D01*
X176517Y29125D01*
X176713Y29598D01*
X176833Y30096D01*
X176863Y30480D01*
D02*
G37*
G36*
X173482D02*
X170355D01*
X170385Y30096D01*
X170505Y29598D01*
X170701Y29125D01*
X170968Y28688D01*
X171301Y28299D01*
X171690Y27966D01*
X172127Y27699D01*
X172600Y27503D01*
X173098Y27383D01*
X173482Y27353D01*
Y30480D01*
D02*
G37*
%LPD*%
G36*
X161736Y80108D02*
X161601Y79932D01*
X161485Y79651D01*
X161445Y79350D01*
X161485Y79048D01*
X161565Y78854D01*
X160272Y77560D01*
X160154Y77609D01*
Y78706D01*
X161640Y80192D01*
X161736Y80108D01*
D02*
G37*
G36*
X100817Y77957D02*
X100943Y77873D01*
X101092Y77844D01*
X108297D01*
X108790Y77350D01*
X108755Y77239D01*
X108743Y77223D01*
X94649D01*
X93513Y78359D01*
X93555Y78497D01*
X93669Y78519D01*
X93798Y78606D01*
X100169D01*
X100817Y77957D01*
D02*
G37*
G36*
X115436Y76928D02*
Y76073D01*
X115465Y75924D01*
X115549Y75798D01*
X117595Y73753D01*
Y72970D01*
X117508Y72841D01*
X117469Y72644D01*
X117508Y72447D01*
X117620Y72281D01*
X117786Y72169D01*
X117983Y72130D01*
X118180Y72169D01*
X118346Y72281D01*
X118458Y72447D01*
X118470Y72510D01*
X120316D01*
X120329Y72383D01*
X120199Y72357D01*
X120033Y72245D01*
X119921Y72079D01*
X119882Y71882D01*
X119921Y71685D01*
X120033Y71519D01*
X120199Y71407D01*
X120396Y71368D01*
X120593Y71407D01*
X120759Y71519D01*
X120871Y71685D01*
X120910Y71882D01*
X120871Y72079D01*
X120759Y72245D01*
X120593Y72357D01*
X120463Y72383D01*
X120476Y72510D01*
X124840D01*
X124908Y72383D01*
X124874Y72333D01*
X124835Y72136D01*
X124874Y71939D01*
X124986Y71773D01*
X125152Y71661D01*
X125266Y71639D01*
X125308Y71501D01*
X125051Y71244D01*
X124898Y71214D01*
X124732Y71102D01*
X124620Y70936D01*
X124581Y70739D01*
X124620Y70542D01*
X124732Y70376D01*
X124898Y70264D01*
X124959Y70123D01*
X124954Y70111D01*
X122376D01*
X122283Y70238D01*
X122307Y70358D01*
X122268Y70555D01*
X122156Y70721D01*
X121990Y70833D01*
X121793Y70872D01*
X121596Y70833D01*
X121430Y70721D01*
X121318Y70555D01*
X121279Y70358D01*
X121303Y70238D01*
X121210Y70111D01*
X120430D01*
X119631Y70910D01*
X119601Y71063D01*
X119489Y71229D01*
X119323Y71341D01*
X119126Y71380D01*
X118929Y71341D01*
X118763Y71229D01*
X118651Y71063D01*
X118612Y70866D01*
X118651Y70669D01*
X118763Y70503D01*
X118929Y70391D01*
X119082Y70361D01*
X119966Y69476D01*
X119931Y69365D01*
X119919Y69349D01*
X119160D01*
X116466Y72043D01*
Y72191D01*
X116553Y72320D01*
X116592Y72517D01*
X116553Y72714D01*
X116441Y72880D01*
X116275Y72992D01*
X116078Y73031D01*
X115958Y73007D01*
X115831Y73100D01*
Y74676D01*
X115802Y74825D01*
X115718Y74951D01*
X113587Y77082D01*
X113622Y77193D01*
X113634Y77209D01*
X115155D01*
X115436Y76928D01*
D02*
G37*
G36*
X114166Y74515D02*
Y69088D01*
X114195Y68939D01*
X114262Y68838D01*
X114164Y68758D01*
X110447Y72475D01*
X110321Y72559D01*
X110172Y72588D01*
X105355D01*
X105226Y72675D01*
X105029Y72714D01*
X104832Y72675D01*
X104666Y72563D01*
X104554Y72397D01*
X104515Y72200D01*
X104554Y72003D01*
X104666Y71837D01*
X104832Y71725D01*
X105029Y71686D01*
X105226Y71725D01*
X105355Y71812D01*
X110011D01*
X114914Y66908D01*
X115040Y66824D01*
X115189Y66795D01*
X117141D01*
X117154Y66668D01*
X117024Y66642D01*
X116858Y66530D01*
X116746Y66364D01*
X116732Y66294D01*
X117710D01*
X117696Y66364D01*
X117584Y66530D01*
X117418Y66642D01*
X117288Y66668D01*
X117301Y66795D01*
X117856D01*
X118005Y66824D01*
X118131Y66908D01*
X118535Y67313D01*
X118688Y67343D01*
X118854Y67455D01*
X118966Y67621D01*
X119005Y67818D01*
X118966Y68015D01*
X118854Y68181D01*
X118688Y68293D01*
X118491Y68332D01*
X118294Y68293D01*
X118128Y68181D01*
X118016Y68015D01*
X117986Y67862D01*
X117695Y67571D01*
X117423D01*
X117330Y67698D01*
X117354Y67818D01*
X117315Y68015D01*
X117228Y68144D01*
Y69778D01*
X117315Y69907D01*
X117320Y69932D01*
X117441Y69969D01*
X118724Y68686D01*
X118850Y68602D01*
X118999Y68573D01*
X121467D01*
X121596Y68486D01*
X121793Y68447D01*
X121990Y68486D01*
X122119Y68573D01*
X127762D01*
X127911Y68602D01*
X128037Y68686D01*
X129320Y69970D01*
X129973D01*
X130066Y69843D01*
X130042Y69723D01*
X130081Y69526D01*
X130193Y69360D01*
X130359Y69248D01*
X130556Y69209D01*
X130753Y69248D01*
X130919Y69360D01*
X130937Y69386D01*
X131064D01*
X131082Y69360D01*
X131248Y69248D01*
X131445Y69209D01*
X131642Y69248D01*
X131808Y69360D01*
X131920Y69526D01*
X131959Y69723D01*
X131935Y69843D01*
X132028Y69970D01*
X133016D01*
X133029Y69843D01*
X132899Y69817D01*
X132733Y69705D01*
X132621Y69539D01*
X132582Y69342D01*
X132621Y69145D01*
X132733Y68979D01*
X132899Y68867D01*
X133096Y68828D01*
X133293Y68867D01*
X133459Y68979D01*
X133571Y69145D01*
X133603Y69306D01*
X133732D01*
X133764Y69145D01*
X133876Y68979D01*
X134042Y68867D01*
X134239Y68828D01*
X134436Y68867D01*
X134602Y68979D01*
X134646Y69044D01*
X134780Y69018D01*
X134892Y68852D01*
X135058Y68740D01*
X135083Y68735D01*
X135120Y68614D01*
X133824Y67317D01*
X133303D01*
X133290Y67444D01*
X133420Y67470D01*
X133586Y67582D01*
X133698Y67748D01*
X133737Y67945D01*
X133698Y68142D01*
X133586Y68308D01*
X133420Y68420D01*
X133223Y68459D01*
X133026Y68420D01*
X132860Y68308D01*
X132748Y68142D01*
X132709Y67945D01*
X132748Y67748D01*
X132860Y67582D01*
X133026Y67470D01*
X133156Y67444D01*
X133143Y67317D01*
X132147D01*
X132007Y67458D01*
X131881Y67542D01*
X131732Y67571D01*
X129993D01*
X129864Y67658D01*
X129667Y67697D01*
X129470Y67658D01*
X129341Y67571D01*
X128858D01*
X128845Y67698D01*
X128975Y67724D01*
X129141Y67836D01*
X129253Y68002D01*
X129292Y68199D01*
X129253Y68396D01*
X129141Y68562D01*
X128975Y68674D01*
X128778Y68713D01*
X128581Y68674D01*
X128415Y68562D01*
X128303Y68396D01*
X128264Y68199D01*
X128303Y68002D01*
X128415Y67836D01*
X128581Y67724D01*
X128711Y67698D01*
X128698Y67571D01*
X127766D01*
X127729Y67761D01*
X127617Y67927D01*
X127451Y68039D01*
X127254Y68078D01*
X127057Y68039D01*
X126891Y67927D01*
X126779Y67761D01*
X126742Y67571D01*
X122305D01*
X122268Y67761D01*
X122156Y67927D01*
X121990Y68039D01*
X121793Y68078D01*
X121596Y68039D01*
X121430Y67927D01*
X121318Y67761D01*
X121281Y67571D01*
X119761D01*
X119612Y67542D01*
X119486Y67458D01*
X118574Y66545D01*
X118421Y66515D01*
X118255Y66403D01*
X118143Y66237D01*
X118104Y66040D01*
X118143Y65843D01*
X118255Y65677D01*
X118421Y65565D01*
X118618Y65526D01*
X118815Y65565D01*
X118981Y65677D01*
X119052Y65782D01*
X119200D01*
X119271Y65677D01*
X119437Y65565D01*
X119634Y65526D01*
X119831Y65565D01*
X119997Y65677D01*
X120109Y65843D01*
X120148Y66040D01*
X120109Y66237D01*
X119997Y66403D01*
X119831Y66515D01*
X119806Y66520D01*
X119769Y66641D01*
X119922Y66795D01*
X126412D01*
X126425Y66668D01*
X126295Y66642D01*
X126129Y66530D01*
X126017Y66364D01*
X125978Y66167D01*
X126017Y65970D01*
X126129Y65804D01*
X126295Y65692D01*
X126492Y65653D01*
X126689Y65692D01*
X126855Y65804D01*
X126924Y65906D01*
X127033Y65856D01*
X126994Y65659D01*
X127005Y65606D01*
X126994Y65587D01*
X126895Y65508D01*
X126746Y65538D01*
X126549Y65499D01*
X126383Y65387D01*
X126271Y65221D01*
X126232Y65024D01*
X126271Y64827D01*
X126383Y64661D01*
X126549Y64549D01*
X126746Y64510D01*
X126943Y64549D01*
X127072Y64636D01*
X128109D01*
X128516Y64228D01*
X128479Y64107D01*
X128454Y64102D01*
X128288Y63990D01*
X128270Y63964D01*
X128143D01*
X128125Y63990D01*
X127959Y64102D01*
X127762Y64141D01*
X127565Y64102D01*
X127399Y63990D01*
X127381Y63964D01*
X127254D01*
X127236Y63990D01*
X127070Y64102D01*
X126873Y64141D01*
X126676Y64102D01*
X126510Y63990D01*
X126398Y63824D01*
X126257Y63765D01*
X126211Y63793D01*
X126205Y63824D01*
X126093Y63990D01*
X125927Y64102D01*
X125730Y64141D01*
X125533Y64102D01*
X125463Y64207D01*
X125647Y64392D01*
X125800Y64422D01*
X125966Y64534D01*
X126078Y64700D01*
X126117Y64897D01*
X126078Y65094D01*
X125966Y65260D01*
X125800Y65372D01*
X125603Y65411D01*
X125406Y65372D01*
X125240Y65260D01*
X125128Y65094D01*
X125098Y64941D01*
X124185Y64029D01*
X124101Y63903D01*
X124072Y63754D01*
Y62738D01*
X124101Y62589D01*
X124185Y62463D01*
X125596Y61053D01*
Y52739D01*
X122172Y49315D01*
X122054Y49364D01*
Y58221D01*
X122141Y58350D01*
X122180Y58547D01*
X122141Y58744D01*
X122029Y58910D01*
X121863Y59022D01*
X121666Y59061D01*
X121469Y59022D01*
X121303Y58910D01*
X121191Y58744D01*
X121152Y58547D01*
X121191Y58350D01*
X121278Y58221D01*
Y49310D01*
X119486Y47519D01*
X119402Y47393D01*
X119373Y47244D01*
Y46427D01*
X119286Y46298D01*
X119247Y46101D01*
X119286Y45904D01*
X119398Y45738D01*
X119564Y45626D01*
X119761Y45587D01*
X119958Y45626D01*
X120124Y45738D01*
X120236Y45904D01*
X120275Y46101D01*
X120236Y46298D01*
X120149Y46427D01*
Y47083D01*
X120652Y47586D01*
X120770Y47537D01*
Y36830D01*
X120799Y36681D01*
X120883Y36555D01*
X121542Y35897D01*
X121572Y35744D01*
X121606Y35694D01*
X121538Y35567D01*
X120938D01*
X116847Y39658D01*
Y54737D01*
X116818Y54886D01*
X116734Y55012D01*
X113686Y58060D01*
X113560Y58144D01*
X113411Y58173D01*
X109762D01*
X108987Y58949D01*
X108861Y59033D01*
X108712Y59062D01*
X107442D01*
X107293Y59033D01*
X107167Y58949D01*
X106472Y58254D01*
X106395Y58260D01*
X106298Y58388D01*
X106305Y58420D01*
X106266Y58617D01*
X106154Y58783D01*
X105988Y58895D01*
X105791Y58934D01*
X105594Y58895D01*
X105428Y58783D01*
X105316Y58617D01*
X105277Y58420D01*
X105284Y58386D01*
X105167Y58324D01*
X104020Y59470D01*
Y60579D01*
X103991Y60728D01*
X103907Y60854D01*
X103290Y61470D01*
X103339Y61588D01*
X117729D01*
X117878Y61617D01*
X118004Y61701D01*
X120938Y64635D01*
X121059Y64598D01*
X121064Y64573D01*
X121176Y64407D01*
X121342Y64295D01*
X121539Y64256D01*
X121736Y64295D01*
X121902Y64407D01*
X122014Y64573D01*
X122053Y64770D01*
X122014Y64967D01*
X121902Y65133D01*
X121736Y65245D01*
X121711Y65250D01*
X121674Y65371D01*
X121837Y65535D01*
X121990Y65565D01*
X122156Y65677D01*
X122268Y65843D01*
X122307Y66040D01*
X122268Y66237D01*
X122156Y66403D01*
X121990Y66515D01*
X121793Y66554D01*
X121596Y66515D01*
X121430Y66403D01*
X121318Y66237D01*
X121288Y66084D01*
X117568Y62364D01*
X102858D01*
X102796Y62491D01*
X102861Y62576D01*
X102944Y62777D01*
X102955Y62865D01*
X101327D01*
X101338Y62777D01*
X101421Y62576D01*
X101486Y62491D01*
X101424Y62364D01*
X99221D01*
X98988Y62598D01*
Y62610D01*
X99027Y62668D01*
X99066Y62865D01*
X99027Y63062D01*
X98915Y63228D01*
X98749Y63340D01*
X98552Y63379D01*
X98355Y63340D01*
X98189Y63228D01*
X98077Y63062D01*
X98055Y62948D01*
X97917Y62906D01*
X97670Y63153D01*
Y73406D01*
X97641Y73555D01*
X97557Y73681D01*
X95426Y75812D01*
X95461Y75923D01*
X95473Y75939D01*
X112742D01*
X114166Y74515D01*
D02*
G37*
G36*
X150093Y67924D02*
X150219Y67840D01*
X150368Y67811D01*
X157352D01*
X157420Y67684D01*
X157386Y67634D01*
X157347Y67437D01*
X157386Y67240D01*
X157277Y67190D01*
X157208Y67292D01*
X157042Y67404D01*
X156845Y67443D01*
X156648Y67404D01*
X156482Y67292D01*
X156370Y67126D01*
X156331Y66929D01*
X156370Y66732D01*
X156482Y66566D01*
X156648Y66454D01*
X156801Y66424D01*
X158743Y64482D01*
Y60486D01*
X155427Y57171D01*
X155343Y57045D01*
X155314Y56896D01*
Y53882D01*
X152125Y50694D01*
X152041Y50568D01*
X152012Y50419D01*
Y47405D01*
X147032Y42425D01*
X146122D01*
X145993Y42512D01*
X145796Y42551D01*
X145599Y42512D01*
X145433Y42400D01*
X145321Y42234D01*
X145282Y42037D01*
X145321Y41840D01*
X145433Y41674D01*
X145492Y41634D01*
Y41481D01*
X145431Y41441D01*
X145319Y41274D01*
X145280Y41077D01*
X145319Y40881D01*
X145431Y40714D01*
X145598Y40602D01*
X145794Y40563D01*
X145991Y40602D01*
X146120Y40689D01*
X146653D01*
X146702Y40571D01*
X146016Y39885D01*
X145744D01*
X145651Y40012D01*
X145675Y40132D01*
X145636Y40329D01*
X145524Y40495D01*
X145358Y40607D01*
X145161Y40646D01*
X144964Y40607D01*
X144835Y40520D01*
X142909D01*
X141612Y41817D01*
Y49950D01*
X141730Y49999D01*
X145418Y46311D01*
X145448Y46158D01*
X145560Y45992D01*
X145726Y45880D01*
X145923Y45841D01*
X146120Y45880D01*
X146286Y45992D01*
X146398Y46158D01*
X146437Y46355D01*
X146398Y46552D01*
X146286Y46718D01*
X146120Y46830D01*
X145967Y46860D01*
X142247Y50580D01*
Y51871D01*
X142334Y52000D01*
X142373Y52197D01*
X142334Y52394D01*
X142222Y52560D01*
X142056Y52672D01*
X141859Y52711D01*
X141806Y52700D01*
X141787Y52711D01*
X141708Y52810D01*
X141738Y52959D01*
X141699Y53156D01*
X141587Y53322D01*
X141421Y53434D01*
X141224Y53473D01*
X141027Y53434D01*
X140861Y53322D01*
X140749Y53156D01*
X140710Y52959D01*
X140749Y52762D01*
X140836Y52633D01*
Y41656D01*
X140865Y41507D01*
X140949Y41381D01*
X142473Y39857D01*
X142599Y39773D01*
X142748Y39744D01*
X143041D01*
X143090Y39626D01*
X142333Y38869D01*
X140550D01*
X140501Y38987D01*
X140633Y39119D01*
X140786Y39149D01*
X140952Y39261D01*
X141064Y39427D01*
X141103Y39624D01*
X141064Y39821D01*
X140952Y39987D01*
X140786Y40099D01*
X140589Y40138D01*
X140392Y40099D01*
X140226Y39987D01*
X140114Y39821D01*
X140084Y39668D01*
X139793Y39377D01*
X139153D01*
X139104Y39495D01*
X139998Y40389D01*
X140151Y40419D01*
X140317Y40531D01*
X140429Y40697D01*
X140468Y40894D01*
X140429Y41091D01*
X140317Y41257D01*
X140151Y41369D01*
X139954Y41408D01*
X139757Y41369D01*
X139591Y41257D01*
X139479Y41091D01*
X139449Y40938D01*
X138418Y39907D01*
X133348D01*
X133288Y40019D01*
X133317Y40062D01*
X133356Y40259D01*
X133317Y40456D01*
X133205Y40622D01*
X133039Y40734D01*
X132886Y40764D01*
X127642Y46008D01*
Y52998D01*
X127760Y53047D01*
X128019Y52788D01*
X128049Y52635D01*
X128161Y52469D01*
X128327Y52357D01*
X128524Y52318D01*
X128670Y52347D01*
X128747Y52234D01*
X128684Y52140D01*
X128645Y51943D01*
X128684Y51746D01*
X128796Y51580D01*
X128962Y51468D01*
X129159Y51429D01*
X129356Y51468D01*
X129522Y51580D01*
X129634Y51746D01*
X129668Y51921D01*
X129688Y51940D01*
X129772Y52066D01*
X129801Y52215D01*
Y52905D01*
X129924Y52976D01*
X129928Y52975D01*
X130048Y52952D01*
X131411D01*
X131712Y52650D01*
X131642Y52545D01*
X131445Y52584D01*
X131248Y52545D01*
X131082Y52433D01*
X130970Y52267D01*
X130931Y52070D01*
X130970Y51873D01*
X131057Y51744D01*
Y51596D01*
X130649Y51188D01*
X130247D01*
X130118Y51275D01*
X129921Y51314D01*
X129724Y51275D01*
X129558Y51163D01*
X129446Y50997D01*
X129407Y50800D01*
X129431Y50680D01*
X129338Y50553D01*
X128723D01*
X128594Y50640D01*
X128397Y50679D01*
X128200Y50640D01*
X128034Y50528D01*
X127922Y50362D01*
X127883Y50165D01*
X127922Y49968D01*
X128034Y49802D01*
X128200Y49690D01*
X128397Y49651D01*
X128594Y49690D01*
X128723Y49777D01*
X131191D01*
X131340Y49806D01*
X131466Y49890D01*
X132482Y50906D01*
X132566Y51032D01*
X132595Y51181D01*
Y52705D01*
X132566Y52854D01*
X132482Y52980D01*
X131992Y53469D01*
X132041Y53587D01*
X132612D01*
X132710Y53472D01*
X132709Y53467D01*
X132748Y53270D01*
X132835Y53141D01*
Y50961D01*
X128757Y46884D01*
X128673Y46758D01*
X128644Y46609D01*
Y45919D01*
X128557Y45790D01*
X128518Y45593D01*
X128557Y45396D01*
X128669Y45230D01*
X128835Y45118D01*
X129032Y45079D01*
X129229Y45118D01*
X129395Y45230D01*
X129507Y45396D01*
X129546Y45593D01*
X129507Y45790D01*
X129420Y45919D01*
Y46448D01*
X133498Y50525D01*
X133582Y50651D01*
X133611Y50800D01*
Y53141D01*
X133698Y53270D01*
X133707Y53315D01*
X133709Y53318D01*
X133738Y53467D01*
X133709Y53616D01*
X133707Y53619D01*
X133698Y53664D01*
X133586Y53830D01*
X133435Y53932D01*
X133389Y53977D01*
X133438Y54095D01*
X133824D01*
X133988Y53931D01*
X134018Y53778D01*
X134130Y53612D01*
X134296Y53500D01*
X134493Y53461D01*
X134690Y53500D01*
X134856Y53612D01*
X134968Y53778D01*
X135007Y53975D01*
X134968Y54172D01*
X134856Y54338D01*
X134690Y54450D01*
X134537Y54480D01*
X134260Y54758D01*
X134134Y54842D01*
X134098Y54849D01*
X134040Y54990D01*
X134079Y55048D01*
X134118Y55245D01*
X134079Y55442D01*
X133967Y55608D01*
X133801Y55720D01*
X133604Y55759D01*
X133407Y55720D01*
X133278Y55633D01*
X131325D01*
Y65278D01*
X131296Y65427D01*
X131212Y65553D01*
X130426Y66338D01*
X130396Y66491D01*
X130284Y66657D01*
X130269Y66668D01*
X130308Y66795D01*
X131571D01*
X131712Y66654D01*
X131838Y66570D01*
X131986Y66541D01*
X133603D01*
X133671Y66414D01*
X133637Y66364D01*
X133598Y66167D01*
X133637Y65970D01*
X133749Y65804D01*
X133915Y65692D01*
X134112Y65653D01*
X134309Y65692D01*
X134475Y65804D01*
X134587Y65970D01*
X134626Y66167D01*
X134587Y66364D01*
X134475Y66530D01*
X134379Y66594D01*
X134357Y66752D01*
X136409Y68803D01*
X136526Y68741D01*
X136519Y68707D01*
X136558Y68510D01*
X136670Y68344D01*
X136836Y68232D01*
X137033Y68193D01*
X137230Y68232D01*
X137396Y68344D01*
X137508Y68510D01*
X137547Y68707D01*
X137508Y68904D01*
X137396Y69070D01*
X137230Y69182D01*
X137033Y69221D01*
X136999Y69214D01*
X136937Y69331D01*
X137067Y69462D01*
X141218D01*
X141257Y69335D01*
X141242Y69324D01*
X141130Y69158D01*
X141091Y68961D01*
X141130Y68764D01*
X141242Y68598D01*
X141408Y68486D01*
X141471Y68474D01*
Y67664D01*
X141351Y67545D01*
X141281Y67531D01*
X141187Y67468D01*
X141074Y67545D01*
X141103Y67691D01*
X141064Y67888D01*
X140952Y68054D01*
X140786Y68166D01*
X140589Y68205D01*
X140392Y68166D01*
X140226Y68054D01*
X140114Y67888D01*
X140075Y67691D01*
X140114Y67494D01*
X140226Y67328D01*
X140392Y67216D01*
X140589Y67177D01*
X140786Y67216D01*
X140880Y67279D01*
X140993Y67202D01*
X140964Y67056D01*
X141003Y66859D01*
X141115Y66693D01*
X141281Y66581D01*
X141478Y66542D01*
X141675Y66581D01*
X141769Y66644D01*
X141882Y66567D01*
X141853Y66421D01*
X141892Y66224D01*
X142004Y66058D01*
X142170Y65946D01*
X142367Y65907D01*
X142564Y65946D01*
X142730Y66058D01*
X142842Y66224D01*
X142881Y66421D01*
X142842Y66618D01*
X142730Y66784D01*
X142564Y66896D01*
X142367Y66935D01*
X142170Y66896D01*
X142076Y66833D01*
X141963Y66910D01*
X141992Y67056D01*
X141987Y67082D01*
X142134Y67229D01*
X142218Y67355D01*
X142247Y67504D01*
Y68689D01*
X142218Y68838D01*
X142134Y68964D01*
X142114Y68983D01*
X142080Y69158D01*
X141968Y69324D01*
X141953Y69335D01*
X141992Y69462D01*
X142165D01*
X142258Y69335D01*
X142234Y69215D01*
X142273Y69018D01*
X142385Y68852D01*
X142551Y68740D01*
X142704Y68710D01*
X144519Y66895D01*
Y57857D01*
X144432Y57728D01*
X144393Y57531D01*
X144432Y57334D01*
X144544Y57168D01*
X144710Y57056D01*
X144907Y57017D01*
X145104Y57056D01*
X145270Y57168D01*
X145382Y57334D01*
X145421Y57531D01*
X145382Y57728D01*
X145295Y57857D01*
Y67056D01*
X145266Y67205D01*
X145182Y67331D01*
X144259Y68254D01*
X144329Y68359D01*
X144526Y68320D01*
X144723Y68359D01*
X144889Y68471D01*
X145001Y68637D01*
X145040Y68834D01*
X145001Y69031D01*
X144889Y69197D01*
X144723Y69309D01*
X144593Y69335D01*
X144606Y69462D01*
X148556D01*
X150093Y67924D01*
D02*
G37*
G36*
X116705Y70705D02*
X116668Y70584D01*
X116643Y70579D01*
X116477Y70467D01*
X116365Y70301D01*
X116326Y70104D01*
X116365Y69907D01*
X116452Y69778D01*
Y68144D01*
X116365Y68015D01*
X116326Y67818D01*
X116350Y67698D01*
X116257Y67571D01*
X115350D01*
X115093Y67829D01*
X115155Y67946D01*
X115189Y67939D01*
X115386Y67978D01*
X115552Y68090D01*
X115664Y68256D01*
X115703Y68453D01*
X115664Y68650D01*
X115552Y68816D01*
X115517Y68840D01*
X115543Y68975D01*
X115640Y68994D01*
X115806Y69106D01*
X115918Y69272D01*
X115957Y69469D01*
X115918Y69666D01*
X115831Y69795D01*
Y71413D01*
X115949Y71462D01*
X116705Y70705D01*
D02*
G37*
G36*
X101478Y60318D02*
X101426Y60278D01*
X101294Y60106D01*
X101211Y59905D01*
X101183Y59690D01*
X101211Y59475D01*
X101294Y59274D01*
X101426Y59102D01*
X101598Y58970D01*
X101682Y58935D01*
X101657Y58808D01*
X100491D01*
X98972Y60327D01*
X99021Y60445D01*
X101435D01*
X101478Y60318D01*
D02*
G37*
G36*
X115436Y54449D02*
Y52653D01*
X115309Y52560D01*
X115189Y52584D01*
X114992Y52545D01*
X114942Y52511D01*
X114815Y52579D01*
Y53467D01*
X114786Y53616D01*
X114702Y53742D01*
X112807Y55637D01*
X112869Y55754D01*
X112903Y55747D01*
X113100Y55786D01*
X113266Y55898D01*
X113378Y56064D01*
X113417Y56261D01*
X113410Y56295D01*
X113527Y56357D01*
X115436Y54449D01*
D02*
G37*
G36*
X113751Y53594D02*
X113709Y53456D01*
X113595Y53434D01*
X113429Y53322D01*
X113317Y53156D01*
X113278Y52959D01*
X113317Y52762D01*
X113429Y52596D01*
X113595Y52484D01*
X113792Y52445D01*
X113912Y52469D01*
X114039Y52376D01*
Y40093D01*
X113921Y40044D01*
X112275Y41690D01*
Y51736D01*
X112402Y51749D01*
X112428Y51619D01*
X112540Y51453D01*
X112706Y51341D01*
X112903Y51302D01*
X113100Y51341D01*
X113266Y51453D01*
X113378Y51619D01*
X113417Y51816D01*
X113378Y52013D01*
X113266Y52179D01*
X113100Y52291D01*
X112903Y52330D01*
X112706Y52291D01*
X112540Y52179D01*
X112428Y52013D01*
X112402Y51883D01*
X112275Y51896D01*
Y54737D01*
X112246Y54886D01*
X112178Y54987D01*
X112277Y55067D01*
X113751Y53594D01*
D02*
G37*
G36*
X156838Y52617D02*
Y49818D01*
X155575Y48555D01*
X155437Y48597D01*
X155415Y48711D01*
X155303Y48877D01*
X155137Y48989D01*
X154940Y49028D01*
X154743Y48989D01*
X154577Y48877D01*
X154465Y48711D01*
X154426Y48514D01*
X154465Y48317D01*
X154577Y48151D01*
X154743Y48039D01*
X154857Y48017D01*
X154899Y47879D01*
X153922Y46902D01*
X153804Y46951D01*
Y49750D01*
X156720Y52666D01*
X156838Y52617D01*
D02*
G37*
G36*
X114992Y51595D02*
X115189Y51556D01*
X115309Y51580D01*
X115436Y51487D01*
Y46557D01*
X115309Y46464D01*
X115189Y46488D01*
X114992Y46449D01*
X114942Y46415D01*
X114815Y46483D01*
Y51561D01*
X114942Y51629D01*
X114992Y51595D01*
D02*
G37*
G36*
Y45499D02*
X115189Y45460D01*
X115309Y45484D01*
X115436Y45391D01*
Y39585D01*
X115318Y39536D01*
X114815Y40039D01*
Y45465D01*
X114942Y45533D01*
X114992Y45499D01*
D02*
G37*
G36*
X126866Y51728D02*
Y45847D01*
X126895Y45698D01*
X126979Y45572D01*
X132337Y40215D01*
X132367Y40062D01*
X132396Y40019D01*
X132336Y39907D01*
X129308D01*
X129159Y39878D01*
X129033Y39793D01*
X124807Y35567D01*
X124085D01*
X124046Y35694D01*
X124061Y35705D01*
X124173Y35871D01*
X124212Y36068D01*
X124173Y36265D01*
X124086Y36394D01*
Y49115D01*
X126748Y51777D01*
X126866Y51728D01*
D02*
G37*
G36*
X123310Y49175D02*
Y36394D01*
X123223Y36265D01*
X123184Y36068D01*
X123223Y35871D01*
X123335Y35705D01*
X123350Y35694D01*
X123311Y35567D01*
X122556D01*
X122488Y35694D01*
X122522Y35744D01*
X122561Y35941D01*
X122522Y36138D01*
X122410Y36304D01*
X122244Y36416D01*
X122091Y36446D01*
X121546Y36991D01*
Y47591D01*
X123183Y49227D01*
X123310Y49175D01*
D02*
G37*
G36*
X74945Y40401D02*
X86756Y28590D01*
X86763Y28585D01*
X86724Y28458D01*
X86575D01*
X74813Y40220D01*
Y40369D01*
X74940Y40408D01*
X74945Y40401D01*
D02*
G37*
G36*
X169586Y35365D02*
Y35063D01*
X161075Y26553D01*
X160799D01*
X160760Y26680D01*
X160767Y26685D01*
X169403Y35321D01*
X169459Y35404D01*
X169586Y35365D01*
D02*
G37*
%LPC*%
G36*
X107696Y74276D02*
Y73914D01*
X108058D01*
X108044Y73984D01*
X107932Y74150D01*
X107766Y74262D01*
X107696Y74276D01*
D02*
G37*
G36*
X107442D02*
X107372Y74262D01*
X107206Y74150D01*
X107094Y73984D01*
X107080Y73914D01*
X107442D01*
Y74276D01*
D02*
G37*
G36*
X108058Y73660D02*
X107696D01*
Y73298D01*
X107766Y73312D01*
X107932Y73424D01*
X108044Y73590D01*
X108058Y73660D01*
D02*
G37*
G36*
X107442D02*
X107080D01*
X107094Y73590D01*
X107206Y73424D01*
X107372Y73312D01*
X107442Y73298D01*
Y73660D01*
D02*
G37*
G36*
X102141Y71443D02*
X101926Y71415D01*
X101725Y71332D01*
X101553Y71200D01*
X101421Y71028D01*
X101338Y70827D01*
X101310Y70612D01*
X101338Y70397D01*
X101421Y70196D01*
X101553Y70024D01*
X101725Y69892D01*
X101926Y69809D01*
X102141Y69781D01*
X102356Y69809D01*
X102557Y69892D01*
X102729Y70024D01*
X102861Y70196D01*
X102944Y70397D01*
X102972Y70612D01*
X102944Y70827D01*
X102861Y71028D01*
X102729Y71200D01*
X102557Y71332D01*
X102356Y71415D01*
X102141Y71443D01*
D02*
G37*
G36*
Y68903D02*
X101926Y68875D01*
X101725Y68792D01*
X101553Y68660D01*
X101421Y68488D01*
X101338Y68287D01*
X101310Y68072D01*
X101338Y67857D01*
X101421Y67656D01*
X101553Y67484D01*
X101725Y67352D01*
X101926Y67269D01*
X102141Y67241D01*
X102356Y67269D01*
X102557Y67352D01*
X102729Y67484D01*
X102861Y67656D01*
X102944Y67857D01*
X102972Y68072D01*
X102944Y68287D01*
X102861Y68488D01*
X102729Y68660D01*
X102557Y68792D01*
X102356Y68875D01*
X102141Y68903D01*
D02*
G37*
G36*
X117710Y66040D02*
X117348D01*
Y65678D01*
X117418Y65692D01*
X117584Y65804D01*
X117696Y65970D01*
X117710Y66040D01*
D02*
G37*
G36*
X117094D02*
X116732D01*
X116746Y65970D01*
X116858Y65804D01*
X117024Y65692D01*
X117094Y65678D01*
Y66040D01*
D02*
G37*
G36*
X102268Y66346D02*
Y65659D01*
X102955D01*
X102944Y65747D01*
X102861Y65948D01*
X102729Y66120D01*
X102557Y66252D01*
X102356Y66335D01*
X102268Y66346D01*
D02*
G37*
G36*
X102014D02*
X101926Y66335D01*
X101725Y66252D01*
X101553Y66120D01*
X101421Y65948D01*
X101338Y65747D01*
X101327Y65659D01*
X102014D01*
Y66346D01*
D02*
G37*
G36*
X102955Y65405D02*
X102268D01*
Y64718D01*
X102356Y64729D01*
X102557Y64812D01*
X102729Y64944D01*
X102861Y65116D01*
X102944Y65317D01*
X102955Y65405D01*
D02*
G37*
G36*
X102014D02*
X101327D01*
X101338Y65317D01*
X101421Y65116D01*
X101553Y64944D01*
X101725Y64812D01*
X101926Y64729D01*
X102014Y64718D01*
Y65405D01*
D02*
G37*
G36*
X102268Y63806D02*
Y63119D01*
X102955D01*
X102944Y63207D01*
X102861Y63408D01*
X102729Y63580D01*
X102557Y63712D01*
X102356Y63795D01*
X102268Y63806D01*
D02*
G37*
G36*
X102014D02*
X101926Y63795D01*
X101725Y63712D01*
X101553Y63580D01*
X101421Y63408D01*
X101338Y63207D01*
X101327Y63119D01*
X102014D01*
Y63806D01*
D02*
G37*
G36*
X123190Y60077D02*
X122993Y60038D01*
X122827Y59926D01*
X122715Y59760D01*
X122676Y59563D01*
X122715Y59366D01*
X122827Y59200D01*
X122993Y59088D01*
X123190Y59049D01*
X123387Y59088D01*
X123553Y59200D01*
X123665Y59366D01*
X123704Y59563D01*
X123665Y59760D01*
X123553Y59926D01*
X123387Y60038D01*
X123190Y60077D01*
D02*
G37*
G36*
X124936Y54584D02*
X124739Y54545D01*
X124573Y54433D01*
X124461Y54267D01*
X124422Y54070D01*
X124461Y53873D01*
X124573Y53707D01*
X124739Y53595D01*
X124936Y53556D01*
X125133Y53595D01*
X125299Y53707D01*
X125411Y53873D01*
X125450Y54070D01*
X125411Y54267D01*
X125299Y54433D01*
X125133Y54545D01*
X124936Y54584D01*
D02*
G37*
G36*
X132461Y65792D02*
X132264Y65753D01*
X132098Y65641D01*
X131986Y65475D01*
X131947Y65278D01*
X131986Y65081D01*
X132098Y64915D01*
X132264Y64803D01*
X132461Y64764D01*
X132658Y64803D01*
X132824Y64915D01*
X132936Y65081D01*
X132975Y65278D01*
X132936Y65475D01*
X132824Y65641D01*
X132658Y65753D01*
X132461Y65792D01*
D02*
G37*
G36*
X134493Y64903D02*
X134296Y64864D01*
X134130Y64752D01*
X134018Y64586D01*
X133979Y64389D01*
X134008Y64243D01*
X133895Y64166D01*
X133801Y64229D01*
X133604Y64268D01*
X133407Y64229D01*
X133241Y64117D01*
X133129Y63951D01*
X133090Y63754D01*
X133129Y63557D01*
X133241Y63391D01*
X133407Y63279D01*
X133492Y63262D01*
X133550Y63121D01*
X133510Y63062D01*
X133471Y62865D01*
X133510Y62668D01*
X133622Y62502D01*
X133788Y62390D01*
X133985Y62351D01*
X134182Y62390D01*
X134348Y62502D01*
X134460Y62668D01*
X134499Y62865D01*
X134460Y63062D01*
X134348Y63228D01*
X134182Y63340D01*
X134097Y63357D01*
X134039Y63498D01*
X134079Y63557D01*
X134118Y63754D01*
X134089Y63900D01*
X134202Y63977D01*
X134296Y63914D01*
X134493Y63875D01*
X134690Y63914D01*
X134856Y64026D01*
X134968Y64192D01*
X135007Y64389D01*
X134968Y64586D01*
X134856Y64752D01*
X134690Y64864D01*
X134493Y64903D01*
D02*
G37*
G36*
X135636Y67316D02*
X135439Y67277D01*
X135273Y67165D01*
X135161Y66999D01*
X135122Y66802D01*
X135161Y66605D01*
X135273Y66439D01*
X135439Y66327D01*
X135524Y66310D01*
X135582Y66169D01*
X135542Y66110D01*
X135503Y65913D01*
X135542Y65716D01*
X135654Y65550D01*
X135820Y65438D01*
X135892Y65424D01*
X135923Y65348D01*
X135884Y65151D01*
X135923Y64954D01*
X136035Y64788D01*
X136201Y64676D01*
X136232Y64541D01*
X136177Y64459D01*
X136138Y64262D01*
X136146Y64223D01*
X136056Y64133D01*
X136017Y64141D01*
X135820Y64102D01*
X135654Y63990D01*
X135542Y63824D01*
X135503Y63627D01*
X135542Y63430D01*
X135654Y63264D01*
X135820Y63152D01*
X136017Y63113D01*
X136214Y63152D01*
X136380Y63264D01*
X136492Y63430D01*
X136531Y63627D01*
X136523Y63666D01*
X136613Y63756D01*
X136652Y63748D01*
X136849Y63787D01*
X137015Y63899D01*
X137127Y64065D01*
X137166Y64262D01*
X137127Y64459D01*
X137015Y64625D01*
X136849Y64737D01*
X136818Y64872D01*
X136873Y64954D01*
X136912Y65151D01*
X136873Y65348D01*
X136761Y65514D01*
X136595Y65626D01*
X136523Y65640D01*
X136492Y65716D01*
X136531Y65913D01*
X136492Y66110D01*
X136380Y66276D01*
X136214Y66388D01*
X136129Y66405D01*
X136071Y66546D01*
X136111Y66605D01*
X136150Y66802D01*
X136111Y66999D01*
X135999Y67165D01*
X135833Y67277D01*
X135636Y67316D01*
D02*
G37*
G36*
X155956Y63633D02*
X155759Y63594D01*
X155593Y63482D01*
X155481Y63316D01*
X155442Y63119D01*
X155481Y62922D01*
X155593Y62756D01*
X155759Y62644D01*
X155956Y62605D01*
X156153Y62644D01*
X156319Y62756D01*
X156431Y62922D01*
X156470Y63119D01*
X156431Y63316D01*
X156319Y63482D01*
X156153Y63594D01*
X155956Y63633D01*
D02*
G37*
G36*
X137287Y63125D02*
X137090Y63086D01*
X136924Y62974D01*
X136812Y62808D01*
X136773Y62611D01*
X136812Y62414D01*
X136924Y62248D01*
X137090Y62136D01*
X137287Y62097D01*
X137484Y62136D01*
X137650Y62248D01*
X137762Y62414D01*
X137801Y62611D01*
X137762Y62808D01*
X137650Y62974D01*
X137484Y63086D01*
X137287Y63125D01*
D02*
G37*
G36*
X137160Y60306D02*
Y59944D01*
X137522D01*
X137508Y60014D01*
X137396Y60180D01*
X137230Y60292D01*
X137160Y60306D01*
D02*
G37*
G36*
X136906D02*
X136836Y60292D01*
X136670Y60180D01*
X136558Y60014D01*
X136544Y59944D01*
X136906D01*
Y60306D01*
D02*
G37*
G36*
X137522Y59690D02*
X137160D01*
Y59328D01*
X137230Y59342D01*
X137396Y59454D01*
X137508Y59620D01*
X137522Y59690D01*
D02*
G37*
G36*
X136906D02*
X136544D01*
X136558Y59620D01*
X136670Y59454D01*
X136836Y59342D01*
X136906Y59328D01*
Y59690D01*
D02*
G37*
G36*
X132207Y60204D02*
X132010Y60165D01*
X131844Y60053D01*
X131732Y59887D01*
X131693Y59690D01*
X131732Y59493D01*
X131844Y59327D01*
X132010Y59215D01*
X132207Y59176D01*
X132404Y59215D01*
X132570Y59327D01*
X132682Y59493D01*
X132721Y59690D01*
X132682Y59887D01*
X132570Y60053D01*
X132404Y60165D01*
X132207Y60204D01*
D02*
G37*
G36*
X150622Y59188D02*
X150425Y59149D01*
X150259Y59037D01*
X150147Y58871D01*
X150108Y58674D01*
X150147Y58477D01*
X150259Y58311D01*
X150425Y58199D01*
X150622Y58160D01*
X150819Y58199D01*
X150985Y58311D01*
X151097Y58477D01*
X151136Y58674D01*
X151097Y58871D01*
X150985Y59037D01*
X150819Y59149D01*
X150622Y59188D01*
D02*
G37*
G36*
X141224Y66300D02*
X141027Y66261D01*
X140861Y66149D01*
X140749Y65983D01*
X140710Y65786D01*
X140749Y65589D01*
X140836Y65460D01*
Y59889D01*
X140749Y59760D01*
X140710Y59563D01*
X140749Y59366D01*
X140861Y59200D01*
X141027Y59088D01*
X141224Y59049D01*
X141421Y59088D01*
X141587Y59200D01*
X141699Y59366D01*
X141738Y59563D01*
X141699Y59760D01*
X141804Y59830D01*
X142106Y59529D01*
Y58746D01*
X142019Y58617D01*
X141980Y58420D01*
X142019Y58223D01*
X142131Y58057D01*
X142297Y57945D01*
X142494Y57906D01*
X142691Y57945D01*
X142857Y58057D01*
X142969Y58223D01*
X143008Y58420D01*
X142969Y58617D01*
X142882Y58746D01*
Y59690D01*
X142853Y59839D01*
X142769Y59965D01*
X142247Y60486D01*
Y63212D01*
X142642Y63606D01*
X142726Y63732D01*
X142755Y63881D01*
Y64825D01*
X142842Y64954D01*
X142881Y65151D01*
X142842Y65348D01*
X142730Y65514D01*
X142564Y65626D01*
X142367Y65665D01*
X142170Y65626D01*
X142004Y65514D01*
X141892Y65348D01*
X141853Y65151D01*
X141892Y64954D01*
X141979Y64825D01*
Y64042D01*
X141730Y63793D01*
X141612Y63842D01*
Y65460D01*
X141699Y65589D01*
X141738Y65786D01*
X141699Y65983D01*
X141587Y66149D01*
X141421Y66261D01*
X141224Y66300D01*
D02*
G37*
G36*
X147066Y58807D02*
X146869Y58768D01*
X146703Y58656D01*
X146591Y58490D01*
X146552Y58293D01*
X146591Y58096D01*
X146703Y57930D01*
X146869Y57818D01*
X147066Y57779D01*
X147263Y57818D01*
X147429Y57930D01*
X147541Y58096D01*
X147580Y58293D01*
X147541Y58490D01*
X147429Y58656D01*
X147263Y58768D01*
X147066Y58807D01*
D02*
G37*
G36*
X146939Y52711D02*
X146742Y52672D01*
X146576Y52560D01*
X146464Y52394D01*
X146425Y52197D01*
X146464Y52000D01*
X146576Y51834D01*
X146742Y51722D01*
X146939Y51683D01*
X147136Y51722D01*
X147302Y51834D01*
X147414Y52000D01*
X147453Y52197D01*
X147414Y52394D01*
X147302Y52560D01*
X147136Y52672D01*
X146939Y52711D01*
D02*
G37*
G36*
X135763Y48901D02*
X135566Y48862D01*
X135400Y48750D01*
X135288Y48584D01*
X135249Y48387D01*
X135288Y48190D01*
X135400Y48024D01*
X135566Y47912D01*
X135763Y47873D01*
X135960Y47912D01*
X136126Y48024D01*
X136238Y48190D01*
X136277Y48387D01*
X136238Y48584D01*
X136126Y48750D01*
X135960Y48862D01*
X135763Y48901D01*
D02*
G37*
G36*
X137414Y48393D02*
X137217Y48354D01*
X137051Y48242D01*
X136939Y48076D01*
X136900Y47879D01*
X136939Y47682D01*
X137051Y47516D01*
X137217Y47404D01*
X137414Y47365D01*
X137611Y47404D01*
X137777Y47516D01*
X137889Y47682D01*
X137928Y47879D01*
X137889Y48076D01*
X137777Y48242D01*
X137611Y48354D01*
X137414Y48393D01*
D02*
G37*
G36*
X145415Y45726D02*
X145218Y45687D01*
X145052Y45575D01*
X144940Y45409D01*
X144901Y45212D01*
X144940Y45015D01*
X145052Y44849D01*
X145218Y44737D01*
X145415Y44698D01*
X145612Y44737D01*
X145778Y44849D01*
X145890Y45015D01*
X145929Y45212D01*
X145890Y45409D01*
X145778Y45575D01*
X145612Y45687D01*
X145415Y45726D01*
D02*
G37*
G36*
X132969D02*
X132772Y45687D01*
X132606Y45575D01*
X132494Y45409D01*
X132455Y45212D01*
X132494Y45015D01*
X132606Y44849D01*
X132772Y44737D01*
X132969Y44698D01*
X133166Y44737D01*
X133332Y44849D01*
X133444Y45015D01*
X133483Y45212D01*
X133444Y45409D01*
X133332Y45575D01*
X133166Y45687D01*
X132969Y45726D01*
D02*
G37*
G36*
X154813Y50298D02*
X154616Y50259D01*
X154450Y50147D01*
X154338Y49981D01*
X154299Y49784D01*
X154338Y49587D01*
X154450Y49421D01*
X154616Y49309D01*
X154813Y49270D01*
X155010Y49309D01*
X155176Y49421D01*
X155288Y49587D01*
X155327Y49784D01*
X155288Y49981D01*
X155176Y50147D01*
X155010Y50259D01*
X154813Y50298D01*
D02*
G37*
G36*
X126873Y44202D02*
X126676Y44163D01*
X126510Y44051D01*
X126398Y43885D01*
X126359Y43688D01*
X126398Y43491D01*
X126510Y43325D01*
X126676Y43213D01*
X126873Y43174D01*
X127070Y43213D01*
X127236Y43325D01*
X127348Y43491D01*
X127387Y43688D01*
X127348Y43885D01*
X127236Y44051D01*
X127070Y44163D01*
X126873Y44202D01*
D02*
G37*
%LPD*%
D15*
X34671Y80899D02*
X38100Y84328D01*
Y114173D02*
X39751Y115824D01*
X38100Y84328D02*
Y114173D01*
X32004Y80899D02*
X34671D01*
X69596Y61214D02*
X75311Y55499D01*
X60452Y61214D02*
X69596D01*
X75311Y40767D02*
Y55499D01*
Y40767D02*
X87122Y28956D01*
X122936D01*
X128016Y34036D01*
X142748D01*
X157861Y49149D01*
Y55499D01*
X165100Y55118D02*
Y61849D01*
X128905Y33147D02*
X143129D01*
X165100Y55118D01*
X74295Y40005D02*
X86360Y27940D01*
X123698D02*
X128905Y33147D01*
X86360Y27940D02*
X123698D01*
X74295Y40005D02*
Y54737D01*
X31877Y58801D02*
X39751D01*
X45085Y64135D01*
X57531D01*
X60452Y61214D01*
X162611Y60249D02*
Y61849D01*
X157861Y55499D02*
X162611Y60249D01*
X70231Y58801D02*
X74295Y54737D01*
X64516Y58801D02*
X70231D01*
X169037Y35687D02*
Y60427D01*
X84963Y27051D02*
X160401D01*
X169037Y35687D01*
X167615Y61849D02*
X169037Y60427D01*
X53848Y26035D02*
X161290D01*
X170104Y34849D01*
X50546Y29337D02*
X53848Y26035D01*
X83161Y28853D02*
X84963Y27051D01*
X50546Y29337D02*
Y30353D01*
X170104Y34849D02*
Y61849D01*
D17*
X98044Y47625D02*
X109982D01*
X94201Y37846D02*
X95885D01*
X100457Y42418D01*
X104648D02*
X105156Y42926D01*
X100457Y42418D02*
X104648D01*
X132842Y53975D02*
X133350Y53467D01*
X97536Y48768D02*
X99441Y50673D01*
X94074Y48768D02*
X97536D01*
X106299Y50673D02*
X106934Y51308D01*
X99441Y50673D02*
X106299D01*
X129032Y45593D02*
Y46609D01*
X133223Y50800D01*
Y53467D01*
X128397Y50165D02*
X131191D01*
X132207Y51181D01*
Y52705D01*
X129413Y53975D02*
Y63881D01*
X130048Y53340D02*
X131572D01*
X129413Y53975D02*
X130048Y53340D01*
X131572D02*
X132207Y52705D01*
X128270Y65024D02*
X129413Y63881D01*
X127254Y45847D02*
X132842Y40259D01*
X127254Y45847D02*
Y63246D01*
X130937Y55394D02*
Y65278D01*
Y55394D02*
X131086Y55245D01*
X133573D01*
X133985Y54483D02*
X134493Y53975D01*
X130683Y54483D02*
X133985D01*
X130429Y54737D02*
X130683Y54483D01*
X108836Y95253D02*
X113284Y90805D01*
Y83693D02*
Y90805D01*
X95205Y95253D02*
X108836D01*
X122047Y78359D02*
X122809D01*
X120904Y79502D02*
X122047Y78359D01*
X119761Y75184D02*
X123571D01*
X124206Y75819D01*
X117602Y77343D02*
X119761Y75184D01*
X117602Y77343D02*
Y78994D01*
X116840Y67818D02*
Y70104D01*
X127762Y68961D02*
X129159Y70358D01*
X118999Y68961D02*
X127762D01*
X125095Y70739D02*
X126238Y71882D01*
X119126Y70866D02*
X120269Y69723D01*
X125222D01*
X159131Y60325D02*
Y64643D01*
X156845Y66929D02*
X159131Y64643D01*
X157861Y66675D02*
X159639Y64897D01*
Y60071D02*
Y64897D01*
X157861Y66675D02*
Y67437D01*
X155702Y56896D02*
X159131Y60325D01*
X156210Y56642D02*
X159639Y60071D01*
X158846Y66706D02*
X160147Y65405D01*
Y59817D02*
Y65405D01*
X156718Y56388D02*
X160147Y59817D01*
X160909D02*
Y64262D01*
X157226Y56134D02*
X160909Y59817D01*
X141859Y60325D02*
X142494Y59690D01*
Y58420D02*
Y59690D01*
X141859Y60325D02*
Y63373D01*
X141224Y59563D02*
Y65786D01*
X141859Y50419D02*
Y52197D01*
X141224Y41656D02*
Y52959D01*
X161468Y68199D02*
X162611Y69342D01*
X150368Y68199D02*
X161468D01*
X144907Y57531D02*
Y67056D01*
X129921Y66294D02*
X130937Y65278D01*
X119761Y67183D02*
X131732D01*
X131986Y66929D02*
X133985D01*
X131732Y67183D02*
X131986Y66929D01*
X118618Y66040D02*
X119761Y67183D01*
X130429Y54737D02*
Y64770D01*
X128778Y66421D02*
X130429Y64770D01*
X128143Y66421D02*
X128778D01*
X130302Y53975D02*
X132842D01*
X129921Y54356D02*
X130302Y53975D01*
X129921Y54356D02*
Y64262D01*
X128524Y65659D02*
X129921Y64262D01*
X127508Y65659D02*
X128524D01*
X126746Y65024D02*
X128270D01*
X125730Y63627D02*
X126746Y62611D01*
Y52324D02*
Y62611D01*
X126873Y63627D02*
X127254Y63246D01*
X128651Y53848D02*
Y63627D01*
Y53848D02*
X129413Y53086D01*
X127762Y53594D02*
Y63627D01*
Y53594D02*
X128524Y52832D01*
X126238Y71882D02*
X148082D01*
X141859Y67504D02*
Y68689D01*
X141478Y67123D02*
X141859Y67504D01*
X141605Y68943D02*
X141859Y68689D01*
X141605Y68943D02*
Y68961D01*
X141478Y67056D02*
Y67123D01*
X142748Y69215D02*
X144907Y67056D01*
X136906Y69850D02*
X148717D01*
X133985Y66929D02*
X136906Y69850D01*
X116332Y76454D02*
X119253Y73533D01*
X116332Y76454D02*
Y77597D01*
X128778Y70866D02*
X148590D01*
X127889Y69977D02*
X128778Y70866D01*
X126746Y69977D02*
X127889D01*
X147828Y72390D02*
X151384Y75946D01*
X125367Y72136D02*
X125621Y72390D01*
X147828D01*
X125349Y72136D02*
X125367D01*
X118001Y72644D02*
X118255Y72898D01*
X117983Y72644D02*
X118001D01*
X118255Y72898D02*
X147447D01*
X151003Y76454D01*
X131445Y51435D02*
Y52070D01*
X130810Y50800D02*
X131445Y51435D01*
X129921Y50800D02*
X130810D01*
X141224Y41656D02*
X142748Y40132D01*
X142367Y63881D02*
Y65151D01*
X126294Y73406D02*
X141859D01*
X125730Y73914D02*
X125786D01*
X126294Y73406D01*
X141859D02*
X142875Y74422D01*
X117729Y61976D02*
X121793Y66040D01*
X132207Y59672D02*
Y59690D01*
X129413Y52215D02*
Y53086D01*
X129159Y51961D02*
X129413Y52215D01*
X129159Y51943D02*
Y51961D01*
X162314Y76564D02*
X162611Y76860D01*
X160020Y74930D02*
X161654Y76564D01*
X151892Y74930D02*
X160020D01*
X161654Y76564D02*
X162314D01*
X129159Y70358D02*
X148971D01*
X99060Y61976D02*
X117729D01*
X142875Y74422D02*
Y79121D01*
X109601Y57785D02*
X113411D01*
X108712Y58674D02*
X109601Y57785D01*
X107442Y58674D02*
X108712D01*
X106553Y57785D02*
X107442Y58674D01*
X105156Y57785D02*
X106553D01*
X81893Y76327D02*
X82655Y75565D01*
X95123D02*
X97282Y73406D01*
X82655Y75565D02*
X95123D01*
X80899Y76327D02*
X81893D01*
X80137Y75565D02*
X80899Y76327D01*
X70866Y75565D02*
X80137D01*
X69215Y77216D02*
X70866Y75565D01*
X97282Y62992D02*
Y73406D01*
X98599Y62437D02*
Y62818D01*
Y62437D02*
X99060Y61976D01*
X97282Y62992D02*
X98933Y61341D01*
X102870D01*
X98552Y62865D02*
X98599Y62818D01*
X102870Y61341D02*
X103632Y60579D01*
Y59309D02*
Y60579D01*
Y59309D02*
X105156Y57785D01*
X113411D02*
X116459Y54737D01*
Y39497D02*
Y54737D01*
Y39497D02*
X120777Y35179D01*
X129308Y39519D02*
X138579D01*
X139954Y40894D01*
X124968Y35179D02*
X129308Y39519D01*
X120777Y35179D02*
X124968D01*
X123698Y36068D02*
Y49276D01*
X121158Y36830D02*
X122047Y35941D01*
X121158Y36830D02*
Y47752D01*
X145796Y42037D02*
X147193D01*
X152400Y47244D01*
Y50419D01*
X155702Y53721D02*
Y56896D01*
X152400Y50419D02*
X155702Y53721D01*
X67310Y75057D02*
X94869D01*
X65913Y76454D02*
Y79121D01*
Y76454D02*
X67310Y75057D01*
X123698Y49276D02*
X126746Y52324D01*
X96774Y62738D02*
X98679Y60833D01*
X102616D01*
X96774Y62738D02*
Y73152D01*
X94869Y75057D02*
X96774Y73152D01*
X102616Y60833D02*
X103124Y60325D01*
Y59055D02*
Y60325D01*
Y59055D02*
X104902Y57277D01*
X113157D01*
X115824Y54610D01*
Y39370D02*
Y54610D01*
Y39370D02*
X120523Y34671D01*
X125222D01*
X129540Y38989D01*
X139954D01*
X140589Y39624D01*
X145794Y41077D02*
X146995D01*
X152908Y46990D01*
Y50165D01*
X156210Y53467D01*
Y56642D01*
X55880Y75311D02*
X58166Y73025D01*
X60452D01*
X61976Y74549D01*
X94615D01*
X96266Y72898D01*
Y62484D02*
Y72898D01*
Y62484D02*
X100330Y58420D01*
X102997D01*
X104648Y56769D01*
X111125D01*
X114427Y53467D01*
Y39878D02*
Y53467D01*
X120142Y34163D02*
X125476D01*
X114427Y39878D02*
X120142Y34163D01*
X125476D02*
X129794Y38481D01*
X142494D01*
X143510Y39497D01*
X146177D01*
X153416Y46736D01*
Y49911D01*
X156718Y53213D02*
Y56388D01*
X153416Y49911D02*
X156718Y53213D01*
X120015Y102870D02*
X144653D01*
X146050Y101473D01*
X115279Y98134D02*
X120015Y102870D01*
X115279Y89662D02*
Y98134D01*
X117221Y89662D02*
X119126Y87757D01*
X115279Y89662D02*
X117221D01*
X119126Y77597D02*
Y87757D01*
X119761Y46101D02*
Y47244D01*
X121666Y49149D01*
Y58547D01*
X110998Y55626D02*
X111887Y54737D01*
Y41529D02*
Y54737D01*
X119888Y33528D02*
X125603D01*
X111887Y41529D02*
X119888Y33528D01*
X125603D02*
X130048Y37973D01*
X145542D01*
X157226Y49657D01*
Y56134D01*
X53975Y97917D02*
Y104521D01*
X158115Y91186D02*
X160020Y89281D01*
X163678D01*
X165100Y87859D01*
X138176Y88646D02*
X139573Y90043D01*
X157099D01*
X158496Y95631D02*
X169418D01*
X171704Y89459D02*
Y93345D01*
X169418Y95631D02*
X171704Y93345D01*
X150368Y103759D02*
X158496Y95631D01*
X139319Y104775D02*
X140335Y103759D01*
X150368D01*
X170104Y87859D02*
X171704Y89459D01*
X170104Y79350D02*
X172339Y81585D01*
X169774Y96088D02*
X172339Y93523D01*
Y81585D02*
Y93523D01*
X172847Y79375D02*
X174117Y78105D01*
X169926Y96774D02*
X172847Y93853D01*
Y79375D02*
Y93853D01*
X166698Y106045D02*
X173355Y99388D01*
Y81407D02*
X174117Y80645D01*
X173355Y81407D02*
Y99388D01*
X165862Y107950D02*
X173863Y99949D01*
Y82677D02*
X175514Y81026D01*
X173863Y82677D02*
Y99949D01*
X146431Y113030D02*
X151511Y107950D01*
X165862D01*
X175514Y77851D02*
Y81026D01*
X173990Y75565D02*
Y76327D01*
X175514Y77851D01*
X159512Y106045D02*
X166698D01*
X166116Y96774D02*
X169926D01*
X158369Y104521D02*
X166116Y96774D01*
X158369Y104521D02*
Y106807D01*
X115189Y67183D02*
X117856D01*
X118491Y67818D01*
X105029Y72200D02*
X110172D01*
X115189Y67183D01*
X116078Y71882D02*
X118999Y68961D01*
X116078Y71882D02*
Y72517D01*
X114554Y69088D02*
X115189Y68453D01*
X114554Y69088D02*
Y74676D01*
X159131Y76835D02*
Y78994D01*
X151003Y76454D02*
X158750D01*
X159131Y76835D01*
Y78994D02*
X160020Y79883D01*
Y81763D02*
X162611Y84353D01*
X160020Y79883D02*
Y81763D01*
X159385Y75946D02*
X159766Y76327D01*
X151384Y75946D02*
X159385D01*
X159766Y76327D02*
Y78867D01*
X162611Y81712D02*
Y81839D01*
X159766Y78867D02*
X162611Y81712D01*
X148082Y71882D02*
X151638Y75438D01*
X159766D02*
X160274Y75946D01*
X151638Y75438D02*
X159766D01*
X160274Y75946D02*
Y77013D01*
X162611Y79350D01*
X125222Y69723D02*
X126873Y71374D01*
X148336D01*
X151892Y74930D01*
X152070Y74346D02*
X162611D01*
X148590Y70866D02*
X152070Y74346D01*
X148971Y70358D02*
X150495Y68834D01*
X159588D01*
X162611Y71857D01*
X148717Y69850D02*
X150368Y68199D01*
X158648Y96088D02*
X169774D01*
X148666Y106070D02*
X158648Y96088D01*
X148666Y106070D02*
Y108763D01*
X145669Y111760D02*
X148666Y108763D01*
X137668Y101600D02*
X140716Y98552D01*
Y93345D02*
Y98552D01*
X142113Y91948D02*
X158369D01*
X140716Y93345D02*
X142113Y91948D01*
X160401Y89916D02*
X165557D01*
X158369Y91948D02*
X160401Y89916D01*
X165557D02*
X167615Y87859D01*
X141732Y91186D02*
X158115D01*
X141351Y90678D02*
X157607D01*
X160426Y87859D02*
X162611D01*
X157607Y90678D02*
X160426Y87859D01*
X140081Y92837D02*
X141732Y91186D01*
X139319Y97663D02*
X140081Y96901D01*
Y92837D02*
Y96901D01*
X139319Y92710D02*
Y94615D01*
Y92710D02*
X141351Y90678D01*
X168478Y85979D02*
X170104Y84353D01*
X161163Y85979D02*
X168478D01*
X157099Y90043D02*
X161163Y85979D01*
X141859Y63373D02*
X142367Y63881D01*
X142748Y40132D02*
X145161D01*
X141859Y50419D02*
X145923Y46355D01*
X48895Y92837D02*
X53975Y97917D01*
X61849Y106172D02*
X66802Y101219D01*
X47752Y106172D02*
X61849D01*
X46482Y107442D02*
X47752Y106172D01*
X41148Y107442D02*
X46482D01*
X120904Y79502D02*
Y90424D01*
X124460Y62738D02*
Y63754D01*
X125603Y64897D01*
X124460Y62738D02*
X125984Y61214D01*
X121158Y47752D02*
X125984Y52578D01*
Y61214D01*
X112903Y76327D02*
X114554Y74676D01*
X93980Y76327D02*
X112903D01*
X92329Y77978D02*
X93980Y76327D01*
X85471Y77978D02*
X92329D01*
X84455Y78994D02*
X85471Y77978D01*
X77724Y78994D02*
X84455D01*
X92329D02*
X94488Y76835D01*
X113284D01*
X115443Y74676D01*
Y69469D02*
Y74676D01*
X85598Y78994D02*
X92329D01*
X115316Y77597D02*
X115824Y77089D01*
X109093Y77597D02*
X115316D01*
X115824Y76073D02*
Y77089D01*
X117983Y72644D02*
Y73914D01*
X115824Y76073D02*
X117983Y73914D01*
X101092Y78232D02*
X108458D01*
X109093Y77597D01*
X100330Y78994D02*
X101092Y78232D01*
X93472Y78994D02*
X100330D01*
X116078Y78613D02*
X116840Y77851D01*
X109601Y78994D02*
X109982Y78613D01*
X116078D01*
X116840Y76835D02*
Y77851D01*
X115824Y78105D02*
X116332Y77597D01*
X109347Y78105D02*
X115824D01*
X108458Y78994D02*
X109347Y78105D01*
X101600Y78994D02*
X108458D01*
X118825Y75104D02*
X118872Y75057D01*
X118571Y75104D02*
X118825D01*
X116840Y76835D02*
X118571Y75104D01*
X142754Y106813D02*
X143891Y107950D01*
Y114487D02*
X144907Y115503D01*
X143891Y107950D02*
Y114487D01*
X144907Y115503D02*
Y115570D01*
X133477Y106813D02*
X142754D01*
X152019Y120650D02*
X153670D01*
X154813Y119507D02*
X156210D01*
X153670Y120650D02*
X154813Y119507D01*
X152019Y121920D02*
X153416D01*
X155067Y120269D01*
X156972D01*
Y121666D02*
Y122809D01*
X155194Y121158D02*
X156464D01*
X156972Y121666D01*
X156210Y119507D02*
X156972Y118745D01*
Y117602D02*
Y118745D01*
X153162Y123190D02*
X155194Y121158D01*
X152019Y123190D02*
X153162D01*
X152019Y115062D02*
Y119380D01*
Y115062D02*
X154305Y112776D01*
X160020D01*
D128*
X64516Y58801D02*
D03*
X31877D02*
D03*
D129*
X133477Y111373D02*
D03*
Y106813D02*
D03*
D131*
X102141Y62992D02*
D03*
Y65532D02*
D03*
X102014Y54610D02*
D03*
Y52070D02*
D03*
X94074Y48768D02*
D03*
X102014Y41148D02*
D03*
Y43688D02*
D03*
X94201Y37846D02*
D03*
X102141Y30226D02*
D03*
Y32766D02*
D03*
D135*
X48895Y92837D02*
D03*
X41275D02*
D03*
X41148Y104902D02*
D03*
Y107442D02*
D03*
D138*
X71414Y109601D02*
D03*
D140*
X53528Y122047D02*
D03*
D141*
X32004Y80899D02*
D03*
D143*
X136779Y29845D02*
D03*
D145*
X162611Y61849D02*
D03*
X165100D02*
D03*
X167615D02*
D03*
X170104D02*
D03*
X162611Y69342D02*
D03*
Y71857D02*
D03*
X167615D02*
D03*
X162611Y74346D02*
D03*
Y76860D02*
D03*
Y79350D02*
D03*
X170104D02*
D03*
X162611Y81839D02*
D03*
Y84353D02*
D03*
X170104D02*
D03*
X162611Y87859D02*
D03*
X165100D02*
D03*
X167615D02*
D03*
X170104D02*
D03*
D149*
X151567Y32047D02*
D03*
D151*
X109982Y47625D02*
D03*
X129032Y45593D02*
D03*
X128397Y50165D02*
D03*
X133223Y53467D02*
D03*
X134493Y53975D02*
D03*
X133604Y55245D02*
D03*
X95205Y95253D02*
D03*
X113284Y83693D02*
D03*
X128143Y75184D02*
D03*
X122809Y78359D02*
D03*
X124206Y77089D02*
D03*
Y75819D02*
D03*
X118491Y67818D02*
D03*
X116840Y70104D02*
D03*
Y67818D02*
D03*
X125095Y70739D02*
D03*
X119126Y70866D02*
D03*
X160909Y64262D02*
D03*
X142494Y58420D02*
D03*
X141224Y59563D02*
D03*
X141859Y52197D02*
D03*
X141224Y52959D02*
D03*
X144907Y57531D02*
D03*
X129921Y66294D02*
D03*
X129667Y67183D02*
D03*
X127508Y65659D02*
D03*
X126746Y65024D02*
D03*
X128143Y66421D02*
D03*
X127762Y63627D02*
D03*
X128651D02*
D03*
X126873D02*
D03*
X125730D02*
D03*
X141478Y67056D02*
D03*
X141605Y68961D02*
D03*
X142748Y69215D02*
D03*
X119253Y73533D02*
D03*
X125349Y72136D02*
D03*
X131445Y52070D02*
D03*
X141224Y65786D02*
D03*
X142367Y65151D02*
D03*
X125730Y73914D02*
D03*
X121793Y66040D02*
D03*
X132207Y59690D02*
D03*
X54229Y87376D02*
D03*
X53975Y82042D02*
D03*
X117221Y66167D02*
D03*
X107569Y73787D02*
D03*
X132461Y74549D02*
D03*
X129540Y83058D02*
D03*
X132080Y79121D02*
D03*
X136144Y83312D02*
D03*
X134366Y82931D02*
D03*
X142875Y79121D02*
D03*
X69215Y77216D02*
D03*
X98552Y62865D02*
D03*
X132842Y40259D02*
D03*
X123698Y36068D02*
D03*
X122047Y35941D02*
D03*
X139954Y40894D02*
D03*
X145796Y42037D02*
D03*
X156845Y66929D02*
D03*
X140589Y39624D02*
D03*
X145794Y41077D02*
D03*
X55880Y75311D02*
D03*
X146050Y101473D02*
D03*
X115279Y89662D02*
D03*
X119126Y77597D02*
D03*
X119761Y46101D02*
D03*
X121666Y58547D02*
D03*
X110998Y55626D02*
D03*
X175260Y46101D02*
D03*
X171196Y44577D02*
D03*
X172085Y49784D02*
D03*
X164465Y47498D02*
D03*
X163957Y43688D02*
D03*
X143383Y73660D02*
D03*
X140970Y77597D02*
D03*
X53975Y104521D02*
D03*
X138176Y88646D02*
D03*
X139319Y104775D02*
D03*
X146431Y113030D02*
D03*
X158369Y106807D02*
D03*
X159512Y106045D02*
D03*
X174117Y80645D02*
D03*
Y78105D02*
D03*
X173990Y75565D02*
D03*
X157861Y67437D02*
D03*
X158846Y66706D02*
D03*
X161544Y122936D02*
D03*
Y119761D02*
D03*
X166243Y119634D02*
D03*
X98044Y47625D02*
D03*
X106934Y51308D02*
D03*
X105156Y42926D02*
D03*
X105029Y72200D02*
D03*
X137033Y59817D02*
D03*
X116078Y72517D02*
D03*
X115189Y68453D02*
D03*
X126746Y69977D02*
D03*
X145669Y111760D02*
D03*
X139319Y94615D02*
D03*
Y97663D02*
D03*
X137668Y101600D02*
D03*
X145923Y46355D02*
D03*
X145161Y40132D02*
D03*
X129921Y50800D02*
D03*
X66802Y101219D02*
D03*
X120904Y90424D02*
D03*
X128524Y52832D02*
D03*
X129159Y51943D02*
D03*
X109601Y78994D02*
D03*
X77724D02*
D03*
X85598D02*
D03*
X101600D02*
D03*
X93472D02*
D03*
X117602D02*
D03*
X118872Y75057D02*
D03*
X115443Y69469D02*
D03*
X121793Y68961D02*
D03*
X118618Y66040D02*
D03*
X117983Y72644D02*
D03*
X125603Y64897D02*
D03*
X70358Y81026D02*
D03*
X73279Y83566D02*
D03*
X65913Y79121D02*
D03*
X144907Y115570D02*
D03*
X174625Y113792D02*
D03*
X167767Y116078D02*
D03*
X152019Y119380D02*
D03*
Y120650D02*
D03*
Y121920D02*
D03*
Y123190D02*
D03*
X160020Y112776D02*
D03*
X156972Y117602D02*
D03*
Y120269D02*
D03*
Y122809D02*
D03*
D152*
X58166Y50673D02*
D03*
X42291Y121158D02*
D03*
X173482D02*
D03*
X173609Y30607D02*
D03*
D153*
X39751Y115824D02*
D03*
X83161Y28853D02*
D03*
X50546Y30353D02*
D03*
D154*
X58801Y114046D02*
D03*
X98806Y108204D02*
D03*
X110490Y109093D02*
D03*
X98806Y124079D02*
D03*
X110490Y123190D02*
D03*
M02*
