G04*
G04 #@! TF.GenerationSoftware,Altium Limited,Altium Designer,22.2.1 (43)*
G04*
G04 Layer_Color=32768*
%FSLAX43Y43*%
%MOMM*%
G71*
G04*
G04 #@! TF.SameCoordinates,D3EB6253-BFD4-4380-A103-C90408D97D60*
G04*
G04*
G04 #@! TF.FilePolarity,Positive*
G04*
G01*
G75*
%ADD179C,0.050*%
D179*
X77377Y109601D02*
G03*
X77377Y109601I-3463J0D01*
G01*
X154979Y43710D02*
Y45190D01*
X157949Y43710D02*
Y45190D01*
X154979Y43710D02*
X157949D01*
X154979Y45190D02*
X157949D01*
X122608Y60251D02*
Y77671D01*
X140028Y60251D02*
Y77671D01*
X122608D02*
X140028D01*
X122608Y60251D02*
X140028D01*
X128048Y56628D02*
X132048D01*
Y54878D02*
Y56628D01*
X128048Y54878D02*
X132048D01*
X128048D02*
Y56628D01*
Y57037D02*
X132048D01*
X128048D02*
Y58787D01*
X132048D01*
Y57037D02*
Y58787D01*
X122428Y57037D02*
X126428D01*
X122428D02*
Y58787D01*
X126428D01*
Y57037D02*
Y58787D01*
X122428Y56628D02*
X126428D01*
Y54878D02*
Y56628D01*
X122428Y54878D02*
X126428D01*
X122428D02*
Y56628D01*
X172776Y47018D02*
Y49248D01*
X168346Y47018D02*
Y49248D01*
Y47018D02*
X172776D01*
X168346Y49248D02*
X172776D01*
X164995Y48221D02*
X166475D01*
X164995Y45251D02*
X166475D01*
Y48221D01*
X164995Y45251D02*
Y48221D01*
X164487Y41441D02*
X165967D01*
X164487Y44411D02*
X165967D01*
X164487Y41441D02*
Y44411D01*
X165967Y41441D02*
Y44411D01*
X174520Y42584D02*
X176000D01*
X174520Y45554D02*
X176000D01*
X174520Y42584D02*
Y45554D01*
X176000Y42584D02*
Y45554D01*
X145141Y59895D02*
Y63295D01*
X148991Y59895D02*
Y63295D01*
X145141Y59895D02*
X148991D01*
X145141Y63295D02*
X148991D01*
X142395Y63810D02*
X144625D01*
X142395Y59380D02*
X144625D01*
Y63810D01*
X142395Y59380D02*
Y63810D01*
X149507D02*
X151737D01*
X149507Y59380D02*
X151737D01*
Y63810D01*
X149507Y59380D02*
Y63810D01*
X145141Y53672D02*
Y57072D01*
X148991Y53672D02*
Y57072D01*
X145141Y53672D02*
X148991D01*
X145141Y57072D02*
X148991D01*
X142395Y57714D02*
X144625D01*
X142395Y53284D02*
X144625D01*
Y57714D01*
X142395Y53284D02*
Y57714D01*
X149507Y57797D02*
X151737D01*
X149507Y53367D02*
X151737D01*
Y57797D01*
X149507Y53367D02*
Y57797D01*
X145058Y47703D02*
Y51103D01*
X148908Y47703D02*
Y51103D01*
X145058Y47703D02*
X148908D01*
X145058Y51103D02*
X148908D01*
X149380Y51574D02*
X151610D01*
X149380Y47144D02*
X151610D01*
Y51574D01*
X149380Y47144D02*
Y51574D01*
X142395Y51745D02*
X144625D01*
X142395Y47315D02*
X144625D01*
Y51745D01*
X142395Y47315D02*
Y51745D01*
X145105Y41554D02*
Y44954D01*
X148955Y41554D02*
Y44954D01*
X145105Y41554D02*
X148955D01*
X145105Y44954D02*
X148955D01*
X142395Y45522D02*
X144625D01*
X142395Y41092D02*
X144625D01*
Y45522D01*
X142395Y41092D02*
Y45522D01*
X149507Y45395D02*
X151737D01*
X149507Y40965D02*
X151737D01*
Y45395D01*
X149507Y40965D02*
Y45395D01*
X106829Y70270D02*
X108309D01*
X106829Y73240D02*
X108309D01*
X106829Y70270D02*
Y73240D01*
X108309Y70270D02*
Y73240D01*
X107100Y57128D02*
X110070D01*
X107100Y55648D02*
X110070D01*
X107100D02*
Y57128D01*
X110070Y55648D02*
Y57128D01*
X52302Y92241D02*
Y95211D01*
X50822Y92241D02*
Y95211D01*
X52302D01*
X50822Y92241D02*
X52302D01*
Y104179D02*
Y107149D01*
X50822Y104179D02*
Y107149D01*
X52302D01*
X50822Y104179D02*
X52302D01*
X153267Y87361D02*
X157883D01*
X153267Y89677D02*
X157883D01*
Y87361D02*
Y89677D01*
X153267Y87361D02*
Y89677D01*
X153394Y92568D02*
X158010D01*
X153394Y94884D02*
X158010D01*
Y92568D02*
Y94884D01*
X153394Y92568D02*
Y94884D01*
X153263Y102728D02*
X157879D01*
X153263Y105044D02*
X157879D01*
Y102728D02*
Y105044D01*
X153263Y102728D02*
Y105044D01*
X153394Y97648D02*
X158010D01*
X153394Y99964D02*
X158010D01*
Y97648D02*
Y99964D01*
X153394Y97648D02*
Y99964D01*
X135664Y103068D02*
Y107498D01*
X137894Y103068D02*
Y107498D01*
X135664Y103068D02*
X137894D01*
X135664Y107498D02*
X137894D01*
X140291Y105166D02*
X151961D01*
X140291Y84826D02*
Y105166D01*
Y84826D02*
X151961D01*
Y105166D01*
X138557Y98566D02*
Y100316D01*
X134557Y98566D02*
X138557D01*
X134557D02*
Y100316D01*
X138557D01*
X138525Y96407D02*
Y98157D01*
X134525Y96407D02*
X138525D01*
X134525D02*
Y98157D01*
X138525D01*
Y94248D02*
Y95998D01*
X134525Y94248D02*
X138525D01*
X134525D02*
Y95998D01*
X138525D01*
Y92089D02*
Y93839D01*
X134525Y92089D02*
X138525D01*
X134525D02*
Y93839D01*
X138525D01*
X138501Y108049D02*
X142931D01*
X138501Y105819D02*
X142931D01*
X138501D02*
Y108049D01*
X142931Y105819D02*
Y108049D01*
X138458Y110434D02*
Y114864D01*
X140688Y110434D02*
Y114864D01*
X138458Y110434D02*
X140688D01*
X138458Y114864D02*
X140688D01*
X149567Y124482D02*
Y125962D01*
X146597Y124482D02*
Y125962D01*
Y124482D02*
X149567D01*
X146597Y125962D02*
X149567D01*
X163427Y122467D02*
Y125437D01*
X161947Y122467D02*
Y125437D01*
X163427D01*
X161947Y122467D02*
X163427D01*
X161947Y122135D02*
X163427D01*
X161947Y119165D02*
X163427D01*
Y122135D01*
X161947Y119165D02*
Y122135D01*
X162218Y117370D02*
Y118850D01*
X165188Y117370D02*
Y118850D01*
X162218D02*
X165188D01*
X162218Y117370D02*
X165188D01*
X161947Y112561D02*
X163427D01*
X161947Y115531D02*
X163427D01*
X161947Y112561D02*
Y115531D01*
X163427Y112561D02*
Y115531D01*
X161038Y122510D02*
Y125170D01*
X157418D02*
X161038D01*
X157418Y122510D02*
Y125170D01*
Y122510D02*
X161038D01*
X76906Y86896D02*
X81336D01*
X76906Y89126D02*
X81336D01*
Y86896D02*
Y89126D01*
X76906Y86896D02*
Y89126D01*
X92781Y84356D02*
Y86586D01*
X97211Y84356D02*
Y86586D01*
X92781D02*
X97211D01*
X92781Y84356D02*
X97211D01*
X100782D02*
Y86586D01*
X105212Y84356D02*
Y86586D01*
X100782D02*
X105212D01*
X100782Y84356D02*
X105212D01*
X116911Y87023D02*
X121341D01*
X116911Y89253D02*
X121341D01*
Y87023D02*
Y89253D01*
X116911Y87023D02*
Y89253D01*
X108910Y86896D02*
X113340D01*
X108910Y89126D02*
X113340D01*
Y86896D02*
Y89126D01*
X108910Y86896D02*
Y89126D01*
X100782Y86896D02*
X105212D01*
X100782Y89126D02*
X105212D01*
Y86896D02*
Y89126D01*
X100782Y86896D02*
Y89126D01*
X92781Y86896D02*
X97211D01*
X92781Y89126D02*
X97211D01*
Y86896D02*
Y89126D01*
X92781Y86896D02*
Y89126D01*
X84863Y86896D02*
X89293D01*
X84863Y89126D02*
X89293D01*
Y86896D02*
Y89126D01*
X84863Y86896D02*
Y89126D01*
X116892Y89684D02*
Y91164D01*
X119862Y89684D02*
Y91164D01*
X116892D02*
X119862D01*
X116892Y89684D02*
X119862D01*
X108878Y89557D02*
Y91037D01*
X111848Y89557D02*
Y91037D01*
X108878D02*
X111848D01*
X108878Y89557D02*
X111848D01*
X100763D02*
Y91037D01*
X103733Y89557D02*
Y91037D01*
X100763D02*
X103733D01*
X100763Y89557D02*
X103733D01*
X92749D02*
Y91037D01*
X95719Y89557D02*
Y91037D01*
X92749D02*
X95719D01*
X92749Y89557D02*
X95719D01*
X84875D02*
Y91037D01*
X87845Y89557D02*
Y91037D01*
X84875D02*
X87845D01*
X84875Y89557D02*
X87845D01*
X76874D02*
Y91037D01*
X79844Y89557D02*
Y91037D01*
X76874D02*
X79844D01*
X76874Y89557D02*
X79844D01*
X121694Y84399D02*
Y88829D01*
X123924Y84399D02*
Y88829D01*
X121694Y84399D02*
X123924D01*
X121694Y88829D02*
X123924D01*
X113947Y84272D02*
Y88702D01*
X116177Y84272D02*
Y88702D01*
X113947Y84272D02*
X116177D01*
X113947Y88702D02*
X116177D01*
X105946Y84272D02*
Y88702D01*
X108176Y84272D02*
Y88702D01*
X105946Y84272D02*
X108176D01*
X105946Y88702D02*
X108176D01*
X97818Y84272D02*
Y88702D01*
X100048Y84272D02*
Y88702D01*
X97818Y84272D02*
X100048D01*
X97818Y88702D02*
X100048D01*
X89817Y84272D02*
Y88702D01*
X92047Y84272D02*
Y88702D01*
X89817Y84272D02*
X92047D01*
X89817Y88702D02*
X92047D01*
X84863Y84356D02*
Y86586D01*
X89293Y84356D02*
Y86586D01*
X84863D02*
X89293D01*
X84863Y84356D02*
X89293D01*
X81816Y84316D02*
Y88746D01*
X84046Y84316D02*
Y88746D01*
X81816Y84316D02*
X84046D01*
X81816Y88746D02*
X84046D01*
X76906Y84356D02*
Y86586D01*
X81336Y84356D02*
Y86586D01*
X76906D02*
X81336D01*
X76906Y84356D02*
X81336D01*
X92781Y79149D02*
X97211D01*
X92781Y81379D02*
X97211D01*
Y79149D02*
Y81379D01*
X92781Y79149D02*
Y81379D01*
X84863Y79149D02*
X89293D01*
X84863Y81379D02*
X89293D01*
Y79149D02*
Y81379D01*
X84863Y79149D02*
Y81379D01*
X76874Y81810D02*
Y83290D01*
X79844Y81810D02*
Y83290D01*
X76874D02*
X79844D01*
X76874Y81810D02*
X79844D01*
X84875D02*
Y83290D01*
X87845Y81810D02*
Y83290D01*
X84875D02*
X87845D01*
X84875Y81810D02*
X87845D01*
X76906Y79149D02*
X81336D01*
X76906Y81379D02*
X81336D01*
Y79149D02*
Y81379D01*
X76906Y79149D02*
Y81379D01*
Y76609D02*
Y78839D01*
X81336Y76609D02*
Y78839D01*
X76906D02*
X81336D01*
X76906Y76609D02*
X81336D01*
X81816Y76525D02*
Y80955D01*
X84046Y76525D02*
Y80955D01*
X81816Y76525D02*
X84046D01*
X81816Y80955D02*
X84046D01*
X84863Y76482D02*
Y78712D01*
X89293Y76482D02*
Y78712D01*
X84863D02*
X89293D01*
X84863Y76482D02*
X89293D01*
X89817Y76398D02*
Y80828D01*
X92047Y76398D02*
Y80828D01*
X89817Y76398D02*
X92047D01*
X89817Y80828D02*
X92047D01*
X92781Y76482D02*
Y78712D01*
X97211Y76482D02*
Y78712D01*
X92781D02*
X97211D01*
X92781Y76482D02*
X97211D01*
X97818Y76398D02*
Y80828D01*
X100048Y76398D02*
Y80828D01*
X97818Y76398D02*
X100048D01*
X97818Y80828D02*
X100048D01*
X100782Y79149D02*
X105212D01*
X100782Y81379D02*
X105212D01*
Y79149D02*
Y81379D01*
X100782Y79149D02*
Y81379D01*
X100763Y81810D02*
Y83290D01*
X103733Y81810D02*
Y83290D01*
X100763D02*
X103733D01*
X100763Y81810D02*
X103733D01*
X108910Y79149D02*
X113340D01*
X108910Y81379D02*
X113340D01*
Y79149D02*
Y81379D01*
X108910Y79149D02*
Y81379D01*
X108878Y81810D02*
Y83290D01*
X111848Y81810D02*
Y83290D01*
X108878D02*
X111848D01*
X108878Y81810D02*
X111848D01*
X113947Y76525D02*
Y80955D01*
X116177Y76525D02*
Y80955D01*
X113947Y76525D02*
X116177D01*
X113947Y80955D02*
X116177D01*
X116911Y79149D02*
X121341D01*
X116911Y81379D02*
X121341D01*
Y79149D02*
Y81379D01*
X116911Y79149D02*
Y81379D01*
X116892Y81810D02*
Y83290D01*
X119862Y81810D02*
Y83290D01*
X116892D02*
X119862D01*
X116892Y81810D02*
X119862D01*
X121694Y76398D02*
Y80828D01*
X123924Y76398D02*
Y80828D01*
X121694Y76398D02*
X123924D01*
X121694Y80828D02*
X123924D01*
X116911Y76482D02*
Y78712D01*
X121341Y76482D02*
Y78712D01*
X116911D02*
X121341D01*
X116911Y76482D02*
X121341D01*
X108910Y76609D02*
Y78839D01*
X113340Y76609D02*
Y78839D01*
X108910D02*
X113340D01*
X108910Y76609D02*
X113340D01*
X105946Y76525D02*
Y80955D01*
X108176Y76525D02*
Y80955D01*
X105946Y76525D02*
X108176D01*
X105946Y80955D02*
X108176D01*
X100782Y76609D02*
X105212D01*
X100782Y78839D02*
X105212D01*
Y76609D02*
Y78839D01*
X100782Y76609D02*
Y78839D01*
X110197Y55394D02*
Y56874D01*
X107227Y55394D02*
Y56874D01*
X110197D01*
X107227Y55394D02*
X110197D01*
X73561Y82733D02*
X75791D01*
X73561Y78303D02*
X75791D01*
X73561D02*
Y82733D01*
X75791Y78303D02*
Y82733D01*
X67586Y83908D02*
X69066D01*
X67586Y80938D02*
X69066D01*
X67586D02*
Y83908D01*
X69066Y80938D02*
Y83908D01*
X64925Y80462D02*
Y84892D01*
X67155Y80462D02*
Y84892D01*
X64925D02*
X67155D01*
X64925Y80462D02*
X67155D01*
X63014Y84924D02*
X64494D01*
X63014Y81954D02*
X64494D01*
X63014D02*
Y84924D01*
X64494Y81954D02*
Y84924D01*
X72827Y84483D02*
Y86713D01*
X68397Y84483D02*
Y86713D01*
X72827D01*
X68397Y84483D02*
X72827D01*
X73815Y91706D02*
X76045D01*
X73815Y87276D02*
X76045D01*
X73815D02*
Y91706D01*
X76045Y87276D02*
Y91706D01*
X71777Y87288D02*
X73257D01*
X71777Y90258D02*
X73257D01*
Y87288D02*
Y90258D01*
X71777Y87288D02*
Y90258D01*
X65052Y93147D02*
X67282D01*
X65052Y88717D02*
X67282D01*
X65052D02*
Y93147D01*
X67282Y88717D02*
Y93147D01*
X58896Y80458D02*
X62516D01*
Y83118D01*
X58896D02*
X62516D01*
X58896Y80458D02*
Y83118D01*
X58840Y83506D02*
X62460D01*
Y86166D01*
X58840D02*
X62460D01*
X58840Y83506D02*
Y86166D01*
X58896Y86681D02*
X62516D01*
Y89341D01*
X58896D02*
X62516D01*
X58896Y86681D02*
Y89341D01*
X58840Y89744D02*
X62460D01*
Y92404D01*
X58840D02*
X62460D01*
X58840Y89744D02*
Y92404D01*
X63141Y91274D02*
X64621D01*
X63141Y88304D02*
X64621D01*
X63141D02*
Y91274D01*
X64621Y88304D02*
Y91274D01*
X61937Y92859D02*
Y94339D01*
X58967Y92859D02*
Y94339D01*
X61937D01*
X58967Y92859D02*
X61937D01*
X154500Y114202D02*
Y126082D01*
X163254D01*
Y114202D02*
Y126082D01*
X154500Y114202D02*
X163254D01*
X163882Y115338D02*
Y116818D01*
X166852Y115338D02*
Y116818D01*
X163882Y115338D02*
X166852D01*
X163882Y116818D02*
X166852D01*
X169108Y112677D02*
Y114907D01*
X173538Y112677D02*
Y114907D01*
X169108Y112677D02*
X173538D01*
X169108Y114907D02*
X173538D01*
X168331Y112677D02*
Y114907D01*
X163901Y112677D02*
Y114907D01*
X168331D01*
X163901Y112677D02*
X168331D01*
X159236Y110402D02*
Y113372D01*
X157756Y110402D02*
Y113372D01*
Y110402D02*
X159236D01*
X157756Y113372D02*
X159236D01*
X157331Y110402D02*
Y113372D01*
X155851Y110402D02*
Y113372D01*
Y110402D02*
X157331D01*
X155851Y113372D02*
X157331D01*
X73350Y93373D02*
Y95603D01*
X77780Y93373D02*
Y95603D01*
X73350Y93373D02*
X77780D01*
X73350Y95603D02*
X77780D01*
X77773Y96028D02*
Y98028D01*
X74373Y96028D02*
Y98028D01*
Y96028D02*
X77773D01*
X74373Y98028D02*
X77773D01*
X78056Y99035D02*
Y105435D01*
X68756D02*
X78056D01*
X68756Y99035D02*
Y105435D01*
Y99035D02*
X78056D01*
X108990Y95127D02*
Y96327D01*
X107015D02*
X108990D01*
X105090Y98252D02*
X107015Y96327D01*
X105090Y98252D02*
Y107127D01*
X108990D01*
Y108327D01*
X111990D01*
Y107127D02*
Y108327D01*
Y107127D02*
X115890D01*
Y98252D02*
Y107127D01*
X113965Y96327D02*
X115890Y98252D01*
X111990Y96327D02*
X113965D01*
X111990Y95127D02*
Y96327D01*
X108990Y95127D02*
X111990D01*
X97306Y96254D02*
Y97454D01*
X96031D02*
X97306D01*
X94406Y99079D02*
X96031Y97454D01*
X94406Y99079D02*
Y106254D01*
X97306D01*
Y107454D01*
X100306D01*
Y106254D02*
Y107454D01*
Y106254D02*
X103206D01*
Y99079D02*
Y106254D01*
X101581Y97454D02*
X103206Y99079D01*
X100306Y97454D02*
X101581D01*
X100306Y96254D02*
Y97454D01*
X97306Y96254D02*
X100306D01*
X147983Y113340D02*
X150213D01*
X147983Y108910D02*
X150213D01*
X147983D02*
Y113340D01*
X150213Y108910D02*
Y113340D01*
X144692Y106575D02*
Y108055D01*
X147662Y106575D02*
Y108055D01*
X144692Y106575D02*
X147662D01*
X144692Y108055D02*
X147662D01*
X142963Y106575D02*
Y108055D01*
X139993Y106575D02*
Y108055D01*
X142963D01*
X139993Y106575D02*
X142963D01*
X135664Y112832D02*
X137894D01*
X135664Y108402D02*
X137894D01*
X135664D02*
Y112832D01*
X137894Y108402D02*
Y112832D01*
X131892Y105543D02*
Y112643D01*
X134692D01*
Y105543D02*
Y112643D01*
X131892Y105543D02*
X134692D01*
X135531Y56300D02*
Y59270D01*
X137011Y56300D02*
Y59270D01*
X135531D02*
X137011D01*
X135531Y56300D02*
X137011D01*
X138331Y117800D02*
X140561D01*
X138331Y122230D02*
X140561D01*
Y117800D02*
Y122230D01*
X138331Y117800D02*
Y122230D01*
X138071Y125691D02*
X139551D01*
X138071Y122721D02*
X139551D01*
X138071D02*
Y125691D01*
X139551Y122721D02*
Y125691D01*
X130658Y116254D02*
Y125554D01*
X137058D01*
Y116254D02*
Y125554D01*
X130658Y116254D02*
X137058D01*
X147977Y113958D02*
X149457D01*
X147977Y116928D02*
X149457D01*
Y113958D02*
Y116928D01*
X147977Y113958D02*
Y116928D01*
X135438Y93373D02*
Y95603D01*
X131008Y93373D02*
Y95603D01*
X135438D01*
X131008Y93373D02*
X135438D01*
X135431Y95901D02*
Y97901D01*
X132031Y95901D02*
Y97901D01*
Y95901D02*
X135431D01*
X132031Y97901D02*
X135431D01*
X124499Y79988D02*
X127469D01*
X124499Y78508D02*
X127469D01*
Y79988D01*
X124499Y78508D02*
Y79988D01*
X127954Y79797D02*
X129094D01*
X127954Y81747D02*
X129094D01*
Y79797D02*
Y81747D01*
X127954Y79797D02*
Y81747D01*
X132375Y83758D02*
Y84898D01*
X134325Y83758D02*
Y84898D01*
X132375Y83758D02*
X134325D01*
X132375Y84898D02*
X134325D01*
X131443Y83580D02*
Y86600D01*
X129923Y83580D02*
X131443D01*
X129923D02*
Y86600D01*
X131443D01*
X127911Y83605D02*
X129391D01*
X127911Y86575D02*
X129391D01*
Y83605D02*
Y86575D01*
X127911Y83605D02*
Y86575D01*
X137627Y83758D02*
Y84898D01*
X135677Y83758D02*
Y84898D01*
X137627D01*
X135677Y83758D02*
X137627D01*
X138217D02*
Y84898D01*
X140167Y83758D02*
Y84898D01*
X138217Y83758D02*
X140167D01*
X138217Y84898D02*
X140167D01*
X136572Y83246D02*
X139272D01*
Y81346D02*
Y83246D01*
X136572Y81346D02*
X139272D01*
X136572D02*
Y83246D01*
X134913Y79016D02*
X137883D01*
X134913Y80496D02*
X137883D01*
X134913Y79016D02*
Y80496D01*
X137883Y79016D02*
Y80496D01*
X140611Y74334D02*
Y77304D01*
X142091Y74334D02*
Y77304D01*
X140611D02*
X142091D01*
X140611Y74334D02*
X142091D01*
X141238Y71249D02*
X144258D01*
X141238D02*
Y72769D01*
X144258D01*
Y71249D02*
Y72769D01*
X146311Y72386D02*
X155441D01*
Y59186D02*
Y72386D01*
X146311Y59186D02*
X155441D01*
X146311D02*
Y72386D01*
X149049Y55390D02*
X152449D01*
X149049Y51290D02*
Y55390D01*
X152449Y51290D02*
Y55390D01*
X149049Y51290D02*
X152449D01*
X147258Y54950D02*
X148398D01*
X147258Y53000D02*
X148398D01*
X147258D02*
Y54950D01*
X148398Y53000D02*
Y54950D01*
X153203Y51627D02*
Y52767D01*
X155153Y51627D02*
Y52767D01*
X153203Y51627D02*
X155153D01*
X153203Y52767D02*
X155153D01*
X146713Y39835D02*
X154023D01*
X146713D02*
Y50335D01*
X154023D01*
Y39835D02*
Y50335D01*
X154962Y39917D02*
X156442D01*
X154962Y42887D02*
X156442D01*
Y39917D02*
Y42887D01*
X154962Y39917D02*
Y42887D01*
X108317Y59076D02*
Y64876D01*
Y59076D02*
X115737D01*
Y64876D01*
X108317D02*
X115737D01*
X116498Y63141D02*
X119468D01*
X116498Y64621D02*
X119468D01*
X116498Y63141D02*
Y64621D01*
X119468Y63141D02*
Y64621D01*
X108756Y77402D02*
X114256D01*
X108756Y68902D02*
Y77402D01*
Y68902D02*
X114256D01*
Y77402D01*
X103914Y70004D02*
X106144D01*
X103914Y74434D02*
X106144D01*
Y70004D02*
Y74434D01*
X103914Y70004D02*
Y74434D01*
X93381Y61757D02*
Y71847D01*
Y61757D02*
X102961D01*
Y71847D01*
X93381D02*
X102961D01*
X68333Y75105D02*
Y79835D01*
X66033Y75105D02*
X68333D01*
X66033D02*
Y79835D01*
X68333D01*
X63401Y79812D02*
X65631D01*
X63401Y75382D02*
X65631D01*
X63401D02*
Y79812D01*
X65631Y75382D02*
Y79812D01*
X60607Y73731D02*
Y78161D01*
X62837Y73731D02*
Y78161D01*
X60607D02*
X62837D01*
X60607Y73731D02*
X62837D01*
X58067D02*
X60297D01*
X58067Y78161D02*
X60297D01*
Y73731D02*
Y78161D01*
X58067Y73731D02*
Y78161D01*
X58967Y78762D02*
Y80242D01*
X61937Y78762D02*
Y80242D01*
X58967Y78762D02*
X61937D01*
X58967Y80242D02*
X61937D01*
X54487Y76712D02*
X57527D01*
Y84832D01*
X54487D02*
X57527D01*
X54487Y76712D02*
Y84832D01*
X54614Y88142D02*
X57654D01*
Y96262D01*
X54614D02*
X57654D01*
X54614Y88142D02*
Y96262D01*
X63620Y93825D02*
Y98555D01*
X65920D01*
Y93825D02*
Y98555D01*
X63620Y93825D02*
X65920D01*
X60734Y99370D02*
X62964D01*
X60734Y94940D02*
X62964D01*
X60734D02*
Y99370D01*
X62964Y94940D02*
Y99370D01*
X58067D02*
X60297D01*
X58067Y94940D02*
X60297D01*
X58067D02*
Y99370D01*
X60297Y94940D02*
Y99370D01*
X119426Y108676D02*
X127716D01*
Y114418D01*
X129241D01*
Y125761D01*
X117901D02*
X129241D01*
X117901Y114418D02*
Y125761D01*
Y114418D02*
X119426D01*
Y108676D02*
Y114418D01*
X108990Y110605D02*
Y111805D01*
X107715D02*
X108990D01*
X106090Y113430D02*
X107715Y111805D01*
X106090Y113430D02*
Y120605D01*
X108990D01*
Y121805D01*
X111990D01*
Y120605D02*
Y121805D01*
Y120605D02*
X114890D01*
Y113430D02*
Y120605D01*
X113265Y111805D02*
X114890Y113430D01*
X111990Y111805D02*
X113265D01*
X111990Y110605D02*
Y111805D01*
X108990Y110605D02*
X111990D01*
X97306Y109742D02*
Y110942D01*
X95331D02*
X97306D01*
X93406Y112867D02*
X95331Y110942D01*
X93406Y112867D02*
Y121742D01*
X97306D01*
Y122942D01*
X100306D01*
Y121742D02*
Y122942D01*
Y121742D02*
X104206D01*
Y112867D02*
Y121742D01*
X102281Y110942D02*
X104206Y112867D01*
X100306Y110942D02*
X102281D01*
X100306Y109742D02*
Y110942D01*
X97306Y109742D02*
X100306D01*
X89367Y108794D02*
Y114189D01*
X90817D01*
Y125894D01*
X79617D02*
X90817D01*
X79617Y114189D02*
Y125894D01*
Y114189D02*
X81067D01*
Y108794D02*
Y114189D01*
Y108794D02*
X89367D01*
X70841Y113968D02*
X77241D01*
Y123268D01*
X70841D02*
X77241D01*
X70841Y113968D02*
Y123268D01*
X68068Y117197D02*
Y130197D01*
X48518Y117197D02*
X68068D01*
X48518D02*
Y130197D01*
X68068D01*
X65095Y113058D02*
Y115288D01*
X69525Y113058D02*
Y115288D01*
X65095Y113058D02*
X69525D01*
X65095Y115288D02*
X69525D01*
X59761Y113058D02*
Y115288D01*
X64191Y113058D02*
Y115288D01*
X59761Y113058D02*
X64191D01*
X59761Y115288D02*
X64191D01*
X45240Y113101D02*
X47470D01*
X45240Y117531D02*
X47470D01*
Y113101D02*
Y117531D01*
X45240Y113101D02*
Y117531D01*
X42573Y113101D02*
X44803D01*
X42573Y117531D02*
X44803D01*
Y113101D02*
Y117531D01*
X42573Y113101D02*
Y117531D01*
X34764Y112462D02*
Y117662D01*
X36864D01*
Y112462D02*
Y117662D01*
X34764Y112462D02*
X36864D01*
Y103191D02*
Y108391D01*
X34764Y103191D02*
X36864D01*
X34764D02*
Y108391D01*
X36864D01*
X34891Y86935D02*
Y92135D01*
X36991D01*
Y86935D02*
Y92135D01*
X34891Y86935D02*
X36991D01*
X34764Y82737D02*
X36864D01*
X34764Y77537D02*
Y82737D01*
Y77537D02*
X36864D01*
Y82737D01*
X67576Y67592D02*
Y69822D01*
X63146Y67592D02*
Y69822D01*
X67576D01*
X63146Y67592D02*
X67576D01*
X63197Y70501D02*
Y72501D01*
X66597Y70501D02*
Y72501D01*
X63197D02*
X66597D01*
X63197Y70501D02*
X66597D01*
X58533Y67596D02*
Y71596D01*
X56783Y67596D02*
X58533D01*
X56783D02*
Y71596D01*
X58533D01*
X46277Y73939D02*
X55577D01*
Y67539D02*
Y73939D01*
X46277Y67539D02*
X55577D01*
X46277D02*
Y73939D01*
X35863Y67539D02*
X45163D01*
X35863D02*
Y73939D01*
X45163D01*
Y67539D02*
Y73939D01*
X30424Y67592D02*
Y69822D01*
X34854Y67592D02*
Y69822D01*
X30424Y67592D02*
X34854D01*
X30424Y69822D02*
X34854D01*
X30431Y70501D02*
Y72501D01*
X33831Y70501D02*
Y72501D01*
X30431D02*
X33831D01*
X30431Y70501D02*
X33831D01*
X30442Y29861D02*
X33842D01*
X30442Y31861D02*
X33842D01*
Y29861D02*
Y31861D01*
X30442Y29861D02*
Y31861D01*
X26698Y30170D02*
Y34600D01*
X28928Y30170D02*
Y34600D01*
X26698D02*
X28928D01*
X26698Y30170D02*
X28928D01*
X91807Y27210D02*
Y31210D01*
X90057Y27210D02*
X91807D01*
X90057D02*
Y31210D01*
X91807D01*
X78535Y27026D02*
Y33426D01*
Y27026D02*
X87835D01*
Y33426D01*
X78535D02*
X87835D01*
X77421Y27026D02*
Y33426D01*
X68121D02*
X77421D01*
X68121Y27026D02*
Y33426D01*
Y27026D02*
X77421D01*
X63451Y29988D02*
X66851D01*
X63451Y31988D02*
X66851D01*
Y29988D02*
Y31988D01*
X63451Y29988D02*
Y31988D01*
X62936Y27079D02*
X67366D01*
X62936Y29309D02*
X67366D01*
X62936Y27079D02*
Y29309D01*
X67366Y27079D02*
Y29309D01*
X60938Y30011D02*
Y32981D01*
X59458Y30011D02*
Y32981D01*
Y30011D02*
X60938D01*
X59458Y32981D02*
X60938D01*
X56783Y29496D02*
X58533D01*
Y33496D01*
X56783D02*
X58533D01*
X56783Y29496D02*
Y33496D01*
X46150Y27153D02*
Y33553D01*
Y27153D02*
X55450D01*
Y33553D01*
X46150D02*
X55450D01*
X45036Y27153D02*
Y33553D01*
X35736D02*
X45036D01*
X35736Y27153D02*
Y33553D01*
Y27153D02*
X45036D01*
X103914Y58999D02*
X106144D01*
X103914Y63429D02*
X106144D01*
Y58999D02*
Y63429D01*
X103914Y58999D02*
Y63429D01*
X105261Y54903D02*
Y57873D01*
X103781Y54903D02*
Y57873D01*
Y54903D02*
X105261D01*
X103781Y57873D02*
X105261D01*
X93254Y60925D02*
X102834D01*
Y50835D02*
Y60925D01*
X93254Y50835D02*
X102834D01*
X93254D02*
Y60925D01*
X103914Y48077D02*
X106144D01*
X103914Y52507D02*
X106144D01*
Y48077D02*
Y52507D01*
X103914Y48077D02*
Y52507D01*
X106702Y46521D02*
X108182D01*
X106702Y49491D02*
X108182D01*
Y46521D02*
Y49491D01*
X106702Y46521D02*
Y49491D01*
X103781Y46951D02*
X105261D01*
X103781Y43981D02*
X105261D01*
X103781D02*
Y46951D01*
X105261Y43981D02*
Y46951D01*
X93254Y39913D02*
Y50003D01*
Y39913D02*
X102834D01*
Y50003D01*
X93254D02*
X102834D01*
X103908Y36029D02*
X105388D01*
X103908Y33059D02*
X105388D01*
X103908D02*
Y36029D01*
X105388Y33059D02*
Y36029D01*
X93381Y28991D02*
Y39081D01*
Y28991D02*
X102961D01*
Y39081D01*
X93381D02*
X102961D01*
X104041Y37155D02*
X106271D01*
X104041Y41585D02*
X106271D01*
Y37155D02*
Y41585D01*
X104041Y37155D02*
Y41585D01*
X106702Y35599D02*
X108182D01*
X106702Y38569D02*
X108182D01*
Y35599D02*
Y38569D01*
X106702Y35599D02*
Y38569D01*
X127639Y37185D02*
X138299D01*
X127639Y17405D02*
Y37185D01*
Y17405D02*
X138299D01*
Y37185D01*
X125218Y20072D02*
Y34552D01*
X117098Y20072D02*
X125218D01*
X117098D02*
Y34552D01*
X125218D01*
X106684Y34425D02*
X114804D01*
X106684Y19945D02*
Y34425D01*
Y19945D02*
X114804D01*
Y34425D01*
X124990Y35853D02*
Y38823D01*
X126470Y35853D02*
Y38823D01*
X124990D02*
X126470D01*
X124990Y35853D02*
X126470D01*
X136723Y44814D02*
X141153D01*
X136723Y42584D02*
X141153D01*
Y44814D01*
X136723Y42584D02*
Y44814D01*
X133713Y42627D02*
Y47057D01*
X135943Y42627D02*
Y47057D01*
X133713D02*
X135943D01*
X133713Y42627D02*
X135943D01*
X124612Y42584D02*
X129042D01*
X124612Y44814D02*
X129042D01*
X124612Y42584D02*
Y44814D01*
X129042Y42584D02*
Y44814D01*
X129776Y42627D02*
Y47057D01*
X132006Y42627D02*
Y47057D01*
X129776D02*
X132006D01*
X129776Y42627D02*
X132006D01*
X136541Y41843D02*
X138541D01*
X136541Y38443D02*
X138541D01*
Y41843D01*
X136541Y38443D02*
Y41843D01*
X133874Y41843D02*
X135874D01*
X133874Y38443D02*
X135874D01*
Y41843D01*
X133874Y38443D02*
Y41843D01*
X129891Y41843D02*
X131891D01*
X129891Y38443D02*
X131891D01*
Y41843D01*
X129891Y38443D02*
Y41843D01*
X127351Y41832D02*
X129351D01*
X127351Y38432D02*
X129351D01*
Y41832D01*
X127351Y38432D02*
Y41832D01*
X109750Y92163D02*
X111230D01*
X109750Y89193D02*
X111230D01*
X109750D02*
Y92163D01*
X111230Y89193D02*
Y92163D01*
X114466Y90578D02*
X117436D01*
X114466Y92048D02*
X117436D01*
X114466Y90578D02*
Y92048D01*
X117436Y90578D02*
Y92048D01*
X111626Y92154D02*
X113926D01*
X111626Y87424D02*
Y92154D01*
Y87424D02*
X113926D01*
Y92154D01*
X89930Y69882D02*
X91680D01*
Y73882D01*
X89930D02*
X91680D01*
X89930Y69882D02*
Y73882D01*
X92561Y43359D02*
Y46329D01*
X91081Y43359D02*
Y46329D01*
Y43359D02*
X92561D01*
X91081Y46329D02*
X92561D01*
X44902Y77498D02*
X49332D01*
X44902Y79728D02*
X49332D01*
X44902Y77498D02*
Y79728D01*
X49332Y77498D02*
Y79728D01*
X44902Y85147D02*
X49332D01*
X44902Y82917D02*
X49332D01*
Y85147D01*
X44902Y82917D02*
Y85147D01*
Y82437D02*
X49332D01*
X44902Y80207D02*
X49332D01*
Y82437D01*
X44902Y80207D02*
Y82437D01*
X44775Y85626D02*
X49205D01*
X44775Y87856D02*
X49205D01*
X44775Y85626D02*
Y87856D01*
X49205Y85626D02*
Y87856D01*
X108910Y84356D02*
X113340D01*
X108910Y86586D02*
X113340D01*
Y84356D02*
Y86586D01*
X108910Y84356D02*
Y86586D01*
X116911Y84483D02*
X121341D01*
X116911Y86713D02*
X121341D01*
Y84483D02*
Y86713D01*
X116911Y84483D02*
Y86713D01*
X92749Y81810D02*
X95719D01*
X92749Y83290D02*
X95719D01*
Y81810D02*
Y83290D01*
X92749Y81810D02*
Y83290D01*
X91208Y64555D02*
Y67525D01*
X92688Y64555D02*
Y67525D01*
X91208Y64555D02*
X92688D01*
X91208Y67525D02*
X92688D01*
X157362Y113732D02*
X160982D01*
X157362D02*
Y116392D01*
X160982D01*
Y113732D02*
Y116392D01*
X157362Y116653D02*
X160982D01*
X157362D02*
Y119313D01*
X160982D01*
Y116653D02*
Y119313D01*
X157362Y119574D02*
X160982D01*
X157362D02*
Y122234D01*
X160982D01*
Y119574D02*
Y122234D01*
X142317Y35837D02*
X158317D01*
Y18837D02*
Y35837D01*
X142317Y18837D02*
X158317D01*
X142317D02*
Y35837D01*
X133876Y79453D02*
Y82853D01*
X129776D02*
X133876D01*
X129776Y79453D02*
X133876D01*
X129776D02*
Y82853D01*
X120545Y76923D02*
X122025D01*
X120545Y73953D02*
X122025D01*
X120545D02*
Y76923D01*
X122025Y73953D02*
Y76923D01*
X107943Y38332D02*
X122993D01*
Y54632D01*
X119693D02*
X122993D01*
X119693Y53332D02*
Y54632D01*
X109843Y53332D02*
X119693D01*
X109843D02*
Y53632D01*
X107943D02*
X109843D01*
X107943Y38332D02*
Y53632D01*
X68375Y67539D02*
X77675D01*
X68375D02*
Y73939D01*
X77675D01*
Y67539D02*
Y73939D01*
X105261Y65825D02*
Y68795D01*
X103781Y65825D02*
Y68795D01*
Y65825D02*
X105261D01*
X103781Y68795D02*
X105261D01*
X78813Y67539D02*
Y73939D01*
Y67539D02*
X88113D01*
Y73939D01*
X78813D02*
X88113D01*
X106194Y65825D02*
Y68795D01*
X107674Y65825D02*
Y68795D01*
X106194D02*
X107674D01*
X106194Y65825D02*
X107674D01*
X92688Y32678D02*
Y35648D01*
X91208Y32678D02*
Y35648D01*
Y32678D02*
X92688D01*
X91208Y35648D02*
X92688D01*
X92561Y54408D02*
Y57378D01*
X91081Y54408D02*
Y57378D01*
Y54408D02*
X92561D01*
X91081Y57378D02*
X92561D01*
M02*
