%TF.GenerationSoftware,Altium Limited,Altium Designer,22.2.1 (43)*%
G04 Layer_Color=128*
%FSLAX44Y44*%
%MOMM*%
%TF.SameCoordinates,0AFF7D02-74C0-442A-A7DB-72135CCE8720*%
%TF.FilePolarity,Positive*%
%TF.FileFunction,Paste,Bot*%
%TF.Part,Single*%
G01*
G75*
%TA.AperFunction,SMDPad,CuDef*%
%ADD10R,0.9700X1.7300*%
%ADD11R,1.7300X0.9700*%
%ADD15R,0.9800X0.9200*%
%ADD17R,0.9200X0.9800*%
G04:AMPARAMS|DCode=100|XSize=0.94mm|YSize=1.02mm|CornerRadius=0.094mm|HoleSize=0mm|Usage=FLASHONLY|Rotation=0.000|XOffset=0mm|YOffset=0mm|HoleType=Round|Shape=RoundedRectangle|*
%AMROUNDEDRECTD100*
21,1,0.9400,0.8320,0,0,0.0*
21,1,0.7520,1.0200,0,0,0.0*
1,1,0.1880,0.3760,-0.4160*
1,1,0.1880,-0.3760,-0.4160*
1,1,0.1880,-0.3760,0.4160*
1,1,0.1880,0.3760,0.4160*
%
%ADD100ROUNDEDRECTD100*%
G04:AMPARAMS|DCode=101|XSize=0.94mm|YSize=1.02mm|CornerRadius=0.094mm|HoleSize=0mm|Usage=FLASHONLY|Rotation=90.000|XOffset=0mm|YOffset=0mm|HoleType=Round|Shape=RoundedRectangle|*
%AMROUNDEDRECTD101*
21,1,0.9400,0.8320,0,0,90.0*
21,1,0.7520,1.0200,0,0,90.0*
1,1,0.1880,0.4160,0.3760*
1,1,0.1880,0.4160,-0.3760*
1,1,0.1880,-0.4160,-0.3760*
1,1,0.1880,-0.4160,0.3760*
%
%ADD101ROUNDEDRECTD101*%
G04:AMPARAMS|DCode=102|XSize=1.23mm|YSize=0.6mm|CornerRadius=0.075mm|HoleSize=0mm|Usage=FLASHONLY|Rotation=180.000|XOffset=0mm|YOffset=0mm|HoleType=Round|Shape=RoundedRectangle|*
%AMROUNDEDRECTD102*
21,1,1.2300,0.4500,0,0,180.0*
21,1,1.0800,0.6000,0,0,180.0*
1,1,0.1500,-0.5400,0.2250*
1,1,0.1500,0.5400,0.2250*
1,1,0.1500,0.5400,-0.2250*
1,1,0.1500,-0.5400,-0.2250*
%
%ADD102ROUNDEDRECTD102*%
%ADD103R,1.5000X0.8000*%
%ADD104R,1.9000X1.4000*%
%ADD105R,1.4000X1.3000*%
%ADD106R,1.0000X0.9500*%
D10*
X1490150Y660400D02*
D03*
X1519750D02*
D03*
X1490150Y727710D02*
D03*
X1519750D02*
D03*
X1490150Y756920D02*
D03*
X1519750D02*
D03*
Y824230D02*
D03*
X1490150D02*
D03*
X1519750Y853440D02*
D03*
X1490150D02*
D03*
Y920750D02*
D03*
X1519750D02*
D03*
X1490150Y1017270D02*
D03*
X1519750D02*
D03*
X1570550Y802640D02*
D03*
X1540950Y802640D02*
D03*
X1570550Y777240D02*
D03*
X1540950D02*
D03*
X1539680Y995680D02*
D03*
X1539680Y970280D02*
D03*
X1540950Y873760D02*
D03*
X1541390Y899160D02*
D03*
X1540950Y706120D02*
D03*
Y680720D02*
D03*
X1569280Y995680D02*
D03*
X1570550Y706120D02*
D03*
X1570990Y899160D02*
D03*
X1569280Y970280D02*
D03*
X1570550Y680720D02*
D03*
X1570550Y873760D02*
D03*
X1519750Y949960D02*
D03*
X1490150D02*
D03*
D11*
X1045210Y869510D02*
D03*
Y839910D02*
D03*
X1019810Y869510D02*
D03*
Y839910D02*
D03*
D15*
X1347470Y636400D02*
D03*
Y620900D02*
D03*
X1322070Y636400D02*
D03*
Y620900D02*
D03*
D17*
X1041530Y814070D02*
D03*
X1026030D02*
D03*
D100*
X1331950Y603250D02*
D03*
X1347750D02*
D03*
D101*
X1303020Y620750D02*
D03*
Y636550D02*
D03*
D102*
X1513010Y800179D02*
D03*
X1491810Y790678D02*
D03*
X1513010Y781178D02*
D03*
Y684658D02*
D03*
X1491810Y694158D02*
D03*
X1513010Y703659D02*
D03*
X1512180Y877698D02*
D03*
X1490980Y887198D02*
D03*
X1512180Y896699D02*
D03*
X1512650Y974219D02*
D03*
X1491450Y983719D02*
D03*
X1512650Y993219D02*
D03*
D103*
X1454880Y590530D02*
D03*
X1458880Y579530D02*
D03*
X1454880Y568530D02*
D03*
X1452880Y557530D02*
D03*
X1454880Y546530D02*
D03*
X1452880Y535530D02*
D03*
X1454880Y524530D02*
D03*
Y513530D02*
D03*
D104*
X1421980Y637130D02*
D03*
X1431980Y505630D02*
D03*
D105*
X1563480Y578630D02*
D03*
Y521630D02*
D03*
D106*
X1565480Y535530D02*
D03*
%TF.MD5,9726a6cb7731d105215b79f9031c82be*%
M02*
