G04*
G04 #@! TF.GenerationSoftware,Altium Limited,Altium Designer,22.2.1 (43)*
G04*
G04 Layer_Color=2752767*
%FSLAX43Y43*%
%MOMM*%
G71*
G04*
G04 #@! TF.SameCoordinates,554F8E3F-4C3B-413C-AF13-BA86D744421E*
G04*
G04*
G04 #@! TF.FilePolarity,Positive*
G04*
G01*
G75*
%ADD18C,0.051*%
%ADD210C,0.068*%
%ADD211C,0.034*%
D18*
X48311Y43612D02*
Y44018D01*
X48717D01*
Y43612D01*
X48311D01*
X78664Y60147D02*
Y60554D01*
X79070D01*
Y60147D01*
X78664D01*
X48311Y59995D02*
Y60401D01*
X48717D01*
Y59995D01*
X48311D01*
X78664Y43612D02*
Y44018D01*
X79070D01*
Y43612D01*
X78664D01*
X51562Y92761D02*
X51359Y93167D01*
X51765D01*
X51562Y92761D01*
Y95301D02*
X51359Y95707D01*
X51765D01*
X51562Y95301D01*
Y97841D02*
X51359Y98247D01*
X51765D01*
X51562Y97841D01*
Y83617D02*
X51359Y84023D01*
X51765D01*
X51562Y83617D01*
Y86157D02*
X51359Y86563D01*
X51765D01*
X51562Y86157D01*
Y88697D02*
X51359Y89103D01*
X51765D01*
X51562Y88697D01*
X60965Y123368D02*
X61067Y123469D01*
X61168D01*
X61067Y123571D01*
X61168Y123673D01*
X61067D01*
X60965Y123774D01*
X60863Y123673D01*
X60762D01*
X60863Y123571D01*
X60762Y123469D01*
X60863D01*
X60965Y123368D01*
X51435D02*
X51537Y123469D01*
X51638D01*
X51537Y123571D01*
X51638Y123673D01*
X51537D01*
X51435Y123774D01*
X51333Y123673D01*
X51232D01*
X51333Y123571D01*
X51232Y123469D01*
X51333D01*
X51435Y123368D01*
X95428Y56693D02*
X95529Y56896D01*
X95428Y57099D01*
X95631Y56998D01*
X95834Y57099D01*
X95733Y56896D01*
X95834Y56693D01*
X95631Y56794D01*
X95428Y56693D01*
Y54153D02*
X95529Y54356D01*
X95428Y54559D01*
X95631Y54458D01*
X95834Y54559D01*
X95733Y54356D01*
X95834Y54153D01*
X95631Y54254D01*
X95428Y54153D01*
Y51613D02*
X95529Y51816D01*
X95428Y52019D01*
X95631Y51918D01*
X95834Y52019D01*
X95733Y51816D01*
X95834Y51613D01*
X95631Y51714D01*
X95428Y51613D01*
X87488Y59233D02*
X87589Y59436D01*
X87488Y59639D01*
X87691Y59538D01*
X87894Y59639D01*
X87793Y59436D01*
X87894Y59233D01*
X87691Y59334D01*
X87488Y59233D01*
Y54153D02*
X87589Y54356D01*
X87488Y54559D01*
X87691Y54458D01*
X87894Y54559D01*
X87793Y54356D01*
X87894Y54153D01*
X87691Y54254D01*
X87488Y54153D01*
Y51613D02*
X87589Y51816D01*
X87488Y52019D01*
X87691Y51918D01*
X87894Y52019D01*
X87793Y51816D01*
X87894Y51613D01*
X87691Y51714D01*
X87488Y51613D01*
Y56693D02*
X87589Y56896D01*
X87488Y57099D01*
X87691Y56998D01*
X87894Y57099D01*
X87793Y56896D01*
X87894Y56693D01*
X87691Y56794D01*
X87488Y56693D01*
X95428Y59233D02*
X95529Y59436D01*
X95428Y59639D01*
X95631Y59538D01*
X95834Y59639D01*
X95733Y59436D01*
X95834Y59233D01*
X95631Y59334D01*
X95428Y59233D01*
X95461Y31801D02*
X95562Y32004D01*
X95461Y32207D01*
X95664Y32106D01*
X95867Y32207D01*
X95766Y32004D01*
X95867Y31801D01*
X95664Y31902D01*
X95461Y31801D01*
Y29261D02*
X95562Y29464D01*
X95461Y29667D01*
X95664Y29566D01*
X95867Y29667D01*
X95766Y29464D01*
X95867Y29261D01*
X95664Y29362D01*
X95461Y29261D01*
Y26721D02*
X95562Y26924D01*
X95461Y27127D01*
X95664Y27026D01*
X95867Y27127D01*
X95766Y26924D01*
X95867Y26721D01*
X95664Y26822D01*
X95461Y26721D01*
X87521Y34341D02*
X87622Y34544D01*
X87521Y34747D01*
X87724Y34646D01*
X87927Y34747D01*
X87826Y34544D01*
X87927Y34341D01*
X87724Y34442D01*
X87521Y34341D01*
Y26721D02*
X87622Y26924D01*
X87521Y27127D01*
X87724Y27026D01*
X87927Y27127D01*
X87826Y26924D01*
X87927Y26721D01*
X87724Y26822D01*
X87521Y26721D01*
Y31801D02*
X87622Y32004D01*
X87521Y32207D01*
X87724Y32106D01*
X87927Y32207D01*
X87826Y32004D01*
X87927Y31801D01*
X87724Y31902D01*
X87521Y31801D01*
Y29261D02*
X87622Y29464D01*
X87521Y29667D01*
X87724Y29566D01*
X87927Y29667D01*
X87826Y29464D01*
X87927Y29261D01*
X87724Y29362D01*
X87521Y29261D01*
X95461Y34341D02*
X95562Y34544D01*
X95461Y34747D01*
X95664Y34646D01*
X95867Y34747D01*
X95766Y34544D01*
X95867Y34341D01*
X95664Y34442D01*
X95461Y34341D01*
Y64059D02*
X95562Y64262D01*
X95461Y64465D01*
X95664Y64364D01*
X95867Y64465D01*
X95766Y64262D01*
X95867Y64059D01*
X95664Y64160D01*
X95461Y64059D01*
Y66599D02*
X95562Y66802D01*
X95461Y67005D01*
X95664Y66904D01*
X95867Y67005D01*
X95766Y66802D01*
X95867Y66599D01*
X95664Y66700D01*
X95461Y66599D01*
Y69139D02*
X95562Y69342D01*
X95461Y69545D01*
X95664Y69444D01*
X95867Y69545D01*
X95766Y69342D01*
X95867Y69139D01*
X95664Y69240D01*
X95461Y69139D01*
X87521Y71679D02*
X87622Y71882D01*
X87521Y72085D01*
X87724Y71984D01*
X87927Y72085D01*
X87826Y71882D01*
X87927Y71679D01*
X87724Y71780D01*
X87521Y71679D01*
Y64059D02*
X87622Y64262D01*
X87521Y64465D01*
X87724Y64364D01*
X87927Y64465D01*
X87826Y64262D01*
X87927Y64059D01*
X87724Y64160D01*
X87521Y64059D01*
Y69139D02*
X87622Y69342D01*
X87521Y69545D01*
X87724Y69444D01*
X87927Y69545D01*
X87826Y69342D01*
X87927Y69139D01*
X87724Y69240D01*
X87521Y69139D01*
Y66599D02*
X87622Y66802D01*
X87521Y67005D01*
X87724Y66904D01*
X87927Y67005D01*
X87826Y66802D01*
X87927Y66599D01*
X87724Y66700D01*
X87521Y66599D01*
X95461Y71679D02*
X95562Y71882D01*
X95461Y72085D01*
X95664Y71984D01*
X95867Y72085D01*
X95766Y71882D01*
X95867Y71679D01*
X95664Y71780D01*
X95461Y71679D01*
X95334Y39167D02*
X95435Y39370D01*
X95334Y39573D01*
X95537Y39472D01*
X95740Y39573D01*
X95639Y39370D01*
X95740Y39167D01*
X95537Y39268D01*
X95334Y39167D01*
Y41707D02*
X95435Y41910D01*
X95334Y42113D01*
X95537Y42012D01*
X95740Y42113D01*
X95639Y41910D01*
X95740Y41707D01*
X95537Y41808D01*
X95334Y41707D01*
Y44247D02*
X95435Y44450D01*
X95334Y44653D01*
X95537Y44552D01*
X95740Y44653D01*
X95639Y44450D01*
X95740Y44247D01*
X95537Y44348D01*
X95334Y44247D01*
X87394Y46787D02*
X87495Y46990D01*
X87394Y47193D01*
X87597Y47092D01*
X87800Y47193D01*
X87699Y46990D01*
X87800Y46787D01*
X87597Y46888D01*
X87394Y46787D01*
Y39167D02*
X87495Y39370D01*
X87394Y39573D01*
X87597Y39472D01*
X87800Y39573D01*
X87699Y39370D01*
X87800Y39167D01*
X87597Y39268D01*
X87394Y39167D01*
X95334Y46787D02*
X95435Y46990D01*
X95334Y47193D01*
X95537Y47092D01*
X95740Y47193D01*
X95639Y46990D01*
X95740Y46787D01*
X95537Y46888D01*
X95334Y46787D01*
X87394Y44247D02*
X87495Y44450D01*
X87394Y44653D01*
X87597Y44552D01*
X87800Y44653D01*
X87699Y44450D01*
X87800Y44247D01*
X87597Y44348D01*
X87394Y44247D01*
Y41707D02*
X87495Y41910D01*
X87394Y42113D01*
X87597Y42012D01*
X87800Y42113D01*
X87699Y41910D01*
X87800Y41707D01*
X87597Y41808D01*
X87394Y41707D01*
X134423Y75971D02*
Y75870D01*
X134627D01*
Y75971D01*
X134728D01*
Y76175D01*
X134627D01*
Y76276D01*
X134423D01*
Y76175D01*
X134322D01*
Y75971D01*
X134423D01*
Y78511D02*
Y78410D01*
X134627D01*
Y78511D01*
X134728D01*
Y78715D01*
X134627D01*
Y78816D01*
X134423D01*
Y78715D01*
X134322D01*
Y78511D01*
X134423D01*
X134423Y81051D02*
Y80950D01*
X134627D01*
Y81051D01*
X134728D01*
Y81255D01*
X134627D01*
Y81356D01*
X134423D01*
Y81255D01*
X134322D01*
Y81051D01*
X134423D01*
X34849Y122225D02*
X34950D01*
X35052Y122326D01*
X35154Y122225D01*
X35255D01*
Y122326D01*
X35154Y122428D01*
X35255Y122530D01*
Y122631D01*
X35154D01*
X35052Y122530D01*
X34950Y122631D01*
X34849D01*
Y122530D01*
X34950Y122428D01*
X34849Y122326D01*
Y122225D01*
X37384D02*
X37485D01*
X37587Y122326D01*
X37689Y122225D01*
X37790D01*
Y122326D01*
X37689Y122428D01*
X37790Y122530D01*
Y122631D01*
X37689D01*
X37587Y122530D01*
X37485Y122631D01*
X37384D01*
Y122530D01*
X37485Y122428D01*
X37384Y122326D01*
Y122225D01*
X39919D02*
X40020D01*
X40122Y122326D01*
X40224Y122225D01*
X40325D01*
Y122326D01*
X40224Y122428D01*
X40325Y122530D01*
Y122631D01*
X40224D01*
X40122Y122530D01*
X40020Y122631D01*
X39919D01*
Y122530D01*
X40020Y122428D01*
X39919Y122326D01*
Y122225D01*
X134423Y92481D02*
Y92380D01*
X134627D01*
Y92481D01*
X134728D01*
Y92685D01*
X134627D01*
Y92786D01*
X134423D01*
Y92685D01*
X134322D01*
Y92481D01*
X134423D01*
Y89941D02*
Y89840D01*
X134627D01*
Y89941D01*
X134728D01*
Y90145D01*
X134627D01*
Y90246D01*
X134423D01*
Y90145D01*
X134322D01*
Y89941D01*
X134423D01*
X134423Y87401D02*
Y87300D01*
X134627D01*
Y87401D01*
X134728D01*
Y87605D01*
X134627D01*
Y87706D01*
X134423D01*
Y87605D01*
X134322D01*
Y87401D01*
X134423D01*
X169901Y87859D02*
X170104Y88062D01*
X170307Y87859D01*
X170104Y87655D01*
X169901Y87859D01*
Y61849D02*
X170104Y62052D01*
X170307Y61849D01*
X170104Y61646D01*
X169901Y61849D01*
X167411Y87859D02*
X167615Y88062D01*
X167818Y87859D01*
X167615Y87655D01*
X167411Y87859D01*
X164897D02*
X165100Y88062D01*
X165303Y87859D01*
X165100Y87655D01*
X164897Y87859D01*
X162408D02*
X162611Y88062D01*
X162814Y87859D01*
X162611Y87655D01*
X162408Y87859D01*
X169901Y84353D02*
X170104Y84557D01*
X170307Y84353D01*
X170104Y84150D01*
X169901Y84353D01*
Y79350D02*
X170104Y79553D01*
X170307Y79350D01*
X170104Y79146D01*
X169901Y79350D01*
X167411D02*
X167615Y79553D01*
X167818Y79350D01*
X167615Y79146D01*
X167411Y79350D01*
X164897D02*
X165100Y79553D01*
X165303Y79350D01*
X165100Y79146D01*
X164897Y79350D01*
Y61849D02*
X165100Y62052D01*
X165303Y61849D01*
X165100Y61646D01*
X164897Y61849D01*
X167411D02*
X167615Y62052D01*
X167818Y61849D01*
X167615Y61646D01*
X167411Y61849D01*
X169901Y64338D02*
X170104Y64541D01*
X170307Y64338D01*
X170104Y64135D01*
X169901Y64338D01*
Y66853D02*
X170104Y67056D01*
X170307Y66853D01*
X170104Y66650D01*
X169901Y66853D01*
Y69342D02*
X170104Y69545D01*
X170307Y69342D01*
X170104Y69139D01*
X169901Y69342D01*
Y71857D02*
X170104Y72060D01*
X170307Y71857D01*
X170104Y71653D01*
X169901Y71857D01*
Y74346D02*
X170104Y74549D01*
X170307Y74346D01*
X170104Y74143D01*
X169901Y74346D01*
X162408Y76860D02*
X162611Y77064D01*
X162814Y76860D01*
X162611Y76657D01*
X162408Y76860D01*
X167411D02*
X167615Y77064D01*
X167818Y76860D01*
X167615Y76657D01*
X167411Y76860D01*
X169901D02*
X170104Y77064D01*
X170307Y76860D01*
X170104Y76657D01*
X169901Y76860D01*
X162408Y79350D02*
X162611Y79553D01*
X162814Y79350D01*
X162611Y79146D01*
X162408Y79350D01*
X164897Y81839D02*
X165100Y82042D01*
X165303Y81839D01*
X165100Y81636D01*
X164897Y81839D01*
X162408Y84353D02*
X162611Y84557D01*
X162814Y84353D01*
X162611Y84150D01*
X162408Y84353D01*
X164897D02*
X165100Y84557D01*
X165303Y84353D01*
X165100Y84150D01*
X164897Y84353D01*
X162408Y61849D02*
X162611Y62052D01*
X162814Y61849D01*
X162611Y61646D01*
X162408Y61849D01*
Y81839D02*
X162611Y82042D01*
X162814Y81839D01*
X162611Y81636D01*
X162408Y81839D01*
Y64338D02*
X162611Y64541D01*
X162814Y64338D01*
X162611Y64135D01*
X162408Y64338D01*
X164897D02*
X165100Y64541D01*
X165303Y64338D01*
X165100Y64135D01*
X164897Y64338D01*
X167411D02*
X167615Y64541D01*
X167818Y64338D01*
X167615Y64135D01*
X167411Y64338D01*
X162408Y66853D02*
X162611Y67056D01*
X162814Y66853D01*
X162611Y66650D01*
X162408Y66853D01*
X164897D02*
X165100Y67056D01*
X165303Y66853D01*
X165100Y66650D01*
X164897Y66853D01*
X167411D02*
X167615Y67056D01*
X167818Y66853D01*
X167615Y66650D01*
X167411Y66853D01*
X162408Y69342D02*
X162611Y69545D01*
X162814Y69342D01*
X162611Y69139D01*
X162408Y69342D01*
X164897D02*
X165100Y69545D01*
X165303Y69342D01*
X165100Y69139D01*
X164897Y69342D01*
X167411D02*
X167615Y69545D01*
X167818Y69342D01*
X167615Y69139D01*
X167411Y69342D01*
X162408Y71857D02*
X162611Y72060D01*
X162814Y71857D01*
X162611Y71653D01*
X162408Y71857D01*
X164897D02*
X165100Y72060D01*
X165303Y71857D01*
X165100Y71653D01*
X164897Y71857D01*
X167411D02*
X167615Y72060D01*
X167818Y71857D01*
X167615Y71653D01*
X167411Y71857D01*
X162408Y74346D02*
X162611Y74549D01*
X162814Y74346D01*
X162611Y74143D01*
X162408Y74346D01*
X164897D02*
X165100Y74549D01*
X165303Y74346D01*
X165100Y74143D01*
X164897Y74346D01*
X167411D02*
X167615Y74549D01*
X167818Y74346D01*
X167615Y74143D01*
X167411Y74346D01*
X164897Y76860D02*
X165100Y77064D01*
X165303Y76860D01*
X165100Y76657D01*
X164897Y76860D01*
X167411Y81839D02*
X167615Y82042D01*
X167818Y81839D01*
X167615Y81636D01*
X167411Y81839D01*
X169901D02*
X170104Y82042D01*
X170307Y81839D01*
X170104Y81636D01*
X169901Y81839D01*
X167411Y84353D02*
X167615Y84557D01*
X167818Y84353D01*
X167615Y84150D01*
X167411Y84353D01*
X162408Y91542D02*
X162611Y91745D01*
X162814Y91542D01*
X162611Y91338D01*
X162408Y91542D01*
X164897D02*
X165100Y91745D01*
X165303Y91542D01*
X165100Y91338D01*
X164897Y91542D01*
X167411D02*
X167615Y91745D01*
X167818Y91542D01*
X167615Y91338D01*
X167411Y91542D01*
X169901D02*
X170104Y91745D01*
X170307Y91542D01*
X170104Y91338D01*
X169901Y91542D01*
X161417Y55194D02*
Y55601D01*
X161823D01*
Y55194D01*
X161417D01*
X161519Y55296D02*
Y55499D01*
X161722D01*
Y55296D01*
X161519D01*
X161417Y97790D02*
Y98196D01*
X161823D01*
Y97790D01*
X161417D01*
X161519Y97892D02*
Y98095D01*
X161722D01*
Y97892D01*
X161519D01*
X39497Y110033D02*
X39294Y110439D01*
X39700D01*
X39497Y110033D01*
Y110134D02*
X39395Y110338D01*
X39599D01*
X39497Y110134D01*
Y107493D02*
X39294Y107899D01*
X39700D01*
X39497Y107493D01*
Y107594D02*
X39395Y107798D01*
X39599D01*
X39497Y107594D01*
Y104953D02*
X39294Y105359D01*
X39700D01*
X39497Y104953D01*
Y105054D02*
X39395Y105258D01*
X39599D01*
X39497Y105054D01*
Y102413D02*
X39294Y102819D01*
X39700D01*
X39497Y102413D01*
Y102514D02*
X39395Y102718D01*
X39599D01*
X39497Y102514D01*
X47117Y102413D02*
X46914Y102819D01*
X47320D01*
X47117Y102413D01*
Y102514D02*
X47015Y102718D01*
X47219D01*
X47117Y102514D01*
Y104953D02*
X46914Y105359D01*
X47320D01*
X47117Y104953D01*
Y105054D02*
X47015Y105258D01*
X47219D01*
X47117Y105054D01*
Y107493D02*
X46914Y107899D01*
X47320D01*
X47117Y107493D01*
Y107594D02*
X47015Y107798D01*
X47219D01*
X47117Y107594D01*
Y110033D02*
X46914Y110439D01*
X47320D01*
X47117Y110033D01*
Y110134D02*
X47015Y110338D01*
X47219D01*
X47117Y110134D01*
X28499Y94915D02*
X28600D01*
X28702Y95016D01*
X28804Y94915D01*
X28905D01*
Y95016D01*
X28804Y95118D01*
X28905Y95220D01*
Y95321D01*
X28804D01*
X28702Y95220D01*
X28600Y95321D01*
X28499D01*
Y95220D01*
X28600Y95118D01*
X28499Y95016D01*
Y94915D01*
Y89845D02*
X28600D01*
X28702Y89946D01*
X28804Y89845D01*
X28905D01*
Y89946D01*
X28804Y90048D01*
X28905Y90150D01*
Y90251D01*
X28804D01*
X28702Y90150D01*
X28600Y90251D01*
X28499D01*
Y90150D01*
X28600Y90048D01*
X28499Y89946D01*
Y89845D01*
Y92380D02*
X28600D01*
X28702Y92481D01*
X28804Y92380D01*
X28905D01*
Y92481D01*
X28804Y92583D01*
X28905Y92685D01*
Y92786D01*
X28804D01*
X28702Y92685D01*
X28600Y92786D01*
X28499D01*
Y92685D01*
X28600Y92583D01*
X28499Y92481D01*
Y92380D01*
X47117Y97714D02*
X46914Y98120D01*
X47320D01*
X47117Y97714D01*
Y97815D02*
X47015Y98019D01*
X47219D01*
X47117Y97815D01*
Y95174D02*
X46914Y95580D01*
X47320D01*
X47117Y95174D01*
Y95275D02*
X47015Y95479D01*
X47219D01*
X47117Y95275D01*
Y92634D02*
X46914Y93040D01*
X47320D01*
X47117Y92634D01*
Y92735D02*
X47015Y92939D01*
X47219D01*
X47117Y92735D01*
Y90094D02*
X46914Y90500D01*
X47320D01*
X47117Y90094D01*
Y90195D02*
X47015Y90399D01*
X47219D01*
X47117Y90195D01*
X39497Y90094D02*
X39294Y90500D01*
X39700D01*
X39497Y90094D01*
Y90195D02*
X39395Y90399D01*
X39599D01*
X39497Y90195D01*
Y92634D02*
X39294Y93040D01*
X39700D01*
X39497Y92634D01*
Y92735D02*
X39395Y92939D01*
X39599D01*
X39497Y92735D01*
Y95174D02*
X39294Y95580D01*
X39700D01*
X39497Y95174D01*
Y95275D02*
X39395Y95479D01*
X39599D01*
X39497Y95275D01*
Y97714D02*
X39294Y98120D01*
X39700D01*
X39497Y97714D01*
Y97815D02*
X39395Y98019D01*
X39599D01*
X39497Y97815D01*
X45468Y114616D02*
X45570Y114717D01*
X45671D01*
X45570Y114819D01*
X45671Y114921D01*
X45570D01*
X45468Y115022D01*
X45366Y114921D01*
X45265D01*
X45366Y114819D01*
X45265Y114717D01*
X45366D01*
X45468Y114616D01*
Y114717D02*
X45519Y114768D01*
X45570D01*
X45519Y114819D01*
X45570Y114870D01*
X45519D01*
X45468Y114921D01*
X45417Y114870D01*
X45366D01*
X45417Y114819D01*
X45366Y114768D01*
X45417D01*
X45468Y114717D01*
X49528Y114616D02*
X49630Y114717D01*
X49731D01*
X49630Y114819D01*
X49731Y114921D01*
X49630D01*
X49528Y115022D01*
X49426Y114921D01*
X49325D01*
X49426Y114819D01*
X49325Y114717D01*
X49426D01*
X49528Y114616D01*
Y114717D02*
X49579Y114768D01*
X49630D01*
X49579Y114819D01*
X49630Y114870D01*
X49579D01*
X49528Y114921D01*
X49477Y114870D01*
X49426D01*
X49477Y114819D01*
X49426Y114768D01*
X49477D01*
X49528Y114717D01*
X40388Y114616D02*
X40490Y114717D01*
X40591D01*
X40490Y114819D01*
X40591Y114921D01*
X40490D01*
X40388Y115022D01*
X40286Y114921D01*
X40185D01*
X40286Y114819D01*
X40185Y114717D01*
X40286D01*
X40388Y114616D01*
Y114717D02*
X40439Y114768D01*
X40490D01*
X40439Y114819D01*
X40490Y114870D01*
X40439D01*
X40388Y114921D01*
X40337Y114870D01*
X40286D01*
X40337Y114819D01*
X40286Y114768D01*
X40337D01*
X40388Y114717D01*
X54608Y114616D02*
X54710Y114717D01*
X54811D01*
X54710Y114819D01*
X54811Y114921D01*
X54710D01*
X54608Y115022D01*
X54506Y114921D01*
X54405D01*
X54506Y114819D01*
X54405Y114717D01*
X54506D01*
X54608Y114616D01*
Y114717D02*
X54659Y114768D01*
X54710D01*
X54659Y114819D01*
X54710Y114870D01*
X54659D01*
X54608Y114921D01*
X54557Y114870D01*
X54506D01*
X54557Y114819D01*
X54506Y114768D01*
X54557D01*
X54608Y114717D01*
X115240Y83871D02*
X115341Y84074D01*
X115240Y84277D01*
X115443Y84176D01*
X115646Y84277D01*
X115545Y84074D01*
X115646Y83871D01*
X115443Y83972D01*
X115240Y83871D01*
X115341Y83972D02*
X115392Y84074D01*
X115341Y84176D01*
X115443Y84125D01*
X115545Y84176D01*
X115494Y84074D01*
X115545Y83972D01*
X115443Y84023D01*
X115341Y83972D01*
X28372Y114860D02*
X28473D01*
X28575Y114962D01*
X28677Y114860D01*
X28778D01*
Y114962D01*
X28677Y115064D01*
X28778Y115165D01*
Y115267D01*
X28677D01*
X28575Y115165D01*
X28473Y115267D01*
X28372D01*
Y115165D01*
X28473Y115064D01*
X28372Y114962D01*
Y114860D01*
Y102670D02*
X28473D01*
X28575Y102772D01*
X28677Y102670D01*
X28778D01*
Y102772D01*
X28677Y102873D01*
X28778Y102975D01*
Y103077D01*
X28677D01*
X28575Y102975D01*
X28473Y103077D01*
X28372D01*
Y102975D01*
X28473Y102873D01*
X28372Y102772D01*
Y102670D01*
Y117395D02*
X28473D01*
X28575Y117497D01*
X28677Y117395D01*
X28778D01*
Y117497D01*
X28677Y117599D01*
X28778Y117700D01*
Y117802D01*
X28677D01*
X28575Y117700D01*
X28473Y117802D01*
X28372D01*
Y117700D01*
X28473Y117599D01*
X28372Y117497D01*
Y117395D01*
Y105205D02*
X28473D01*
X28575Y105307D01*
X28677Y105205D01*
X28778D01*
Y105307D01*
X28677Y105408D01*
X28778Y105510D01*
Y105612D01*
X28677D01*
X28575Y105510D01*
X28473Y105612D01*
X28372D01*
Y105510D01*
X28473Y105408D01*
X28372Y105307D01*
Y105205D01*
X135661Y27457D02*
Y27356D01*
X135865D01*
Y27457D01*
X135966D01*
Y27661D01*
X135865D01*
Y27762D01*
X135661D01*
Y27661D01*
X135560D01*
Y27457D01*
X135661D01*
X135712Y27508D02*
Y27457D01*
X135814D01*
Y27508D01*
X135865D01*
Y27610D01*
X135814D01*
Y27661D01*
X135712D01*
Y27610D01*
X135661D01*
Y27508D01*
X135712D01*
X133121Y27457D02*
Y27356D01*
X133325D01*
Y27457D01*
X133426D01*
Y27661D01*
X133325D01*
Y27762D01*
X133121D01*
Y27661D01*
X133020D01*
Y27457D01*
X133121D01*
X133172Y27508D02*
Y27457D01*
X133274D01*
Y27508D01*
X133325D01*
Y27610D01*
X133274D01*
Y27661D01*
X133172D01*
Y27610D01*
X133121D01*
Y27508D01*
X133172D01*
X53137Y109739D02*
X53238D01*
X53340Y109840D01*
X53442Y109739D01*
X53543D01*
Y109840D01*
X53442Y109942D01*
X53543Y110044D01*
Y110145D01*
X53442D01*
X53340Y110044D01*
X53238Y110145D01*
X53137D01*
Y110044D01*
X53238Y109942D01*
X53137Y109840D01*
Y109739D01*
X53238Y109840D02*
X53289D01*
X53340Y109891D01*
X53391Y109840D01*
X53442D01*
Y109891D01*
X53391Y109942D01*
X53442Y109993D01*
Y110044D01*
X53391D01*
X53340Y109993D01*
X53289Y110044D01*
X53238D01*
Y109993D01*
X53289Y109942D01*
X53238Y109891D01*
Y109840D01*
X117520Y83871D02*
X117621Y84074D01*
X117520Y84277D01*
X117723Y84176D01*
X117926Y84277D01*
X117825Y84074D01*
X117926Y83871D01*
X117723Y83972D01*
X117520Y83871D01*
X117621Y83972D02*
X117672Y84074D01*
X117621Y84176D01*
X117723Y84125D01*
X117825Y84176D01*
X117774Y84074D01*
X117825Y83972D01*
X117723Y84023D01*
X117621Y83972D01*
X130581Y27457D02*
Y27356D01*
X130785D01*
Y27457D01*
X130886D01*
Y27661D01*
X130785D01*
Y27762D01*
X130581D01*
Y27661D01*
X130480D01*
Y27457D01*
X130581D01*
X130632Y27508D02*
Y27457D01*
X130734D01*
Y27508D01*
X130785D01*
Y27610D01*
X130734D01*
Y27661D01*
X130632D01*
Y27610D01*
X130581D01*
Y27508D01*
X130632D01*
X138201Y27457D02*
Y27356D01*
X138405D01*
Y27457D01*
X138506D01*
Y27661D01*
X138405D01*
Y27762D01*
X138201D01*
Y27661D01*
X138100D01*
Y27457D01*
X138201D01*
X138252Y27508D02*
Y27457D01*
X138354D01*
Y27508D01*
X138405D01*
Y27610D01*
X138354D01*
Y27661D01*
X138252D01*
Y27610D01*
X138201D01*
Y27508D01*
X138252D01*
X156337Y27607D02*
Y27945D01*
X156506Y28114D01*
X156676Y27945D01*
Y27607D01*
Y27860D01*
X156337D01*
X144297Y27607D02*
Y27945D01*
X144466Y28114D01*
X144636Y27945D01*
Y27607D01*
Y27860D01*
X144297D01*
X151567Y30824D02*
Y30317D01*
X151821D01*
X151906Y30401D01*
Y30486D01*
X151821Y30570D01*
X151567D01*
X151821D01*
X151906Y30655D01*
Y30740D01*
X151821Y30824D01*
X151567D01*
X149067D02*
Y30317D01*
X149321D01*
X149406Y30401D01*
Y30486D01*
X149321Y30570D01*
X149067D01*
X149321D01*
X149406Y30655D01*
Y30740D01*
X149321Y30824D01*
X149067D01*
Y32824D02*
Y32317D01*
X149321D01*
X149406Y32401D01*
Y32486D01*
X149321Y32570D01*
X149067D01*
X149321D01*
X149406Y32655D01*
Y32740D01*
X149321Y32824D01*
X149067D01*
X151567D02*
Y32317D01*
X151821D01*
X151906Y32401D01*
Y32486D01*
X151821Y32570D01*
X151567D01*
X151821D01*
X151906Y32655D01*
Y32740D01*
X151821Y32824D01*
X151567D01*
X53137Y104739D02*
X53238D01*
X53340Y104840D01*
X53442Y104739D01*
X53543D01*
Y104840D01*
X53442Y104942D01*
X53543Y105044D01*
Y105145D01*
X53442D01*
X53340Y105044D01*
X53238Y105145D01*
X53137D01*
Y105044D01*
X53238Y104942D01*
X53137Y104840D01*
Y104739D01*
X53238Y104840D02*
X53289D01*
X53340Y104891D01*
X53391Y104840D01*
X53442D01*
Y104891D01*
X53391Y104942D01*
X53442Y104993D01*
Y105044D01*
X53391D01*
X53340Y104993D01*
X53289Y105044D01*
X53238D01*
Y104993D01*
X53289Y104942D01*
X53238Y104891D01*
Y104840D01*
X112960Y83871D02*
X113061Y84074D01*
X112960Y84277D01*
X113163Y84176D01*
X113366Y84277D01*
X113265Y84074D01*
X113366Y83871D01*
X113163Y83972D01*
X112960Y83871D01*
X113061Y83972D02*
X113112Y84074D01*
X113061Y84176D01*
X113163Y84125D01*
X113265Y84176D01*
X113214Y84074D01*
X113265Y83972D01*
X113163Y84023D01*
X113061Y83972D01*
X28372Y107740D02*
X28473D01*
X28575Y107842D01*
X28677Y107740D01*
X28778D01*
Y107842D01*
X28677Y107943D01*
X28778Y108045D01*
Y108147D01*
X28677D01*
X28575Y108045D01*
X28473Y108147D01*
X28372D01*
Y108045D01*
X28473Y107943D01*
X28372Y107842D01*
Y107740D01*
Y119930D02*
X28473D01*
X28575Y120032D01*
X28677Y119930D01*
X28778D01*
Y120032D01*
X28677Y120134D01*
X28778Y120235D01*
Y120337D01*
X28677D01*
X28575Y120235D01*
X28473Y120337D01*
X28372D01*
Y120235D01*
X28473Y120134D01*
X28372Y120032D01*
Y119930D01*
X107264Y46396D02*
X107179Y46480D01*
X107010D01*
X106925Y46396D01*
Y46057D01*
X107010Y45973D01*
X107179D01*
X107264Y46057D01*
X85638Y72278D02*
X85553Y72363D01*
X85384D01*
X85299Y72278D01*
Y71940D01*
X85384Y71855D01*
X85553D01*
X85638Y71940D01*
Y59959D02*
X85553Y60044D01*
X85384D01*
X85299Y59959D01*
Y59621D01*
X85384Y59536D01*
X85553D01*
X85638Y59621D01*
Y47386D02*
X85553Y47471D01*
X85384D01*
X85299Y47386D01*
Y47048D01*
X85384Y46963D01*
X85553D01*
X85638Y47048D01*
Y34940D02*
X85553Y35025D01*
X85384D01*
X85299Y34940D01*
Y34602D01*
X85384Y34517D01*
X85553D01*
X85638Y34602D01*
X36699Y84398D02*
X36615Y84483D01*
X36445D01*
X36361Y84398D01*
Y84059D01*
X36445Y83975D01*
X36615D01*
X36699Y84059D01*
X33905Y84398D02*
X33821Y84483D01*
X33651D01*
X33567Y84398D01*
Y84059D01*
X33651Y83975D01*
X33821D01*
X33905Y84059D01*
X31111Y84398D02*
X31027Y84483D01*
X30857D01*
X30773Y84398D01*
Y84059D01*
X30857Y83975D01*
X31027D01*
X31111Y84059D01*
X28317Y84398D02*
X28233Y84483D01*
X28063D01*
X27979Y84398D01*
Y84059D01*
X28063Y83975D01*
X28233D01*
X28317Y84059D01*
X154360Y42393D02*
X154275Y42478D01*
X154106D01*
X154021Y42393D01*
Y42055D01*
X154106Y41970D01*
X154275D01*
X154360Y42055D01*
X153924Y38989D02*
Y38481D01*
X154178D01*
X154263Y38566D01*
Y38904D01*
X154178Y38989D01*
X153924D01*
Y36068D02*
Y35560D01*
X154178D01*
X154263Y35645D01*
Y35983D01*
X154178Y36068D01*
X153924D01*
X155410Y34799D02*
Y34292D01*
X155663D01*
X155748Y34376D01*
Y34715D01*
X155663Y34799D01*
X155410D01*
X164511Y35495D02*
X164427Y35579D01*
X164257D01*
X164173Y35495D01*
Y35156D01*
X164257Y35072D01*
X164427D01*
X164511Y35156D01*
Y32701D02*
X164427Y32785D01*
X164257D01*
X164173Y32701D01*
Y32362D01*
X164257Y32278D01*
X164427D01*
X164511Y32362D01*
Y29907D02*
X164427Y29991D01*
X164257D01*
X164173Y29907D01*
Y29568D01*
X164257Y29484D01*
X164427D01*
X164511Y29568D01*
Y27113D02*
X164427Y27197D01*
X164257D01*
X164173Y27113D01*
Y26774D01*
X164257Y26690D01*
X164427D01*
X164511Y26774D01*
X105537Y120777D02*
Y120269D01*
X105791D01*
X105876Y120354D01*
Y120692D01*
X105791Y120777D01*
X105537D01*
X105410Y123317D02*
Y122809D01*
X105664D01*
X105749Y122894D01*
Y123232D01*
X105664Y123317D01*
X105410D01*
X103378Y119507D02*
Y118999D01*
X103632D01*
X103717Y119084D01*
Y119422D01*
X103632Y119507D01*
X103378D01*
X103251Y122047D02*
Y121539D01*
X103505D01*
X103590Y121624D01*
Y121962D01*
X103505Y122047D01*
X103251D01*
X105638Y125217D02*
X105553Y125301D01*
X105384D01*
X105299Y125217D01*
Y124878D01*
X105384Y124794D01*
X105553D01*
X105638Y124878D01*
X102844Y125217D02*
X102759Y125301D01*
X102590D01*
X102505Y125217D01*
Y124878D01*
X102590Y124794D01*
X102759D01*
X102844Y124878D01*
X100050Y125217D02*
X99965Y125301D01*
X99796D01*
X99711Y125217D01*
Y124878D01*
X99796Y124794D01*
X99965D01*
X100050Y124878D01*
X97256Y125217D02*
X97171Y125301D01*
X97002D01*
X96917Y125217D01*
Y124878D01*
X97002Y124794D01*
X97171D01*
X97256Y124878D01*
X51744Y103099D02*
X51659Y103184D01*
X51490D01*
X51405Y103099D01*
Y102761D01*
X51490Y102676D01*
X51659D01*
X51744Y102761D01*
X51871Y79731D02*
X51786Y79816D01*
X51617D01*
X51532Y79731D01*
Y79393D01*
X51617Y79308D01*
X51786D01*
X51871Y79393D01*
X163885Y118593D02*
X163800Y118678D01*
X163631D01*
X163546Y118593D01*
Y118255D01*
X163631Y118170D01*
X163800D01*
X163885Y118255D01*
X141152Y122276D02*
X141067Y122361D01*
X140898D01*
X140813Y122276D01*
Y121938D01*
X140898Y121853D01*
X141067D01*
X141152Y121938D01*
X137596Y110211D02*
X137511Y110296D01*
X137342D01*
X137257Y110211D01*
Y109873D01*
X137342Y109788D01*
X137511D01*
X137596Y109873D01*
X167852Y115485D02*
X167767Y115570D01*
X167598D01*
X167513Y115485D01*
Y115147D01*
X167598Y115062D01*
X167767D01*
X167852Y115147D01*
X68444Y76868D02*
X68359Y76953D01*
X68190D01*
X68106Y76868D01*
Y76530D01*
X68190Y76445D01*
X68359D01*
X68444Y76530D01*
X70984Y76868D02*
X70899Y76953D01*
X70730D01*
X70646Y76868D01*
Y76530D01*
X70730Y76445D01*
X70899D01*
X70984Y76530D01*
X73524Y76868D02*
X73439Y76953D01*
X73270D01*
X73186Y76868D01*
Y76530D01*
X73270Y76445D01*
X73439D01*
X73524Y76530D01*
X72729Y97197D02*
X72644Y97282D01*
X72475D01*
X72390Y97197D01*
Y96859D01*
X72475Y96774D01*
X72644D01*
X72729Y96859D01*
X70189Y97197D02*
X70104Y97282D01*
X69935D01*
X69850Y97197D01*
Y96859D01*
X69935Y96774D01*
X70104D01*
X70189Y96859D01*
X67649Y97197D02*
X67564Y97282D01*
X67395D01*
X67310Y97197D01*
Y96859D01*
X67395Y96774D01*
X67564D01*
X67649Y96859D01*
X148209Y78994D02*
Y78486D01*
X148463D01*
X148548Y78571D01*
Y78909D01*
X148463Y78994D01*
X148209D01*
X108839Y52705D02*
Y52197D01*
X109093D01*
X109178Y52282D01*
Y52620D01*
X109093Y52705D01*
X108839D01*
X111252Y50673D02*
Y50165D01*
X111506D01*
X111591Y50250D01*
Y50588D01*
X111506Y50673D01*
X111252D01*
X109982D02*
Y50165D01*
X110236D01*
X110321Y50250D01*
Y50588D01*
X110236Y50673D01*
X109982D01*
X84921Y87884D02*
X84582D01*
Y87376D01*
X84921D01*
X84582Y87630D02*
X84751D01*
X52409Y33020D02*
X52070D01*
Y32512D01*
X52409D01*
X52070Y32766D02*
X52239D01*
X173059Y31623D02*
X172720D01*
Y31115D01*
X173059D01*
X172720Y31369D02*
X172889D01*
X173059Y121793D02*
X172720D01*
Y121285D01*
X173059D01*
X172720Y121539D02*
X172889D01*
X79587Y93091D02*
X79248D01*
Y92837D01*
X79417D01*
X79248D01*
Y92583D01*
X139007Y96036D02*
Y95528D01*
X139261D01*
X139346Y95613D01*
Y95952D01*
X139261Y96036D01*
X139007D01*
X141039Y97179D02*
Y96671D01*
X141293D01*
X141378Y96756D01*
Y97095D01*
X141293Y97179D01*
X141039D01*
X82931Y77597D02*
Y77089D01*
X83185D01*
X83270Y77174D01*
Y77512D01*
X83185Y77597D01*
X82931D01*
X86048Y78002D02*
Y77494D01*
X86302D01*
X86387Y77579D01*
Y77918D01*
X86302Y78002D01*
X86048D01*
X136017Y102108D02*
Y101600D01*
X136271D01*
X136356Y101685D01*
Y102023D01*
X136271Y102108D01*
X136017D01*
X137033Y96774D02*
Y96266D01*
X137287D01*
X137372Y96351D01*
Y96689D01*
X137287Y96774D01*
X137033D01*
X156464Y95250D02*
Y94742D01*
X156718D01*
X156803Y94827D01*
Y95165D01*
X156718Y95250D01*
X156464D01*
X149987Y110998D02*
Y110490D01*
X150241D01*
X150326Y110575D01*
Y110913D01*
X150241Y110998D01*
X149987D01*
X146558Y102108D02*
Y101600D01*
X146812D01*
X146897Y101685D01*
Y102023D01*
X146812Y102108D01*
X146558D01*
X125349Y82550D02*
Y82042D01*
X125603D01*
X125688Y82127D01*
Y82465D01*
X125603Y82550D01*
X125349D01*
X119253Y80645D02*
Y80137D01*
X119507D01*
X119592Y80222D01*
Y80560D01*
X119507Y80645D01*
X119253D01*
X119126Y77724D02*
Y77216D01*
X119380D01*
X119465Y77301D01*
Y77639D01*
X119380Y77724D01*
X119126D01*
X141478Y73025D02*
Y72517D01*
X141732D01*
X141817Y72602D01*
Y72940D01*
X141732Y73025D01*
X141478D01*
X145923Y76835D02*
Y76327D01*
X146177D01*
X146262Y76412D01*
Y76750D01*
X146177Y76835D01*
X145923D01*
X171958Y89662D02*
Y89154D01*
X172212D01*
X172297Y89239D01*
Y89577D01*
X172212Y89662D01*
X171958D01*
X175006Y72898D02*
Y72390D01*
X175260D01*
X175345Y72475D01*
Y72813D01*
X175260Y72898D01*
X175006D01*
X147955Y97155D02*
Y96647D01*
X148209D01*
X148294Y96732D01*
Y97070D01*
X148209Y97155D01*
X147955D01*
X163703Y78613D02*
Y78105D01*
X163957D01*
X164042Y78190D01*
Y78528D01*
X163957Y78613D01*
X163703D01*
X159893Y89154D02*
Y88646D01*
X160147D01*
X160232Y88731D01*
Y89069D01*
X160147Y89154D01*
X159893D01*
X160655Y87630D02*
Y87122D01*
X160909D01*
X160994Y87207D01*
Y87545D01*
X160909Y87630D01*
X160655D01*
X159639Y87503D02*
Y86995D01*
X159893D01*
X159978Y87080D01*
Y87418D01*
X159893Y87503D01*
X159639D01*
X151892Y93980D02*
Y93472D01*
X152146D01*
X152231Y93557D01*
Y93895D01*
X152146Y93980D01*
X151892D01*
X146558Y89408D02*
Y88900D01*
X146812D01*
X146897Y88985D01*
Y89323D01*
X146812Y89408D01*
X146558D01*
X147955Y87630D02*
Y87122D01*
X148209D01*
X148294Y87207D01*
Y87545D01*
X148209Y87630D01*
X147955D01*
X147320Y90805D02*
Y90297D01*
X147574D01*
X147659Y90382D01*
Y90720D01*
X147574Y90805D01*
X147320D01*
X146812Y97409D02*
Y96901D01*
X147066D01*
X147151Y96986D01*
Y97324D01*
X147066Y97409D01*
X146812D01*
X90043Y73787D02*
Y73279D01*
X90297D01*
X90382Y73364D01*
Y73702D01*
X90297Y73787D01*
X90043D01*
X90551Y69723D02*
Y69215D01*
X90805D01*
X90890Y69300D01*
Y69638D01*
X90805Y69723D01*
X90551D01*
X76327Y85852D02*
Y85344D01*
X76581D01*
X76666Y85429D01*
Y85767D01*
X76581Y85852D01*
X76327D01*
X75819Y81153D02*
Y80645D01*
X76073D01*
X76158Y80730D01*
Y81068D01*
X76073Y81153D01*
X75819D01*
X77597Y87122D02*
Y86614D01*
X77851D01*
X77936Y86699D01*
Y87037D01*
X77851Y87122D01*
X77597D01*
X75946Y87630D02*
Y87122D01*
X76200D01*
X76285Y87207D01*
Y87545D01*
X76200Y87630D01*
X75946D01*
X75311Y88265D02*
Y87757D01*
X75565D01*
X75650Y87842D01*
Y88180D01*
X75565Y88265D01*
X75311D01*
X74676Y83947D02*
Y83439D01*
X74930D01*
X75015Y83524D01*
Y83862D01*
X74930Y83947D01*
X74676D01*
X111887Y51308D02*
Y50800D01*
X112141D01*
X112226Y50885D01*
Y51223D01*
X112141Y51308D01*
X111887D01*
X110617D02*
Y50800D01*
X110871D01*
X110956Y50885D01*
Y51223D01*
X110871Y51308D01*
X110617D01*
X109347D02*
Y50800D01*
X109601D01*
X109686Y50885D01*
Y51223D01*
X109601Y51308D01*
X109347D01*
X133731Y36322D02*
Y35814D01*
X133985D01*
X134070Y35899D01*
Y36237D01*
X133985Y36322D01*
X133731D01*
X131445Y36449D02*
Y35941D01*
X131699D01*
X131784Y36026D01*
Y36364D01*
X131699Y36449D01*
X131445D01*
X136271Y36089D02*
Y35581D01*
X136525D01*
X136610Y35665D01*
Y36004D01*
X136525Y36089D01*
X136271D01*
X176102Y71135D02*
Y70628D01*
X176355D01*
X176440Y70712D01*
Y71051D01*
X176355Y71135D01*
X176102D01*
X105410Y92075D02*
Y91567D01*
X105664D01*
X105749Y91652D01*
Y91990D01*
X105664Y92075D01*
X105410D01*
X100203Y83185D02*
Y82677D01*
X100457D01*
X100542Y82762D01*
Y83100D01*
X100457Y83185D01*
X100203D01*
X172720Y101219D02*
Y100711D01*
X172974D01*
X173059Y100796D01*
Y101134D01*
X172974Y101219D01*
X172720D01*
Y102743D02*
Y102235D01*
X172974D01*
X173059Y102320D01*
Y102658D01*
X172974Y102743D01*
X172720D01*
X150495Y66421D02*
Y65913D01*
X150749D01*
X150834Y65998D01*
Y66336D01*
X150749Y66421D01*
X150495D01*
X149987Y76200D02*
Y75692D01*
X150241D01*
X150326Y75777D01*
Y76115D01*
X150241Y76200D01*
X149987D01*
X139954Y36322D02*
Y35814D01*
X140208D01*
X140293Y35899D01*
Y36237D01*
X140208Y36322D01*
X139954D01*
X149479Y64135D02*
Y63627D01*
X149733D01*
X149818Y63712D01*
Y64050D01*
X149733Y64135D01*
X149479D01*
X155321Y66421D02*
Y65913D01*
X155575D01*
X155660Y65998D01*
Y66336D01*
X155575Y66421D01*
X155321D01*
X99060Y80518D02*
Y80010D01*
X99314D01*
X99399Y80095D01*
Y80433D01*
X99314Y80518D01*
X99060D01*
X159893Y68580D02*
Y68072D01*
X160147D01*
X160232Y68157D01*
Y68495D01*
X160147Y68580D01*
X159893D01*
X146812Y85344D02*
Y84836D01*
X147066D01*
X147151Y84921D01*
Y85259D01*
X147066Y85344D01*
X146812D01*
X140462Y67564D02*
Y67056D01*
X140716D01*
X140801Y67141D01*
Y67479D01*
X140716Y67564D01*
X140462D01*
X139954Y68072D02*
Y67564D01*
X140208D01*
X140293Y67649D01*
Y67987D01*
X140208Y68072D01*
X139954D01*
X147828Y85344D02*
Y84836D01*
X148082D01*
X148167Y84921D01*
Y85259D01*
X148082Y85344D01*
X147828D01*
X148082Y81153D02*
Y80645D01*
X148336D01*
X148421Y80730D01*
Y81068D01*
X148336Y81153D01*
X148082D01*
X143637Y86614D02*
Y86106D01*
X143891D01*
X143976Y86191D01*
Y86529D01*
X143891Y86614D01*
X143637D01*
X159004Y66294D02*
Y65786D01*
X159258D01*
X159343Y65871D01*
Y66209D01*
X159258Y66294D01*
X159004D01*
X147828Y65786D02*
Y65278D01*
X148082D01*
X148167Y65363D01*
Y65701D01*
X148082Y65786D01*
X147828D01*
X158750Y69850D02*
Y69342D01*
X159004D01*
X159089Y69427D01*
Y69765D01*
X159004Y69850D01*
X158750D01*
X157861Y64643D02*
Y64135D01*
X158115D01*
X158200Y64220D01*
Y64558D01*
X158115Y64643D01*
X157861D01*
X156718Y66421D02*
Y65913D01*
X156972D01*
X157057Y65998D01*
Y66336D01*
X156972Y66421D01*
X156718D01*
X148844Y56515D02*
Y56007D01*
X149098D01*
X149183Y56092D01*
Y56430D01*
X149098Y56515D01*
X148844D01*
X135975Y114088D02*
X135890Y114173D01*
X135721D01*
X135636Y114088D01*
Y113750D01*
X135721Y113665D01*
X135890D01*
X135975Y113750D01*
Y113919D01*
X135805D01*
X33095Y28212D02*
Y27704D01*
X33349D01*
X33434Y27789D01*
Y28127D01*
X33349Y28212D01*
X33095D01*
X66294Y76962D02*
Y76454D01*
X66548D01*
X66633Y76539D01*
Y76877D01*
X66548Y76962D01*
X66294D01*
X35433Y80264D02*
Y79756D01*
X35687D01*
X35772Y79841D01*
Y80179D01*
X35687Y80264D01*
X35433D01*
X140335Y64262D02*
Y63754D01*
X140589D01*
X140674Y63839D01*
Y64177D01*
X140589Y64262D01*
X140335D01*
X176149Y109474D02*
Y108966D01*
X176403D01*
X176488Y109051D01*
Y109389D01*
X176403Y109474D01*
X176149D01*
X149352Y69088D02*
Y68580D01*
X149606D01*
X149691Y68665D01*
Y69003D01*
X149606Y69088D01*
X149352D01*
X120444Y63464D02*
Y62956D01*
X120698D01*
X120783Y63041D01*
Y63379D01*
X120698Y63464D01*
X120444D01*
X98552Y77216D02*
Y76708D01*
X98806D01*
X98891Y76793D01*
Y77131D01*
X98806Y77216D01*
X98552D01*
X99441Y76708D02*
Y76200D01*
X99695D01*
X99780Y76285D01*
Y76623D01*
X99695Y76708D01*
X99441D01*
X80137Y78232D02*
Y77724D01*
X80391D01*
X80476Y77809D01*
Y78147D01*
X80391Y78232D01*
X80137D01*
X83312D02*
Y77724D01*
X83566D01*
X83651Y77809D01*
Y78147D01*
X83566Y78232D01*
X83312D01*
X86233Y75438D02*
Y74930D01*
X86487D01*
X86572Y75015D01*
Y75353D01*
X86487Y75438D01*
X86233D01*
X89281D02*
Y74930D01*
X89535D01*
X89620Y75015D01*
Y75353D01*
X89535Y75438D01*
X89281D01*
X160020Y71628D02*
Y71120D01*
X160274D01*
X160359Y71205D01*
Y71543D01*
X160274Y71628D01*
X160020D01*
X128524Y65151D02*
Y64643D01*
X128778D01*
X128863Y64728D01*
Y65066D01*
X128778Y65151D01*
X128524D01*
X127762D02*
Y64643D01*
X128016D01*
X128101Y64728D01*
Y65066D01*
X128016Y65151D01*
X127762D01*
X132969Y65278D02*
Y64770D01*
X133223D01*
X133308Y64855D01*
Y65193D01*
X133223Y65278D01*
X132969D01*
X58547Y79502D02*
Y78994D01*
X58801D01*
X58886Y79079D01*
Y79417D01*
X58801Y79502D01*
X58547D01*
X154178Y66294D02*
Y65786D01*
X154432D01*
X154517Y65871D01*
Y66209D01*
X154432Y66294D01*
X154178D01*
X152273Y68326D02*
Y67818D01*
X152527D01*
X152612Y67903D01*
Y68241D01*
X152527Y68326D01*
X152273D01*
X155448Y37592D02*
Y37084D01*
X155702D01*
X155787Y37169D01*
Y37507D01*
X155702Y37592D01*
X155448D01*
X122301Y33274D02*
Y32766D01*
X122555D01*
X122640Y32851D01*
Y33189D01*
X122555Y33274D01*
X122301D01*
X170561Y41656D02*
Y41148D01*
X170815D01*
X170900Y41233D01*
Y41571D01*
X170815Y41656D01*
X170561D01*
X168402Y43434D02*
Y42926D01*
X168656D01*
X168741Y43011D01*
Y43349D01*
X168656Y43434D01*
X168402D01*
X123952Y68199D02*
Y67691D01*
X124206D01*
X124291Y67776D01*
Y68114D01*
X124206Y68199D01*
X123952D01*
X123190Y67310D02*
Y66802D01*
X123444D01*
X123529Y66887D01*
Y67225D01*
X123444Y67310D01*
X123190D01*
X136906Y60960D02*
Y60452D01*
X137160D01*
X137245Y60537D01*
Y60875D01*
X137160Y60960D01*
X136906D01*
X128397Y60452D02*
Y59944D01*
X128651D01*
X128736Y60029D01*
Y60367D01*
X128651Y60452D01*
X128397D01*
X129413Y60833D02*
Y60325D01*
X129667D01*
X129752Y60410D01*
Y60748D01*
X129667Y60833D01*
X129413D01*
X119878Y61514D02*
Y61006D01*
X120132D01*
X120217Y61090D01*
Y61429D01*
X120132Y61514D01*
X119878D01*
X125095Y64389D02*
Y63881D01*
X125349D01*
X125434Y63966D01*
Y64304D01*
X125349Y64389D01*
X125095D01*
X126492Y65024D02*
Y64516D01*
X126746D01*
X126831Y64601D01*
Y64939D01*
X126746Y65024D01*
X126492D01*
X125730D02*
Y64516D01*
X125984D01*
X126069Y64601D01*
Y64939D01*
X125984Y65024D01*
X125730D01*
X129286Y65151D02*
Y64643D01*
X129540D01*
X129625Y64728D01*
Y65066D01*
X129540Y65151D01*
X129286D01*
X133604Y64897D02*
Y64389D01*
X133858D01*
X133943Y64474D01*
Y64812D01*
X133858Y64897D01*
X133604D01*
X129159Y54102D02*
Y53594D01*
X129413D01*
X129498Y53679D01*
Y54017D01*
X129413Y54102D01*
X129159D01*
X129667Y53594D02*
Y53086D01*
X129921D01*
X130006Y53171D01*
Y53509D01*
X129921Y53594D01*
X129667D01*
X124447Y73647D02*
Y73139D01*
X124701D01*
X124786Y73224D01*
Y73562D01*
X124701Y73647D01*
X124447D01*
X126720Y68365D02*
Y67857D01*
X126974D01*
X127058Y67942D01*
Y68280D01*
X126974Y68365D01*
X126720D01*
X133477Y70358D02*
Y69850D01*
X133731D01*
X133816Y69935D01*
Y70273D01*
X133731Y70358D01*
X133477D01*
X126619Y54864D02*
Y54356D01*
X126873D01*
X126958Y54441D01*
Y54779D01*
X126873Y54864D01*
X126619D01*
X125204Y68725D02*
Y68217D01*
X125458D01*
X125543Y68302D01*
Y68640D01*
X125458Y68725D01*
X125204D01*
X62188Y112945D02*
X62103Y113030D01*
X61934D01*
X61849Y112945D01*
Y112607D01*
X61934Y112522D01*
X62103D01*
X62188Y112607D01*
X145542Y62230D02*
Y61722D01*
X145796D01*
X145881Y61807D01*
Y62145D01*
X145796Y62230D01*
X145542D01*
X157988Y66421D02*
Y65913D01*
X158242D01*
X158327Y65998D01*
Y66336D01*
X158242Y66421D01*
X157988D01*
X135509Y56769D02*
Y56261D01*
X135763D01*
X135848Y56346D01*
Y56684D01*
X135763Y56769D01*
X135509D01*
X136525D02*
Y56261D01*
X136779D01*
X136864Y56346D01*
Y56684D01*
X136779Y56769D01*
X136525D01*
X141732Y57404D02*
Y56896D01*
X141986D01*
X142071Y56981D01*
Y57319D01*
X141986Y57404D01*
X141732D01*
X142621Y58039D02*
Y57531D01*
X142875D01*
X142960Y57616D01*
Y57954D01*
X142875Y58039D01*
X142621D01*
X140970Y55372D02*
Y54864D01*
X141224D01*
X141309Y54949D01*
Y55287D01*
X141224Y55372D01*
X140970D01*
X140716Y56769D02*
Y56261D01*
X140970D01*
X141055Y56346D01*
Y56684D01*
X140970Y56769D01*
X140716D01*
X140462Y60706D02*
Y60198D01*
X140716D01*
X140801Y60283D01*
Y60621D01*
X140716Y60706D01*
X140462D01*
Y61849D02*
Y61341D01*
X140716D01*
X140801Y61426D01*
Y61764D01*
X140716Y61849D01*
X140462D01*
X122047Y55626D02*
Y55118D01*
X122301D01*
X122386Y55203D01*
Y55541D01*
X122301Y55626D01*
X122047D01*
X121892Y56428D02*
Y55920D01*
X122146D01*
X122231Y56005D01*
Y56343D01*
X122146Y56428D01*
X121892D01*
X121956Y57428D02*
Y56920D01*
X122210D01*
X122295Y57005D01*
Y57343D01*
X122210Y57428D01*
X121956D01*
X125571Y60928D02*
Y60420D01*
X125825D01*
X125910Y60505D01*
Y60843D01*
X125825Y60928D01*
X125571D01*
X123190Y65913D02*
Y65405D01*
X123444D01*
X123529Y65490D01*
Y65828D01*
X123444Y65913D01*
X123190D01*
X145923Y47498D02*
Y46990D01*
X146177D01*
X146262Y47075D01*
Y47413D01*
X146177Y47498D01*
X145923D01*
X136144Y52959D02*
Y52451D01*
X136398D01*
X136483Y52536D01*
Y52874D01*
X136398Y52959D01*
X136144D01*
X132691Y53189D02*
Y52681D01*
X132945D01*
X133030Y52766D01*
Y53104D01*
X132945Y53189D01*
X132691D01*
X132191Y53578D02*
Y53070D01*
X132445D01*
X132530Y53155D01*
Y53493D01*
X132445Y53578D01*
X132191D01*
X117221Y51181D02*
Y50673D01*
X117475D01*
X117560Y50758D01*
Y51096D01*
X117475Y51181D01*
X117221D01*
X146177Y42164D02*
Y41656D01*
X146431D01*
X146516Y41741D01*
Y42079D01*
X146431Y42164D01*
X146177D01*
X97790Y81280D02*
Y80772D01*
X98044D01*
X98129Y80857D01*
Y81195D01*
X98044Y81280D01*
X97790D01*
X130683Y52578D02*
Y52070D01*
X130937D01*
X131022Y52155D01*
Y52493D01*
X130937Y52578D01*
X130683D01*
X130175Y53086D02*
Y52578D01*
X130429D01*
X130514Y52663D01*
Y53001D01*
X130429Y53086D01*
X130175D01*
X121031Y33528D02*
Y33020D01*
X121285D01*
X121370Y33105D01*
Y33443D01*
X121285Y33528D01*
X121031D01*
Y55626D02*
Y55118D01*
X121285D01*
X121370Y55203D01*
Y55541D01*
X121285Y55626D01*
X121031D01*
X121158Y54737D02*
Y54229D01*
X121412D01*
X121497Y54314D01*
Y54652D01*
X121412Y54737D01*
X121158D01*
X153416Y60325D02*
Y59817D01*
X153670D01*
X153755Y59902D01*
Y60240D01*
X153670Y60325D01*
X153416D01*
X156210Y60833D02*
Y60325D01*
X156464D01*
X156549Y60410D01*
Y60748D01*
X156464Y60833D01*
X156210D01*
X133477Y49911D02*
Y49403D01*
X133731D01*
X133816Y49488D01*
Y49826D01*
X133731Y49911D01*
X133477D01*
X144653Y43942D02*
Y43434D01*
X144907D01*
X144992Y43519D01*
Y43857D01*
X144907Y43942D01*
X144653D01*
X144272Y43561D02*
Y43053D01*
X144526D01*
X144611Y43138D01*
Y43476D01*
X144526Y43561D01*
X144272D01*
X135509Y52832D02*
Y52324D01*
X135763D01*
X135848Y52409D01*
Y52747D01*
X135763Y52832D01*
X135509D01*
X128397Y36314D02*
Y35806D01*
X128651D01*
X128736Y35891D01*
Y36230D01*
X128651Y36314D01*
X128397D01*
X126873Y45974D02*
Y45466D01*
X127127D01*
X127212Y45551D01*
Y45889D01*
X127127Y45974D01*
X126873D01*
X124841Y49022D02*
Y48514D01*
X125095D01*
X125180Y48599D01*
Y48937D01*
X125095Y49022D01*
X124841D01*
X125349Y47879D02*
Y47371D01*
X125603D01*
X125688Y47456D01*
Y47794D01*
X125603Y47879D01*
X125349D01*
X126111Y46863D02*
Y46355D01*
X126365D01*
X126450Y46440D01*
Y46778D01*
X126365Y46863D01*
X126111D01*
X146812Y69088D02*
Y68580D01*
X147066D01*
X147151Y68665D01*
Y69003D01*
X147066Y69088D01*
X146812D01*
X143637Y69723D02*
Y69215D01*
X143891D01*
X143976Y69300D01*
Y69638D01*
X143891Y69723D01*
X143637D01*
X84582Y75692D02*
Y75184D01*
X84836D01*
X84921Y75269D01*
Y75607D01*
X84836Y75692D01*
X84582D01*
X82423Y82550D02*
Y82042D01*
X82677D01*
X82762Y82127D01*
Y82465D01*
X82677Y82550D01*
X82423D01*
X86995Y78740D02*
Y78232D01*
X87249D01*
X87334Y78317D01*
Y78655D01*
X87249Y78740D01*
X86995D01*
X90043D02*
Y78232D01*
X90297D01*
X90382Y78317D01*
Y78655D01*
X90297Y78740D01*
X90043D01*
X97917Y74041D02*
Y73533D01*
X98171D01*
X98256Y73618D01*
Y73956D01*
X98171Y74041D01*
X97917D01*
X92541Y56642D02*
X92202D01*
Y56388D01*
X92371D01*
X92202D01*
Y56134D01*
X92414Y45974D02*
X92075D01*
Y45720D01*
X92244D01*
X92075D01*
Y45466D01*
X60706Y98679D02*
Y98171D01*
X60960D01*
X61045Y98256D01*
Y98594D01*
X60960Y98679D01*
X60706D01*
X58960Y85023D02*
Y84515D01*
X59214D01*
X59299Y84600D01*
Y84938D01*
X59214Y85023D01*
X58960D01*
X60071Y91313D02*
Y90805D01*
X60325D01*
X60410Y90890D01*
Y91228D01*
X60325Y91313D01*
X60071D01*
X60706Y94615D02*
Y94107D01*
X60960D01*
X61045Y94192D01*
Y94530D01*
X60960Y94615D01*
X60706D01*
X54969Y97923D02*
Y97415D01*
X55223D01*
X55308Y97500D01*
Y97839D01*
X55223Y97923D01*
X54969D01*
Y83693D02*
Y83185D01*
X55223D01*
X55308Y83270D01*
Y83608D01*
X55223Y83693D01*
X54969D01*
Y88788D02*
Y88280D01*
X55223D01*
X55308Y88365D01*
Y88703D01*
X55223Y88788D01*
X54969D01*
X54969Y92783D02*
Y92275D01*
X55223D01*
X55308Y92360D01*
Y92698D01*
X55223Y92783D01*
X54969D01*
X143637Y82512D02*
Y82004D01*
X143891D01*
X143976Y82089D01*
Y82427D01*
X143891Y82512D01*
X143637D01*
Y73914D02*
Y73406D01*
X143891D01*
X143976Y73491D01*
Y73829D01*
X143891Y73914D01*
X143637D01*
X143281Y72364D02*
Y71857D01*
X143535D01*
X143620Y71941D01*
Y72280D01*
X143535Y72364D01*
X143281D01*
X143637Y73025D02*
Y72517D01*
X143891D01*
X143976Y72602D01*
Y72940D01*
X143891Y73025D01*
X143637D01*
X142621Y79248D02*
Y78740D01*
X142875D01*
X142960Y78825D01*
Y79163D01*
X142875Y79248D01*
X142621D01*
X102066Y32427D02*
X101981Y32512D01*
X101812D01*
X101727Y32427D01*
Y32089D01*
X101812Y32004D01*
X101981D01*
X102066Y32089D01*
Y32258D01*
X101896D01*
X104479Y109982D02*
X104140D01*
Y109728D01*
X104309D01*
X104140D01*
Y109474D01*
X100965Y93218D02*
Y92710D01*
X101219D01*
X101304Y92795D01*
Y93133D01*
X101219Y93218D01*
X100965D01*
X135763Y60833D02*
Y60325D01*
X136017D01*
X136102Y60410D01*
Y60748D01*
X136017Y60833D01*
X135763D01*
X132191Y65294D02*
Y64786D01*
X132445D01*
X132530Y64871D01*
Y65209D01*
X132445Y65294D01*
X132191D01*
X134691Y65349D02*
Y64841D01*
X134945D01*
X135030Y64926D01*
Y65264D01*
X134945Y65349D01*
X134691D01*
X130429Y65151D02*
Y64643D01*
X130683D01*
X130768Y64728D01*
Y65066D01*
X130683Y65151D01*
X130429D01*
X138198Y72224D02*
Y71716D01*
X138452D01*
X138537Y71801D01*
Y72139D01*
X138452Y72224D01*
X138198D01*
X126873Y72263D02*
Y71755D01*
X127127D01*
X127212Y71840D01*
Y72178D01*
X127127Y72263D01*
X126873D01*
X165058Y109728D02*
X164719D01*
Y109474D01*
X164888D01*
X164719D01*
Y109220D01*
X116642Y109982D02*
X116304D01*
Y109728D01*
X116473D01*
X116304D01*
Y109474D01*
X104140Y80518D02*
Y80010D01*
X104394D01*
X104479Y80095D01*
Y80433D01*
X104394Y80518D01*
X104140D01*
X133477Y49022D02*
Y48514D01*
X133731D01*
X133816Y48599D01*
Y48937D01*
X133731Y49022D01*
X133477D01*
X140335D02*
Y48514D01*
X140589D01*
X140674Y48599D01*
Y48937D01*
X140589Y49022D01*
X140335D01*
X85217Y81534D02*
Y81026D01*
X85471D01*
X85556Y81111D01*
Y81449D01*
X85471Y81534D01*
X85217D01*
X82169D02*
Y81026D01*
X82423D01*
X82508Y81111D01*
Y81449D01*
X82423Y81534D01*
X82169D01*
X93980Y80391D02*
Y79883D01*
X94234D01*
X94319Y79968D01*
Y80306D01*
X94234Y80391D01*
X93980D01*
X92710Y80391D02*
Y79883D01*
X92964D01*
X93049Y79968D01*
Y80306D01*
X92964Y80391D01*
X92710D01*
X114173Y114300D02*
Y113792D01*
X114427D01*
X114512Y113877D01*
Y114215D01*
X114427Y114300D01*
X114173D01*
X126069Y114215D02*
X125984Y114300D01*
X125815D01*
X125730Y114215D01*
Y113877D01*
X125815Y113792D01*
X125984D01*
X126069Y113877D01*
Y114046D01*
X125899D01*
X108204Y107442D02*
Y106934D01*
X108458D01*
X108543Y107019D01*
Y107357D01*
X108458Y107442D01*
X108204D01*
X101473Y118110D02*
Y117602D01*
X101727D01*
X101812Y117687D01*
Y118025D01*
X101727Y118110D01*
X101473D01*
X108204D02*
Y117602D01*
X108458D01*
X108543Y117687D01*
Y118025D01*
X108458Y118110D01*
X108204D01*
X101473Y107442D02*
Y106934D01*
X101727D01*
X101812Y107019D01*
Y107357D01*
X101727Y107442D01*
X101473D01*
X137922Y30099D02*
Y29591D01*
X138176D01*
X138261Y29676D01*
Y30014D01*
X138176Y30099D01*
X137922D01*
X93599Y101600D02*
Y101092D01*
X93853D01*
X93938Y101177D01*
Y101515D01*
X93853Y101600D01*
X93599D01*
X100584Y74041D02*
Y73533D01*
X100838D01*
X100923Y73618D01*
Y73956D01*
X100838Y74041D01*
X100584D01*
X101600Y81026D02*
Y80518D01*
X101854D01*
X101939Y80603D01*
Y80941D01*
X101854Y81026D01*
X101600D01*
X104521Y86106D02*
Y85598D01*
X104775D01*
X104860Y85683D01*
Y86021D01*
X104775Y86106D01*
X104521D01*
X104140Y88773D02*
Y88265D01*
X104394D01*
X104479Y88350D01*
Y88688D01*
X104394Y88773D01*
X104140D01*
X102489D02*
Y88265D01*
X102743D01*
X102828Y88350D01*
Y88688D01*
X102743Y88773D01*
X102489D01*
D210*
X28397Y38354D02*
G03*
X28397Y38354I-203J0D01*
G01*
X28397Y43815D02*
G03*
X28397Y43815I-203J0D01*
G01*
X28397Y49276D02*
G03*
X28397Y49276I-203J0D01*
G01*
X58750Y65811D02*
G03*
X58750Y65811I-203J0D01*
G01*
Y54889D02*
G03*
X58750Y54889I-203J0D01*
G01*
Y60350D02*
G03*
X58750Y60350I-203J0D01*
G01*
X28397Y65659D02*
G03*
X28397Y65659I-203J0D01*
G01*
Y54737D02*
G03*
X28397Y54737I-203J0D01*
G01*
Y60198D02*
G03*
X28397Y60198I-203J0D01*
G01*
X58750Y49276D02*
G03*
X58750Y49276I-203J0D01*
G01*
Y38354D02*
G03*
X58750Y38354I-203J0D01*
G01*
Y43815D02*
G03*
X58750Y43815I-203J0D01*
G01*
X165659Y51308D02*
G03*
X165659Y51308I-203J0D01*
G01*
Y102108D02*
G03*
X165659Y102108I-203J0D01*
G01*
D211*
X165557Y51308D02*
G03*
X165557Y51308I-102J0D01*
G01*
Y102108D02*
G03*
X165557Y102108I-102J0D01*
G01*
M02*
