%TF.GenerationSoftware,Altium Limited,Altium Designer,22.2.1 (43)*%
G04 Layer_Color=255*
%FSLAX44Y44*%
%MOMM*%
%TF.SameCoordinates,0AFF7D02-74C0-442A-A7DB-72135CCE8720*%
%TF.FilePolarity,Positive*%
%TF.FileFunction,Pads,Bot*%
%TF.Part,Single*%
G01*
G75*
%TA.AperFunction,SMDPad,CuDef*%
%ADD10R,0.9700X1.7300*%
%ADD11R,1.7300X0.9700*%
%ADD15R,0.9800X0.9200*%
%ADD17R,0.9200X0.9800*%
%TA.AperFunction,ComponentPad*%
%ADD68O,4.1910X2.0955*%
%ADD69C,4.1148*%
%ADD70C,1.6050*%
%ADD71R,1.6050X1.6050*%
%ADD72C,1.1400*%
%ADD73R,1.1400X1.1400*%
%ADD74O,3.0480X1.5240*%
%ADD75R,2.0550X2.0550*%
%ADD76C,2.0550*%
%ADD77C,1.9500*%
%ADD78R,1.9500X1.9500*%
%ADD79C,1.8034*%
%ADD80C,2.3114*%
%ADD81C,4.0894*%
%ADD82R,1.4986X1.4986*%
%ADD83C,1.4986*%
%ADD84R,2.0550X2.0550*%
%ADD85C,3.5000*%
%ADD86C,1.7700*%
%ADD87C,1.5600*%
%ADD88R,1.1000X1.1000*%
%ADD89R,1.5600X1.5600*%
%ADD90C,3.3460*%
%ADD91C,1.4280*%
%ADD92R,1.4280X1.4280*%
%ADD93C,1.1000*%
%ADD94R,1.7700X1.7700*%
%TA.AperFunction,SMDPad,CuDef*%
G04:AMPARAMS|DCode=100|XSize=0.94mm|YSize=1.02mm|CornerRadius=0.094mm|HoleSize=0mm|Usage=FLASHONLY|Rotation=0.000|XOffset=0mm|YOffset=0mm|HoleType=Round|Shape=RoundedRectangle|*
%AMROUNDEDRECTD100*
21,1,0.9400,0.8320,0,0,0.0*
21,1,0.7520,1.0200,0,0,0.0*
1,1,0.1880,0.3760,-0.4160*
1,1,0.1880,-0.3760,-0.4160*
1,1,0.1880,-0.3760,0.4160*
1,1,0.1880,0.3760,0.4160*
%
%ADD100ROUNDEDRECTD100*%
G04:AMPARAMS|DCode=101|XSize=0.94mm|YSize=1.02mm|CornerRadius=0.094mm|HoleSize=0mm|Usage=FLASHONLY|Rotation=90.000|XOffset=0mm|YOffset=0mm|HoleType=Round|Shape=RoundedRectangle|*
%AMROUNDEDRECTD101*
21,1,0.9400,0.8320,0,0,90.0*
21,1,0.7520,1.0200,0,0,90.0*
1,1,0.1880,0.4160,0.3760*
1,1,0.1880,0.4160,-0.3760*
1,1,0.1880,-0.4160,-0.3760*
1,1,0.1880,-0.4160,0.3760*
%
%ADD101ROUNDEDRECTD101*%
G04:AMPARAMS|DCode=102|XSize=1.23mm|YSize=0.6mm|CornerRadius=0.075mm|HoleSize=0mm|Usage=FLASHONLY|Rotation=180.000|XOffset=0mm|YOffset=0mm|HoleType=Round|Shape=RoundedRectangle|*
%AMROUNDEDRECTD102*
21,1,1.2300,0.4500,0,0,180.0*
21,1,1.0800,0.6000,0,0,180.0*
1,1,0.1500,-0.5400,0.2250*
1,1,0.1500,0.5400,0.2250*
1,1,0.1500,0.5400,-0.2250*
1,1,0.1500,-0.5400,-0.2250*
%
%ADD102ROUNDEDRECTD102*%
%ADD103R,1.5000X0.8000*%
%ADD104R,1.9000X1.4000*%
%ADD105R,1.4000X1.3000*%
%ADD106R,1.0000X0.9500*%
D10*
X1490150Y660400D02*
D03*
X1519750D02*
D03*
X1490150Y727710D02*
D03*
X1519750D02*
D03*
X1490150Y756920D02*
D03*
X1519750D02*
D03*
Y824230D02*
D03*
X1490150D02*
D03*
X1519750Y853440D02*
D03*
X1490150D02*
D03*
Y920750D02*
D03*
X1519750D02*
D03*
X1490150Y1017270D02*
D03*
X1519750D02*
D03*
X1570550Y802640D02*
D03*
X1540950Y802640D02*
D03*
X1570550Y777240D02*
D03*
X1540950D02*
D03*
X1539680Y995680D02*
D03*
X1539680Y970280D02*
D03*
X1540950Y873760D02*
D03*
X1541390Y899160D02*
D03*
X1540950Y706120D02*
D03*
Y680720D02*
D03*
X1569280Y995680D02*
D03*
X1570550Y706120D02*
D03*
X1570990Y899160D02*
D03*
X1569280Y970280D02*
D03*
X1570550Y680720D02*
D03*
X1570550Y873760D02*
D03*
X1519750Y949960D02*
D03*
X1490150D02*
D03*
D11*
X1045210Y869510D02*
D03*
Y839910D02*
D03*
X1019810Y869510D02*
D03*
Y839910D02*
D03*
D15*
X1347470Y636400D02*
D03*
Y620900D02*
D03*
X1322070Y636400D02*
D03*
Y620900D02*
D03*
D17*
X1041530Y814070D02*
D03*
X1026030D02*
D03*
D68*
X281940Y492760D02*
D03*
X281940Y438150D02*
D03*
X281940Y383540D02*
D03*
X585470Y603504D02*
D03*
Y548894D02*
D03*
Y658114D02*
D03*
X281940Y601980D02*
D03*
Y547370D02*
D03*
Y656590D02*
D03*
X585470Y438150D02*
D03*
Y383540D02*
D03*
Y492760D02*
D03*
D69*
X485140Y438150D02*
D03*
X788670Y603504D02*
D03*
X485140Y601980D02*
D03*
X788670Y438150D02*
D03*
D70*
X515620Y980440D02*
D03*
Y955040D02*
D03*
Y889000D02*
D03*
Y863600D02*
D03*
D71*
Y929640D02*
D03*
Y838200D02*
D03*
D72*
X956310Y568960D02*
D03*
Y543560D02*
D03*
Y518160D02*
D03*
X876910Y543560D02*
D03*
Y518160D02*
D03*
Y568960D02*
D03*
X956310Y594360D02*
D03*
X956640Y320040D02*
D03*
Y294640D02*
D03*
Y269240D02*
D03*
X877240D02*
D03*
Y320040D02*
D03*
Y294640D02*
D03*
X956640Y345440D02*
D03*
Y642620D02*
D03*
Y668020D02*
D03*
Y693420D02*
D03*
X877240Y642620D02*
D03*
Y693420D02*
D03*
Y668020D02*
D03*
X956640Y718820D02*
D03*
X955370Y393700D02*
D03*
Y419100D02*
D03*
Y444500D02*
D03*
X875970Y393700D02*
D03*
X955370Y469900D02*
D03*
X875970Y444500D02*
D03*
Y419100D02*
D03*
D73*
X876910Y594360D02*
D03*
X877240Y345440D02*
D03*
Y718820D02*
D03*
X875970Y469900D02*
D03*
D74*
X1345250Y760730D02*
D03*
Y786130D02*
D03*
X1345250Y811530D02*
D03*
X1345250Y925830D02*
D03*
Y900430D02*
D03*
X1345250Y875030D02*
D03*
D75*
X350520Y1224280D02*
D03*
D76*
X375870D02*
D03*
X401220D02*
D03*
X287020Y951180D02*
D03*
Y925830D02*
D03*
X285750Y1175986D02*
D03*
Y1054083D02*
D03*
Y1079434D02*
D03*
Y1201337D02*
D03*
D77*
X514350Y1235710D02*
D03*
D78*
X609650D02*
D03*
D79*
X1701038Y878586D02*
D03*
Y618490D02*
D03*
X1676146Y878586D02*
D03*
X1651000D02*
D03*
X1626108D02*
D03*
X1701038Y843534D02*
D03*
Y793496D02*
D03*
X1676146D02*
D03*
X1651000D02*
D03*
Y618490D02*
D03*
X1676146D02*
D03*
X1701038Y643382D02*
D03*
Y668528D02*
D03*
Y693420D02*
D03*
Y718566D02*
D03*
Y743458D02*
D03*
X1626108Y768604D02*
D03*
X1676146D02*
D03*
X1701038D02*
D03*
X1626108Y793496D02*
D03*
X1651000Y818388D02*
D03*
X1626108Y843534D02*
D03*
X1651000D02*
D03*
X1626108Y618490D02*
D03*
Y818388D02*
D03*
Y643382D02*
D03*
X1651000D02*
D03*
X1676146D02*
D03*
X1626108Y668528D02*
D03*
X1651000D02*
D03*
X1676146D02*
D03*
X1626108Y693420D02*
D03*
X1651000D02*
D03*
X1676146D02*
D03*
X1626108Y718566D02*
D03*
X1651000D02*
D03*
X1676146D02*
D03*
X1626108Y743458D02*
D03*
X1651000D02*
D03*
X1676146D02*
D03*
X1651000Y768604D02*
D03*
X1676146Y818388D02*
D03*
X1701038D02*
D03*
X1676146Y843534D02*
D03*
X1626108Y915416D02*
D03*
X1651000D02*
D03*
X1676146D02*
D03*
X1701038D02*
D03*
D80*
X1616202Y553974D02*
D03*
Y979932D02*
D03*
D81*
X1654556Y513080D02*
D03*
Y1021080D02*
D03*
D82*
X394970Y1102360D02*
D03*
Y979170D02*
D03*
D83*
Y1076960D02*
D03*
Y1051560D02*
D03*
Y1026160D02*
D03*
X471170D02*
D03*
Y1051560D02*
D03*
Y1076960D02*
D03*
Y1102360D02*
D03*
Y979170D02*
D03*
Y953770D02*
D03*
Y928370D02*
D03*
Y902970D02*
D03*
X394970D02*
D03*
Y928370D02*
D03*
Y953770D02*
D03*
D84*
X287020Y900480D02*
D03*
X285750Y1150637D02*
D03*
Y1028733D02*
D03*
D85*
X454680Y1148190D02*
D03*
X495280D02*
D03*
X403880D02*
D03*
X546080D02*
D03*
D86*
X1154430Y840740D02*
D03*
X1177230D02*
D03*
D87*
X1357630Y275590D02*
D03*
X1332230D02*
D03*
X1383030D02*
D03*
D88*
X533400Y1099420D02*
D03*
D89*
X1306830Y275590D02*
D03*
D90*
X1563370Y276066D02*
D03*
X1442970D02*
D03*
D91*
X1515670Y303165D02*
D03*
X1490670D02*
D03*
Y323166D02*
D03*
D92*
X1515670D02*
D03*
D93*
X533400Y1049420D02*
D03*
D94*
X1131630Y840740D02*
D03*
D100*
X1331950Y603250D02*
D03*
X1347750D02*
D03*
D101*
X1303020Y620750D02*
D03*
Y636550D02*
D03*
D102*
X1513010Y800179D02*
D03*
X1491810Y790678D02*
D03*
X1513010Y781178D02*
D03*
Y684658D02*
D03*
X1491810Y694158D02*
D03*
X1513010Y703659D02*
D03*
X1512180Y877698D02*
D03*
X1490980Y887198D02*
D03*
X1512180Y896699D02*
D03*
X1512650Y974219D02*
D03*
X1491450Y983719D02*
D03*
X1512650Y993219D02*
D03*
D103*
X1454880Y590530D02*
D03*
X1458880Y579530D02*
D03*
X1454880Y568530D02*
D03*
X1452880Y557530D02*
D03*
X1454880Y546530D02*
D03*
X1452880Y535530D02*
D03*
X1454880Y524530D02*
D03*
Y513530D02*
D03*
D104*
X1421980Y637130D02*
D03*
X1431980Y505630D02*
D03*
D105*
X1563480Y578630D02*
D03*
Y521630D02*
D03*
D106*
X1565480Y535530D02*
D03*
%TF.MD5,9ef8129859dd054021ad500aee6f708b*%
M02*
