G04*
G04 #@! TF.GenerationSoftware,Altium Limited,Altium Designer,22.2.1 (43)*
G04*
G04 Layer_Color=255*
%FSLAX43Y43*%
%MOMM*%
G71*
G04*
G04 #@! TF.SameCoordinates,D3EB6253-BFD4-4380-A103-C90408D97D60*
G04*
G04*
G04 #@! TF.FilePolarity,Positive*
G04*
G01*
G75*
%ADD18R,0.920X0.980*%
G04:AMPARAMS|DCode=19|XSize=0.28mm|YSize=1.56mm|CornerRadius=0.035mm|HoleSize=0mm|Usage=FLASHONLY|Rotation=270.000|XOffset=0mm|YOffset=0mm|HoleType=Round|Shape=RoundedRectangle|*
%AMROUNDEDRECTD19*
21,1,0.280,1.490,0,0,270.0*
21,1,0.210,1.560,0,0,270.0*
1,1,0.070,-0.745,-0.105*
1,1,0.070,-0.745,0.105*
1,1,0.070,0.745,0.105*
1,1,0.070,0.745,-0.105*
%
%ADD19ROUNDEDRECTD19*%
G04:AMPARAMS|DCode=20|XSize=1.56mm|YSize=0.28mm|CornerRadius=0.035mm|HoleSize=0mm|Usage=FLASHONLY|Rotation=270.000|XOffset=0mm|YOffset=0mm|HoleType=Round|Shape=RoundedRectangle|*
%AMROUNDEDRECTD20*
21,1,1.560,0.210,0,0,270.0*
21,1,1.490,0.280,0,0,270.0*
1,1,0.070,-0.105,-0.745*
1,1,0.070,-0.105,0.745*
1,1,0.070,0.105,0.745*
1,1,0.070,0.105,-0.745*
%
%ADD20ROUNDEDRECTD20*%
%ADD21R,1.150X1.150*%
%ADD22R,1.730X0.970*%
%ADD23R,0.280X1.470*%
%ADD24R,0.980X0.920*%
%ADD25R,0.970X1.730*%
G04:AMPARAMS|DCode=26|XSize=1.19mm|YSize=0.4mm|CornerRadius=0.05mm|HoleSize=0mm|Usage=FLASHONLY|Rotation=0.000|XOffset=0mm|YOffset=0mm|HoleType=Round|Shape=RoundedRectangle|*
%AMROUNDEDRECTD26*
21,1,1.190,0.300,0,0,0.0*
21,1,1.090,0.400,0,0,0.0*
1,1,0.100,0.545,-0.150*
1,1,0.100,-0.545,-0.150*
1,1,0.100,-0.545,0.150*
1,1,0.100,0.545,0.150*
%
%ADD26ROUNDEDRECTD26*%
%ADD27R,0.570X2.020*%
%ADD28R,1.100X1.450*%
%ADD29R,5.400X2.900*%
%ADD30R,2.000X3.600*%
%ADD31R,3.600X2.000*%
%ADD32R,0.640X0.600*%
%ADD33R,0.600X0.640*%
G04:AMPARAMS|DCode=34|XSize=0.94mm|YSize=1.02mm|CornerRadius=0.094mm|HoleSize=0mm|Usage=FLASHONLY|Rotation=270.000|XOffset=0mm|YOffset=0mm|HoleType=Round|Shape=RoundedRectangle|*
%AMROUNDEDRECTD34*
21,1,0.940,0.832,0,0,270.0*
21,1,0.752,1.020,0,0,270.0*
1,1,0.188,-0.416,-0.376*
1,1,0.188,-0.416,0.376*
1,1,0.188,0.416,0.376*
1,1,0.188,0.416,-0.376*
%
%ADD34ROUNDEDRECTD34*%
%ADD35R,0.750X1.400*%
G04:AMPARAMS|DCode=36|XSize=0.94mm|YSize=1.02mm|CornerRadius=0.094mm|HoleSize=0mm|Usage=FLASHONLY|Rotation=180.000|XOffset=0mm|YOffset=0mm|HoleType=Round|Shape=RoundedRectangle|*
%AMROUNDEDRECTD36*
21,1,0.940,0.832,0,0,180.0*
21,1,0.752,1.020,0,0,180.0*
1,1,0.188,-0.376,0.416*
1,1,0.188,0.376,0.416*
1,1,0.188,0.376,-0.416*
1,1,0.188,-0.376,-0.416*
%
%ADD36ROUNDEDRECTD36*%
%ADD37R,3.680X1.270*%
%ADD38R,1.200X1.400*%
G04:AMPARAMS|DCode=39|XSize=1.31mm|YSize=0.62mm|CornerRadius=0.078mm|HoleSize=0mm|Usage=FLASHONLY|Rotation=180.000|XOffset=0mm|YOffset=0mm|HoleType=Round|Shape=RoundedRectangle|*
%AMROUNDEDRECTD39*
21,1,1.310,0.465,0,0,180.0*
21,1,1.155,0.620,0,0,180.0*
1,1,0.155,-0.578,0.233*
1,1,0.155,0.578,0.233*
1,1,0.155,0.578,-0.233*
1,1,0.155,-0.578,-0.233*
%
%ADD39ROUNDEDRECTD39*%
%ADD40R,1.560X0.620*%
%ADD41R,1.000X1.700*%
%ADD42R,1.090X1.080*%
%ADD43R,0.990X3.790*%
%ADD46R,1.500X1.250*%
%ADD47R,1.150X1.150*%
%ADD48R,1.270X3.175*%
%ADD49R,1.270X3.180*%
%ADD50R,1.450X1.100*%
%ADD51R,1.000X0.970*%
%ADD52R,1.200X0.800*%
%ADD53R,1.400X1.200*%
%ADD120R,2.000X2.000*%
%ADD121R,10.840X7.880*%
%ADD122R,1.000X3.400*%
%ADD123R,10.700X8.600*%
%ADD127C,4.115*%
%ADD128O,4.191X2.096*%
%ADD129C,1.770*%
%ADD130R,1.770X1.770*%
%ADD131C,1.140*%
%ADD132R,1.140X1.140*%
%ADD133C,1.605*%
%ADD134R,1.605X1.605*%
%ADD135C,1.499*%
%ADD136R,1.499X1.499*%
%ADD137R,1.100X1.100*%
%ADD138C,1.100*%
%ADD139R,1.950X1.950*%
%ADD140C,1.950*%
%ADD141C,2.055*%
%ADD142R,2.055X2.055*%
%ADD143C,1.560*%
%ADD144R,1.560X1.560*%
%ADD145C,1.803*%
%ADD146C,2.311*%
%ADD147C,4.089*%
%ADD148R,1.428X1.428*%
%ADD149C,1.428*%
%ADD150C,3.346*%
D18*
X155689Y44450D02*
D03*
X157239D02*
D03*
X109487Y56134D02*
D03*
X107937D02*
D03*
X61227Y93599D02*
D03*
X59677D02*
D03*
X164592Y116078D02*
D03*
X166142D02*
D03*
X145402Y107315D02*
D03*
X146952D02*
D03*
X142253D02*
D03*
X140703D02*
D03*
X126759Y79248D02*
D03*
X125209D02*
D03*
X135623Y79756D02*
D03*
X137173D02*
D03*
X117208Y63881D02*
D03*
X118758D02*
D03*
X59677Y79502D02*
D03*
X61227D02*
D03*
D19*
X123638Y74961D02*
D03*
Y74461D02*
D03*
Y73961D02*
D03*
Y73461D02*
D03*
Y72961D02*
D03*
Y72461D02*
D03*
Y71961D02*
D03*
Y71461D02*
D03*
Y70961D02*
D03*
Y70461D02*
D03*
Y69961D02*
D03*
Y69461D02*
D03*
Y68961D02*
D03*
Y68461D02*
D03*
Y67961D02*
D03*
Y67461D02*
D03*
Y66961D02*
D03*
Y66461D02*
D03*
Y65961D02*
D03*
Y65461D02*
D03*
Y64961D02*
D03*
Y64461D02*
D03*
Y63961D02*
D03*
Y63461D02*
D03*
Y62961D02*
D03*
X138998D02*
D03*
Y63461D02*
D03*
Y63961D02*
D03*
Y64461D02*
D03*
Y64961D02*
D03*
Y65461D02*
D03*
Y65961D02*
D03*
Y66461D02*
D03*
Y66961D02*
D03*
Y67461D02*
D03*
Y67961D02*
D03*
Y68461D02*
D03*
Y68961D02*
D03*
Y69461D02*
D03*
Y69961D02*
D03*
Y70461D02*
D03*
Y70961D02*
D03*
Y71461D02*
D03*
Y71961D02*
D03*
Y72461D02*
D03*
Y72961D02*
D03*
Y73461D02*
D03*
Y73961D02*
D03*
Y74461D02*
D03*
Y74961D02*
D03*
D20*
X137318Y76641D02*
D03*
X136818D02*
D03*
X136318D02*
D03*
X135818D02*
D03*
X135318D02*
D03*
X134818D02*
D03*
X134318D02*
D03*
X133818D02*
D03*
X133318D02*
D03*
X132818D02*
D03*
X132318D02*
D03*
X131818D02*
D03*
X131318D02*
D03*
X130818D02*
D03*
X130318D02*
D03*
X129818D02*
D03*
X129318D02*
D03*
X128818D02*
D03*
X128318D02*
D03*
X127818D02*
D03*
X127318D02*
D03*
X126818D02*
D03*
X126318D02*
D03*
X125818D02*
D03*
X125318D02*
D03*
Y61281D02*
D03*
X125818D02*
D03*
X126318D02*
D03*
X126818D02*
D03*
X127318D02*
D03*
X127818D02*
D03*
X128318D02*
D03*
X128818D02*
D03*
X129318D02*
D03*
X129818D02*
D03*
X130318D02*
D03*
X130818D02*
D03*
X131318D02*
D03*
X131818D02*
D03*
X132318D02*
D03*
X132818D02*
D03*
X133318D02*
D03*
X133818D02*
D03*
X134318D02*
D03*
X134818D02*
D03*
X135318D02*
D03*
X135818D02*
D03*
X136318D02*
D03*
X136818D02*
D03*
X137318D02*
D03*
D21*
X131223Y55753D02*
D03*
X128873D02*
D03*
Y57912D02*
D03*
X131223D02*
D03*
X123253D02*
D03*
X125603D02*
D03*
Y55753D02*
D03*
X123253D02*
D03*
D22*
X74676Y81998D02*
D03*
Y79038D02*
D03*
X66040Y84157D02*
D03*
Y81197D02*
D03*
X74930Y90971D02*
D03*
Y88011D02*
D03*
X66167Y92412D02*
D03*
Y89452D02*
D03*
X149098Y112605D02*
D03*
Y109645D02*
D03*
X136779Y112097D02*
D03*
Y109137D02*
D03*
X139446Y118535D02*
D03*
Y121495D02*
D03*
X105029Y70739D02*
D03*
Y73699D02*
D03*
X64516Y79077D02*
D03*
Y76117D02*
D03*
X61722Y77426D02*
D03*
Y74466D02*
D03*
X59182D02*
D03*
Y77426D02*
D03*
X61849Y98635D02*
D03*
Y95675D02*
D03*
X59182Y98635D02*
D03*
Y95675D02*
D03*
X46355Y113836D02*
D03*
Y116796D02*
D03*
X43688Y113836D02*
D03*
Y116796D02*
D03*
X27813Y33865D02*
D03*
Y30905D02*
D03*
X105029Y59734D02*
D03*
Y62694D02*
D03*
Y48812D02*
D03*
Y51772D02*
D03*
X105156Y37890D02*
D03*
Y40850D02*
D03*
X134828Y46322D02*
D03*
Y43362D02*
D03*
X130891Y46322D02*
D03*
Y43362D02*
D03*
D23*
X70247Y82922D02*
D03*
X70747D02*
D03*
X71247D02*
D03*
X71747D02*
D03*
X72247D02*
D03*
Y78622D02*
D03*
X71747D02*
D03*
X71247D02*
D03*
X70747D02*
D03*
X70247D02*
D03*
X70596Y88274D02*
D03*
X70096D02*
D03*
X69596D02*
D03*
X69096D02*
D03*
X68596D02*
D03*
Y92574D02*
D03*
X69096D02*
D03*
X69596D02*
D03*
X70096D02*
D03*
X70596D02*
D03*
D24*
X68326Y83198D02*
D03*
Y81648D02*
D03*
X63754Y84214D02*
D03*
Y82664D02*
D03*
X72517Y87998D02*
D03*
Y89548D02*
D03*
X63881Y90564D02*
D03*
Y89014D02*
D03*
X158496Y111112D02*
D03*
Y112662D02*
D03*
X156591Y111112D02*
D03*
Y112662D02*
D03*
X136271Y58560D02*
D03*
Y57010D02*
D03*
X138811Y124981D02*
D03*
Y123431D02*
D03*
X148717Y114668D02*
D03*
Y116218D02*
D03*
X128651Y84315D02*
D03*
Y85865D02*
D03*
X141351Y76594D02*
D03*
Y75044D02*
D03*
X155702Y40627D02*
D03*
Y42177D02*
D03*
X60198Y30721D02*
D03*
Y32271D02*
D03*
X104521Y55613D02*
D03*
Y57163D02*
D03*
X107442Y47231D02*
D03*
Y48781D02*
D03*
X104521Y46241D02*
D03*
Y44691D02*
D03*
X104648Y35319D02*
D03*
Y33769D02*
D03*
X107442Y36309D02*
D03*
Y37859D02*
D03*
X125730Y38113D02*
D03*
Y36563D02*
D03*
X110490Y91453D02*
D03*
Y89903D02*
D03*
X91821Y44069D02*
D03*
Y45619D02*
D03*
X121285Y76213D02*
D03*
Y74663D02*
D03*
X104521Y66535D02*
D03*
Y68085D02*
D03*
X106934D02*
D03*
Y66535D02*
D03*
X91948Y33388D02*
D03*
Y34938D02*
D03*
X91821Y55118D02*
D03*
Y56668D02*
D03*
D25*
X72092Y85598D02*
D03*
X69132D02*
D03*
X169843Y113792D02*
D03*
X172803D02*
D03*
X167596D02*
D03*
X164636D02*
D03*
X74085Y94488D02*
D03*
X77045D02*
D03*
X134703D02*
D03*
X131743D02*
D03*
X65830Y114173D02*
D03*
X68790D02*
D03*
X60496D02*
D03*
X63456D02*
D03*
X66841Y68707D02*
D03*
X63881D02*
D03*
X31159D02*
D03*
X34119D02*
D03*
X63671Y28194D02*
D03*
X66631D02*
D03*
X140418Y43699D02*
D03*
X137458D02*
D03*
X125347Y43699D02*
D03*
X128307D02*
D03*
X45637Y78613D02*
D03*
X48597D02*
D03*
Y84032D02*
D03*
X45637D02*
D03*
X48597Y81322D02*
D03*
X45637D02*
D03*
X45510Y86741D02*
D03*
X48470D02*
D03*
D26*
X61666Y82438D02*
D03*
Y81138D02*
D03*
X59746D02*
D03*
Y81788D02*
D03*
Y82438D02*
D03*
X61610Y85486D02*
D03*
Y84186D02*
D03*
X59690D02*
D03*
Y84836D02*
D03*
Y85486D02*
D03*
X61666Y88661D02*
D03*
Y87361D02*
D03*
X59746D02*
D03*
Y88011D02*
D03*
Y88661D02*
D03*
X61610Y91724D02*
D03*
Y90424D02*
D03*
X59690D02*
D03*
Y91074D02*
D03*
Y91724D02*
D03*
D27*
X156972Y124822D02*
D03*
X158242D02*
D03*
X159512D02*
D03*
X160782D02*
D03*
Y115462D02*
D03*
X159512D02*
D03*
X158242D02*
D03*
X156972D02*
D03*
D28*
X76973Y97028D02*
D03*
X75173D02*
D03*
X134631Y96901D02*
D03*
X132831D02*
D03*
X63997Y71501D02*
D03*
X65797D02*
D03*
X31231D02*
D03*
X33031D02*
D03*
X33042Y30861D02*
D03*
X31242D02*
D03*
X66051Y30988D02*
D03*
X64251D02*
D03*
D29*
X85217Y105153D02*
D03*
Y95253D02*
D03*
X123571Y105153D02*
D03*
Y95253D02*
D03*
D30*
X76806Y102235D02*
D03*
X70006D02*
D03*
X54327Y70739D02*
D03*
X47527D02*
D03*
X37113D02*
D03*
X43913D02*
D03*
X79785Y30226D02*
D03*
X86585D02*
D03*
X76171D02*
D03*
X69371D02*
D03*
X47400Y30353D02*
D03*
X54200D02*
D03*
X43786D02*
D03*
X36986D02*
D03*
X69625Y70739D02*
D03*
X76425D02*
D03*
X80063D02*
D03*
X86863D02*
D03*
D31*
X133858Y124304D02*
D03*
Y117504D02*
D03*
X74041Y115218D02*
D03*
Y122018D02*
D03*
D32*
X128524Y80346D02*
D03*
Y81198D02*
D03*
X147828Y54401D02*
D03*
Y53549D02*
D03*
D33*
X132924Y84328D02*
D03*
X133776D02*
D03*
X137078D02*
D03*
X136226D02*
D03*
X138766D02*
D03*
X139618D02*
D03*
X153752Y52197D02*
D03*
X154604D02*
D03*
D34*
X130683Y85880D02*
D03*
Y84300D02*
D03*
D35*
X138647Y82296D02*
D03*
X137197D02*
D03*
D36*
X143538Y72009D02*
D03*
X141958D02*
D03*
D37*
X153351Y60706D02*
D03*
X148401D02*
D03*
X153351Y63246D02*
D03*
X148401D02*
D03*
X153351Y65786D02*
D03*
X148401D02*
D03*
X153351Y68326D02*
D03*
X148401D02*
D03*
X153351Y70866D02*
D03*
X148401D02*
D03*
D38*
X149899Y54440D02*
D03*
Y52240D02*
D03*
X151599D02*
D03*
Y54440D02*
D03*
D39*
X147618Y40640D02*
D03*
Y41910D02*
D03*
X153118Y49530D02*
D03*
X147618Y48260D02*
D03*
X153118D02*
D03*
Y45720D02*
D03*
X147618Y49530D02*
D03*
X153118Y46990D02*
D03*
X147618D02*
D03*
Y45720D02*
D03*
Y43180D02*
D03*
X153118Y44450D02*
D03*
Y43180D02*
D03*
Y40640D02*
D03*
X147618Y44450D02*
D03*
X153118Y41910D02*
D03*
D40*
X114707Y63881D02*
D03*
Y62611D02*
D03*
Y61341D02*
D03*
Y60071D02*
D03*
X109347D02*
D03*
Y61341D02*
D03*
Y62611D02*
D03*
Y63881D02*
D03*
D41*
X109606Y76302D02*
D03*
Y70002D02*
D03*
X113406D02*
D03*
Y76302D02*
D03*
D42*
X67183Y75895D02*
D03*
Y79045D02*
D03*
X64770Y97765D02*
D03*
Y94615D02*
D03*
X112776Y91364D02*
D03*
Y88214D02*
D03*
D43*
X120171Y110821D02*
D03*
X121871D02*
D03*
X123571D02*
D03*
X125271D02*
D03*
X126971D02*
D03*
D46*
X35814Y116787D02*
D03*
Y113337D02*
D03*
Y104066D02*
D03*
Y107516D02*
D03*
X35941Y91260D02*
D03*
Y87810D02*
D03*
X35814Y81862D02*
D03*
Y78412D02*
D03*
D47*
X57658Y68421D02*
D03*
Y70771D02*
D03*
X90932Y28035D02*
D03*
Y30385D02*
D03*
X57658Y30321D02*
D03*
Y32671D02*
D03*
X90805Y70707D02*
D03*
Y73057D02*
D03*
D48*
X136779Y35356D02*
D03*
X134239D02*
D03*
X131699D02*
D03*
X129159D02*
D03*
D49*
X123698Y32712D02*
D03*
X121158D02*
D03*
X118618D02*
D03*
X108204Y32585D02*
D03*
X110744D02*
D03*
X113284D02*
D03*
D50*
X137541Y41043D02*
D03*
Y39243D02*
D03*
X134874Y41043D02*
D03*
Y39243D02*
D03*
X130891Y41043D02*
D03*
Y39243D02*
D03*
X128351Y41032D02*
D03*
Y39232D02*
D03*
D51*
X115216Y91313D02*
D03*
X116686D02*
D03*
D52*
X119253Y91319D02*
D03*
Y88519D02*
D03*
D53*
X132926Y82003D02*
D03*
X130726D02*
D03*
Y80303D02*
D03*
X132926D02*
D03*
D120*
X110490Y97927D02*
D03*
Y105527D02*
D03*
X98806Y98854D02*
D03*
Y104854D02*
D03*
X110490Y113205D02*
D03*
Y119205D02*
D03*
X98806Y112542D02*
D03*
Y120142D02*
D03*
D121*
X123571Y121571D02*
D03*
D122*
X81817Y110744D02*
D03*
X83517D02*
D03*
X85217D02*
D03*
X86917D02*
D03*
X88617D02*
D03*
D123*
X85217Y121344D02*
D03*
D127*
X84836Y58801D02*
D03*
Y42418D02*
D03*
X52197Y58801D02*
D03*
Y42418D02*
D03*
D128*
X64516Y53340D02*
D03*
Y58801D02*
D03*
Y64262D02*
D03*
Y36957D02*
D03*
Y42418D02*
D03*
Y47879D02*
D03*
X31877Y53340D02*
D03*
Y58801D02*
D03*
Y64262D02*
D03*
Y47879D02*
D03*
Y42418D02*
D03*
Y36957D02*
D03*
D129*
X133477Y111373D02*
D03*
Y109093D02*
D03*
D130*
Y106813D02*
D03*
D131*
X94201Y68072D02*
D03*
Y65532D02*
D03*
Y62992D02*
D03*
X102141D02*
D03*
Y65532D02*
D03*
Y68072D02*
D03*
Y70612D02*
D03*
X102014Y59690D02*
D03*
Y57150D02*
D03*
Y54610D02*
D03*
Y52070D02*
D03*
X94074D02*
D03*
Y54610D02*
D03*
Y57150D02*
D03*
Y46228D02*
D03*
Y43688D02*
D03*
Y41148D02*
D03*
X102014D02*
D03*
Y43688D02*
D03*
Y46228D02*
D03*
Y48768D02*
D03*
X94201Y35306D02*
D03*
Y32766D02*
D03*
Y30226D02*
D03*
X102141D02*
D03*
Y32766D02*
D03*
Y35306D02*
D03*
Y37846D02*
D03*
D132*
X94201Y70612D02*
D03*
X94074Y59690D02*
D03*
Y48768D02*
D03*
X94201Y37846D02*
D03*
D133*
X56007Y83312D02*
D03*
Y80772D02*
D03*
X56134Y94742D02*
D03*
Y92202D02*
D03*
D134*
X56007Y78232D02*
D03*
X56134Y89662D02*
D03*
D135*
X48895Y97917D02*
D03*
Y95377D02*
D03*
Y92837D02*
D03*
Y90297D02*
D03*
X41275D02*
D03*
Y92837D02*
D03*
Y95377D02*
D03*
X48768Y109982D02*
D03*
Y107442D02*
D03*
Y104902D02*
D03*
Y102362D02*
D03*
X41148D02*
D03*
Y104902D02*
D03*
Y107442D02*
D03*
D136*
X41275Y97917D02*
D03*
X41148Y109982D02*
D03*
D137*
X76414Y109601D02*
D03*
D138*
X71414D02*
D03*
D139*
X63058Y122047D02*
D03*
D140*
X53528D02*
D03*
D141*
X32004Y83434D02*
D03*
Y80899D02*
D03*
X31877Y96259D02*
D03*
Y93724D02*
D03*
Y109085D02*
D03*
Y106550D02*
D03*
Y121910D02*
D03*
Y119375D02*
D03*
D142*
X32004Y78364D02*
D03*
X31877Y91189D02*
D03*
Y104015D02*
D03*
Y116840D02*
D03*
D143*
X136779Y29845D02*
D03*
X134239D02*
D03*
X131699D02*
D03*
D144*
X129159D02*
D03*
D145*
X162611Y61849D02*
D03*
X165100D02*
D03*
X167615D02*
D03*
X170104D02*
D03*
X162611Y64338D02*
D03*
X165100D02*
D03*
X167615D02*
D03*
X170104D02*
D03*
X162611Y66853D02*
D03*
X165100D02*
D03*
X167615D02*
D03*
X170104D02*
D03*
X162611Y69342D02*
D03*
X165100D02*
D03*
X167615D02*
D03*
X170104D02*
D03*
X162611Y71857D02*
D03*
X165100D02*
D03*
X167615D02*
D03*
X170104D02*
D03*
X162611Y74346D02*
D03*
X165100D02*
D03*
X167615D02*
D03*
X170104D02*
D03*
X162611Y76860D02*
D03*
X165100D02*
D03*
X167615D02*
D03*
X170104D02*
D03*
X162611Y79350D02*
D03*
X165100D02*
D03*
X167615D02*
D03*
X170104D02*
D03*
X162611Y81839D02*
D03*
X165100D02*
D03*
X167615D02*
D03*
X170104D02*
D03*
X162611Y84353D02*
D03*
X165100D02*
D03*
X167615D02*
D03*
X170104D02*
D03*
X162611Y87859D02*
D03*
X165100D02*
D03*
X167615D02*
D03*
X170104D02*
D03*
X162611Y91542D02*
D03*
X165100D02*
D03*
X167615D02*
D03*
X170104D02*
D03*
D146*
X161620Y55397D02*
D03*
Y97993D02*
D03*
D147*
X165456Y51308D02*
D03*
Y102108D02*
D03*
D148*
X151567Y34047D02*
D03*
D149*
X149067D02*
D03*
Y32047D02*
D03*
X151567D02*
D03*
D150*
X144297Y29337D02*
D03*
X156337D02*
D03*
M02*
