G04*
G04 #@! TF.GenerationSoftware,Altium Limited,Altium Designer,22.2.1 (43)*
G04*
G04 Layer_Color=128*
%FSLAX43Y43*%
%MOMM*%
G71*
G04*
G04 #@! TF.SameCoordinates,D3EB6253-BFD4-4380-A103-C90408D97D60*
G04*
G04*
G04 #@! TF.FilePolarity,Positive*
G04*
G01*
G75*
%ADD18R,0.920X0.980*%
%ADD21R,1.150X1.150*%
%ADD22R,1.730X0.970*%
%ADD24R,0.980X0.920*%
%ADD25R,0.970X1.730*%
G04:AMPARAMS|DCode=26|XSize=1.19mm|YSize=0.4mm|CornerRadius=0.05mm|HoleSize=0mm|Usage=FLASHONLY|Rotation=0.000|XOffset=0mm|YOffset=0mm|HoleType=Round|Shape=RoundedRectangle|*
%AMROUNDEDRECTD26*
21,1,1.190,0.300,0,0,0.0*
21,1,1.090,0.400,0,0,0.0*
1,1,0.100,0.545,-0.150*
1,1,0.100,-0.545,-0.150*
1,1,0.100,-0.545,0.150*
1,1,0.100,0.545,0.150*
%
%ADD26ROUNDEDRECTD26*%
%ADD156R,1.981X0.559*%
G04:AMPARAMS|DCode=157|XSize=1.23mm|YSize=0.6mm|CornerRadius=0.075mm|HoleSize=0mm|Usage=FLASHONLY|Rotation=180.000|XOffset=0mm|YOffset=0mm|HoleType=Round|Shape=RoundedRectangle|*
%AMROUNDEDRECTD157*
21,1,1.230,0.450,0,0,180.0*
21,1,1.080,0.600,0,0,180.0*
1,1,0.150,-0.540,0.225*
1,1,0.150,0.540,0.225*
1,1,0.150,0.540,-0.225*
1,1,0.150,-0.540,-0.225*
%
%ADD157ROUNDEDRECTD157*%
%ADD158R,0.559X1.981*%
%ADD159R,1.060X1.820*%
%ADD160R,2.090X1.390*%
%ADD161O,1.800X0.600*%
%ADD162R,1.800X0.600*%
%ADD163R,0.800X1.500*%
%ADD164R,1.400X1.900*%
%ADD165R,1.300X1.400*%
%ADD166R,0.950X1.000*%
D18*
X107810Y56388D02*
D03*
X109360D02*
D03*
X148857Y125222D02*
D03*
X147307D02*
D03*
X162928Y118110D02*
D03*
X164478D02*
D03*
X117602Y90424D02*
D03*
X119152D02*
D03*
X109588Y90297D02*
D03*
X111138D02*
D03*
X101473D02*
D03*
X103023D02*
D03*
X93459D02*
D03*
X95009D02*
D03*
X85585D02*
D03*
X87135D02*
D03*
X77584D02*
D03*
X79134D02*
D03*
X77584Y82550D02*
D03*
X79134D02*
D03*
X85585D02*
D03*
X87135D02*
D03*
X101473D02*
D03*
X103023D02*
D03*
X109588D02*
D03*
X111138D02*
D03*
X117602D02*
D03*
X119152D02*
D03*
X95009D02*
D03*
X93459D02*
D03*
D21*
X137732Y99441D02*
D03*
X135382D02*
D03*
X137700Y97282D02*
D03*
X135350D02*
D03*
X137700Y95123D02*
D03*
X135350D02*
D03*
X137700Y92964D02*
D03*
X135350D02*
D03*
D22*
X143510Y63075D02*
D03*
Y60115D02*
D03*
X150622Y63075D02*
D03*
Y60115D02*
D03*
X143510Y56979D02*
D03*
Y54019D02*
D03*
X150622Y57062D02*
D03*
Y54102D02*
D03*
X150495Y50839D02*
D03*
Y47879D02*
D03*
X143510Y51010D02*
D03*
Y48050D02*
D03*
Y44787D02*
D03*
Y41827D02*
D03*
X150622Y44660D02*
D03*
Y41700D02*
D03*
X136779Y103803D02*
D03*
Y106763D02*
D03*
X139573Y111169D02*
D03*
Y114129D02*
D03*
X122809Y85134D02*
D03*
Y88094D02*
D03*
X115062Y85007D02*
D03*
Y87967D02*
D03*
X107061Y85007D02*
D03*
Y87967D02*
D03*
X98933Y85007D02*
D03*
Y87967D02*
D03*
X90932Y85007D02*
D03*
Y87967D02*
D03*
X82931Y85051D02*
D03*
Y88011D02*
D03*
Y77260D02*
D03*
Y80220D02*
D03*
X90932Y77133D02*
D03*
Y80093D02*
D03*
X98933Y77133D02*
D03*
Y80093D02*
D03*
X115062Y77260D02*
D03*
Y80220D02*
D03*
X122809Y77133D02*
D03*
Y80093D02*
D03*
X107061Y77260D02*
D03*
Y80220D02*
D03*
D24*
X165735Y47511D02*
D03*
Y45961D02*
D03*
X165227Y42151D02*
D03*
Y43701D02*
D03*
X175260Y43294D02*
D03*
Y44844D02*
D03*
X107569Y70980D02*
D03*
Y72530D02*
D03*
X51562Y94501D02*
D03*
Y92951D02*
D03*
Y106439D02*
D03*
Y104889D02*
D03*
X162687Y124727D02*
D03*
Y123177D02*
D03*
Y121425D02*
D03*
Y119875D02*
D03*
Y113271D02*
D03*
Y114821D02*
D03*
X91948Y65265D02*
D03*
Y66815D02*
D03*
D25*
X172041Y48133D02*
D03*
X169081D02*
D03*
X139236Y106934D02*
D03*
X142196D02*
D03*
X80601Y88011D02*
D03*
X77641D02*
D03*
X93516Y85471D02*
D03*
X96476D02*
D03*
X101517D02*
D03*
X104477D02*
D03*
X120606Y88138D02*
D03*
X117646D02*
D03*
X112605Y88011D02*
D03*
X109645D02*
D03*
X104477D02*
D03*
X101517D02*
D03*
X96476D02*
D03*
X93516D02*
D03*
X88558D02*
D03*
X85598D02*
D03*
Y85471D02*
D03*
X88558D02*
D03*
X77641D02*
D03*
X80601D02*
D03*
X96476Y80264D02*
D03*
X93516D02*
D03*
X88558D02*
D03*
X85598D02*
D03*
X80601D02*
D03*
X77641D02*
D03*
Y77724D02*
D03*
X80601D02*
D03*
X85598Y77597D02*
D03*
X88558D02*
D03*
X93516D02*
D03*
X96476D02*
D03*
X104477Y80264D02*
D03*
X101517D02*
D03*
X112605D02*
D03*
X109645D02*
D03*
X120606D02*
D03*
X117646D02*
D03*
Y77597D02*
D03*
X120606D02*
D03*
X109645Y77724D02*
D03*
X112605D02*
D03*
X104477D02*
D03*
X101517D02*
D03*
X112605Y85471D02*
D03*
X109645D02*
D03*
X120606Y85598D02*
D03*
X117646D02*
D03*
D26*
X160188Y124490D02*
D03*
Y123840D02*
D03*
Y123190D02*
D03*
X158268D02*
D03*
Y124490D02*
D03*
X158212Y115712D02*
D03*
Y114412D02*
D03*
X160132D02*
D03*
Y115062D02*
D03*
Y115712D02*
D03*
X158212Y118633D02*
D03*
Y117333D02*
D03*
X160132D02*
D03*
Y117983D02*
D03*
Y118633D02*
D03*
X158212Y121554D02*
D03*
Y120254D02*
D03*
X160132D02*
D03*
Y120904D02*
D03*
Y121554D02*
D03*
D156*
X168061Y45847D02*
D03*
Y44577D02*
D03*
Y43307D02*
D03*
Y42037D02*
D03*
X172786D02*
D03*
Y43307D02*
D03*
Y44577D02*
D03*
Y45847D02*
D03*
D157*
X148126Y60645D02*
D03*
X146006Y61595D02*
D03*
X148126Y62545D02*
D03*
Y54422D02*
D03*
X146006Y55372D02*
D03*
X148126Y56322D02*
D03*
X148043Y48453D02*
D03*
X145923Y49403D02*
D03*
X148043Y50353D02*
D03*
X148090Y42304D02*
D03*
X145970Y43254D02*
D03*
X148090Y44204D02*
D03*
D158*
X113284Y67894D02*
D03*
X112014D02*
D03*
X110744D02*
D03*
X109474D02*
D03*
Y72822D02*
D03*
X110744D02*
D03*
X112014D02*
D03*
X113284D02*
D03*
X109474Y63932D02*
D03*
X110744D02*
D03*
X112014D02*
D03*
X113284D02*
D03*
Y59004D02*
D03*
X112014D02*
D03*
X110744D02*
D03*
X109474D02*
D03*
D159*
X157103Y88519D02*
D03*
X154047D02*
D03*
X157230Y93726D02*
D03*
X154174D02*
D03*
X157099Y103886D02*
D03*
X154043D02*
D03*
X157230Y98806D02*
D03*
X154174D02*
D03*
D160*
X150666Y103886D02*
D03*
Y101346D02*
D03*
Y98806D02*
D03*
Y96266D02*
D03*
Y93726D02*
D03*
Y91186D02*
D03*
Y88646D02*
D03*
Y86106D02*
D03*
X141586D02*
D03*
Y88646D02*
D03*
Y91186D02*
D03*
Y93726D02*
D03*
Y96266D02*
D03*
Y98806D02*
D03*
Y101346D02*
D03*
Y103886D02*
D03*
D161*
X154051Y123190D02*
D03*
Y121920D02*
D03*
Y120650D02*
D03*
Y119380D02*
D03*
Y118110D02*
D03*
Y116840D02*
D03*
Y115570D02*
D03*
Y114300D02*
D03*
Y113030D02*
D03*
Y111760D02*
D03*
Y110490D02*
D03*
X142351Y123190D02*
D03*
Y121920D02*
D03*
Y120650D02*
D03*
Y119380D02*
D03*
Y118110D02*
D03*
Y116840D02*
D03*
Y115570D02*
D03*
Y114300D02*
D03*
Y113030D02*
D03*
Y111760D02*
D03*
Y110490D02*
D03*
X154051Y109220D02*
D03*
D162*
X142351D02*
D03*
D163*
X109683Y50142D02*
D03*
X110783D02*
D03*
X111883Y50342D02*
D03*
X112983Y50142D02*
D03*
X114083Y50342D02*
D03*
X115183Y50142D02*
D03*
X116283Y49742D02*
D03*
X117383Y50142D02*
D03*
D164*
X108893Y52432D02*
D03*
X122043Y53432D02*
D03*
D165*
X110493Y39282D02*
D03*
X116193D02*
D03*
D166*
X111883Y39082D02*
D03*
M02*
