G04*
G04 #@! TF.GenerationSoftware,Altium Limited,Altium Designer,22.2.1 (43)*
G04*
G04 Layer_Color=128*
%FSLAX43Y43*%
%MOMM*%
G71*
G04*
G04 #@! TF.SameCoordinates,D3EB6253-BFD4-4380-A103-C90408D97D60*
G04*
G04*
G04 #@! TF.FilePolarity,Positive*
G04*
G01*
G75*
%ADD16C,0.051*%
D16*
X82779Y58801D02*
X86893D01*
X84836Y56744D02*
Y60858D01*
X63818Y53340D02*
X65215D01*
X64516Y52641D02*
Y54039D01*
X63818Y58801D02*
X65215D01*
X64516Y58103D02*
Y59500D01*
X63818Y64262D02*
X65215D01*
X64516Y63563D02*
Y64961D01*
X132887Y111373D02*
X134067D01*
X133477Y110783D02*
Y111963D01*
X132887Y109093D02*
X134067D01*
X133477Y108503D02*
Y109683D01*
X132887Y106813D02*
X134067D01*
X133477Y106223D02*
Y107403D01*
X93831Y68072D02*
X94571D01*
X94201Y67702D02*
Y68442D01*
X93831Y70612D02*
X94571D01*
X94201Y70242D02*
Y70982D01*
X93831Y65532D02*
X94571D01*
X94201Y65162D02*
Y65902D01*
X93831Y62992D02*
X94571D01*
X94201Y62622D02*
Y63362D01*
X101771Y62992D02*
X102511D01*
X102141Y62622D02*
Y63362D01*
X101771Y65532D02*
X102511D01*
X102141Y65162D02*
Y65902D01*
X101771Y68072D02*
X102511D01*
X102141Y67702D02*
Y68442D01*
X101771Y70612D02*
X102511D01*
X102141Y70242D02*
Y70982D01*
X55472Y83312D02*
X56542D01*
X56007Y82777D02*
Y83847D01*
X55472Y80772D02*
X56542D01*
X56007Y80237D02*
Y81307D01*
X55472Y78232D02*
X56542D01*
X56007Y77697D02*
Y78767D01*
X55599Y94742D02*
X56669D01*
X56134Y94207D02*
Y95277D01*
X55599Y92202D02*
X56669D01*
X56134Y91667D02*
Y92737D01*
X55599Y89662D02*
X56669D01*
X56134Y89127D02*
Y90197D01*
X48400Y97917D02*
X49390D01*
X48895Y97422D02*
Y98412D01*
X48400Y95377D02*
X49390D01*
X48895Y94882D02*
Y95872D01*
X48400Y92837D02*
X49390D01*
X48895Y92342D02*
Y93332D01*
X48400Y90297D02*
X49390D01*
X48895Y89802D02*
Y90792D01*
X40780Y90297D02*
X41770D01*
X41275Y89802D02*
Y90792D01*
X40780Y92837D02*
X41770D01*
X41275Y92342D02*
Y93332D01*
X40780Y95377D02*
X41770D01*
X41275Y94882D02*
Y95872D01*
X40780Y97917D02*
X41770D01*
X41275Y97422D02*
Y98412D01*
X48273Y109982D02*
X49263D01*
X48768Y109487D02*
Y110477D01*
X48273Y107442D02*
X49263D01*
X48768Y106947D02*
Y107937D01*
X48273Y104902D02*
X49263D01*
X48768Y104407D02*
Y105397D01*
X48273Y102362D02*
X49263D01*
X48768Y101867D02*
Y102857D01*
X40653Y102362D02*
X41643D01*
X41148Y101867D02*
Y102857D01*
X40653Y104902D02*
X41643D01*
X41148Y104407D02*
Y105397D01*
X40653Y107442D02*
X41643D01*
X41148Y106947D02*
Y107937D01*
X40653Y109982D02*
X41643D01*
X41148Y109487D02*
Y110477D01*
X76039Y109601D02*
X76789D01*
X76414Y109226D02*
Y109976D01*
X71039Y109601D02*
X71789D01*
X71414Y109226D02*
Y109976D01*
X62408Y122047D02*
X63708D01*
X63058Y121397D02*
Y122697D01*
X52878Y122047D02*
X54178D01*
X53528Y121397D02*
Y122697D01*
X31319Y83434D02*
X32689D01*
X32004Y82749D02*
Y84119D01*
X31319Y80899D02*
X32689D01*
X32004Y80214D02*
Y81584D01*
X31319Y78364D02*
X32689D01*
X32004Y77679D02*
Y79049D01*
X31192Y96259D02*
X32562D01*
X31877Y95574D02*
Y96944D01*
X31192Y93724D02*
X32562D01*
X31877Y93039D02*
Y94409D01*
X31192Y91189D02*
X32562D01*
X31877Y90504D02*
Y91874D01*
X31192Y109085D02*
X32562D01*
X31877Y108400D02*
Y109770D01*
X31192Y106550D02*
X32562D01*
X31877Y105865D02*
Y107235D01*
X31192Y104015D02*
X32562D01*
X31877Y103330D02*
Y104700D01*
X31192Y121910D02*
X32562D01*
X31877Y121225D02*
Y122595D01*
X31192Y119375D02*
X32562D01*
X31877Y118690D02*
Y120060D01*
X31192Y116840D02*
X32562D01*
X31877Y116155D02*
Y117525D01*
X101644Y59690D02*
X102384D01*
X102014Y59320D02*
Y60060D01*
X101644Y57150D02*
X102384D01*
X102014Y56780D02*
Y57520D01*
X101644Y54610D02*
X102384D01*
X102014Y54240D02*
Y54980D01*
X101644Y52070D02*
X102384D01*
X102014Y51700D02*
Y52440D01*
X93704Y52070D02*
X94444D01*
X94074Y51700D02*
Y52440D01*
X93704Y54610D02*
X94444D01*
X94074Y54240D02*
Y54980D01*
X93704Y59690D02*
X94444D01*
X94074Y59320D02*
Y60060D01*
X93704Y57150D02*
X94444D01*
X94074Y56780D02*
Y57520D01*
X93704Y46228D02*
X94444D01*
X94074Y45858D02*
Y46598D01*
X93704Y48768D02*
X94444D01*
X94074Y48398D02*
Y49138D01*
X93704Y43688D02*
X94444D01*
X94074Y43318D02*
Y44058D01*
X93704Y41148D02*
X94444D01*
X94074Y40778D02*
Y41518D01*
X101644Y41148D02*
X102384D01*
X102014Y40778D02*
Y41518D01*
X101644Y43688D02*
X102384D01*
X102014Y43318D02*
Y44058D01*
X101644Y46228D02*
X102384D01*
X102014Y45858D02*
Y46598D01*
X101644Y48768D02*
X102384D01*
X102014Y48398D02*
Y49138D01*
X93831Y35306D02*
X94571D01*
X94201Y34936D02*
Y35676D01*
X93831Y37846D02*
X94571D01*
X94201Y37476D02*
Y38216D01*
X93831Y32766D02*
X94571D01*
X94201Y32396D02*
Y33136D01*
X93831Y30226D02*
X94571D01*
X94201Y29856D02*
Y30596D01*
X101771Y30226D02*
X102511D01*
X102141Y29856D02*
Y30596D01*
X101771Y32766D02*
X102511D01*
X102141Y32396D02*
Y33136D01*
X101771Y35306D02*
X102511D01*
X102141Y34936D02*
Y35676D01*
X101771Y37846D02*
X102511D01*
X102141Y37476D02*
Y38216D01*
X136259Y29845D02*
X137299D01*
X136779Y29325D02*
Y30365D01*
X133719Y29845D02*
X134759D01*
X134239Y29325D02*
Y30365D01*
X131179Y29845D02*
X132219D01*
X131699Y29325D02*
Y30365D01*
X128639Y29845D02*
X129679D01*
X129159Y29325D02*
Y30365D01*
X161963Y61849D02*
X163258D01*
X162611Y61201D02*
Y62497D01*
X164452Y61849D02*
X165748D01*
X165100Y61201D02*
Y62497D01*
X166967Y61849D02*
X168262D01*
X167615Y61201D02*
Y62497D01*
X169456Y61849D02*
X170751D01*
X170104Y61201D02*
Y62497D01*
X161963Y64338D02*
X163258D01*
X162611Y63690D02*
Y64986D01*
X164452Y64338D02*
X165748D01*
X165100Y63690D02*
Y64986D01*
X166967Y64338D02*
X168262D01*
X167615Y63690D02*
Y64986D01*
X169456Y64338D02*
X170751D01*
X170104Y63690D02*
Y64986D01*
X161963Y66853D02*
X163258D01*
X162611Y66205D02*
Y67501D01*
X164452Y66853D02*
X165748D01*
X165100Y66205D02*
Y67501D01*
X166967Y66853D02*
X168262D01*
X167615Y66205D02*
Y67501D01*
X169456Y66853D02*
X170751D01*
X170104Y66205D02*
Y67501D01*
X161963Y69342D02*
X163258D01*
X162611Y68694D02*
Y69990D01*
X164452Y69342D02*
X165748D01*
X165100Y68694D02*
Y69990D01*
X166967Y69342D02*
X168262D01*
X167615Y68694D02*
Y69990D01*
X169456Y69342D02*
X170751D01*
X170104Y68694D02*
Y69990D01*
X161963Y71857D02*
X163258D01*
X162611Y71209D02*
Y72504D01*
X164452Y71857D02*
X165748D01*
X165100Y71209D02*
Y72504D01*
X166967Y71857D02*
X168262D01*
X167615Y71209D02*
Y72504D01*
X169456Y71857D02*
X170751D01*
X170104Y71209D02*
Y72504D01*
X161963Y74346D02*
X163258D01*
X162611Y73698D02*
Y74993D01*
X164452Y74346D02*
X165748D01*
X165100Y73698D02*
Y74993D01*
X166967Y74346D02*
X168262D01*
X167615Y73698D02*
Y74993D01*
X169456Y74346D02*
X170751D01*
X170104Y73698D02*
Y74993D01*
X161963Y76860D02*
X163258D01*
X162611Y76213D02*
Y77508D01*
X164452Y76860D02*
X165748D01*
X165100Y76213D02*
Y77508D01*
X166967Y76860D02*
X168262D01*
X167615Y76213D02*
Y77508D01*
X169456Y76860D02*
X170751D01*
X170104Y76213D02*
Y77508D01*
X161963Y79350D02*
X163258D01*
X162611Y78702D02*
Y79997D01*
X164452Y79350D02*
X165748D01*
X165100Y78702D02*
Y79997D01*
X166967Y79350D02*
X168262D01*
X167615Y78702D02*
Y79997D01*
X169456Y79350D02*
X170751D01*
X170104Y78702D02*
Y79997D01*
X161963Y81839D02*
X163258D01*
X162611Y81191D02*
Y82487D01*
X164452Y81839D02*
X165748D01*
X165100Y81191D02*
Y82487D01*
X166967Y81839D02*
X168262D01*
X167615Y81191D02*
Y82487D01*
X169456Y81839D02*
X170751D01*
X170104Y81191D02*
Y82487D01*
X161963Y84353D02*
X163258D01*
X162611Y83706D02*
Y85001D01*
X164452Y84353D02*
X165748D01*
X165100Y83706D02*
Y85001D01*
X166967Y84353D02*
X168262D01*
X167615Y83706D02*
Y85001D01*
X169456Y84353D02*
X170751D01*
X170104Y83706D02*
Y85001D01*
X161963Y87859D02*
X163258D01*
X162611Y87211D02*
Y88506D01*
X164452Y87859D02*
X165748D01*
X165100Y87211D02*
Y88506D01*
X166967Y87859D02*
X168262D01*
X167615Y87211D02*
Y88506D01*
X169456Y87859D02*
X170751D01*
X170104Y87211D02*
Y88506D01*
X161963Y91542D02*
X163258D01*
X162611Y90894D02*
Y92189D01*
X164452Y91542D02*
X165748D01*
X165100Y90894D02*
Y92189D01*
X166967Y91542D02*
X168262D01*
X167615Y90894D02*
Y92189D01*
X169456Y91542D02*
X170751D01*
X170104Y90894D02*
Y92189D01*
X160464Y55397D02*
X162776D01*
X161620Y54242D02*
Y56553D01*
X160464Y97993D02*
X162776D01*
X161620Y96838D02*
Y99149D01*
X163411Y51308D02*
X167500D01*
X165456Y49263D02*
Y53353D01*
X163411Y102108D02*
X167500D01*
X165456Y100063D02*
Y104153D01*
X82779Y42418D02*
X86893D01*
X84836Y40361D02*
Y44475D01*
X63818Y36957D02*
X65215D01*
X64516Y36258D02*
Y37655D01*
X63818Y42418D02*
X65215D01*
X64516Y41720D02*
Y43117D01*
X63818Y47879D02*
X65215D01*
X64516Y47181D02*
Y48577D01*
X50140Y58801D02*
X54254D01*
X52197Y56744D02*
Y60858D01*
X31178Y53340D02*
X32576D01*
X31877Y52641D02*
Y54039D01*
X31178Y58801D02*
X32576D01*
X31877Y58103D02*
Y59500D01*
X31178Y64262D02*
X32576D01*
X31877Y63563D02*
Y64961D01*
X151107Y34047D02*
X152027D01*
X151567Y33587D02*
Y34507D01*
X148607Y34047D02*
X149527D01*
X149067Y33587D02*
Y34507D01*
X148607Y32047D02*
X149527D01*
X149067Y31587D02*
Y32507D01*
X151107Y32047D02*
X152027D01*
X151567Y31587D02*
Y32507D01*
X143132Y29337D02*
X145462D01*
X144297Y28172D02*
Y30502D01*
X155172Y29337D02*
X157502D01*
X156337Y28172D02*
Y30502D01*
X31178Y47879D02*
X32576D01*
X31877Y47181D02*
Y48577D01*
X31178Y42418D02*
X32576D01*
X31877Y41720D02*
Y43117D01*
X31178Y36957D02*
X32576D01*
X31877Y36258D02*
Y37655D01*
X50140Y42418D02*
X54254D01*
X52197Y40361D02*
Y44475D01*
X109832Y47625D02*
X110132D01*
X109982Y47475D02*
Y47775D01*
X110721Y48387D02*
X111021D01*
X110871Y48237D02*
Y48537D01*
X135613Y48387D02*
X135913D01*
X135763Y48237D02*
Y48537D01*
X137264Y47879D02*
X137564D01*
X137414Y47729D02*
Y48029D01*
X128882Y45593D02*
X129182D01*
X129032Y45443D02*
Y45743D01*
X128247Y50165D02*
X128547D01*
X128397Y50015D02*
Y50315D01*
X133073Y53467D02*
X133373D01*
X133223Y53317D02*
Y53617D01*
X134343Y53975D02*
X134643D01*
X134493Y53825D02*
Y54125D01*
X133454Y55245D02*
X133754D01*
X133604Y55095D02*
Y55395D01*
X100434Y52705D02*
X100734D01*
X100584Y52555D02*
Y52855D01*
X96370Y53340D02*
X96670D01*
X96520Y53190D02*
Y53490D01*
X97513Y52902D02*
X97813D01*
X97663Y52752D02*
Y53052D01*
X99291Y52113D02*
X99591D01*
X99441Y51963D02*
Y52263D01*
X103863Y93218D02*
X104163D01*
X104013Y93068D02*
Y93368D01*
X102720Y93345D02*
X103020D01*
X102870Y93195D02*
Y93495D01*
X102466Y94488D02*
X102766D01*
X102616Y94338D02*
Y94638D01*
X102720Y96012D02*
X103020D01*
X102870Y95862D02*
Y96162D01*
X95055Y95253D02*
X95355D01*
X95205Y95103D02*
Y95403D01*
X113134Y83693D02*
X113434D01*
X113284Y83543D02*
Y83843D01*
X127993Y75184D02*
X128293D01*
X128143Y75034D02*
Y75334D01*
X122659Y78359D02*
X122959D01*
X122809Y78209D02*
Y78509D01*
X122786Y75946D02*
X123086D01*
X122936Y75796D02*
Y76096D01*
X124056Y77089D02*
X124356D01*
X124206Y76939D02*
Y77239D01*
X124056Y75819D02*
X124356D01*
X124206Y75669D02*
Y75969D01*
X120246Y71882D02*
X120546D01*
X120396Y71732D02*
Y72032D01*
X119484Y66040D02*
X119784D01*
X119634Y65890D02*
Y66190D01*
X118341Y67818D02*
X118641D01*
X118491Y67668D02*
Y67968D01*
X116690Y70104D02*
X116990D01*
X116840Y69954D02*
Y70254D01*
X116690Y67818D02*
X116990D01*
X116840Y67668D02*
Y67968D01*
X128628Y68199D02*
X128928D01*
X128778Y68049D02*
Y68349D01*
X124945Y70739D02*
X125245D01*
X125095Y70589D02*
Y70889D01*
X118976Y70866D02*
X119276D01*
X119126Y70716D02*
Y71016D01*
X160759Y64262D02*
X161059D01*
X160909Y64112D02*
Y64412D01*
X142344Y58420D02*
X142644D01*
X142494Y58270D02*
Y58570D01*
X141074Y59563D02*
X141374D01*
X141224Y59413D02*
Y59713D01*
X141709Y52197D02*
X142009D01*
X141859Y52047D02*
Y52347D01*
X141074Y52959D02*
X141374D01*
X141224Y52809D02*
Y53109D01*
X144757Y57531D02*
X145057D01*
X144907Y57381D02*
Y57681D01*
X129771Y66294D02*
X130071D01*
X129921Y66144D02*
Y66444D01*
X129517Y67183D02*
X129817D01*
X129667Y67033D02*
Y67333D01*
X127358Y65659D02*
X127658D01*
X127508Y65509D02*
Y65809D01*
X126596Y65024D02*
X126896D01*
X126746Y64874D02*
Y65174D01*
X127993Y66421D02*
X128293D01*
X128143Y66271D02*
Y66571D01*
X127612Y63627D02*
X127912D01*
X127762Y63477D02*
Y63777D01*
X128501Y63627D02*
X128801D01*
X128651Y63477D02*
Y63777D01*
X126723Y63627D02*
X127023D01*
X126873Y63477D02*
Y63777D01*
X121643Y70358D02*
X121943D01*
X121793Y70208D02*
Y70508D01*
X121643Y67564D02*
X121943D01*
X121793Y67414D02*
Y67714D01*
X125580Y63627D02*
X125880D01*
X125730Y63477D02*
Y63777D01*
X143614Y69215D02*
X143914D01*
X143764Y69065D02*
Y69365D01*
X141328Y67056D02*
X141628D01*
X141478Y66906D02*
Y67206D01*
X141455Y68961D02*
X141755D01*
X141605Y68811D02*
Y69111D01*
X136883Y68707D02*
X137183D01*
X137033Y68557D02*
Y68857D01*
X142598Y69215D02*
X142898D01*
X142748Y69065D02*
Y69365D01*
X144376Y68834D02*
X144676D01*
X144526Y68684D02*
Y68984D01*
X135486Y66802D02*
X135786D01*
X135636Y66652D02*
Y66952D01*
X132311Y65278D02*
X132611D01*
X132461Y65128D02*
Y65428D01*
X135105Y69215D02*
X135405D01*
X135255Y69065D02*
Y69365D01*
X133073Y67945D02*
X133373D01*
X133223Y67795D02*
Y68095D01*
X119103Y73533D02*
X119403D01*
X119253Y73383D02*
Y73683D01*
X125199Y72136D02*
X125499D01*
X125349Y71986D02*
Y72286D01*
X130406Y69723D02*
X130706D01*
X130556Y69573D02*
Y69873D01*
X131295Y69723D02*
X131595D01*
X131445Y69573D02*
Y69873D01*
X131295Y52070D02*
X131595D01*
X131445Y51920D02*
Y52220D01*
X141074Y65786D02*
X141374D01*
X141224Y65636D02*
Y65936D01*
X142217Y65151D02*
X142517D01*
X142367Y65001D02*
Y65301D01*
X125199Y75184D02*
X125499D01*
X125349Y75034D02*
Y75334D01*
X125580Y73914D02*
X125880D01*
X125730Y73764D02*
Y74064D01*
X134668Y78049D02*
X134968D01*
X134818Y77899D02*
Y78199D01*
X129263Y78232D02*
X129563D01*
X129413Y78082D02*
Y78382D01*
X132946Y69342D02*
X133246D01*
X133096Y69192D02*
Y69492D01*
X134089Y69342D02*
X134389D01*
X134239Y69192D02*
Y69492D01*
X126342Y66167D02*
X126642D01*
X126492Y66017D02*
Y66317D01*
X121643Y66040D02*
X121943D01*
X121793Y65890D02*
Y66190D01*
X132057Y59690D02*
X132357D01*
X132207Y59540D02*
Y59840D01*
X133962Y66167D02*
X134262D01*
X134112Y66017D02*
Y66317D01*
X127104Y67564D02*
X127404D01*
X127254Y67414D02*
Y67714D01*
X134343Y64389D02*
X134643D01*
X134493Y64239D02*
Y64539D01*
X56166Y50673D02*
X60166D01*
X58166Y48673D02*
Y52673D01*
X39551Y115824D02*
X39951D01*
X39751Y115624D02*
Y116024D01*
X40291Y121158D02*
X44291D01*
X42291Y119158D02*
Y123158D01*
X171482Y121158D02*
X175482D01*
X173482Y119158D02*
Y123158D01*
X171609Y30607D02*
X175609D01*
X173609Y28607D02*
Y32607D01*
X54079Y87376D02*
X54379D01*
X54229Y87226D02*
Y87526D01*
X53825Y82042D02*
X54125D01*
X53975Y81892D02*
Y82192D01*
X117071Y66167D02*
X117371D01*
X117221Y66017D02*
Y66317D01*
X107419Y73787D02*
X107719D01*
X107569Y73637D02*
Y73937D01*
X132311Y74549D02*
X132611D01*
X132461Y74399D02*
Y74699D01*
X129390Y83058D02*
X129690D01*
X129540Y82908D02*
Y83208D01*
X131930Y79121D02*
X132230D01*
X132080Y78971D02*
Y79271D01*
X134724Y74168D02*
X135024D01*
X134874Y74018D02*
Y74318D01*
X135994Y83312D02*
X136294D01*
X136144Y83162D02*
Y83462D01*
X134216Y82931D02*
X134516D01*
X134366Y82781D02*
Y83081D01*
X142725Y79121D02*
X143025D01*
X142875Y78971D02*
Y79271D01*
X63350Y85471D02*
X63650D01*
X63500Y85321D02*
Y85621D01*
X64366Y77216D02*
X64666D01*
X64516Y77066D02*
Y77366D01*
X69065Y77216D02*
X69365D01*
X69215Y77066D02*
Y77366D01*
X98402Y62865D02*
X98702D01*
X98552Y62715D02*
Y63015D01*
X132692Y40259D02*
X132992D01*
X132842Y40109D02*
Y40409D01*
X123548Y36068D02*
X123848D01*
X123698Y35918D02*
Y36218D01*
X121897Y35941D02*
X122197D01*
X122047Y35791D02*
Y36091D01*
X139804Y40894D02*
X140104D01*
X139954Y40744D02*
Y41044D01*
X145646Y42037D02*
X145946D01*
X145796Y41887D02*
Y42187D01*
X156695Y66929D02*
X156995D01*
X156845Y66779D02*
Y67079D01*
X155806Y63119D02*
X156106D01*
X155956Y62969D02*
Y63269D01*
X81257Y75692D02*
X81557D01*
X81407Y75542D02*
Y75842D01*
X140439Y39624D02*
X140739D01*
X140589Y39474D02*
Y39774D01*
X145644Y41077D02*
X145944D01*
X145794Y40927D02*
Y41227D01*
X55730Y75311D02*
X56030D01*
X55880Y75161D02*
Y75461D01*
X145900Y101473D02*
X146200D01*
X146050Y101323D02*
Y101623D01*
X115129Y89662D02*
X115429D01*
X115279Y89512D02*
Y89812D01*
X118976Y77597D02*
X119276D01*
X119126Y77447D02*
Y77747D01*
X126596Y85344D02*
X126896D01*
X126746Y85194D02*
Y85494D01*
X126609Y81166D02*
X126909D01*
X126759Y81016D02*
Y81316D01*
X119611Y46101D02*
X119911D01*
X119761Y45951D02*
Y46251D01*
X126723Y43688D02*
X127023D01*
X126873Y43538D02*
Y43838D01*
X121516Y58547D02*
X121816D01*
X121666Y58397D02*
Y58697D01*
X110848Y55626D02*
X111148D01*
X110998Y55476D02*
Y55776D01*
X175110Y46101D02*
X175410D01*
X175260Y45951D02*
Y46251D01*
X171046Y44577D02*
X171346D01*
X171196Y44427D02*
Y44727D01*
X171935Y49784D02*
X172235D01*
X172085Y49634D02*
Y49934D01*
X164315Y47498D02*
X164615D01*
X164465Y47348D02*
Y47648D01*
X163807Y43688D02*
X164107D01*
X163957Y43538D02*
Y43838D01*
X145265Y45212D02*
X145565D01*
X145415Y45062D02*
Y45362D01*
X59159Y97282D02*
X59459D01*
X59309Y97132D02*
Y97432D01*
X133454Y86741D02*
X133754D01*
X133604Y86591D02*
Y86891D01*
X152504Y79248D02*
X152804D01*
X152654Y79098D02*
Y79398D01*
X62842Y93472D02*
X63142D01*
X62992Y93322D02*
Y93622D01*
X74907Y89281D02*
X75207D01*
X75057Y89131D02*
Y89431D01*
X143233Y73660D02*
X143533D01*
X143383Y73510D02*
Y73810D01*
X140820Y77597D02*
X141120D01*
X140970Y77447D02*
Y77747D01*
X156441Y83947D02*
X156741D01*
X156591Y83797D02*
Y84097D01*
X140693Y78486D02*
X140993D01*
X140843Y78336D02*
Y78636D01*
X143995Y86868D02*
X144295D01*
X144145Y86718D02*
Y87018D01*
X144884Y87122D02*
X145184D01*
X145034Y86972D02*
Y87272D01*
X145773Y87757D02*
X146073D01*
X145923Y87607D02*
Y87907D01*
X142217Y82042D02*
X142517D01*
X142367Y81892D02*
Y82192D01*
X142471Y81153D02*
X142771D01*
X142621Y81003D02*
Y81303D01*
X142725Y80137D02*
X143025D01*
X142875Y79987D02*
Y80287D01*
X136121Y78613D02*
X136421D01*
X136271Y78463D02*
Y78763D01*
X53825Y104521D02*
X54125D01*
X53975Y104371D02*
Y104671D01*
X138026Y88646D02*
X138326D01*
X138176Y88496D02*
Y88796D01*
X139169Y104775D02*
X139469D01*
X139319Y104625D02*
Y104925D01*
X146281Y113030D02*
X146581D01*
X146431Y112880D02*
Y113180D01*
X158219Y106807D02*
X158519D01*
X158369Y106657D02*
Y106957D01*
X159362Y106045D02*
X159662D01*
X159512Y105895D02*
Y106195D01*
X152200Y111887D02*
X152600D01*
X152400Y111687D02*
Y112087D01*
X152200Y110490D02*
X152600D01*
X152400Y110290D02*
Y110690D01*
X173967Y80645D02*
X174267D01*
X174117Y80495D02*
Y80795D01*
X173967Y78105D02*
X174267D01*
X174117Y77955D02*
Y78255D01*
X173840Y75565D02*
X174140D01*
X173990Y75415D02*
Y75715D01*
X155425Y82296D02*
X155725D01*
X155575Y82146D02*
Y82446D01*
X153012Y83312D02*
X153312D01*
X153162Y83162D02*
Y83462D01*
X157584Y72009D02*
X157884D01*
X157734Y71859D02*
Y72159D01*
X157711Y67437D02*
X158011D01*
X157861Y67287D02*
Y67587D01*
X158696Y66706D02*
X158996D01*
X158846Y66556D02*
Y66856D01*
X118345Y116078D02*
X119145D01*
X118745Y115678D02*
Y116478D01*
X161394Y122936D02*
X161694D01*
X161544Y122786D02*
Y123086D01*
X161394Y119761D02*
X161694D01*
X161544Y119611D02*
Y119911D01*
X155806Y117729D02*
X156106D01*
X155956Y117579D02*
Y117879D01*
X166093Y119634D02*
X166393D01*
X166243Y119484D02*
Y119784D01*
X134978Y85344D02*
X135278D01*
X135128Y85194D02*
Y85494D01*
X135867Y81915D02*
X136167D01*
X136017Y81765D02*
Y82065D01*
X113642Y52959D02*
X113942D01*
X113792Y52809D02*
Y53109D01*
X112753Y56261D02*
X113053D01*
X112903Y56111D02*
Y56411D01*
X112753Y51816D02*
X113053D01*
X112903Y51666D02*
Y51966D01*
X97894Y47625D02*
X98194D01*
X98044Y47475D02*
Y47775D01*
X106403Y54483D02*
X106703D01*
X106553Y54333D02*
Y54633D01*
X106784Y51308D02*
X107084D01*
X106934Y51158D02*
Y51458D01*
X105006Y42926D02*
X105306D01*
X105156Y42776D02*
Y43076D01*
X104879Y72200D02*
X105179D01*
X105029Y72050D02*
Y72350D01*
X158346Y43307D02*
X158646D01*
X158496Y43157D02*
Y43457D01*
X166347Y42037D02*
X166647D01*
X166497Y41887D02*
Y42187D01*
X154663Y49784D02*
X154963D01*
X154813Y49634D02*
Y49934D01*
X154790Y48514D02*
X155090D01*
X154940Y48364D02*
Y48664D01*
X136883Y59817D02*
X137183D01*
X137033Y59667D02*
Y59967D01*
X175560Y61272D02*
X175860D01*
X175710Y61122D02*
Y61422D01*
X167236Y59436D02*
X167536D01*
X167386Y59286D02*
Y59586D01*
X155171Y78105D02*
X155471D01*
X155321Y77955D02*
Y78255D01*
X158346Y80645D02*
X158646D01*
X158496Y80495D02*
Y80795D01*
X175872Y86360D02*
X176172D01*
X176022Y86210D02*
Y86510D01*
X115928Y72517D02*
X116228D01*
X116078Y72367D02*
Y72667D01*
X115039Y68453D02*
X115339D01*
X115189Y68303D02*
Y68603D01*
X126596Y69977D02*
X126896D01*
X126746Y69827D02*
Y70127D01*
X145519Y111760D02*
X145819D01*
X145669Y111610D02*
Y111910D01*
X153520Y86106D02*
X153820D01*
X153670Y85956D02*
Y86256D01*
X139169Y94615D02*
X139469D01*
X139319Y94465D02*
Y94765D01*
X139169Y97663D02*
X139469D01*
X139319Y97513D02*
Y97813D01*
X137518Y101600D02*
X137818D01*
X137668Y101450D02*
Y101750D01*
X140439Y67691D02*
X140739D01*
X140589Y67541D02*
Y67841D01*
X150472Y58674D02*
X150772D01*
X150622Y58524D02*
Y58824D01*
X145773Y46355D02*
X146073D01*
X145923Y46205D02*
Y46505D01*
X146789Y52197D02*
X147089D01*
X146939Y52047D02*
Y52347D01*
X145011Y40132D02*
X145311D01*
X145161Y39982D02*
Y40282D01*
X144503Y38735D02*
X144803D01*
X144653Y38585D02*
Y38885D01*
X134978Y28067D02*
X135278D01*
X135128Y27917D02*
Y28217D01*
X82961Y28853D02*
X83361D01*
X83161Y28653D02*
Y29053D01*
X50346Y30353D02*
X50746D01*
X50546Y30153D02*
Y30553D01*
X129771Y50800D02*
X130071D01*
X129921Y50650D02*
Y50950D01*
X51158Y74168D02*
X51458D01*
X51308Y74018D02*
Y74318D01*
X28044Y35560D02*
X28344D01*
X28194Y35410D02*
Y35710D01*
X58143Y26924D02*
X58443D01*
X58293Y26774D02*
Y27074D01*
X150726Y69723D02*
X151026D01*
X150876Y69573D02*
Y69873D01*
X39728Y113157D02*
X40028D01*
X39878Y113007D02*
Y113307D01*
X66144Y104394D02*
X66444D01*
X66294Y104244D02*
Y104544D01*
X64620Y100838D02*
X64920D01*
X64770Y100688D02*
Y100988D01*
X66652Y101219D02*
X66952D01*
X66802Y101069D02*
Y101369D01*
X120754Y90424D02*
X121054D01*
X120904Y90274D02*
Y90574D01*
X127485Y82296D02*
X127785D01*
X127635Y82146D02*
Y82446D01*
X146916Y80391D02*
X147216D01*
X147066Y80241D02*
Y80541D01*
X146027Y80899D02*
X146327D01*
X146177Y80749D02*
Y81049D01*
X142217Y66421D02*
X142517D01*
X142367Y66271D02*
Y66571D01*
X133073Y74041D02*
X133373D01*
X133223Y73891D02*
Y74191D01*
X133835Y74422D02*
X134135D01*
X133985Y74272D02*
Y74572D01*
X139677Y82296D02*
X139977D01*
X139827Y82146D02*
Y82446D01*
X132819Y45212D02*
X133119D01*
X132969Y45062D02*
Y45362D01*
X128374Y52832D02*
X128674D01*
X128524Y52682D02*
Y52982D01*
X129009Y51943D02*
X129309D01*
X129159Y51793D02*
Y52093D01*
X136248Y65151D02*
X136548D01*
X136398Y65001D02*
Y65301D01*
X135867Y65913D02*
X136167D01*
X136017Y65763D02*
Y66063D01*
X135867Y63627D02*
X136167D01*
X136017Y63477D02*
Y63777D01*
X123040Y59563D02*
X123340D01*
X123190Y59413D02*
Y59713D01*
X124786Y54070D02*
X125086D01*
X124936Y53920D02*
Y54220D01*
X109451Y78994D02*
X109751D01*
X109601Y78844D02*
Y79144D01*
X77574Y86741D02*
X77874D01*
X77724Y86591D02*
Y86891D01*
X77574Y78994D02*
X77874D01*
X77724Y78844D02*
Y79144D01*
X85448Y78994D02*
X85748D01*
X85598Y78844D02*
Y79144D01*
X101450Y78994D02*
X101750D01*
X101600Y78844D02*
Y79144D01*
X93322Y78994D02*
X93622D01*
X93472Y78844D02*
Y79144D01*
X85448Y86741D02*
X85748D01*
X85598Y86591D02*
Y86891D01*
X93449Y86741D02*
X93749D01*
X93599Y86591D02*
Y86891D01*
X101450Y86741D02*
X101750D01*
X101600Y86591D02*
Y86891D01*
X109451Y86741D02*
X109751D01*
X109601Y86591D02*
Y86891D01*
X117452Y86868D02*
X117752D01*
X117602Y86718D02*
Y87018D01*
X117452Y78994D02*
X117752D01*
X117602Y78844D02*
Y79144D01*
X118722Y75057D02*
X119022D01*
X118872Y74907D02*
Y75207D01*
X115293Y69469D02*
X115593D01*
X115443Y69319D02*
Y69619D01*
X121643Y68961D02*
X121943D01*
X121793Y68811D02*
Y69111D01*
X118468Y66040D02*
X118768D01*
X118618Y65890D02*
Y66190D01*
X121389Y64770D02*
X121689D01*
X121539Y64620D02*
Y64920D01*
X117833Y72644D02*
X118133D01*
X117983Y72494D02*
Y72794D01*
X107800Y57912D02*
X108100D01*
X107950Y57762D02*
Y58062D01*
X105641Y58420D02*
X105941D01*
X105791Y58270D02*
Y58570D01*
X115039Y52070D02*
X115339D01*
X115189Y51920D02*
Y52220D01*
X115039Y45974D02*
X115339D01*
X115189Y45824D02*
Y46124D01*
X146916Y58293D02*
X147216D01*
X147066Y58143D02*
Y58443D01*
X125453Y64897D02*
X125753D01*
X125603Y64747D02*
Y65047D01*
X125199Y62865D02*
X125499D01*
X125349Y62715D02*
Y63015D01*
X133454Y63754D02*
X133754D01*
X133604Y63604D02*
Y63904D01*
X133835Y62865D02*
X134135D01*
X133985Y62715D02*
Y63015D01*
X137137Y62611D02*
X137437D01*
X137287Y62461D02*
Y62761D01*
X136502Y64262D02*
X136802D01*
X136652Y64112D02*
Y64412D01*
X157444Y42177D02*
X157744D01*
X157594Y42027D02*
Y42327D01*
X78209Y94869D02*
X78509D01*
X78359Y94719D02*
Y95019D01*
X70208Y81026D02*
X70508D01*
X70358Y80876D02*
Y81176D01*
X73129Y83566D02*
X73429D01*
X73279Y83416D02*
Y83716D01*
X65763Y79121D02*
X66063D01*
X65913Y78971D02*
Y79271D01*
X66525Y82169D02*
X66825D01*
X66675Y82019D02*
Y82319D01*
X65255Y82550D02*
X65555D01*
X65405Y82400D02*
Y82700D01*
X62334Y89535D02*
X62634D01*
X62484Y89385D02*
Y89685D01*
X63731Y92583D02*
X64031D01*
X63881Y92433D02*
Y92733D01*
X63323Y81026D02*
X63623D01*
X63473Y80876D02*
Y81176D01*
X58270Y81788D02*
X58570D01*
X58420Y81638D02*
Y81938D01*
X58270Y84709D02*
X58570D01*
X58420Y84559D02*
Y84859D01*
X58285Y91074D02*
X58585D01*
X58435Y90924D02*
Y91224D01*
X58270Y88011D02*
X58570D01*
X58420Y87861D02*
Y88161D01*
X69192Y75692D02*
X69492D01*
X69342Y75542D02*
Y75842D01*
X59032Y75692D02*
X59332D01*
X59182Y75542D02*
Y75842D01*
X60048Y39243D02*
X60348D01*
X60198Y39093D02*
Y39393D01*
X43792Y81280D02*
X44092D01*
X43942Y81130D02*
Y81430D01*
X43792Y84074D02*
X44092D01*
X43942Y83924D02*
Y84224D01*
X139173Y109220D02*
X139973D01*
X139573Y108820D02*
Y109620D01*
X144757Y115570D02*
X145057D01*
X144907Y115420D02*
Y115720D01*
X145265Y120650D02*
X145565D01*
X145415Y120500D02*
Y120800D01*
X145265Y121920D02*
X145565D01*
X145415Y121770D02*
Y122070D01*
X174475Y113792D02*
X174775D01*
X174625Y113642D02*
Y113942D01*
X167617Y116078D02*
X167917D01*
X167767Y115928D02*
Y116228D01*
X151869Y119380D02*
X152169D01*
X152019Y119230D02*
Y119530D01*
X151869Y120650D02*
X152169D01*
X152019Y120500D02*
Y120800D01*
X151869Y121920D02*
X152169D01*
X152019Y121770D02*
Y122070D01*
X151869Y123190D02*
X152169D01*
X152019Y123040D02*
Y123340D01*
X159870Y112776D02*
X160170D01*
X160020Y112626D02*
Y112926D01*
X156822Y117602D02*
X157122D01*
X156972Y117452D02*
Y117752D01*
X156822Y120269D02*
X157122D01*
X156972Y120119D02*
Y120419D01*
X156822Y122809D02*
X157122D01*
X156972Y122659D02*
Y122959D01*
X145088Y110490D02*
X145488D01*
X145288Y110290D02*
Y110690D01*
X136579Y114046D02*
X136979D01*
X136779Y113846D02*
Y114246D01*
X58601Y114046D02*
X59001D01*
X58801Y113846D02*
Y114246D01*
X98606Y108204D02*
X99006D01*
X98806Y108004D02*
Y108404D01*
X110290Y109093D02*
X110690D01*
X110490Y108893D02*
Y109293D01*
X98606Y124079D02*
X99006D01*
X98806Y123879D02*
Y124279D01*
X110290Y123190D02*
X110690D01*
X110490Y122990D02*
Y123390D01*
M02*
