%TF.GenerationSoftware,Altium Limited,Altium Designer,22.2.1 (43)*%
G04 Layer_Color=0*
%FSLAX44Y44*%
%MOMM*%
%TF.SameCoordinates,0AFF7D02-74C0-442A-A7DB-72135CCE8720*%
%TF.FilePolarity,Positive*%
%TF.FileFunction,Plated,1,4,PTH,Drill*%
%TF.Part,Single*%
G01*
G75*
%TA.AperFunction,ComponentDrill*%
%ADD216C,1.3970*%
%ADD217C,1.0700*%
%ADD218C,0.7400*%
%ADD219C,1.0160*%
%ADD220C,1.3700*%
%ADD221C,1.3000*%
%ADD222C,1.2954*%
%ADD223C,0.9906*%
%ADD224C,1.3700*%
%ADD225C,2.5900*%
%ADD226C,1.1800*%
%ADD227C,1.0400*%
%ADD228C,0.7500*%
%ADD229C,2.3300*%
%ADD230C,0.9200*%
%TA.AperFunction,ViaDrill,NotFilled*%
%ADD231C,4.0000*%
%ADD232C,0.8000*%
%ADD233C,0.1000*%
%ADD234C,0.3000*%
%ADD235C,0.4000*%
D216*
X281940Y492760D02*
D03*
X281940Y438150D02*
D03*
X281940Y383540D02*
D03*
X585470Y603504D02*
D03*
Y548894D02*
D03*
Y658114D02*
D03*
X281940Y601980D02*
D03*
Y547370D02*
D03*
Y656590D02*
D03*
X585470Y438150D02*
D03*
Y383540D02*
D03*
Y492760D02*
D03*
D217*
X515620Y980440D02*
D03*
Y955040D02*
D03*
Y929640D02*
D03*
Y889000D02*
D03*
Y863600D02*
D03*
Y838200D02*
D03*
D218*
X956310Y568960D02*
D03*
Y543560D02*
D03*
Y518160D02*
D03*
X876910Y594360D02*
D03*
Y543560D02*
D03*
Y518160D02*
D03*
Y568960D02*
D03*
X956310Y594360D02*
D03*
X956640Y320040D02*
D03*
Y294640D02*
D03*
Y269240D02*
D03*
X877240Y345440D02*
D03*
Y269240D02*
D03*
Y320040D02*
D03*
Y294640D02*
D03*
X956640Y345440D02*
D03*
Y642620D02*
D03*
Y668020D02*
D03*
Y693420D02*
D03*
X877240Y718820D02*
D03*
Y642620D02*
D03*
Y693420D02*
D03*
Y668020D02*
D03*
X956640Y718820D02*
D03*
X955370Y393700D02*
D03*
Y419100D02*
D03*
Y444500D02*
D03*
X875970Y469900D02*
D03*
Y393700D02*
D03*
X955370Y469900D02*
D03*
X875970Y444500D02*
D03*
Y419100D02*
D03*
D219*
X1345250Y760730D02*
D03*
Y786130D02*
D03*
X1345250Y811530D02*
D03*
X1345250Y925830D02*
D03*
Y900430D02*
D03*
X1345250Y875030D02*
D03*
D220*
X350520Y1224280D02*
D03*
X375870D02*
D03*
X401220D02*
D03*
D221*
X514350Y1235710D02*
D03*
X609650D02*
D03*
D222*
X1701038Y878586D02*
D03*
Y618490D02*
D03*
X1676146Y878586D02*
D03*
X1651000D02*
D03*
X1626108D02*
D03*
X1701038Y843534D02*
D03*
Y793496D02*
D03*
X1676146D02*
D03*
X1651000D02*
D03*
Y618490D02*
D03*
X1676146D02*
D03*
X1701038Y643382D02*
D03*
Y668528D02*
D03*
Y693420D02*
D03*
Y718566D02*
D03*
Y743458D02*
D03*
X1626108Y768604D02*
D03*
X1676146D02*
D03*
X1701038D02*
D03*
X1626108Y793496D02*
D03*
X1651000Y818388D02*
D03*
X1626108Y843534D02*
D03*
X1651000D02*
D03*
X1626108Y618490D02*
D03*
Y818388D02*
D03*
Y643382D02*
D03*
X1651000D02*
D03*
X1676146D02*
D03*
X1626108Y668528D02*
D03*
X1651000D02*
D03*
X1676146D02*
D03*
X1626108Y693420D02*
D03*
X1651000D02*
D03*
X1676146D02*
D03*
X1626108Y718566D02*
D03*
X1651000D02*
D03*
X1676146D02*
D03*
X1626108Y743458D02*
D03*
X1651000D02*
D03*
X1676146D02*
D03*
X1651000Y768604D02*
D03*
X1676146Y818388D02*
D03*
X1701038D02*
D03*
X1676146Y843534D02*
D03*
X1626108Y915416D02*
D03*
X1651000D02*
D03*
X1676146D02*
D03*
X1701038D02*
D03*
D223*
X394970Y1102360D02*
D03*
Y1076960D02*
D03*
Y1051560D02*
D03*
Y1026160D02*
D03*
X471170D02*
D03*
Y1051560D02*
D03*
Y1076960D02*
D03*
Y1102360D02*
D03*
Y979170D02*
D03*
Y953770D02*
D03*
Y928370D02*
D03*
Y902970D02*
D03*
X394970D02*
D03*
Y928370D02*
D03*
Y953770D02*
D03*
Y979170D02*
D03*
D224*
X287020Y951180D02*
D03*
Y900480D02*
D03*
Y925830D02*
D03*
X285750Y1150637D02*
D03*
Y1028733D02*
D03*
Y1175986D02*
D03*
Y1054083D02*
D03*
Y1079434D02*
D03*
Y1201337D02*
D03*
D225*
X454680Y1148190D02*
D03*
X495280D02*
D03*
X403880D02*
D03*
X546080D02*
D03*
D226*
X1154430Y840740D02*
D03*
X1177230D02*
D03*
X1131630D02*
D03*
D227*
X1357630Y275590D02*
D03*
X1332230D02*
D03*
X1306830D02*
D03*
X1383030D02*
D03*
D228*
X533400Y1099420D02*
D03*
Y1049420D02*
D03*
D229*
X1563370Y276066D02*
D03*
X1442970D02*
D03*
D230*
X1515670Y303165D02*
D03*
X1490670D02*
D03*
Y323166D02*
D03*
X1515670D02*
D03*
D231*
X845820Y873760D02*
D03*
X520700Y325120D02*
D03*
X1727200Y311150D02*
D03*
Y1212850D02*
D03*
D232*
X792480Y925830D02*
D03*
X618490Y1125220D02*
D03*
X922020Y561340D02*
D03*
X920750Y454660D02*
D03*
X1041400Y1094740D02*
D03*
X1647190Y1092200D02*
D03*
X1163038Y1094738D02*
D03*
D233*
X1390070Y955283D02*
D03*
X1410390Y966713D02*
D03*
X829310Y770890D02*
D03*
X860480Y774943D02*
D03*
X1360170Y1016000D02*
D03*
X1370330Y962660D02*
D03*
X1564640Y947420D02*
D03*
X1499870Y1104900D02*
D03*
X1465580Y1016000D02*
D03*
X1253490Y820420D02*
D03*
X1414780Y725170D02*
D03*
X1459230Y763270D02*
D03*
X1719580Y891540D02*
D03*
X1750060Y723900D02*
D03*
X1479550Y966470D02*
D03*
X1637030Y781050D02*
D03*
X1598930Y886460D02*
D03*
X1606550Y871220D02*
D03*
X1596390Y869950D02*
D03*
X1518920Y934720D02*
D03*
X1465580Y889000D02*
D03*
X1479550Y871220D02*
D03*
X1473200Y902970D02*
D03*
X1468120Y969010D02*
D03*
X763270Y853440D02*
D03*
X758190Y806450D02*
D03*
X775970Y866140D02*
D03*
X759460Y871220D02*
D03*
X1088390Y519430D02*
D03*
X753110Y877570D02*
D03*
X746760Y834390D02*
D03*
X1118870Y508000D02*
D03*
X1112520D02*
D03*
X1106170D02*
D03*
X1093470D02*
D03*
X1099820D02*
D03*
X1002030Y826770D02*
D03*
X1504950Y659130D02*
D03*
X1499870Y756920D02*
D03*
X1399540Y358140D02*
D03*
X1494790Y636270D02*
D03*
X1553210Y659130D02*
D03*
X1598930Y680720D02*
D03*
X1404620Y670560D02*
D03*
X1399540Y675640D02*
D03*
X1478280Y848360D02*
D03*
X1480820Y806450D02*
D03*
X1482090Y784860D02*
D03*
X1590040Y657860D02*
D03*
X1478280Y652780D02*
D03*
X1578610Y641350D02*
D03*
X1567180Y659130D02*
D03*
X1488440Y560070D02*
D03*
X1403350Y637540D02*
D03*
X1493520Y685800D02*
D03*
X1204444Y629560D02*
D03*
X985520Y767080D02*
D03*
X994410Y762000D02*
D03*
X801370Y777240D02*
D03*
X833120D02*
D03*
X862330Y749300D02*
D03*
X892810D02*
D03*
X1600200Y711200D02*
D03*
X1285240Y646430D02*
D03*
X1277620D02*
D03*
X1329690Y647700D02*
D03*
X1541780Y657860D02*
D03*
X1522730Y678180D02*
D03*
X1223010Y327660D02*
D03*
X1239520Y676910D02*
D03*
X1231900Y668020D02*
D03*
X1369060Y604520D02*
D03*
X1283970Y599440D02*
D03*
X1294130Y603250D02*
D03*
X1198784Y610058D02*
D03*
X1250950Y638810D02*
D03*
X1264920Y645160D02*
D03*
X1257300D02*
D03*
X1292860Y646430D02*
D03*
X1336040Y643890D02*
D03*
X1291590Y535940D02*
D03*
X1296670Y530860D02*
D03*
X1244470Y731390D02*
D03*
X1267199Y678570D02*
D03*
X1334770Y698500D02*
D03*
X1266190Y543560D02*
D03*
X1252040Y682170D02*
D03*
X1455420Y617220D02*
D03*
X1579880Y659130D02*
D03*
X1355090Y562610D02*
D03*
X1365250D02*
D03*
X1417320Y568960D02*
D03*
X1426210Y575310D02*
D03*
X1409700Y548640D02*
D03*
X1407160Y562610D02*
D03*
X1404620Y601980D02*
D03*
Y613410D02*
D03*
X1220470Y551180D02*
D03*
X1218925Y559200D02*
D03*
X1219564Y569200D02*
D03*
X1255710Y604200D02*
D03*
X1231900Y654050D02*
D03*
X1459230Y469900D02*
D03*
X1361440Y524510D02*
D03*
X1326910Y526810D02*
D03*
X1321910Y530700D02*
D03*
X1306830Y520700D02*
D03*
X1301750Y525780D02*
D03*
X1210310Y330200D02*
D03*
Y551180D02*
D03*
X1211580Y542290D02*
D03*
X1334770Y494030D02*
D03*
X1446530Y434340D02*
D03*
X1442720Y430530D02*
D03*
X1355090Y523240D02*
D03*
X549690Y974155D02*
D03*
Y831850D02*
D03*
Y882800D02*
D03*
X549690Y922750D02*
D03*
X1436370Y820042D02*
D03*
Y734060D02*
D03*
X1432814Y718566D02*
D03*
X1436370Y725170D02*
D03*
X1426210Y787400D02*
D03*
X1357630Y603250D02*
D03*
X1321910Y647860D02*
D03*
X1346910Y648410D02*
D03*
X1304290Y646430D02*
D03*
X1381980Y717160D02*
D03*
X1268730Y717550D02*
D03*
X1041400Y800100D02*
D03*
X1334770Y485140D02*
D03*
X1403350D02*
D03*
X852170Y810260D02*
D03*
X821690D02*
D03*
X939800Y798830D02*
D03*
X927100Y798830D02*
D03*
X1082040Y1069340D02*
D03*
X1014730Y1176020D02*
D03*
X1082040D02*
D03*
X1014730Y1069340D02*
D03*
X1024890Y882650D02*
D03*
D234*
X1192530Y801370D02*
D03*
X1191260Y772160D02*
D03*
X900430Y732790D02*
D03*
X905510Y692150D02*
D03*
X1337310Y358140D02*
D03*
X1314450Y359410D02*
D03*
X1362710Y355807D02*
D03*
X1761015Y706277D02*
D03*
X1054100Y915670D02*
D03*
X1727200Y1007110D02*
D03*
Y1022350D02*
D03*
X990600Y800100D02*
D03*
X1468120Y848360D02*
D03*
X1436370Y861060D02*
D03*
X1587500Y693420D02*
D03*
X330952Y277042D02*
D03*
X662940Y764540D02*
D03*
X354330Y797560D02*
D03*
X1761490Y1089660D02*
D03*
X585470Y789940D02*
D03*
X1554480Y384810D02*
D03*
Y370840D02*
D03*
X1705610Y411480D02*
D03*
X1684020Y429260D02*
D03*
X1172210Y506730D02*
D03*
X1461770Y416560D02*
D03*
X977900Y807720D02*
D03*
X1534160Y598170D02*
D03*
X1562100Y603250D02*
D03*
X1283970Y358064D02*
D03*
X1268730Y454660D02*
D03*
X1248410Y485140D02*
D03*
X1253490Y473710D02*
D03*
X1261110Y463550D02*
D03*
X1468120Y685800D02*
D03*
X1436370Y692150D02*
D03*
X845820Y751840D02*
D03*
X824230Y820420D02*
D03*
X869950Y782320D02*
D03*
X900430D02*
D03*
X979170Y735330D02*
D03*
X607060Y981710D02*
D03*
X589600Y845150D02*
D03*
X600710Y908050D02*
D03*
X607060Y941070D02*
D03*
X1009650Y927100D02*
D03*
X1141730Y1137920D02*
D03*
X1379220Y295910D02*
D03*
X935990Y1010920D02*
D03*
X1005840Y735330D02*
D03*
X1016000Y805180D02*
D03*
X1045210Y855980D02*
D03*
X1041400Y882650D02*
D03*
D235*
X1356360Y1136650D02*
D03*
X1017270Y320040D02*
D03*
X1257300Y1137920D02*
D03*
%TF.MD5,4f5d9c05ddbbd64086db90946306fe6f*%
M02*
