G04*
G04 #@! TF.GenerationSoftware,Altium Limited,Altium Designer,22.2.1 (43)*
G04*
G04 Layer_Color=8421504*
%FSLAX43Y43*%
%MOMM*%
G71*
G04*
G04 #@! TF.SameCoordinates,554F8E3F-4C3B-413C-AF13-BA86D744421E*
G04*
G04*
G04 #@! TF.FilePolarity,Positive*
G04*
G01*
G75*
%ADD20R,2.000X3.600*%
%ADD21R,0.970X1.730*%
%ADD22R,1.100X1.450*%
%ADD23R,3.600X2.000*%
%ADD24R,0.980X0.920*%
G04:AMPARAMS|DCode=25|XSize=1.19mm|YSize=0.4mm|CornerRadius=0.05mm|HoleSize=0mm|Usage=FLASHONLY|Rotation=0.000|XOffset=0mm|YOffset=0mm|HoleType=Round|Shape=RoundedRectangle|*
%AMROUNDEDRECTD25*
21,1,1.190,0.300,0,0,0.0*
21,1,1.090,0.400,0,0,0.0*
1,1,0.100,0.545,-0.150*
1,1,0.100,-0.545,-0.150*
1,1,0.100,-0.545,0.150*
1,1,0.100,0.545,0.150*
%
%ADD25ROUNDEDRECTD25*%
%ADD26R,0.920X0.980*%
%ADD27R,1.090X1.080*%
%ADD28R,1.730X0.970*%
%ADD29R,1.470X0.280*%
%ADD30R,3.320X2.440*%
%ADD31R,0.990X3.790*%
%ADD32R,2.900X5.400*%
%ADD33R,0.750X1.400*%
%ADD34R,2.700X1.900*%
%ADD35R,10.000X8.800*%
%ADD36R,5.400X2.900*%
%ADD37R,1.500X1.250*%
%ADD38R,1.473X0.356*%
%ADD39R,1.981X0.559*%
G04:AMPARAMS|DCode=40|XSize=0.28mm|YSize=1.56mm|CornerRadius=0.035mm|HoleSize=0mm|Usage=FLASHONLY|Rotation=270.000|XOffset=0mm|YOffset=0mm|HoleType=Round|Shape=RoundedRectangle|*
%AMROUNDEDRECTD40*
21,1,0.280,1.490,0,0,270.0*
21,1,0.210,1.560,0,0,270.0*
1,1,0.070,-0.745,-0.105*
1,1,0.070,-0.745,0.105*
1,1,0.070,0.745,0.105*
1,1,0.070,0.745,-0.105*
%
%ADD40ROUNDEDRECTD40*%
G04:AMPARAMS|DCode=41|XSize=1.56mm|YSize=0.28mm|CornerRadius=0.035mm|HoleSize=0mm|Usage=FLASHONLY|Rotation=270.000|XOffset=0mm|YOffset=0mm|HoleType=Round|Shape=RoundedRectangle|*
%AMROUNDEDRECTD41*
21,1,1.560,0.210,0,0,270.0*
21,1,1.490,0.280,0,0,270.0*
1,1,0.070,-0.105,-0.745*
1,1,0.070,-0.105,0.745*
1,1,0.070,0.105,0.745*
1,1,0.070,0.105,-0.745*
%
%ADD41ROUNDEDRECTD41*%
%ADD42R,1.270X3.180*%
%ADD43R,1.000X0.970*%
%ADD44R,0.600X1.500*%
%ADD45O,0.600X1.800*%
%ADD46R,0.600X1.800*%
%ADD47R,0.600X1.200*%
%ADD48R,1.700X1.000*%
G04:AMPARAMS|DCode=49|XSize=1.19mm|YSize=0.4mm|CornerRadius=0.05mm|HoleSize=0mm|Usage=FLASHONLY|Rotation=90.000|XOffset=0mm|YOffset=0mm|HoleType=Round|Shape=RoundedRectangle|*
%AMROUNDEDRECTD49*
21,1,1.190,0.300,0,0,90.0*
21,1,1.090,0.400,0,0,90.0*
1,1,0.100,0.150,0.545*
1,1,0.100,0.150,-0.545*
1,1,0.100,-0.150,-0.545*
1,1,0.100,-0.150,0.545*
%
%ADD49ROUNDEDRECTD49*%
%ADD50R,1.524X1.524*%
%ADD51R,1.550X2.250*%
%ADD52R,0.900X3.300*%
%ADD53R,10.600X8.500*%
%ADD54R,1.524X1.524*%
%ADD55R,1.800X1.340*%
%ADD56R,1.400X1.200*%
%ADD57R,3.680X1.270*%
%ADD58R,1.450X1.100*%
%ADD59R,1.270X3.175*%
%ADD60R,1.560X0.620*%
%ADD61R,1.150X1.150*%
%ADD62R,0.800X1.200*%
%ADD63R,0.970X1.000*%
%ADD64R,1.080X1.090*%
%ADD65R,0.570X2.020*%
G36*
X128721Y123441D02*
X127471D01*
Y124961D01*
X128721D01*
Y123441D01*
D02*
G37*
G36*
X126911D02*
X125661D01*
Y124961D01*
X126911D01*
Y123441D01*
D02*
G37*
G36*
X125101D02*
X123851D01*
Y124961D01*
X125101D01*
Y123441D01*
D02*
G37*
G36*
X123291D02*
X122041D01*
Y124961D01*
X123291D01*
Y123441D01*
D02*
G37*
G36*
X121481D02*
X120231D01*
Y124961D01*
X121481D01*
Y123441D01*
D02*
G37*
G36*
X119671D02*
X118421D01*
Y124961D01*
X119671D01*
Y123441D01*
D02*
G37*
G36*
X128721Y120811D02*
X127471D01*
Y122331D01*
X128721D01*
Y120811D01*
D02*
G37*
G36*
X126911D02*
X125661D01*
Y122331D01*
X126911D01*
Y120811D01*
D02*
G37*
G36*
X125101D02*
X123851D01*
Y122331D01*
X125101D01*
Y120811D01*
D02*
G37*
G36*
X123291D02*
X122041D01*
Y122331D01*
X123291D01*
Y120811D01*
D02*
G37*
G36*
X121481D02*
X120231D01*
Y122331D01*
X121481D01*
Y120811D01*
D02*
G37*
G36*
X119671D02*
X118421D01*
Y122331D01*
X119671D01*
Y120811D01*
D02*
G37*
G36*
X100056Y120792D02*
X101156D01*
Y119492D01*
X100056D01*
Y118292D01*
X97556D01*
Y119492D01*
X96456D01*
Y120792D01*
X97556D01*
Y122692D01*
X100056D01*
Y120792D01*
D02*
G37*
G36*
X128721Y118181D02*
X127471D01*
Y119701D01*
X128721D01*
Y118181D01*
D02*
G37*
G36*
X126911D02*
X125661D01*
Y119701D01*
X126911D01*
Y118181D01*
D02*
G37*
G36*
X125101D02*
X123851D01*
Y119701D01*
X125101D01*
Y118181D01*
D02*
G37*
G36*
X123291D02*
X122041D01*
Y119701D01*
X123291D01*
Y118181D01*
D02*
G37*
G36*
X121481D02*
X120231D01*
Y119701D01*
X121481D01*
Y118181D01*
D02*
G37*
G36*
X119671D02*
X118421D01*
Y119701D01*
X119671D01*
Y118181D01*
D02*
G37*
G36*
X111740Y119855D02*
X112840D01*
Y118555D01*
X111740D01*
Y117555D01*
X109240D01*
Y118555D01*
X108140D01*
Y119855D01*
X109240D01*
Y121555D01*
X111740D01*
Y119855D01*
D02*
G37*
G36*
Y113855D02*
X112840D01*
Y112555D01*
X111740D01*
Y110855D01*
X109240D01*
Y112555D01*
X108140D01*
Y113855D01*
X109240D01*
Y114855D01*
X111740D01*
Y113855D01*
D02*
G37*
G36*
X100056Y113192D02*
X101156D01*
Y111892D01*
X100056D01*
Y109992D01*
X97556D01*
Y111892D01*
X96456D01*
Y113192D01*
X97556D01*
Y114392D01*
X100056D01*
Y113192D01*
D02*
G37*
G36*
X111740Y106177D02*
X112840D01*
Y104877D01*
X111740D01*
Y103677D01*
X109240D01*
Y104877D01*
X108140D01*
Y106177D01*
X109240D01*
Y108077D01*
X111740D01*
Y106177D01*
D02*
G37*
G36*
X100056Y105504D02*
X101156D01*
Y104204D01*
X100056D01*
Y103204D01*
X97556D01*
Y104204D01*
X96456D01*
Y105504D01*
X97556D01*
Y107204D01*
X100056D01*
Y105504D01*
D02*
G37*
G36*
Y99504D02*
X101156D01*
Y98204D01*
X100056D01*
Y96504D01*
X97556D01*
Y98204D01*
X96456D01*
Y99504D01*
X97556D01*
Y100504D01*
X100056D01*
Y99504D01*
D02*
G37*
G36*
X111740Y98577D02*
X112840D01*
Y97277D01*
X111740D01*
Y95377D01*
X109240D01*
Y97277D01*
X108140D01*
Y98577D01*
X109240D01*
Y99777D01*
X111740D01*
Y98577D01*
D02*
G37*
G36*
X139383Y26479D02*
X137223D01*
Y28639D01*
X139383D01*
Y26479D01*
D02*
G37*
G36*
X136843D02*
X134683D01*
Y28639D01*
X136843D01*
Y26479D01*
D02*
G37*
G36*
X134303D02*
X132143D01*
Y28639D01*
X134303D01*
Y26479D01*
D02*
G37*
G36*
X131763D02*
X129603D01*
Y28639D01*
X131763D01*
Y26479D01*
D02*
G37*
D20*
X35023Y32385D02*
D03*
X28223D02*
D03*
X38637D02*
D03*
X45437D02*
D03*
X65376D02*
D03*
X58576D02*
D03*
X75790D02*
D03*
X68990D02*
D03*
X38637Y71755D02*
D03*
X45437D02*
D03*
X28223D02*
D03*
X35023D02*
D03*
X68887D02*
D03*
X75687D02*
D03*
X58449D02*
D03*
X65249D02*
D03*
X66392Y108077D02*
D03*
X59592D02*
D03*
D21*
X34373Y27686D02*
D03*
X31413D02*
D03*
X34373Y76454D02*
D03*
X31413D02*
D03*
X64853Y27686D02*
D03*
X61893D02*
D03*
X64594Y76454D02*
D03*
X61634Y76454D02*
D03*
X60408Y101981D02*
D03*
X57448D02*
D03*
X69767Y92583D02*
D03*
X72727D02*
D03*
X69767Y90043D02*
D03*
X72727D02*
D03*
Y80137D02*
D03*
X69767D02*
D03*
X60242Y87376D02*
D03*
X63202D02*
D03*
X69767Y82677D02*
D03*
X72727D02*
D03*
X60242Y84836D02*
D03*
X63202D02*
D03*
X119165Y87630D02*
D03*
X116205Y87630D02*
D03*
X142196Y41921D02*
D03*
X139236D02*
D03*
X153104Y75819D02*
D03*
X156064D02*
D03*
X153104Y79883D02*
D03*
X156064D02*
D03*
X153104Y83947D02*
D03*
X156064D02*
D03*
X155766Y100457D02*
D03*
X152806D02*
D03*
X155810Y96393D02*
D03*
X152850D02*
D03*
X155937Y92329D02*
D03*
X152977D02*
D03*
X139686Y97663D02*
D03*
X142646D02*
D03*
X139686Y84074D02*
D03*
X142646D02*
D03*
X139686Y80010D02*
D03*
X142646D02*
D03*
X139642Y75946D02*
D03*
X142602D02*
D03*
X116161Y81153D02*
D03*
X113201D02*
D03*
X116161Y78740D02*
D03*
X113201D02*
D03*
X148507Y110490D02*
D03*
X151467D02*
D03*
Y107950D02*
D03*
X148507D02*
D03*
X130981Y109728D02*
D03*
X133941D02*
D03*
X127125Y41921D02*
D03*
X130085D02*
D03*
X64306Y114808D02*
D03*
X67266D02*
D03*
X58972D02*
D03*
X61932D02*
D03*
X77299Y95123D02*
D03*
X74339D02*
D03*
X157563Y60325D02*
D03*
X154603D02*
D03*
X104311Y74549D02*
D03*
X107271D02*
D03*
D22*
X57925Y76327D02*
D03*
X59725D02*
D03*
X58155Y27813D02*
D03*
X59955D02*
D03*
X29602D02*
D03*
X27802D02*
D03*
X29602Y76327D02*
D03*
X27802D02*
D03*
X77227Y97663D02*
D03*
X133869Y112141D02*
D03*
X75427Y97663D02*
D03*
X132069Y112141D02*
D03*
D23*
X73279Y100359D02*
D03*
Y107159D02*
D03*
X133858Y124304D02*
D03*
Y117504D02*
D03*
D24*
X54229Y81648D02*
D03*
Y83198D02*
D03*
Y86728D02*
D03*
Y88278D02*
D03*
Y95872D02*
D03*
Y97422D02*
D03*
X74676Y90538D02*
D03*
Y92088D02*
D03*
X54229Y92215D02*
D03*
Y90665D02*
D03*
X74676Y80632D02*
D03*
Y82182D02*
D03*
X98044Y69355D02*
D03*
Y67805D02*
D03*
Y32017D02*
D03*
Y30467D02*
D03*
X85471Y29832D02*
D03*
Y31382D02*
D03*
X98044Y42913D02*
D03*
Y44463D02*
D03*
Y57036D02*
D03*
Y55486D02*
D03*
X85471Y68987D02*
D03*
Y67437D02*
D03*
Y54724D02*
D03*
Y56274D02*
D03*
Y43955D02*
D03*
Y42405D02*
D03*
X49022Y105169D02*
D03*
Y103619D02*
D03*
Y92850D02*
D03*
Y91300D02*
D03*
X122809Y73139D02*
D03*
Y74689D02*
D03*
X121412Y69228D02*
D03*
Y67678D02*
D03*
X125095Y69202D02*
D03*
Y70752D02*
D03*
X123444Y69202D02*
D03*
Y70752D02*
D03*
X105410Y92697D02*
D03*
Y94247D02*
D03*
X138938Y71006D02*
D03*
Y69456D02*
D03*
X102616Y74943D02*
D03*
Y73393D02*
D03*
X90424Y90056D02*
D03*
Y88506D02*
D03*
X133477Y69202D02*
D03*
Y70752D02*
D03*
X126873D02*
D03*
Y69202D02*
D03*
X152146Y61201D02*
D03*
Y62751D02*
D03*
X141097Y30594D02*
D03*
Y32144D02*
D03*
X105918Y32118D02*
D03*
Y33668D02*
D03*
X154051Y112242D02*
D03*
Y113792D02*
D03*
X146685Y110884D02*
D03*
Y109334D02*
D03*
X144780Y110884D02*
D03*
Y109334D02*
D03*
X157480Y49543D02*
D03*
Y47993D02*
D03*
X120777Y65545D02*
D03*
Y63995D02*
D03*
D25*
X58110Y98059D02*
D03*
Y96759D02*
D03*
X56190D02*
D03*
Y97409D02*
D03*
Y98059D02*
D03*
Y92329D02*
D03*
Y91679D02*
D03*
X58110Y92979D02*
D03*
Y91679D02*
D03*
X56190Y92979D02*
D03*
X56261Y88930D02*
D03*
Y88280D02*
D03*
Y87630D02*
D03*
X58181D02*
D03*
Y88930D02*
D03*
X56190Y83835D02*
D03*
Y83185D02*
D03*
Y82535D02*
D03*
X58110D02*
D03*
Y83835D02*
D03*
D26*
X56629Y94869D02*
D03*
X58179D02*
D03*
X56629Y99822D02*
D03*
X58179D02*
D03*
X56629Y85725D02*
D03*
X58179D02*
D03*
X62852Y78867D02*
D03*
X64402D02*
D03*
X94094Y36830D02*
D03*
X95644D02*
D03*
Y74168D02*
D03*
X94094D02*
D03*
X94094Y61722D02*
D03*
X95644D02*
D03*
X93980Y49276D02*
D03*
X95530D02*
D03*
X150101Y35306D02*
D03*
X151651D02*
D03*
X154343Y86995D02*
D03*
X152793D02*
D03*
X154724Y77851D02*
D03*
X153174D02*
D03*
X154724Y90297D02*
D03*
X153174D02*
D03*
X153174Y81915D02*
D03*
X154724D02*
D03*
X140969Y95631D02*
D03*
X142519D02*
D03*
X140969Y82042D02*
D03*
X142519D02*
D03*
X154470Y98425D02*
D03*
X152920D02*
D03*
X154724Y73787D02*
D03*
X153174D02*
D03*
X140969Y73914D02*
D03*
X142519D02*
D03*
X154597Y94361D02*
D03*
X153047D02*
D03*
X152793Y70612D02*
D03*
X154343Y70612D02*
D03*
X140969Y77978D02*
D03*
X142519D02*
D03*
X145021Y75438D02*
D03*
X146571Y75438D02*
D03*
X145174Y91821D02*
D03*
X143624D02*
D03*
X91554Y92583D02*
D03*
X93104D02*
D03*
X95644Y75819D02*
D03*
X94094D02*
D03*
X118478Y50673D02*
D03*
X120028D02*
D03*
X137782Y48514D02*
D03*
X139332D02*
D03*
X108852Y92710D02*
D03*
X107302D02*
D03*
X97777Y92329D02*
D03*
X99327D02*
D03*
X119139Y89916D02*
D03*
X117589D02*
D03*
X137046Y71628D02*
D03*
X135496D02*
D03*
X143142Y38735D02*
D03*
X141592D02*
D03*
X157620Y70612D02*
D03*
X156070D02*
D03*
X118224Y67564D02*
D03*
X119774D02*
D03*
X120028Y52324D02*
D03*
X136144Y48514D02*
D03*
X143142Y35306D02*
D03*
X141592D02*
D03*
X134594Y48514D02*
D03*
X118478Y52324D02*
D03*
X133083Y106807D02*
D03*
X134633D02*
D03*
X141465Y64389D02*
D03*
X143015D02*
D03*
D27*
X65532Y87935D02*
D03*
Y84785D02*
D03*
X62992Y99746D02*
D03*
Y96596D02*
D03*
D28*
X60452Y99778D02*
D03*
Y96818D02*
D03*
Y82125D02*
D03*
Y79165D02*
D03*
Y92539D02*
D03*
Y89579D02*
D03*
X109220Y81324D02*
D03*
Y84284D02*
D03*
X97917Y74842D02*
D03*
Y71882D02*
D03*
Y34588D02*
D03*
Y37548D02*
D03*
Y49994D02*
D03*
Y47034D02*
D03*
Y62313D02*
D03*
Y59353D02*
D03*
X138589Y86531D02*
D03*
Y89491D02*
D03*
Y94317D02*
D03*
X138589Y91357D02*
D03*
X130334Y76244D02*
D03*
Y79204D02*
D03*
X100584Y71926D02*
D03*
Y74886D02*
D03*
X136606Y44544D02*
D03*
Y41584D02*
D03*
X132669Y44544D02*
D03*
Y41584D02*
D03*
X102743Y92627D02*
D03*
Y95587D02*
D03*
X36576Y87293D02*
D03*
Y90253D02*
D03*
Y99612D02*
D03*
Y102572D02*
D03*
Y92373D02*
D03*
Y95333D02*
D03*
Y104692D02*
D03*
Y107652D02*
D03*
X110490Y90634D02*
D03*
Y87674D02*
D03*
X95250Y92627D02*
D03*
Y95587D02*
D03*
X130334Y81070D02*
D03*
Y84030D02*
D03*
D29*
X62874Y91075D02*
D03*
Y91575D02*
D03*
X62874Y92075D02*
D03*
X62874Y92575D02*
D03*
Y93075D02*
D03*
X67174D02*
D03*
Y92575D02*
D03*
X67174Y92075D02*
D03*
X67174Y91575D02*
D03*
Y91075D02*
D03*
X67165Y81661D02*
D03*
Y82161D02*
D03*
Y82661D02*
D03*
X62865D02*
D03*
Y82161D02*
D03*
Y81661D02*
D03*
Y81161D02*
D03*
Y80661D02*
D03*
X67165D02*
D03*
Y81161D02*
D03*
D30*
X81788Y69873D02*
D03*
Y74653D02*
D03*
X101854Y58016D02*
D03*
Y53236D02*
D03*
Y45443D02*
D03*
Y40663D02*
D03*
X81534Y34140D02*
D03*
Y29360D02*
D03*
X122682Y84097D02*
D03*
Y88877D02*
D03*
D31*
X123571Y110821D02*
D03*
X125271D02*
D03*
X126971D02*
D03*
X120171D02*
D03*
X121871D02*
D03*
D32*
X90167Y100203D02*
D03*
X80267D02*
D03*
D33*
X136869Y69469D02*
D03*
X135419D02*
D03*
D34*
X74041Y111818D02*
D03*
D35*
Y120968D02*
D03*
D36*
X123571Y105153D02*
D03*
Y95253D02*
D03*
D37*
X32639Y106246D02*
D03*
Y102796D02*
D03*
Y115009D02*
D03*
Y111559D02*
D03*
X35306Y115009D02*
D03*
Y111559D02*
D03*
X32639Y93546D02*
D03*
Y90096D02*
D03*
D38*
X150901Y90170D02*
D03*
X145263D02*
D03*
X150901Y84328D02*
D03*
Y84963D02*
D03*
Y85623D02*
D03*
Y86284D02*
D03*
Y86919D02*
D03*
Y87579D02*
D03*
Y88214D02*
D03*
Y88875D02*
D03*
Y89535D02*
D03*
X145263D02*
D03*
Y88875D02*
D03*
Y88214D02*
D03*
Y87579D02*
D03*
Y86919D02*
D03*
Y86284D02*
D03*
Y85623D02*
D03*
Y84963D02*
D03*
Y84328D02*
D03*
X150901Y73812D02*
D03*
X145263D02*
D03*
Y67970D02*
D03*
Y68605D02*
D03*
X145263Y69266D02*
D03*
X145263Y69926D02*
D03*
Y70561D02*
D03*
Y71222D02*
D03*
Y71857D02*
D03*
Y72517D02*
D03*
Y73177D02*
D03*
X150901D02*
D03*
Y72517D02*
D03*
Y71857D02*
D03*
Y71222D02*
D03*
Y70561D02*
D03*
Y69926D02*
D03*
X150901Y69266D02*
D03*
X150901Y68605D02*
D03*
Y67970D02*
D03*
D39*
X145390Y77216D02*
D03*
X145390Y78486D02*
D03*
X145390Y79756D02*
D03*
Y81026D02*
D03*
X150317Y81026D02*
D03*
Y79756D02*
D03*
Y78486D02*
D03*
Y77216D02*
D03*
X145390Y93472D02*
D03*
Y94742D02*
D03*
X145390Y96012D02*
D03*
X145390Y97282D02*
D03*
X150317D02*
D03*
X150317Y96012D02*
D03*
Y94742D02*
D03*
Y93472D02*
D03*
D40*
X123511Y64420D02*
D03*
Y63920D02*
D03*
Y63420D02*
D03*
Y62920D02*
D03*
Y61920D02*
D03*
Y61420D02*
D03*
Y60920D02*
D03*
Y60420D02*
D03*
Y59920D02*
D03*
Y59420D02*
D03*
Y58920D02*
D03*
Y58420D02*
D03*
Y57920D02*
D03*
Y57420D02*
D03*
Y56920D02*
D03*
Y56420D02*
D03*
Y55920D02*
D03*
Y55420D02*
D03*
Y54920D02*
D03*
Y54420D02*
D03*
Y53920D02*
D03*
Y52920D02*
D03*
Y52420D02*
D03*
X138871D02*
D03*
Y52920D02*
D03*
Y53420D02*
D03*
Y53920D02*
D03*
Y54420D02*
D03*
Y54920D02*
D03*
Y55420D02*
D03*
Y55920D02*
D03*
Y56420D02*
D03*
Y56920D02*
D03*
Y57420D02*
D03*
Y57920D02*
D03*
Y58420D02*
D03*
Y58920D02*
D03*
Y59420D02*
D03*
Y59920D02*
D03*
Y60420D02*
D03*
Y60920D02*
D03*
Y61920D02*
D03*
Y62420D02*
D03*
Y62920D02*
D03*
Y63420D02*
D03*
Y63920D02*
D03*
Y64420D02*
D03*
X123511Y62420D02*
D03*
X138871Y61420D02*
D03*
X123511Y53420D02*
D03*
D41*
X137191Y66100D02*
D03*
X136691D02*
D03*
X136191D02*
D03*
X135691D02*
D03*
X135191D02*
D03*
X134691D02*
D03*
X134191D02*
D03*
X133691D02*
D03*
X133191D02*
D03*
X132691D02*
D03*
X132191D02*
D03*
X131691D02*
D03*
X131191D02*
D03*
X130691D02*
D03*
X130191D02*
D03*
X129691D02*
D03*
X129191D02*
D03*
X128691D02*
D03*
X128191D02*
D03*
X126691D02*
D03*
X126191D02*
D03*
X125691D02*
D03*
X125191D02*
D03*
Y50740D02*
D03*
X125691D02*
D03*
X127191D02*
D03*
X127691D02*
D03*
X128191D02*
D03*
X128691D02*
D03*
X129191D02*
D03*
X129691D02*
D03*
X130191D02*
D03*
X130691D02*
D03*
X131191D02*
D03*
X131691D02*
D03*
X132191D02*
D03*
X132691D02*
D03*
X133191D02*
D03*
X133691D02*
D03*
X134191D02*
D03*
X134691D02*
D03*
X135191D02*
D03*
X135691D02*
D03*
X136691D02*
D03*
X137191D02*
D03*
X127191Y66100D02*
D03*
X127691D02*
D03*
X126191Y50740D02*
D03*
X126691D02*
D03*
X136191D02*
D03*
D42*
X118618Y30045D02*
D03*
X121158D02*
D03*
X123698D02*
D03*
D43*
X143102Y36957D02*
D03*
X141632D02*
D03*
X118264Y69215D02*
D03*
X119734D02*
D03*
D44*
X157988Y68055D02*
D03*
X156718D02*
D03*
X155448D02*
D03*
X154178D02*
D03*
Y62755D02*
D03*
X155448D02*
D03*
X156718D02*
D03*
X157988D02*
D03*
D45*
X106680Y78359D02*
D03*
X105410Y90059D02*
D03*
X104140D02*
D03*
X102870Y90059D02*
D03*
X100330D02*
D03*
X97790Y90059D02*
D03*
X96520Y90059D02*
D03*
X92710Y90059D02*
D03*
X102870Y78359D02*
D03*
X101600Y78359D02*
D03*
X100330Y78359D02*
D03*
X99060Y78359D02*
D03*
X97790D02*
D03*
X96520Y78359D02*
D03*
X95250D02*
D03*
X93980D02*
D03*
X92710Y78359D02*
D03*
X93980Y90059D02*
D03*
X95250Y90059D02*
D03*
X99060D02*
D03*
X101600D02*
D03*
X105410Y78359D02*
D03*
X104140Y78359D02*
D03*
D46*
X106680Y90059D02*
D03*
D47*
X147127Y37739D02*
D03*
X146177Y37739D02*
D03*
X145227Y37739D02*
D03*
Y40239D02*
D03*
X146177Y40239D02*
D03*
X147127Y40239D02*
D03*
D48*
X114071Y75814D02*
D03*
X120371D02*
D03*
Y72014D02*
D03*
X114071D02*
D03*
D49*
X80899Y77709D02*
D03*
X81549D02*
D03*
X82199D02*
D03*
Y79629D02*
D03*
X80899D02*
D03*
X86980Y76835D02*
D03*
X88280D02*
D03*
Y74915D02*
D03*
X87630Y74915D02*
D03*
X86980Y74915D02*
D03*
X90028Y76835D02*
D03*
X91328Y76835D02*
D03*
X91328Y74915D02*
D03*
X90678Y74915D02*
D03*
X90028Y74915D02*
D03*
X83947Y79629D02*
D03*
X85247Y79629D02*
D03*
Y77709D02*
D03*
X84597Y77709D02*
D03*
X83947D02*
D03*
D50*
X97790Y84455D02*
D03*
Y86614D02*
D03*
D51*
X157734Y105188D02*
D03*
Y109188D02*
D03*
X154305Y105188D02*
D03*
Y109188D02*
D03*
X113411Y91662D02*
D03*
Y87662D02*
D03*
D52*
X85979Y110685D02*
D03*
X87679D02*
D03*
X89379D02*
D03*
X82579D02*
D03*
X84279D02*
D03*
D53*
X85979Y121285D02*
D03*
D54*
X173355Y87884D02*
D03*
X175514Y87884D02*
D03*
X173355Y85598D02*
D03*
X175514Y85598D02*
D03*
X173355Y83312D02*
D03*
X175514D02*
D03*
D55*
X141224Y86708D02*
D03*
X141224Y89568D02*
D03*
X127667Y76421D02*
D03*
X127667Y79281D02*
D03*
D56*
X131275Y70954D02*
D03*
X129075D02*
D03*
Y69254D02*
D03*
X131275D02*
D03*
D57*
X153416Y46990D02*
D03*
X148466Y46990D02*
D03*
X153416Y49530D02*
D03*
X148466D02*
D03*
X153416Y52070D02*
D03*
X148466D02*
D03*
X153416Y54610D02*
D03*
X148466D02*
D03*
X153416Y57150D02*
D03*
X148466Y57150D02*
D03*
D58*
X130129Y39254D02*
D03*
X132669Y39265D02*
D03*
X136652Y39265D02*
D03*
X139319Y39265D02*
D03*
X132669Y37465D02*
D03*
X130129Y37454D02*
D03*
X136652Y37465D02*
D03*
X139319Y37465D02*
D03*
D59*
X130683Y33070D02*
D03*
X133223D02*
D03*
X135763D02*
D03*
X138303D02*
D03*
D60*
X100571Y30226D02*
D03*
Y28956D02*
D03*
Y27686D02*
D03*
Y26416D02*
D03*
X105931D02*
D03*
Y27686D02*
D03*
Y28956D02*
D03*
Y30226D02*
D03*
D61*
X119920Y54229D02*
D03*
X117570D02*
D03*
Y56261D02*
D03*
X119920D02*
D03*
X143891Y59563D02*
D03*
X141541D02*
D03*
X141541Y61722D02*
D03*
X143891Y61722D02*
D03*
D62*
X134499Y97663D02*
D03*
X131699D02*
D03*
D63*
X134493Y101700D02*
D03*
Y100230D02*
D03*
D64*
X134544Y104140D02*
D03*
X131394Y104140D02*
D03*
D65*
X146685Y113811D02*
D03*
X147955D02*
D03*
X149225D02*
D03*
X150495D02*
D03*
Y123171D02*
D03*
X149225D02*
D03*
X147955D02*
D03*
X146685D02*
D03*
M02*
