M48
;Layer_Color=9474304
;FILE_FORMAT=4:3
METRIC,LZ
;TYPE=PLATED
T1F00S00C0.300
T2F00S00C0.400
T3F00S00C0.740
T4F00S00C0.750
T5F00S00C0.800
T6F00S00C0.920
T7F00S00C0.991
T8F00S00C1.016
T9F00S00C1.040
T10F00S00C1.070
T11F00S00C1.180
T12F00S00C1.200
T13F00S00C1.295
T14F00S00C1.300
T15F00S00C1.370
T16F00S00C1.397
T17F00S00C2.330
T18F00S00C2.590
T19F00S00C4.000
;TYPE=NON_PLATED
T20F00S00C2.311
T21F00S00C4.089
T22F00S00C4.115
%
T01
X0033095Y0027704
X0121031Y003302
X0122301Y0032766
X0128397Y0035806
X0131445Y0035941
X0133731Y0035814
X0136271Y0035581
X0139954Y0035814
X0137922Y0029591
X0153924Y003556
X015541Y0034292
X0155448Y0037084
X0153924Y0038481
X0168402Y0042926
X0170561Y0041148
X0176102Y0070628
X0175006Y007239
X016002Y007112
X015875Y0069342
X0159893Y0068072
X0159004Y0065786
X0163703Y0078105
X0148209Y0078486
X0145923Y0076327
X0149987Y0075692
X0149352Y006858
X0146812
X0143637Y0069215
X0143281Y0071857
X0143637Y0072517
Y0073406
X0141478Y0072517
X0138198Y0071716
X0139954Y0067564
X0140462Y0067056
X0140335Y0063754
X0140462Y0061341
Y0060198
X0136906Y0060452
X0135763Y0060325
X0135509Y0056261
X0136525
X0140716
X0141732Y0056896
X0142621Y0057531
X014097Y0054864
X0140335Y0048514
X0133477
Y0049403
X0132691Y0052681
X0132191Y005307
X0130683Y005207
X0130175Y0052578
X0129667Y0053086
X0129159Y0053594
X0126619Y0054356
X0122047Y0055118
X0121892Y005592
X0121956Y005692
X0121031Y0055118
X0121158Y0054229
X0119878Y0061006
X0120444Y0062956
X012319Y0065405
Y0066802
X0123952Y0067691
X0125204Y0068217
X012672Y0067857
X0126492Y0064516
X012573
X0125095Y0063881
X0127762Y0064643
X0128524
X0129286
X0130429
X0132191Y0064786
X0132969Y006477
X0133604Y0064389
X0134691Y0064841
X0133477Y006985
X0126873Y0071755
X0124447Y0073139
X0119126Y0077216
X0125571Y006042
X0128397Y0059944
X0129413Y0060325
X0135509Y0052324
X0136144Y0052451
X0145923Y004699
X0144653Y0043434
X0144272Y0043053
X0146177Y0041656
X0148844Y0056007
X0149479Y0063627
X0150495Y0065913
X0147828Y0065278
X0145542Y0061722
X0153416Y0059817
X015621Y0060325
X0157861Y0064135
X0157988Y0065913
X0156718
X0155321
X0154178Y0065786
X0152273Y0067818
X0142621Y007874
X0124841Y0048514
X0125349Y0047371
X0126111Y0046355
X0126873Y0045466
X0117221Y0050673
X0111887Y00508
X0111252Y0050165
X0109982
X0110617Y00508
X0109347
X0108839Y0052197
X0100584Y0073533
X0097917
X0098552Y0076708
X0099441Y00762
X0089281Y007493
X0090043Y0073279
X0090551Y0069215
X0090043Y0078232
X0086995
X0086048Y0077494
X0086233Y007493
X0084582Y0075184
X0082931Y0077089
X0083312Y0077724
X0080137
X0066294Y0076454
X0058547Y0078994
X0035433Y0079756
X0054969Y0083185
Y008828
X0054969Y0092275
X0054969Y0097415
X0060706Y0098171
Y0094107
X0060071Y0090805
X005896Y0084515
X0074676Y0083439
X0076327Y0085344
X0075946Y0087122
X0075311Y0087757
X0077597Y0086614
X0075819Y0080645
X0082169Y0081026
X0082423Y0082042
X0085217Y0081026
X009271Y0079883
X009398Y0079883
X009779Y0080772
X009906Y008001
X01016Y0080518
X010414Y008001
X0104521Y0085598
X010414Y0088265
X0102489
X0100965Y009271
X010541Y0091567
X0100203Y0082677
X0093599Y0101092
X0101473Y0106934
X0108204
Y0117602
X0103378Y0118999
X0101473Y0117602
X0114173Y0113792
X0136017Y01016
X0137033Y0096266
X0139007Y0095528
X0141039Y0096671
X0146812Y0096901
X0147955Y0096647
X0146558Y01016
X014732Y0090297
X0146558Y00889
X0147955Y0087122
X0147828Y0084836
X0146812
X0143637Y0086106
Y0082004
X0148082Y0080645
X0151892Y0093472
X0156464Y0094742
X0149987Y011049
X0125349Y0082042
X0119253Y0080137
X0159639Y0086995
X0160655Y0087122
X0159893Y0088646
X0171958Y0089154
X017272Y0100711
Y0102235
X0176149Y0108966
X0105537Y0120269
X010541Y0122809
X0103251Y0121539
T02
X0101727Y0032004
X012573Y0113792
X0135636Y0113665
T03
X0087724Y0026924
Y0029464
Y0032004
Y0034544
X0087597Y003937
X0095537
X0095664Y0034544
Y0032004
Y0029464
Y0026924
X0095537Y004191
Y004445
Y004699
X0095631Y0051816
Y0054356
Y0056896
Y0059436
X0095664Y0064262
Y0066802
Y0069342
Y0071882
X0087724
Y0069342
Y0066802
Y0064262
X0087691Y0059436
Y0056896
Y0054356
Y0051816
X0087597Y004699
Y004445
Y004191
T04
X005334Y0104942
Y0109942
T05
X0092075Y0045466
X0092202Y0056134
X0079248Y0092583
X010414Y0109474
X0116304Y0109474
X0164719Y010922
T06
X0149067Y0030317
Y0032317
X0151567
Y0030317
T07
X0039497Y0090297
Y0092837
Y0095377
Y0097917
Y0102616
Y0105156
Y0107696
Y0110236
X0047117
Y0107696
Y0105156
Y0102616
Y0097917
Y0095377
Y0092837
Y0090297
T08
X0134525Y0076073
Y0078613
X0134525Y0081153
X0134525Y0087503
X0134525Y0090043
Y0092583
T09
X0130683Y0027559
X0133223
X0135763
X0138303
T10
X0051562Y008382
Y008636
Y00889
Y0092964
Y0095504
Y0098044
T11
X0113163Y0084074
X0115443
X0117723
T12
X0085299Y0034517
X0164173Y0035072
Y0032278
Y0029484
Y002669
X0154021Y004197
X0106925Y0045973
X0085299Y0046963
Y0059536
Y0071855
X0073186Y0076445
X0070646
X0068106
X0051532Y0079308
X0036361Y0083975
X0033567
X0030773
X0027979
X0051405Y0102676
X0061849Y0112522
X006731Y0096774
X006985
X007239
X0137257Y0109788
X0163546Y011817
X0167513Y0115062
X0140813Y0121853
X0105299Y0124794
X0102505
X0099711
X0096917
T13
X0162611Y0061849
X01651
Y0064338
X0162611
Y0066853
X01651
Y0069342
X0162611
Y0071857
X01651
Y0074346
X0162611
Y007686
Y007935
X01651
Y007686
X0167615
Y007935
X0170104
Y007686
Y0074346
Y0071857
X0167615
Y0074346
Y0069342
X0170104
Y0066853
X0167615
Y0064338
Y0061849
X0170104
Y0064338
Y0081839
X0167615
X01651
X0162611
Y0084353
X01651
X0167615
X0170104
Y0087859
X0167615
X01651
X0162611
Y0091542
X01651
X0167615
X0170104
T14
X0051435Y0123571
X0060965
T15
X0028702Y0090048
Y0092583
Y0095118
X0028575Y0102873
Y0105408
Y0107943
Y0115064
Y0117599
X0040122Y0122428
X0037587
X0035052
X0028575Y0120134
T16
X0028194Y0038354
X0058547
Y0043815
Y0049276
Y0054889
Y006035
Y0065811
X0028194Y0065659
Y0060198
Y0054737
X0028194Y0049276
X0028194Y0043815
T17
X0144297Y0027607
X0156337
T18
X0040388Y0114819
X0045468
X0049528
X0054608
T19
X005207Y0032512
X017272Y0031115
X0084582Y0087376
X017272Y0121285
T20
X016162Y0055397
Y0097993
T21
X0165456Y0051308
Y0102108
T22
X0048514Y0043815
Y0060198
X0078867Y006035
Y0043815
M30
