G04*
G04 #@! TF.GenerationSoftware,Altium Limited,Altium Designer,22.2.1 (43)*
G04*
G04 Layer_Color=12429013*
%FSLAX43Y43*%
%MOMM*%
G71*
G04*
G04 #@! TF.SameCoordinates,554F8E3F-4C3B-413C-AF13-BA86D744421E*
G04*
G04*
G04 #@! TF.FilePolarity,Positive*
G04*
G01*
G75*
%ADD10C,0.200*%
%ADD14C,0.508*%
%ADD15C,0.127*%
%ADD16C,0.300*%
%ADD17C,0.254*%
%ADD19C,0.150*%
D10*
X152591Y80368D02*
G03*
X152591Y80368I-100J0D01*
G01*
X152591Y70716D02*
G03*
X152591Y70716I-100J0D01*
G01*
X152508Y90020D02*
G03*
X152508Y90020I-100J0D01*
G01*
X152555Y99672D02*
G03*
X152555Y99672I-100J0D01*
G01*
D14*
X162611Y40615D02*
G03*
X162611Y41377I0J381D01*
G01*
D02*
G03*
X162611Y40615I0J-381D01*
G01*
D15*
X129612Y62065D02*
Y63665D01*
X130992Y62065D02*
Y63665D01*
X105371Y84801D02*
Y86141D01*
X103671Y84801D02*
Y86141D01*
X101131Y84801D02*
Y86141D01*
X102831Y84801D02*
Y86141D01*
X149825Y65190D02*
X151165D01*
X149825Y66890D02*
X151165D01*
X149825Y71921D02*
X151165D01*
X149825Y73621D02*
X151165D01*
X149825Y74842D02*
X151165D01*
X149825Y76542D02*
X151165D01*
X149825Y83273D02*
X151165D01*
X149825Y81573D02*
X151165D01*
X149825Y86194D02*
X151165Y86194D01*
X149825Y84494D02*
X151165Y84494D01*
X149825Y91225D02*
X151165D01*
X149825Y92925D02*
X151165Y92925D01*
X149825Y100877D02*
X151165D01*
X149825Y102577D02*
X151165Y102577D01*
X133185Y59635D02*
X134785D01*
X133185Y61015D02*
X134785D01*
X149591Y80638D02*
X150891Y80638D01*
X149591Y77498D02*
X150891D01*
X149591Y79688D02*
Y80638D01*
Y77498D02*
Y78448D01*
X154905Y81114D02*
X156245Y81114D01*
X154905Y79414D02*
X156245Y79414D01*
X154905Y78574D02*
X156245D01*
X154905Y76874D02*
X156245D01*
X156748Y54513D02*
Y56713D01*
Y58913D02*
Y64113D01*
X143648D02*
X156748D01*
X141548Y61613D02*
Y62613D01*
Y61613D02*
X142548D01*
Y51713D02*
Y61613D01*
X144548Y50113D02*
X156748D01*
Y51113D01*
X154778Y98718D02*
X156118D01*
X154778Y100418D02*
X156118Y100418D01*
X154778Y96178D02*
X156118Y96178D01*
X154778Y97878D02*
X156118Y97878D01*
X154905Y69762D02*
X156245D01*
X154905Y71462D02*
X156245D01*
X154905Y67222D02*
X156245Y67222D01*
X154905Y68922D02*
X156245D01*
X154905Y86526D02*
X156245Y86526D01*
X154905Y88226D02*
X156245D01*
X154949Y89066D02*
X156289Y89066D01*
X154949Y90766D02*
X156289D01*
X149591Y67846D02*
Y68796D01*
Y70986D02*
X149591Y70036D01*
X149591Y67846D02*
X150891D01*
X149591Y70986D02*
X150891Y70986D01*
X149508Y87150D02*
Y88100D01*
Y89340D02*
Y90290D01*
Y87150D02*
X150808D01*
X149508Y90290D02*
X150808Y90290D01*
X149555Y96802D02*
Y97752D01*
Y98992D02*
Y99942D01*
Y96802D02*
X150855D01*
X149555Y99942D02*
X150855D01*
X149825Y95846D02*
X151165D01*
X149825Y94146D02*
X151165D01*
X129317Y62548D02*
X129106D01*
X129212D01*
Y63182D01*
X129317Y63077D01*
X128788D02*
X128683Y63182D01*
X128471D01*
X128365Y63077D01*
Y62653D01*
X128471Y62548D01*
X128683D01*
X128788Y62653D01*
Y63077D01*
X128154Y63182D02*
Y62548D01*
Y62759D01*
X127731Y63182D01*
X128048Y62865D01*
X127731Y62548D01*
X108013Y86677D02*
X108225Y86572D01*
X108436Y86360D01*
Y86148D01*
X108331Y86043D01*
X108119D01*
X108013Y86148D01*
Y86254D01*
X108119Y86360D01*
X108436D01*
X107802Y86043D02*
X107590D01*
X107696D01*
Y86677D01*
X107802Y86572D01*
X107273Y86043D02*
Y86148D01*
X107167D01*
Y86043D01*
X107273D01*
X106744Y86148D02*
X106638Y86043D01*
X106426D01*
X106320Y86148D01*
Y86572D01*
X106426Y86677D01*
X106638D01*
X106744Y86572D01*
Y86466D01*
X106638Y86360D01*
X106320D01*
X106109Y86043D02*
Y86677D01*
X105791D01*
X105686Y86572D01*
Y86360D01*
X105791Y86254D01*
X106109D01*
X105897D02*
X105686Y86043D01*
X100287Y86170D02*
Y86804D01*
X100605Y86487D01*
X100182D01*
X99970Y86804D02*
X99547D01*
Y86699D01*
X99970Y86275D01*
Y86170D01*
X99335Y86699D02*
X99229Y86804D01*
X99018D01*
X98912Y86699D01*
Y86275D01*
X99018Y86170D01*
X99229D01*
X99335Y86275D01*
Y86699D01*
X98700Y86804D02*
Y86170D01*
Y86381D01*
X98277Y86804D01*
X98595Y86487D01*
X98277Y86170D01*
X147732Y65723D02*
Y66357D01*
X148050Y66040D01*
X147627D01*
X147415Y65723D02*
Y65828D01*
X147309D01*
Y65723D01*
X147415D01*
X146886Y66357D02*
X146463D01*
Y66252D01*
X146886Y65828D01*
Y65723D01*
X146251Y66357D02*
Y65723D01*
Y65934D01*
X145828Y66357D01*
X146146Y66040D01*
X145828Y65723D01*
X147732Y72200D02*
Y72834D01*
X148050Y72517D01*
X147627D01*
X147415Y72200D02*
Y72305D01*
X147309D01*
Y72200D01*
X147415D01*
X146886Y72834D02*
X146463D01*
Y72729D01*
X146886Y72305D01*
Y72200D01*
X146251Y72834D02*
Y72200D01*
Y72411D01*
X145828Y72834D01*
X146146Y72517D01*
X145828Y72200D01*
X147859Y75121D02*
Y75755D01*
X148177Y75438D01*
X147754D01*
X147542Y75121D02*
Y75226D01*
X147436D01*
Y75121D01*
X147542D01*
X147013Y75755D02*
X146590D01*
Y75650D01*
X147013Y75226D01*
Y75121D01*
X146378Y75755D02*
Y75121D01*
Y75332D01*
X145955Y75755D01*
X146273Y75438D01*
X145955Y75121D01*
X147732Y82106D02*
Y82740D01*
X148050Y82423D01*
X147627D01*
X147415Y82106D02*
Y82211D01*
X147309D01*
Y82106D01*
X147415D01*
X146886Y82740D02*
X146463D01*
Y82635D01*
X146886Y82211D01*
Y82106D01*
X146251Y82740D02*
Y82106D01*
Y82317D01*
X145828Y82740D01*
X146146Y82423D01*
X145828Y82106D01*
X146843Y85789D02*
Y86423D01*
X147161Y86106D01*
X146738D01*
X146526Y85789D02*
Y85894D01*
X146420D01*
Y85789D01*
X146526D01*
X145997Y86423D02*
X145574D01*
Y86318D01*
X145997Y85894D01*
Y85789D01*
X145362Y86423D02*
Y85789D01*
Y86000D01*
X144939Y86423D01*
X145257Y86106D01*
X144939Y85789D01*
X147605Y91631D02*
Y92265D01*
X147923Y91948D01*
X147500D01*
X147288Y91631D02*
Y91736D01*
X147182D01*
Y91631D01*
X147288D01*
X146759Y92265D02*
X146336D01*
Y92160D01*
X146759Y91736D01*
Y91631D01*
X146124Y92265D02*
Y91631D01*
Y91842D01*
X145701Y92265D01*
X146019Y91948D01*
X145701Y91631D01*
X151295Y94691D02*
Y95326D01*
X151613Y95009D01*
X151189D01*
X150978Y94691D02*
Y94797D01*
X150872D01*
Y94691D01*
X150978D01*
X150449Y95326D02*
X150026D01*
Y95220D01*
X150449Y94797D01*
Y94691D01*
X149814Y95326D02*
Y94691D01*
Y94903D01*
X149391Y95326D01*
X149708Y95009D01*
X149391Y94691D01*
X147859Y100775D02*
Y101409D01*
X148177Y101092D01*
X147754D01*
X147542Y100775D02*
Y100880D01*
X147436D01*
Y100775D01*
X147542D01*
X147013Y101409D02*
X146590D01*
Y101304D01*
X147013Y100880D01*
Y100775D01*
X146378Y101409D02*
Y100775D01*
Y100986D01*
X145955Y101409D01*
X146273Y101092D01*
X145955Y100775D01*
X132365Y59627D02*
X132154D01*
X132260D01*
Y60261D01*
X132365Y60156D01*
X131837D02*
X131731Y60261D01*
X131519D01*
X131413Y60156D01*
Y59732D01*
X131519Y59627D01*
X131731D01*
X131837Y59732D01*
Y60156D01*
X131202Y60261D02*
Y59627D01*
Y59838D01*
X130779Y60261D01*
X131096Y59944D01*
X130779Y59627D01*
D16*
X141948Y59113D02*
G03*
X141948Y59113I-100J0D01*
G01*
D17*
X147891Y85344D02*
X148280D01*
X147447Y85788D02*
X147891Y85344D01*
X147447Y85788D02*
Y87122D01*
D19*
X129299Y63375D02*
Y63879D01*
X129047D01*
X128963Y63795D01*
Y63627D01*
X129047Y63543D01*
X129299D01*
X129131D02*
X128963Y63375D01*
X128795D02*
X128627D01*
X128711D01*
Y63879D01*
X128795Y63795D01*
X128375D02*
X128291Y63879D01*
X128123D01*
X128039Y63795D01*
Y63459D01*
X128123Y63375D01*
X128291D01*
X128375Y63459D01*
Y63795D01*
X106527Y86997D02*
Y87501D01*
X106275D01*
X106191Y87417D01*
Y87249D01*
X106275Y87165D01*
X106527D01*
X106359D02*
X106191Y86997D01*
X106023Y87417D02*
X105939Y87501D01*
X105771D01*
X105687Y87417D01*
Y87333D01*
X105771Y87249D01*
X105687Y87165D01*
Y87081D01*
X105771Y86997D01*
X105939D01*
X106023Y87081D01*
Y87165D01*
X105939Y87249D01*
X106023Y87333D01*
Y87417D01*
X105939Y87249D02*
X105771D01*
X100561Y86997D02*
Y87501D01*
X100309D01*
X100225Y87417D01*
Y87249D01*
X100309Y87165D01*
X100561D01*
X100393D02*
X100225Y86997D01*
X100057Y87417D02*
X99973Y87501D01*
X99805D01*
X99721Y87417D01*
Y87333D01*
X99805Y87249D01*
X99721Y87165D01*
Y87081D01*
X99805Y86997D01*
X99973D01*
X100057Y87081D01*
Y87165D01*
X99973Y87249D01*
X100057Y87333D01*
Y87417D01*
X99973Y87249D02*
X99805D01*
X99217Y87501D02*
X99553D01*
Y87249D01*
X99385Y87333D01*
X99301D01*
X99217Y87249D01*
Y87081D01*
X99301Y86997D01*
X99469D01*
X99553Y87081D01*
X155532Y77955D02*
X155868D01*
Y77703D01*
X155700Y77787D01*
X155616D01*
X155532Y77703D01*
Y77535D01*
X155616Y77451D01*
X155784D01*
X155868Y77535D01*
X155364Y77955D02*
Y77619D01*
X155196Y77451D01*
X155028Y77619D01*
Y77955D01*
X155659Y97132D02*
X155995D01*
Y96880D01*
X155827Y96964D01*
X155743D01*
X155659Y96880D01*
Y96712D01*
X155743Y96628D01*
X155911D01*
X155995Y96712D01*
X155491Y97132D02*
Y96796D01*
X155323Y96628D01*
X155155Y96796D01*
Y97132D01*
X156271Y70837D02*
Y70501D01*
X156103Y70333D01*
X155935Y70501D01*
Y70837D01*
X155767D02*
X155599D01*
X155683D01*
Y70333D01*
X155767D01*
X155599D01*
X155347D02*
Y70837D01*
X155011Y70333D01*
Y70837D01*
X155659Y68303D02*
X155995D01*
Y68051D01*
X155827Y68135D01*
X155743D01*
X155659Y68051D01*
Y67883D01*
X155743Y67799D01*
X155911D01*
X155995Y67883D01*
X155491Y68303D02*
Y67967D01*
X155323Y67799D01*
X155155Y67967D01*
Y68303D01*
X155659Y87480D02*
X155995D01*
Y87228D01*
X155827Y87312D01*
X155743D01*
X155659Y87228D01*
Y87060D01*
X155743Y86976D01*
X155911D01*
X155995Y87060D01*
X155491Y87480D02*
Y87144D01*
X155323Y86976D01*
X155155Y87144D01*
Y87480D01*
X156078Y99841D02*
Y99505D01*
X155910Y99337D01*
X155742Y99505D01*
Y99841D01*
X155574D02*
X155406D01*
X155490D01*
Y99337D01*
X155574D01*
X155406D01*
X155154D02*
Y99841D01*
X154818Y99337D01*
Y99841D01*
X156332Y90189D02*
Y89853D01*
X156164Y89685D01*
X155996Y89853D01*
Y90189D01*
X155828D02*
X155660D01*
X155744D01*
Y89685D01*
X155828D01*
X155660D01*
X155408D02*
Y90189D01*
X155072Y89685D01*
Y90189D01*
X156205Y80537D02*
Y80201D01*
X156037Y80033D01*
X155869Y80201D01*
Y80537D01*
X155701D02*
X155533D01*
X155617D01*
Y80033D01*
X155701D01*
X155533D01*
X155281D02*
Y80537D01*
X154945Y80033D01*
Y80537D01*
X101407Y81575D02*
X101491Y81659D01*
X101659D01*
X101743Y81575D01*
Y81239D01*
X101659Y81155D01*
X101491D01*
X101407Y81239D01*
X101239Y81155D02*
X101071D01*
X101155D01*
Y81659D01*
X101239Y81575D01*
X100819D02*
X100735Y81659D01*
X100567D01*
X100483Y81575D01*
Y81491D01*
X100567Y81407D01*
X100651D01*
X100567D01*
X100483Y81323D01*
Y81239D01*
X100567Y81155D01*
X100735D01*
X100819Y81239D01*
X148130Y66601D02*
Y67105D01*
X147878D01*
X147794Y67021D01*
Y66853D01*
X147878Y66769D01*
X148130D01*
X147962D02*
X147794Y66601D01*
X147626Y67021D02*
X147542Y67105D01*
X147374D01*
X147290Y67021D01*
Y66937D01*
X147374Y66853D01*
X147458D01*
X147374D01*
X147290Y66769D01*
Y66685D01*
X147374Y66601D01*
X147542D01*
X147626Y66685D01*
X147122D02*
X147038Y66601D01*
X146870D01*
X146786Y66685D01*
Y67021D01*
X146870Y67105D01*
X147038D01*
X147122Y67021D01*
Y66937D01*
X147038Y66853D01*
X146786D01*
X148130Y72956D02*
Y73460D01*
X147878D01*
X147794Y73376D01*
Y73208D01*
X147878Y73124D01*
X148130D01*
X147962D02*
X147794Y72956D01*
X147626Y73376D02*
X147542Y73460D01*
X147374D01*
X147290Y73376D01*
Y73292D01*
X147374Y73208D01*
X147458D01*
X147374D01*
X147290Y73124D01*
Y73040D01*
X147374Y72956D01*
X147542D01*
X147626Y73040D01*
X147122Y73376D02*
X147038Y73460D01*
X146870D01*
X146786Y73376D01*
Y73292D01*
X146870Y73208D01*
X146786Y73124D01*
Y73040D01*
X146870Y72956D01*
X147038D01*
X147122Y73040D01*
Y73124D01*
X147038Y73208D01*
X147122Y73292D01*
Y73376D01*
X147038Y73208D02*
X146870D01*
X148186Y75948D02*
Y76452D01*
X147934D01*
X147850Y76368D01*
Y76200D01*
X147934Y76116D01*
X148186D01*
X148018D02*
X147850Y75948D01*
X147682Y76368D02*
X147598Y76452D01*
X147430D01*
X147346Y76368D01*
Y76284D01*
X147430Y76200D01*
X147514D01*
X147430D01*
X147346Y76116D01*
Y76032D01*
X147430Y75948D01*
X147598D01*
X147682Y76032D01*
X146842Y76452D02*
X147178D01*
Y76200D01*
X147010Y76284D01*
X146926D01*
X146842Y76200D01*
Y76032D01*
X146926Y75948D01*
X147094D01*
X147178Y76032D01*
X148059Y82933D02*
Y83437D01*
X147807D01*
X147723Y83353D01*
Y83185D01*
X147807Y83101D01*
X148059D01*
X147891D02*
X147723Y82933D01*
X147555Y83353D02*
X147471Y83437D01*
X147303D01*
X147219Y83353D01*
Y83269D01*
X147303Y83185D01*
X147387D01*
X147303D01*
X147219Y83101D01*
Y83017D01*
X147303Y82933D01*
X147471D01*
X147555Y83017D01*
X146799Y82933D02*
Y83437D01*
X147051Y83185D01*
X146715D01*
X147122Y86616D02*
Y87120D01*
X146870D01*
X146786Y87036D01*
Y86868D01*
X146870Y86784D01*
X147122D01*
X146954D02*
X146786Y86616D01*
X146618Y87036D02*
X146534Y87120D01*
X146366D01*
X146282Y87036D01*
Y86952D01*
X146366Y86868D01*
X146450D01*
X146366D01*
X146282Y86784D01*
Y86700D01*
X146366Y86616D01*
X146534D01*
X146618Y86700D01*
X146114Y86616D02*
X145946D01*
X146030D01*
Y87120D01*
X146114Y87036D01*
X147932Y92458D02*
Y92962D01*
X147680D01*
X147596Y92878D01*
Y92710D01*
X147680Y92626D01*
X147932D01*
X147764D02*
X147596Y92458D01*
X147428Y92878D02*
X147344Y92962D01*
X147176D01*
X147092Y92878D01*
Y92794D01*
X147176Y92710D01*
X147260D01*
X147176D01*
X147092Y92626D01*
Y92542D01*
X147176Y92458D01*
X147344D01*
X147428Y92542D01*
X146924Y92878D02*
X146840Y92962D01*
X146672D01*
X146588Y92878D01*
Y92542D01*
X146672Y92458D01*
X146840D01*
X146924Y92542D01*
Y92878D01*
X148099Y94742D02*
Y95246D01*
X147847D01*
X147764Y95162D01*
Y94994D01*
X147847Y94910D01*
X148099D01*
X147931D02*
X147764Y94742D01*
X147260D02*
X147596D01*
X147260Y95078D01*
Y95162D01*
X147344Y95246D01*
X147512D01*
X147596Y95162D01*
X147092Y95246D02*
X146756D01*
Y95162D01*
X147092Y94826D01*
Y94742D01*
X148119Y101623D02*
Y102127D01*
X147867D01*
X147783Y102043D01*
Y101875D01*
X147867Y101791D01*
X148119D01*
X147951D02*
X147783Y101623D01*
X147279D02*
X147615D01*
X147279Y101959D01*
Y102043D01*
X147363Y102127D01*
X147531D01*
X147615Y102043D01*
X146775Y102127D02*
X146943Y102043D01*
X147111Y101875D01*
Y101707D01*
X147027Y101623D01*
X146859D01*
X146775Y101707D01*
Y101791D01*
X146859Y101875D01*
X147111D01*
X147701Y69322D02*
X148037D01*
X148121Y69238D01*
Y69070D01*
X148037Y68986D01*
X147701D01*
X147617Y69070D01*
Y69238D01*
X147785Y69154D02*
X147617Y69322D01*
Y69238D02*
X147701Y69322D01*
X148121Y69826D02*
Y69490D01*
X147869D01*
X147953Y69658D01*
Y69742D01*
X147869Y69826D01*
X147701D01*
X147617Y69742D01*
Y69574D01*
X147701Y69490D01*
Y79228D02*
X148037D01*
X148121Y79144D01*
Y78976D01*
X148037Y78892D01*
X147701D01*
X147617Y78976D01*
Y79144D01*
X147785Y79060D02*
X147617Y79228D01*
Y79144D02*
X147701Y79228D01*
X147617Y79648D02*
X148121D01*
X147869Y79396D01*
Y79732D01*
X147625Y88626D02*
X147960D01*
X148044Y88542D01*
Y88374D01*
X147960Y88290D01*
X147625D01*
X147541Y88374D01*
Y88542D01*
X147709Y88458D02*
X147541Y88626D01*
Y88542D02*
X147625Y88626D01*
X147960Y88794D02*
X148044Y88878D01*
Y89046D01*
X147960Y89130D01*
X147876D01*
X147793Y89046D01*
Y88962D01*
Y89046D01*
X147709Y89130D01*
X147625D01*
X147541Y89046D01*
Y88878D01*
X147625Y88794D01*
X147710Y98288D02*
X148046D01*
X148130Y98204D01*
Y98036D01*
X148046Y97952D01*
X147710D01*
X147626Y98036D01*
Y98204D01*
X147794Y98120D02*
X147626Y98288D01*
Y98204D02*
X147710Y98288D01*
X147626Y98792D02*
Y98456D01*
X147962Y98792D01*
X148046D01*
X148130Y98708D01*
Y98540D01*
X148046Y98456D01*
X132311Y60454D02*
Y60958D01*
X132059D01*
X131975Y60874D01*
Y60706D01*
X132059Y60622D01*
X132311D01*
X132143D02*
X131975Y60454D01*
X131471D02*
X131807D01*
X131471Y60790D01*
Y60874D01*
X131555Y60958D01*
X131723D01*
X131807Y60874D01*
X133517Y62781D02*
X133601Y62697D01*
Y62529D01*
X133517Y62445D01*
X133181D01*
X133097Y62529D01*
Y62697D01*
X133181Y62781D01*
X133517Y62949D02*
X133601Y63033D01*
Y63201D01*
X133517Y63285D01*
X133433D01*
X133349Y63201D01*
X133265Y63285D01*
X133181D01*
X133097Y63201D01*
Y63033D01*
X133181Y62949D01*
X133265D01*
X133349Y63033D01*
X133433Y62949D01*
X133517D01*
X133349Y63033D02*
Y63201D01*
X136057Y62781D02*
X136141Y62697D01*
Y62529D01*
X136057Y62445D01*
X135721D01*
X135637Y62529D01*
Y62697D01*
X135721Y62781D01*
Y62949D02*
X135637Y63033D01*
Y63201D01*
X135721Y63285D01*
X136057D01*
X136141Y63201D01*
Y63033D01*
X136057Y62949D01*
X135973D01*
X135889Y63033D01*
Y63285D01*
X140805Y57054D02*
Y56886D01*
Y56970D01*
X140386D01*
X140302Y56886D01*
Y56802D01*
X140386Y56718D01*
X140805Y57222D02*
Y57558D01*
X140721D01*
X140386Y57222D01*
X140302D01*
M02*
