G04*
G04 #@! TF.GenerationSoftware,Altium Limited,Altium Designer,22.2.1 (43)*
G04*
G04 Layer_Color=2752767*
%FSLAX43Y43*%
%MOMM*%
G71*
G04*
G04 #@! TF.SameCoordinates,D3EB6253-BFD4-4380-A103-C90408D97D60*
G04*
G04*
G04 #@! TF.FilePolarity,Positive*
G04*
G01*
G75*
%ADD16C,0.051*%
%ADD181C,0.068*%
%ADD182C,0.034*%
D16*
X84633Y58598D02*
Y59004D01*
X85039D01*
Y58598D01*
X84633D01*
X133477Y111170D02*
X133274Y111576D01*
X133680D01*
X133477Y111170D01*
Y108890D02*
X133274Y109296D01*
X133680D01*
X133477Y108890D01*
Y106610D02*
X133274Y107016D01*
X133680D01*
X133477Y106610D01*
X94201Y67869D02*
X94303Y67970D01*
X94404D01*
X94303Y68072D01*
X94404Y68174D01*
X94303D01*
X94201Y68275D01*
X94099Y68174D01*
X93998D01*
X94099Y68072D01*
X93998Y67970D01*
X94099D01*
X94201Y67869D01*
Y70409D02*
X94303Y70510D01*
X94404D01*
X94303Y70612D01*
X94404Y70714D01*
X94303D01*
X94201Y70815D01*
X94099Y70714D01*
X93998D01*
X94099Y70612D01*
X93998Y70510D01*
X94099D01*
X94201Y70409D01*
Y65329D02*
X94303Y65430D01*
X94404D01*
X94303Y65532D01*
X94404Y65634D01*
X94303D01*
X94201Y65735D01*
X94099Y65634D01*
X93998D01*
X94099Y65532D01*
X93998Y65430D01*
X94099D01*
X94201Y65329D01*
Y62789D02*
X94303Y62890D01*
X94404D01*
X94303Y62992D01*
X94404Y63094D01*
X94303D01*
X94201Y63195D01*
X94099Y63094D01*
X93998D01*
X94099Y62992D01*
X93998Y62890D01*
X94099D01*
X94201Y62789D01*
X102141D02*
X102243Y62890D01*
X102344D01*
X102243Y62992D01*
X102344Y63094D01*
X102243D01*
X102141Y63195D01*
X102039Y63094D01*
X101938D01*
X102039Y62992D01*
X101938Y62890D01*
X102039D01*
X102141Y62789D01*
Y65329D02*
X102243Y65430D01*
X102344D01*
X102243Y65532D01*
X102344Y65634D01*
X102243D01*
X102141Y65735D01*
X102039Y65634D01*
X101938D01*
X102039Y65532D01*
X101938Y65430D01*
X102039D01*
X102141Y65329D01*
Y67869D02*
X102243Y67970D01*
X102344D01*
X102243Y68072D01*
X102344Y68174D01*
X102243D01*
X102141Y68275D01*
X102039Y68174D01*
X101938D01*
X102039Y68072D01*
X101938Y67970D01*
X102039D01*
X102141Y67869D01*
Y70409D02*
X102243Y70510D01*
X102344D01*
X102243Y70612D01*
X102344Y70714D01*
X102243D01*
X102141Y70815D01*
X102039Y70714D01*
X101938D01*
X102039Y70612D01*
X101938Y70510D01*
X102039D01*
X102141Y70409D01*
X55804Y83109D02*
X55905Y83312D01*
X55804Y83515D01*
X56007Y83414D01*
X56210Y83515D01*
X56109Y83312D01*
X56210Y83109D01*
X56007Y83210D01*
X55804Y83109D01*
Y80569D02*
X55905Y80772D01*
X55804Y80975D01*
X56007Y80874D01*
X56210Y80975D01*
X56109Y80772D01*
X56210Y80569D01*
X56007Y80670D01*
X55804Y80569D01*
Y78029D02*
X55905Y78232D01*
X55804Y78435D01*
X56007Y78334D01*
X56210Y78435D01*
X56109Y78232D01*
X56210Y78029D01*
X56007Y78130D01*
X55804Y78029D01*
X55931Y94539D02*
X56032Y94742D01*
X55931Y94945D01*
X56134Y94844D01*
X56337Y94945D01*
X56236Y94742D01*
X56337Y94539D01*
X56134Y94640D01*
X55931Y94539D01*
Y91999D02*
X56032Y92202D01*
X55931Y92405D01*
X56134Y92304D01*
X56337Y92405D01*
X56236Y92202D01*
X56337Y91999D01*
X56134Y92100D01*
X55931Y91999D01*
Y89459D02*
X56032Y89662D01*
X55931Y89865D01*
X56134Y89764D01*
X56337Y89865D01*
X56236Y89662D01*
X56337Y89459D01*
X56134Y89560D01*
X55931Y89459D01*
X48793Y97815D02*
Y97714D01*
X48997D01*
Y97815D01*
X49098D01*
Y98019D01*
X48997D01*
Y98120D01*
X48793D01*
Y98019D01*
X48692D01*
Y97815D01*
X48793D01*
Y95275D02*
Y95174D01*
X48997D01*
Y95275D01*
X49098D01*
Y95479D01*
X48997D01*
Y95580D01*
X48793D01*
Y95479D01*
X48692D01*
Y95275D01*
X48793D01*
Y92735D02*
Y92634D01*
X48997D01*
Y92735D01*
X49098D01*
Y92939D01*
X48997D01*
Y93040D01*
X48793D01*
Y92939D01*
X48692D01*
Y92735D01*
X48793D01*
Y90195D02*
Y90094D01*
X48997D01*
Y90195D01*
X49098D01*
Y90399D01*
X48997D01*
Y90500D01*
X48793D01*
Y90399D01*
X48692D01*
Y90195D01*
X48793D01*
X41173D02*
Y90094D01*
X41377D01*
Y90195D01*
X41478D01*
Y90399D01*
X41377D01*
Y90500D01*
X41173D01*
Y90399D01*
X41072D01*
Y90195D01*
X41173D01*
Y92735D02*
Y92634D01*
X41377D01*
Y92735D01*
X41478D01*
Y92939D01*
X41377D01*
Y93040D01*
X41173D01*
Y92939D01*
X41072D01*
Y92735D01*
X41173D01*
Y95275D02*
Y95174D01*
X41377D01*
Y95275D01*
X41478D01*
Y95479D01*
X41377D01*
Y95580D01*
X41173D01*
Y95479D01*
X41072D01*
Y95275D01*
X41173D01*
Y97815D02*
Y97714D01*
X41377D01*
Y97815D01*
X41478D01*
Y98019D01*
X41377D01*
Y98120D01*
X41173D01*
Y98019D01*
X41072D01*
Y97815D01*
X41173D01*
X48666Y109880D02*
Y109779D01*
X48870D01*
Y109880D01*
X48971D01*
Y110084D01*
X48870D01*
Y110185D01*
X48666D01*
Y110084D01*
X48565D01*
Y109880D01*
X48666D01*
Y107340D02*
Y107239D01*
X48870D01*
Y107340D01*
X48971D01*
Y107544D01*
X48870D01*
Y107645D01*
X48666D01*
Y107544D01*
X48565D01*
Y107340D01*
X48666D01*
Y104800D02*
Y104699D01*
X48870D01*
Y104800D01*
X48971D01*
Y105004D01*
X48870D01*
Y105105D01*
X48666D01*
Y105004D01*
X48565D01*
Y104800D01*
X48666D01*
Y102260D02*
Y102159D01*
X48870D01*
Y102260D01*
X48971D01*
Y102464D01*
X48870D01*
Y102565D01*
X48666D01*
Y102464D01*
X48565D01*
Y102260D01*
X48666D01*
X41046D02*
Y102159D01*
X41250D01*
Y102260D01*
X41351D01*
Y102464D01*
X41250D01*
Y102565D01*
X41046D01*
Y102464D01*
X40945D01*
Y102260D01*
X41046D01*
Y104800D02*
Y104699D01*
X41250D01*
Y104800D01*
X41351D01*
Y105004D01*
X41250D01*
Y105105D01*
X41046D01*
Y105004D01*
X40945D01*
Y104800D01*
X41046D01*
Y107340D02*
Y107239D01*
X41250D01*
Y107340D01*
X41351D01*
Y107544D01*
X41250D01*
Y107645D01*
X41046D01*
Y107544D01*
X40945D01*
Y107340D01*
X41046D01*
Y109880D02*
Y109779D01*
X41250D01*
Y109880D01*
X41351D01*
Y110084D01*
X41250D01*
Y110185D01*
X41046D01*
Y110084D01*
X40945D01*
Y109880D01*
X41046D01*
X76211Y109398D02*
X76312D01*
X76414Y109499D01*
X76516Y109398D01*
X76617D01*
Y109499D01*
X76516Y109601D01*
X76617Y109703D01*
Y109804D01*
X76516D01*
X76414Y109703D01*
X76312Y109804D01*
X76211D01*
Y109703D01*
X76312Y109601D01*
X76211Y109499D01*
Y109398D01*
X71211D02*
X71312D01*
X71414Y109499D01*
X71516Y109398D01*
X71617D01*
Y109499D01*
X71516Y109601D01*
X71617Y109703D01*
Y109804D01*
X71516D01*
X71414Y109703D01*
X71312Y109804D01*
X71211D01*
Y109703D01*
X71312Y109601D01*
X71211Y109499D01*
Y109398D01*
X62855Y122047D02*
X63058Y122250D01*
X63261Y122047D01*
X63058Y121844D01*
X62855Y122047D01*
X53325D02*
X53528Y122250D01*
X53731Y122047D01*
X53528Y121844D01*
X53325Y122047D01*
X31801Y83231D02*
Y83637D01*
X32207D01*
Y83231D01*
X31801D01*
X31902Y83332D02*
Y83536D01*
X32106D01*
Y83332D01*
X31902D01*
X31801Y80696D02*
Y81102D01*
X32207D01*
Y80696D01*
X31801D01*
X31902Y80797D02*
Y81001D01*
X32106D01*
Y80797D01*
X31902D01*
X31801Y78161D02*
Y78567D01*
X32207D01*
Y78161D01*
X31801D01*
X31902Y78262D02*
Y78466D01*
X32106D01*
Y78262D01*
X31902D01*
X31674Y96056D02*
Y96463D01*
X32080D01*
Y96056D01*
X31674D01*
X31775Y96158D02*
Y96361D01*
X31979D01*
Y96158D01*
X31775D01*
X31674Y93521D02*
Y93928D01*
X32080D01*
Y93521D01*
X31674D01*
X31775Y93623D02*
Y93826D01*
X31979D01*
Y93623D01*
X31775D01*
X31674Y90986D02*
Y91393D01*
X32080D01*
Y90986D01*
X31674D01*
X31775Y91088D02*
Y91291D01*
X31979D01*
Y91088D01*
X31775D01*
X31674Y108881D02*
Y109288D01*
X32080D01*
Y108881D01*
X31674D01*
X31775Y108983D02*
Y109186D01*
X31979D01*
Y108983D01*
X31775D01*
X31674Y106346D02*
Y106753D01*
X32080D01*
Y106346D01*
X31674D01*
X31775Y106448D02*
Y106651D01*
X31979D01*
Y106448D01*
X31775D01*
X31674Y103811D02*
Y104218D01*
X32080D01*
Y103811D01*
X31674D01*
X31775Y103913D02*
Y104116D01*
X31979D01*
Y103913D01*
X31775D01*
X31674Y121707D02*
Y122113D01*
X32080D01*
Y121707D01*
X31674D01*
X31775Y121808D02*
Y122012D01*
X31979D01*
Y121808D01*
X31775D01*
X31674Y119172D02*
Y119578D01*
X32080D01*
Y119172D01*
X31674D01*
X31775Y119273D02*
Y119477D01*
X31979D01*
Y119273D01*
X31775D01*
X31674Y116637D02*
Y117043D01*
X32080D01*
Y116637D01*
X31674D01*
X31775Y116738D02*
Y116942D01*
X31979D01*
Y116738D01*
X31775D01*
X102014Y59487D02*
X102116Y59588D01*
X102217D01*
X102116Y59690D01*
X102217Y59792D01*
X102116D01*
X102014Y59893D01*
X101912Y59792D01*
X101811D01*
X101912Y59690D01*
X101811Y59588D01*
X101912D01*
X102014Y59487D01*
Y56947D02*
X102116Y57048D01*
X102217D01*
X102116Y57150D01*
X102217Y57252D01*
X102116D01*
X102014Y57353D01*
X101912Y57252D01*
X101811D01*
X101912Y57150D01*
X101811Y57048D01*
X101912D01*
X102014Y56947D01*
Y54407D02*
X102116Y54508D01*
X102217D01*
X102116Y54610D01*
X102217Y54712D01*
X102116D01*
X102014Y54813D01*
X101912Y54712D01*
X101811D01*
X101912Y54610D01*
X101811Y54508D01*
X101912D01*
X102014Y54407D01*
Y51867D02*
X102116Y51968D01*
X102217D01*
X102116Y52070D01*
X102217Y52172D01*
X102116D01*
X102014Y52273D01*
X101912Y52172D01*
X101811D01*
X101912Y52070D01*
X101811Y51968D01*
X101912D01*
X102014Y51867D01*
X94074D02*
X94176Y51968D01*
X94277D01*
X94176Y52070D01*
X94277Y52172D01*
X94176D01*
X94074Y52273D01*
X93972Y52172D01*
X93871D01*
X93972Y52070D01*
X93871Y51968D01*
X93972D01*
X94074Y51867D01*
Y54407D02*
X94176Y54508D01*
X94277D01*
X94176Y54610D01*
X94277Y54712D01*
X94176D01*
X94074Y54813D01*
X93972Y54712D01*
X93871D01*
X93972Y54610D01*
X93871Y54508D01*
X93972D01*
X94074Y54407D01*
Y59487D02*
X94176Y59588D01*
X94277D01*
X94176Y59690D01*
X94277Y59792D01*
X94176D01*
X94074Y59893D01*
X93972Y59792D01*
X93871D01*
X93972Y59690D01*
X93871Y59588D01*
X93972D01*
X94074Y59487D01*
Y56947D02*
X94176Y57048D01*
X94277D01*
X94176Y57150D01*
X94277Y57252D01*
X94176D01*
X94074Y57353D01*
X93972Y57252D01*
X93871D01*
X93972Y57150D01*
X93871Y57048D01*
X93972D01*
X94074Y56947D01*
Y46025D02*
X94176Y46126D01*
X94277D01*
X94176Y46228D01*
X94277Y46330D01*
X94176D01*
X94074Y46431D01*
X93972Y46330D01*
X93871D01*
X93972Y46228D01*
X93871Y46126D01*
X93972D01*
X94074Y46025D01*
Y48565D02*
X94176Y48666D01*
X94277D01*
X94176Y48768D01*
X94277Y48870D01*
X94176D01*
X94074Y48971D01*
X93972Y48870D01*
X93871D01*
X93972Y48768D01*
X93871Y48666D01*
X93972D01*
X94074Y48565D01*
Y43485D02*
X94176Y43586D01*
X94277D01*
X94176Y43688D01*
X94277Y43790D01*
X94176D01*
X94074Y43891D01*
X93972Y43790D01*
X93871D01*
X93972Y43688D01*
X93871Y43586D01*
X93972D01*
X94074Y43485D01*
Y40945D02*
X94176Y41046D01*
X94277D01*
X94176Y41148D01*
X94277Y41250D01*
X94176D01*
X94074Y41351D01*
X93972Y41250D01*
X93871D01*
X93972Y41148D01*
X93871Y41046D01*
X93972D01*
X94074Y40945D01*
X102014D02*
X102116Y41046D01*
X102217D01*
X102116Y41148D01*
X102217Y41250D01*
X102116D01*
X102014Y41351D01*
X101912Y41250D01*
X101811D01*
X101912Y41148D01*
X101811Y41046D01*
X101912D01*
X102014Y40945D01*
Y43485D02*
X102116Y43586D01*
X102217D01*
X102116Y43688D01*
X102217Y43790D01*
X102116D01*
X102014Y43891D01*
X101912Y43790D01*
X101811D01*
X101912Y43688D01*
X101811Y43586D01*
X101912D01*
X102014Y43485D01*
Y46025D02*
X102116Y46126D01*
X102217D01*
X102116Y46228D01*
X102217Y46330D01*
X102116D01*
X102014Y46431D01*
X101912Y46330D01*
X101811D01*
X101912Y46228D01*
X101811Y46126D01*
X101912D01*
X102014Y46025D01*
Y48565D02*
X102116Y48666D01*
X102217D01*
X102116Y48768D01*
X102217Y48870D01*
X102116D01*
X102014Y48971D01*
X101912Y48870D01*
X101811D01*
X101912Y48768D01*
X101811Y48666D01*
X101912D01*
X102014Y48565D01*
X94201Y35103D02*
X94303Y35204D01*
X94404D01*
X94303Y35306D01*
X94404Y35408D01*
X94303D01*
X94201Y35509D01*
X94099Y35408D01*
X93998D01*
X94099Y35306D01*
X93998Y35204D01*
X94099D01*
X94201Y35103D01*
Y37643D02*
X94303Y37744D01*
X94404D01*
X94303Y37846D01*
X94404Y37948D01*
X94303D01*
X94201Y38049D01*
X94099Y37948D01*
X93998D01*
X94099Y37846D01*
X93998Y37744D01*
X94099D01*
X94201Y37643D01*
Y32563D02*
X94303Y32664D01*
X94404D01*
X94303Y32766D01*
X94404Y32868D01*
X94303D01*
X94201Y32969D01*
X94099Y32868D01*
X93998D01*
X94099Y32766D01*
X93998Y32664D01*
X94099D01*
X94201Y32563D01*
Y30023D02*
X94303Y30124D01*
X94404D01*
X94303Y30226D01*
X94404Y30328D01*
X94303D01*
X94201Y30429D01*
X94099Y30328D01*
X93998D01*
X94099Y30226D01*
X93998Y30124D01*
X94099D01*
X94201Y30023D01*
X102141D02*
X102243Y30124D01*
X102344D01*
X102243Y30226D01*
X102344Y30328D01*
X102243D01*
X102141Y30429D01*
X102039Y30328D01*
X101938D01*
X102039Y30226D01*
X101938Y30124D01*
X102039D01*
X102141Y30023D01*
Y32563D02*
X102243Y32664D01*
X102344D01*
X102243Y32766D01*
X102344Y32868D01*
X102243D01*
X102141Y32969D01*
X102039Y32868D01*
X101938D01*
X102039Y32766D01*
X101938Y32664D01*
X102039D01*
X102141Y32563D01*
Y35103D02*
X102243Y35204D01*
X102344D01*
X102243Y35306D01*
X102344Y35408D01*
X102243D01*
X102141Y35509D01*
X102039Y35408D01*
X101938D01*
X102039Y35306D01*
X101938Y35204D01*
X102039D01*
X102141Y35103D01*
Y37643D02*
X102243Y37744D01*
X102344D01*
X102243Y37846D01*
X102344Y37948D01*
X102243D01*
X102141Y38049D01*
X102039Y37948D01*
X101938D01*
X102039Y37846D01*
X101938Y37744D01*
X102039D01*
X102141Y37643D01*
X162611Y61646D02*
X162408Y62052D01*
X162814D01*
X162611Y61646D01*
Y61747D02*
X162509Y61951D01*
X162712D01*
X162611Y61747D01*
X165100Y61646D02*
X164897Y62052D01*
X165303D01*
X165100Y61646D01*
Y61747D02*
X164998Y61951D01*
X165202D01*
X165100Y61747D01*
X167615Y61646D02*
X167411Y62052D01*
X167818D01*
X167615Y61646D01*
Y61747D02*
X167513Y61951D01*
X167716D01*
X167615Y61747D01*
X170104Y61646D02*
X169901Y62052D01*
X170307D01*
X170104Y61646D01*
Y61747D02*
X170002Y61951D01*
X170205D01*
X170104Y61747D01*
X162611Y64135D02*
X162408Y64541D01*
X162814D01*
X162611Y64135D01*
Y64237D02*
X162509Y64440D01*
X162712D01*
X162611Y64237D01*
X165100Y64135D02*
X164897Y64541D01*
X165303D01*
X165100Y64135D01*
Y64237D02*
X164998Y64440D01*
X165202D01*
X165100Y64237D01*
X167615Y64135D02*
X167411Y64541D01*
X167818D01*
X167615Y64135D01*
Y64237D02*
X167513Y64440D01*
X167716D01*
X167615Y64237D01*
X170104Y64135D02*
X169901Y64541D01*
X170307D01*
X170104Y64135D01*
Y64237D02*
X170002Y64440D01*
X170205D01*
X170104Y64237D01*
X162611Y66650D02*
X162408Y67056D01*
X162814D01*
X162611Y66650D01*
Y66751D02*
X162509Y66954D01*
X162712D01*
X162611Y66751D01*
X165100Y66650D02*
X164897Y67056D01*
X165303D01*
X165100Y66650D01*
Y66751D02*
X164998Y66954D01*
X165202D01*
X165100Y66751D01*
X167615Y66650D02*
X167411Y67056D01*
X167818D01*
X167615Y66650D01*
Y66751D02*
X167513Y66954D01*
X167716D01*
X167615Y66751D01*
X170104Y66650D02*
X169901Y67056D01*
X170307D01*
X170104Y66650D01*
Y66751D02*
X170002Y66954D01*
X170205D01*
X170104Y66751D01*
X162611Y69139D02*
X162408Y69545D01*
X162814D01*
X162611Y69139D01*
Y69240D02*
X162509Y69444D01*
X162712D01*
X162611Y69240D01*
X165100Y69139D02*
X164897Y69545D01*
X165303D01*
X165100Y69139D01*
Y69240D02*
X164998Y69444D01*
X165202D01*
X165100Y69240D01*
X167615Y69139D02*
X167411Y69545D01*
X167818D01*
X167615Y69139D01*
Y69240D02*
X167513Y69444D01*
X167716D01*
X167615Y69240D01*
X170104Y69139D02*
X169901Y69545D01*
X170307D01*
X170104Y69139D01*
Y69240D02*
X170002Y69444D01*
X170205D01*
X170104Y69240D01*
X162611Y71653D02*
X162408Y72060D01*
X162814D01*
X162611Y71653D01*
Y71755D02*
X162509Y71958D01*
X162712D01*
X162611Y71755D01*
X165100Y71653D02*
X164897Y72060D01*
X165303D01*
X165100Y71653D01*
Y71755D02*
X164998Y71958D01*
X165202D01*
X165100Y71755D01*
X167615Y71653D02*
X167411Y72060D01*
X167818D01*
X167615Y71653D01*
Y71755D02*
X167513Y71958D01*
X167716D01*
X167615Y71755D01*
X170104Y71653D02*
X169901Y72060D01*
X170307D01*
X170104Y71653D01*
Y71755D02*
X170002Y71958D01*
X170205D01*
X170104Y71755D01*
X162611Y74143D02*
X162408Y74549D01*
X162814D01*
X162611Y74143D01*
Y74244D02*
X162509Y74447D01*
X162712D01*
X162611Y74244D01*
X165100Y74143D02*
X164897Y74549D01*
X165303D01*
X165100Y74143D01*
Y74244D02*
X164998Y74447D01*
X165202D01*
X165100Y74244D01*
X167615Y74143D02*
X167411Y74549D01*
X167818D01*
X167615Y74143D01*
Y74244D02*
X167513Y74447D01*
X167716D01*
X167615Y74244D01*
X170104Y74143D02*
X169901Y74549D01*
X170307D01*
X170104Y74143D01*
Y74244D02*
X170002Y74447D01*
X170205D01*
X170104Y74244D01*
X162611Y76657D02*
X162408Y77064D01*
X162814D01*
X162611Y76657D01*
Y76759D02*
X162509Y76962D01*
X162712D01*
X162611Y76759D01*
X165100Y76657D02*
X164897Y77064D01*
X165303D01*
X165100Y76657D01*
Y76759D02*
X164998Y76962D01*
X165202D01*
X165100Y76759D01*
X167615Y76657D02*
X167411Y77064D01*
X167818D01*
X167615Y76657D01*
Y76759D02*
X167513Y76962D01*
X167716D01*
X167615Y76759D01*
X170104Y76657D02*
X169901Y77064D01*
X170307D01*
X170104Y76657D01*
Y76759D02*
X170002Y76962D01*
X170205D01*
X170104Y76759D01*
X162611Y79146D02*
X162408Y79553D01*
X162814D01*
X162611Y79146D01*
Y79248D02*
X162509Y79451D01*
X162712D01*
X162611Y79248D01*
X165100Y79146D02*
X164897Y79553D01*
X165303D01*
X165100Y79146D01*
Y79248D02*
X164998Y79451D01*
X165202D01*
X165100Y79248D01*
X167615Y79146D02*
X167411Y79553D01*
X167818D01*
X167615Y79146D01*
Y79248D02*
X167513Y79451D01*
X167716D01*
X167615Y79248D01*
X170104Y79146D02*
X169901Y79553D01*
X170307D01*
X170104Y79146D01*
Y79248D02*
X170002Y79451D01*
X170205D01*
X170104Y79248D01*
X162611Y81636D02*
X162408Y82042D01*
X162814D01*
X162611Y81636D01*
Y81737D02*
X162509Y81940D01*
X162712D01*
X162611Y81737D01*
X165100Y81636D02*
X164897Y82042D01*
X165303D01*
X165100Y81636D01*
Y81737D02*
X164998Y81940D01*
X165202D01*
X165100Y81737D01*
X167615Y81636D02*
X167411Y82042D01*
X167818D01*
X167615Y81636D01*
Y81737D02*
X167513Y81940D01*
X167716D01*
X167615Y81737D01*
X170104Y81636D02*
X169901Y82042D01*
X170307D01*
X170104Y81636D01*
Y81737D02*
X170002Y81940D01*
X170205D01*
X170104Y81737D01*
X162611Y84150D02*
X162408Y84557D01*
X162814D01*
X162611Y84150D01*
Y84252D02*
X162509Y84455D01*
X162712D01*
X162611Y84252D01*
X165100Y84150D02*
X164897Y84557D01*
X165303D01*
X165100Y84150D01*
Y84252D02*
X164998Y84455D01*
X165202D01*
X165100Y84252D01*
X167615Y84150D02*
X167411Y84557D01*
X167818D01*
X167615Y84150D01*
Y84252D02*
X167513Y84455D01*
X167716D01*
X167615Y84252D01*
X170104Y84150D02*
X169901Y84557D01*
X170307D01*
X170104Y84150D01*
Y84252D02*
X170002Y84455D01*
X170205D01*
X170104Y84252D01*
X162611Y87655D02*
X162408Y88062D01*
X162814D01*
X162611Y87655D01*
Y87757D02*
X162509Y87960D01*
X162712D01*
X162611Y87757D01*
X165100Y87655D02*
X164897Y88062D01*
X165303D01*
X165100Y87655D01*
Y87757D02*
X164998Y87960D01*
X165202D01*
X165100Y87757D01*
X167615Y87655D02*
X167411Y88062D01*
X167818D01*
X167615Y87655D01*
Y87757D02*
X167513Y87960D01*
X167716D01*
X167615Y87757D01*
X170104Y87655D02*
X169901Y88062D01*
X170307D01*
X170104Y87655D01*
Y87757D02*
X170002Y87960D01*
X170205D01*
X170104Y87757D01*
X162611Y91338D02*
X162408Y91745D01*
X162814D01*
X162611Y91338D01*
Y91440D02*
X162509Y91643D01*
X162712D01*
X162611Y91440D01*
X165100Y91338D02*
X164897Y91745D01*
X165303D01*
X165100Y91338D01*
Y91440D02*
X164998Y91643D01*
X165202D01*
X165100Y91440D01*
X167615Y91338D02*
X167411Y91745D01*
X167818D01*
X167615Y91338D01*
Y91440D02*
X167513Y91643D01*
X167716D01*
X167615Y91440D01*
X170104Y91338D02*
X169901Y91745D01*
X170307D01*
X170104Y91338D01*
Y91440D02*
X170002Y91643D01*
X170205D01*
X170104Y91440D01*
X161620Y55194D02*
X161722Y55296D01*
X161823D01*
X161722Y55397D01*
X161823Y55499D01*
X161722D01*
X161620Y55601D01*
X161519Y55499D01*
X161417D01*
X161519Y55397D01*
X161417Y55296D01*
X161519D01*
X161620Y55194D01*
Y55296D02*
X161671Y55347D01*
X161722D01*
X161671Y55397D01*
X161722Y55448D01*
X161671D01*
X161620Y55499D01*
X161569Y55448D01*
X161519D01*
X161569Y55397D01*
X161519Y55347D01*
X161569D01*
X161620Y55296D01*
Y97790D02*
X161722Y97892D01*
X161823D01*
X161722Y97993D01*
X161823Y98095D01*
X161722D01*
X161620Y98196D01*
X161519Y98095D01*
X161417D01*
X161519Y97993D01*
X161417Y97892D01*
X161519D01*
X161620Y97790D01*
Y97892D02*
X161671Y97942D01*
X161722D01*
X161671Y97993D01*
X161722Y98044D01*
X161671D01*
X161620Y98095D01*
X161569Y98044D01*
X161519D01*
X161569Y97993D01*
X161519Y97942D01*
X161569D01*
X161620Y97892D01*
X165252Y51105D02*
X165354Y51308D01*
X165252Y51511D01*
X165456Y51410D01*
X165659Y51511D01*
X165557Y51308D01*
X165659Y51105D01*
X165456Y51206D01*
X165252Y51105D01*
X165354Y51206D02*
X165405Y51308D01*
X165354Y51410D01*
X165456Y51359D01*
X165557Y51410D01*
X165506Y51308D01*
X165557Y51206D01*
X165456Y51257D01*
X165354Y51206D01*
X165252Y101905D02*
X165354Y102108D01*
X165252Y102311D01*
X165456Y102210D01*
X165659Y102311D01*
X165557Y102108D01*
X165659Y101905D01*
X165456Y102006D01*
X165252Y101905D01*
X165354Y102006D02*
X165405Y102108D01*
X165354Y102210D01*
X165456Y102159D01*
X165557Y102210D01*
X165506Y102108D01*
X165557Y102006D01*
X165456Y102057D01*
X165354Y102006D01*
X84633Y42215D02*
Y42621D01*
X85039D01*
Y42215D01*
X84633D01*
X51994Y58598D02*
Y59004D01*
X52400D01*
Y58598D01*
X51994D01*
X151465Y33945D02*
Y33844D01*
X151669D01*
Y33945D01*
X151770D01*
Y34149D01*
X151669D01*
Y34250D01*
X151465D01*
Y34149D01*
X151364D01*
Y33945D01*
X151465D01*
X151516Y33996D02*
Y33945D01*
X151618D01*
Y33996D01*
X151669D01*
Y34098D01*
X151618D01*
Y34149D01*
X151516D01*
Y34098D01*
X151465D01*
Y33996D01*
X151516D01*
X148965Y33945D02*
Y33844D01*
X149169D01*
Y33945D01*
X149270D01*
Y34149D01*
X149169D01*
Y34250D01*
X148965D01*
Y34149D01*
X148864D01*
Y33945D01*
X148965D01*
X149016Y33996D02*
Y33945D01*
X149118D01*
Y33996D01*
X149169D01*
Y34098D01*
X149118D01*
Y34149D01*
X149016D01*
Y34098D01*
X148965D01*
Y33996D01*
X149016D01*
X148965Y31945D02*
Y31844D01*
X149169D01*
Y31945D01*
X149270D01*
Y32149D01*
X149169D01*
Y32250D01*
X148965D01*
Y32149D01*
X148864D01*
Y31945D01*
X148965D01*
X149016Y31996D02*
Y31945D01*
X149118D01*
Y31996D01*
X149169D01*
Y32098D01*
X149118D01*
Y32149D01*
X149016D01*
Y32098D01*
X148965D01*
Y31996D01*
X149016D01*
X151465Y31945D02*
Y31844D01*
X151669D01*
Y31945D01*
X151770D01*
Y32149D01*
X151669D01*
Y32250D01*
X151465D01*
Y32149D01*
X151364D01*
Y31945D01*
X151465D01*
X151516Y31996D02*
Y31945D01*
X151618D01*
Y31996D01*
X151669D01*
Y32098D01*
X151618D01*
Y32149D01*
X151516D01*
Y32098D01*
X151465D01*
Y31996D01*
X151516D01*
X144094Y29134D02*
X144195D01*
X144297Y29235D01*
X144399Y29134D01*
X144500D01*
Y29235D01*
X144399Y29337D01*
X144500Y29439D01*
Y29540D01*
X144399D01*
X144297Y29439D01*
X144195Y29540D01*
X144094D01*
Y29439D01*
X144195Y29337D01*
X144094Y29235D01*
Y29134D01*
X144195Y29235D02*
X144246D01*
X144297Y29286D01*
X144348Y29235D01*
X144399D01*
Y29286D01*
X144348Y29337D01*
X144399Y29388D01*
Y29439D01*
X144348D01*
X144297Y29388D01*
X144246Y29439D01*
X144195D01*
Y29388D01*
X144246Y29337D01*
X144195Y29286D01*
Y29235D01*
X156134Y29134D02*
X156235D01*
X156337Y29235D01*
X156439Y29134D01*
X156540D01*
Y29235D01*
X156439Y29337D01*
X156540Y29439D01*
Y29540D01*
X156439D01*
X156337Y29439D01*
X156235Y29540D01*
X156134D01*
Y29439D01*
X156235Y29337D01*
X156134Y29235D01*
Y29134D01*
X156235Y29235D02*
X156286D01*
X156337Y29286D01*
X156388Y29235D01*
X156439D01*
Y29286D01*
X156388Y29337D01*
X156439Y29388D01*
Y29439D01*
X156388D01*
X156337Y29388D01*
X156286Y29439D01*
X156235D01*
Y29388D01*
X156286Y29337D01*
X156235Y29286D01*
Y29235D01*
X51994Y42215D02*
Y42621D01*
X52400D01*
Y42215D01*
X51994D01*
X109982Y47625D02*
Y47964D01*
X110151Y48133D01*
X110321Y47964D01*
Y47625D01*
Y47879D01*
X109982D01*
X110871Y48387D02*
Y48726D01*
X111040Y48895D01*
X111210Y48726D01*
Y48387D01*
Y48641D01*
X110871D01*
X135763Y48387D02*
Y48726D01*
X135932Y48895D01*
X136102Y48726D01*
Y48387D01*
Y48641D01*
X135763D01*
X137414Y47879D02*
Y48218D01*
X137583Y48387D01*
X137753Y48218D01*
Y47879D01*
Y48133D01*
X137414D01*
X129032Y45593D02*
Y45932D01*
X129201Y46101D01*
X129371Y45932D01*
Y45593D01*
Y45847D01*
X129032D01*
X128397Y50165D02*
Y50504D01*
X128566Y50673D01*
X128736Y50504D01*
Y50165D01*
Y50419D01*
X128397D01*
X133223Y53467D02*
Y53806D01*
X133392Y53975D01*
X133562Y53806D01*
Y53467D01*
Y53721D01*
X133223D01*
X134493Y53975D02*
Y54314D01*
X134662Y54483D01*
X134832Y54314D01*
Y53975D01*
Y54229D01*
X134493D01*
X133604Y55245D02*
Y55584D01*
X133773Y55753D01*
X133943Y55584D01*
Y55245D01*
Y55499D01*
X133604D01*
X100584Y52705D02*
Y53044D01*
X100753Y53213D01*
X100923Y53044D01*
Y52705D01*
Y52959D01*
X100584D01*
X96520Y53340D02*
Y53679D01*
X96689Y53848D01*
X96859Y53679D01*
Y53340D01*
Y53594D01*
X96520D01*
X97663Y52902D02*
Y53241D01*
X97832Y53410D01*
X98002Y53241D01*
Y52902D01*
Y53156D01*
X97663D01*
X99441Y52113D02*
Y52451D01*
X99610Y52621D01*
X99780Y52451D01*
Y52113D01*
Y52367D01*
X99441D01*
X104013Y93218D02*
Y93557D01*
X104182Y93726D01*
X104352Y93557D01*
Y93218D01*
Y93472D01*
X104013D01*
X102870Y93345D02*
Y93684D01*
X103039Y93853D01*
X103209Y93684D01*
Y93345D01*
Y93599D01*
X102870D01*
X102616Y94488D02*
Y94827D01*
X102785Y94996D01*
X102955Y94827D01*
Y94488D01*
Y94742D01*
X102616D01*
X102870Y96012D02*
Y96351D01*
X103039Y96520D01*
X103209Y96351D01*
Y96012D01*
Y96266D01*
X102870D01*
X95205Y95253D02*
Y95592D01*
X95374Y95761D01*
X95544Y95592D01*
Y95253D01*
Y95507D01*
X95205D01*
X113284Y83693D02*
Y84032D01*
X113453Y84201D01*
X113623Y84032D01*
Y83693D01*
Y83947D01*
X113284D01*
X128143Y75184D02*
Y75523D01*
X128312Y75692D01*
X128482Y75523D01*
Y75184D01*
Y75438D01*
X128143D01*
X122809Y78359D02*
Y78698D01*
X122978Y78867D01*
X123148Y78698D01*
Y78359D01*
Y78613D01*
X122809D01*
X122936Y75946D02*
Y76285D01*
X123105Y76454D01*
X123275Y76285D01*
Y75946D01*
Y76200D01*
X122936D01*
X124206Y77089D02*
Y77428D01*
X124375Y77597D01*
X124545Y77428D01*
Y77089D01*
Y77343D01*
X124206D01*
Y75819D02*
Y76158D01*
X124375Y76327D01*
X124545Y76158D01*
Y75819D01*
Y76073D01*
X124206D01*
X120396Y71882D02*
Y72221D01*
X120565Y72390D01*
X120735Y72221D01*
Y71882D01*
Y72136D01*
X120396D01*
X119634Y66040D02*
Y66379D01*
X119803Y66548D01*
X119973Y66379D01*
Y66040D01*
Y66294D01*
X119634D01*
X118491Y67818D02*
Y68157D01*
X118660Y68326D01*
X118830Y68157D01*
Y67818D01*
Y68072D01*
X118491D01*
X116840Y70104D02*
Y70443D01*
X117009Y70612D01*
X117179Y70443D01*
Y70104D01*
Y70358D01*
X116840D01*
Y67818D02*
Y68157D01*
X117009Y68326D01*
X117179Y68157D01*
Y67818D01*
Y68072D01*
X116840D01*
X128778Y68199D02*
Y68538D01*
X128947Y68707D01*
X129117Y68538D01*
Y68199D01*
Y68453D01*
X128778D01*
X125095Y70739D02*
Y71078D01*
X125264Y71247D01*
X125434Y71078D01*
Y70739D01*
Y70993D01*
X125095D01*
X119126Y70866D02*
Y71205D01*
X119295Y71374D01*
X119465Y71205D01*
Y70866D01*
Y71120D01*
X119126D01*
X160909Y64262D02*
Y64601D01*
X161078Y64770D01*
X161248Y64601D01*
Y64262D01*
Y64516D01*
X160909D01*
X142494Y58420D02*
Y58759D01*
X142663Y58928D01*
X142833Y58759D01*
Y58420D01*
Y58674D01*
X142494D01*
X141224Y59563D02*
Y59902D01*
X141393Y60071D01*
X141563Y59902D01*
Y59563D01*
Y59817D01*
X141224D01*
X141859Y52197D02*
Y52536D01*
X142028Y52705D01*
X142198Y52536D01*
Y52197D01*
Y52451D01*
X141859D01*
X141224Y52959D02*
Y53298D01*
X141393Y53467D01*
X141563Y53298D01*
Y52959D01*
Y53213D01*
X141224D01*
X144907Y57531D02*
Y57870D01*
X145076Y58039D01*
X145246Y57870D01*
Y57531D01*
Y57785D01*
X144907D01*
X129921Y66294D02*
Y66633D01*
X130090Y66802D01*
X130260Y66633D01*
Y66294D01*
Y66548D01*
X129921D01*
X129667Y67183D02*
Y67522D01*
X129836Y67691D01*
X130006Y67522D01*
Y67183D01*
Y67437D01*
X129667D01*
X127508Y65659D02*
Y65998D01*
X127677Y66167D01*
X127847Y65998D01*
Y65659D01*
Y65913D01*
X127508D01*
X126746Y65024D02*
Y65363D01*
X126915Y65532D01*
X127085Y65363D01*
Y65024D01*
Y65278D01*
X126746D01*
X128143Y66421D02*
Y66760D01*
X128312Y66929D01*
X128482Y66760D01*
Y66421D01*
Y66675D01*
X128143D01*
X127762Y63627D02*
Y63966D01*
X127931Y64135D01*
X128101Y63966D01*
Y63627D01*
Y63881D01*
X127762D01*
X128651Y63627D02*
Y63966D01*
X128820Y64135D01*
X128990Y63966D01*
Y63627D01*
Y63881D01*
X128651D01*
X126873Y63627D02*
Y63966D01*
X127042Y64135D01*
X127212Y63966D01*
Y63627D01*
Y63881D01*
X126873D01*
X121793Y70358D02*
Y70697D01*
X121962Y70866D01*
X122132Y70697D01*
Y70358D01*
Y70612D01*
X121793D01*
Y67564D02*
Y67903D01*
X121962Y68072D01*
X122132Y67903D01*
Y67564D01*
Y67818D01*
X121793D01*
X125730Y63627D02*
Y63966D01*
X125899Y64135D01*
X126069Y63966D01*
Y63627D01*
Y63881D01*
X125730D01*
X143764Y69215D02*
Y69554D01*
X143933Y69723D01*
X144103Y69554D01*
Y69215D01*
Y69469D01*
X143764D01*
X141478Y67056D02*
Y67395D01*
X141647Y67564D01*
X141817Y67395D01*
Y67056D01*
Y67310D01*
X141478D01*
X141605Y68961D02*
Y69300D01*
X141774Y69469D01*
X141944Y69300D01*
Y68961D01*
Y69215D01*
X141605D01*
X137033Y68707D02*
Y69046D01*
X137202Y69215D01*
X137372Y69046D01*
Y68707D01*
Y68961D01*
X137033D01*
X142748Y69215D02*
Y69554D01*
X142917Y69723D01*
X143087Y69554D01*
Y69215D01*
Y69469D01*
X142748D01*
X144526Y68834D02*
Y69173D01*
X144695Y69342D01*
X144865Y69173D01*
Y68834D01*
Y69088D01*
X144526D01*
X135636Y66802D02*
Y67141D01*
X135805Y67310D01*
X135975Y67141D01*
Y66802D01*
Y67056D01*
X135636D01*
X132461Y65278D02*
Y65617D01*
X132630Y65786D01*
X132800Y65617D01*
Y65278D01*
Y65532D01*
X132461D01*
X135255Y69215D02*
Y69554D01*
X135424Y69723D01*
X135594Y69554D01*
Y69215D01*
Y69469D01*
X135255D01*
X133223Y67945D02*
Y68284D01*
X133392Y68453D01*
X133562Y68284D01*
Y67945D01*
Y68199D01*
X133223D01*
X119253Y73533D02*
Y73872D01*
X119422Y74041D01*
X119592Y73872D01*
Y73533D01*
Y73787D01*
X119253D01*
X125349Y72136D02*
Y72475D01*
X125518Y72644D01*
X125688Y72475D01*
Y72136D01*
Y72390D01*
X125349D01*
X130556Y69723D02*
Y70062D01*
X130725Y70231D01*
X130895Y70062D01*
Y69723D01*
Y69977D01*
X130556D01*
X131445Y69723D02*
Y70062D01*
X131614Y70231D01*
X131784Y70062D01*
Y69723D01*
Y69977D01*
X131445D01*
Y52070D02*
Y52409D01*
X131614Y52578D01*
X131784Y52409D01*
Y52070D01*
Y52324D01*
X131445D01*
X141224Y65786D02*
Y66125D01*
X141393Y66294D01*
X141563Y66125D01*
Y65786D01*
Y66040D01*
X141224D01*
X142367Y65151D02*
Y65490D01*
X142536Y65659D01*
X142706Y65490D01*
Y65151D01*
Y65405D01*
X142367D01*
X125349Y75184D02*
Y75523D01*
X125518Y75692D01*
X125688Y75523D01*
Y75184D01*
Y75438D01*
X125349D01*
X125730Y73914D02*
Y74253D01*
X125899Y74422D01*
X126069Y74253D01*
Y73914D01*
Y74168D01*
X125730D01*
X134818Y78049D02*
Y78388D01*
X134987Y78557D01*
X135157Y78388D01*
Y78049D01*
Y78303D01*
X134818D01*
X129413Y78232D02*
Y78571D01*
X129582Y78740D01*
X129752Y78571D01*
Y78232D01*
Y78486D01*
X129413D01*
X133096Y69342D02*
Y69681D01*
X133265Y69850D01*
X133435Y69681D01*
Y69342D01*
Y69596D01*
X133096D01*
X134239Y69342D02*
Y69681D01*
X134408Y69850D01*
X134578Y69681D01*
Y69342D01*
Y69596D01*
X134239D01*
X126492Y66167D02*
Y66506D01*
X126661Y66675D01*
X126831Y66506D01*
Y66167D01*
Y66421D01*
X126492D01*
X121793Y66040D02*
Y66379D01*
X121962Y66548D01*
X122132Y66379D01*
Y66040D01*
Y66294D01*
X121793D01*
X132207Y59690D02*
Y60029D01*
X132376Y60198D01*
X132546Y60029D01*
Y59690D01*
Y59944D01*
X132207D01*
X134112Y66167D02*
Y66506D01*
X134281Y66675D01*
X134451Y66506D01*
Y66167D01*
Y66421D01*
X134112D01*
X127254Y67564D02*
Y67903D01*
X127423Y68072D01*
X127593Y67903D01*
Y67564D01*
Y67818D01*
X127254D01*
X134493Y64389D02*
Y64728D01*
X134662Y64897D01*
X134832Y64728D01*
Y64389D01*
Y64643D01*
X134493D01*
X58166Y51181D02*
Y50673D01*
X58420D01*
X58505Y50758D01*
Y50842D01*
X58420Y50927D01*
X58166D01*
X58420D01*
X58505Y51012D01*
Y51096D01*
X58420Y51181D01*
X58166D01*
X40090Y116247D02*
X40005Y116332D01*
X39836D01*
X39751Y116247D01*
Y115909D01*
X39836Y115824D01*
X40005D01*
X40090Y115909D01*
X42291Y121666D02*
Y121158D01*
X42545D01*
X42630Y121243D01*
Y121327D01*
X42545Y121412D01*
X42291D01*
X42545D01*
X42630Y121497D01*
Y121581D01*
X42545Y121666D01*
X42291D01*
X173482D02*
Y121158D01*
X173736D01*
X173821Y121243D01*
Y121327D01*
X173736Y121412D01*
X173482D01*
X173736D01*
X173821Y121497D01*
Y121581D01*
X173736Y121666D01*
X173482D01*
X173609Y31115D02*
Y30607D01*
X173863D01*
X173948Y30692D01*
Y30776D01*
X173863Y30861D01*
X173609D01*
X173863D01*
X173948Y30946D01*
Y31030D01*
X173863Y31115D01*
X173609D01*
X54229Y87376D02*
Y87715D01*
X54398Y87884D01*
X54568Y87715D01*
Y87376D01*
Y87630D01*
X54229D01*
X53975Y82042D02*
Y82381D01*
X54144Y82550D01*
X54314Y82381D01*
Y82042D01*
Y82296D01*
X53975D01*
X117221Y66167D02*
Y66506D01*
X117390Y66675D01*
X117560Y66506D01*
Y66167D01*
Y66421D01*
X117221D01*
X107569Y73787D02*
Y74126D01*
X107738Y74295D01*
X107908Y74126D01*
Y73787D01*
Y74041D01*
X107569D01*
X132461Y74549D02*
Y74888D01*
X132630Y75057D01*
X132800Y74888D01*
Y74549D01*
Y74803D01*
X132461D01*
X129540Y83058D02*
Y83397D01*
X129709Y83566D01*
X129879Y83397D01*
Y83058D01*
Y83312D01*
X129540D01*
X132080Y79121D02*
Y79460D01*
X132249Y79629D01*
X132419Y79460D01*
Y79121D01*
Y79375D01*
X132080D01*
X134874Y74168D02*
Y74507D01*
X135043Y74676D01*
X135213Y74507D01*
Y74168D01*
Y74422D01*
X134874D01*
X136144Y83312D02*
Y83651D01*
X136313Y83820D01*
X136483Y83651D01*
Y83312D01*
Y83566D01*
X136144D01*
X134366Y82931D02*
Y83270D01*
X134535Y83439D01*
X134705Y83270D01*
Y82931D01*
Y83185D01*
X134366D01*
X142875Y79121D02*
Y79460D01*
X143044Y79629D01*
X143214Y79460D01*
Y79121D01*
Y79375D01*
X142875D01*
X63500Y85471D02*
Y85810D01*
X63669Y85979D01*
X63839Y85810D01*
Y85471D01*
Y85725D01*
X63500D01*
X64516Y77216D02*
Y77555D01*
X64685Y77724D01*
X64855Y77555D01*
Y77216D01*
Y77470D01*
X64516D01*
X69215Y77216D02*
Y77555D01*
X69384Y77724D01*
X69554Y77555D01*
Y77216D01*
Y77470D01*
X69215D01*
X98552Y62865D02*
Y63204D01*
X98721Y63373D01*
X98891Y63204D01*
Y62865D01*
Y63119D01*
X98552D01*
X132842Y40259D02*
Y40598D01*
X133011Y40767D01*
X133181Y40598D01*
Y40259D01*
Y40513D01*
X132842D01*
X123698Y36068D02*
Y36407D01*
X123867Y36576D01*
X124037Y36407D01*
Y36068D01*
Y36322D01*
X123698D01*
X122047Y35941D02*
Y36280D01*
X122216Y36449D01*
X122386Y36280D01*
Y35941D01*
Y36195D01*
X122047D01*
X139954Y40894D02*
Y41233D01*
X140123Y41402D01*
X140293Y41233D01*
Y40894D01*
Y41148D01*
X139954D01*
X145796Y42037D02*
Y42376D01*
X145965Y42545D01*
X146135Y42376D01*
Y42037D01*
Y42291D01*
X145796D01*
X156845Y66929D02*
Y67268D01*
X157014Y67437D01*
X157184Y67268D01*
Y66929D01*
Y67183D01*
X156845D01*
X155956Y63119D02*
Y63458D01*
X156125Y63627D01*
X156295Y63458D01*
Y63119D01*
Y63373D01*
X155956D01*
X81407Y75692D02*
Y76031D01*
X81576Y76200D01*
X81746Y76031D01*
Y75692D01*
Y75946D01*
X81407D01*
X140589Y39624D02*
Y39963D01*
X140758Y40132D01*
X140928Y39963D01*
Y39624D01*
Y39878D01*
X140589D01*
X145794Y41077D02*
Y41416D01*
X145963Y41585D01*
X146133Y41416D01*
Y41077D01*
Y41331D01*
X145794D01*
X55880Y75311D02*
Y75650D01*
X56049Y75819D01*
X56219Y75650D01*
Y75311D01*
Y75565D01*
X55880D01*
X146050Y101473D02*
Y101812D01*
X146219Y101981D01*
X146389Y101812D01*
Y101473D01*
Y101727D01*
X146050D01*
X115279Y89662D02*
Y90001D01*
X115448Y90170D01*
X115617Y90001D01*
Y89662D01*
Y89916D01*
X115279D01*
X119126Y77597D02*
Y77936D01*
X119295Y78105D01*
X119465Y77936D01*
Y77597D01*
Y77851D01*
X119126D01*
X126746Y85344D02*
Y85683D01*
X126915Y85852D01*
X127085Y85683D01*
Y85344D01*
Y85598D01*
X126746D01*
X126759Y81166D02*
Y81505D01*
X126928Y81674D01*
X127098Y81505D01*
Y81166D01*
Y81420D01*
X126759D01*
X119761Y46101D02*
Y46440D01*
X119930Y46609D01*
X120100Y46440D01*
Y46101D01*
Y46355D01*
X119761D01*
X126873Y43688D02*
Y44027D01*
X127042Y44196D01*
X127212Y44027D01*
Y43688D01*
Y43942D01*
X126873D01*
X121666Y58547D02*
Y58886D01*
X121835Y59055D01*
X122005Y58886D01*
Y58547D01*
Y58801D01*
X121666D01*
X110998Y55626D02*
Y55965D01*
X111167Y56134D01*
X111337Y55965D01*
Y55626D01*
Y55880D01*
X110998D01*
X175260Y46101D02*
Y46440D01*
X175429Y46609D01*
X175599Y46440D01*
Y46101D01*
Y46355D01*
X175260D01*
X171196Y44577D02*
Y44916D01*
X171365Y45085D01*
X171535Y44916D01*
Y44577D01*
Y44831D01*
X171196D01*
X172085Y49784D02*
Y50123D01*
X172254Y50292D01*
X172424Y50123D01*
Y49784D01*
Y50038D01*
X172085D01*
X164465Y47498D02*
Y47837D01*
X164634Y48006D01*
X164804Y47837D01*
Y47498D01*
Y47752D01*
X164465D01*
X163957Y43688D02*
Y44027D01*
X164126Y44196D01*
X164296Y44027D01*
Y43688D01*
Y43942D01*
X163957D01*
X145415Y45212D02*
Y45551D01*
X145584Y45720D01*
X145754Y45551D01*
Y45212D01*
Y45466D01*
X145415D01*
X59309Y97282D02*
Y97621D01*
X59478Y97790D01*
X59648Y97621D01*
Y97282D01*
Y97536D01*
X59309D01*
X133604Y86741D02*
Y87080D01*
X133773Y87249D01*
X133943Y87080D01*
Y86741D01*
Y86995D01*
X133604D01*
X152654Y79248D02*
Y79587D01*
X152823Y79756D01*
X152993Y79587D01*
Y79248D01*
Y79502D01*
X152654D01*
X62992Y93472D02*
Y93811D01*
X63161Y93980D01*
X63331Y93811D01*
Y93472D01*
Y93726D01*
X62992D01*
X75057Y89281D02*
Y89620D01*
X75226Y89789D01*
X75396Y89620D01*
Y89281D01*
Y89535D01*
X75057D01*
X143383Y73660D02*
Y73999D01*
X143552Y74168D01*
X143722Y73999D01*
Y73660D01*
Y73914D01*
X143383D01*
X140970Y77597D02*
Y77936D01*
X141139Y78105D01*
X141309Y77936D01*
Y77597D01*
Y77851D01*
X140970D01*
X156591Y83947D02*
Y84286D01*
X156760Y84455D01*
X156930Y84286D01*
Y83947D01*
Y84201D01*
X156591D01*
X140843Y78486D02*
Y78825D01*
X141012Y78994D01*
X141182Y78825D01*
Y78486D01*
Y78740D01*
X140843D01*
X144145Y86868D02*
Y87207D01*
X144314Y87376D01*
X144484Y87207D01*
Y86868D01*
Y87122D01*
X144145D01*
X145034Y87122D02*
Y87461D01*
X145203Y87630D01*
X145373Y87461D01*
Y87122D01*
Y87376D01*
X145034D01*
X145923Y87757D02*
Y88096D01*
X146092Y88265D01*
X146262Y88096D01*
Y87757D01*
Y88011D01*
X145923D01*
X142367Y82042D02*
Y82381D01*
X142536Y82550D01*
X142706Y82381D01*
Y82042D01*
Y82296D01*
X142367D01*
X142621Y81153D02*
Y81492D01*
X142790Y81661D01*
X142960Y81492D01*
Y81153D01*
Y81407D01*
X142621D01*
X142875Y80137D02*
Y80476D01*
X143044Y80645D01*
X143214Y80476D01*
Y80137D01*
Y80391D01*
X142875D01*
X136271Y78613D02*
Y78952D01*
X136440Y79121D01*
X136610Y78952D01*
Y78613D01*
Y78867D01*
X136271D01*
X53975Y104521D02*
Y104860D01*
X54144Y105029D01*
X54314Y104860D01*
Y104521D01*
Y104775D01*
X53975D01*
X138176Y88646D02*
Y88985D01*
X138345Y89154D01*
X138515Y88985D01*
Y88646D01*
Y88900D01*
X138176D01*
X139319Y104775D02*
Y105114D01*
X139488Y105283D01*
X139658Y105114D01*
Y104775D01*
Y105029D01*
X139319D01*
X146431Y113030D02*
Y113369D01*
X146600Y113538D01*
X146770Y113369D01*
Y113030D01*
Y113284D01*
X146431D01*
X158369Y106807D02*
Y107146D01*
X158538Y107315D01*
X158708Y107146D01*
Y106807D01*
Y107061D01*
X158369D01*
X159512Y106045D02*
Y106384D01*
X159681Y106553D01*
X159851Y106384D01*
Y106045D01*
Y106299D01*
X159512D01*
X152739Y112310D02*
X152654Y112395D01*
X152485D01*
X152400Y112310D01*
Y111972D01*
X152485Y111887D01*
X152654D01*
X152739Y111972D01*
Y110913D02*
X152654Y110998D01*
X152485D01*
X152400Y110913D01*
Y110575D01*
X152485Y110490D01*
X152654D01*
X152739Y110575D01*
X174117Y80645D02*
Y80984D01*
X174286Y81153D01*
X174456Y80984D01*
Y80645D01*
Y80899D01*
X174117D01*
Y78105D02*
Y78444D01*
X174286Y78613D01*
X174456Y78444D01*
Y78105D01*
Y78359D01*
X174117D01*
X173990Y75565D02*
Y75904D01*
X174159Y76073D01*
X174329Y75904D01*
Y75565D01*
Y75819D01*
X173990D01*
X155575Y82296D02*
Y82635D01*
X155744Y82804D01*
X155914Y82635D01*
Y82296D01*
Y82550D01*
X155575D01*
X153162Y83312D02*
Y83651D01*
X153331Y83820D01*
X153501Y83651D01*
Y83312D01*
Y83566D01*
X153162D01*
X157734Y72009D02*
Y72348D01*
X157903Y72517D01*
X158073Y72348D01*
Y72009D01*
Y72263D01*
X157734D01*
X157861Y67437D02*
Y67776D01*
X158030Y67945D01*
X158200Y67776D01*
Y67437D01*
Y67691D01*
X157861D01*
X158846Y66706D02*
Y67045D01*
X159015Y67214D01*
X159184Y67045D01*
Y66706D01*
Y66960D01*
X158846D01*
X118745Y116586D02*
Y116078D01*
X118999D01*
X119084Y116163D01*
Y116501D01*
X118999Y116586D01*
X118745D01*
X161544Y122936D02*
Y123275D01*
X161713Y123444D01*
X161883Y123275D01*
Y122936D01*
Y123190D01*
X161544D01*
Y119761D02*
Y120100D01*
X161713Y120269D01*
X161883Y120100D01*
Y119761D01*
Y120015D01*
X161544D01*
X155956Y117729D02*
Y118068D01*
X156125Y118237D01*
X156295Y118068D01*
Y117729D01*
Y117983D01*
X155956D01*
X166243Y119634D02*
Y119973D01*
X166412Y120142D01*
X166582Y119973D01*
Y119634D01*
Y119888D01*
X166243D01*
X135128Y85344D02*
Y85683D01*
X135297Y85852D01*
X135467Y85683D01*
Y85344D01*
Y85598D01*
X135128D01*
X136017Y81915D02*
Y82254D01*
X136186Y82423D01*
X136356Y82254D01*
Y81915D01*
Y82169D01*
X136017D01*
X113792Y52959D02*
Y53298D01*
X113961Y53467D01*
X114131Y53298D01*
Y52959D01*
Y53213D01*
X113792D01*
X112903Y56261D02*
Y56600D01*
X113072Y56769D01*
X113242Y56600D01*
Y56261D01*
Y56515D01*
X112903D01*
Y51816D02*
Y52155D01*
X113072Y52324D01*
X113242Y52155D01*
Y51816D01*
Y52070D01*
X112903D01*
X98044Y47625D02*
Y47964D01*
X98213Y48133D01*
X98383Y47964D01*
Y47625D01*
Y47879D01*
X98044D01*
X106553Y54483D02*
Y54822D01*
X106722Y54991D01*
X106892Y54822D01*
Y54483D01*
Y54737D01*
X106553D01*
X106934Y51308D02*
Y51647D01*
X107103Y51816D01*
X107273Y51647D01*
Y51308D01*
Y51562D01*
X106934D01*
X105156Y42926D02*
Y43265D01*
X105325Y43434D01*
X105495Y43265D01*
Y42926D01*
Y43180D01*
X105156D01*
X105029Y72200D02*
Y72539D01*
X105198Y72708D01*
X105368Y72539D01*
Y72200D01*
Y72454D01*
X105029D01*
X158496Y43307D02*
Y43646D01*
X158665Y43815D01*
X158835Y43646D01*
Y43307D01*
Y43561D01*
X158496D01*
X166497Y42037D02*
Y42376D01*
X166666Y42545D01*
X166836Y42376D01*
Y42037D01*
Y42291D01*
X166497D01*
X154813Y49784D02*
Y50123D01*
X154982Y50292D01*
X155152Y50123D01*
Y49784D01*
Y50038D01*
X154813D01*
X154940Y48514D02*
Y48853D01*
X155109Y49022D01*
X155279Y48853D01*
Y48514D01*
Y48768D01*
X154940D01*
X137033Y59817D02*
Y60156D01*
X137202Y60325D01*
X137372Y60156D01*
Y59817D01*
Y60071D01*
X137033D01*
X175710Y61272D02*
Y61610D01*
X175880Y61780D01*
X176049Y61610D01*
Y61272D01*
Y61526D01*
X175710D01*
X167386Y59436D02*
Y59775D01*
X167555Y59944D01*
X167725Y59775D01*
Y59436D01*
Y59690D01*
X167386D01*
X155321Y78105D02*
Y78444D01*
X155490Y78613D01*
X155660Y78444D01*
Y78105D01*
Y78359D01*
X155321D01*
X158496Y80645D02*
Y80984D01*
X158665Y81153D01*
X158835Y80984D01*
Y80645D01*
Y80899D01*
X158496D01*
X176022Y86360D02*
Y86699D01*
X176191Y86868D01*
X176361Y86699D01*
Y86360D01*
Y86614D01*
X176022D01*
X116078Y72517D02*
Y72856D01*
X116247Y73025D01*
X116417Y72856D01*
Y72517D01*
Y72771D01*
X116078D01*
X115189Y68453D02*
Y68792D01*
X115358Y68961D01*
X115528Y68792D01*
Y68453D01*
Y68707D01*
X115189D01*
X126746Y69977D02*
Y70316D01*
X126915Y70485D01*
X127085Y70316D01*
Y69977D01*
Y70231D01*
X126746D01*
X145669Y111760D02*
Y112099D01*
X145838Y112268D01*
X146008Y112099D01*
Y111760D01*
Y112014D01*
X145669D01*
X153670Y86106D02*
Y86445D01*
X153839Y86614D01*
X154009Y86445D01*
Y86106D01*
Y86360D01*
X153670D01*
X139319Y94615D02*
Y94954D01*
X139488Y95123D01*
X139658Y94954D01*
Y94615D01*
Y94869D01*
X139319D01*
Y97663D02*
Y98002D01*
X139488Y98171D01*
X139658Y98002D01*
Y97663D01*
Y97917D01*
X139319D01*
X137668Y101600D02*
Y101939D01*
X137837Y102108D01*
X138007Y101939D01*
Y101600D01*
Y101854D01*
X137668D01*
X140589Y67691D02*
Y68030D01*
X140758Y68199D01*
X140928Y68030D01*
Y67691D01*
Y67945D01*
X140589D01*
X150622Y58674D02*
Y59013D01*
X150791Y59182D01*
X150961Y59013D01*
Y58674D01*
Y58928D01*
X150622D01*
X145923Y46355D02*
Y46694D01*
X146092Y46863D01*
X146262Y46694D01*
Y46355D01*
Y46609D01*
X145923D01*
X146939Y52197D02*
Y52536D01*
X147108Y52705D01*
X147278Y52536D01*
Y52197D01*
Y52451D01*
X146939D01*
X145161Y40132D02*
Y40471D01*
X145330Y40640D01*
X145500Y40471D01*
Y40132D01*
Y40386D01*
X145161D01*
X144653Y38735D02*
Y39074D01*
X144822Y39243D01*
X144992Y39074D01*
Y38735D01*
Y38989D01*
X144653D01*
X135128Y28067D02*
Y28406D01*
X135297Y28575D01*
X135467Y28406D01*
Y28067D01*
Y28321D01*
X135128D01*
X83500Y29276D02*
X83415Y29361D01*
X83246D01*
X83161Y29276D01*
Y28938D01*
X83246Y28853D01*
X83415D01*
X83500Y28938D01*
X50885Y30776D02*
X50800Y30861D01*
X50631D01*
X50546Y30776D01*
Y30438D01*
X50631Y30353D01*
X50800D01*
X50885Y30438D01*
X129921Y50800D02*
Y51139D01*
X130090Y51308D01*
X130260Y51139D01*
Y50800D01*
Y51054D01*
X129921D01*
X51308Y74168D02*
Y74507D01*
X51477Y74676D01*
X51647Y74507D01*
Y74168D01*
Y74422D01*
X51308D01*
X28194Y35560D02*
Y35899D01*
X28363Y36068D01*
X28533Y35899D01*
Y35560D01*
Y35814D01*
X28194D01*
X58293Y26924D02*
Y27263D01*
X58462Y27432D01*
X58632Y27263D01*
Y26924D01*
Y27178D01*
X58293D01*
X150876Y69723D02*
Y70062D01*
X151045Y70231D01*
X151215Y70062D01*
Y69723D01*
Y69977D01*
X150876D01*
X39878Y113157D02*
Y113496D01*
X40047Y113665D01*
X40217Y113496D01*
Y113157D01*
Y113411D01*
X39878D01*
X66294Y104394D02*
Y104733D01*
X66463Y104902D01*
X66633Y104733D01*
Y104394D01*
Y104648D01*
X66294D01*
X64770Y100838D02*
Y101177D01*
X64939Y101346D01*
X65109Y101177D01*
Y100838D01*
Y101092D01*
X64770D01*
X66802Y101219D02*
Y101558D01*
X66971Y101727D01*
X67141Y101558D01*
Y101219D01*
Y101473D01*
X66802D01*
X120904Y90424D02*
Y90763D01*
X121073Y90932D01*
X121243Y90763D01*
Y90424D01*
Y90678D01*
X120904D01*
X127635Y82296D02*
Y82635D01*
X127804Y82804D01*
X127974Y82635D01*
Y82296D01*
Y82550D01*
X127635D01*
X147066Y80391D02*
Y80730D01*
X147235Y80899D01*
X147405Y80730D01*
Y80391D01*
Y80645D01*
X147066D01*
X146177Y80899D02*
Y81238D01*
X146346Y81407D01*
X146516Y81238D01*
Y80899D01*
Y81153D01*
X146177D01*
X142367Y66421D02*
Y66760D01*
X142536Y66929D01*
X142706Y66760D01*
Y66421D01*
Y66675D01*
X142367D01*
X133223Y74041D02*
Y74380D01*
X133392Y74549D01*
X133562Y74380D01*
Y74041D01*
Y74295D01*
X133223D01*
X133985Y74422D02*
Y74761D01*
X134154Y74930D01*
X134324Y74761D01*
Y74422D01*
Y74676D01*
X133985D01*
X139827Y82296D02*
Y82635D01*
X139996Y82804D01*
X140166Y82635D01*
Y82296D01*
Y82550D01*
X139827D01*
X132969Y45212D02*
Y45551D01*
X133138Y45720D01*
X133308Y45551D01*
Y45212D01*
Y45466D01*
X132969D01*
X128524Y52832D02*
Y53171D01*
X128693Y53340D01*
X128863Y53171D01*
Y52832D01*
Y53086D01*
X128524D01*
X129159Y51943D02*
Y52282D01*
X129328Y52451D01*
X129498Y52282D01*
Y51943D01*
Y52197D01*
X129159D01*
X136398Y65151D02*
Y65490D01*
X136567Y65659D01*
X136737Y65490D01*
Y65151D01*
Y65405D01*
X136398D01*
X136017Y65913D02*
Y66252D01*
X136186Y66421D01*
X136356Y66252D01*
Y65913D01*
Y66167D01*
X136017D01*
Y63627D02*
Y63966D01*
X136186Y64135D01*
X136356Y63966D01*
Y63627D01*
Y63881D01*
X136017D01*
X123190Y59563D02*
Y59902D01*
X123359Y60071D01*
X123529Y59902D01*
Y59563D01*
Y59817D01*
X123190D01*
X124936Y54070D02*
Y54409D01*
X125105Y54578D01*
X125275Y54409D01*
Y54070D01*
Y54324D01*
X124936D01*
X109601Y78994D02*
Y79333D01*
X109770Y79502D01*
X109940Y79333D01*
Y78994D01*
Y79248D01*
X109601D01*
X77724Y86741D02*
Y87080D01*
X77893Y87249D01*
X78063Y87080D01*
Y86741D01*
Y86995D01*
X77724D01*
Y78994D02*
Y79333D01*
X77893Y79502D01*
X78063Y79333D01*
Y78994D01*
Y79248D01*
X77724D01*
X85598Y78994D02*
Y79333D01*
X85767Y79502D01*
X85937Y79333D01*
Y78994D01*
Y79248D01*
X85598D01*
X101600Y78994D02*
Y79333D01*
X101769Y79502D01*
X101939Y79333D01*
Y78994D01*
Y79248D01*
X101600D01*
X93472Y78994D02*
Y79333D01*
X93641Y79502D01*
X93811Y79333D01*
Y78994D01*
Y79248D01*
X93472D01*
X85598Y86741D02*
Y87080D01*
X85767Y87249D01*
X85937Y87080D01*
Y86741D01*
Y86995D01*
X85598D01*
X93599Y86741D02*
Y87080D01*
X93768Y87249D01*
X93938Y87080D01*
Y86741D01*
Y86995D01*
X93599D01*
X101600Y86741D02*
Y87080D01*
X101769Y87249D01*
X101939Y87080D01*
Y86741D01*
Y86995D01*
X101600D01*
X109601Y86741D02*
Y87080D01*
X109770Y87249D01*
X109940Y87080D01*
Y86741D01*
Y86995D01*
X109601D01*
X117602Y86868D02*
Y87207D01*
X117771Y87376D01*
X117941Y87207D01*
Y86868D01*
Y87122D01*
X117602D01*
Y78994D02*
Y79333D01*
X117771Y79502D01*
X117941Y79333D01*
Y78994D01*
Y79248D01*
X117602D01*
X118872Y75057D02*
Y75396D01*
X119041Y75565D01*
X119211Y75396D01*
Y75057D01*
Y75311D01*
X118872D01*
X115443Y69469D02*
Y69808D01*
X115612Y69977D01*
X115782Y69808D01*
Y69469D01*
Y69723D01*
X115443D01*
X121793Y68961D02*
Y69300D01*
X121962Y69469D01*
X122132Y69300D01*
Y68961D01*
Y69215D01*
X121793D01*
X118618Y66040D02*
Y66379D01*
X118787Y66548D01*
X118957Y66379D01*
Y66040D01*
Y66294D01*
X118618D01*
X121539Y64770D02*
Y65109D01*
X121708Y65278D01*
X121878Y65109D01*
Y64770D01*
Y65024D01*
X121539D01*
X117983Y72644D02*
Y72983D01*
X118152Y73152D01*
X118322Y72983D01*
Y72644D01*
Y72898D01*
X117983D01*
X107950Y57912D02*
Y58251D01*
X108119Y58420D01*
X108289Y58251D01*
Y57912D01*
Y58166D01*
X107950D01*
X105791Y58420D02*
Y58759D01*
X105960Y58928D01*
X106130Y58759D01*
Y58420D01*
Y58674D01*
X105791D01*
X115189Y52070D02*
Y52409D01*
X115358Y52578D01*
X115528Y52409D01*
Y52070D01*
Y52324D01*
X115189D01*
Y45974D02*
Y46313D01*
X115358Y46482D01*
X115528Y46313D01*
Y45974D01*
Y46228D01*
X115189D01*
X147066Y58293D02*
Y58632D01*
X147235Y58801D01*
X147405Y58632D01*
Y58293D01*
Y58547D01*
X147066D01*
X125603Y64897D02*
Y65236D01*
X125772Y65405D01*
X125942Y65236D01*
Y64897D01*
Y65151D01*
X125603D01*
X125349Y62865D02*
Y63204D01*
X125518Y63373D01*
X125688Y63204D01*
Y62865D01*
Y63119D01*
X125349D01*
X133604Y63754D02*
Y64093D01*
X133773Y64262D01*
X133943Y64093D01*
Y63754D01*
Y64008D01*
X133604D01*
X133985Y62865D02*
Y63204D01*
X134154Y63373D01*
X134324Y63204D01*
Y62865D01*
Y63119D01*
X133985D01*
X137287Y62611D02*
Y62950D01*
X137456Y63119D01*
X137626Y62950D01*
Y62611D01*
Y62865D01*
X137287D01*
X136652Y64262D02*
Y64601D01*
X136821Y64770D01*
X136991Y64601D01*
Y64262D01*
Y64516D01*
X136652D01*
X157594Y42177D02*
Y42516D01*
X157763Y42685D01*
X157933Y42516D01*
Y42177D01*
Y42431D01*
X157594D01*
X78359Y94869D02*
Y95208D01*
X78528Y95377D01*
X78698Y95208D01*
Y94869D01*
Y95123D01*
X78359D01*
X70358Y81026D02*
Y81365D01*
X70527Y81534D01*
X70697Y81365D01*
Y81026D01*
Y81280D01*
X70358D01*
X73279Y83566D02*
Y83905D01*
X73448Y84074D01*
X73618Y83905D01*
Y83566D01*
Y83820D01*
X73279D01*
X65913Y79121D02*
Y79460D01*
X66082Y79629D01*
X66252Y79460D01*
Y79121D01*
Y79375D01*
X65913D01*
X66675Y82169D02*
Y82508D01*
X66844Y82677D01*
X67014Y82508D01*
Y82169D01*
Y82423D01*
X66675D01*
X65405Y82550D02*
Y82889D01*
X65574Y83058D01*
X65744Y82889D01*
Y82550D01*
Y82804D01*
X65405D01*
X62484Y89535D02*
Y89874D01*
X62653Y90043D01*
X62823Y89874D01*
Y89535D01*
Y89789D01*
X62484D01*
X63881Y92583D02*
Y92922D01*
X64050Y93091D01*
X64220Y92922D01*
Y92583D01*
Y92837D01*
X63881D01*
X63473Y81026D02*
Y81365D01*
X63642Y81534D01*
X63812Y81365D01*
Y81026D01*
Y81280D01*
X63473D01*
X58420Y81788D02*
Y82127D01*
X58589Y82296D01*
X58759Y82127D01*
Y81788D01*
Y82042D01*
X58420D01*
Y84709D02*
Y85048D01*
X58589Y85217D01*
X58759Y85048D01*
Y84709D01*
Y84963D01*
X58420D01*
X58435Y91074D02*
Y91413D01*
X58604Y91582D01*
X58774Y91413D01*
Y91074D01*
Y91328D01*
X58435D01*
X58420Y88011D02*
Y88350D01*
X58589Y88519D01*
X58759Y88350D01*
Y88011D01*
Y88265D01*
X58420D01*
X69342Y75692D02*
Y76031D01*
X69511Y76200D01*
X69681Y76031D01*
Y75692D01*
Y75946D01*
X69342D01*
X59182Y75692D02*
Y76031D01*
X59351Y76200D01*
X59521Y76031D01*
Y75692D01*
Y75946D01*
X59182D01*
X60198Y39243D02*
Y39582D01*
X60367Y39751D01*
X60537Y39582D01*
Y39243D01*
Y39497D01*
X60198D01*
X43942Y81280D02*
Y81619D01*
X44111Y81788D01*
X44281Y81619D01*
Y81280D01*
Y81534D01*
X43942D01*
Y84074D02*
Y84413D01*
X44111Y84582D01*
X44281Y84413D01*
Y84074D01*
Y84328D01*
X43942D01*
X139573Y109728D02*
Y109220D01*
X139827D01*
X139912Y109305D01*
Y109643D01*
X139827Y109728D01*
X139573D01*
X144907Y115570D02*
Y115909D01*
X145076Y116078D01*
X145246Y115909D01*
Y115570D01*
Y115824D01*
X144907D01*
X145415Y120650D02*
Y120989D01*
X145584Y121158D01*
X145754Y120989D01*
Y120650D01*
Y120904D01*
X145415D01*
Y121920D02*
Y122259D01*
X145584Y122428D01*
X145754Y122259D01*
Y121920D01*
Y122174D01*
X145415D01*
X174625Y113792D02*
Y114131D01*
X174794Y114300D01*
X174964Y114131D01*
Y113792D01*
Y114046D01*
X174625D01*
X167767Y116078D02*
Y116417D01*
X167936Y116586D01*
X168106Y116417D01*
Y116078D01*
Y116332D01*
X167767D01*
X152019Y119380D02*
Y119719D01*
X152188Y119888D01*
X152358Y119719D01*
Y119380D01*
Y119634D01*
X152019D01*
Y120650D02*
Y120989D01*
X152188Y121158D01*
X152358Y120989D01*
Y120650D01*
Y120904D01*
X152019D01*
Y121920D02*
Y122259D01*
X152188Y122428D01*
X152358Y122259D01*
Y121920D01*
Y122174D01*
X152019D01*
Y123190D02*
Y123529D01*
X152188Y123698D01*
X152358Y123529D01*
Y123190D01*
Y123444D01*
X152019D01*
X160020Y112776D02*
Y113115D01*
X160189Y113284D01*
X160359Y113115D01*
Y112776D01*
Y113030D01*
X160020D01*
X156972Y117602D02*
Y117941D01*
X157141Y118110D01*
X157311Y117941D01*
Y117602D01*
Y117856D01*
X156972D01*
Y120269D02*
Y120608D01*
X157141Y120777D01*
X157311Y120608D01*
Y120269D01*
Y120523D01*
X156972D01*
Y122809D02*
Y123148D01*
X157141Y123317D01*
X157311Y123148D01*
Y122809D01*
Y123063D01*
X156972D01*
X145627Y110913D02*
X145542Y110998D01*
X145373D01*
X145288Y110913D01*
Y110575D01*
X145373Y110490D01*
X145542D01*
X145627Y110575D01*
X137118Y114469D02*
X137033Y114554D01*
X136864D01*
X136779Y114469D01*
Y114131D01*
X136864Y114046D01*
X137033D01*
X137118Y114131D01*
X59140Y114469D02*
X59055Y114554D01*
X58886D01*
X58801Y114469D01*
Y114131D01*
X58886Y114046D01*
X59055D01*
X59140Y114131D01*
X99145Y108627D02*
X99060Y108712D01*
X98891D01*
X98806Y108627D01*
Y108289D01*
X98891Y108204D01*
X99060D01*
X99145Y108289D01*
X110829Y109516D02*
X110744Y109601D01*
X110575D01*
X110490Y109516D01*
Y109178D01*
X110575Y109093D01*
X110744D01*
X110829Y109178D01*
X99145Y124502D02*
X99060Y124587D01*
X98891D01*
X98806Y124502D01*
Y124164D01*
X98891Y124079D01*
X99060D01*
X99145Y124164D01*
X110829Y123613D02*
X110744Y123698D01*
X110575D01*
X110490Y123613D01*
Y123275D01*
X110575Y123190D01*
X110744D01*
X110829Y123275D01*
D181*
X64719Y53340D02*
G03*
X64719Y53340I-203J0D01*
G01*
Y58801D02*
G03*
X64719Y58801I-203J0D01*
G01*
Y64262D02*
G03*
X64719Y64262I-203J0D01*
G01*
X136982Y29845D02*
G03*
X136982Y29845I-203J0D01*
G01*
X134442D02*
G03*
X134442Y29845I-203J0D01*
G01*
X131902D02*
G03*
X131902Y29845I-203J0D01*
G01*
X129362D02*
G03*
X129362Y29845I-203J0D01*
G01*
X64719Y36957D02*
G03*
X64719Y36957I-203J0D01*
G01*
Y42418D02*
G03*
X64719Y42418I-203J0D01*
G01*
Y47879D02*
G03*
X64719Y47879I-203J0D01*
G01*
X32080Y53340D02*
G03*
X32080Y53340I-203J0D01*
G01*
Y58801D02*
G03*
X32080Y58801I-203J0D01*
G01*
Y64262D02*
G03*
X32080Y64262I-203J0D01*
G01*
Y47879D02*
G03*
X32080Y47879I-203J0D01*
G01*
Y42418D02*
G03*
X32080Y42418I-203J0D01*
G01*
Y36957D02*
G03*
X32080Y36957I-203J0D01*
G01*
D182*
X136881Y29845D02*
G03*
X136881Y29845I-102J0D01*
G01*
X134341D02*
G03*
X134341Y29845I-102J0D01*
G01*
X131801D02*
G03*
X131801Y29845I-102J0D01*
G01*
X129261D02*
G03*
X129261Y29845I-102J0D01*
G01*
M02*
