%TF.GenerationSoftware,Altium Limited,Altium Designer,22.2.1 (43)*%
G04 Layer_Color=12429013*
%FSLAX44Y44*%
%MOMM*%
%TF.SameCoordinates,0AFF7D02-74C0-442A-A7DB-72135CCE8720*%
%TF.FilePolarity,Positive*%
%TF.FileFunction,Legend,Bot*%
%TF.Part,Single*%
G01*
G75*
%TA.AperFunction,NonConductor*%
%ADD107C,0.2000*%
%ADD108C,0.5080*%
%ADD109C,0.3000*%
%ADD110C,0.1270*%
%ADD111C,0.2540*%
%ADD112C,0.1500*%
D107*
X1525910Y803678D02*
G03*
X1525910Y803678I-1000J0D01*
G01*
X1525910Y707158D02*
G03*
X1525910Y707158I-1000J0D01*
G01*
X1525080Y900198D02*
G03*
X1525080Y900198I-1000J0D01*
G01*
X1525550Y996719D02*
G03*
X1525550Y996719I-1000J0D01*
G01*
D108*
X1626108Y406146D02*
G03*
X1626108Y413766I0J3810D01*
G01*
D02*
G03*
X1626108Y406146I0J-3810D01*
G01*
D109*
X1419480Y591130D02*
G03*
X1419480Y591130I-1000J0D01*
G01*
D110*
X1498250Y651900D02*
X1511650D01*
X1498250Y668900D02*
X1511650D01*
X1498250Y719210D02*
X1511650D01*
X1498250Y736210D02*
X1511650D01*
X1498250Y748420D02*
X1511650D01*
X1498250Y765420D02*
X1511650D01*
X1498250Y832730D02*
X1511650D01*
X1498250Y815730D02*
X1511650D01*
X1498250Y861940D02*
X1511650Y861940D01*
X1498250Y844940D02*
X1511650Y844940D01*
X1498250Y912250D02*
X1511650D01*
X1498250Y929250D02*
X1511650Y929250D01*
X1498250Y1008770D02*
X1511650D01*
X1498250Y1025770D02*
X1511650Y1025770D01*
X1036710Y848010D02*
Y861410D01*
X1053710Y848010D02*
Y861410D01*
X1331850Y596350D02*
X1347850D01*
X1331850Y610150D02*
X1347850D01*
X1309920Y620650D02*
Y636650D01*
X1296120Y620650D02*
Y636650D01*
X1495910Y806379D02*
X1508910Y806379D01*
X1495910Y774979D02*
X1508910D01*
X1495910Y796879D02*
Y806379D01*
Y774979D02*
Y784478D01*
X1549050Y811140D02*
X1562450Y811140D01*
X1549050Y794140D02*
X1562450Y794140D01*
X1549050Y785740D02*
X1562450D01*
X1549050Y768740D02*
X1562450D01*
X1028310Y848010D02*
Y861410D01*
X1011310Y848010D02*
Y861410D01*
X1567480Y545130D02*
Y567130D01*
Y589130D02*
Y641130D01*
X1436480D02*
X1567480D01*
X1415480Y616130D02*
Y626130D01*
Y616130D02*
X1425480D01*
Y517130D02*
Y616130D01*
X1445480Y501130D02*
X1567480D01*
Y511130D01*
X1547780Y987180D02*
X1561180D01*
X1547780Y1004180D02*
X1561180Y1004180D01*
X1547780Y961780D02*
X1561180Y961780D01*
X1547780Y978780D02*
X1561180Y978780D01*
X1549050Y697620D02*
X1562450D01*
X1549050Y714620D02*
X1562450D01*
X1549050Y672220D02*
X1562450Y672220D01*
X1549050Y689220D02*
X1562450D01*
X1549050Y865260D02*
X1562450Y865260D01*
X1549050Y882260D02*
X1562450D01*
X1549490Y890660D02*
X1562890Y890660D01*
X1549490Y907660D02*
X1562890D01*
X1495910Y678459D02*
Y687958D01*
Y709859D02*
X1495910Y700359D01*
X1495910Y678459D02*
X1508910D01*
X1495910Y709859D02*
X1508910Y709859D01*
X1495080Y871499D02*
Y880998D01*
Y893399D02*
Y902899D01*
Y871499D02*
X1508080D01*
X1495080Y902899D02*
X1508080Y902899D01*
X1495550Y968019D02*
Y977519D01*
Y989919D02*
Y999419D01*
Y968019D02*
X1508550D01*
X1495550Y999419D02*
X1508550D01*
X1498250Y958460D02*
X1511650D01*
X1498250Y941460D02*
X1511650D01*
X1477325Y657226D02*
Y663574D01*
X1480499Y660400D01*
X1476267D01*
X1474151Y657226D02*
Y658284D01*
X1473093D01*
Y657226D01*
X1474151D01*
X1468861Y663574D02*
X1464629D01*
Y662516D01*
X1468861Y658284D01*
Y657226D01*
X1462513Y663574D02*
Y657226D01*
Y659342D01*
X1458281Y663574D01*
X1461455Y660400D01*
X1458281Y657226D01*
X1477325Y721996D02*
Y728344D01*
X1480499Y725170D01*
X1476267D01*
X1474151Y721996D02*
Y723054D01*
X1473093D01*
Y721996D01*
X1474151D01*
X1468861Y728344D02*
X1464629D01*
Y727286D01*
X1468861Y723054D01*
Y721996D01*
X1462513Y728344D02*
Y721996D01*
Y724112D01*
X1458281Y728344D01*
X1461455Y725170D01*
X1458281Y721996D01*
X1478595Y751206D02*
Y757554D01*
X1481769Y754380D01*
X1477537D01*
X1475421Y751206D02*
Y752264D01*
X1474363D01*
Y751206D01*
X1475421D01*
X1470131Y757554D02*
X1465899D01*
Y756496D01*
X1470131Y752264D01*
Y751206D01*
X1463783Y757554D02*
Y751206D01*
Y753322D01*
X1459551Y757554D01*
X1462725Y754380D01*
X1459551Y751206D01*
X1477325Y821056D02*
Y827404D01*
X1480499Y824230D01*
X1476267D01*
X1474151Y821056D02*
Y822114D01*
X1473093D01*
Y821056D01*
X1474151D01*
X1468861Y827404D02*
X1464629D01*
Y826346D01*
X1468861Y822114D01*
Y821056D01*
X1462513Y827404D02*
Y821056D01*
Y823172D01*
X1458281Y827404D01*
X1461455Y824230D01*
X1458281Y821056D01*
X1468435Y857886D02*
Y864234D01*
X1471609Y861060D01*
X1467377D01*
X1465261Y857886D02*
Y858944D01*
X1464203D01*
Y857886D01*
X1465261D01*
X1459971Y864234D02*
X1455739D01*
Y863176D01*
X1459971Y858944D01*
Y857886D01*
X1453623Y864234D02*
Y857886D01*
Y860002D01*
X1449391Y864234D01*
X1452565Y861060D01*
X1449391Y857886D01*
X1476055Y916306D02*
Y922654D01*
X1479229Y919480D01*
X1474997D01*
X1472881Y916306D02*
Y917364D01*
X1471823D01*
Y916306D01*
X1472881D01*
X1467591Y922654D02*
X1463359D01*
Y921596D01*
X1467591Y917364D01*
Y916306D01*
X1461243Y922654D02*
Y916306D01*
Y918422D01*
X1457011Y922654D01*
X1460185Y919480D01*
X1457011Y916306D01*
X1478595Y1007746D02*
Y1014094D01*
X1481769Y1010920D01*
X1477537D01*
X1475421Y1007746D02*
Y1008804D01*
X1474363D01*
Y1007746D01*
X1475421D01*
X1470131Y1014094D02*
X1465899D01*
Y1013036D01*
X1470131Y1008804D01*
Y1007746D01*
X1463783Y1014094D02*
Y1007746D01*
Y1009862D01*
X1459551Y1014094D01*
X1462725Y1010920D01*
X1459551Y1007746D01*
X1028320Y851662D02*
Y858010D01*
X1031494Y854836D01*
X1027262D01*
X1025146Y858010D02*
X1020914D01*
Y856952D01*
X1025146Y852720D01*
Y851662D01*
X1018798Y856952D02*
X1017740Y858010D01*
X1015624D01*
X1014566Y856952D01*
Y852720D01*
X1015624Y851662D01*
X1017740D01*
X1018798Y852720D01*
Y856952D01*
X1012450Y858010D02*
Y851662D01*
Y853778D01*
X1008218Y858010D01*
X1011392Y854836D01*
X1008218Y851662D01*
X1031051Y826769D02*
X1029993Y825711D01*
Y823595D01*
X1031051Y822537D01*
X1035283D01*
X1036341Y823595D01*
Y825711D01*
X1035283Y826769D01*
X1031051D01*
X1036341Y820421D02*
X1035283D01*
Y819363D01*
X1036341D01*
Y820421D01*
Y815131D02*
Y813015D01*
Y814073D01*
X1029993D01*
X1031051Y815131D01*
X1033167Y809841D02*
Y807725D01*
X1034225Y809841D02*
Y807725D01*
X1029993D02*
X1037399D01*
X1029993Y801377D02*
Y805609D01*
X1033167D01*
Y803493D01*
Y805609D01*
X1036341D01*
X1512952Y946912D02*
Y953260D01*
X1516126Y950086D01*
X1511894D01*
X1509778Y946912D02*
Y947970D01*
X1508720D01*
Y946912D01*
X1509778D01*
X1504488Y953260D02*
X1500256D01*
Y952202D01*
X1504488Y947970D01*
Y946912D01*
X1498140Y953260D02*
Y946912D01*
Y949028D01*
X1493908Y953260D01*
X1497082Y950086D01*
X1493908Y946912D01*
X1347785Y587376D02*
X1345669D01*
X1346727D01*
Y593724D01*
X1347785Y592666D01*
X1342495D02*
X1341437Y593724D01*
X1339321D01*
X1338263Y592666D01*
Y588434D01*
X1339321Y587376D01*
X1341437D01*
X1342495Y588434D01*
Y592666D01*
X1336147Y593724D02*
Y587376D01*
Y589492D01*
X1331915Y593724D01*
X1335089Y590550D01*
X1331915Y587376D01*
X1310894Y625602D02*
X1308778D01*
X1309836D01*
Y631950D01*
X1310894Y630892D01*
X1305604D02*
X1304546Y631950D01*
X1302430D01*
X1301372Y630892D01*
Y626660D01*
X1302430Y625602D01*
X1304546D01*
X1305604Y626660D01*
Y630892D01*
X1299256Y631950D02*
Y625602D01*
Y627718D01*
X1295024Y631950D01*
X1298198Y628776D01*
X1295024Y625602D01*
X1324715Y615954D02*
X1325773Y617012D01*
Y619128D01*
X1324715Y620186D01*
X1320483D01*
X1319425Y619128D01*
Y617012D01*
X1320483Y615954D01*
X1324715D01*
X1319425Y622302D02*
X1320483D01*
Y623360D01*
X1319425D01*
Y622302D01*
Y627592D02*
Y629708D01*
Y628650D01*
X1325773D01*
X1324715Y627592D01*
X1322599Y632882D02*
Y634998D01*
X1321541Y632882D02*
Y634998D01*
X1325773D02*
X1318367D01*
X1325773Y641346D02*
Y637114D01*
X1322599D01*
Y639230D01*
Y637114D01*
X1319425D01*
X1347365Y614676D02*
X1346307Y613618D01*
Y611502D01*
X1347365Y610444D01*
X1351597D01*
X1352655Y611502D01*
Y613618D01*
X1351597Y614676D01*
X1347365D01*
X1352655Y608328D02*
X1351597D01*
Y607270D01*
X1352655D01*
Y608328D01*
Y603038D02*
Y600922D01*
Y601980D01*
X1346307D01*
X1347365Y603038D01*
X1349481Y597748D02*
Y595632D01*
X1350539Y597748D02*
Y595632D01*
X1346307D02*
X1353713D01*
X1346307Y589284D02*
Y593516D01*
X1349481D01*
Y591400D01*
Y593516D01*
X1352655D01*
D111*
X1478915Y853440D02*
X1482800D01*
X1474470Y857885D02*
X1478915Y853440D01*
X1474470Y857885D02*
Y871220D01*
D112*
X1481300Y666009D02*
Y671047D01*
X1478781D01*
X1477941Y670208D01*
Y668528D01*
X1478781Y667688D01*
X1481300D01*
X1479621D02*
X1477941Y666009D01*
X1476262Y670208D02*
X1475422Y671047D01*
X1473743D01*
X1472903Y670208D01*
Y669368D01*
X1473743Y668528D01*
X1474582D01*
X1473743D01*
X1472903Y667688D01*
Y666849D01*
X1473743Y666009D01*
X1475422D01*
X1476262Y666849D01*
X1471223D02*
X1470384Y666009D01*
X1468704D01*
X1467865Y666849D01*
Y670208D01*
X1468704Y671047D01*
X1470384D01*
X1471223Y670208D01*
Y669368D01*
X1470384Y668528D01*
X1467865D01*
X1481300Y729561D02*
Y734599D01*
X1478781D01*
X1477941Y733759D01*
Y732080D01*
X1478781Y731240D01*
X1481300D01*
X1479621D02*
X1477941Y729561D01*
X1476262Y733759D02*
X1475422Y734599D01*
X1473743D01*
X1472903Y733759D01*
Y732919D01*
X1473743Y732080D01*
X1474583D01*
X1473743D01*
X1472903Y731240D01*
Y730400D01*
X1473743Y729561D01*
X1475422D01*
X1476262Y730400D01*
X1471223Y733759D02*
X1470384Y734599D01*
X1468704D01*
X1467865Y733759D01*
Y732919D01*
X1468704Y732080D01*
X1467865Y731240D01*
Y730400D01*
X1468704Y729561D01*
X1470384D01*
X1471223Y730400D01*
Y731240D01*
X1470384Y732080D01*
X1471223Y732919D01*
Y733759D01*
X1470384Y732080D02*
X1468704D01*
X1481860Y759481D02*
Y764519D01*
X1479341D01*
X1478501Y763680D01*
Y762000D01*
X1479341Y761160D01*
X1481860D01*
X1480181D02*
X1478501Y759481D01*
X1476822Y763680D02*
X1475982Y764519D01*
X1474303D01*
X1473463Y763680D01*
Y762840D01*
X1474303Y762000D01*
X1475142D01*
X1474303D01*
X1473463Y761160D01*
Y760321D01*
X1474303Y759481D01*
X1475982D01*
X1476822Y760321D01*
X1468424Y764519D02*
X1471783D01*
Y762000D01*
X1470104Y762840D01*
X1469264D01*
X1468424Y762000D01*
Y760321D01*
X1469264Y759481D01*
X1470944D01*
X1471783Y760321D01*
X1480590Y829331D02*
Y834369D01*
X1478071D01*
X1477231Y833530D01*
Y831850D01*
X1478071Y831010D01*
X1480590D01*
X1478911D02*
X1477231Y829331D01*
X1475552Y833530D02*
X1474712Y834369D01*
X1473033D01*
X1472193Y833530D01*
Y832690D01*
X1473033Y831850D01*
X1473872D01*
X1473033D01*
X1472193Y831010D01*
Y830171D01*
X1473033Y829331D01*
X1474712D01*
X1475552Y830171D01*
X1467994Y829331D02*
Y834369D01*
X1470513Y831850D01*
X1467154D01*
X1471216Y866161D02*
Y871199D01*
X1468697D01*
X1467857Y870359D01*
Y868680D01*
X1468697Y867840D01*
X1471216D01*
X1469537D02*
X1467857Y866161D01*
X1466178Y870359D02*
X1465338Y871199D01*
X1463659D01*
X1462819Y870359D01*
Y869520D01*
X1463659Y868680D01*
X1464498D01*
X1463659D01*
X1462819Y867840D01*
Y867001D01*
X1463659Y866161D01*
X1465338D01*
X1466178Y867001D01*
X1461139Y866161D02*
X1459460D01*
X1460300D01*
Y871199D01*
X1461139Y870359D01*
X1479320Y924581D02*
Y929619D01*
X1476801D01*
X1475961Y928780D01*
Y927100D01*
X1476801Y926260D01*
X1479320D01*
X1477641D02*
X1475961Y924581D01*
X1474282Y928780D02*
X1473442Y929619D01*
X1471763D01*
X1470923Y928780D01*
Y927940D01*
X1471763Y927100D01*
X1472602D01*
X1471763D01*
X1470923Y926260D01*
Y925421D01*
X1471763Y924581D01*
X1473442D01*
X1474282Y925421D01*
X1469243Y928780D02*
X1468404Y929619D01*
X1466724D01*
X1465884Y928780D01*
Y925421D01*
X1466724Y924581D01*
X1468404D01*
X1469243Y925421D01*
Y928780D01*
X1481188Y1016230D02*
Y1021268D01*
X1478669D01*
X1477829Y1020429D01*
Y1018749D01*
X1478669Y1017909D01*
X1481188D01*
X1479508D02*
X1477829Y1016230D01*
X1472791D02*
X1476149D01*
X1472791Y1019589D01*
Y1020429D01*
X1473630Y1021268D01*
X1475310D01*
X1476149Y1020429D01*
X1467752Y1021268D02*
X1469432Y1020429D01*
X1471111Y1018749D01*
Y1017070D01*
X1470271Y1016230D01*
X1468592D01*
X1467752Y1017070D01*
Y1017909D01*
X1468592Y1018749D01*
X1471111D01*
X1042670Y822372D02*
X1047708D01*
Y824891D01*
X1046869Y825731D01*
X1045189D01*
X1044349Y824891D01*
Y822372D01*
Y824051D02*
X1042670Y825731D01*
X1046869Y827410D02*
X1047708Y828250D01*
Y829930D01*
X1046869Y830769D01*
X1046029D01*
X1045189Y829930D01*
X1044349Y830769D01*
X1043510D01*
X1042670Y829930D01*
Y828250D01*
X1043510Y827410D01*
X1044349D01*
X1045189Y828250D01*
X1046029Y827410D01*
X1046869D01*
X1045189Y828250D02*
Y829930D01*
X1016000Y878666D02*
X1021038D01*
Y881185D01*
X1020199Y882025D01*
X1018519D01*
X1017679Y881185D01*
Y878666D01*
Y880346D02*
X1016000Y882025D01*
X1020199Y883704D02*
X1021038Y884544D01*
Y886224D01*
X1020199Y887063D01*
X1019359D01*
X1018519Y886224D01*
X1017679Y887063D01*
X1016840D01*
X1016000Y886224D01*
Y884544D01*
X1016840Y883704D01*
X1017679D01*
X1018519Y884544D01*
X1019359Y883704D01*
X1020199D01*
X1018519Y884544D02*
Y886224D01*
X1021038Y892102D02*
Y888743D01*
X1018519D01*
X1019359Y890422D01*
Y891262D01*
X1018519Y892102D01*
X1016840D01*
X1016000Y891262D01*
Y889583D01*
X1016840Y888743D01*
X1555320Y779550D02*
X1558679D01*
Y777031D01*
X1556999Y777871D01*
X1556160D01*
X1555320Y777031D01*
Y775351D01*
X1556160Y774512D01*
X1557839D01*
X1558679Y775351D01*
X1553640Y779550D02*
Y776191D01*
X1551961Y774512D01*
X1550281Y776191D01*
Y779550D01*
X1556590Y971320D02*
X1559949D01*
Y968801D01*
X1558269Y969641D01*
X1557430D01*
X1556590Y968801D01*
Y967121D01*
X1557430Y966282D01*
X1559109D01*
X1559949Y967121D01*
X1554910Y971320D02*
Y967961D01*
X1553231Y966282D01*
X1551551Y967961D01*
Y971320D01*
X1562708Y708368D02*
Y705009D01*
X1561028Y703330D01*
X1559349Y705009D01*
Y708368D01*
X1557670D02*
X1555990D01*
X1556830D01*
Y703330D01*
X1557670D01*
X1555990D01*
X1553471D02*
Y708368D01*
X1550112Y703330D01*
Y708368D01*
X1556590Y683030D02*
X1559949D01*
Y680511D01*
X1558269Y681351D01*
X1557430D01*
X1556590Y680511D01*
Y678831D01*
X1557430Y677992D01*
X1559109D01*
X1559949Y678831D01*
X1554910Y683030D02*
Y679671D01*
X1553231Y677992D01*
X1551551Y679671D01*
Y683030D01*
X1556590Y874800D02*
X1559949D01*
Y872281D01*
X1558269Y873121D01*
X1557430D01*
X1556590Y872281D01*
Y870601D01*
X1557430Y869762D01*
X1559109D01*
X1559949Y870601D01*
X1554910Y874800D02*
Y871441D01*
X1553231Y869762D01*
X1551551Y871441D01*
Y874800D01*
X1560778Y998408D02*
Y995049D01*
X1559099Y993370D01*
X1557419Y995049D01*
Y998408D01*
X1555740D02*
X1554060D01*
X1554900D01*
Y993370D01*
X1555740D01*
X1554060D01*
X1551541D02*
Y998408D01*
X1548182Y993370D01*
Y998408D01*
X1563318Y901888D02*
Y898529D01*
X1561638Y896850D01*
X1559959Y898529D01*
Y901888D01*
X1558280D02*
X1556600D01*
X1557440D01*
Y896850D01*
X1558280D01*
X1556600D01*
X1554081D02*
Y901888D01*
X1550722Y896850D01*
Y901888D01*
X1562048Y805368D02*
Y802009D01*
X1560368Y800330D01*
X1558689Y802009D01*
Y805368D01*
X1557010D02*
X1555330D01*
X1556170D01*
Y800330D01*
X1557010D01*
X1555330D01*
X1552811D02*
Y805368D01*
X1549452Y800330D01*
Y805368D01*
X1013831Y815729D02*
X1014671Y816568D01*
X1016350D01*
X1017190Y815729D01*
Y812370D01*
X1016350Y811530D01*
X1014671D01*
X1013831Y812370D01*
X1012152Y811530D02*
X1010472D01*
X1011312D01*
Y816568D01*
X1012152Y815729D01*
X1007953D02*
X1007113Y816568D01*
X1005434D01*
X1004594Y815729D01*
Y814889D01*
X1005434Y814049D01*
X1006273D01*
X1005434D01*
X1004594Y813209D01*
Y812370D01*
X1005434Y811530D01*
X1007113D01*
X1007953Y812370D01*
X1480994Y947420D02*
Y952458D01*
X1478475D01*
X1477635Y951619D01*
Y949939D01*
X1478475Y949099D01*
X1480994D01*
X1479315D02*
X1477635Y947420D01*
X1472597D02*
X1475956D01*
X1472597Y950779D01*
Y951619D01*
X1473436Y952458D01*
X1475116D01*
X1475956Y951619D01*
X1470917Y952458D02*
X1467558D01*
Y951619D01*
X1470917Y948260D01*
Y947420D01*
X1477008Y693223D02*
X1480367D01*
X1481206Y692383D01*
Y690704D01*
X1480367Y689864D01*
X1477008D01*
X1476168Y690704D01*
Y692383D01*
X1477847Y691543D02*
X1476168Y693223D01*
Y692383D02*
X1477008Y693223D01*
X1481206Y698261D02*
Y694902D01*
X1478687D01*
X1479527Y696582D01*
Y697421D01*
X1478687Y698261D01*
X1477008D01*
X1476168Y697421D01*
Y695742D01*
X1477008Y694902D01*
Y792283D02*
X1480367D01*
X1481206Y791443D01*
Y789764D01*
X1480367Y788924D01*
X1477008D01*
X1476168Y789764D01*
Y791443D01*
X1477847Y790603D02*
X1476168Y792283D01*
Y791443D02*
X1477008Y792283D01*
X1476168Y796481D02*
X1481206D01*
X1478687Y793962D01*
Y797321D01*
X1476246Y886263D02*
X1479605D01*
X1480444Y885423D01*
Y883744D01*
X1479605Y882904D01*
X1476246D01*
X1475406Y883744D01*
Y885423D01*
X1477085Y884583D02*
X1475406Y886263D01*
Y885423D02*
X1476246Y886263D01*
X1479605Y887942D02*
X1480444Y888782D01*
Y890462D01*
X1479605Y891301D01*
X1478765D01*
X1477925Y890462D01*
Y889622D01*
Y890462D01*
X1477085Y891301D01*
X1476246D01*
X1475406Y890462D01*
Y888782D01*
X1476246Y887942D01*
X1477102Y982879D02*
X1480461D01*
X1481300Y982039D01*
Y980360D01*
X1480461Y979520D01*
X1477102D01*
X1476262Y980360D01*
Y982039D01*
X1477941Y981199D02*
X1476262Y982879D01*
Y982039D02*
X1477102Y982879D01*
X1476262Y987917D02*
Y984558D01*
X1479621Y987917D01*
X1480461D01*
X1481300Y987078D01*
Y985398D01*
X1480461Y984558D01*
X1323006Y600710D02*
Y605748D01*
X1320487D01*
X1319647Y604909D01*
Y603229D01*
X1320487Y602389D01*
X1323006D01*
X1321326D02*
X1319647Y600710D01*
X1314609D02*
X1317968D01*
X1314609Y604069D01*
Y604909D01*
X1315448Y605748D01*
X1317128D01*
X1317968Y604909D01*
X1300480Y599106D02*
X1305518D01*
Y601625D01*
X1304679Y602465D01*
X1302999D01*
X1302159Y601625D01*
Y599106D01*
Y600785D02*
X1300480Y602465D01*
Y604144D02*
Y605824D01*
Y604984D01*
X1305518D01*
X1304679Y604144D01*
Y608343D02*
X1305518Y609183D01*
Y610862D01*
X1304679Y611702D01*
X1301320D01*
X1300480Y610862D01*
Y609183D01*
X1301320Y608343D01*
X1304679D01*
X1335493Y627691D02*
X1336332Y626851D01*
Y625172D01*
X1335493Y624332D01*
X1332134D01*
X1331294Y625172D01*
Y626851D01*
X1332134Y627691D01*
X1335493Y629370D02*
X1336332Y630210D01*
Y631889D01*
X1335493Y632729D01*
X1334653D01*
X1333813Y631889D01*
X1332973Y632729D01*
X1332134D01*
X1331294Y631889D01*
Y630210D01*
X1332134Y629370D01*
X1332973D01*
X1333813Y630210D01*
X1334653Y629370D01*
X1335493D01*
X1333813Y630210D02*
Y631889D01*
X1360893Y627691D02*
X1361732Y626851D01*
Y625172D01*
X1360893Y624332D01*
X1357534D01*
X1356694Y625172D01*
Y626851D01*
X1357534Y627691D01*
Y629370D02*
X1356694Y630210D01*
Y631889D01*
X1357534Y632729D01*
X1360893D01*
X1361732Y631889D01*
Y630210D01*
X1360893Y629370D01*
X1360053D01*
X1359213Y630210D01*
Y632729D01*
X1408054Y570541D02*
Y568861D01*
Y569701D01*
X1403856D01*
X1403016Y568861D01*
Y568022D01*
X1403856Y567182D01*
X1408054Y572220D02*
Y575579D01*
X1407215D01*
X1403856Y572220D01*
X1403016D01*
%TF.MD5,171cde3fc93cf8d34fdda48301401b3d*%
M02*
