%TF.GenerationSoftware,Altium Limited,Altium Designer,22.2.1 (43)*%
G04 Layer_Color=16711935*
%FSLAX44Y44*%
%MOMM*%
%TF.SameCoordinates,0AFF7D02-74C0-442A-A7DB-72135CCE8720*%
%TF.FilePolarity,Positive*%
%TF.FileFunction,Other,Mechanical_13*%
%TF.Part,Single*%
G01*
G75*
%TA.AperFunction,NonConductor*%
%ADD107C,0.2000*%
%ADD108C,0.5080*%
%ADD109C,0.3000*%
%ADD110C,0.1270*%
%ADD158C,0.1524*%
%ADD160C,0.0500*%
%ADD161C,0.0508*%
%ADD210C,0.0000*%
%ADD211C,0.1000*%
G36*
X1339690Y1115410D02*
X1334690D01*
Y1127410D01*
X1339690D01*
Y1115410D01*
D02*
G37*
G36*
X1324690D02*
X1319690D01*
Y1127410D01*
X1324690D01*
Y1115410D01*
D02*
G37*
G36*
X773270Y970630D02*
X768270D01*
Y982630D01*
X773270D01*
Y970630D01*
D02*
G37*
G36*
X758270D02*
X753270D01*
Y982630D01*
X758270D01*
Y970630D01*
D02*
G37*
G36*
X598250Y769270D02*
X598250Y757270D01*
X593250Y757270D01*
X593250Y769270D01*
X598250Y769270D01*
D02*
G37*
G36*
X583250Y757270D02*
X578250Y757270D01*
Y769270D01*
X583250Y769270D01*
X583250Y757270D01*
D02*
G37*
G36*
X297020D02*
X292020D01*
Y769270D01*
X297020D01*
Y757270D01*
D02*
G37*
G36*
X282020D02*
X277020D01*
Y769270D01*
X282020D01*
Y757270D01*
D02*
G37*
G36*
X605790Y651764D02*
X584200D01*
Y664464D01*
X605790D01*
Y651764D01*
D02*
G37*
G36*
X302260Y650240D02*
X280670D01*
Y662940D01*
X302260D01*
Y650240D01*
D02*
G37*
G36*
X605790Y597154D02*
X584200D01*
Y609854D01*
X605790D01*
Y597154D01*
D02*
G37*
G36*
X302260Y595630D02*
X280670D01*
Y608330D01*
X302260D01*
Y595630D01*
D02*
G37*
G36*
X605790Y542544D02*
X584200D01*
Y555244D01*
X605790D01*
Y542544D01*
D02*
G37*
G36*
X302260Y541020D02*
X280670D01*
Y553720D01*
X302260D01*
Y541020D01*
D02*
G37*
G36*
X605790Y486410D02*
X584200D01*
Y499110D01*
X605790D01*
Y486410D01*
D02*
G37*
G36*
X302260D02*
X280670Y486410D01*
Y499110D01*
X302260D01*
Y486410D01*
D02*
G37*
G36*
X605790Y431800D02*
X584200D01*
Y444500D01*
X605790D01*
Y431800D01*
D02*
G37*
G36*
X302260D02*
X280670D01*
Y444500D01*
X302260D01*
Y431800D01*
D02*
G37*
G36*
X1399190Y388650D02*
X1387190D01*
Y393650D01*
X1399190D01*
Y388650D01*
D02*
G37*
G36*
X1332690D02*
X1320690D01*
Y393650D01*
X1332690D01*
Y388650D01*
D02*
G37*
G36*
X1372520Y388650D02*
X1360520D01*
Y393650D01*
X1372520D01*
Y388650D01*
D02*
G37*
G36*
X1307290Y388540D02*
X1295290D01*
Y393540D01*
X1307290D01*
Y388540D01*
D02*
G37*
G36*
X605790Y377190D02*
X584200D01*
Y389890D01*
X605790D01*
Y377190D01*
D02*
G37*
G36*
X302260Y389890D02*
Y377190D01*
X280670D01*
Y389890D01*
X302260Y389890D01*
D02*
G37*
G36*
X1399190Y373650D02*
X1387190D01*
Y378650D01*
X1399190D01*
Y373650D01*
D02*
G37*
G36*
X1332690D02*
X1320690D01*
Y378650D01*
X1332690D01*
Y373650D01*
D02*
G37*
G36*
X1372520Y373650D02*
X1360520D01*
Y378650D01*
X1372520D01*
Y373650D01*
D02*
G37*
G36*
X1307290Y373540D02*
X1295290D01*
Y378540D01*
X1307290D01*
Y373540D01*
D02*
G37*
G36*
X600550Y272130D02*
X595550D01*
Y284130D01*
X600550D01*
Y272130D01*
D02*
G37*
G36*
X585550D02*
X580550D01*
Y284130D01*
X585550D01*
Y272130D01*
D02*
G37*
G36*
X297020D02*
X292020D01*
Y284130D01*
X297020D01*
Y272130D01*
D02*
G37*
G36*
X282020D02*
X277020D01*
Y284130D01*
X282020D01*
Y272130D01*
D02*
G37*
D107*
X669490Y717550D02*
G03*
X669490Y717550I-1000J0D01*
G01*
X367230Y323850D02*
G03*
X367230Y323850I-1000J0D01*
G01*
X371370Y717550D02*
G03*
X371370Y717550I-1000J0D01*
G01*
Y323850D02*
G03*
X371370Y323850I-1000J0D01*
G01*
X367230Y717550D02*
G03*
X367230Y717550I-1000J0D01*
G01*
X673870D02*
G03*
X673870Y717550I-1000J0D01*
G01*
X670760Y323850D02*
G03*
X670760Y323850I-1000J0D01*
G01*
X674900D02*
G03*
X674900Y323850I-1000J0D01*
G01*
X551500Y980590D02*
G03*
X551500Y980590I-1000J0D01*
G01*
Y929790D02*
G03*
X551500Y929790I-1000J0D01*
G01*
X552210Y889300D02*
G03*
X552210Y889300I-1000J0D01*
G01*
X656320Y893750D02*
G03*
X656320Y893750I-1000J0D01*
G01*
X516620Y911340D02*
G03*
X516620Y911340I-1000J0D01*
G01*
Y819900D02*
G03*
X516620Y819900I-1000J0D01*
G01*
X630920Y1011860D02*
G03*
X630920Y1011860I-1000J0D01*
G01*
X551500Y838350D02*
G03*
X551500Y838350I-1000J0D01*
G01*
X865610Y594260D02*
G03*
X865610Y594260I-1000J0D01*
G01*
X865940Y345340D02*
G03*
X865940Y345340I-1000J0D01*
G01*
Y718720D02*
G03*
X865940Y718720I-1000J0D01*
G01*
X864670Y469800D02*
G03*
X864670Y469800I-1000J0D01*
G01*
X1198710Y1082210D02*
G03*
X1198710Y1082210I-1000J0D01*
G01*
X1339580Y1159040D02*
G03*
X1339580Y1159040I-1000J0D01*
G01*
X741410Y1098680D02*
G03*
X741410Y1098680I-1000J0D01*
G01*
X1085900Y1114050D02*
G03*
X1085900Y1114050I-1000J0D01*
G01*
X968060Y1100420D02*
G03*
X968060Y1100420I-1000J0D01*
G01*
X1084900Y954270D02*
G03*
X1084900Y954270I-1000J0D01*
G01*
X969060Y970540D02*
G03*
X969060Y970540I-1000J0D01*
G01*
X610650Y1183710D02*
G03*
X610650Y1183710I-1000J0D01*
G01*
X1372910Y678600D02*
G03*
X1372910Y678600I-1000J0D01*
G01*
X1257180Y300450D02*
G03*
X1257180Y300450I-1000J0D01*
G01*
X580920Y1080770D02*
G03*
X580920Y1080770I-1000J0D01*
G01*
X1219710Y720140D02*
G03*
X1219710Y720140I-1000J0D01*
G01*
X1525910Y803678D02*
G03*
X1525910Y803678I-1000J0D01*
G01*
X809990Y765690D02*
G03*
X809990Y765690I-1000J0D01*
G01*
X870800Y737750D02*
G03*
X870800Y737750I-1000J0D01*
G01*
X901280D02*
G03*
X901280Y737750I-1000J0D01*
G01*
X840470Y765690D02*
G03*
X840470Y765690I-1000J0D01*
G01*
X826790Y1080850D02*
G03*
X826790Y1080850I-1000J0D01*
G01*
X1413240Y854380D02*
G03*
X1413240Y854380I-1000J0D01*
G01*
X1277670Y751510D02*
G03*
X1277670Y751510I-1000J0D01*
G01*
X1313750Y723040D02*
G03*
X1313750Y723040I-1000J0D01*
G01*
X1559410Y469900D02*
G03*
X1559410Y469900I-1000J0D01*
G01*
X1290130Y275590D02*
G03*
X1290130Y275590I-1000J0D01*
G01*
X733790Y1087590D02*
G03*
X733790Y1087590I-1000J0D01*
G01*
X534400Y1114050D02*
G03*
X534400Y1114050I-1000J0D01*
G01*
X1360840Y1041400D02*
G03*
X1360840Y1041400I-1000J0D01*
G01*
X1116320Y840740D02*
G03*
X1116320Y840740I-1000J0D01*
G01*
X1467850Y1118010D02*
G03*
X1467850Y1118010I-1000J0D01*
G01*
X1525910Y707158D02*
G03*
X1525910Y707158I-1000J0D01*
G01*
X1525080Y900198D02*
G03*
X1525080Y900198I-1000J0D01*
G01*
X1525550Y996719D02*
G03*
X1525550Y996719I-1000J0D01*
G01*
X578250Y757270D02*
X578250Y769270D01*
X578250Y757270D02*
X598250D01*
X598250Y769270D02*
X598250Y757270D01*
X578250Y769270D02*
X598250D01*
X580550Y284130D02*
X600550D01*
Y272130D02*
Y284130D01*
X580550Y272130D02*
X600550D01*
X580550D02*
Y284130D01*
X277020Y272130D02*
Y284130D01*
Y272130D02*
X297020D01*
Y284130D01*
X277020D02*
X297020D01*
X277020Y769270D02*
X297020D01*
Y757270D02*
Y769270D01*
X277020Y757270D02*
X297020D01*
X277020D02*
Y769270D01*
X753270Y982630D02*
X773270D01*
Y970630D02*
Y982630D01*
X753270Y970630D02*
X773270D01*
X753270D02*
Y982630D01*
X1319690Y1115410D02*
Y1127410D01*
Y1115410D02*
X1339690D01*
Y1127410D01*
X1319690D02*
X1339690D01*
X1295291Y373540D02*
Y393540D01*
X1307290D01*
Y373540D02*
Y393540D01*
X1295291Y373540D02*
X1307290D01*
X1320690Y373650D02*
Y393650D01*
X1332690D01*
Y373650D02*
Y393650D01*
X1320690Y373650D02*
X1332690D01*
X1360520Y373650D02*
Y393650D01*
X1372520D01*
Y373650D02*
Y393650D01*
X1360520Y373650D02*
X1372520D01*
X1387190Y373650D02*
Y393650D01*
X1399190D01*
Y373650D02*
Y393650D01*
X1387190Y373650D02*
X1399190D01*
D108*
X1607058Y614680D02*
G03*
X1607058Y622300I0J3810D01*
G01*
D02*
G03*
X1607058Y614680I0J-3810D01*
G01*
D109*
X1018450Y302210D02*
G03*
X1018450Y302210I-1000J0D01*
G01*
X1455480Y591130D02*
G03*
X1455480Y591130I-1000J0D01*
G01*
D110*
X558400Y1074420D02*
G03*
X558400Y1074420I-25000J0D01*
G01*
X1488950Y668900D02*
X1520950D01*
X1488950Y651900D02*
X1520950D01*
Y668900D01*
X1488950Y651900D02*
Y668900D01*
Y736210D02*
X1520950D01*
X1488950Y719210D02*
X1520950D01*
Y736210D01*
X1488950Y719210D02*
Y736210D01*
X1488950Y765420D02*
X1520950Y765420D01*
X1488950Y748420D02*
X1520950D01*
Y765420D01*
X1488950Y765420D02*
X1488950Y748420D01*
Y815730D02*
Y832730D01*
X1520950Y815730D02*
Y832730D01*
X1488950Y815730D02*
X1520950D01*
X1488950Y832730D02*
X1520950D01*
X1488950Y861940D02*
X1488950Y844940D01*
X1520950Y844940D02*
Y861940D01*
X1488950Y844940D02*
X1520950Y844940D01*
X1488950Y861940D02*
X1520950Y861940D01*
X1488950Y929250D02*
X1520950D01*
X1488950Y912250D02*
X1520950D01*
Y929250D01*
X1488950Y912250D02*
Y929250D01*
X1488950Y1025770D02*
X1520950Y1025770D01*
X1488950Y1008770D02*
X1520950D01*
Y1025770D01*
X1488950Y1008770D02*
X1488950Y1025770D01*
X1160850Y884800D02*
X1192850Y884800D01*
X1160850Y867800D02*
X1192850D01*
X1160850D02*
X1160850Y884800D01*
X1192850Y867800D02*
Y884800D01*
X1100700Y812040D02*
Y844040D01*
X1083700Y812040D02*
Y844040D01*
X1100700D01*
X1083700Y812040D02*
X1100700D01*
X834380Y690130D02*
Y755130D01*
X801380Y690130D02*
Y755130D01*
X834380D01*
X801380Y690130D02*
X834380D01*
X970670Y717620D02*
Y749620D01*
X987670Y717620D02*
Y749620D01*
X970670Y717620D02*
X987670D01*
X970670Y749620D02*
X987670D01*
X584115Y688050D02*
X652865D01*
X584115D02*
Y747050D01*
X652865D01*
Y688050D02*
Y747050D01*
X344930Y268360D02*
Y285360D01*
X312930Y268360D02*
Y285360D01*
Y268360D02*
X344930D01*
X312930Y285360D02*
X344930D01*
Y756040D02*
Y773040D01*
X312930Y756040D02*
Y773040D01*
Y756040D02*
X344930D01*
X312930Y773040D02*
X344930D01*
X617730Y285360D02*
X649730D01*
X617730Y268360D02*
X649730D01*
X617730D02*
Y285360D01*
X649730Y268360D02*
Y285360D01*
X647140Y756040D02*
Y773040D01*
X615140D02*
X615140Y756040D01*
X647140D01*
X615140Y773040D02*
X647140D01*
X281855Y294350D02*
X350605D01*
X281855D02*
Y353350D01*
X350605D01*
Y294350D02*
Y353350D01*
X385995Y747050D02*
X454745D01*
Y688050D02*
Y747050D01*
X385995Y688050D02*
X454745D01*
X385995D02*
Y747050D01*
Y353350D02*
X454745D01*
Y294350D02*
Y353350D01*
X385995Y294350D02*
X454745D01*
X385995D02*
Y353350D01*
X281855Y688050D02*
X350605D01*
X281855D02*
Y747050D01*
X350605D01*
Y688050D02*
Y747050D01*
X688495Y688050D02*
Y747050D01*
Y688050D02*
X757245D01*
Y747050D01*
X688495D02*
X757245D01*
X654135Y294350D02*
Y353350D01*
X585385D02*
X654135D01*
X585385Y294350D02*
Y353350D01*
Y294350D02*
X654135D01*
X689525D02*
Y353350D01*
Y294350D02*
X758275D01*
Y353350D01*
X689525D02*
X758275D01*
X537490Y815430D02*
X547090D01*
X537490Y833030D02*
X547090D01*
X537490Y815430D02*
Y833030D01*
X547090Y815430D02*
Y833030D01*
X537490Y866230D02*
X547090D01*
X537490Y883830D02*
X547090D01*
X537490Y866230D02*
Y883830D01*
X547090Y866230D02*
Y883830D01*
X537490Y957670D02*
X547090D01*
X537490Y975270D02*
X547090D01*
X537490Y957670D02*
Y975270D01*
X547090Y957670D02*
Y975270D01*
X565250Y964090D02*
Y984090D01*
X577750D01*
Y964090D02*
Y984090D01*
X565250Y964090D02*
X577750D01*
X565240Y943890D02*
X582840D01*
X565240Y953490D02*
X582840D01*
Y943890D02*
Y953490D01*
X565240Y943890D02*
Y953490D01*
X565250Y913290D02*
X577750D01*
Y933290D01*
X565250D02*
X577750D01*
X565250Y913290D02*
Y933290D01*
X565960Y872800D02*
X578460D01*
Y892800D01*
X565960D02*
X578460D01*
X565960Y872800D02*
Y892800D01*
X664320Y849850D02*
Y877350D01*
X646320Y849850D02*
X664320D01*
X646320D02*
Y877350D01*
X664320D01*
X741960Y921930D02*
X751560D01*
X741960Y904330D02*
X751560D01*
Y921930D01*
X741960Y904330D02*
Y921930D01*
X573280Y1011310D02*
Y1028310D01*
X605280Y1011310D02*
Y1028310D01*
X573280D02*
X605280D01*
X573280Y1011310D02*
X605280D01*
X596020Y966980D02*
X613020D01*
X596020Y998980D02*
X613020D01*
X596020Y966980D02*
Y998980D01*
X613020Y966980D02*
Y998980D01*
X728470Y917330D02*
Y934330D01*
X696470Y917330D02*
Y934330D01*
Y917330D02*
X728470D01*
X696470Y934330D02*
X728470D01*
X696470Y908930D02*
X728470D01*
X696470Y891930D02*
X728470D01*
X696470D02*
Y908930D01*
X728470Y891930D02*
Y908930D01*
X502920Y916940D02*
X528320D01*
Y993140D01*
X502920D02*
X528320D01*
X502920Y916940D02*
Y993140D01*
Y825500D02*
X528320D01*
Y901700D01*
X502920D02*
X528320D01*
X502920Y825500D02*
Y901700D01*
X638920Y967960D02*
Y995460D01*
X620920Y967960D02*
X638920D01*
X620920D02*
Y995460D01*
X638920D01*
X565240Y993420D02*
Y1003020D01*
X582840Y993420D02*
Y1003020D01*
X565240D02*
X582840D01*
X565240Y993420D02*
X582840D01*
X565250Y821850D02*
X577750D01*
Y841850D01*
X565250D02*
X577750D01*
X565250Y821850D02*
Y841850D01*
X728470Y792870D02*
Y809870D01*
X696470Y792870D02*
Y809870D01*
Y792870D02*
X728470D01*
X696470Y809870D02*
X728470D01*
X596020Y822450D02*
X613020D01*
X596020Y790450D02*
X613020D01*
Y822450D01*
X596020Y790450D02*
Y822450D01*
X601220Y865260D02*
Y882260D01*
X633220Y865260D02*
Y882260D01*
X601220D02*
X633220D01*
X601220Y865260D02*
X633220D01*
X728470Y818270D02*
Y835270D01*
X696470Y818270D02*
Y835270D01*
Y818270D02*
X728470D01*
X696470Y835270D02*
X728470D01*
X601220Y839860D02*
X633220D01*
X601220Y856860D02*
X633220D01*
Y839860D02*
Y856860D01*
X601220Y839860D02*
Y856860D01*
X596020Y926590D02*
X613020D01*
X596020Y894590D02*
X613020D01*
Y926590D01*
X596020Y894590D02*
Y926590D01*
X537490Y905600D02*
X547090D01*
X537490Y923200D02*
X547090D01*
X537490Y905600D02*
Y923200D01*
X547090Y905600D02*
Y923200D01*
X565240Y852450D02*
Y862050D01*
X582840Y852450D02*
Y862050D01*
X565240D02*
X582840D01*
X565240Y852450D02*
X582840D01*
X741960Y822870D02*
X751560D01*
X741960Y805270D02*
X751560D01*
Y822870D01*
X741960Y805270D02*
Y822870D01*
X645070Y783870D02*
Y793470D01*
X627470Y783870D02*
Y793470D01*
Y783870D02*
X645070D01*
X627470Y793470D02*
X645070D01*
X1391160Y427710D02*
X1423160D01*
X1391160Y410710D02*
X1423160D01*
X1391160D02*
Y427710D01*
X1423160Y410710D02*
Y427710D01*
X1561844Y749690D02*
Y766690D01*
X1529844Y749690D02*
Y766690D01*
Y749690D02*
X1561844D01*
X1529844Y766690D02*
X1561844D01*
X1561844Y790330D02*
Y807330D01*
X1529844Y807330D02*
X1529844Y790330D01*
X1561844Y790330D01*
X1529844Y807330D02*
X1561844Y807330D01*
X1561844Y830970D02*
Y847970D01*
X1529844Y830970D02*
Y847970D01*
Y830970D02*
X1561844D01*
X1529844Y847970D02*
X1561844Y847970D01*
X1558864Y996070D02*
Y1013070D01*
X1526864Y996070D02*
Y1013070D01*
Y996070D02*
X1558864D01*
X1526864Y1013070D02*
X1558864D01*
X1527304Y972430D02*
X1559304Y972430D01*
X1527304Y955430D02*
X1559304D01*
X1527304D02*
Y972430D01*
X1559304Y955430D02*
Y972430D01*
X1528574Y931790D02*
X1560574D01*
X1528574Y914790D02*
X1560574Y914790D01*
X1528574Y914790D02*
Y931790D01*
X1560574Y914790D02*
Y931790D01*
X975640Y677000D02*
X985240D01*
X975640Y694600D02*
X985240D01*
X975640Y677000D02*
Y694600D01*
X985240Y677000D02*
Y694600D01*
X985240Y303620D02*
Y321220D01*
X975640Y303620D02*
Y321220D01*
X985240D01*
X975640Y303620D02*
X985240D01*
X970670Y344680D02*
Y376680D01*
X987670Y344680D02*
Y376680D01*
X970670Y344680D02*
X987670D01*
X970670Y376680D02*
X987670D01*
X939890Y373100D02*
X957490D01*
X939890Y363500D02*
X957490D01*
X939890D02*
Y373100D01*
X957490Y363500D02*
Y373100D01*
X859510Y297270D02*
Y314870D01*
X849910Y297270D02*
Y314870D01*
X859510D01*
X849910Y297270D02*
X859510D01*
X985240Y428080D02*
Y445680D01*
X975640Y428080D02*
Y445680D01*
X985240D01*
X975640Y428080D02*
X985240D01*
X957490Y736880D02*
Y746480D01*
X939890Y736880D02*
Y746480D01*
Y736880D02*
X957490D01*
X939890Y746480D02*
X957490D01*
X975640Y553810D02*
X985240D01*
X975640Y571410D02*
X985240D01*
X975640Y553810D02*
Y571410D01*
X985240Y553810D02*
Y571410D01*
X859510Y673320D02*
Y690920D01*
X849910Y673320D02*
Y690920D01*
X859510D01*
X849910Y673320D02*
X859510D01*
X970670Y469140D02*
Y501140D01*
X987670Y469140D02*
Y501140D01*
X970670Y469140D02*
X987670D01*
X970670Y501140D02*
X987670D01*
X970670Y592330D02*
Y624330D01*
X987670Y592330D02*
Y624330D01*
X970670Y592330D02*
X987670D01*
X970670Y624330D02*
X987670D01*
X884860Y604210D02*
X948360D01*
Y508310D02*
Y604210D01*
X884860Y508310D02*
X948360D01*
X884860D02*
Y604210D01*
X885190Y355290D02*
X948690D01*
Y259390D02*
Y355290D01*
X885190Y259390D02*
X948690D01*
X885190D02*
Y355290D01*
Y632770D02*
Y728670D01*
Y632770D02*
X948690D01*
Y728670D01*
X885190D02*
X948690D01*
X849910Y546190D02*
X859510D01*
X849910Y563790D02*
X859510D01*
X849910Y546190D02*
Y563790D01*
X859510Y546190D02*
Y563790D01*
X957490Y612420D02*
Y622020D01*
X939890Y612420D02*
Y622020D01*
Y612420D02*
X957490D01*
X939890Y622020D02*
X957490D01*
X849910Y423000D02*
X859510D01*
X849910Y440600D02*
X859510D01*
X849910Y423000D02*
Y440600D01*
X859510Y423000D02*
Y440600D01*
X938750Y497560D02*
X956350D01*
X938750Y487960D02*
X956350D01*
X938750D02*
Y497560D01*
X956350Y487960D02*
Y497560D01*
X883920Y383850D02*
Y479750D01*
Y383850D02*
X947420D01*
Y479750D01*
X883920D02*
X947420D01*
X1002040Y523760D02*
Y588760D01*
X1035040Y523760D02*
Y588760D01*
X1002040Y523760D02*
X1035040D01*
X1002040Y588760D02*
X1035040D01*
X1394390Y864110D02*
X1394390Y896110D01*
X1377390Y864110D02*
X1377390Y896110D01*
X1394390D01*
X1377390Y864110D02*
X1394390Y864110D01*
Y912370D02*
X1394390Y944370D01*
X1377390Y912370D02*
Y944370D01*
X1394390Y944370D01*
X1377390Y912370D02*
X1394390D01*
X1395664Y968130D02*
X1427664D01*
X1395664Y985130D02*
X1427664D01*
Y968130D02*
Y985130D01*
X1395664Y968130D02*
Y985130D01*
X1184910Y1235890D02*
X1286510D01*
Y1146680D02*
Y1235890D01*
X1184910Y1146680D02*
X1286510D01*
X1184910D02*
Y1235890D01*
X1395664Y832240D02*
Y849240D01*
X1427664Y832240D02*
Y849240D01*
X1395664D02*
X1427664D01*
X1395664Y832240D02*
X1427664D01*
X1395664Y791600D02*
Y808600D01*
X1427664Y808600D02*
X1427664Y791600D01*
X1395664Y808600D02*
X1427664Y808600D01*
X1395664Y791600D02*
X1427664Y791600D01*
X1395224Y750960D02*
Y767960D01*
X1427224Y750960D02*
Y767960D01*
X1395224D02*
X1427224D01*
X1395224Y750960D02*
X1427224D01*
X1311840Y761240D02*
Y793240D01*
X1294840Y761240D02*
Y793240D01*
X1311840D01*
X1294840Y761240D02*
X1311840D01*
X1351440Y688690D02*
X1371440D01*
X1351440Y700690D02*
X1371440D01*
Y688690D02*
Y700690D01*
X1351440Y688690D02*
Y700690D01*
X1162810Y803030D02*
Y820030D01*
X1130810D02*
X1130810Y803030D01*
X1162810Y803030D01*
X1130810Y820030D02*
X1162810D01*
X1130810Y778900D02*
Y795900D01*
X1162810Y778900D02*
Y795900D01*
X1130810D02*
X1162810D01*
X1130810Y778900D02*
X1162810D01*
X997340Y718060D02*
X1014340D01*
X997340Y750060D02*
X1014340D01*
X997340Y718060D02*
Y750060D01*
X1014340Y718060D02*
Y750060D01*
X1002040Y398030D02*
X1035040D01*
X1002040Y463030D02*
X1035040D01*
X1002040Y398030D02*
Y463030D01*
X1035040Y398030D02*
Y463030D01*
X798840Y285000D02*
X831840D01*
X798840Y350000D02*
X831840D01*
X798840Y285000D02*
Y350000D01*
X831840Y285000D02*
Y350000D01*
X1515870Y1096400D02*
Y1113400D01*
X1483870Y1096400D02*
Y1113400D01*
Y1096400D02*
X1515870D01*
X1483870Y1113400D02*
X1515870D01*
X1483870Y1088000D02*
X1515870D01*
X1483870Y1071000D02*
X1515870D01*
X1483870D02*
Y1088000D01*
X1515870Y1071000D02*
Y1088000D01*
X1309080Y1174665D02*
Y1243415D01*
X1368080D01*
Y1174665D02*
Y1243415D01*
X1309080Y1174665D02*
X1368080D01*
X1308610Y1088780D02*
Y1105780D01*
X1340610Y1088780D02*
Y1105780D01*
X1308610D02*
X1340610D01*
X1308610Y1088780D02*
X1340610D01*
X697910Y1263680D02*
X782910D01*
X697910Y1128680D02*
Y1263680D01*
Y1128680D02*
X782910D01*
Y1263680D01*
X1078400Y1120550D02*
X1131400D01*
X1146400Y1135550D01*
Y1203550D01*
X1063400D02*
X1146400D01*
X1063400Y1135550D02*
Y1203550D01*
Y1135550D02*
X1078400Y1120550D01*
X954560Y1111920D02*
X1021560D01*
X1039560Y1129920D01*
Y1214920D01*
X936560D02*
X1039560D01*
X936560Y1129920D02*
Y1214920D01*
Y1129920D02*
X954560Y1111920D01*
X1071400Y965770D02*
X1138400D01*
X1156400Y983770D01*
Y1068770D01*
X1053400D02*
X1156400D01*
X1053400Y983770D02*
Y1068770D01*
Y983770D02*
X1071400Y965770D01*
X961560Y977040D02*
X1014560D01*
X1029560Y992040D01*
Y1060040D01*
X946560D02*
X1029560D01*
X946560Y992040D02*
Y1060040D01*
Y992040D02*
X961560Y977040D01*
X1357560Y414640D02*
Y446640D01*
X1374560Y414640D02*
Y446640D01*
X1357560Y414640D02*
X1374560D01*
X1357560Y446640D02*
X1374560D01*
X1318190Y414640D02*
Y446640D01*
X1335190Y414640D02*
Y446640D01*
X1318190Y414640D02*
X1335190D01*
X1318190Y446640D02*
X1335190D01*
X1270050Y410710D02*
X1302050D01*
X1270050Y427710D02*
X1302050D01*
Y410710D02*
Y427710D01*
X1270050Y410710D02*
Y427710D01*
X1517560Y348260D02*
Y357860D01*
X1499960Y348260D02*
Y357860D01*
Y348260D02*
X1517560D01*
X1499960Y357860D02*
X1517560D01*
X1018930Y957070D02*
X1035930D01*
X1018930Y925070D02*
X1035930D01*
Y957070D01*
X1018930Y925070D02*
Y957070D01*
X673860Y1139580D02*
Y1156580D01*
X641860Y1139580D02*
Y1156580D01*
Y1139580D02*
X673860D01*
X641860Y1156580D02*
X673860D01*
X620520Y1139580D02*
Y1156580D01*
X588520Y1139580D02*
Y1156580D01*
Y1139580D02*
X620520D01*
X588520Y1156580D02*
X620520D01*
X374260Y871730D02*
Y903730D01*
X357260Y871730D02*
Y903730D01*
X374260D01*
X357260Y871730D02*
X374260D01*
X485420Y1035140D02*
X495020D01*
X485420Y1052740D02*
X495020D01*
X485420Y1035140D02*
Y1052740D01*
X495020Y1035140D02*
Y1052740D01*
X318390Y1061210D02*
X334390D01*
X318390Y1029210D02*
X334390D01*
Y1061210D01*
X318390Y1029210D02*
Y1061210D01*
X334390Y1116840D02*
Y1148840D01*
X318390Y1116840D02*
Y1148840D01*
X334390D01*
X318390Y1116840D02*
X334390D01*
X361060Y1116840D02*
Y1148840D01*
X345060Y1116840D02*
Y1148840D01*
X361060D01*
X345060Y1116840D02*
X361060D01*
X774190Y942730D02*
Y959730D01*
X742190Y942730D02*
Y959730D01*
Y942730D02*
X774190D01*
X742190Y959730D02*
X774190D01*
X374260Y994920D02*
Y1026920D01*
X357260Y994920D02*
Y1026920D01*
X374260D01*
X357260Y994920D02*
X374260D01*
Y922530D02*
Y954530D01*
X357260Y922530D02*
Y954530D01*
X374260D01*
X357260Y922530D02*
X374260D01*
X318390Y934210D02*
X334390D01*
X318390Y902210D02*
X334390D01*
Y934210D01*
X318390Y902210D02*
Y934210D01*
X495020Y911950D02*
Y929550D01*
X485420Y911950D02*
Y929550D01*
X495020D01*
X485420Y911950D02*
X495020D01*
X357260Y1045720D02*
X374260D01*
X357260Y1077720D02*
X374260D01*
X357260Y1045720D02*
Y1077720D01*
X374260Y1045720D02*
Y1077720D01*
X466750Y1314710D02*
X657250D01*
X466750Y1189710D02*
Y1314710D01*
Y1189710D02*
X657250D01*
Y1314710D01*
X1526884Y874750D02*
X1544484D01*
X1526884Y865150D02*
X1544484D01*
X1526884D02*
Y874750D01*
X1544484D02*
X1544484Y865150D01*
X1530694Y783310D02*
X1548294Y783310D01*
X1530694Y773710D02*
X1548294Y773710D01*
X1530694Y783310D02*
X1530694Y773710D01*
X1548294Y773710D02*
Y783310D01*
X1530694Y907770D02*
X1548294Y907770D01*
X1530694Y898170D02*
X1548294Y898170D01*
X1530694Y907770D02*
X1530694Y898170D01*
X1548294Y898170D02*
Y907770D01*
X1548294Y823950D02*
X1548294Y814350D01*
X1530694D02*
Y823950D01*
Y814350D02*
X1548294D01*
X1530694Y823950D02*
X1548294Y823950D01*
X1408644Y951510D02*
X1426244Y951510D01*
X1408644Y961110D02*
X1426244Y961110D01*
X1426244Y951510D01*
X1408644Y951510D02*
Y961110D01*
X1408644Y815620D02*
X1426244Y815620D01*
X1408644Y825220D02*
X1426244Y825220D01*
Y815620D02*
Y825220D01*
X1408644Y815620D02*
Y825220D01*
X1528154Y989050D02*
X1545754D01*
X1528154Y979450D02*
X1545754D01*
X1528154D02*
Y989050D01*
X1545754Y979450D02*
Y989050D01*
X1530694Y742670D02*
X1548294Y742670D01*
X1530694Y733070D02*
X1548294D01*
X1530694D02*
X1530694Y742670D01*
X1548294Y733070D02*
Y742670D01*
X1408644Y734340D02*
X1426244D01*
X1408644Y743940D02*
X1426244D01*
Y734340D02*
Y743940D01*
X1408644Y734340D02*
Y743940D01*
X1529424Y948410D02*
X1547024Y948410D01*
X1529424Y938810D02*
X1547024D01*
X1529424Y948410D02*
X1529424Y938810D01*
X1547024D02*
X1547024Y948410D01*
X1544484Y701320D02*
Y710920D01*
X1526884Y701320D02*
Y710920D01*
Y701320D02*
X1544484D01*
X1526884Y710920D02*
X1544484D01*
X1408644Y774980D02*
X1426244D01*
X1408644Y784580D02*
X1426244D01*
Y774980D02*
Y784580D01*
X1408644Y774980D02*
Y784580D01*
X1241910Y514200D02*
Y654200D01*
X1381910Y514200D02*
Y654200D01*
X1241910Y514200D02*
X1381910D01*
X1241910Y654200D02*
X1381910D01*
X1414870Y374370D02*
X1432470D01*
X1414870Y364770D02*
X1432470D01*
X1414870D02*
Y374370D01*
X1432470Y364770D02*
Y374370D01*
X1466760Y749580D02*
Y759180D01*
X1449160Y749580D02*
Y759180D01*
Y749580D02*
X1466760D01*
X1449160Y759180D02*
X1466760D01*
X1435190Y913410D02*
X1435190Y923010D01*
X1452790D02*
X1452790Y913410D01*
X1435190Y923010D02*
X1452790D01*
X1435190Y913410D02*
X1452790D01*
X1024980Y818870D02*
X1042580D01*
X1024980Y809270D02*
X1042580D01*
Y818870D01*
X1024980Y809270D02*
Y818870D01*
X595545Y1051270D02*
Y1110270D01*
Y1051270D02*
X664295D01*
Y1110270D01*
X595545D02*
X664295D01*
X1036710Y838710D02*
X1053710D01*
X1036710Y870710D02*
X1053710D01*
Y838710D02*
Y870710D01*
X1036710Y838710D02*
Y870710D01*
X1096400Y875540D02*
X1113400D01*
X1096400Y907540D02*
X1113400D01*
X1096400Y875540D02*
Y907540D01*
X1113400Y875540D02*
Y907540D01*
X1330850Y598250D02*
X1348850D01*
X1330850Y608250D02*
X1348850D01*
Y598250D02*
Y608250D01*
X1330850Y598250D02*
Y608250D01*
X932090Y921030D02*
Y930630D01*
X914490Y921030D02*
Y930630D01*
Y921030D02*
X932090D01*
X914490Y930630D02*
X932090D01*
X939890Y753390D02*
Y762990D01*
X957490Y753390D02*
Y762990D01*
X939890D02*
X957490D01*
X939890Y753390D02*
X957490D01*
X1147710Y764140D02*
X1196710D01*
Y714140D02*
Y764140D01*
X1147710Y714140D02*
X1196710D01*
X1147710D02*
Y764140D01*
X1223290Y747940D02*
X1232890D01*
X1223290Y730340D02*
X1232890D01*
Y747940D01*
X1223290Y730340D02*
Y747940D01*
X1308020Y619650D02*
Y637650D01*
X1298020Y619650D02*
Y637650D01*
X1308020D01*
X1298020Y619650D02*
X1308020D01*
X1352270Y619850D02*
Y637450D01*
X1342670Y619850D02*
Y637450D01*
Y619850D02*
X1352270D01*
X1342670Y637450D02*
X1352270D01*
X1326870Y619850D02*
Y637450D01*
X1317270Y619850D02*
Y637450D01*
Y619850D02*
X1326870D01*
X1317270Y637450D02*
X1326870D01*
X1201330Y501930D02*
Y511530D01*
X1183730Y501930D02*
Y511530D01*
Y501930D02*
X1201330D01*
X1183730Y511530D02*
X1201330D01*
X1376770Y480340D02*
X1394370D01*
X1376770Y489940D02*
X1394370D01*
Y480340D02*
Y489940D01*
X1376770Y480340D02*
Y489940D01*
X944000Y957070D02*
X961000D01*
X944000Y925070D02*
X961000D01*
Y957070D01*
X944000Y925070D02*
Y957070D01*
X1508910Y776179D02*
Y805178D01*
X1495910D02*
X1508910D01*
X1495910Y776179D02*
X1495910Y805178D01*
X1495910Y776179D02*
X1508910Y776179D01*
X1539750Y794140D02*
Y811140D01*
X1571750Y811140D02*
X1571750Y794140D01*
X1539750D02*
X1571750D01*
X1539750Y811140D02*
X1571750Y811140D01*
X1539750Y768740D02*
Y785740D01*
X1571750Y768740D02*
Y785740D01*
X1539750Y768740D02*
X1571750Y768740D01*
X1539750Y785740D02*
X1571750D01*
X1011310Y870710D02*
X1028310D01*
X1011310Y838710D02*
X1028310D01*
X1011310D02*
Y870710D01*
X1028310Y838710D02*
Y870710D01*
X805490Y780440D02*
X825490D01*
X805490D02*
X805490Y792940D01*
X825490Y792940D01*
X825490Y780440D01*
X886300Y752500D02*
Y765000D01*
X866300D02*
X886300D01*
X866300Y752500D02*
Y765000D01*
Y752500D02*
X886300D01*
X916780Y752500D02*
Y765000D01*
X896780D02*
X916780D01*
X896780Y752500D02*
Y765000D01*
Y752500D02*
X916780D01*
X855970Y780440D02*
Y792940D01*
X835970D02*
X855970D01*
X835970Y780440D02*
Y792940D01*
Y780440D02*
X855970D01*
X1311840Y809500D02*
X1311840Y841500D01*
X1294840Y809500D02*
Y841500D01*
X1311840D01*
X1294840Y809500D02*
X1311840D01*
X808990Y1143800D02*
X910590D01*
Y1233050D01*
X808990D02*
X910590D01*
X808990Y1143800D02*
Y1233050D01*
X1243320Y832370D02*
Y897370D01*
X1210320Y832370D02*
Y897370D01*
X1243320D01*
X1210320Y832370D02*
X1243320D01*
X1404240Y868380D02*
X1420240Y868380D01*
X1420240Y894380D01*
X1404240Y894380D02*
X1420240Y894380D01*
X1404240Y894380D02*
X1404240Y868380D01*
X1268670Y765510D02*
X1284670D01*
Y791510D01*
X1268670D02*
X1284670D01*
X1268670Y765510D02*
Y791510D01*
X1181190Y687350D02*
X1198790D01*
X1181190Y696950D02*
X1198790D01*
Y687350D02*
Y696950D01*
X1181190Y687350D02*
Y696950D01*
X1209320Y675730D02*
Y693330D01*
X1218920Y675730D02*
Y693330D01*
X1209320Y675730D02*
X1218920D01*
X1209320Y693330D02*
X1218920D01*
X1255750Y690970D02*
Y708570D01*
X1246150Y690970D02*
Y708570D01*
X1255750D01*
X1246150Y690970D02*
X1255750D01*
X1239240D02*
Y708570D01*
X1229640Y690970D02*
Y708570D01*
X1239240D01*
X1229640Y690970D02*
X1239240D01*
X1071970Y931900D02*
X1089570D01*
X1071970Y922300D02*
X1089570D01*
X1071970D02*
Y931900D01*
X1089570Y922300D02*
Y931900D01*
X1058900Y925920D02*
Y943520D01*
X1049300Y925920D02*
Y943520D01*
X1058900D01*
X1049300Y925920D02*
X1058900D01*
X976720Y918490D02*
X994320D01*
X976720Y928090D02*
X994320D01*
Y918490D02*
Y928090D01*
X976720Y918490D02*
Y928090D01*
X1174840Y903960D02*
X1192440D01*
X1174840Y894360D02*
X1192440D01*
X1174840D02*
X1174840Y903960D01*
X1192440Y894360D02*
Y903960D01*
X1384580Y693510D02*
Y711110D01*
X1394180Y693510D02*
Y711110D01*
X1384580Y693510D02*
X1394180D01*
X1384580Y711110D02*
X1394180D01*
X1021360Y732880D02*
Y750480D01*
X1030960Y732880D02*
Y750480D01*
X1021360Y732880D02*
X1030960D01*
X1021360Y750480D02*
X1030960D01*
X899440Y884010D02*
Y901610D01*
X909040Y884010D02*
Y901610D01*
X899440Y884010D02*
X909040D01*
X899440Y901610D02*
X909040D01*
X1353910Y721080D02*
X1371510D01*
X1353910Y711480D02*
X1371510D01*
X1353910D02*
Y721080D01*
X1371510Y711480D02*
Y721080D01*
X1339570Y690970D02*
Y708570D01*
X1329970Y690970D02*
Y708570D01*
X1339570D01*
X1329970Y690970D02*
X1339570D01*
X1317750Y688540D02*
Y713540D01*
X1285750Y688540D02*
X1317750D01*
X1285750Y713540D02*
X1317750D01*
X1285750Y688540D02*
Y713540D01*
X1263930Y690970D02*
Y708570D01*
X1273530Y690970D02*
Y708570D01*
X1263930Y690970D02*
X1273530D01*
X1263930Y708570D02*
X1273530D01*
X1544830Y594750D02*
Y611750D01*
X1576830Y594750D02*
Y611750D01*
X1544830D02*
X1576830D01*
X1544830Y594750D02*
X1576830D01*
X1526260Y610960D02*
Y628560D01*
X1516660Y610960D02*
Y628560D01*
X1526260D01*
X1516660Y610960D02*
X1526260D01*
X1414870Y392150D02*
X1432470D01*
X1414870Y382550D02*
X1432470D01*
X1414870D02*
X1414870Y392150D01*
X1432470D02*
X1432470Y382550D01*
X1559650Y710920D02*
X1577250D01*
X1559650Y701320D02*
X1577250D01*
X1559650D02*
Y710920D01*
X1577250Y701320D02*
Y710920D01*
X378480Y1129690D02*
X571480Y1129690D01*
X571480Y1174090D01*
X378480D02*
X571480D01*
X378480Y1129690D02*
Y1174090D01*
X1414870Y348260D02*
X1432470D01*
X1414870Y357860D02*
X1432470D01*
Y348260D02*
Y357860D01*
X1414870Y348260D02*
Y357860D01*
X1406170Y322490D02*
X1415770D01*
X1406170Y304890D02*
X1415770D01*
Y322490D01*
X1406170Y304890D02*
Y322490D01*
X762290Y1003215D02*
Y1071965D01*
X703290Y1003215D02*
X762290D01*
X703290D02*
Y1071965D01*
X762290D01*
X1011510Y309710D02*
X1053510D01*
Y256710D02*
Y309710D01*
X1011510Y256710D02*
X1053510D01*
X1011510D02*
Y309710D01*
X1197450Y536040D02*
Y548540D01*
X1177450Y536040D02*
Y548540D01*
Y536040D02*
X1197450D01*
X1177450Y548540D02*
X1197450D01*
X1177450Y568860D02*
X1177450Y556360D01*
X1197450D02*
Y568860D01*
X1177450D02*
X1197450D01*
X1177450Y556360D02*
X1197450D01*
X1437160Y601880D02*
X1437160Y589380D01*
X1417160D02*
Y601880D01*
Y589380D02*
X1437160D01*
X1417160Y601880D02*
X1437160Y601880D01*
X1417160Y610970D02*
Y623470D01*
X1437160D02*
X1437160Y610970D01*
X1417160Y623470D02*
X1437160D01*
X1417160Y610970D02*
X1437160D01*
X1425480Y501130D02*
X1567480D01*
X1425480D02*
Y616130D01*
X1415480D02*
X1425480D01*
X1415480D02*
Y641130D01*
X1567480D01*
Y501130D02*
Y641130D01*
X1054380Y337730D02*
X1063980D01*
X1054380Y320130D02*
X1063980D01*
Y337730D01*
X1054380Y320130D02*
Y337730D01*
X1344890Y480340D02*
Y489940D01*
X1362490Y480340D02*
Y489940D01*
X1344890D02*
X1362490D01*
X1344890Y480340D02*
X1362490D01*
X1183730Y518440D02*
Y528040D01*
X1201330Y518440D02*
Y528040D01*
X1183730D02*
X1201330D01*
X1183730Y518440D02*
X1201330D01*
X1347380Y1063270D02*
Y1072870D01*
X1329780Y1063270D02*
Y1072870D01*
Y1063270D02*
X1347380Y1063270D01*
X1329780Y1072870D02*
X1347380D01*
X1340130Y1000850D02*
Y1018450D01*
X1349730Y1000850D02*
Y1018450D01*
X1340130Y1000850D02*
X1349730D01*
X1340130Y1018450D02*
X1349730D01*
X1343440Y1032400D02*
Y1050400D01*
X1315940Y1050400D02*
X1343440Y1050400D01*
X1315940Y1032400D02*
Y1050400D01*
Y1032400D02*
X1343440Y1032400D01*
X1041910Y753990D02*
X1073910D01*
X1041910Y736990D02*
X1073910D01*
X1041910D02*
Y753990D01*
X1073910Y736990D02*
Y753990D01*
X1181190Y670840D02*
X1198790D01*
X1181190Y680440D02*
X1198790D01*
Y670840D02*
Y680440D01*
X1181190Y670840D02*
Y680440D01*
X1121430Y854090D02*
X1187430D01*
X1187430Y831090D02*
X1187430Y854090D01*
X1121430Y831090D02*
X1187430D01*
X1121430D02*
Y854090D01*
X1444625Y1143635D02*
Y1226185D01*
X1527175D01*
Y1143635D02*
Y1226185D01*
X1444625Y1143635D02*
X1527175D01*
X1545310Y1121370D02*
Y1138970D01*
X1535710Y1121370D02*
Y1138970D01*
X1545310D01*
X1535710Y1121370D02*
X1545310D01*
X1462050Y1092290D02*
X1471650D01*
X1462050Y1109890D02*
X1471650D01*
X1462050Y1092290D02*
Y1109890D01*
X1471650Y1092290D02*
Y1109890D01*
X1443000Y1092290D02*
X1452600D01*
X1443000Y1109890D02*
X1452600D01*
X1443000Y1092290D02*
Y1109890D01*
X1452600Y1092290D02*
Y1109890D01*
X1570000Y478880D02*
Y496480D01*
X1579600Y478880D02*
Y496480D01*
X1570000Y478880D02*
X1579600D01*
X1570000Y496480D02*
X1579600D01*
X1202970Y638900D02*
X1212570D01*
X1202970Y656500D02*
X1212570D01*
X1202970Y638900D02*
Y656500D01*
X1212570Y638900D02*
Y656500D01*
X1413600Y639090D02*
X1431200D01*
X1413600Y648690D02*
X1431200D01*
Y639090D02*
Y648690D01*
X1413600Y639090D02*
Y648690D01*
X1538480Y1004180D02*
X1570480Y1004180D01*
X1538480Y987180D02*
X1570480Y987180D01*
Y1004180D01*
X1538480Y987180D02*
Y1004180D01*
X1538480Y978780D02*
X1570480Y978780D01*
X1538480Y961780D02*
X1570480D01*
X1570480Y978780D02*
X1570480Y961780D01*
X1538480D02*
Y978780D01*
X1539750Y714620D02*
X1571750D01*
X1539750Y697620D02*
X1571750D01*
Y714620D01*
X1539750Y697620D02*
Y714620D01*
Y689220D02*
X1571750D01*
X1539750Y672220D02*
X1571750Y672220D01*
X1571750Y689220D01*
X1539750Y672220D02*
Y689220D01*
Y882260D02*
X1571750D01*
X1539750Y865260D02*
X1571750D01*
Y882260D01*
X1539750Y865260D02*
Y882260D01*
X1540190Y907660D02*
X1572190D01*
X1540190Y890660D02*
X1572190Y890660D01*
Y907660D01*
X1540190D02*
X1540190Y890660D01*
X1495910Y679659D02*
X1508910D01*
X1495910D02*
Y708658D01*
X1508910D01*
Y679659D02*
Y708658D01*
X1495080Y872699D02*
X1508080D01*
X1495080D02*
Y901698D01*
X1508080D01*
Y872699D02*
Y901698D01*
X1495550Y969219D02*
X1508550D01*
X1495550Y998219D02*
X1495550Y969219D01*
X1495550Y998219D02*
X1508550D01*
Y969219D02*
Y998219D01*
X1488950Y941460D02*
Y958460D01*
X1520950Y941460D02*
Y958460D01*
X1488950Y941460D02*
X1520950D01*
X1488950Y958460D02*
X1520950D01*
X1517469Y835642D02*
X1513237Y839874D01*
X1517469D02*
X1513237Y835642D01*
X1517469Y837758D02*
X1513237D01*
X1515352Y839874D02*
Y835642D01*
X1517469Y672066D02*
X1513237Y676298D01*
X1517469D02*
X1513237Y672066D01*
X1517469Y674182D02*
X1513237D01*
X1515352Y676298D02*
Y672066D01*
D158*
X1483868Y839470D02*
G03*
X1477772Y839470I-3048J0D01*
G01*
X1483868Y675894D02*
G03*
X1477772Y675894I-3048J0D01*
G01*
X1521460Y899922D02*
Y903732D01*
X1518920D02*
X1521460D01*
X1518920Y899922D02*
Y903732D01*
X1440180Y841248D02*
Y845058D01*
X1442720D01*
Y841248D02*
Y845058D01*
X1503172Y841756D02*
Y844804D01*
Y841756D02*
X1512824D01*
Y844804D01*
X1503172Y844804D02*
X1512824Y844804D01*
X1503172Y848106D02*
X1503172Y851154D01*
X1503172Y848106D02*
X1512824D01*
Y851154D01*
X1503172D02*
X1512824D01*
X1503172Y854710D02*
Y857758D01*
Y854710D02*
X1512824D01*
Y857758D01*
X1503172Y857758D02*
X1512824Y857758D01*
X1503172Y861314D02*
Y864362D01*
Y861314D02*
X1512824D01*
X1512824Y864362D02*
X1512824Y861314D01*
X1503172Y864362D02*
X1512824D01*
X1503172Y870712D02*
X1503172Y867664D01*
X1512824D01*
Y870712D01*
X1503172D02*
X1512824D01*
X1503172Y874268D02*
X1503172Y877316D01*
X1503172Y874268D02*
X1512824D01*
Y877316D01*
X1503172D02*
X1512824D01*
X1503172Y880618D02*
Y883666D01*
Y880618D02*
X1512824D01*
X1512824Y883666D01*
X1503172D02*
X1512824D01*
X1503172Y887222D02*
Y890270D01*
Y887222D02*
X1512824Y887222D01*
Y890270D01*
X1503172D02*
X1512824D01*
X1503172Y896874D02*
X1503172Y893826D01*
X1512824D01*
Y896874D01*
X1503172D02*
X1512824D01*
X1503172Y900176D02*
Y903224D01*
Y900176D02*
X1512824Y900176D01*
Y903224D01*
X1503172D02*
X1512824D01*
X1458468Y900176D02*
Y903224D01*
X1448816D02*
X1458468D01*
X1448816Y900176D02*
Y903224D01*
Y900176D02*
X1458468Y900176D01*
Y893826D02*
X1458468Y896874D01*
X1448816D02*
X1458468D01*
X1448816Y893826D02*
Y896874D01*
Y893826D02*
X1458468D01*
Y887222D02*
Y890270D01*
X1448816D02*
X1458468D01*
X1448816Y887222D02*
Y890270D01*
Y887222D02*
X1458468Y887222D01*
Y880618D02*
Y883666D01*
X1448816D02*
X1458468D01*
X1448816D02*
X1448816Y880618D01*
X1458468D01*
Y877316D02*
X1458468Y874268D01*
X1448816Y877316D02*
X1458468D01*
X1448816Y874268D02*
Y877316D01*
Y874268D02*
X1458468D01*
X1458468Y867664D02*
X1458468Y870712D01*
X1448816D02*
X1458468D01*
X1448816Y867664D02*
Y870712D01*
Y867664D02*
X1458468D01*
Y861314D02*
Y864362D01*
X1448816D02*
X1458468D01*
X1448816Y861314D02*
X1448816Y864362D01*
X1448816Y861314D02*
X1458468D01*
Y854710D02*
Y857758D01*
X1448816Y857758D02*
X1458468Y857758D01*
X1448816Y854710D02*
Y857758D01*
Y854710D02*
X1458468D01*
Y851154D02*
X1458468Y848106D01*
X1448816Y851154D02*
X1458468D01*
X1448816Y848106D02*
Y851154D01*
Y848106D02*
X1458468D01*
X1458468Y841756D02*
Y844804D01*
X1448816Y844804D02*
X1458468Y844804D01*
X1448816Y841756D02*
Y844804D01*
Y841756D02*
X1458468D01*
Y905510D02*
X1503172D01*
X1458468Y839470D02*
Y905510D01*
Y839470D02*
X1477772D01*
X1483868D01*
X1503172D01*
Y905510D01*
X1503172Y675894D02*
X1503172Y741934D01*
X1483868Y675894D02*
X1503172D01*
X1477772D02*
X1483868D01*
X1458468D02*
X1477772D01*
X1458468Y741934D02*
X1458468Y675894D01*
X1458468Y741934D02*
X1503172D01*
X1448816Y678180D02*
X1458468Y678180D01*
X1448816Y678180D02*
Y681228D01*
X1458468Y681228D01*
Y678180D02*
Y681228D01*
X1448816Y684530D02*
X1458468D01*
X1448816D02*
Y687578D01*
X1458468Y687578D01*
X1458468Y684530D01*
X1448816Y691134D02*
X1458468Y691134D01*
X1448816Y691134D02*
Y694182D01*
X1458468Y694182D01*
Y691134D02*
Y694182D01*
X1448816Y697738D02*
X1458468D01*
X1448816D02*
X1448816Y700786D01*
X1458468D01*
Y697738D02*
Y700786D01*
X1448816Y704088D02*
X1458468Y704088D01*
X1448816Y704088D02*
X1448816Y707136D01*
X1458468Y707136D01*
X1458468Y704088D02*
X1458468Y707136D01*
X1448816Y710692D02*
X1458468D01*
X1448816D02*
Y713740D01*
X1458468Y713740D01*
X1458468Y710692D01*
X1448816Y717042D02*
X1458468Y717042D01*
X1448816Y720090D02*
X1448816Y717042D01*
X1448816Y720090D02*
X1458468D01*
X1458468Y717042D01*
X1448816Y723646D02*
X1458468Y723646D01*
X1448816Y723646D02*
Y726694D01*
X1458468Y726694D01*
Y723646D02*
Y726694D01*
X1448816Y730250D02*
X1458468Y730250D01*
X1448816Y730250D02*
X1448816Y733298D01*
X1458468D01*
X1458468Y730250D02*
X1458468Y733298D01*
X1448816Y736600D02*
X1458468Y736600D01*
X1448816Y736600D02*
Y739648D01*
X1458468Y739648D01*
Y736600D02*
Y739648D01*
X1503172D02*
X1512824Y739648D01*
Y736600D02*
Y739648D01*
X1503172Y736600D02*
X1512824Y736600D01*
X1503172Y736600D02*
Y739648D01*
X1503172Y733298D02*
X1512824D01*
X1512824Y730250D01*
X1503172Y730250D02*
X1512824Y730250D01*
X1503172Y733298D02*
X1503172Y730250D01*
Y726694D02*
X1512824Y726694D01*
Y723646D02*
Y726694D01*
X1503172Y723646D02*
X1512824Y723646D01*
X1503172Y723646D02*
Y726694D01*
Y720090D02*
X1512824D01*
X1512824Y717042D02*
X1512824Y720090D01*
X1503172Y717042D02*
X1512824Y717042D01*
X1503172Y717042D02*
X1503172Y720090D01*
Y713740D02*
X1512824Y713740D01*
Y710692D02*
Y713740D01*
X1503172Y710692D02*
X1512824D01*
X1503172D02*
X1503172Y713740D01*
X1503172Y707136D02*
X1512824Y707136D01*
X1512824Y704088D01*
X1503172Y704088D02*
X1512824Y704088D01*
X1503172Y707136D02*
X1503172Y704088D01*
Y700786D02*
X1512824D01*
X1512824Y697738D01*
X1503172D02*
X1512824D01*
X1503172D02*
Y700786D01*
Y694182D02*
X1512824Y694182D01*
Y691134D02*
Y694182D01*
X1503172Y691134D02*
X1512824Y691134D01*
X1503172Y691134D02*
Y694182D01*
Y687578D02*
X1512824Y687578D01*
Y684530D02*
Y687578D01*
X1503172Y684530D02*
X1512824D01*
X1503172D02*
X1503172Y687578D01*
Y681228D02*
X1512824Y681228D01*
Y678180D02*
Y681228D01*
X1503172Y678180D02*
X1512824Y678180D01*
X1503172Y678180D02*
Y681228D01*
X1442720Y677672D02*
Y681482D01*
X1440180D02*
X1442720D01*
X1440180Y677672D02*
Y681482D01*
X1518920Y736346D02*
Y740156D01*
X1521460D01*
Y736346D02*
Y740156D01*
X2096008Y417576D02*
Y1116584D01*
X1606042D02*
X2096008D01*
X1606042Y417576D02*
Y1116584D01*
Y417576D02*
X2096008D01*
X400050Y1097280D02*
Y1107440D01*
X390144D02*
X400050D01*
X390144Y1097280D02*
Y1107440D01*
Y1097280D02*
X400050D01*
Y1071880D02*
Y1082040D01*
X390144D02*
X400050D01*
X390144Y1071880D02*
Y1082040D01*
Y1071880D02*
X400050D01*
Y1046480D02*
Y1056640D01*
X390144D02*
X400050D01*
X390144Y1046480D02*
Y1056640D01*
Y1046480D02*
X400050D01*
Y1021080D02*
Y1031240D01*
X390144Y1030986D02*
X400050Y1031240D01*
X390144Y1021080D02*
Y1030986D01*
Y1021080D02*
X400050D01*
X466090D02*
Y1031240D01*
Y1021080D02*
X475996Y1021334D01*
Y1031240D01*
X466090D02*
X475996D01*
X466090Y1046480D02*
Y1056640D01*
Y1046480D02*
X475996Y1046734D01*
Y1056640D01*
X466090D02*
X475996D01*
X466090Y1071880D02*
Y1082040D01*
Y1071880D02*
X475996D01*
Y1082040D01*
X466090D02*
X475996D01*
X466090Y1097280D02*
Y1107440D01*
Y1097280D02*
X475996D01*
Y1107440D01*
X466090D02*
X475996D01*
X400050Y1015238D02*
X466090D01*
Y1113282D01*
X400050D02*
X466090D01*
X400050Y1015238D02*
Y1113282D01*
Y892048D02*
Y990092D01*
X466090D01*
Y892048D02*
Y990092D01*
X400050Y892048D02*
X466090D01*
Y984250D02*
X475996D01*
Y974090D02*
Y984250D01*
X466090Y974090D02*
X475996D01*
X466090D02*
Y984250D01*
Y958850D02*
X475996D01*
Y948690D02*
Y958850D01*
X466090Y948690D02*
X475996D01*
X466090D02*
Y958850D01*
Y933450D02*
X475996D01*
Y923544D02*
Y933450D01*
X466090Y923290D02*
X475996Y923544D01*
X466090Y923290D02*
Y933450D01*
Y908050D02*
X475996D01*
Y898144D02*
Y908050D01*
X466090Y897890D02*
X475996Y898144D01*
X466090Y897890D02*
Y908050D01*
X390144Y897890D02*
X400050D01*
X390144D02*
Y907796D01*
X400050Y908050D01*
Y897890D02*
Y908050D01*
X390144Y923290D02*
X400050D01*
X390144D02*
Y933450D01*
X400050D01*
Y923290D02*
Y933450D01*
X390144Y948690D02*
X400050D01*
X390144D02*
Y958850D01*
X400050D01*
Y948690D02*
Y958850D01*
X390144Y974090D02*
X400050D01*
X390144D02*
Y984250D01*
X400050D01*
Y974090D02*
Y984250D01*
D160*
X1444020Y410890D02*
X1479520D01*
X1444020Y368890D02*
Y410890D01*
Y368890D02*
X1479520D01*
Y410890D01*
D161*
X320040Y361950D02*
X326390Y368300D01*
X440690D02*
X447040Y361950D01*
X440690Y508000D02*
X447040Y514350D01*
X320040D02*
X326390Y508000D01*
X623570Y527304D02*
X629920Y533654D01*
X744220D02*
X750570Y527304D01*
X744220Y673354D02*
X750570Y679704D01*
X623570D02*
X629920Y673354D01*
X320040Y525780D02*
X326390Y532130D01*
X440690D02*
X447040Y525780D01*
X440690Y671830D02*
X447040Y678180D01*
X320040D02*
X326390Y671830D01*
X623570Y361950D02*
X629920Y368300D01*
X744220D02*
X750570Y361950D01*
X744220Y508000D02*
X750570Y514350D01*
X623570D02*
X629920Y508000D01*
D210*
X1481582Y766318D02*
G03*
X1475486Y766318I-3048J0D01*
G01*
X1481582Y928878D02*
G03*
X1475486Y928878I-3048J0D01*
G01*
X1498600Y766318D02*
X1498600Y816102D01*
X1481582Y766318D02*
X1498600D01*
X1475486D02*
X1481582D01*
X1458468Y766318D02*
X1475486Y766318D01*
X1458468Y766318D02*
Y816102D01*
X1498600D01*
X1447546Y769620D02*
X1458468D01*
X1447546D02*
Y774700D01*
X1458468D01*
Y769620D02*
Y774700D01*
X1447546Y782320D02*
X1458468D01*
X1447546D02*
Y787400D01*
X1458468D01*
Y782320D02*
Y787400D01*
X1447546Y795020D02*
X1458468D01*
X1447546D02*
Y800100D01*
X1458468D01*
Y795020D02*
Y800100D01*
X1447546Y807720D02*
X1458468D01*
X1447546D02*
Y812800D01*
X1458468D01*
Y807720D02*
Y812800D01*
X1498600D02*
X1509522D01*
Y807720D02*
Y812800D01*
X1498600Y807720D02*
X1509522D01*
X1498600D02*
X1498600Y812800D01*
X1498600Y800100D02*
X1509522D01*
Y795020D02*
Y800100D01*
X1498600Y795020D02*
X1509522D01*
X1498600Y800100D02*
X1498600Y795020D01*
Y787400D02*
X1509522D01*
Y782320D02*
Y787400D01*
X1498600Y782320D02*
X1509522D01*
X1498600D02*
Y787400D01*
Y774700D02*
X1509522D01*
Y769620D02*
Y774700D01*
X1498600Y769620D02*
X1509522D01*
X1498600D02*
X1498600Y774700D01*
X1498600Y978662D02*
X1498600Y928878D01*
X1481582D02*
X1498600D01*
X1475486D02*
X1481582D01*
X1458468D02*
X1475486D01*
X1458468D02*
Y978662D01*
X1498600Y978662D01*
X1447546Y932180D02*
X1458468D01*
X1447546D02*
Y937260D01*
X1458468D01*
Y932180D02*
Y937260D01*
X1447546Y944880D02*
X1458468D01*
X1447546D02*
Y949960D01*
X1458468D01*
X1458468Y944880D02*
X1458468Y949960D01*
X1447546Y957580D02*
X1458468D01*
X1447546D02*
Y962660D01*
X1458468D01*
X1458468Y957580D01*
X1447546Y970280D02*
X1458468D01*
X1447546D02*
Y975360D01*
X1458468D01*
Y970280D02*
Y975360D01*
X1498600D02*
X1509522D01*
Y970280D02*
Y975360D01*
X1498600Y970280D02*
X1509522D01*
X1498600Y975360D02*
X1498600Y970280D01*
Y962660D02*
X1509522D01*
Y957580D02*
Y962660D01*
X1498600Y957580D02*
X1509522D01*
X1498600D02*
X1498600Y962660D01*
X1498600Y949960D02*
X1509522D01*
Y944880D02*
Y949960D01*
X1498600Y944880D02*
X1509522D01*
X1498600D02*
Y949960D01*
Y937260D02*
X1509522D01*
Y932180D02*
Y937260D01*
X1498600Y932180D02*
X1509522D01*
X1498600Y937260D02*
X1498600Y932180D01*
D211*
X1173480Y176550D02*
Y260350D01*
Y176550D02*
X1249680D01*
Y260350D01*
X1173480D02*
X1249680D01*
X1173480Y234950D02*
Y260350D01*
Y234950D02*
X1249680D01*
Y260350D01*
X1466890Y398010D02*
X1476390Y388510D01*
X1447150Y398010D02*
X1476390D01*
X1447150Y381770D02*
Y398010D01*
Y381770D02*
X1476390D01*
Y398010D01*
X1582090Y1096630D02*
X1589840Y1088880D01*
X1564840Y1096630D02*
X1589840D01*
X1564840Y1047130D02*
X1564840Y1096630D01*
X1564840Y1047130D02*
X1589840Y1047130D01*
Y1096630D01*
X1547800Y1096630D02*
X1555550Y1088880D01*
X1530550Y1096630D02*
X1555550Y1096630D01*
X1530550Y1047130D02*
Y1096630D01*
Y1047130D02*
X1555550D01*
Y1096630D01*
X1146610Y921370D02*
X1146610Y871870D01*
X1121610Y871870D02*
X1146610Y871870D01*
X1121610Y871870D02*
Y921370D01*
X1146610D01*
X1138860D02*
X1146610Y913620D01*
X1484010Y584200D02*
X1534810Y584200D01*
Y457200D02*
Y584200D01*
X1484010Y457200D02*
X1534810Y457200D01*
X1484010Y457200D02*
Y584200D01*
X1395730Y153690D02*
Y234990D01*
X1294130Y153690D02*
X1395730D01*
X1294130D02*
Y234990D01*
X1395730D01*
Y260390D01*
X1294130D02*
X1395730D01*
X1294130Y234990D02*
Y260390D01*
%TF.MD5,b302a6823b6ba95d340b407cc6a17e3a*%
M02*
