G04*
G04 #@! TF.GenerationSoftware,Altium Limited,Altium Designer,22.2.1 (43)*
G04*
G04 Layer_Color=32768*
%FSLAX43Y43*%
%MOMM*%
G71*
G04*
G04 #@! TF.SameCoordinates,554F8E3F-4C3B-413C-AF13-BA86D744421E*
G04*
G04*
G04 #@! TF.FilePolarity,Positive*
G04*
G01*
G75*
%ADD13C,0.050*%
D13*
X56803Y107442D02*
G03*
X56803Y107442I-3463J0D01*
G01*
X36273Y29185D02*
Y35585D01*
X26973D02*
X36273D01*
X26973Y29185D02*
Y35585D01*
Y29185D02*
X36273D01*
X37387D02*
Y35585D01*
Y29185D02*
X46687D01*
Y35585D01*
X37387D02*
X46687D01*
X57326Y29185D02*
X66626D01*
X57326D02*
Y35585D01*
X66626D01*
Y29185D02*
Y35585D01*
X67740D02*
X77040D01*
Y29185D02*
Y35585D01*
X67740Y29185D02*
X77040D01*
X67740D02*
Y35585D01*
X30678Y28801D02*
X35108D01*
X30678Y26571D02*
X35108D01*
Y28801D01*
X30678Y26571D02*
Y28801D01*
Y77569D02*
X35108D01*
X30678Y75339D02*
X35108D01*
Y77569D01*
X30678Y75339D02*
Y77569D01*
X61158Y26571D02*
Y28801D01*
X65588Y26571D02*
Y28801D01*
X61158Y26571D02*
X65588D01*
X61158Y28801D02*
X65588D01*
X60899Y77569D02*
X65329D01*
X60899Y75339D02*
X65329D01*
Y77569D01*
X60899Y75339D02*
Y77569D01*
X57125Y77327D02*
X60525D01*
X57125Y75327D02*
X60525D01*
X57125D02*
Y77327D01*
X60525Y75327D02*
Y77327D01*
X60755Y26813D02*
Y28813D01*
X57355Y26813D02*
Y28813D01*
Y26813D02*
X60755D01*
X57355Y28813D02*
X60755D01*
X27002D02*
X30402D01*
X27002Y26813D02*
X30402D01*
X27002D02*
Y28813D01*
X30402Y26813D02*
Y28813D01*
X30402Y75327D02*
Y77327D01*
X27002Y75327D02*
Y77327D01*
Y75327D02*
X30402D01*
X27002Y77327D02*
X30402D01*
X37387Y68555D02*
Y74955D01*
Y68555D02*
X46687D01*
Y74955D01*
X37387D02*
X46687D01*
X36273Y68555D02*
Y74955D01*
X26973D02*
X36273D01*
X26973Y68555D02*
Y74955D01*
Y68555D02*
X36273D01*
X67637Y74955D02*
X76937D01*
Y68555D02*
Y74955D01*
X67637Y68555D02*
X76937D01*
X67637D02*
Y74955D01*
X66499Y68555D02*
Y74955D01*
X57199D02*
X66499D01*
X57199Y68555D02*
Y74955D01*
Y68555D02*
X66499D01*
X70079Y108409D02*
X76479D01*
X70079Y99109D02*
Y108409D01*
Y99109D02*
X76479D01*
Y108409D01*
X54969Y80938D02*
Y83908D01*
X53489Y80938D02*
Y83908D01*
Y80938D02*
X54969D01*
X53489Y83908D02*
X54969D01*
Y86018D02*
Y88988D01*
X53489Y86018D02*
Y88988D01*
Y86018D02*
X54969D01*
X53489Y88988D02*
X54969D01*
Y95162D02*
Y98132D01*
X53489Y95162D02*
Y98132D01*
Y95162D02*
X54969D01*
X53489Y98132D02*
X54969D01*
X55340Y96079D02*
X58960D01*
Y98739D01*
X55340D02*
X58960D01*
X55340Y96079D02*
Y98739D01*
X58889Y94129D02*
Y95609D01*
X55919Y94129D02*
Y95609D01*
X58889D01*
X55919Y94129D02*
X58889D01*
X55340Y90999D02*
Y93659D01*
X58960D01*
Y90999D02*
Y93659D01*
X55340Y90999D02*
X58960D01*
X55411Y86950D02*
Y89610D01*
X59031D01*
Y86950D02*
Y89610D01*
X55411Y86950D02*
X59031D01*
X64382Y88725D02*
X66682D01*
X64382Y83995D02*
Y88725D01*
Y83995D02*
X66682D01*
Y88725D01*
X73936Y89828D02*
X73936Y92798D01*
X75416Y89828D02*
Y92798D01*
X73936Y92798D02*
X75416Y92798D01*
X73936Y89828D02*
X75416D01*
X56713Y100866D02*
X61143D01*
X56713Y103096D02*
X61143D01*
X56713Y100866D02*
Y103096D01*
X61143Y100866D02*
Y103096D01*
X61567Y96083D02*
Y100513D01*
X59337Y96083D02*
Y100513D01*
Y96083D02*
X61567D01*
X59337Y100513D02*
X61567D01*
X69032Y93698D02*
X73462D01*
X69032Y91468D02*
X73462D01*
X73462Y93698D02*
X73462Y91468D01*
X69032D02*
X69032Y93698D01*
X69032Y91158D02*
X69032Y88928D01*
X73462D02*
X73462Y91158D01*
X69032Y88928D02*
X73462D01*
X69032Y91158D02*
X73462D01*
X50042Y91444D02*
Y99564D01*
X53082D01*
Y91444D02*
Y99564D01*
X50042Y91444D02*
X53082D01*
X50042Y82300D02*
Y90420D01*
X53082D01*
Y82300D02*
Y90420D01*
X50042Y82300D02*
X53082D01*
X61842Y100536D02*
X64142D01*
X61842Y95806D02*
Y100536D01*
Y95806D02*
X64142D01*
Y100536D01*
X55919Y99082D02*
X58889D01*
X55919Y100562D02*
X58889D01*
X55919Y99082D02*
Y100562D01*
X58889Y99082D02*
Y100562D01*
X55340Y81855D02*
Y84515D01*
X58960D01*
Y81855D02*
Y84515D01*
X55340Y81855D02*
X58960D01*
X69032Y81252D02*
X73462D01*
X69032Y79022D02*
X73462D01*
Y81252D01*
X69032Y79022D02*
Y81252D01*
X59337Y78430D02*
Y82860D01*
X61567Y78430D02*
Y82860D01*
X59337D02*
X61567D01*
X59337Y78430D02*
X61567D01*
X59507Y86261D02*
X63937D01*
X59507Y88491D02*
X63937D01*
X59507Y86261D02*
Y88491D01*
X63937Y86261D02*
Y88491D01*
X69032Y83792D02*
X73462D01*
X69032Y81562D02*
X73462D01*
Y83792D01*
X69032Y81562D02*
Y83792D01*
X63937Y83721D02*
Y85951D01*
X59507Y83721D02*
Y85951D01*
X63937D01*
X59507Y83721D02*
X63937D01*
X59337Y88844D02*
Y93274D01*
X61567Y88844D02*
Y93274D01*
X59337D02*
X61567D01*
X59337Y88844D02*
X61567D01*
X54969Y89955D02*
Y92925D01*
X53489Y89955D02*
Y92925D01*
Y89955D02*
X54969D01*
X53489Y92925D02*
X54969D01*
X55919Y84985D02*
X58889D01*
X55919Y86465D02*
X58889D01*
X55919Y84985D02*
Y86465D01*
X58889Y84985D02*
Y86465D01*
X73936Y79922D02*
Y82892D01*
X75416Y79922D02*
Y82892D01*
X73936D02*
X75416D01*
X73936Y79922D02*
X75416D01*
X62142Y79607D02*
X65112D01*
X62142Y78127D02*
X65112D01*
Y79607D01*
X62142Y78127D02*
Y79607D01*
X58342Y111277D02*
X67642D01*
Y104877D02*
Y111277D01*
X58342Y104877D02*
X67642D01*
X58342D02*
Y111277D01*
X65975Y118721D02*
Y131721D01*
X46425Y118721D02*
X65975D01*
X46425D02*
Y131721D01*
X65975D01*
X129542Y61355D02*
X131062D01*
X129542D02*
Y64375D01*
X131062D01*
Y61355D02*
Y64375D01*
X103406Y83256D02*
Y87686D01*
X105636Y83256D02*
Y87686D01*
X103406Y83256D02*
X105636D01*
X103406Y87686D02*
X105636D01*
X103096Y83256D02*
Y87686D01*
X100866Y83256D02*
Y87686D01*
X103096D01*
X100866Y83256D02*
X103096D01*
X148280Y67155D02*
X152710D01*
X148280Y64925D02*
X152710D01*
X148280D02*
Y67155D01*
X152710D02*
X152710Y64925D01*
X148280Y73886D02*
X152710D01*
X148280Y71656D02*
X152710D01*
X148280D02*
Y73886D01*
X152710D02*
X152710Y71656D01*
X148280Y76807D02*
X152710D01*
X148280Y74577D02*
X152710D01*
X148280D02*
Y76807D01*
X152710Y74577D02*
Y76807D01*
X152710Y81308D02*
X152710Y83538D01*
X148280Y81308D02*
Y83538D01*
Y81308D02*
X152710D01*
X148280Y83538D02*
X152710D01*
X152710Y84229D02*
X152710Y86459D01*
X148280Y84229D02*
Y86459D01*
Y84229D02*
X152710Y84229D01*
X148280Y86459D02*
X152710D01*
X148280Y93190D02*
X152710D01*
X148280Y90960D02*
X152710Y90960D01*
X148280Y90960D02*
Y93190D01*
X152710Y90960D02*
X152710Y93190D01*
X148280Y102842D02*
X152710D01*
X148280Y100612D02*
X152710D01*
X148280D02*
Y102842D01*
X152710Y100612D02*
Y102842D01*
X115470Y88745D02*
X119900D01*
X115470Y86515D02*
X119900D01*
Y88745D01*
X115470Y86515D02*
Y88745D01*
X110335Y80589D02*
Y85019D01*
X108105Y80589D02*
Y85019D01*
Y80589D02*
X110335D01*
X108105Y85019D02*
X110335D01*
X83696Y68405D02*
Y76121D01*
X79880Y68405D02*
Y76121D01*
Y68405D02*
X83696D01*
X79880Y76121D02*
X83696D01*
X96802Y75577D02*
X96802Y71147D01*
X99032D02*
X99032Y75577D01*
X96802D02*
X99032D01*
X96802Y71147D02*
X99032D01*
X138501Y43036D02*
X142931D01*
X138501Y40806D02*
X142931D01*
Y43036D01*
X138501Y40806D02*
Y43036D01*
X152369Y74704D02*
Y76934D01*
X156799Y74704D02*
Y76934D01*
X152369Y74704D02*
X156799D01*
X152369Y76934D02*
X156799D01*
X152369Y78768D02*
Y80998D01*
X156799Y78768D02*
X156799Y80998D01*
X152369Y78768D02*
X156799Y78768D01*
X152369Y80998D02*
X156799D01*
X152369Y82832D02*
Y85062D01*
X156799Y82832D02*
X156799Y85062D01*
X152369Y82832D02*
X156799Y82832D01*
X152369Y85062D02*
X156799D01*
X152071Y101572D02*
X152071Y99342D01*
X156501D02*
Y101572D01*
X152071Y99342D02*
X156501D01*
X152071Y101572D02*
X156501D01*
X152115Y97508D02*
X156545D01*
X152115Y95278D02*
X156545D01*
X156545Y97508D01*
X152115Y95278D02*
Y97508D01*
X152242Y93444D02*
X156672Y93444D01*
X152242Y91214D02*
X156672D01*
X156672Y93444D01*
X152242Y91214D02*
X152242Y93444D01*
X97304Y70065D02*
X98784D01*
X97304Y67095D02*
X98784D01*
X97304D02*
Y70065D01*
X98784Y67095D02*
Y70065D01*
X98784Y29757D02*
Y32727D01*
X97304Y29757D02*
Y32727D01*
Y29757D02*
X98784D01*
X97304Y32727D02*
X98784D01*
X96802Y33853D02*
Y38283D01*
X99032Y33853D02*
Y38283D01*
X96802Y38283D02*
X99032Y38283D01*
X96802Y33853D02*
X99032Y33853D01*
X93384Y37570D02*
X96354D01*
X93384Y36090D02*
X96354D01*
Y37570D01*
X93384Y36090D02*
Y37570D01*
X86211Y29122D02*
Y32092D01*
X84731Y29122D02*
Y32092D01*
Y29122D02*
X86211D01*
X84731Y32092D02*
X86211D01*
X98784Y42203D02*
Y45173D01*
X97304Y42203D02*
Y45173D01*
Y42203D02*
X98784D01*
X97304Y45173D02*
X98784D01*
X93384Y73428D02*
Y74908D01*
X96354Y73428D02*
Y74908D01*
X93384Y73428D02*
X96354D01*
X93384Y74908D02*
X96354D01*
X97304Y57746D02*
X98784D01*
X97304Y54776D02*
X98784D01*
X97304D02*
Y57746D01*
X98784Y54776D02*
Y57746D01*
X86211Y66727D02*
Y69697D01*
X84731Y66727D02*
Y69697D01*
Y66727D02*
X86211D01*
X84731Y69697D02*
X86211D01*
X96802Y46299D02*
Y50729D01*
X99032Y46299D02*
Y50729D01*
X96802D02*
X99032D01*
X96802Y46299D02*
X99032D01*
X96802Y58618D02*
Y63048D01*
X99032Y58618D02*
Y63048D01*
X96802D02*
X99032D01*
X96802Y58618D02*
X99032D01*
X86871Y60671D02*
X96451D01*
Y50581D02*
Y60671D01*
X86871Y50581D02*
X96451D01*
X86871D02*
Y60671D01*
X86904Y35779D02*
X96484D01*
Y25689D02*
Y35779D01*
X86904Y25689D02*
X96484D01*
X86904D02*
Y35779D01*
Y63027D02*
Y73117D01*
Y63027D02*
X96484D01*
Y73117D01*
X86904D02*
X96484D01*
X84731Y56984D02*
X86211D01*
X84731Y54014D02*
X86211D01*
X84731D02*
Y56984D01*
X86211Y54014D02*
Y56984D01*
X93384Y60982D02*
Y62462D01*
X96354Y60982D02*
Y62462D01*
X93384Y60982D02*
X96354D01*
X93384Y62462D02*
X96354D01*
X84731Y44665D02*
X86211D01*
X84731Y41695D02*
X86211D01*
X84731D02*
Y44665D01*
X86211Y41695D02*
Y44665D01*
X93270Y50016D02*
X96240D01*
X93270Y48536D02*
X96240D01*
Y50016D01*
X93270Y48536D02*
Y50016D01*
X86777Y38135D02*
Y48225D01*
Y38135D02*
X96357D01*
Y48225D01*
X86777D02*
X96357D01*
X99946Y51768D02*
Y59484D01*
X103762Y51768D02*
Y59484D01*
X99946D02*
X103762D01*
X99946Y51768D02*
X103762D01*
X139704Y85796D02*
X139704Y90226D01*
X137474Y85796D02*
Y90226D01*
Y85796D02*
X139704D01*
X137474Y90226D02*
X139704D01*
X139704Y90622D02*
Y95052D01*
X137474Y90622D02*
X137474Y95052D01*
X137474Y90622D02*
X139704D01*
X137474Y95052D02*
X139704Y95052D01*
X138951Y96548D02*
X143381D01*
X138951Y98778D02*
X143381D01*
X138951Y96548D02*
X138951Y98778D01*
X143381D02*
X143381Y96548D01*
X119426Y108676D02*
X127716D01*
Y114418D01*
X129241D01*
Y125761D01*
X117901D02*
X129241D01*
X117901Y114418D02*
Y125761D01*
Y114418D02*
X119426D01*
Y108676D02*
Y114418D01*
X143381Y82959D02*
Y85189D01*
X138951Y82959D02*
Y85189D01*
X143381D01*
X138951Y82959D02*
X143381D01*
Y78895D02*
Y81125D01*
X138951Y78895D02*
X138951Y81125D01*
X143381Y81125D01*
X138951Y78895D02*
X143381D01*
X143337Y77061D02*
X143337Y74831D01*
X138907D02*
Y77061D01*
X143337Y77061D01*
X138907Y74831D02*
X143337D01*
X131449Y75509D02*
Y79939D01*
X129219Y75509D02*
Y79939D01*
Y75509D02*
X131449Y75509D01*
X129219Y79939D02*
X131449Y79939D01*
X134794Y70419D02*
X137494D01*
Y68519D02*
Y70419D01*
X134794Y68519D02*
X137494D01*
X134794D02*
Y70419D01*
X112466Y80038D02*
Y82268D01*
X116896Y80038D02*
Y82268D01*
X112466Y80038D02*
X116896D01*
X112466Y82268D02*
X116896Y82268D01*
Y77625D02*
Y79855D01*
X112466Y77625D02*
Y79855D01*
X116896D01*
X112466Y77625D02*
X116896D01*
X99469Y75621D02*
X101699D01*
X99469Y71191D02*
X101699D01*
X99469D02*
Y75621D01*
X101699Y71191D02*
Y75621D01*
X99946Y46911D02*
X103762D01*
X99946Y39195D02*
X103762D01*
X99946D02*
Y46911D01*
X103762Y39195D02*
Y46911D01*
X79626Y35608D02*
X83442D01*
X79626Y27892D02*
X83442D01*
X79626D02*
Y35608D01*
X83442Y27892D02*
Y35608D01*
X147772Y109375D02*
Y111605D01*
X152202Y109375D02*
Y111605D01*
X147772Y109375D02*
X152202D01*
X147772Y111605D02*
X152202D01*
X147772Y109065D02*
X152202D01*
X147772Y106835D02*
X152202D01*
Y109065D01*
X147772Y106835D02*
Y109065D01*
X130658Y116254D02*
Y125554D01*
X137058D01*
Y116254D02*
Y125554D01*
X130658Y116254D02*
X137058D01*
X134676Y108613D02*
Y110843D01*
X130246Y108613D02*
Y110843D01*
X134676D01*
X130246Y108613D02*
X134676D01*
X68791Y110618D02*
Y126618D01*
X79291D01*
Y110618D02*
Y126618D01*
X68791Y110618D02*
X79291D01*
X108990Y110605D02*
Y111805D01*
X107715D02*
X108990D01*
X106090Y113430D02*
X107715Y111805D01*
X106090Y113430D02*
Y120605D01*
X108990D01*
Y121805D01*
X111990D01*
Y120605D02*
Y121805D01*
Y120605D02*
X114890D01*
Y113430D02*
Y120605D01*
X113265Y111805D02*
X114890Y113430D01*
X111990Y111805D02*
X113265D01*
X111990Y110605D02*
Y111805D01*
X108990Y110605D02*
X111990D01*
X97306Y109742D02*
Y110942D01*
X95331D02*
X97306D01*
X93406Y112867D02*
X95331Y110942D01*
X93406Y112867D02*
Y121742D01*
X97306D01*
Y122942D01*
X100306D01*
Y121742D02*
Y122942D01*
Y121742D02*
X104206D01*
Y112867D02*
Y121742D01*
X102281Y110942D02*
X104206Y112867D01*
X100306Y110942D02*
X102281D01*
X100306Y109742D02*
Y110942D01*
X97306Y109742D02*
X100306D01*
X108990Y95127D02*
Y96327D01*
X107015D02*
X108990D01*
X105090Y98252D02*
X107015Y96327D01*
X105090Y98252D02*
Y107127D01*
X108990D01*
Y108327D01*
X111990D01*
Y107127D02*
Y108327D01*
Y107127D02*
X115890D01*
Y98252D02*
Y107127D01*
X113965Y96327D02*
X115890Y98252D01*
X111990Y96327D02*
X113965D01*
X111990Y95127D02*
Y96327D01*
X108990Y95127D02*
X111990D01*
X97306Y96254D02*
Y97454D01*
X96031D02*
X97306D01*
X94406Y99079D02*
X96031Y97454D01*
X94406Y99079D02*
Y106254D01*
X97306D01*
Y107454D01*
X100306D01*
Y106254D02*
Y107454D01*
Y106254D02*
X103206D01*
Y99079D02*
Y106254D01*
X101581Y97454D02*
X103206Y99079D01*
X100306Y97454D02*
X101581D01*
X100306Y96254D02*
Y97454D01*
X97306Y96254D02*
X100306D01*
X135491Y40849D02*
Y45279D01*
X137721Y40849D02*
Y45279D01*
X135491D02*
X137721D01*
X135491Y40849D02*
X137721D01*
X131554Y40849D02*
Y45279D01*
X133784Y40849D02*
Y45279D01*
X131554D02*
X133784D01*
X131554Y40849D02*
X133784D01*
X126390Y40806D02*
X130820D01*
X126390Y43036D02*
X130820D01*
X126390Y40806D02*
Y43036D01*
X130820Y40806D02*
Y43036D01*
X149391Y34566D02*
Y36046D01*
X152361Y34566D02*
Y36046D01*
X149391Y34566D02*
X152361D01*
X149391Y36046D02*
X152361D01*
X101628Y91892D02*
X103858D01*
X101628Y96322D02*
X103858D01*
Y91892D02*
Y96322D01*
X101628Y91892D02*
Y96322D01*
X63571Y113693D02*
Y115923D01*
X68001Y113693D02*
Y115923D01*
X63571Y113693D02*
X68001D01*
X63571Y115923D02*
X68001D01*
X58237Y113693D02*
Y115923D01*
X62667Y113693D02*
Y115923D01*
X58237Y113693D02*
X62667D01*
X58237Y115923D02*
X62667D01*
X37691Y86558D02*
Y90988D01*
X35461Y86558D02*
Y90988D01*
Y86558D02*
X37691D01*
X35461Y90988D02*
X37691D01*
X48282Y105879D02*
X49762D01*
X48282Y102909D02*
X49762D01*
X48282D02*
Y105879D01*
X49762Y102909D02*
Y105879D01*
X31589Y107121D02*
X33689D01*
X31589Y101921D02*
Y107121D01*
Y101921D02*
X33689D01*
Y107121D01*
X31589Y110684D02*
Y115884D01*
X33689D01*
Y110684D02*
Y115884D01*
X31589Y110684D02*
X33689D01*
X34256D02*
Y115884D01*
X36356D01*
Y110684D02*
Y115884D01*
X34256Y110684D02*
X36356D01*
X73604Y94008D02*
Y96238D01*
X78034Y94008D02*
Y96238D01*
X73604Y94008D02*
X78034D01*
X73604Y96238D02*
X78034D01*
X37691Y98877D02*
Y103307D01*
X35461Y98877D02*
Y103307D01*
Y98877D02*
X37691D01*
X35461Y103307D02*
X37691D01*
Y91638D02*
Y96068D01*
X35461Y91638D02*
Y96068D01*
Y91638D02*
X37691D01*
X35461Y96068D02*
X37691D01*
X31589Y94421D02*
X33689D01*
X31589Y89221D02*
Y94421D01*
Y89221D02*
X33689D01*
Y94421D01*
X49762Y90590D02*
Y93560D01*
X48282Y90590D02*
Y93560D01*
Y90590D02*
X49762D01*
X48282Y93560D02*
X49762D01*
X35461Y108387D02*
X37691D01*
X35461Y103957D02*
X37691D01*
X35461D02*
Y108387D01*
X37691Y103957D02*
Y108387D01*
X152083Y87735D02*
X155053D01*
X152083Y86255D02*
X155053D01*
Y87735D01*
X152083Y86255D02*
Y87735D01*
X152464Y78591D02*
X155434D01*
X152464Y77111D02*
X155434D01*
Y78591D01*
X152464Y77111D02*
Y78591D01*
X152464Y91037D02*
X155434D01*
X152464Y89557D02*
X155434D01*
Y91037D01*
X152464Y89557D02*
Y91037D01*
X152464Y81175D02*
Y82655D01*
X155434Y81175D02*
Y82655D01*
X152464Y81175D02*
X155434D01*
X152464Y82655D02*
X155434D01*
X140259Y94891D02*
X143229D01*
X140259Y96371D02*
X143229D01*
X140259Y94891D02*
Y96371D01*
X143229Y94891D02*
Y96371D01*
X140259Y81302D02*
X143229D01*
X140259Y82782D02*
X143229D01*
X140259Y81302D02*
Y82782D01*
X143229Y81302D02*
Y82782D01*
X152210Y99165D02*
X155180D01*
X152210Y97685D02*
X155180D01*
Y99165D01*
X152210Y97685D02*
Y99165D01*
X152464Y74527D02*
X155434D01*
X152464Y73047D02*
X155434D01*
Y74527D01*
X152464Y73047D02*
Y74527D01*
X140259Y73174D02*
X143229D01*
X140259Y74654D02*
X143229D01*
X140259Y73174D02*
Y74654D01*
X143229Y73174D02*
Y74654D01*
X152337Y95101D02*
X155307D01*
X152337Y93621D02*
X155307D01*
Y95101D01*
X152337Y93621D02*
Y95101D01*
X152083Y69872D02*
Y71352D01*
X155053Y69872D02*
Y71352D01*
X152083Y69872D02*
X155053Y69872D01*
X152083Y71352D02*
X155053Y71352D01*
X140259Y77238D02*
X143229D01*
X140259Y78718D02*
X143229D01*
X140259Y77238D02*
Y78718D01*
X143229Y77238D02*
Y78718D01*
X122481Y49710D02*
Y67130D01*
X139901Y49710D02*
Y67130D01*
X122481D02*
X139901D01*
X122481Y49710D02*
X139901D01*
X117098Y31885D02*
X125218D01*
X117098Y17405D02*
Y31885D01*
Y17405D02*
X125218D01*
Y31885D01*
X140882Y37692D02*
X143852D01*
X140882Y36222D02*
X143852D01*
Y37692D01*
X140882Y36222D02*
Y37692D01*
X144311Y74698D02*
Y76178D01*
X147281Y74698D02*
Y76178D01*
X144311Y74698D02*
X147281Y74698D01*
X144311Y76178D02*
X147281Y76178D01*
X145884Y91081D02*
Y92561D01*
X142914Y91081D02*
Y92561D01*
X145884D01*
X142914Y91081D02*
X145884D01*
X158783Y61755D02*
Y69055D01*
X153383Y61755D02*
X158783D01*
X153383D02*
Y69055D01*
X158783D01*
X101893Y82147D02*
X104863D01*
X101893Y80667D02*
X104863D01*
X101893D02*
Y82147D01*
X104863Y80667D02*
Y82147D01*
X109375Y91369D02*
X111605D01*
X109375Y86939D02*
X111605D01*
X109375D02*
Y91369D01*
X111605Y86939D02*
Y91369D01*
X132475Y59565D02*
X135495D01*
Y61085D01*
X132475D02*
X135495D01*
X132475Y59565D02*
Y61085D01*
X90844Y91843D02*
Y93323D01*
X93814Y91843D02*
Y93323D01*
X90844Y91843D02*
X93814D01*
X90844Y93323D02*
X93814D01*
X96354Y75079D02*
Y76559D01*
X93384Y75079D02*
Y76559D01*
X96354D01*
X93384Y75079D02*
X96354D01*
X112971Y76664D02*
X121471D01*
Y71164D02*
Y76664D01*
X112971Y71164D02*
X121471D01*
X112971D02*
Y76664D01*
X122069Y72429D02*
X123549D01*
X122069Y75399D02*
X123549D01*
Y72429D02*
Y75399D01*
X122069Y72429D02*
Y75399D01*
X135487Y61380D02*
Y64350D01*
X134007Y61380D02*
Y64350D01*
X135487D01*
X134007Y61380D02*
X135487D01*
X132947D02*
Y64350D01*
X131467Y61380D02*
Y64350D01*
X132947D01*
X131467Y61380D02*
X132947D01*
X117768Y49933D02*
Y51413D01*
X120738Y49933D02*
Y51413D01*
X117768Y49933D02*
X120738D01*
X117768Y51413D02*
X120738D01*
X137072Y47774D02*
X140042D01*
X137072Y49254D02*
X140042D01*
X137072Y47774D02*
Y49254D01*
X140042Y47774D02*
Y49254D01*
X94135Y91892D02*
X96365D01*
X94135Y96322D02*
X96365D01*
Y91892D02*
Y96322D01*
X94135Y91892D02*
Y96322D01*
X148316Y80768D02*
X152166Y80768D01*
X148316Y77368D02*
X152166D01*
Y80768D01*
X148316Y80768D02*
X148316Y77368D01*
X157790Y79149D02*
Y81379D01*
X153360Y79149D02*
Y81379D01*
Y79149D02*
X157790D01*
X153360Y81379D02*
X157790D01*
Y76609D02*
Y78839D01*
X153360Y76609D02*
Y78839D01*
Y76609D02*
X157790Y76609D01*
X153360Y78839D02*
X157790D01*
X80219Y76859D02*
X82879Y76859D01*
X80219Y76859D02*
Y80479D01*
X82879Y80479D01*
Y76859D02*
Y80479D01*
X88960Y74065D02*
Y77685D01*
X86300D02*
X88960D01*
X86300Y74065D02*
Y77685D01*
Y74065D02*
X88960D01*
X92008Y74065D02*
Y77685D01*
X89348D02*
X92008D01*
X89348Y74065D02*
Y77685D01*
Y74065D02*
X92008D01*
X85927Y76859D02*
Y80479D01*
X83267D02*
X85927D01*
X83267Y76859D02*
Y80479D01*
Y76859D02*
X85927D01*
X131449Y80335D02*
Y84765D01*
X129219Y80335D02*
Y84765D01*
Y80335D02*
X131449D01*
X129219Y84765D02*
X131449D01*
X90129Y108735D02*
Y114130D01*
X91579D01*
Y125835D01*
X80379D02*
X91579D01*
X80379Y114130D02*
Y125835D01*
Y114130D02*
X81829D01*
Y108735D02*
Y114130D01*
Y108735D02*
X90129D01*
X124590Y82629D02*
Y90345D01*
X120774Y82629D02*
Y90345D01*
Y82629D02*
X124590D01*
X120774Y90345D02*
X124590D01*
X140074Y85788D02*
X142374Y85788D01*
X142374Y90488D01*
X140074Y90488D02*
X142374Y90488D01*
X140074Y85788D02*
Y90488D01*
X126517Y75501D02*
X128817Y75501D01*
Y80201D01*
X126517Y80201D02*
X128817Y80201D01*
X126517Y80201D02*
X126517Y75501D01*
X117514Y68480D02*
X120484D01*
X117514Y69950D02*
X120484D01*
X117514Y68480D02*
Y69950D01*
X120484Y68480D02*
Y69950D01*
X120672Y66968D02*
Y69938D01*
X122152Y66968D02*
Y69938D01*
X120672D02*
X122152D01*
X120672Y66968D02*
X122152D01*
X125835Y68492D02*
Y71462D01*
X124355Y68492D02*
Y71462D01*
Y68492D02*
X125835D01*
X124355Y71462D02*
X125835D01*
X124184Y68492D02*
Y71462D01*
X122704Y68492D02*
Y71462D01*
Y68492D02*
X124184D01*
X122704Y71462D02*
X124184D01*
X106592Y93450D02*
X109562D01*
X106592Y91970D02*
X109562D01*
Y93450D01*
X106592Y91970D02*
Y93450D01*
X106150Y91987D02*
Y94957D01*
X104670Y91987D02*
Y94957D01*
Y91987D02*
X106150D01*
X104670Y94957D02*
X106150D01*
X97067Y91589D02*
X100037D01*
X97067Y93069D02*
X100037D01*
X97067Y91589D02*
Y93069D01*
X100037Y91589D02*
Y93069D01*
X116879Y90656D02*
X119849D01*
X116879Y89176D02*
X119849D01*
Y90656D01*
X116879Y89176D02*
Y90656D01*
X138198Y68746D02*
Y71716D01*
X139678Y68746D02*
Y71716D01*
X138198D02*
X139678D01*
X138198Y68746D02*
X139678D01*
X101876Y72683D02*
Y75653D01*
X103356Y72683D02*
Y75653D01*
X101876D02*
X103356D01*
X101876Y72683D02*
X103356D01*
X89684Y87796D02*
Y90766D01*
X91164Y87796D02*
Y90766D01*
X89684D02*
X91164D01*
X89684Y87796D02*
X91164D01*
X134786Y72368D02*
X137756D01*
X134786Y70888D02*
X137756D01*
Y72368D01*
X134786Y70888D02*
Y72368D01*
X134217Y68492D02*
Y71462D01*
X132737Y68492D02*
Y71462D01*
Y68492D02*
X134217D01*
X132737Y71462D02*
X134217D01*
X132225Y68404D02*
Y71804D01*
X128125D02*
X132225D01*
X128125Y68404D02*
X132225D01*
X128125D02*
Y71804D01*
X126133Y68492D02*
Y71462D01*
X127613Y68492D02*
Y71462D01*
X126133D02*
X127613D01*
X126133Y68492D02*
X127613D01*
X158298Y59210D02*
Y61440D01*
X153868Y59210D02*
Y61440D01*
X158298D01*
X153868Y59210D02*
X158298D01*
X152886Y60491D02*
Y63461D01*
X151406Y60491D02*
Y63461D01*
Y60491D02*
X152886D01*
X151406Y63461D02*
X152886D01*
X140882Y39475D02*
X143852D01*
X140882Y37995D02*
X143852D01*
Y39475D01*
X140882Y37995D02*
Y39475D01*
X155360Y71352D02*
X158330D01*
X155360Y69872D02*
X158330D01*
Y71352D01*
X155360Y69872D02*
Y71352D01*
X57398Y112719D02*
Y117659D01*
X37598Y117659D02*
X57398Y117659D01*
X37598Y112719D02*
Y117659D01*
Y112719D02*
X57398Y112719D01*
X146376Y58670D02*
X155506D01*
Y45470D02*
Y58670D01*
X146376Y45470D02*
X155506D01*
X146376D02*
Y58670D01*
X139823Y15119D02*
Y34899D01*
X129163Y15119D02*
X139823D01*
X129163D02*
Y34899D01*
X139823D01*
X142317Y17107D02*
Y34107D01*
Y17107D02*
X158317D01*
Y34107D01*
X142317D02*
X158317D01*
X140882Y34566D02*
X143852D01*
X140882Y36046D02*
X143852D01*
X140882Y34566D02*
Y36046D01*
X143852Y34566D02*
Y36046D01*
X140357Y29884D02*
X141837D01*
X140357Y32854D02*
X141837D01*
Y29884D02*
Y32854D01*
X140357Y29884D02*
Y32854D01*
X74627Y98663D02*
X78027D01*
X74627Y96663D02*
X78027D01*
X74627D02*
Y98663D01*
X78027Y96663D02*
Y98663D01*
X134669Y111141D02*
Y113141D01*
X131269Y111141D02*
Y113141D01*
Y111141D02*
X134669D01*
X131269Y113141D02*
X134669D01*
X99541Y31221D02*
X106961D01*
Y25421D02*
Y31221D01*
X99541Y25421D02*
X106961D01*
X99541D02*
Y31221D01*
X120745Y53354D02*
Y55104D01*
X116745Y55104D02*
X120745Y55104D01*
X116745Y53354D02*
X116745Y55104D01*
X116745Y53354D02*
X120745D01*
X116745Y55386D02*
Y57136D01*
Y55386D02*
X120745Y55386D01*
X120745Y57136D01*
X116745D02*
X120745D01*
X144716Y58688D02*
Y60438D01*
X140716D02*
X144716D01*
X140716Y58688D02*
X140716Y60438D01*
X140716Y58688D02*
X144716Y58688D01*
X140716Y60847D02*
Y62597D01*
Y60847D02*
X144716Y60847D01*
Y62597D01*
X140716Y62597D02*
X144716Y62597D01*
X141998Y49613D02*
X157298D01*
X141998D02*
Y51513D01*
X142298Y51513D01*
Y61363D01*
X140998D02*
X142298D01*
X140998D02*
Y64663D01*
X157298D01*
Y49613D02*
Y64663D01*
X129129Y36654D02*
Y40054D01*
X131129Y36654D02*
Y40054D01*
X129129Y36654D02*
X131129D01*
X129129Y40054D02*
X131129D01*
X131669Y36665D02*
Y40065D01*
X133669Y36665D02*
Y40065D01*
X131669Y36665D02*
X133669D01*
X131669Y40065D02*
X133669D01*
X135652Y36665D02*
Y40065D01*
X137652Y36665D02*
Y40065D01*
X135652Y36665D02*
X137652D01*
X135652Y40065D02*
X137652D01*
X138319Y36665D02*
Y40065D01*
X140319Y36665D02*
Y40065D01*
X138319Y36665D02*
X140319D01*
X138319Y40065D02*
X140319D01*
X105178Y31408D02*
X106658D01*
X105178Y34378D02*
X106658D01*
Y31408D02*
Y34378D01*
X105178Y31408D02*
Y34378D01*
X136854Y47774D02*
Y49254D01*
X133884Y47774D02*
Y49254D01*
X136854D01*
X133884Y47774D02*
X136854D01*
X120738Y51584D02*
Y53064D01*
X117768Y51584D02*
Y53064D01*
X120738D01*
X117768Y51584D02*
X120738D01*
X132373Y106067D02*
Y107547D01*
X135343Y106067D02*
Y107547D01*
X132373Y106067D02*
X135343D01*
X132373Y107547D02*
X135343D01*
X133758Y99480D02*
Y102450D01*
X135228D02*
X135228Y99480D01*
X133758Y102450D02*
X135228D01*
X133758Y99480D02*
X135228D01*
X135334Y102990D02*
Y105290D01*
X130604D02*
X135334D01*
X130604Y102990D02*
Y105290D01*
Y102990D02*
X135334D01*
X103576Y75664D02*
X108006D01*
X103576Y73434D02*
X108006D01*
Y75664D01*
X103576Y73434D02*
Y75664D01*
X117514Y66824D02*
X120484D01*
X117514Y68304D02*
X120484D01*
X117514Y66824D02*
Y68304D01*
X120484Y66824D02*
Y68304D01*
X111893Y82859D02*
Y85659D01*
Y82859D02*
X118993D01*
Y85659D01*
X111893Y85659D02*
X118993Y85659D01*
X144213Y112551D02*
X152967D01*
Y124431D01*
X144213D02*
X152967D01*
X144213Y112551D02*
Y124431D01*
X154791Y111532D02*
Y114502D01*
X153311Y111532D02*
Y114502D01*
Y111532D02*
X154791D01*
X153311Y114502D02*
X154791D01*
X145945Y111594D02*
X147425D01*
X145945Y108624D02*
X147425D01*
X145945D02*
Y111594D01*
X147425Y108624D02*
Y111594D01*
X144040D02*
X145520D01*
X144040Y108624D02*
X145520D01*
X144040D02*
Y111594D01*
X145520Y108624D02*
Y111594D01*
X156740Y47283D02*
Y50253D01*
X158220Y47283D02*
Y50253D01*
X156740D02*
X158220D01*
X156740Y47283D02*
X158220D01*
X120037Y66255D02*
X121517D01*
X120037Y63285D02*
X121517D01*
X120037D02*
Y66255D01*
X121517Y63285D02*
Y66255D01*
X140755Y63649D02*
X143725D01*
X140755Y65129D02*
X143725D01*
X140755Y63649D02*
Y65129D01*
X143725Y63649D02*
Y65129D01*
X153233Y100683D02*
X157663D01*
X153233Y98453D02*
X157663D01*
X153233D02*
Y100683D01*
X157663Y98453D02*
Y100683D01*
X153233Y98143D02*
X157663Y98143D01*
X153233Y95913D02*
X157663D01*
X153233Y98143D02*
X153233Y95913D01*
X157663D02*
X157663Y98143D01*
X153360Y71727D02*
X157790D01*
X153360Y69497D02*
X157790D01*
X153360Y71727D02*
X153360Y69497D01*
X157790D02*
Y71727D01*
X153360Y69187D02*
X157790D01*
X153360Y66957D02*
X157790D01*
X153360D02*
Y69187D01*
X157790Y66957D02*
Y69187D01*
X153360Y88491D02*
X157790D01*
X153360Y86261D02*
X157790D01*
X153360Y88491D02*
X153360Y86261D01*
X157790D02*
Y88491D01*
X153404Y91031D02*
X157834D01*
X153404Y88801D02*
X157834D01*
X153404D02*
Y91031D01*
X157834Y88801D02*
X157834Y91031D01*
X148316Y67716D02*
Y71116D01*
X152166Y67716D02*
Y71116D01*
X148316Y67716D02*
X152166D01*
X148316Y71116D02*
X152166D01*
X148233Y87020D02*
Y90420D01*
X152083Y87020D02*
Y90420D01*
X148233Y87020D02*
X152083D01*
X148233Y90420D02*
X152083D01*
X148280Y96672D02*
Y100072D01*
X152130Y96672D02*
Y100072D01*
X148280Y96672D02*
X152130D01*
X148280Y100072D02*
X152130D01*
X152710Y93881D02*
Y96111D01*
X148280Y93881D02*
Y96111D01*
Y93881D02*
X152710D01*
X148280Y96111D02*
X152710D01*
M02*
