%TF.GenerationSoftware,Altium Limited,Altium Designer,22.2.1 (43)*%
G04 Layer_Color=8388736*
%FSLAX44Y44*%
%MOMM*%
%TF.SameCoordinates,0AFF7D02-74C0-442A-A7DB-72135CCE8720*%
%TF.FilePolarity,Negative*%
%TF.FileFunction,Soldermask,Top*%
%TF.Part,Single*%
G01*
G75*
%TA.AperFunction,ComponentPad*%
%ADD69C,4.1148*%
%TA.AperFunction,SMDPad,CuDef*%
%ADD113R,1.1732X1.9332*%
%ADD114R,1.1232X1.1832*%
%ADD115R,1.9340X1.1740*%
%ADD118R,1.1832X1.1232*%
%ADD120R,1.9332X1.1732*%
%TA.AperFunction,ComponentPad*%
%ADD125O,4.3950X2.2995*%
%ADD126C,4.3180*%
%ADD127O,4.3942X2.2987*%
%ADD128C,1.8082*%
%ADD129R,1.8082X1.8082*%
%ADD130C,1.3432*%
%ADD131R,1.3432X1.3432*%
%ADD132O,3.2512X1.7272*%
%ADD133R,2.2582X2.2582*%
%ADD134C,2.2582*%
%ADD135C,2.1532*%
%ADD136R,2.1532X2.1532*%
%ADD137C,2.0066*%
%ADD138C,2.5146*%
%ADD139C,4.2926*%
%ADD140R,1.7018X1.7018*%
%ADD141C,1.7018*%
%ADD142R,2.2582X2.2582*%
%ADD143C,3.7032*%
%ADD144C,1.9732*%
%ADD145C,1.7632*%
%ADD146R,1.3032X1.3032*%
%ADD147R,1.7632X1.7632*%
%ADD148C,3.5492*%
%ADD149C,1.6312*%
%ADD150R,1.6312X1.6312*%
%ADD151C,1.3032*%
%ADD152R,1.9732X1.9732*%
%TA.AperFunction,ViaPad*%
%ADD153C,8.2032*%
%ADD154C,2.2032*%
%ADD155C,0.5032*%
%ADD156C,1.0032*%
%ADD157C,1.2032*%
%TA.AperFunction,SMDPad,CuDef*%
%ADD164R,1.1740X1.9340*%
%ADD165R,3.5240X2.6440*%
%ADD166R,2.2032X3.8032*%
%ADD167R,1.3032X1.6532*%
G04:AMPARAMS|DCode=168|XSize=1.3932mm|YSize=0.6032mm|CornerRadius=0.1516mm|HoleSize=0mm|Usage=FLASHONLY|Rotation=0.000|XOffset=0mm|YOffset=0mm|HoleType=Round|Shape=RoundedRectangle|*
%AMROUNDEDRECTD168*
21,1,1.3932,0.3000,0,0,0.0*
21,1,1.0900,0.6032,0,0,0.0*
1,1,0.3032,0.5450,-0.1500*
1,1,0.3032,-0.5450,-0.1500*
1,1,0.3032,-0.5450,0.1500*
1,1,0.3032,0.5450,0.1500*
%
%ADD168ROUNDEDRECTD168*%
%ADD169R,1.2932X1.2832*%
%ADD170R,1.6732X0.4832*%
%ADD171R,1.1932X3.9932*%
%ADD172R,11.0432X8.0832*%
%ADD173R,3.1032X5.6032*%
%ADD174R,0.9532X1.6032*%
%ADD175R,3.8032X2.2032*%
%ADD176R,2.9032X2.1032*%
%ADD177R,10.2032X9.0032*%
%ADD178R,5.6032X3.1032*%
%ADD179R,1.7032X1.4532*%
%ADD180R,1.6764X0.5588*%
%ADD181R,2.1844X0.7620*%
G04:AMPARAMS|DCode=182|XSize=0.4832mm|YSize=1.7632mm|CornerRadius=0.1366mm|HoleSize=0mm|Usage=FLASHONLY|Rotation=270.000|XOffset=0mm|YOffset=0mm|HoleType=Round|Shape=RoundedRectangle|*
%AMROUNDEDRECTD182*
21,1,0.4832,1.4900,0,0,270.0*
21,1,0.2100,1.7632,0,0,270.0*
1,1,0.2732,-0.7450,-0.1050*
1,1,0.2732,-0.7450,0.1050*
1,1,0.2732,0.7450,0.1050*
1,1,0.2732,0.7450,-0.1050*
%
%ADD182ROUNDEDRECTD182*%
G04:AMPARAMS|DCode=183|XSize=1.7632mm|YSize=0.4832mm|CornerRadius=0.1366mm|HoleSize=0mm|Usage=FLASHONLY|Rotation=270.000|XOffset=0mm|YOffset=0mm|HoleType=Round|Shape=RoundedRectangle|*
%AMROUNDEDRECTD183*
21,1,1.7632,0.2100,0,0,270.0*
21,1,1.4900,0.4832,0,0,270.0*
1,1,0.2732,-0.1050,-0.7450*
1,1,0.2732,-0.1050,0.7450*
1,1,0.2732,0.1050,0.7450*
1,1,0.2732,0.1050,-0.7450*
%
%ADD183ROUNDEDRECTD183*%
%ADD184R,1.4732X3.3832*%
%ADD185R,1.2032X1.1732*%
%ADD186R,0.8032X1.7032*%
%ADD187O,0.8032X2.0032*%
%ADD188R,0.8032X2.0032*%
%ADD189R,2.2040X3.8040*%
%ADD190R,0.8032X1.4032*%
%ADD191R,1.9032X1.2032*%
G04:AMPARAMS|DCode=192|XSize=1.3932mm|YSize=0.6032mm|CornerRadius=0.1516mm|HoleSize=0mm|Usage=FLASHONLY|Rotation=90.000|XOffset=0mm|YOffset=0mm|HoleType=Round|Shape=RoundedRectangle|*
%AMROUNDEDRECTD192*
21,1,1.3932,0.3000,0,0,90.0*
21,1,1.0900,0.6032,0,0,90.0*
1,1,0.3032,0.1500,0.5450*
1,1,0.3032,0.1500,-0.5450*
1,1,0.3032,-0.1500,-0.5450*
1,1,0.3032,-0.1500,0.5450*
%
%ADD192ROUNDEDRECTD192*%
%ADD193R,1.7272X1.7272*%
%ADD194R,1.7532X2.4532*%
%ADD195R,1.1400X3.5400*%
%ADD196R,10.8400X8.7400*%
%ADD197R,1.7272X1.7272*%
%ADD198R,2.0032X1.5432*%
%ADD199R,1.6032X1.4032*%
%TA.AperFunction,ConnectorPad*%
%ADD200R,1.1832X1.1232*%
%TA.AperFunction,SMDPad,CuDef*%
%ADD201R,3.8832X1.4732*%
%ADD202R,1.6532X1.3032*%
%ADD203R,1.4732X3.3782*%
%ADD204R,1.7632X0.8232*%
%ADD205R,1.3532X1.3532*%
%ADD206R,1.0032X1.4032*%
%ADD207R,1.1732X1.2032*%
%ADD208R,1.2832X1.2932*%
%ADD209R,0.7732X2.2232*%
G36*
X974560Y996040D02*
Y1006040D01*
X1001560D01*
Y996040D01*
X1012560D01*
Y981040D01*
X1001560D01*
Y964040D01*
X974560D01*
Y981040D01*
X963560D01*
Y996040D01*
X974560D01*
D02*
G37*
G36*
Y1056040D02*
Y1073040D01*
X1001560D01*
Y1056040D01*
X1012560D01*
Y1041040D01*
X1001560D01*
Y1031040D01*
X974560D01*
Y1041040D01*
X963560D01*
Y1056040D01*
X974560D01*
D02*
G37*
G36*
X1091400Y986770D02*
Y998770D01*
X1118400D01*
Y986770D01*
X1129400D01*
Y971770D01*
X1118400D01*
Y952770D01*
X1091400D01*
Y971770D01*
X1080400D01*
Y986770D01*
X1091400D01*
D02*
G37*
G36*
Y1062770D02*
Y1081770D01*
X1118400D01*
Y1062770D01*
X1129400D01*
Y1047770D01*
X1118400D01*
Y1035770D01*
X1091400D01*
Y1047770D01*
X1080400D01*
Y1062770D01*
X1091400D01*
D02*
G37*
G36*
X974560Y1132920D02*
Y1144920D01*
X1001560D01*
Y1132920D01*
X1012560D01*
Y1117920D01*
X1001560D01*
Y1098920D01*
X974560D01*
Y1117920D01*
X963560D01*
Y1132920D01*
X974560D01*
D02*
G37*
G36*
Y1208920D02*
Y1227920D01*
X1001560D01*
Y1208920D01*
X1012560D01*
Y1193920D01*
X1001560D01*
Y1181920D01*
X974560D01*
Y1193920D01*
X963560D01*
Y1208920D01*
X974560D01*
D02*
G37*
G36*
X1091400Y1139550D02*
Y1149550D01*
X1118400D01*
Y1139550D01*
X1129400D01*
Y1124550D01*
X1118400D01*
Y1107550D01*
X1091400D01*
Y1124550D01*
X1080400D01*
Y1139550D01*
X1091400D01*
D02*
G37*
G36*
Y1199550D02*
Y1216550D01*
X1118400D01*
Y1199550D01*
X1129400D01*
Y1184550D01*
X1118400D01*
Y1174550D01*
X1091400D01*
Y1184550D01*
X1080400D01*
Y1199550D01*
X1091400D01*
D02*
G37*
D69*
X485140Y438150D02*
D03*
D113*
X314130Y276860D02*
D03*
X343730D02*
D03*
X314130Y764540D02*
D03*
X343730D02*
D03*
X618930Y276860D02*
D03*
X648530D02*
D03*
X616340Y764540D02*
D03*
X645940Y764540D02*
D03*
X574480Y1019810D02*
D03*
X604080D02*
D03*
X727270Y925830D02*
D03*
X697670D02*
D03*
X727270Y900430D02*
D03*
X697670D02*
D03*
Y801370D02*
D03*
X727270D02*
D03*
X632020Y873760D02*
D03*
X602420D02*
D03*
X727270Y826770D02*
D03*
X697670D02*
D03*
X632020Y848360D02*
D03*
X602420D02*
D03*
X1421960Y419210D02*
D03*
X1392360D02*
D03*
X1531044Y758190D02*
D03*
X1560644D02*
D03*
X1531044Y798830D02*
D03*
X1560644D02*
D03*
X1531044Y839470D02*
D03*
X1560644D02*
D03*
X1557664Y1004570D02*
D03*
X1528064D02*
D03*
X1558104Y963930D02*
D03*
X1528504D02*
D03*
X1559374Y923290D02*
D03*
X1529774D02*
D03*
X1396864Y976630D02*
D03*
X1426464D02*
D03*
X1396864Y840740D02*
D03*
X1426464D02*
D03*
X1396864Y800100D02*
D03*
X1426464D02*
D03*
X1396424Y759460D02*
D03*
X1426024D02*
D03*
X1161610Y811530D02*
D03*
X1132010D02*
D03*
X1161610Y787400D02*
D03*
X1132010D02*
D03*
X1485070Y1104900D02*
D03*
X1514670D02*
D03*
Y1079500D02*
D03*
X1485070D02*
D03*
X1309810Y1097280D02*
D03*
X1339410D02*
D03*
X1271250Y419210D02*
D03*
X1300850D02*
D03*
X643060Y1148080D02*
D03*
X672660D02*
D03*
X589720D02*
D03*
X619320D02*
D03*
X772990Y951230D02*
D03*
X743390D02*
D03*
X1043110Y745490D02*
D03*
X1072710D02*
D03*
D114*
X581790Y948690D02*
D03*
X566290D02*
D03*
X581790Y998220D02*
D03*
X566290D02*
D03*
X581790Y857250D02*
D03*
X566290D02*
D03*
X644020Y788670D02*
D03*
X628520D02*
D03*
X940940Y368300D02*
D03*
X956440D02*
D03*
Y741680D02*
D03*
X940940D02*
D03*
X940940Y617220D02*
D03*
X956440D02*
D03*
X939800Y492760D02*
D03*
X955300D02*
D03*
X1501010Y353060D02*
D03*
X1516510D02*
D03*
X1543434Y869950D02*
D03*
X1527934D02*
D03*
X1547244Y778510D02*
D03*
X1531744D02*
D03*
X1547244Y902970D02*
D03*
X1531744D02*
D03*
X1531744Y819150D02*
D03*
X1547244D02*
D03*
X1409694Y956310D02*
D03*
X1425194D02*
D03*
X1409694Y820420D02*
D03*
X1425194D02*
D03*
X1544704Y984250D02*
D03*
X1529204D02*
D03*
X1547244Y737870D02*
D03*
X1531744D02*
D03*
X1409694Y739140D02*
D03*
X1425194D02*
D03*
X1545974Y943610D02*
D03*
X1530474D02*
D03*
X1527934Y706120D02*
D03*
X1543434Y706120D02*
D03*
X1409694Y779780D02*
D03*
X1425194D02*
D03*
X1450210Y754380D02*
D03*
X1465710Y754380D02*
D03*
X1451740Y918210D02*
D03*
X1436240D02*
D03*
X915540Y925830D02*
D03*
X931040D02*
D03*
X956440Y758190D02*
D03*
X940940D02*
D03*
X1184780Y506730D02*
D03*
X1200280D02*
D03*
X1377820Y485140D02*
D03*
X1393320D02*
D03*
X1088520Y927100D02*
D03*
X1073020D02*
D03*
X977770Y923290D02*
D03*
X993270D02*
D03*
X1191390Y899160D02*
D03*
X1175890D02*
D03*
X1370460Y716280D02*
D03*
X1354960D02*
D03*
X1431420Y387350D02*
D03*
X1415920D02*
D03*
X1576200Y706120D02*
D03*
X1560700D02*
D03*
X1182240Y675640D02*
D03*
X1197740D02*
D03*
X1200280Y523240D02*
D03*
X1361440Y485140D02*
D03*
X1431420Y353060D02*
D03*
X1415920D02*
D03*
X1345940Y485140D02*
D03*
X1184780Y523240D02*
D03*
X1330830Y1068070D02*
D03*
X1346330D02*
D03*
X1414650Y643890D02*
D03*
X1430150D02*
D03*
D115*
X1092200Y813240D02*
D03*
Y842840D02*
D03*
X979170Y748420D02*
D03*
Y718820D02*
D03*
X365760Y872930D02*
D03*
Y902530D02*
D03*
D118*
X542290Y831980D02*
D03*
Y816480D02*
D03*
Y882780D02*
D03*
Y867280D02*
D03*
Y974220D02*
D03*
Y958720D02*
D03*
X746760Y920880D02*
D03*
Y905380D02*
D03*
X542290Y906650D02*
D03*
Y922150D02*
D03*
X746760Y821820D02*
D03*
Y806320D02*
D03*
X980440Y693550D02*
D03*
Y678050D02*
D03*
Y320170D02*
D03*
Y304670D02*
D03*
X854710Y298320D02*
D03*
Y313820D02*
D03*
X980440Y429130D02*
D03*
Y444630D02*
D03*
Y570360D02*
D03*
Y554860D02*
D03*
X854710Y689870D02*
D03*
Y674370D02*
D03*
Y547240D02*
D03*
Y562740D02*
D03*
Y439550D02*
D03*
Y424050D02*
D03*
X490220Y1051690D02*
D03*
Y1036190D02*
D03*
Y928500D02*
D03*
Y913000D02*
D03*
X1228090Y731390D02*
D03*
Y746890D02*
D03*
X1214120Y692280D02*
D03*
Y676780D02*
D03*
X1250950Y692020D02*
D03*
Y707520D02*
D03*
X1234440Y692020D02*
D03*
Y707520D02*
D03*
X1054100Y926970D02*
D03*
Y942470D02*
D03*
X1389380Y710060D02*
D03*
Y694560D02*
D03*
X1026160Y749430D02*
D03*
Y733930D02*
D03*
X904240Y900560D02*
D03*
Y885060D02*
D03*
X1334770Y692020D02*
D03*
Y707520D02*
D03*
X1521460Y612010D02*
D03*
Y627510D02*
D03*
X1410970Y305940D02*
D03*
Y321440D02*
D03*
X1059180Y321180D02*
D03*
Y336680D02*
D03*
X1540510Y1122420D02*
D03*
Y1137920D02*
D03*
X1466850Y1108840D02*
D03*
Y1093340D02*
D03*
X1447800Y1108840D02*
D03*
Y1093340D02*
D03*
X1574800Y495430D02*
D03*
Y479930D02*
D03*
X1207770Y655450D02*
D03*
Y639950D02*
D03*
D120*
X604520Y968180D02*
D03*
Y997780D02*
D03*
Y791650D02*
D03*
Y821250D02*
D03*
Y895790D02*
D03*
Y925390D02*
D03*
X979170Y345880D02*
D03*
Y375480D02*
D03*
Y499940D02*
D03*
Y470340D02*
D03*
Y623130D02*
D03*
Y593530D02*
D03*
X1385890Y865310D02*
D03*
Y894910D02*
D03*
Y943170D02*
D03*
X1385890Y913570D02*
D03*
X1303340Y762440D02*
D03*
Y792040D02*
D03*
X1005840Y719260D02*
D03*
Y748860D02*
D03*
X1366060Y445440D02*
D03*
Y415840D02*
D03*
X1326690Y445440D02*
D03*
Y415840D02*
D03*
X1027430Y926270D02*
D03*
Y955870D02*
D03*
X365760Y996120D02*
D03*
Y1025720D02*
D03*
Y923730D02*
D03*
Y953330D02*
D03*
Y1046920D02*
D03*
Y1076520D02*
D03*
X1104900Y906340D02*
D03*
Y876740D02*
D03*
X952500Y926270D02*
D03*
Y955870D02*
D03*
X1303340Y810700D02*
D03*
Y840300D02*
D03*
D125*
X281940Y492760D02*
D03*
X281940Y438150D02*
D03*
X281940Y383540D02*
D03*
D126*
X788670Y603504D02*
D03*
X485140Y601980D02*
D03*
X788670Y438150D02*
D03*
D127*
X585470Y603504D02*
D03*
Y548894D02*
D03*
Y658114D02*
D03*
X281940Y601980D02*
D03*
Y547370D02*
D03*
Y656590D02*
D03*
X585470Y438150D02*
D03*
Y383540D02*
D03*
Y492760D02*
D03*
D128*
X515620Y980440D02*
D03*
Y955040D02*
D03*
Y889000D02*
D03*
Y863600D02*
D03*
D129*
Y929640D02*
D03*
Y838200D02*
D03*
D130*
X956310Y568960D02*
D03*
Y543560D02*
D03*
Y518160D02*
D03*
X876910Y543560D02*
D03*
Y518160D02*
D03*
Y568960D02*
D03*
X956310Y594360D02*
D03*
X956640Y320040D02*
D03*
Y294640D02*
D03*
Y269240D02*
D03*
X877240D02*
D03*
Y320040D02*
D03*
Y294640D02*
D03*
X956640Y345440D02*
D03*
Y642620D02*
D03*
Y668020D02*
D03*
Y693420D02*
D03*
X877240Y642620D02*
D03*
Y693420D02*
D03*
Y668020D02*
D03*
X956640Y718820D02*
D03*
X955370Y393700D02*
D03*
Y419100D02*
D03*
Y444500D02*
D03*
X875970Y393700D02*
D03*
X955370Y469900D02*
D03*
X875970Y444500D02*
D03*
Y419100D02*
D03*
D131*
X876910Y594360D02*
D03*
X877240Y345440D02*
D03*
Y718820D02*
D03*
X875970Y469900D02*
D03*
D132*
X1345250Y760730D02*
D03*
Y786130D02*
D03*
X1345250Y811530D02*
D03*
X1345250Y925830D02*
D03*
Y900430D02*
D03*
X1345250Y875030D02*
D03*
D133*
X350520Y1224280D02*
D03*
D134*
X375870D02*
D03*
X401220D02*
D03*
X287020Y951180D02*
D03*
Y925830D02*
D03*
X285750Y1175986D02*
D03*
Y1054083D02*
D03*
Y1079434D02*
D03*
Y1201337D02*
D03*
D135*
X514350Y1235710D02*
D03*
D136*
X609650D02*
D03*
D137*
X1701038Y878586D02*
D03*
Y618490D02*
D03*
X1676146Y878586D02*
D03*
X1651000D02*
D03*
X1626108D02*
D03*
X1701038Y843534D02*
D03*
Y793496D02*
D03*
X1676146D02*
D03*
X1651000D02*
D03*
Y618490D02*
D03*
X1676146D02*
D03*
X1701038Y643382D02*
D03*
Y668528D02*
D03*
Y693420D02*
D03*
Y718566D02*
D03*
Y743458D02*
D03*
X1626108Y768604D02*
D03*
X1676146D02*
D03*
X1701038D02*
D03*
X1626108Y793496D02*
D03*
X1651000Y818388D02*
D03*
X1626108Y843534D02*
D03*
X1651000D02*
D03*
X1626108Y618490D02*
D03*
Y818388D02*
D03*
Y643382D02*
D03*
X1651000D02*
D03*
X1676146D02*
D03*
X1626108Y668528D02*
D03*
X1651000D02*
D03*
X1676146D02*
D03*
X1626108Y693420D02*
D03*
X1651000D02*
D03*
X1676146D02*
D03*
X1626108Y718566D02*
D03*
X1651000D02*
D03*
X1676146D02*
D03*
X1626108Y743458D02*
D03*
X1651000D02*
D03*
X1676146D02*
D03*
X1651000Y768604D02*
D03*
X1676146Y818388D02*
D03*
X1701038D02*
D03*
X1676146Y843534D02*
D03*
X1626108Y915416D02*
D03*
X1651000D02*
D03*
X1676146D02*
D03*
X1701038D02*
D03*
D138*
X1616202Y553974D02*
D03*
Y979932D02*
D03*
D139*
X1654556Y513080D02*
D03*
Y1021080D02*
D03*
D140*
X394970Y1102360D02*
D03*
Y979170D02*
D03*
D141*
Y1076960D02*
D03*
Y1051560D02*
D03*
Y1026160D02*
D03*
X471170D02*
D03*
Y1051560D02*
D03*
Y1076960D02*
D03*
Y1102360D02*
D03*
Y979170D02*
D03*
Y953770D02*
D03*
Y928370D02*
D03*
Y902970D02*
D03*
X394970D02*
D03*
Y928370D02*
D03*
Y953770D02*
D03*
D142*
X287020Y900480D02*
D03*
X285750Y1150637D02*
D03*
Y1028733D02*
D03*
D143*
X454680Y1148190D02*
D03*
X495280D02*
D03*
X403880D02*
D03*
X546080D02*
D03*
D144*
X1154430Y840740D02*
D03*
X1177230D02*
D03*
D145*
X1357630Y275590D02*
D03*
X1332230D02*
D03*
X1383030D02*
D03*
D146*
X533400Y1099420D02*
D03*
D147*
X1306830Y275590D02*
D03*
D148*
X1563370Y276066D02*
D03*
X1442970D02*
D03*
D149*
X1515670Y303165D02*
D03*
X1490670D02*
D03*
Y323166D02*
D03*
D150*
X1515670D02*
D03*
D151*
X533400Y1049420D02*
D03*
D152*
X1131630Y840740D02*
D03*
D153*
X845820Y873760D02*
D03*
X520700Y325120D02*
D03*
X1727200Y311150D02*
D03*
Y1212850D02*
D03*
D154*
X792480Y925830D02*
D03*
X618490Y1125220D02*
D03*
X922020Y561340D02*
D03*
X920750Y454660D02*
D03*
X1041400Y1094740D02*
D03*
X1647190Y1092200D02*
D03*
X1163038Y1094738D02*
D03*
D155*
X1390070Y955283D02*
D03*
X1410390Y966713D02*
D03*
X829310Y770890D02*
D03*
X860480Y774943D02*
D03*
X1360170Y1016000D02*
D03*
X1370330Y962660D02*
D03*
X1564640Y947420D02*
D03*
X1499870Y1104900D02*
D03*
X1465580Y1016000D02*
D03*
X1253490Y820420D02*
D03*
X1414780Y725170D02*
D03*
X1459230Y763270D02*
D03*
X1719580Y891540D02*
D03*
X1750060Y723900D02*
D03*
X1479550Y966470D02*
D03*
X1637030Y781050D02*
D03*
X1598930Y886460D02*
D03*
X1606550Y871220D02*
D03*
X1596390Y869950D02*
D03*
X1518920Y934720D02*
D03*
X1465580Y889000D02*
D03*
X1479550Y871220D02*
D03*
X1473200Y902970D02*
D03*
X1468120Y969010D02*
D03*
X763270Y853440D02*
D03*
X758190Y806450D02*
D03*
X775970Y866140D02*
D03*
X759460Y871220D02*
D03*
X1088390Y519430D02*
D03*
X753110Y877570D02*
D03*
X746760Y834390D02*
D03*
X1118870Y508000D02*
D03*
X1112520D02*
D03*
X1106170D02*
D03*
X1093470D02*
D03*
X1099820D02*
D03*
X1002030Y826770D02*
D03*
X1504950Y659130D02*
D03*
X1499870Y756920D02*
D03*
X1399540Y358140D02*
D03*
X1494790Y636270D02*
D03*
X1553210Y659130D02*
D03*
X1598930Y680720D02*
D03*
X1404620Y670560D02*
D03*
X1399540Y675640D02*
D03*
X1478280Y848360D02*
D03*
X1480820Y806450D02*
D03*
X1482090Y784860D02*
D03*
X1590040Y657860D02*
D03*
X1478280Y652780D02*
D03*
X1578610Y641350D02*
D03*
X1567180Y659130D02*
D03*
X1488440Y560070D02*
D03*
X1403350Y637540D02*
D03*
X1493520Y685800D02*
D03*
X1204444Y629560D02*
D03*
X985520Y767080D02*
D03*
X994410Y762000D02*
D03*
X801370Y777240D02*
D03*
X833120D02*
D03*
X862330Y749300D02*
D03*
X892810D02*
D03*
X1600200Y711200D02*
D03*
X1285240Y646430D02*
D03*
X1277620D02*
D03*
X1329690Y647700D02*
D03*
X1541780Y657860D02*
D03*
X1522730Y678180D02*
D03*
X1223010Y327660D02*
D03*
X1239520Y676910D02*
D03*
X1231900Y668020D02*
D03*
X1369060Y604520D02*
D03*
X1283970Y599440D02*
D03*
X1294130Y603250D02*
D03*
X1198784Y610058D02*
D03*
X1250950Y638810D02*
D03*
X1264920Y645160D02*
D03*
X1257300D02*
D03*
X1292860Y646430D02*
D03*
X1336040Y643890D02*
D03*
X1291590Y535940D02*
D03*
X1296670Y530860D02*
D03*
X1244470Y731390D02*
D03*
X1267199Y678570D02*
D03*
X1334770Y698500D02*
D03*
X1266190Y543560D02*
D03*
X1252040Y682170D02*
D03*
X1455420Y617220D02*
D03*
X1579880Y659130D02*
D03*
X1355090Y562610D02*
D03*
X1365250D02*
D03*
X1417320Y568960D02*
D03*
X1426210Y575310D02*
D03*
X1409700Y548640D02*
D03*
X1407160Y562610D02*
D03*
X1404620Y601980D02*
D03*
Y613410D02*
D03*
X1220470Y551180D02*
D03*
X1218925Y559200D02*
D03*
X1219564Y569200D02*
D03*
X1255710Y604200D02*
D03*
X1231900Y654050D02*
D03*
X1459230Y469900D02*
D03*
X1361440Y524510D02*
D03*
X1326910Y526810D02*
D03*
X1321910Y530700D02*
D03*
X1306830Y520700D02*
D03*
X1301750Y525780D02*
D03*
X1210310Y330200D02*
D03*
Y551180D02*
D03*
X1211580Y542290D02*
D03*
X1334770Y494030D02*
D03*
X1446530Y434340D02*
D03*
X1442720Y430530D02*
D03*
X1355090Y523240D02*
D03*
X549690Y974155D02*
D03*
Y831850D02*
D03*
Y882800D02*
D03*
X549690Y922750D02*
D03*
X1436370Y820042D02*
D03*
Y734060D02*
D03*
X1432814Y718566D02*
D03*
X1436370Y725170D02*
D03*
X1426210Y787400D02*
D03*
X1357630Y603250D02*
D03*
X1321910Y647860D02*
D03*
X1346910Y648410D02*
D03*
X1304290Y646430D02*
D03*
X1381980Y717160D02*
D03*
X1268730Y717550D02*
D03*
X1041400Y800100D02*
D03*
X1334770Y485140D02*
D03*
X1403350D02*
D03*
X852170Y810260D02*
D03*
X821690D02*
D03*
X939800Y798830D02*
D03*
X927100Y798830D02*
D03*
X1082040Y1069340D02*
D03*
X1014730Y1176020D02*
D03*
X1082040D02*
D03*
X1014730Y1069340D02*
D03*
X1024890Y882650D02*
D03*
D156*
X1192530Y801370D02*
D03*
X1191260Y772160D02*
D03*
X900430Y732790D02*
D03*
X905510Y692150D02*
D03*
X1337310Y358140D02*
D03*
X1314450Y359410D02*
D03*
X1362710Y355807D02*
D03*
X1761015Y706277D02*
D03*
X1054100Y915670D02*
D03*
X1727200Y1007110D02*
D03*
Y1022350D02*
D03*
X990600Y800100D02*
D03*
X1468120Y848360D02*
D03*
X1436370Y861060D02*
D03*
X1587500Y693420D02*
D03*
X330952Y277042D02*
D03*
X662940Y764540D02*
D03*
X354330Y797560D02*
D03*
X1761490Y1089660D02*
D03*
X585470Y789940D02*
D03*
X1554480Y384810D02*
D03*
Y370840D02*
D03*
X1705610Y411480D02*
D03*
X1684020Y429260D02*
D03*
X1172210Y506730D02*
D03*
X1461770Y416560D02*
D03*
X977900Y807720D02*
D03*
X1534160Y598170D02*
D03*
X1562100Y603250D02*
D03*
X1283970Y358064D02*
D03*
X1268730Y454660D02*
D03*
X1248410Y485140D02*
D03*
X1253490Y473710D02*
D03*
X1261110Y463550D02*
D03*
X1468120Y685800D02*
D03*
X1436370Y692150D02*
D03*
X845820Y751840D02*
D03*
X824230Y820420D02*
D03*
X869950Y782320D02*
D03*
X900430D02*
D03*
X979170Y735330D02*
D03*
X607060Y981710D02*
D03*
X589600Y845150D02*
D03*
X600710Y908050D02*
D03*
X607060Y941070D02*
D03*
X1009650Y927100D02*
D03*
X1141730Y1137920D02*
D03*
X1379220Y295910D02*
D03*
X935990Y1010920D02*
D03*
X1005840Y735330D02*
D03*
X1016000Y805180D02*
D03*
X1045210Y855980D02*
D03*
X1041400Y882650D02*
D03*
D157*
X1356360Y1136650D02*
D03*
X1017270Y320040D02*
D03*
X1257300Y1137920D02*
D03*
D164*
X1191650Y876300D02*
D03*
X1162050Y876300D02*
D03*
X1575630Y603250D02*
D03*
X1546030D02*
D03*
D165*
X817880Y698730D02*
D03*
Y746530D02*
D03*
X1018540Y580160D02*
D03*
Y532360D02*
D03*
Y454430D02*
D03*
Y406630D02*
D03*
X815340Y341400D02*
D03*
Y293600D02*
D03*
X1226820Y840970D02*
D03*
Y888770D02*
D03*
D166*
X652490Y717550D02*
D03*
X584490D02*
D03*
X282230Y323850D02*
D03*
X350230D02*
D03*
X454370Y717550D02*
D03*
X386370D02*
D03*
X454370Y323850D02*
D03*
X386370D02*
D03*
X350230Y717550D02*
D03*
X282230D02*
D03*
X756870D02*
D03*
X688870D02*
D03*
X585760Y323850D02*
D03*
X653760D02*
D03*
X689900D02*
D03*
X757900D02*
D03*
D167*
X597250Y763270D02*
D03*
X579250D02*
D03*
X599550Y278130D02*
D03*
X581550D02*
D03*
X278020D02*
D03*
X296020D02*
D03*
X278020Y763270D02*
D03*
X296020D02*
D03*
X772270Y976630D02*
D03*
X1338690Y1121410D02*
D03*
X754270Y976630D02*
D03*
X1320690Y1121410D02*
D03*
D168*
X561900Y980590D02*
D03*
Y974090D02*
D03*
Y967590D02*
D03*
X581100D02*
D03*
Y980590D02*
D03*
X561900Y929790D02*
D03*
X581100Y916790D02*
D03*
Y929790D02*
D03*
X561900Y916790D02*
D03*
Y923290D02*
D03*
X581810Y889300D02*
D03*
Y876300D02*
D03*
X562610D02*
D03*
Y882800D02*
D03*
Y889300D02*
D03*
X581100Y838350D02*
D03*
Y825350D02*
D03*
X561900D02*
D03*
Y831850D02*
D03*
Y838350D02*
D03*
D169*
X655320Y847850D02*
D03*
Y879350D02*
D03*
X629920Y965960D02*
D03*
Y997460D02*
D03*
D170*
X671740Y910750D02*
D03*
Y915750D02*
D03*
X671740Y920750D02*
D03*
X671740Y925750D02*
D03*
Y930750D02*
D03*
X628740D02*
D03*
Y925750D02*
D03*
X628740Y920750D02*
D03*
X628740Y915750D02*
D03*
Y910750D02*
D03*
X671650Y811610D02*
D03*
Y806610D02*
D03*
X628650D02*
D03*
Y811610D02*
D03*
Y816610D02*
D03*
Y821610D02*
D03*
Y826610D02*
D03*
X671650D02*
D03*
Y821610D02*
D03*
Y816610D02*
D03*
D171*
X1235710Y1108210D02*
D03*
X1252710D02*
D03*
X1269710D02*
D03*
X1201710D02*
D03*
X1218710D02*
D03*
D172*
X1235710Y1215710D02*
D03*
D173*
X901670Y1002030D02*
D03*
X802670D02*
D03*
D174*
X1368690Y694690D02*
D03*
X1354190D02*
D03*
D175*
X1338580Y1243040D02*
D03*
Y1175040D02*
D03*
X732790Y1071590D02*
D03*
Y1003590D02*
D03*
D176*
X740410Y1118180D02*
D03*
D177*
Y1209680D02*
D03*
D178*
X1235710Y1051530D02*
D03*
Y952530D02*
D03*
D179*
X326390Y1062460D02*
D03*
Y1027960D02*
D03*
Y1150090D02*
D03*
Y1115590D02*
D03*
X353060Y1150090D02*
D03*
Y1115590D02*
D03*
X326390Y935460D02*
D03*
Y900960D02*
D03*
D180*
X1509014Y901700D02*
D03*
X1452626D02*
D03*
X1509014Y843280D02*
D03*
Y849630D02*
D03*
Y856234D02*
D03*
Y862838D02*
D03*
Y869188D02*
D03*
Y875792D02*
D03*
Y882142D02*
D03*
Y888746D02*
D03*
Y895350D02*
D03*
X1452626D02*
D03*
Y888746D02*
D03*
Y882142D02*
D03*
Y875792D02*
D03*
Y869188D02*
D03*
Y862838D02*
D03*
Y856234D02*
D03*
Y849630D02*
D03*
Y843280D02*
D03*
X1509014Y738124D02*
D03*
X1452626D02*
D03*
Y679704D02*
D03*
Y686054D02*
D03*
X1452626Y692658D02*
D03*
X1452626Y699262D02*
D03*
Y705612D02*
D03*
Y712216D02*
D03*
Y718566D02*
D03*
Y725170D02*
D03*
Y731774D02*
D03*
X1509014D02*
D03*
Y725170D02*
D03*
Y718566D02*
D03*
Y712216D02*
D03*
Y705612D02*
D03*
Y699262D02*
D03*
X1509014Y692658D02*
D03*
X1509014Y686054D02*
D03*
Y679704D02*
D03*
D181*
X1453896Y772160D02*
D03*
X1453896Y784860D02*
D03*
X1453896Y797560D02*
D03*
Y810260D02*
D03*
X1503172Y810260D02*
D03*
Y797560D02*
D03*
Y784860D02*
D03*
Y772160D02*
D03*
X1453896Y934720D02*
D03*
Y947420D02*
D03*
X1453896Y960120D02*
D03*
X1453896Y972820D02*
D03*
X1503172D02*
D03*
X1503172Y960120D02*
D03*
Y947420D02*
D03*
Y934720D02*
D03*
D182*
X1235110Y644200D02*
D03*
Y639200D02*
D03*
Y634200D02*
D03*
Y629200D02*
D03*
Y619200D02*
D03*
Y614200D02*
D03*
Y609200D02*
D03*
Y604200D02*
D03*
Y599200D02*
D03*
Y594200D02*
D03*
Y589200D02*
D03*
Y584200D02*
D03*
Y579200D02*
D03*
Y574200D02*
D03*
Y569200D02*
D03*
Y564200D02*
D03*
Y559200D02*
D03*
Y554200D02*
D03*
Y549200D02*
D03*
Y544200D02*
D03*
Y539200D02*
D03*
Y529200D02*
D03*
Y524200D02*
D03*
X1388710D02*
D03*
Y529200D02*
D03*
Y534200D02*
D03*
Y539200D02*
D03*
Y544200D02*
D03*
Y549200D02*
D03*
Y554200D02*
D03*
Y559200D02*
D03*
Y564200D02*
D03*
Y569200D02*
D03*
Y574200D02*
D03*
Y579200D02*
D03*
Y584200D02*
D03*
Y589200D02*
D03*
Y594200D02*
D03*
Y599200D02*
D03*
Y604200D02*
D03*
Y609200D02*
D03*
Y619200D02*
D03*
Y624200D02*
D03*
Y629200D02*
D03*
Y634200D02*
D03*
Y639200D02*
D03*
Y644200D02*
D03*
X1235110Y624200D02*
D03*
X1388710Y614200D02*
D03*
X1235110Y534200D02*
D03*
D183*
X1371910Y661000D02*
D03*
X1366910D02*
D03*
X1361910D02*
D03*
X1356910D02*
D03*
X1351910D02*
D03*
X1346910D02*
D03*
X1341910D02*
D03*
X1336910D02*
D03*
X1331910D02*
D03*
X1326910D02*
D03*
X1321910D02*
D03*
X1316910D02*
D03*
X1311910D02*
D03*
X1306910D02*
D03*
X1301910D02*
D03*
X1296910D02*
D03*
X1291910D02*
D03*
X1286910D02*
D03*
X1281910D02*
D03*
X1266910D02*
D03*
X1261910D02*
D03*
X1256910D02*
D03*
X1251910D02*
D03*
Y507400D02*
D03*
X1256910D02*
D03*
X1271910D02*
D03*
X1276910D02*
D03*
X1281910D02*
D03*
X1286910D02*
D03*
X1291910D02*
D03*
X1296910D02*
D03*
X1301910D02*
D03*
X1306910D02*
D03*
X1311910D02*
D03*
X1316910D02*
D03*
X1321910D02*
D03*
X1326910D02*
D03*
X1331910D02*
D03*
X1336910D02*
D03*
X1341910D02*
D03*
X1346910D02*
D03*
X1351910D02*
D03*
X1356910D02*
D03*
X1366910D02*
D03*
X1371910D02*
D03*
X1271910Y661000D02*
D03*
X1276910D02*
D03*
X1261910Y507400D02*
D03*
X1266910D02*
D03*
X1361910D02*
D03*
D184*
X1186180Y300450D02*
D03*
X1211580D02*
D03*
X1236980D02*
D03*
D185*
X1431020Y369570D02*
D03*
X1416320D02*
D03*
X1182640Y692150D02*
D03*
X1197340D02*
D03*
D186*
X1579880Y680550D02*
D03*
X1567180D02*
D03*
X1554480D02*
D03*
X1541780D02*
D03*
Y627550D02*
D03*
X1554480D02*
D03*
X1567180D02*
D03*
X1579880D02*
D03*
D187*
X1066800Y783590D02*
D03*
X1054100Y900590D02*
D03*
X1041400D02*
D03*
X1028700Y900590D02*
D03*
X1003300D02*
D03*
X977900Y900590D02*
D03*
X965200Y900590D02*
D03*
X927100Y900590D02*
D03*
X1028700Y783590D02*
D03*
X1016000Y783590D02*
D03*
X1003300Y783590D02*
D03*
X990600Y783590D02*
D03*
X977900D02*
D03*
X965200Y783590D02*
D03*
X952500D02*
D03*
X939800D02*
D03*
X927100Y783590D02*
D03*
X939800Y900590D02*
D03*
X952500Y900590D02*
D03*
X990600D02*
D03*
X1016000D02*
D03*
X1054100Y783590D02*
D03*
X1041400Y783590D02*
D03*
D188*
X1066800Y900590D02*
D03*
D189*
X595920Y1080770D02*
D03*
X663920D02*
D03*
D190*
X1471270Y377390D02*
D03*
X1461770Y377390D02*
D03*
X1452270Y377390D02*
D03*
Y402390D02*
D03*
X1461770Y402390D02*
D03*
X1471270Y402390D02*
D03*
D191*
X1140710Y758140D02*
D03*
X1203710D02*
D03*
Y720140D02*
D03*
X1140710D02*
D03*
D192*
X808990Y777090D02*
D03*
X815490D02*
D03*
X821990D02*
D03*
Y796290D02*
D03*
X808990D02*
D03*
X869800Y768350D02*
D03*
X882800D02*
D03*
Y749150D02*
D03*
X876300Y749150D02*
D03*
X869800Y749150D02*
D03*
X900280Y768350D02*
D03*
X913280Y768350D02*
D03*
X913280Y749150D02*
D03*
X906780Y749150D02*
D03*
X900280Y749150D02*
D03*
X839470Y796290D02*
D03*
X852470Y796290D02*
D03*
Y777090D02*
D03*
X845970Y777090D02*
D03*
X839470D02*
D03*
D193*
X977900Y844550D02*
D03*
Y866140D02*
D03*
D194*
X1577340Y1051880D02*
D03*
Y1091880D02*
D03*
X1543050Y1051880D02*
D03*
Y1091880D02*
D03*
X1134110Y916620D02*
D03*
Y876620D02*
D03*
D195*
X859790Y1106850D02*
D03*
X876790D02*
D03*
X893790D02*
D03*
X825790D02*
D03*
X842790D02*
D03*
D196*
X859790Y1212850D02*
D03*
D197*
X1733550Y878840D02*
D03*
X1755140Y878840D02*
D03*
X1733550Y855980D02*
D03*
X1755140Y855980D02*
D03*
X1733550Y833120D02*
D03*
X1755140D02*
D03*
D198*
X1412240Y867080D02*
D03*
X1412240Y895680D02*
D03*
X1276670Y764210D02*
D03*
X1276670Y792810D02*
D03*
D199*
X1312750Y709540D02*
D03*
X1290750D02*
D03*
Y692540D02*
D03*
X1312750D02*
D03*
D200*
X1268730Y707520D02*
D03*
Y692020D02*
D03*
D201*
X1534160Y469900D02*
D03*
X1484660Y469900D02*
D03*
X1534160Y495300D02*
D03*
X1484660D02*
D03*
X1534160Y520700D02*
D03*
X1484660D02*
D03*
X1534160Y546100D02*
D03*
X1484660D02*
D03*
X1534160Y571500D02*
D03*
X1484660Y571500D02*
D03*
D202*
X1301290Y392541D02*
D03*
X1326691Y392650D02*
D03*
X1366520Y392649D02*
D03*
X1393190Y392650D02*
D03*
X1326691Y374650D02*
D03*
X1301290Y374540D02*
D03*
X1366520Y374650D02*
D03*
X1393190Y374650D02*
D03*
D203*
X1306830Y330700D02*
D03*
X1332230D02*
D03*
X1357630D02*
D03*
X1383030D02*
D03*
D204*
X1005710Y302260D02*
D03*
Y289560D02*
D03*
Y276860D02*
D03*
Y264160D02*
D03*
X1059310D02*
D03*
Y276860D02*
D03*
Y289560D02*
D03*
Y302260D02*
D03*
D205*
X1199200Y542290D02*
D03*
X1175700D02*
D03*
Y562610D02*
D03*
X1199200D02*
D03*
X1438910Y595630D02*
D03*
X1415410D02*
D03*
X1415410Y617220D02*
D03*
X1438910Y617220D02*
D03*
D206*
X1344990Y976630D02*
D03*
X1316990D02*
D03*
D207*
X1344930Y1017000D02*
D03*
Y1002300D02*
D03*
D208*
X1345440Y1041400D02*
D03*
X1313940Y1041400D02*
D03*
D209*
X1466850Y1138110D02*
D03*
X1479550D02*
D03*
X1492250D02*
D03*
X1504950D02*
D03*
Y1231710D02*
D03*
X1492250D02*
D03*
X1479550D02*
D03*
X1466850D02*
D03*
%TF.MD5,a102d4f98a0a92ba0f55194a91eb8fa2*%
M02*
