%TF.GenerationSoftware,Altium Limited,Altium Designer,22.2.1 (43)*%
G04 Layer_Color=255*
%FSLAX44Y44*%
%MOMM*%
%TF.SameCoordinates,0AFF7D02-74C0-442A-A7DB-72135CCE8720*%
%TF.FilePolarity,Positive*%
%TF.FileFunction,Pads,Top*%
%TF.Part,Single*%
G01*
G75*
%TA.AperFunction,SMDPad,CuDef*%
%ADD10R,0.9700X1.7300*%
%ADD11R,1.7300X0.9700*%
%ADD12R,3.3200X2.4400*%
%ADD13R,2.0000X3.6000*%
%ADD14R,1.1000X1.4500*%
%ADD15R,0.9800X0.9200*%
G04:AMPARAMS|DCode=16|XSize=1.19mm|YSize=0.4mm|CornerRadius=0.05mm|HoleSize=0mm|Usage=FLASHONLY|Rotation=0.000|XOffset=0mm|YOffset=0mm|HoleType=Round|Shape=RoundedRectangle|*
%AMROUNDEDRECTD16*
21,1,1.1900,0.3000,0,0,0.0*
21,1,1.0900,0.4000,0,0,0.0*
1,1,0.1000,0.5450,-0.1500*
1,1,0.1000,-0.5450,-0.1500*
1,1,0.1000,-0.5450,0.1500*
1,1,0.1000,0.5450,0.1500*
%
%ADD16ROUNDEDRECTD16*%
%ADD17R,0.9200X0.9800*%
%ADD18R,1.0900X1.0800*%
%ADD19R,1.4700X0.2800*%
%ADD20R,0.9900X3.7900*%
%ADD21R,10.8400X7.8800*%
%ADD22R,2.9000X5.4000*%
%ADD23R,0.7500X1.4000*%
%ADD24R,3.6000X2.0000*%
%ADD25R,2.7000X1.9000*%
%ADD26R,10.0000X8.8000*%
%ADD27R,2.0000X2.0000*%
%ADD28R,5.4000X2.9000*%
%ADD29R,1.5000X1.2500*%
%ADD30R,1.4732X0.3556*%
%ADD31R,1.9812X0.5588*%
G04:AMPARAMS|DCode=32|XSize=0.28mm|YSize=1.56mm|CornerRadius=0.035mm|HoleSize=0mm|Usage=FLASHONLY|Rotation=270.000|XOffset=0mm|YOffset=0mm|HoleType=Round|Shape=RoundedRectangle|*
%AMROUNDEDRECTD32*
21,1,0.2800,1.4900,0,0,270.0*
21,1,0.2100,1.5600,0,0,270.0*
1,1,0.0700,-0.7450,-0.1050*
1,1,0.0700,-0.7450,0.1050*
1,1,0.0700,0.7450,0.1050*
1,1,0.0700,0.7450,-0.1050*
%
%ADD32ROUNDEDRECTD32*%
G04:AMPARAMS|DCode=33|XSize=1.56mm|YSize=0.28mm|CornerRadius=0.035mm|HoleSize=0mm|Usage=FLASHONLY|Rotation=270.000|XOffset=0mm|YOffset=0mm|HoleType=Round|Shape=RoundedRectangle|*
%AMROUNDEDRECTD33*
21,1,1.5600,0.2100,0,0,270.0*
21,1,1.4900,0.2800,0,0,270.0*
1,1,0.0700,-0.1050,-0.7450*
1,1,0.0700,-0.1050,0.7450*
1,1,0.0700,0.1050,0.7450*
1,1,0.0700,0.1050,-0.7450*
%
%ADD33ROUNDEDRECTD33*%
%ADD34R,1.2700X3.1800*%
%ADD35R,1.0000X0.9700*%
%ADD36R,0.6000X1.5000*%
%ADD37O,0.6000X1.8000*%
%ADD38R,0.6000X1.8000*%
%ADD39R,0.6000X1.2000*%
%ADD40R,1.7000X1.0000*%
G04:AMPARAMS|DCode=41|XSize=1.19mm|YSize=0.4mm|CornerRadius=0.05mm|HoleSize=0mm|Usage=FLASHONLY|Rotation=90.000|XOffset=0mm|YOffset=0mm|HoleType=Round|Shape=RoundedRectangle|*
%AMROUNDEDRECTD41*
21,1,1.1900,0.3000,0,0,90.0*
21,1,1.0900,0.4000,0,0,90.0*
1,1,0.1000,0.1500,0.5450*
1,1,0.1000,0.1500,-0.5450*
1,1,0.1000,-0.1500,-0.5450*
1,1,0.1000,-0.1500,0.5450*
%
%ADD41ROUNDEDRECTD41*%
%ADD42R,1.5240X1.5240*%
%ADD43R,1.5500X2.2500*%
%ADD44R,1.0000X3.4000*%
%ADD45R,10.7000X8.6000*%
%ADD46R,1.5240X1.5240*%
%ADD47R,1.8000X1.3400*%
%ADD48R,1.4000X1.2000*%
%TA.AperFunction,ConnectorPad*%
%ADD49R,0.9800X0.9200*%
%TA.AperFunction,SMDPad,CuDef*%
%ADD50R,3.6800X1.2700*%
%ADD51R,1.4500X1.1000*%
%ADD52R,1.2700X3.1750*%
%ADD53R,1.5600X0.6200*%
%ADD54R,1.1500X1.1500*%
%ADD55R,0.8000X1.2000*%
%ADD56R,0.9700X1.0000*%
%ADD57R,1.0800X1.0900*%
%ADD58R,0.5700X2.0200*%
%TA.AperFunction,ComponentPad*%
%ADD68O,4.1910X2.0955*%
%ADD69C,4.1148*%
%ADD70C,1.6050*%
%ADD71R,1.6050X1.6050*%
%ADD72C,1.1400*%
%ADD73R,1.1400X1.1400*%
%ADD74O,3.0480X1.5240*%
%ADD75R,2.0550X2.0550*%
%ADD76C,2.0550*%
%ADD77C,1.9500*%
%ADD78R,1.9500X1.9500*%
%ADD79C,1.8034*%
%ADD80C,2.3114*%
%ADD81C,4.0894*%
%ADD82R,1.4986X1.4986*%
%ADD83C,1.4986*%
%ADD84R,2.0550X2.0550*%
%ADD85C,3.5000*%
%ADD86C,1.7700*%
%ADD87C,1.5600*%
%ADD88R,1.1000X1.1000*%
%ADD89R,1.5600X1.5600*%
%ADD90C,3.3460*%
%ADD91C,1.4280*%
%ADD92R,1.4280X1.4280*%
%ADD93C,1.1000*%
%ADD94R,1.7700X1.7700*%
D10*
X1191650Y876300D02*
D03*
X1162050Y876300D02*
D03*
X314130Y276860D02*
D03*
X343730D02*
D03*
X314130Y764540D02*
D03*
X343730D02*
D03*
X618930Y276860D02*
D03*
X648530D02*
D03*
X616340Y764540D02*
D03*
X645940Y764540D02*
D03*
X574480Y1019810D02*
D03*
X604080D02*
D03*
X727270Y925830D02*
D03*
X697670D02*
D03*
X727270Y900430D02*
D03*
X697670D02*
D03*
Y801370D02*
D03*
X727270D02*
D03*
X632020Y873760D02*
D03*
X602420D02*
D03*
X727270Y826770D02*
D03*
X697670D02*
D03*
X632020Y848360D02*
D03*
X602420D02*
D03*
X1421960Y419210D02*
D03*
X1392360D02*
D03*
X1531044Y758190D02*
D03*
X1560644D02*
D03*
X1531044Y798830D02*
D03*
X1560644D02*
D03*
X1531044Y839470D02*
D03*
X1560644D02*
D03*
X1557664Y1004570D02*
D03*
X1528064D02*
D03*
X1558104Y963930D02*
D03*
X1528504D02*
D03*
X1559374Y923290D02*
D03*
X1529774D02*
D03*
X1396864Y976630D02*
D03*
X1426464D02*
D03*
X1396864Y840740D02*
D03*
X1426464D02*
D03*
X1396864Y800100D02*
D03*
X1426464D02*
D03*
X1396424Y759460D02*
D03*
X1426024D02*
D03*
X1161610Y811530D02*
D03*
X1132010D02*
D03*
X1161610Y787400D02*
D03*
X1132010D02*
D03*
X1485070Y1104900D02*
D03*
X1514670D02*
D03*
Y1079500D02*
D03*
X1485070D02*
D03*
X1309810Y1097280D02*
D03*
X1339410D02*
D03*
X1271250Y419210D02*
D03*
X1300850D02*
D03*
X643060Y1148080D02*
D03*
X672660D02*
D03*
X589720D02*
D03*
X619320D02*
D03*
X772990Y951230D02*
D03*
X743390D02*
D03*
X1575630Y603250D02*
D03*
X1546030D02*
D03*
X1043110Y745490D02*
D03*
X1072710D02*
D03*
D11*
X1092200Y813240D02*
D03*
Y842840D02*
D03*
X979170Y748420D02*
D03*
Y718820D02*
D03*
X604520Y968180D02*
D03*
Y997780D02*
D03*
Y791650D02*
D03*
Y821250D02*
D03*
Y895790D02*
D03*
Y925390D02*
D03*
X979170Y345880D02*
D03*
Y375480D02*
D03*
Y499940D02*
D03*
Y470340D02*
D03*
Y623130D02*
D03*
Y593530D02*
D03*
X1385890Y865310D02*
D03*
Y894910D02*
D03*
Y943170D02*
D03*
X1385890Y913570D02*
D03*
X1303340Y762440D02*
D03*
Y792040D02*
D03*
X1005840Y719260D02*
D03*
Y748860D02*
D03*
X1366060Y445440D02*
D03*
Y415840D02*
D03*
X1326690Y445440D02*
D03*
Y415840D02*
D03*
X1027430Y926270D02*
D03*
Y955870D02*
D03*
X365760Y872930D02*
D03*
Y902530D02*
D03*
Y996120D02*
D03*
Y1025720D02*
D03*
Y923730D02*
D03*
Y953330D02*
D03*
Y1046920D02*
D03*
Y1076520D02*
D03*
X1104900Y906340D02*
D03*
Y876740D02*
D03*
X952500Y926270D02*
D03*
Y955870D02*
D03*
X1303340Y810700D02*
D03*
Y840300D02*
D03*
D12*
X817880Y698730D02*
D03*
Y746530D02*
D03*
X1018540Y580160D02*
D03*
Y532360D02*
D03*
Y454430D02*
D03*
Y406630D02*
D03*
X815340Y341400D02*
D03*
Y293600D02*
D03*
X1226820Y840970D02*
D03*
Y888770D02*
D03*
D13*
X652490Y717550D02*
D03*
X584490D02*
D03*
X282230Y323850D02*
D03*
X350230D02*
D03*
X454370Y717550D02*
D03*
X386370D02*
D03*
X454370Y323850D02*
D03*
X386370D02*
D03*
X350230Y717550D02*
D03*
X282230D02*
D03*
X756870D02*
D03*
X688870D02*
D03*
X585760Y323850D02*
D03*
X653760D02*
D03*
X689900D02*
D03*
X757900D02*
D03*
X595920Y1080770D02*
D03*
X663920D02*
D03*
D14*
X597250Y763270D02*
D03*
X579250D02*
D03*
X599550Y278130D02*
D03*
X581550D02*
D03*
X278020D02*
D03*
X296020D02*
D03*
X278020Y763270D02*
D03*
X296020D02*
D03*
X772270Y976630D02*
D03*
X1338690Y1121410D02*
D03*
X754270Y976630D02*
D03*
X1320690Y1121410D02*
D03*
D15*
X542290Y831980D02*
D03*
Y816480D02*
D03*
Y882780D02*
D03*
Y867280D02*
D03*
Y974220D02*
D03*
Y958720D02*
D03*
X746760Y920880D02*
D03*
Y905380D02*
D03*
X542290Y906650D02*
D03*
Y922150D02*
D03*
X746760Y821820D02*
D03*
Y806320D02*
D03*
X980440Y693550D02*
D03*
Y678050D02*
D03*
Y320170D02*
D03*
Y304670D02*
D03*
X854710Y298320D02*
D03*
Y313820D02*
D03*
X980440Y429130D02*
D03*
Y444630D02*
D03*
Y570360D02*
D03*
Y554860D02*
D03*
X854710Y689870D02*
D03*
Y674370D02*
D03*
Y547240D02*
D03*
Y562740D02*
D03*
Y439550D02*
D03*
Y424050D02*
D03*
X490220Y1051690D02*
D03*
Y1036190D02*
D03*
Y928500D02*
D03*
Y913000D02*
D03*
X1228090Y731390D02*
D03*
Y746890D02*
D03*
X1214120Y692280D02*
D03*
Y676780D02*
D03*
X1250950Y692020D02*
D03*
Y707520D02*
D03*
X1234440Y692020D02*
D03*
Y707520D02*
D03*
X1054100Y926970D02*
D03*
Y942470D02*
D03*
X1389380Y710060D02*
D03*
Y694560D02*
D03*
X1026160Y749430D02*
D03*
Y733930D02*
D03*
X904240Y900560D02*
D03*
Y885060D02*
D03*
X1334770Y692020D02*
D03*
Y707520D02*
D03*
X1521460Y612010D02*
D03*
Y627510D02*
D03*
X1410970Y305940D02*
D03*
Y321440D02*
D03*
X1059180Y321180D02*
D03*
Y336680D02*
D03*
X1540510Y1122420D02*
D03*
Y1137920D02*
D03*
X1466850Y1108840D02*
D03*
Y1093340D02*
D03*
X1447800Y1108840D02*
D03*
Y1093340D02*
D03*
X1574800Y495430D02*
D03*
Y479930D02*
D03*
X1207770Y655450D02*
D03*
Y639950D02*
D03*
D16*
X561900Y980590D02*
D03*
Y974090D02*
D03*
Y967590D02*
D03*
X581100D02*
D03*
Y980590D02*
D03*
X561900Y929790D02*
D03*
X581100Y916790D02*
D03*
Y929790D02*
D03*
X561900Y916790D02*
D03*
Y923290D02*
D03*
X581810Y889300D02*
D03*
Y876300D02*
D03*
X562610D02*
D03*
Y882800D02*
D03*
Y889300D02*
D03*
X581100Y838350D02*
D03*
Y825350D02*
D03*
X561900D02*
D03*
Y831850D02*
D03*
Y838350D02*
D03*
D17*
X581790Y948690D02*
D03*
X566290D02*
D03*
X581790Y998220D02*
D03*
X566290D02*
D03*
X581790Y857250D02*
D03*
X566290D02*
D03*
X644020Y788670D02*
D03*
X628520D02*
D03*
X940940Y368300D02*
D03*
X956440D02*
D03*
Y741680D02*
D03*
X940940D02*
D03*
X940940Y617220D02*
D03*
X956440D02*
D03*
X939800Y492760D02*
D03*
X955300D02*
D03*
X1501010Y353060D02*
D03*
X1516510D02*
D03*
X1543434Y869950D02*
D03*
X1527934D02*
D03*
X1547244Y778510D02*
D03*
X1531744D02*
D03*
X1547244Y902970D02*
D03*
X1531744D02*
D03*
X1531744Y819150D02*
D03*
X1547244D02*
D03*
X1409694Y956310D02*
D03*
X1425194D02*
D03*
X1409694Y820420D02*
D03*
X1425194D02*
D03*
X1544704Y984250D02*
D03*
X1529204D02*
D03*
X1547244Y737870D02*
D03*
X1531744D02*
D03*
X1409694Y739140D02*
D03*
X1425194D02*
D03*
X1545974Y943610D02*
D03*
X1530474D02*
D03*
X1527934Y706120D02*
D03*
X1543434Y706120D02*
D03*
X1409694Y779780D02*
D03*
X1425194D02*
D03*
X1450210Y754380D02*
D03*
X1465710Y754380D02*
D03*
X1451740Y918210D02*
D03*
X1436240D02*
D03*
X915540Y925830D02*
D03*
X931040D02*
D03*
X956440Y758190D02*
D03*
X940940D02*
D03*
X1184780Y506730D02*
D03*
X1200280D02*
D03*
X1377820Y485140D02*
D03*
X1393320D02*
D03*
X1088520Y927100D02*
D03*
X1073020D02*
D03*
X977770Y923290D02*
D03*
X993270D02*
D03*
X1191390Y899160D02*
D03*
X1175890D02*
D03*
X1370460Y716280D02*
D03*
X1354960D02*
D03*
X1431420Y387350D02*
D03*
X1415920D02*
D03*
X1576200Y706120D02*
D03*
X1560700D02*
D03*
X1182240Y675640D02*
D03*
X1197740D02*
D03*
X1200280Y523240D02*
D03*
X1361440Y485140D02*
D03*
X1431420Y353060D02*
D03*
X1415920D02*
D03*
X1345940Y485140D02*
D03*
X1184780Y523240D02*
D03*
X1330830Y1068070D02*
D03*
X1346330D02*
D03*
X1414650Y643890D02*
D03*
X1430150D02*
D03*
D18*
X655320Y847850D02*
D03*
Y879350D02*
D03*
X629920Y965960D02*
D03*
Y997460D02*
D03*
D19*
X671740Y910750D02*
D03*
Y915750D02*
D03*
X671740Y920750D02*
D03*
X671740Y925750D02*
D03*
Y930750D02*
D03*
X628740D02*
D03*
Y925750D02*
D03*
X628740Y920750D02*
D03*
X628740Y915750D02*
D03*
Y910750D02*
D03*
X671650Y811610D02*
D03*
Y806610D02*
D03*
X628650D02*
D03*
Y811610D02*
D03*
Y816610D02*
D03*
Y821610D02*
D03*
Y826610D02*
D03*
X671650D02*
D03*
Y821610D02*
D03*
Y816610D02*
D03*
D20*
X1235710Y1108210D02*
D03*
X1252710D02*
D03*
X1269710D02*
D03*
X1201710D02*
D03*
X1218710D02*
D03*
D21*
X1235710Y1215710D02*
D03*
D22*
X901670Y1002030D02*
D03*
X802670D02*
D03*
D23*
X1368690Y694690D02*
D03*
X1354190D02*
D03*
D24*
X1338580Y1243040D02*
D03*
Y1175040D02*
D03*
X732790Y1071590D02*
D03*
Y1003590D02*
D03*
D25*
X740410Y1118180D02*
D03*
D26*
Y1209680D02*
D03*
D27*
X1104900Y1132050D02*
D03*
Y1192050D02*
D03*
X988060Y1201420D02*
D03*
Y1125420D02*
D03*
X1104900Y1055270D02*
D03*
Y979270D02*
D03*
X988060Y988540D02*
D03*
Y1048540D02*
D03*
D28*
X1235710Y1051530D02*
D03*
Y952530D02*
D03*
D29*
X326390Y1062460D02*
D03*
Y1027960D02*
D03*
Y1150090D02*
D03*
Y1115590D02*
D03*
X353060Y1150090D02*
D03*
Y1115590D02*
D03*
X326390Y935460D02*
D03*
Y900960D02*
D03*
D30*
X1509014Y901700D02*
D03*
X1452626D02*
D03*
X1509014Y843280D02*
D03*
Y849630D02*
D03*
Y856234D02*
D03*
Y862838D02*
D03*
Y869188D02*
D03*
Y875792D02*
D03*
Y882142D02*
D03*
Y888746D02*
D03*
Y895350D02*
D03*
X1452626D02*
D03*
Y888746D02*
D03*
Y882142D02*
D03*
Y875792D02*
D03*
Y869188D02*
D03*
Y862838D02*
D03*
Y856234D02*
D03*
Y849630D02*
D03*
Y843280D02*
D03*
X1509014Y738124D02*
D03*
X1452626D02*
D03*
Y679704D02*
D03*
Y686054D02*
D03*
X1452626Y692658D02*
D03*
X1452626Y699262D02*
D03*
Y705612D02*
D03*
Y712216D02*
D03*
Y718566D02*
D03*
Y725170D02*
D03*
Y731774D02*
D03*
X1509014D02*
D03*
Y725170D02*
D03*
Y718566D02*
D03*
Y712216D02*
D03*
Y705612D02*
D03*
Y699262D02*
D03*
X1509014Y692658D02*
D03*
X1509014Y686054D02*
D03*
Y679704D02*
D03*
D31*
X1453896Y772160D02*
D03*
X1453896Y784860D02*
D03*
X1453896Y797560D02*
D03*
Y810260D02*
D03*
X1503172Y810260D02*
D03*
Y797560D02*
D03*
Y784860D02*
D03*
Y772160D02*
D03*
X1453896Y934720D02*
D03*
Y947420D02*
D03*
X1453896Y960120D02*
D03*
X1453896Y972820D02*
D03*
X1503172D02*
D03*
X1503172Y960120D02*
D03*
Y947420D02*
D03*
Y934720D02*
D03*
D32*
X1235110Y644200D02*
D03*
Y639200D02*
D03*
Y634200D02*
D03*
Y629200D02*
D03*
Y619200D02*
D03*
Y614200D02*
D03*
Y609200D02*
D03*
Y604200D02*
D03*
Y599200D02*
D03*
Y594200D02*
D03*
Y589200D02*
D03*
Y584200D02*
D03*
Y579200D02*
D03*
Y574200D02*
D03*
Y569200D02*
D03*
Y564200D02*
D03*
Y559200D02*
D03*
Y554200D02*
D03*
Y549200D02*
D03*
Y544200D02*
D03*
Y539200D02*
D03*
Y529200D02*
D03*
Y524200D02*
D03*
X1388710D02*
D03*
Y529200D02*
D03*
Y534200D02*
D03*
Y539200D02*
D03*
Y544200D02*
D03*
Y549200D02*
D03*
Y554200D02*
D03*
Y559200D02*
D03*
Y564200D02*
D03*
Y569200D02*
D03*
Y574200D02*
D03*
Y579200D02*
D03*
Y584200D02*
D03*
Y589200D02*
D03*
Y594200D02*
D03*
Y599200D02*
D03*
Y604200D02*
D03*
Y609200D02*
D03*
Y619200D02*
D03*
Y624200D02*
D03*
Y629200D02*
D03*
Y634200D02*
D03*
Y639200D02*
D03*
Y644200D02*
D03*
X1235110Y624200D02*
D03*
X1388710Y614200D02*
D03*
X1235110Y534200D02*
D03*
D33*
X1371910Y661000D02*
D03*
X1366910D02*
D03*
X1361910D02*
D03*
X1356910D02*
D03*
X1351910D02*
D03*
X1346910D02*
D03*
X1341910D02*
D03*
X1336910D02*
D03*
X1331910D02*
D03*
X1326910D02*
D03*
X1321910D02*
D03*
X1316910D02*
D03*
X1311910D02*
D03*
X1306910D02*
D03*
X1301910D02*
D03*
X1296910D02*
D03*
X1291910D02*
D03*
X1286910D02*
D03*
X1281910D02*
D03*
X1266910D02*
D03*
X1261910D02*
D03*
X1256910D02*
D03*
X1251910D02*
D03*
Y507400D02*
D03*
X1256910D02*
D03*
X1271910D02*
D03*
X1276910D02*
D03*
X1281910D02*
D03*
X1286910D02*
D03*
X1291910D02*
D03*
X1296910D02*
D03*
X1301910D02*
D03*
X1306910D02*
D03*
X1311910D02*
D03*
X1316910D02*
D03*
X1321910D02*
D03*
X1326910D02*
D03*
X1331910D02*
D03*
X1336910D02*
D03*
X1341910D02*
D03*
X1346910D02*
D03*
X1351910D02*
D03*
X1356910D02*
D03*
X1366910D02*
D03*
X1371910D02*
D03*
X1271910Y661000D02*
D03*
X1276910D02*
D03*
X1261910Y507400D02*
D03*
X1266910D02*
D03*
X1361910D02*
D03*
D34*
X1186180Y300450D02*
D03*
X1211580D02*
D03*
X1236980D02*
D03*
D35*
X1431020Y369570D02*
D03*
X1416320D02*
D03*
X1182640Y692150D02*
D03*
X1197340D02*
D03*
D36*
X1579880Y680550D02*
D03*
X1567180D02*
D03*
X1554480D02*
D03*
X1541780D02*
D03*
Y627550D02*
D03*
X1554480D02*
D03*
X1567180D02*
D03*
X1579880D02*
D03*
D37*
X1066800Y783590D02*
D03*
X1054100Y900590D02*
D03*
X1041400D02*
D03*
X1028700Y900590D02*
D03*
X1003300D02*
D03*
X977900Y900590D02*
D03*
X965200Y900590D02*
D03*
X927100Y900590D02*
D03*
X1028700Y783590D02*
D03*
X1016000Y783590D02*
D03*
X1003300Y783590D02*
D03*
X990600Y783590D02*
D03*
X977900D02*
D03*
X965200Y783590D02*
D03*
X952500D02*
D03*
X939800D02*
D03*
X927100Y783590D02*
D03*
X939800Y900590D02*
D03*
X952500Y900590D02*
D03*
X990600D02*
D03*
X1016000D02*
D03*
X1054100Y783590D02*
D03*
X1041400Y783590D02*
D03*
D38*
X1066800Y900590D02*
D03*
D39*
X1471270Y377390D02*
D03*
X1461770Y377390D02*
D03*
X1452270Y377390D02*
D03*
Y402390D02*
D03*
X1461770Y402390D02*
D03*
X1471270Y402390D02*
D03*
D40*
X1140710Y758140D02*
D03*
X1203710D02*
D03*
Y720140D02*
D03*
X1140710D02*
D03*
D41*
X808990Y777090D02*
D03*
X815490D02*
D03*
X821990D02*
D03*
Y796290D02*
D03*
X808990D02*
D03*
X869800Y768350D02*
D03*
X882800D02*
D03*
Y749150D02*
D03*
X876300Y749150D02*
D03*
X869800Y749150D02*
D03*
X900280Y768350D02*
D03*
X913280Y768350D02*
D03*
X913280Y749150D02*
D03*
X906780Y749150D02*
D03*
X900280Y749150D02*
D03*
X839470Y796290D02*
D03*
X852470Y796290D02*
D03*
Y777090D02*
D03*
X845970Y777090D02*
D03*
X839470D02*
D03*
D42*
X977900Y844550D02*
D03*
Y866140D02*
D03*
D43*
X1577340Y1051880D02*
D03*
Y1091880D02*
D03*
X1543050Y1051880D02*
D03*
Y1091880D02*
D03*
X1134110Y916620D02*
D03*
Y876620D02*
D03*
D44*
X859790Y1106850D02*
D03*
X876790D02*
D03*
X893790D02*
D03*
X825790D02*
D03*
X842790D02*
D03*
D45*
X859790Y1212850D02*
D03*
D46*
X1733550Y878840D02*
D03*
X1755140Y878840D02*
D03*
X1733550Y855980D02*
D03*
X1755140Y855980D02*
D03*
X1733550Y833120D02*
D03*
X1755140D02*
D03*
D47*
X1412240Y867080D02*
D03*
X1412240Y895680D02*
D03*
X1276670Y764210D02*
D03*
X1276670Y792810D02*
D03*
D48*
X1312750Y709540D02*
D03*
X1290750D02*
D03*
Y692540D02*
D03*
X1312750D02*
D03*
D49*
X1268730Y707520D02*
D03*
Y692020D02*
D03*
D50*
X1534160Y469900D02*
D03*
X1484660Y469900D02*
D03*
X1534160Y495300D02*
D03*
X1484660D02*
D03*
X1534160Y520700D02*
D03*
X1484660D02*
D03*
X1534160Y546100D02*
D03*
X1484660D02*
D03*
X1534160Y571500D02*
D03*
X1484660Y571500D02*
D03*
D51*
X1301290Y392541D02*
D03*
X1326691Y392650D02*
D03*
X1366520Y392649D02*
D03*
X1393190Y392650D02*
D03*
X1326691Y374650D02*
D03*
X1301290Y374540D02*
D03*
X1366520Y374650D02*
D03*
X1393190Y374650D02*
D03*
D52*
X1306830Y330700D02*
D03*
X1332230D02*
D03*
X1357630D02*
D03*
X1383030D02*
D03*
D53*
X1005710Y302260D02*
D03*
Y289560D02*
D03*
Y276860D02*
D03*
Y264160D02*
D03*
X1059310D02*
D03*
Y276860D02*
D03*
Y289560D02*
D03*
Y302260D02*
D03*
D54*
X1199200Y542290D02*
D03*
X1175700D02*
D03*
Y562610D02*
D03*
X1199200D02*
D03*
X1438910Y595630D02*
D03*
X1415410D02*
D03*
X1415410Y617220D02*
D03*
X1438910Y617220D02*
D03*
D55*
X1344990Y976630D02*
D03*
X1316990D02*
D03*
D56*
X1344930Y1017000D02*
D03*
Y1002300D02*
D03*
D57*
X1345440Y1041400D02*
D03*
X1313940Y1041400D02*
D03*
D58*
X1466850Y1138110D02*
D03*
X1479550D02*
D03*
X1492250D02*
D03*
X1504950D02*
D03*
Y1231710D02*
D03*
X1492250D02*
D03*
X1479550D02*
D03*
X1466850D02*
D03*
D68*
X281940Y492760D02*
D03*
X281940Y438150D02*
D03*
X281940Y383540D02*
D03*
X585470Y603504D02*
D03*
Y548894D02*
D03*
Y658114D02*
D03*
X281940Y601980D02*
D03*
Y547370D02*
D03*
Y656590D02*
D03*
X585470Y438150D02*
D03*
Y383540D02*
D03*
Y492760D02*
D03*
D69*
X485140Y438150D02*
D03*
X788670Y603504D02*
D03*
X485140Y601980D02*
D03*
X788670Y438150D02*
D03*
D70*
X515620Y980440D02*
D03*
Y955040D02*
D03*
Y889000D02*
D03*
Y863600D02*
D03*
D71*
Y929640D02*
D03*
Y838200D02*
D03*
D72*
X956310Y568960D02*
D03*
Y543560D02*
D03*
Y518160D02*
D03*
X876910Y543560D02*
D03*
Y518160D02*
D03*
Y568960D02*
D03*
X956310Y594360D02*
D03*
X956640Y320040D02*
D03*
Y294640D02*
D03*
Y269240D02*
D03*
X877240D02*
D03*
Y320040D02*
D03*
Y294640D02*
D03*
X956640Y345440D02*
D03*
Y642620D02*
D03*
Y668020D02*
D03*
Y693420D02*
D03*
X877240Y642620D02*
D03*
Y693420D02*
D03*
Y668020D02*
D03*
X956640Y718820D02*
D03*
X955370Y393700D02*
D03*
Y419100D02*
D03*
Y444500D02*
D03*
X875970Y393700D02*
D03*
X955370Y469900D02*
D03*
X875970Y444500D02*
D03*
Y419100D02*
D03*
D73*
X876910Y594360D02*
D03*
X877240Y345440D02*
D03*
Y718820D02*
D03*
X875970Y469900D02*
D03*
D74*
X1345250Y760730D02*
D03*
Y786130D02*
D03*
X1345250Y811530D02*
D03*
X1345250Y925830D02*
D03*
Y900430D02*
D03*
X1345250Y875030D02*
D03*
D75*
X350520Y1224280D02*
D03*
D76*
X375870D02*
D03*
X401220D02*
D03*
X287020Y951180D02*
D03*
Y925830D02*
D03*
X285750Y1175986D02*
D03*
Y1054083D02*
D03*
Y1079434D02*
D03*
Y1201337D02*
D03*
D77*
X514350Y1235710D02*
D03*
D78*
X609650D02*
D03*
D79*
X1701038Y878586D02*
D03*
Y618490D02*
D03*
X1676146Y878586D02*
D03*
X1651000D02*
D03*
X1626108D02*
D03*
X1701038Y843534D02*
D03*
Y793496D02*
D03*
X1676146D02*
D03*
X1651000D02*
D03*
Y618490D02*
D03*
X1676146D02*
D03*
X1701038Y643382D02*
D03*
Y668528D02*
D03*
Y693420D02*
D03*
Y718566D02*
D03*
Y743458D02*
D03*
X1626108Y768604D02*
D03*
X1676146D02*
D03*
X1701038D02*
D03*
X1626108Y793496D02*
D03*
X1651000Y818388D02*
D03*
X1626108Y843534D02*
D03*
X1651000D02*
D03*
X1626108Y618490D02*
D03*
Y818388D02*
D03*
Y643382D02*
D03*
X1651000D02*
D03*
X1676146D02*
D03*
X1626108Y668528D02*
D03*
X1651000D02*
D03*
X1676146D02*
D03*
X1626108Y693420D02*
D03*
X1651000D02*
D03*
X1676146D02*
D03*
X1626108Y718566D02*
D03*
X1651000D02*
D03*
X1676146D02*
D03*
X1626108Y743458D02*
D03*
X1651000D02*
D03*
X1676146D02*
D03*
X1651000Y768604D02*
D03*
X1676146Y818388D02*
D03*
X1701038D02*
D03*
X1676146Y843534D02*
D03*
X1626108Y915416D02*
D03*
X1651000D02*
D03*
X1676146D02*
D03*
X1701038D02*
D03*
D80*
X1616202Y553974D02*
D03*
Y979932D02*
D03*
D81*
X1654556Y513080D02*
D03*
Y1021080D02*
D03*
D82*
X394970Y1102360D02*
D03*
Y979170D02*
D03*
D83*
Y1076960D02*
D03*
Y1051560D02*
D03*
Y1026160D02*
D03*
X471170D02*
D03*
Y1051560D02*
D03*
Y1076960D02*
D03*
Y1102360D02*
D03*
Y979170D02*
D03*
Y953770D02*
D03*
Y928370D02*
D03*
Y902970D02*
D03*
X394970D02*
D03*
Y928370D02*
D03*
Y953770D02*
D03*
D84*
X287020Y900480D02*
D03*
X285750Y1150637D02*
D03*
Y1028733D02*
D03*
D85*
X454680Y1148190D02*
D03*
X495280D02*
D03*
X403880D02*
D03*
X546080D02*
D03*
D86*
X1154430Y840740D02*
D03*
X1177230D02*
D03*
D87*
X1357630Y275590D02*
D03*
X1332230D02*
D03*
X1383030D02*
D03*
D88*
X533400Y1099420D02*
D03*
D89*
X1306830Y275590D02*
D03*
D90*
X1563370Y276066D02*
D03*
X1442970D02*
D03*
D91*
X1515670Y303165D02*
D03*
X1490670D02*
D03*
Y323166D02*
D03*
D92*
X1515670D02*
D03*
D93*
X533400Y1049420D02*
D03*
D94*
X1131630Y840740D02*
D03*
%TF.MD5,33a1809b011b034e648141616ea8cc36*%
M02*
