%TF.GenerationSoftware,Altium Limited,Altium Designer,22.2.1 (43)*%
G04 Layer_Color=32768*
%FSLAX44Y44*%
%MOMM*%
%TF.SameCoordinates,0AFF7D02-74C0-442A-A7DB-72135CCE8720*%
%TF.FilePolarity,Positive*%
%TF.FileFunction,Other,Mechanical_15*%
%TF.Part,Single*%
G01*
G75*
%TA.AperFunction,NonConductor*%
%ADD160C,0.0500*%
D160*
X568030Y1074420D02*
G03*
X568030Y1074420I-34630J0D01*
G01*
X1482800Y671550D02*
X1527100D01*
X1482800Y649250D02*
X1527100D01*
X1482800D02*
Y671550D01*
X1527100D02*
X1527100Y649250D01*
X1482800Y738860D02*
X1527100D01*
X1482800Y716560D02*
X1527100D01*
X1482800D02*
Y738860D01*
X1527100D02*
X1527100Y716560D01*
X1482800Y768070D02*
X1527100D01*
X1482800Y745770D02*
X1527100D01*
X1482800D02*
Y768070D01*
X1527100Y745770D02*
Y768070D01*
X1527100Y813080D02*
X1527100Y835380D01*
X1482800Y813080D02*
Y835380D01*
Y813080D02*
X1527100D01*
X1482800Y835380D02*
X1527100D01*
X1527100Y842290D02*
X1527100Y864590D01*
X1482800Y842290D02*
Y864590D01*
Y842290D02*
X1527100Y842290D01*
X1482800Y864590D02*
X1527100D01*
X1482800Y931900D02*
X1527100D01*
X1482800Y909600D02*
X1527100Y909600D01*
X1482800Y909600D02*
Y931900D01*
X1527100Y909600D02*
X1527100Y931900D01*
X1482800Y1028420D02*
X1527100D01*
X1482800Y1006120D02*
X1527100D01*
X1482800D02*
Y1028420D01*
X1527100Y1006120D02*
Y1028420D01*
X1154700Y887450D02*
X1199000D01*
X1154700Y865150D02*
X1199000D01*
Y887450D01*
X1154700Y865150D02*
Y887450D01*
X1103350Y805890D02*
Y850190D01*
X1081050Y805890D02*
Y850190D01*
Y805890D02*
X1103350D01*
X1081050Y850190D02*
X1103350D01*
X836960Y684050D02*
Y761210D01*
X798800Y684050D02*
Y761210D01*
Y684050D02*
X836960D01*
X798800Y761210D02*
X836960D01*
X968020Y755770D02*
X968020Y711470D01*
X990320D02*
X990320Y755770D01*
X968020D02*
X990320D01*
X968020Y711470D02*
X990320D01*
X571990Y685550D02*
X664990D01*
X571990D02*
Y749550D01*
X664990D01*
Y685550D02*
Y749550D01*
X306780Y265710D02*
Y288010D01*
X351080Y265710D02*
Y288010D01*
X306780Y265710D02*
X351080D01*
X306780Y288010D02*
X351080D01*
X306780Y753390D02*
Y775690D01*
X351080Y753390D02*
Y775690D01*
X306780Y753390D02*
X351080D01*
X306780Y775690D02*
X351080D01*
X611580Y288010D02*
X655880D01*
X611580Y265710D02*
X655880D01*
Y288010D01*
X611580Y265710D02*
Y288010D01*
X608990Y753390D02*
Y775690D01*
X653290Y753390D02*
Y775690D01*
X608990Y753390D02*
X653290D01*
X608990Y775690D02*
X653290D01*
X605250Y753270D02*
Y773270D01*
X571250Y753270D02*
Y773270D01*
Y753270D02*
X605250D01*
X571250Y773270D02*
X605250D01*
X573550Y288130D02*
X607550D01*
X573550Y268130D02*
X607550D01*
X573550D02*
Y288130D01*
X607550Y268130D02*
Y288130D01*
X304020Y268130D02*
Y288130D01*
X270020Y268130D02*
Y288130D01*
Y268130D02*
X304020D01*
X270020Y288130D02*
X304020D01*
X270020Y773270D02*
X304020D01*
X270020Y753270D02*
X304020D01*
X270020D02*
Y773270D01*
X304020Y753270D02*
Y773270D01*
X269730Y291850D02*
X362730D01*
X269730D02*
Y355850D01*
X362730D01*
Y291850D02*
Y355850D01*
X373870Y749550D02*
X466870D01*
Y685550D02*
Y749550D01*
X373870Y685550D02*
X466870D01*
X373870D02*
Y749550D01*
Y355850D02*
X466870D01*
Y291850D02*
Y355850D01*
X373870Y291850D02*
X466870D01*
X373870D02*
Y355850D01*
X269730Y685550D02*
X362730D01*
X269730D02*
Y749550D01*
X362730D01*
Y685550D02*
Y749550D01*
X676370Y685550D02*
Y749550D01*
Y685550D02*
X769370D01*
Y749550D01*
X676370D02*
X769370D01*
X666260Y291850D02*
Y355850D01*
X573260D02*
X666260D01*
X573260Y291850D02*
Y355850D01*
Y291850D02*
X666260D01*
X677400D02*
Y355850D01*
Y291850D02*
X770400D01*
Y355850D01*
X677400D02*
X770400D01*
X534890Y839080D02*
X549690D01*
X534890Y809380D02*
X549690D01*
X534890D02*
Y839080D01*
X549690Y809380D02*
Y839080D01*
X534890Y889880D02*
X549690D01*
X534890Y860180D02*
X549690D01*
X534890D02*
Y889880D01*
X549690Y860180D02*
Y889880D01*
X534890Y981320D02*
X549690D01*
X534890Y951620D02*
X549690D01*
X534890D02*
Y981320D01*
X549690Y951620D02*
Y981320D01*
X553400Y960790D02*
Y987390D01*
X589600D01*
Y960790D02*
Y987390D01*
X553400Y960790D02*
X589600D01*
X559190Y941290D02*
X588890D01*
X559190Y956090D02*
X588890D01*
X559190Y941290D02*
Y956090D01*
X588890Y941290D02*
Y956090D01*
X553400Y909990D02*
X589600D01*
Y936590D01*
X553400D02*
X589600D01*
X553400Y909990D02*
Y936590D01*
X554110Y869500D02*
X590310D01*
Y896100D01*
X554110D02*
X590310D01*
X554110Y869500D02*
Y896100D01*
X666820Y839950D02*
Y887250D01*
X643820Y839950D02*
X666820D01*
X643820D02*
Y887250D01*
X666820D01*
X739360Y898280D02*
X754160D01*
X739360Y927980D02*
X754160Y927980D01*
Y898280D02*
Y927980D01*
X739360Y898280D02*
X739360Y927980D01*
X611430Y1008660D02*
Y1030960D01*
X567130Y1008660D02*
Y1030960D01*
X611430D01*
X567130Y1008660D02*
X611430D01*
X593370Y1005130D02*
X615670D01*
X593370Y960830D02*
X615670D01*
X593370D02*
Y1005130D01*
X615670Y960830D02*
Y1005130D01*
X690320Y914680D02*
X690320Y936980D01*
X734620D02*
X734620Y914680D01*
X690320D02*
X734620D01*
X690320Y936980D02*
X734620D01*
X690320Y911580D02*
X734620D01*
X690320Y889280D02*
X734620D01*
X734620Y911580D01*
X690320D02*
X690320Y889280D01*
X500420Y914440D02*
X530820D01*
Y995640D01*
X500420D02*
X530820D01*
X500420Y914440D02*
Y995640D01*
Y823000D02*
X530820D01*
Y904200D01*
X500420D02*
X530820D01*
X500420Y823000D02*
Y904200D01*
X641420Y958060D02*
Y1005360D01*
X618420Y958060D02*
X641420D01*
X618420D02*
Y1005360D01*
X641420D01*
X588890Y990820D02*
Y1005620D01*
X559190Y990820D02*
Y1005620D01*
X588890D01*
X559190Y990820D02*
X588890D01*
X553400Y818550D02*
X589600D01*
Y845150D01*
X553400D02*
X589600D01*
X553400Y818550D02*
Y845150D01*
X690320Y790220D02*
Y812520D01*
X734620Y790220D02*
Y812520D01*
X690320Y790220D02*
X734620D01*
X690320Y812520D02*
X734620D01*
X593370Y784300D02*
X615670D01*
X593370Y828600D02*
X615670D01*
Y784300D02*
Y828600D01*
X593370Y784300D02*
Y828600D01*
X639370Y862610D02*
Y884910D01*
X595070Y862610D02*
Y884910D01*
X639370D01*
X595070Y862610D02*
X639370D01*
X690320Y815620D02*
Y837920D01*
X734620Y815620D02*
Y837920D01*
X690320Y815620D02*
X734620D01*
X690320Y837920D02*
X734620D01*
X595070Y837210D02*
X639370D01*
X595070Y859510D02*
X639370D01*
X595070Y837210D02*
Y859510D01*
X639370Y837210D02*
Y859510D01*
X593370Y888440D02*
X615670D01*
X593370Y932740D02*
X615670D01*
Y888440D02*
Y932740D01*
X593370Y888440D02*
Y932740D01*
X534890Y929250D02*
X549690D01*
X534890Y899550D02*
X549690D01*
X534890D02*
Y929250D01*
X549690Y899550D02*
Y929250D01*
X588890Y849850D02*
Y864650D01*
X559190Y849850D02*
Y864650D01*
X588890D01*
X559190Y849850D02*
X588890D01*
X739360Y799220D02*
X754160D01*
X739360Y828920D02*
X754160D01*
Y799220D02*
Y828920D01*
X739360Y799220D02*
Y828920D01*
X621420Y781270D02*
Y796070D01*
X651120Y781270D02*
Y796070D01*
X621420Y781270D02*
X651120D01*
X621420Y796070D02*
X651120D01*
X1385010Y430360D02*
X1429310D01*
X1385010Y408060D02*
X1429310D01*
Y430360D01*
X1385010Y408060D02*
Y430360D01*
X1523694Y747040D02*
Y769340D01*
X1567994Y747040D02*
Y769340D01*
X1523694Y747040D02*
X1567994D01*
X1523694Y769340D02*
X1567994D01*
X1523694Y787680D02*
Y809980D01*
X1567994Y787680D02*
X1567994Y809980D01*
X1523694Y787680D02*
X1567994Y787680D01*
X1523694Y809980D02*
X1567994D01*
X1523694Y828320D02*
Y850620D01*
X1567994Y828320D02*
X1567994Y850620D01*
X1523694Y828320D02*
X1567994Y828320D01*
X1523694Y850620D02*
X1567994D01*
X1520714Y1015720D02*
X1520714Y993420D01*
X1565014D02*
Y1015720D01*
X1520714Y993420D02*
X1565014D01*
X1520714Y1015720D02*
X1565014D01*
X1521154Y975080D02*
X1565454D01*
X1521154Y952780D02*
X1565454D01*
X1565454Y975080D01*
X1521154Y952780D02*
Y975080D01*
X1522424Y934440D02*
X1566724Y934440D01*
X1522424Y912140D02*
X1566724D01*
X1566724Y934440D01*
X1522424Y912140D02*
X1522424Y934440D01*
X973040Y700650D02*
X987840D01*
X973040Y670950D02*
X987840D01*
X973040D02*
Y700650D01*
X987840Y670950D02*
Y700650D01*
X987840Y297570D02*
Y327270D01*
X973040Y297570D02*
Y327270D01*
Y297570D02*
X987840D01*
X973040Y327270D02*
X987840D01*
X968020Y338530D02*
Y382830D01*
X990320Y338530D02*
Y382830D01*
X968020Y382830D02*
X990320Y382830D01*
X968020Y338530D02*
X990320Y338530D01*
X933840Y375700D02*
X963540D01*
X933840Y360900D02*
X963540D01*
Y375700D01*
X933840Y360900D02*
Y375700D01*
X862110Y291220D02*
Y320920D01*
X847310Y291220D02*
Y320920D01*
Y291220D02*
X862110D01*
X847310Y320920D02*
X862110D01*
X987840Y422030D02*
Y451730D01*
X973040Y422030D02*
Y451730D01*
Y422030D02*
X987840D01*
X973040Y451730D02*
X987840D01*
X933840Y734280D02*
Y749080D01*
X963540Y734280D02*
Y749080D01*
X933840Y734280D02*
X963540D01*
X933840Y749080D02*
X963540D01*
X973040Y577460D02*
X987840D01*
X973040Y547760D02*
X987840D01*
X973040D02*
Y577460D01*
X987840Y547760D02*
Y577460D01*
X862110Y667270D02*
Y696970D01*
X847310Y667270D02*
Y696970D01*
Y667270D02*
X862110D01*
X847310Y696970D02*
X862110D01*
X968020Y462990D02*
Y507290D01*
X990320Y462990D02*
Y507290D01*
X968020D02*
X990320D01*
X968020Y462990D02*
X990320D01*
X968020Y586180D02*
Y630480D01*
X990320Y586180D02*
Y630480D01*
X968020D02*
X990320D01*
X968020Y586180D02*
X990320D01*
X868710Y606710D02*
X964510D01*
Y505810D02*
Y606710D01*
X868710Y505810D02*
X964510D01*
X868710D02*
Y606710D01*
X869040Y357790D02*
X964840D01*
Y256890D02*
Y357790D01*
X869040Y256890D02*
X964840D01*
X869040D02*
Y357790D01*
Y630270D02*
Y731170D01*
Y630270D02*
X964840D01*
Y731170D01*
X869040D02*
X964840D01*
X847310Y569840D02*
X862110D01*
X847310Y540140D02*
X862110D01*
X847310D02*
Y569840D01*
X862110Y540140D02*
Y569840D01*
X933840Y609820D02*
Y624620D01*
X963540Y609820D02*
Y624620D01*
X933840Y609820D02*
X963540D01*
X933840Y624620D02*
X963540D01*
X847310Y446650D02*
X862110D01*
X847310Y416950D02*
X862110D01*
X847310D02*
Y446650D01*
X862110Y416950D02*
Y446650D01*
X932700Y500160D02*
X962400D01*
X932700Y485360D02*
X962400D01*
Y500160D01*
X932700Y485360D02*
Y500160D01*
X867770Y381350D02*
Y482250D01*
Y381350D02*
X963570D01*
Y482250D01*
X867770D02*
X963570D01*
X999460Y517680D02*
Y594840D01*
X1037620Y517680D02*
Y594840D01*
X999460D02*
X1037620D01*
X999460Y517680D02*
X1037620D01*
X1397040Y857960D02*
X1397040Y902260D01*
X1374740Y857960D02*
Y902260D01*
Y857960D02*
X1397040D01*
X1374740Y902260D02*
X1397040D01*
X1397040Y906220D02*
Y950520D01*
X1374740Y906220D02*
X1374740Y950520D01*
X1374740Y906220D02*
X1397040D01*
X1374740Y950520D02*
X1397040Y950520D01*
X1389514Y965480D02*
X1433814D01*
X1389514Y987780D02*
X1433814D01*
X1389514Y965480D02*
X1389514Y987780D01*
X1433814D02*
X1433814Y965480D01*
X1194260Y1086760D02*
X1277160D01*
Y1144180D01*
X1292410D01*
Y1257610D01*
X1179010D02*
X1292410D01*
X1179010Y1144180D02*
Y1257610D01*
Y1144180D02*
X1194260D01*
Y1086760D02*
Y1144180D01*
X1433814Y829590D02*
Y851890D01*
X1389514Y829590D02*
Y851890D01*
X1433814D01*
X1389514Y829590D02*
X1433814D01*
Y788950D02*
Y811250D01*
X1389514Y788950D02*
X1389514Y811250D01*
X1433814Y811250D01*
X1389514Y788950D02*
X1433814D01*
X1433374Y770610D02*
X1433374Y748310D01*
X1389074D02*
Y770610D01*
X1433374Y770610D01*
X1389074Y748310D02*
X1433374D01*
X1314490Y755090D02*
Y799390D01*
X1292190Y755090D02*
Y799390D01*
Y755090D02*
X1314490Y755090D01*
X1292190Y799390D02*
X1314490Y799390D01*
X1347940Y704190D02*
X1374940D01*
Y685190D02*
Y704190D01*
X1347940Y685190D02*
X1374940D01*
X1347940D02*
Y704190D01*
X1124660Y800380D02*
Y822680D01*
X1168960Y800380D02*
Y822680D01*
X1124660Y800380D02*
X1168960D01*
X1124660Y822680D02*
X1168960Y822680D01*
Y776250D02*
Y798550D01*
X1124660Y776250D02*
Y798550D01*
X1168960D01*
X1124660Y776250D02*
X1168960D01*
X994690Y756210D02*
X1016990D01*
X994690Y711910D02*
X1016990D01*
X994690D02*
Y756210D01*
X1016990Y711910D02*
Y756210D01*
X999460Y469110D02*
X1037620D01*
X999460Y391950D02*
X1037620D01*
X999460D02*
Y469110D01*
X1037620Y391950D02*
Y469110D01*
X796260Y356080D02*
X834420D01*
X796260Y278920D02*
X834420D01*
X796260D02*
Y356080D01*
X834420Y278920D02*
Y356080D01*
X1477720Y1093750D02*
Y1116050D01*
X1522020Y1093750D02*
Y1116050D01*
X1477720Y1093750D02*
X1522020D01*
X1477720Y1116050D02*
X1522020D01*
X1477720Y1090650D02*
X1522020D01*
X1477720Y1068350D02*
X1522020D01*
Y1090650D01*
X1477720Y1068350D02*
Y1090650D01*
X1306580Y1162540D02*
Y1255540D01*
X1370580D01*
Y1162540D02*
Y1255540D01*
X1306580Y1162540D02*
X1370580D01*
X1346760Y1086130D02*
Y1108430D01*
X1302460Y1086130D02*
Y1108430D01*
X1346760D01*
X1302460Y1086130D02*
X1346760D01*
X687910Y1106180D02*
Y1266180D01*
X792910D01*
Y1106180D02*
Y1266180D01*
X687910Y1106180D02*
X792910D01*
X1089900Y1106050D02*
Y1118050D01*
X1077150D02*
X1089900D01*
X1060900Y1134300D02*
X1077150Y1118050D01*
X1060900Y1134300D02*
Y1206050D01*
X1089900D01*
Y1218050D01*
X1119900D01*
Y1206050D02*
Y1218050D01*
Y1206050D02*
X1148900D01*
Y1134300D02*
Y1206050D01*
X1132650Y1118050D02*
X1148900Y1134300D01*
X1119900Y1118050D02*
X1132650D01*
X1119900Y1106050D02*
Y1118050D01*
X1089900Y1106050D02*
X1119900D01*
X973060Y1097420D02*
Y1109420D01*
X953310D02*
X973060D01*
X934060Y1128670D02*
X953310Y1109420D01*
X934060Y1128670D02*
Y1217420D01*
X973060D01*
Y1229420D01*
X1003060D01*
Y1217420D02*
Y1229420D01*
Y1217420D02*
X1042060D01*
Y1128670D02*
Y1217420D01*
X1022810Y1109420D02*
X1042060Y1128670D01*
X1003060Y1109420D02*
X1022810D01*
X1003060Y1097420D02*
Y1109420D01*
X973060Y1097420D02*
X1003060D01*
X1089900Y951270D02*
Y963270D01*
X1070150D02*
X1089900D01*
X1050900Y982520D02*
X1070150Y963270D01*
X1050900Y982520D02*
Y1071270D01*
X1089900D01*
Y1083270D01*
X1119900D01*
Y1071270D02*
Y1083270D01*
Y1071270D02*
X1158900D01*
Y982520D02*
Y1071270D01*
X1139650Y963270D02*
X1158900Y982520D01*
X1119900Y963270D02*
X1139650D01*
X1119900Y951270D02*
Y963270D01*
X1089900Y951270D02*
X1119900D01*
X973060Y962540D02*
Y974540D01*
X960310D02*
X973060D01*
X944060Y990790D02*
X960310Y974540D01*
X944060Y990790D02*
Y1062540D01*
X973060D01*
Y1074540D01*
X1003060D01*
Y1062540D02*
Y1074540D01*
Y1062540D02*
X1032060D01*
Y990790D02*
Y1062540D01*
X1015810Y974540D02*
X1032060Y990790D01*
X1003060Y974540D02*
X1015810D01*
X1003060Y962540D02*
Y974540D01*
X973060Y962540D02*
X1003060D01*
X1354910Y408490D02*
Y452790D01*
X1377210Y408490D02*
Y452790D01*
X1354910D02*
X1377210D01*
X1354910Y408490D02*
X1377210D01*
X1315540Y408490D02*
Y452790D01*
X1337840Y408490D02*
Y452790D01*
X1315540D02*
X1337840D01*
X1315540Y408490D02*
X1337840D01*
X1263900Y408060D02*
X1308200D01*
X1263900Y430360D02*
X1308200D01*
X1263900Y408060D02*
Y430360D01*
X1308200Y408060D02*
Y430360D01*
X1493910Y345660D02*
Y360460D01*
X1523610Y345660D02*
Y360460D01*
X1493910Y345660D02*
X1523610D01*
X1493910Y360460D02*
X1523610D01*
X1016280Y918920D02*
X1038580D01*
X1016280Y963220D02*
X1038580D01*
Y918920D02*
Y963220D01*
X1016280Y918920D02*
Y963220D01*
X635710Y1136930D02*
Y1159230D01*
X680010Y1136930D02*
Y1159230D01*
X635710Y1136930D02*
X680010D01*
X635710Y1159230D02*
X680010D01*
X582370Y1136930D02*
Y1159230D01*
X626670Y1136930D02*
Y1159230D01*
X582370Y1136930D02*
X626670D01*
X582370Y1159230D02*
X626670D01*
X376910Y865580D02*
Y909880D01*
X354610Y865580D02*
Y909880D01*
Y865580D02*
X376910D01*
X354610Y909880D02*
X376910D01*
X482820Y1058790D02*
X497620D01*
X482820Y1029090D02*
X497620D01*
X482820D02*
Y1058790D01*
X497620Y1029090D02*
Y1058790D01*
X315890Y1071210D02*
X336890D01*
X315890Y1019210D02*
Y1071210D01*
Y1019210D02*
X336890D01*
Y1071210D01*
X315890Y1106840D02*
Y1158840D01*
X336890D01*
Y1106840D02*
Y1158840D01*
X315890Y1106840D02*
X336890D01*
X342560D02*
Y1158840D01*
X363560D01*
Y1106840D02*
Y1158840D01*
X342560Y1106840D02*
X363560D01*
X736040Y940080D02*
Y962380D01*
X780340Y940080D02*
Y962380D01*
X736040Y940080D02*
X780340D01*
X736040Y962380D02*
X780340D01*
X376910Y988770D02*
Y1033070D01*
X354610Y988770D02*
Y1033070D01*
Y988770D02*
X376910D01*
X354610Y1033070D02*
X376910D01*
Y916380D02*
Y960680D01*
X354610Y916380D02*
Y960680D01*
Y916380D02*
X376910D01*
X354610Y960680D02*
X376910D01*
X315890Y944210D02*
X336890D01*
X315890Y892210D02*
Y944210D01*
Y892210D02*
X336890D01*
Y944210D01*
X497620Y905900D02*
Y935600D01*
X482820Y905900D02*
Y935600D01*
Y905900D02*
X497620D01*
X482820Y935600D02*
X497620D01*
X354610Y1083870D02*
X376910D01*
X354610Y1039570D02*
X376910D01*
X354610D02*
Y1083870D01*
X376910Y1039570D02*
Y1083870D01*
X464250Y1317210D02*
X659750D01*
X464250Y1187210D02*
Y1317210D01*
Y1187210D02*
X659750D01*
Y1317210D01*
X1520834Y877350D02*
X1550534D01*
X1520834Y862550D02*
X1550534D01*
Y877350D01*
X1520834Y862550D02*
Y877350D01*
X1524644Y785910D02*
X1554344D01*
X1524644Y771110D02*
X1554344D01*
Y785910D01*
X1524644Y771110D02*
Y785910D01*
X1524644Y910370D02*
X1554344D01*
X1524644Y895570D02*
X1554344D01*
Y910370D01*
X1524644Y895570D02*
Y910370D01*
X1524644Y811750D02*
Y826550D01*
X1554344Y811750D02*
Y826550D01*
X1524644Y811750D02*
X1554344D01*
X1524644Y826550D02*
X1554344D01*
X1402594Y948910D02*
X1432294D01*
X1402594Y963710D02*
X1432294D01*
X1402594Y948910D02*
Y963710D01*
X1432294Y948910D02*
Y963710D01*
X1402594Y813020D02*
X1432294D01*
X1402594Y827820D02*
X1432294D01*
X1402594Y813020D02*
Y827820D01*
X1432294Y813020D02*
Y827820D01*
X1522104Y991650D02*
X1551804D01*
X1522104Y976850D02*
X1551804D01*
Y991650D01*
X1522104Y976850D02*
Y991650D01*
X1524644Y745270D02*
X1554344D01*
X1524644Y730470D02*
X1554344D01*
Y745270D01*
X1524644Y730470D02*
Y745270D01*
X1402594Y731740D02*
X1432294D01*
X1402594Y746540D02*
X1432294D01*
X1402594Y731740D02*
Y746540D01*
X1432294Y731740D02*
Y746540D01*
X1523374Y951010D02*
X1553074D01*
X1523374Y936210D02*
X1553074D01*
Y951010D01*
X1523374Y936210D02*
Y951010D01*
X1520834Y698720D02*
Y713520D01*
X1550534Y698720D02*
Y713520D01*
X1520834Y698720D02*
X1550534Y698720D01*
X1520834Y713520D02*
X1550534Y713520D01*
X1402594Y772380D02*
X1432294D01*
X1402594Y787180D02*
X1432294D01*
X1402594Y772380D02*
Y787180D01*
X1432294Y772380D02*
Y787180D01*
X1224810Y497100D02*
Y671300D01*
X1399010Y497100D02*
Y671300D01*
X1224810D02*
X1399010D01*
X1224810Y497100D02*
X1399010D01*
X1170980Y318850D02*
X1252180D01*
X1170980Y174050D02*
Y318850D01*
Y174050D02*
X1252180D01*
Y318850D01*
X1408820Y376920D02*
X1438520D01*
X1408820Y362220D02*
X1438520D01*
Y376920D01*
X1408820Y362220D02*
Y376920D01*
X1443110Y746980D02*
Y761780D01*
X1472810Y746980D02*
Y761780D01*
X1443110Y746980D02*
X1472810Y746980D01*
X1443110Y761780D02*
X1472810Y761780D01*
X1458840Y910810D02*
Y925610D01*
X1429140Y910810D02*
Y925610D01*
X1458840D01*
X1429140Y910810D02*
X1458840D01*
X1587830Y617550D02*
Y690550D01*
X1533830Y617550D02*
X1587830D01*
X1533830D02*
Y690550D01*
X1587830D01*
X1018930Y821470D02*
X1048630D01*
X1018930Y806670D02*
X1048630D01*
X1018930D02*
Y821470D01*
X1048630Y806670D02*
Y821470D01*
X583420Y1048770D02*
Y1112770D01*
Y1048770D02*
X676420D01*
Y1112770D01*
X583420D02*
X676420D01*
X1034060Y876860D02*
X1056360D01*
X1034060Y832560D02*
X1056360D01*
Y876860D01*
X1034060Y832560D02*
Y876860D01*
X1093750Y913690D02*
X1116050D01*
X1093750Y869390D02*
X1116050D01*
X1093750D02*
Y913690D01*
X1116050Y869390D02*
Y913690D01*
X1324750Y595650D02*
X1354950D01*
Y610850D01*
X1324750D02*
X1354950D01*
X1324750Y595650D02*
Y610850D01*
X908440Y918430D02*
Y933230D01*
X938140Y918430D02*
Y933230D01*
X908440Y918430D02*
X938140D01*
X908440Y933230D02*
X938140D01*
X963540Y750790D02*
Y765590D01*
X933840Y750790D02*
Y765590D01*
X963540D01*
X933840Y750790D02*
X963540D01*
X1129710Y766640D02*
X1214710D01*
Y711640D02*
Y766640D01*
X1129710Y711640D02*
X1214710D01*
X1129710D02*
Y766640D01*
X1220690Y724290D02*
X1235490D01*
X1220690Y753990D02*
X1235490D01*
Y724290D02*
Y753990D01*
X1220690Y724290D02*
Y753990D01*
X1310620Y613550D02*
Y643750D01*
X1295420D02*
X1310620D01*
X1295420Y613550D02*
Y643750D01*
Y613550D02*
X1310620D01*
X1354870Y613800D02*
Y643500D01*
X1340070Y613800D02*
Y643500D01*
X1354870D01*
X1340070Y613800D02*
X1354870D01*
X1329470D02*
Y643500D01*
X1314670Y613800D02*
Y643500D01*
X1329470D01*
X1314670Y613800D02*
X1329470D01*
X1177680Y499330D02*
Y514130D01*
X1207380Y499330D02*
Y514130D01*
X1177680Y499330D02*
X1207380D01*
X1177680Y514130D02*
X1207380D01*
X1370720Y477740D02*
X1400420D01*
X1370720Y492540D02*
X1400420D01*
X1370720Y477740D02*
Y492540D01*
X1400420Y477740D02*
Y492540D01*
X941350Y918920D02*
X963650D01*
X941350Y963220D02*
X963650D01*
Y918920D02*
Y963220D01*
X941350Y918920D02*
Y963220D01*
X1483160Y807679D02*
X1521660Y807679D01*
X1483160Y773678D02*
X1521660D01*
Y807679D01*
X1483160Y807679D02*
X1483160Y773678D01*
X1577900Y791490D02*
Y813790D01*
X1533600Y791490D02*
Y813790D01*
Y791490D02*
X1577900D01*
X1533600Y813790D02*
X1577900D01*
Y766090D02*
Y788390D01*
X1533600Y766090D02*
Y788390D01*
Y766090D02*
X1577900Y766090D01*
X1533600Y788390D02*
X1577900D01*
X1008660Y832560D02*
X1030960D01*
X1008660Y876860D02*
X1030960D01*
X1008660Y832560D02*
Y876860D01*
X1030960Y832560D02*
Y876860D01*
X802190Y768590D02*
X828790Y768590D01*
X802190Y768590D02*
Y804790D01*
X828790Y804790D01*
Y768590D02*
Y804790D01*
X889600Y740650D02*
Y776850D01*
X863000D02*
X889600D01*
X863000Y740650D02*
Y776850D01*
Y740650D02*
X889600D01*
X920080Y740650D02*
Y776850D01*
X893480D02*
X920080D01*
X893480Y740650D02*
Y776850D01*
Y740650D02*
X920080D01*
X859270Y768590D02*
Y804790D01*
X832670D02*
X859270D01*
X832670Y768590D02*
Y804790D01*
Y768590D02*
X859270D01*
X1314490Y803350D02*
Y847650D01*
X1292190Y803350D02*
Y847650D01*
Y803350D02*
X1314490D01*
X1292190Y847650D02*
X1314490D01*
X901290Y1087350D02*
Y1141300D01*
X915790D01*
Y1258350D01*
X803790D02*
X915790D01*
X803790Y1141300D02*
Y1258350D01*
Y1141300D02*
X818290D01*
Y1087350D02*
Y1141300D01*
Y1087350D02*
X901290D01*
X1245900Y826290D02*
Y903450D01*
X1207740Y826290D02*
Y903450D01*
Y826290D02*
X1245900D01*
X1207740Y903450D02*
X1245900D01*
X1400740Y857880D02*
X1423740Y857880D01*
X1423740Y904880D01*
X1400740Y904880D02*
X1423740Y904880D01*
X1400740Y857880D02*
Y904880D01*
X1265170Y755010D02*
X1288170Y755010D01*
Y802010D01*
X1265170Y802010D02*
X1288170Y802010D01*
X1265170Y802010D02*
X1265170Y755010D01*
X1175140Y684800D02*
X1204840D01*
X1175140Y699500D02*
X1204840D01*
X1175140Y684800D02*
Y699500D01*
X1204840Y684800D02*
Y699500D01*
X1206720Y669680D02*
Y699380D01*
X1221520Y669680D02*
Y699380D01*
X1206720D02*
X1221520D01*
X1206720Y669680D02*
X1221520D01*
X1258350Y684920D02*
Y714620D01*
X1243550Y684920D02*
Y714620D01*
Y684920D02*
X1258350D01*
X1243550Y714620D02*
X1258350D01*
X1241840Y684920D02*
Y714620D01*
X1227040Y684920D02*
Y714620D01*
Y684920D02*
X1241840D01*
X1227040Y714620D02*
X1241840D01*
X1065920Y934500D02*
X1095620D01*
X1065920Y919700D02*
X1095620D01*
Y934500D01*
X1065920Y919700D02*
Y934500D01*
X1061500Y919870D02*
Y949570D01*
X1046700Y919870D02*
Y949570D01*
Y919870D02*
X1061500D01*
X1046700Y949570D02*
X1061500D01*
X970670Y915890D02*
X1000370D01*
X970670Y930690D02*
X1000370D01*
X970670Y915890D02*
Y930690D01*
X1000370Y915890D02*
Y930690D01*
X1168790Y906560D02*
X1198490D01*
X1168790Y891760D02*
X1198490D01*
Y906560D01*
X1168790Y891760D02*
Y906560D01*
X1381980Y687460D02*
Y717160D01*
X1396780Y687460D02*
Y717160D01*
X1381980D02*
X1396780D01*
X1381980Y687460D02*
X1396780D01*
X1018760Y726830D02*
Y756530D01*
X1033560Y726830D02*
Y756530D01*
X1018760D02*
X1033560D01*
X1018760Y726830D02*
X1033560D01*
X896840Y877960D02*
Y907660D01*
X911640Y877960D02*
Y907660D01*
X896840D02*
X911640D01*
X896840Y877960D02*
X911640D01*
X1347860Y723680D02*
X1377560D01*
X1347860Y708880D02*
X1377560D01*
Y723680D01*
X1347860Y708880D02*
Y723680D01*
X1342170Y684920D02*
Y714620D01*
X1327370Y684920D02*
Y714620D01*
Y684920D02*
X1342170D01*
X1327370Y714620D02*
X1342170D01*
X1322250Y684040D02*
Y718040D01*
X1281250D02*
X1322250D01*
X1281250Y684040D02*
X1322250D01*
X1281250D02*
Y718040D01*
X1261330Y684920D02*
Y714620D01*
X1276130Y684920D02*
Y714620D01*
X1261330D02*
X1276130D01*
X1261330Y684920D02*
X1276130D01*
X1582980Y592100D02*
Y614400D01*
X1538680Y592100D02*
Y614400D01*
X1582980D01*
X1538680Y592100D02*
X1582980D01*
X1528860Y604910D02*
Y634610D01*
X1514060Y604910D02*
Y634610D01*
Y604910D02*
X1528860D01*
X1514060Y634610D02*
X1528860D01*
X1408820Y394750D02*
X1438520D01*
X1408820Y379950D02*
X1438520D01*
Y394750D01*
X1408820Y379950D02*
Y394750D01*
X1553600Y713520D02*
X1583300D01*
X1553600Y698720D02*
X1583300D01*
Y713520D01*
X1553600Y698720D02*
Y713520D01*
X573980Y1127190D02*
Y1176590D01*
X375980Y1176590D02*
X573980Y1176590D01*
X375980Y1127190D02*
Y1176590D01*
Y1127190D02*
X573980Y1127190D01*
X1463760Y586700D02*
X1555060D01*
Y454700D02*
Y586700D01*
X1463760Y454700D02*
X1555060D01*
X1463760D02*
Y586700D01*
X1398230Y151190D02*
Y348990D01*
X1291630Y151190D02*
X1398230D01*
X1291630D02*
Y348990D01*
X1398230D01*
X1423170Y171066D02*
Y341066D01*
Y171066D02*
X1583170D01*
Y341066D01*
X1423170D02*
X1583170D01*
X1408820Y345660D02*
X1438520D01*
X1408820Y360460D02*
X1438520D01*
X1408820Y345660D02*
Y360460D01*
X1438520Y345660D02*
Y360460D01*
X1403570Y298840D02*
X1418370D01*
X1403570Y328540D02*
X1418370D01*
Y298840D02*
Y328540D01*
X1403570Y298840D02*
Y328540D01*
X746270Y986630D02*
X780270D01*
X746270Y966630D02*
X780270D01*
X746270D02*
Y986630D01*
X780270Y966630D02*
Y986630D01*
X1346690Y1111410D02*
Y1131410D01*
X1312690Y1111410D02*
Y1131410D01*
Y1111410D02*
X1346690D01*
X1312690Y1131410D02*
X1346690D01*
X764790Y991090D02*
Y1084090D01*
X700790Y991090D02*
X764790D01*
X700790D02*
Y1084090D01*
X764790D01*
X995410Y312210D02*
X1069610D01*
Y254210D02*
Y312210D01*
X995410Y254210D02*
X1069610D01*
X995410D02*
Y312210D01*
X1207450Y533540D02*
Y551040D01*
X1167450Y551040D02*
X1207450Y551040D01*
X1167450Y533540D02*
X1167450Y551040D01*
X1167450Y533540D02*
X1207450D01*
X1167450Y553860D02*
Y571360D01*
Y553860D02*
X1207450Y553860D01*
X1207450Y571360D01*
X1167450D02*
X1207450D01*
X1447160Y586880D02*
Y604380D01*
X1407160D02*
X1447160D01*
X1407160Y586880D02*
X1407160Y604380D01*
X1407160Y586880D02*
X1447160Y586880D01*
X1407160Y608470D02*
Y625970D01*
Y608470D02*
X1447160Y608470D01*
Y625970D01*
X1407160Y625970D02*
X1447160Y625970D01*
X1419980Y496130D02*
X1572980D01*
X1419980D02*
Y515130D01*
X1422980Y515130D01*
Y613630D01*
X1409980D02*
X1422980D01*
X1409980D02*
Y646630D01*
X1572980D01*
Y496130D02*
Y646630D01*
X1291290Y366540D02*
Y400540D01*
X1311290Y366540D02*
Y400540D01*
X1291290Y366540D02*
X1311290D01*
X1291290Y400540D02*
X1311290D01*
X1316690Y366650D02*
Y400650D01*
X1336691Y366650D02*
Y400650D01*
X1316690Y366650D02*
X1336691D01*
X1316690Y400650D02*
X1336691D01*
X1356520Y366650D02*
Y400649D01*
X1376520Y366650D02*
Y400649D01*
X1356520Y366650D02*
X1376520D01*
X1356520Y400649D02*
X1376520D01*
X1383190Y366650D02*
Y400650D01*
X1403190Y366650D02*
Y400650D01*
X1383190Y366650D02*
X1403190D01*
X1383190Y400650D02*
X1403190D01*
X1051780Y314080D02*
X1066580D01*
X1051780Y343780D02*
X1066580D01*
Y314080D02*
Y343780D01*
X1051780Y314080D02*
Y343780D01*
X1368540Y477740D02*
Y492540D01*
X1338840Y477740D02*
Y492540D01*
X1368540D01*
X1338840Y477740D02*
X1368540D01*
X1207380Y515840D02*
Y530640D01*
X1177680Y515840D02*
Y530640D01*
X1207380D01*
X1177680Y515840D02*
X1207380D01*
X1323730Y1060670D02*
Y1075470D01*
X1353430Y1060670D02*
Y1075470D01*
X1323730Y1060670D02*
X1353430D01*
X1323730Y1075470D02*
X1353430D01*
X1337580Y994800D02*
Y1024500D01*
X1352280D02*
X1352280Y994800D01*
X1337580Y1024500D02*
X1352280D01*
X1337580Y994800D02*
X1352280D01*
X1353340Y1029900D02*
Y1052900D01*
X1306040D02*
X1353340D01*
X1306040Y1029900D02*
Y1052900D01*
Y1029900D02*
X1353340D01*
X1035760Y756640D02*
X1080060D01*
X1035760Y734340D02*
X1080060D01*
Y756640D01*
X1035760Y734340D02*
Y756640D01*
X1175140Y668240D02*
X1204840D01*
X1175140Y683040D02*
X1204840D01*
X1175140Y668240D02*
Y683040D01*
X1204840Y668240D02*
Y683040D01*
X1118930Y828590D02*
Y856590D01*
Y828590D02*
X1189930D01*
Y856590D01*
X1118930Y856590D02*
X1189930Y856590D01*
X1442125Y1125510D02*
X1529675D01*
Y1244310D01*
X1442125D02*
X1529675D01*
X1442125Y1125510D02*
Y1244310D01*
X1547910Y1115320D02*
Y1145020D01*
X1533110Y1115320D02*
Y1145020D01*
Y1115320D02*
X1547910D01*
X1533110Y1145020D02*
X1547910D01*
X1459450Y1115940D02*
X1474250D01*
X1459450Y1086240D02*
X1474250D01*
X1459450D02*
Y1115940D01*
X1474250Y1086240D02*
Y1115940D01*
X1440400D02*
X1455200D01*
X1440400Y1086240D02*
X1455200D01*
X1440400D02*
Y1115940D01*
X1455200Y1086240D02*
Y1115940D01*
X1567400Y472830D02*
Y502530D01*
X1582200Y472830D02*
Y502530D01*
X1567400D02*
X1582200D01*
X1567400Y472830D02*
X1582200D01*
X1200370Y662550D02*
X1215170D01*
X1200370Y632850D02*
X1215170D01*
X1200370D02*
Y662550D01*
X1215170Y632850D02*
Y662550D01*
X1407550Y636490D02*
X1437250D01*
X1407550Y651290D02*
X1437250D01*
X1407550Y636490D02*
Y651290D01*
X1437250Y636490D02*
Y651290D01*
X1532330Y1006830D02*
X1576630D01*
X1532330Y984530D02*
X1576630D01*
X1532330D02*
Y1006830D01*
X1576630Y984530D02*
Y1006830D01*
X1532330Y981430D02*
X1576630Y981430D01*
X1532330Y959130D02*
X1576630D01*
X1532330Y981430D02*
X1532330Y959130D01*
X1576630D02*
X1576630Y981430D01*
X1533600Y717270D02*
X1577900D01*
X1533600Y694970D02*
X1577900D01*
X1533600Y717270D02*
X1533600Y694970D01*
X1577900D02*
Y717270D01*
X1533600Y691870D02*
X1577900D01*
X1533600Y669570D02*
X1577900D01*
X1533600D02*
Y691870D01*
X1577900Y669570D02*
Y691870D01*
X1533600Y884910D02*
X1577900D01*
X1533600Y862610D02*
X1577900D01*
X1533600Y884910D02*
X1533600Y862610D01*
X1577900D02*
Y884910D01*
X1534040Y910310D02*
X1578340D01*
X1534040Y888010D02*
X1578340D01*
X1534040D02*
Y910310D01*
X1578340Y888010D02*
X1578340Y910310D01*
X1483160Y677158D02*
Y711159D01*
X1521660Y677158D02*
Y711159D01*
X1483160Y677158D02*
X1521660D01*
X1483160Y711159D02*
X1521660D01*
X1482330Y870198D02*
Y904199D01*
X1520830Y870198D02*
Y904199D01*
X1482330Y870198D02*
X1520830D01*
X1482330Y904199D02*
X1520830D01*
X1482800Y966719D02*
Y1000719D01*
X1521300Y966719D02*
Y1000719D01*
X1482800Y966719D02*
X1521300D01*
X1482800Y1000719D02*
X1521300D01*
X1527100Y938810D02*
Y961110D01*
X1482800Y938810D02*
Y961110D01*
Y938810D02*
X1527100D01*
X1482800Y961110D02*
X1527100D01*
%TF.MD5,c105b70dc3cf6e66e77a513f0577de78*%
M02*
