G04*
G04 #@! TF.GenerationSoftware,Altium Limited,Altium Designer,22.2.1 (43)*
G04*
G04 Layer_Color=255*
%FSLAX43Y43*%
%MOMM*%
G71*
G04*
G04 #@! TF.SameCoordinates,554F8E3F-4C3B-413C-AF13-BA86D744421E*
G04*
G04*
G04 #@! TF.FilePolarity,Positive*
G04*
G01*
G75*
%ADD21R,0.970X1.730*%
%ADD24R,0.980X0.920*%
%ADD26R,0.920X0.980*%
%ADD28R,1.730X0.970*%
%ADD116C,4.115*%
%ADD162O,4.191X2.096*%
%ADD163R,1.605X1.605*%
%ADD164C,1.605*%
%ADD165R,1.950X1.950*%
%ADD166C,1.950*%
%ADD167C,1.140*%
%ADD168R,1.140X1.140*%
%ADD169O,3.048X1.524*%
%ADD170R,2.055X2.055*%
%ADD171C,2.055*%
%ADD172C,1.803*%
%ADD173C,2.311*%
%ADD174C,4.089*%
%ADD175R,1.499X1.499*%
%ADD176C,1.499*%
%ADD177R,2.055X2.055*%
%ADD178C,3.500*%
%ADD179C,1.770*%
%ADD180C,1.560*%
%ADD181R,1.100X1.100*%
%ADD182R,1.560X1.560*%
%ADD183C,3.346*%
%ADD184C,1.428*%
%ADD185R,1.428X1.428*%
%ADD186C,1.100*%
%ADD187R,1.770X1.770*%
G04:AMPARAMS|DCode=194|XSize=0.94mm|YSize=1.02mm|CornerRadius=0.094mm|HoleSize=0mm|Usage=FLASHONLY|Rotation=90.000|XOffset=0mm|YOffset=0mm|HoleType=Round|Shape=RoundedRectangle|*
%AMROUNDEDRECTD194*
21,1,0.940,0.832,0,0,90.0*
21,1,0.752,1.020,0,0,90.0*
1,1,0.188,0.416,0.376*
1,1,0.188,0.416,-0.376*
1,1,0.188,-0.416,-0.376*
1,1,0.188,-0.416,0.376*
%
%ADD194ROUNDEDRECTD194*%
G04:AMPARAMS|DCode=195|XSize=0.94mm|YSize=1.02mm|CornerRadius=0.094mm|HoleSize=0mm|Usage=FLASHONLY|Rotation=0.000|XOffset=0mm|YOffset=0mm|HoleType=Round|Shape=RoundedRectangle|*
%AMROUNDEDRECTD195*
21,1,0.940,0.832,0,0,0.0*
21,1,0.752,1.020,0,0,0.0*
1,1,0.188,0.376,-0.416*
1,1,0.188,-0.376,-0.416*
1,1,0.188,-0.376,0.416*
1,1,0.188,0.376,0.416*
%
%ADD195ROUNDEDRECTD195*%
G04:AMPARAMS|DCode=196|XSize=1.23mm|YSize=0.6mm|CornerRadius=0.075mm|HoleSize=0mm|Usage=FLASHONLY|Rotation=180.000|XOffset=0mm|YOffset=0mm|HoleType=Round|Shape=RoundedRectangle|*
%AMROUNDEDRECTD196*
21,1,1.230,0.450,0,0,180.0*
21,1,1.080,0.600,0,0,180.0*
1,1,0.150,-0.540,0.225*
1,1,0.150,0.540,0.225*
1,1,0.150,0.540,-0.225*
1,1,0.150,-0.540,-0.225*
%
%ADD196ROUNDEDRECTD196*%
%ADD197R,1.500X0.800*%
%ADD198R,1.900X1.400*%
%ADD199R,1.400X1.300*%
%ADD200R,1.000X0.950*%
D21*
X149015Y66040D02*
D03*
X151975D02*
D03*
X149015Y72771D02*
D03*
X151975D02*
D03*
X149015Y75692D02*
D03*
X151975D02*
D03*
Y82423D02*
D03*
X149015D02*
D03*
X151975Y85344D02*
D03*
X149015D02*
D03*
Y92075D02*
D03*
X151975D02*
D03*
X149015Y101727D02*
D03*
X151975D02*
D03*
X157055Y80264D02*
D03*
X154095Y80264D02*
D03*
X157055Y77724D02*
D03*
X154095D02*
D03*
X153968Y99568D02*
D03*
X153968Y97028D02*
D03*
X154095Y87376D02*
D03*
X154139Y89916D02*
D03*
X154095Y70612D02*
D03*
Y68072D02*
D03*
X156928Y99568D02*
D03*
X157055Y70612D02*
D03*
X157099Y89916D02*
D03*
X156928Y97028D02*
D03*
X157055Y68072D02*
D03*
X157055Y87376D02*
D03*
X151975Y94996D02*
D03*
X149015D02*
D03*
D24*
X134747Y63640D02*
D03*
Y62090D02*
D03*
X132207Y63640D02*
D03*
Y62090D02*
D03*
D26*
X104153Y81407D02*
D03*
X102603D02*
D03*
D28*
X104521Y83991D02*
D03*
Y86951D02*
D03*
X101981Y83991D02*
D03*
Y86951D02*
D03*
D116*
X48514Y43815D02*
D03*
X78867Y60350D02*
D03*
X48514Y60198D02*
D03*
X78867Y43815D02*
D03*
D162*
X28194Y38354D02*
D03*
X28194Y43815D02*
D03*
X28194Y49276D02*
D03*
X58547Y65811D02*
D03*
Y54889D02*
D03*
Y60350D02*
D03*
X28194Y65659D02*
D03*
Y54737D02*
D03*
Y60198D02*
D03*
X58547Y49276D02*
D03*
Y38354D02*
D03*
Y43815D02*
D03*
D163*
X51562Y92964D02*
D03*
Y83820D02*
D03*
D164*
Y95504D02*
D03*
Y98044D02*
D03*
Y86360D02*
D03*
Y88900D02*
D03*
D165*
X60965Y123571D02*
D03*
D166*
X51435D02*
D03*
D167*
X95631Y56896D02*
D03*
Y54356D02*
D03*
Y51816D02*
D03*
X87691Y54356D02*
D03*
Y51816D02*
D03*
Y56896D02*
D03*
X95631Y59436D02*
D03*
X95664Y32004D02*
D03*
Y29464D02*
D03*
Y26924D02*
D03*
X87724D02*
D03*
Y32004D02*
D03*
Y29464D02*
D03*
X95664Y34544D02*
D03*
Y64262D02*
D03*
Y66802D02*
D03*
Y69342D02*
D03*
X87724Y64262D02*
D03*
Y69342D02*
D03*
Y66802D02*
D03*
X95664Y71882D02*
D03*
X95537Y39370D02*
D03*
Y41910D02*
D03*
Y44450D02*
D03*
X87597Y39370D02*
D03*
X95537Y46990D02*
D03*
X87597Y44450D02*
D03*
Y41910D02*
D03*
D168*
X87691Y59436D02*
D03*
X87724Y34544D02*
D03*
Y71882D02*
D03*
X87597Y46990D02*
D03*
D169*
X134525Y76073D02*
D03*
Y78613D02*
D03*
X134525Y81153D02*
D03*
X134525Y92583D02*
D03*
Y90043D02*
D03*
X134525Y87503D02*
D03*
D170*
X35052Y122428D02*
D03*
D171*
X37587D02*
D03*
X40122D02*
D03*
X28702Y95118D02*
D03*
Y92583D02*
D03*
X28575Y117599D02*
D03*
Y105408D02*
D03*
Y107943D02*
D03*
Y120134D02*
D03*
D172*
X170104Y87859D02*
D03*
Y61849D02*
D03*
X167615Y87859D02*
D03*
X165100D02*
D03*
X162611D02*
D03*
X170104Y84353D02*
D03*
Y79350D02*
D03*
X167615D02*
D03*
X165100D02*
D03*
Y61849D02*
D03*
X167615D02*
D03*
X170104Y64338D02*
D03*
Y66853D02*
D03*
Y69342D02*
D03*
Y71857D02*
D03*
Y74346D02*
D03*
X162611Y76860D02*
D03*
X167615D02*
D03*
X170104D02*
D03*
X162611Y79350D02*
D03*
X165100Y81839D02*
D03*
X162611Y84353D02*
D03*
X165100D02*
D03*
X162611Y61849D02*
D03*
Y81839D02*
D03*
Y64338D02*
D03*
X165100D02*
D03*
X167615D02*
D03*
X162611Y66853D02*
D03*
X165100D02*
D03*
X167615D02*
D03*
X162611Y69342D02*
D03*
X165100D02*
D03*
X167615D02*
D03*
X162611Y71857D02*
D03*
X165100D02*
D03*
X167615D02*
D03*
X162611Y74346D02*
D03*
X165100D02*
D03*
X167615D02*
D03*
X165100Y76860D02*
D03*
X167615Y81839D02*
D03*
X170104D02*
D03*
X167615Y84353D02*
D03*
X162611Y91542D02*
D03*
X165100D02*
D03*
X167615D02*
D03*
X170104D02*
D03*
D173*
X161620Y55397D02*
D03*
Y97993D02*
D03*
D174*
X165456Y51308D02*
D03*
Y102108D02*
D03*
D175*
X39497Y110236D02*
D03*
Y97917D02*
D03*
D176*
Y107696D02*
D03*
Y105156D02*
D03*
Y102616D02*
D03*
X47117D02*
D03*
Y105156D02*
D03*
Y107696D02*
D03*
Y110236D02*
D03*
Y97917D02*
D03*
Y95377D02*
D03*
Y92837D02*
D03*
Y90297D02*
D03*
X39497D02*
D03*
Y92837D02*
D03*
Y95377D02*
D03*
D177*
X28702Y90048D02*
D03*
X28575Y115064D02*
D03*
Y102873D02*
D03*
D178*
X45468Y114819D02*
D03*
X49528D02*
D03*
X40388D02*
D03*
X54608D02*
D03*
D179*
X115443Y84074D02*
D03*
X117723D02*
D03*
D180*
X135763Y27559D02*
D03*
X133223D02*
D03*
X138303D02*
D03*
D181*
X53340Y109942D02*
D03*
D182*
X130683Y27559D02*
D03*
D183*
X156337Y27607D02*
D03*
X144297D02*
D03*
D184*
X151567Y30317D02*
D03*
X149067D02*
D03*
Y32317D02*
D03*
D185*
X151567D02*
D03*
D186*
X53340Y104942D02*
D03*
D187*
X113163Y84074D02*
D03*
D194*
X130302Y63655D02*
D03*
Y62075D02*
D03*
D195*
X133195Y60325D02*
D03*
X134775D02*
D03*
D196*
X151301Y80018D02*
D03*
X149181Y79068D02*
D03*
X151301Y78118D02*
D03*
Y68466D02*
D03*
X149181Y69416D02*
D03*
X151301Y70366D02*
D03*
X151218Y87770D02*
D03*
X149098Y88720D02*
D03*
X151218Y89670D02*
D03*
X151265Y97422D02*
D03*
X149145Y98372D02*
D03*
X151265Y99322D02*
D03*
D197*
X145488Y59053D02*
D03*
X145888Y57953D02*
D03*
X145488Y56853D02*
D03*
X145288Y55753D02*
D03*
X145488Y54653D02*
D03*
X145288Y53553D02*
D03*
X145488Y52453D02*
D03*
Y51353D02*
D03*
D198*
X142198Y63713D02*
D03*
X143198Y50563D02*
D03*
D199*
X156348Y57863D02*
D03*
Y52163D02*
D03*
D200*
X156548Y53553D02*
D03*
M02*
